G04 #@! TF.GenerationSoftware,KiCad,Pcbnew,(5.1.6)-1*
G04 #@! TF.CreationDate,2020-08-26T11:58:31+02:00*
G04 #@! TF.ProjectId,board_zero,626f6172-645f-47a6-9572-6f2e6b696361,1.0*
G04 #@! TF.SameCoordinates,PX1903cf0PY6c69e80*
G04 #@! TF.FileFunction,Legend,Bot*
G04 #@! TF.FilePolarity,Positive*
%FSLAX46Y46*%
G04 Gerber Fmt 4.6, Leading zero omitted, Abs format (unit mm)*
G04 Created by KiCad (PCBNEW (5.1.6)-1) date 2020-08-26 11:58:31*
%MOMM*%
%LPD*%
G01*
G04 APERTURE LIST*
%ADD10C,0.400000*%
G04 #@! TA.AperFunction,Profile*
%ADD11C,0.100000*%
G04 #@! TD*
%ADD12C,0.200000*%
%ADD13C,0.010000*%
%ADD14C,0.250000*%
G04 APERTURE END LIST*
D10*
X73944523Y-1444761D02*
X73277857Y-3444761D01*
X72611190Y-1444761D01*
X72039761Y-3349523D02*
X71754047Y-3444761D01*
X71277857Y-3444761D01*
X71087380Y-3349523D01*
X70992142Y-3254285D01*
X70896904Y-3063809D01*
X70896904Y-2873333D01*
X70992142Y-2682857D01*
X71087380Y-2587619D01*
X71277857Y-2492380D01*
X71658809Y-2397142D01*
X71849285Y-2301904D01*
X71944523Y-2206666D01*
X72039761Y-2016190D01*
X72039761Y-1825714D01*
X71944523Y-1635238D01*
X71849285Y-1540000D01*
X71658809Y-1444761D01*
X71182619Y-1444761D01*
X70896904Y-1540000D01*
X70325476Y-1444761D02*
X69182619Y-1444761D01*
X69754047Y-3444761D02*
X69754047Y-1444761D01*
X67468333Y-3444761D02*
X68611190Y-3444761D01*
X68039761Y-3444761D02*
X68039761Y-1444761D01*
X68230238Y-1730476D01*
X68420714Y-1920952D01*
X68611190Y-2016190D01*
X66230238Y-1444761D02*
X66039761Y-1444761D01*
X65849285Y-1540000D01*
X65754047Y-1635238D01*
X65658809Y-1825714D01*
X65563571Y-2206666D01*
X65563571Y-2682857D01*
X65658809Y-3063809D01*
X65754047Y-3254285D01*
X65849285Y-3349523D01*
X66039761Y-3444761D01*
X66230238Y-3444761D01*
X66420714Y-3349523D01*
X66515952Y-3254285D01*
X66611190Y-3063809D01*
X66706428Y-2682857D01*
X66706428Y-2206666D01*
X66611190Y-1825714D01*
X66515952Y-1635238D01*
X66420714Y-1540000D01*
X66230238Y-1444761D01*
X63849285Y-2111428D02*
X63849285Y-3444761D01*
X64325476Y-1349523D02*
X64801666Y-2778095D01*
X63563571Y-2778095D01*
X62801666Y-2682857D02*
X61277857Y-2682857D01*
X60515952Y-1444761D02*
X59182619Y-1444761D01*
X60515952Y-3444761D01*
X59182619Y-3444761D01*
X57658809Y-3349523D02*
X57849285Y-3444761D01*
X58230238Y-3444761D01*
X58420714Y-3349523D01*
X58515952Y-3159047D01*
X58515952Y-2397142D01*
X58420714Y-2206666D01*
X58230238Y-2111428D01*
X57849285Y-2111428D01*
X57658809Y-2206666D01*
X57563571Y-2397142D01*
X57563571Y-2587619D01*
X58515952Y-2778095D01*
X56706428Y-3444761D02*
X56706428Y-2111428D01*
X56706428Y-2492380D02*
X56611190Y-2301904D01*
X56515952Y-2206666D01*
X56325476Y-2111428D01*
X56135000Y-2111428D01*
X55182619Y-3444761D02*
X55373095Y-3349523D01*
X55468333Y-3254285D01*
X55563571Y-3063809D01*
X55563571Y-2492380D01*
X55468333Y-2301904D01*
X55373095Y-2206666D01*
X55182619Y-2111428D01*
X54896904Y-2111428D01*
X54706428Y-2206666D01*
X54611190Y-2301904D01*
X54515952Y-2492380D01*
X54515952Y-3063809D01*
X54611190Y-3254285D01*
X54706428Y-3349523D01*
X54896904Y-3444761D01*
X55182619Y-3444761D01*
X20637142Y-2211428D02*
X20160952Y-3544761D01*
X19684761Y-2211428D01*
X19018095Y-1735238D02*
X18922857Y-1640000D01*
X18732380Y-1544761D01*
X18256190Y-1544761D01*
X18065714Y-1640000D01*
X17970476Y-1735238D01*
X17875238Y-1925714D01*
X17875238Y-2116190D01*
X17970476Y-2401904D01*
X19113333Y-3544761D01*
X17875238Y-3544761D01*
X17018095Y-3354285D02*
X16922857Y-3449523D01*
X17018095Y-3544761D01*
X17113333Y-3449523D01*
X17018095Y-3354285D01*
X17018095Y-3544761D01*
X15684761Y-1544761D02*
X15494285Y-1544761D01*
X15303809Y-1640000D01*
X15208571Y-1735238D01*
X15113333Y-1925714D01*
X15018095Y-2306666D01*
X15018095Y-2782857D01*
X15113333Y-3163809D01*
X15208571Y-3354285D01*
X15303809Y-3449523D01*
X15494285Y-3544761D01*
X15684761Y-3544761D01*
X15875238Y-3449523D01*
X15970476Y-3354285D01*
X16065714Y-3163809D01*
X16160952Y-2782857D01*
X16160952Y-2306666D01*
X16065714Y-1925714D01*
X15970476Y-1735238D01*
X15875238Y-1640000D01*
X15684761Y-1544761D01*
D11*
X52260500Y90805000D02*
G75*
G03*
X51308000Y89852500I0J-952500D01*
G01*
X52260500Y90805000D02*
X84137500Y90805000D01*
X50355500Y88900000D02*
G75*
G03*
X51308000Y89852500I0J952500D01*
G01*
X30988000Y89852500D02*
G75*
G03*
X31940500Y88900000I952500J0D01*
G01*
X31940500Y88900000D02*
X50355500Y88900000D01*
X-4127500Y90805000D02*
X30035500Y90805000D01*
X30988000Y89852500D02*
G75*
G03*
X30035500Y90805000I-952500J0D01*
G01*
X52260500Y-5080000D02*
X84137500Y-5080000D01*
X31940500Y-3175000D02*
X50355500Y-3175000D01*
X-4127500Y-5080000D02*
X30035500Y-5080000D01*
X52260500Y-5080000D02*
G75*
G02*
X51308000Y-4127500I0J952500D01*
G01*
X50355500Y-3175000D02*
G75*
G02*
X51308000Y-4127500I0J-952500D01*
G01*
X30988000Y-4127500D02*
G75*
G02*
X31940500Y-3175000I952500J0D01*
G01*
X30988000Y-4127500D02*
G75*
G02*
X30035500Y-5080000I-952500J0D01*
G01*
X84137500Y53009800D02*
G75*
G03*
X83185000Y52057300I0J-952500D01*
G01*
X85090000Y89852500D02*
X85090000Y53962300D01*
X83185000Y52057300D02*
X83185000Y33667700D01*
X85090000Y31762700D02*
X85090000Y-4127500D01*
X83185000Y33667700D02*
G75*
G03*
X84137500Y32715200I952500J0D01*
G01*
X85090000Y31762700D02*
G75*
G03*
X84137500Y32715200I-952500J0D01*
G01*
X84137500Y53009800D02*
G75*
G03*
X85090000Y53962300I0J952500D01*
G01*
X85090000Y-4127500D02*
G75*
G02*
X84137500Y-5080000I-952500J0D01*
G01*
X84137500Y90805000D02*
G75*
G02*
X85090000Y89852500I0J-952500D01*
G01*
X-5080000Y31762700D02*
X-5080000Y-4127500D01*
X-5080000Y89852500D02*
X-5080000Y53962300D01*
X-5080000Y89852500D02*
G75*
G02*
X-4127500Y90805000I952500J0D01*
G01*
X-3175000Y52057300D02*
X-3175000Y33667700D01*
X-4127500Y53009800D02*
G75*
G02*
X-5080000Y53962300I0J952500D01*
G01*
X-4127500Y53009800D02*
G75*
G02*
X-3175000Y52057300I0J-952500D01*
G01*
X-3175000Y33667700D02*
G75*
G02*
X-4127500Y32715200I-952500J0D01*
G01*
X-5080000Y31762700D02*
G75*
G02*
X-4127500Y32715200I952500J0D01*
G01*
X-4127500Y-5080000D02*
G75*
G02*
X-5080000Y-4127500I0J952500D01*
G01*
D12*
X15240000Y27305000D02*
X16510000Y27305000D01*
X33655000Y42545000D02*
X33655000Y73025000D01*
X38735000Y73025000D02*
X38735000Y42545000D01*
X12700000Y14605000D02*
X13970000Y14605000D01*
X26670000Y27305000D02*
X25400000Y27305000D01*
X20955000Y1905000D02*
X20955000Y2540000D01*
X12700000Y27305000D02*
X13970000Y27305000D01*
X15240000Y14605000D02*
X16510000Y14605000D01*
X10160000Y14605000D02*
X11430000Y14605000D01*
X21590000Y27305000D02*
X20320000Y27305000D01*
X33655000Y14605000D02*
X33020000Y14605000D01*
X38735000Y40005000D02*
X38735000Y1905000D01*
X26670000Y14605000D02*
X25400000Y14605000D01*
X29210000Y14605000D02*
X27940000Y14605000D01*
X20955000Y6350000D02*
X20955000Y7620000D01*
X8255000Y73025000D02*
X8255000Y42545000D01*
X21590000Y14605000D02*
X20320000Y14605000D01*
X31750000Y14605000D02*
X30480000Y14605000D01*
X24130000Y14605000D02*
X22860000Y14605000D01*
X33655000Y27305000D02*
X33020000Y27305000D01*
X20955000Y11430000D02*
X20955000Y12700000D01*
X38735000Y40005000D02*
X3175000Y40005000D01*
X58420000Y27305000D02*
X59690000Y27305000D01*
X41275000Y42545000D02*
X76835000Y42545000D01*
X46355000Y1905000D02*
X46355000Y40005000D01*
X20955000Y3810000D02*
X20955000Y5080000D01*
X17780000Y14605000D02*
X19050000Y14605000D01*
X17780000Y27305000D02*
X19050000Y27305000D01*
X20955000Y16510000D02*
X20955000Y17780000D01*
X8255000Y14605000D02*
X8890000Y14605000D01*
X64770000Y27305000D02*
X63500000Y27305000D01*
X3175000Y73025000D02*
X38735000Y73025000D01*
X53340000Y27305000D02*
X54610000Y27305000D01*
X20955000Y29210000D02*
X20955000Y30480000D01*
X38735000Y42545000D02*
X3175000Y42545000D01*
X10160000Y27305000D02*
X11430000Y27305000D01*
X3175000Y5080000D02*
X3175000Y40005000D01*
X8255000Y27305000D02*
X8890000Y27305000D01*
X29210000Y27305000D02*
X27940000Y27305000D01*
X20955000Y24130000D02*
X20955000Y25400000D01*
X20955000Y26670000D02*
X20955000Y27940000D01*
X20955000Y40005000D02*
X20955000Y39370000D01*
X55880000Y27305000D02*
X57150000Y27305000D01*
X62230000Y27305000D02*
X60960000Y27305000D01*
X20955000Y36830000D02*
X20955000Y38100000D01*
X59055000Y40005000D02*
X59055000Y39370000D01*
X69850000Y27305000D02*
X68580000Y27305000D01*
X6350000Y1905000D02*
X3175000Y5080000D01*
X71755000Y1905000D02*
X71755000Y40005000D01*
X20955000Y19050000D02*
X20955000Y20320000D01*
X48260000Y27305000D02*
X49530000Y27305000D01*
X8255000Y1905000D02*
X8255000Y40005000D01*
X3175000Y73025000D02*
X3175000Y42545000D01*
X20955000Y8890000D02*
X20955000Y10160000D01*
X20955000Y31750000D02*
X20955000Y33020000D01*
X33655000Y1905000D02*
X33655000Y40005000D01*
X31750000Y27305000D02*
X30480000Y27305000D01*
X24130000Y27305000D02*
X22860000Y27305000D01*
X20955000Y21590000D02*
X20955000Y22860000D01*
X20955000Y34290000D02*
X20955000Y35560000D01*
X71755000Y27305000D02*
X71120000Y27305000D01*
X6350000Y1905000D02*
X38735000Y1905000D01*
X67310000Y27305000D02*
X66040000Y27305000D01*
X20955000Y13970000D02*
X20955000Y15240000D01*
X73660000Y1905000D02*
X76835000Y5080000D01*
X50800000Y27305000D02*
X52070000Y27305000D01*
X59055000Y8890000D02*
X59055000Y10160000D01*
X46355000Y73025000D02*
X46355000Y42545000D01*
X62230000Y14605000D02*
X60960000Y14605000D01*
X59055000Y21590000D02*
X59055000Y22860000D01*
X46355000Y27305000D02*
X46990000Y27305000D01*
X67310000Y14605000D02*
X66040000Y14605000D01*
X71755000Y14605000D02*
X71120000Y14605000D01*
X69850000Y14605000D02*
X68580000Y14605000D01*
X76835000Y73025000D02*
X41275000Y73025000D01*
X71755000Y42545000D02*
X71755000Y73025000D01*
X59055000Y36830000D02*
X59055000Y38100000D01*
X64770000Y14605000D02*
X63500000Y14605000D01*
X58420000Y14605000D02*
X59690000Y14605000D01*
X48260000Y14605000D02*
X49530000Y14605000D01*
X73660000Y1905000D02*
X41275000Y1905000D01*
X55880000Y14605000D02*
X57150000Y14605000D01*
X50800000Y14605000D02*
X52070000Y14605000D01*
X59055000Y3810000D02*
X59055000Y5080000D01*
X59055000Y13970000D02*
X59055000Y15240000D01*
X41275000Y73025000D02*
X41275000Y42545000D01*
X53340000Y14605000D02*
X54610000Y14605000D01*
X46355000Y14605000D02*
X46990000Y14605000D01*
X59055000Y16510000D02*
X59055000Y17780000D01*
X59055000Y26670000D02*
X59055000Y27940000D01*
X59055000Y1905000D02*
X59055000Y2540000D01*
X59055000Y11430000D02*
X59055000Y12700000D01*
X59055000Y31750000D02*
X59055000Y33020000D01*
X76835000Y73025000D02*
X76835000Y42545000D01*
X41275000Y40005000D02*
X76835000Y40005000D01*
X3175000Y22225000D02*
X3175000Y5080000D01*
X59055000Y6350000D02*
X59055000Y7620000D01*
X59055000Y19050000D02*
X59055000Y20320000D01*
X59055000Y24130000D02*
X59055000Y25400000D01*
X59055000Y29210000D02*
X59055000Y30480000D01*
X41275000Y40005000D02*
X41275000Y1905000D01*
X76835000Y5080000D02*
X76835000Y40005000D01*
X59055000Y34290000D02*
X59055000Y35560000D01*
X75565000Y78105000D02*
X76200000Y79375000D01*
X75565000Y75565000D02*
X75946000Y76327000D01*
X75565000Y75565000D02*
X75565000Y78105000D01*
X75565000Y75565000D02*
X75184000Y76327000D01*
X40005000Y1905000D02*
X39624000Y1143000D01*
X40005000Y1905000D02*
X40386000Y1143000D01*
X40005000Y1905000D02*
X40005000Y-635000D01*
X62865000Y65405000D02*
X60325000Y65405000D01*
X64135000Y69215000D02*
X64135000Y68707000D01*
X65405000Y67945000D02*
X64897000Y67945000D01*
X63373000Y67945000D02*
X62865000Y67945000D01*
X24765000Y65405000D02*
X22225000Y65405000D01*
X26035000Y69215000D02*
X26035000Y68707000D01*
X27305000Y67945000D02*
X26797000Y67945000D01*
X25273000Y67945000D02*
X24765000Y67945000D01*
D13*
G36*
X374630Y82567210D02*
G01*
X262277Y82566531D01*
X172192Y82565324D01*
X102415Y82563529D01*
X50989Y82561083D01*
X15957Y82557925D01*
X-4641Y82553994D01*
X-11136Y82551057D01*
X-18368Y82539452D01*
X-27390Y82513232D01*
X-38585Y82470672D01*
X-52332Y82410045D01*
X-69013Y82329625D01*
X-89009Y82227686D01*
X-112702Y82102501D01*
X-126059Y82030618D01*
X-152961Y81886996D01*
X-176004Y81768076D01*
X-195443Y81672700D01*
X-211530Y81599710D01*
X-224518Y81547947D01*
X-234661Y81516253D01*
X-241055Y81504404D01*
X-258019Y81494350D01*
X-295493Y81476289D01*
X-349627Y81451821D01*
X-416571Y81422545D01*
X-492478Y81390064D01*
X-573496Y81355976D01*
X-655777Y81321883D01*
X-735471Y81289385D01*
X-808728Y81260082D01*
X-871700Y81235574D01*
X-920537Y81217463D01*
X-951389Y81207348D01*
X-959344Y81205773D01*
X-973944Y81212960D01*
X-1007658Y81233463D01*
X-1058073Y81265696D01*
X-1122771Y81308072D01*
X-1199337Y81359004D01*
X-1285356Y81416907D01*
X-1378411Y81480192D01*
X-1407879Y81500361D01*
X-1502301Y81564893D01*
X-1590110Y81624541D01*
X-1668939Y81677726D01*
X-1736422Y81722867D01*
X-1790192Y81758382D01*
X-1827883Y81782693D01*
X-1847128Y81794218D01*
X-1848991Y81794948D01*
X-1862211Y81785942D01*
X-1890927Y81760535D01*
X-1932769Y81721140D01*
X-1985364Y81670173D01*
X-2046343Y81610049D01*
X-2113334Y81543183D01*
X-2183967Y81471988D01*
X-2255869Y81398881D01*
X-2326672Y81326275D01*
X-2394002Y81256586D01*
X-2455490Y81192229D01*
X-2508765Y81135618D01*
X-2551455Y81089168D01*
X-2581189Y81055293D01*
X-2595597Y81036410D01*
X-2596534Y81033585D01*
X-2587730Y81019141D01*
X-2565731Y80985607D01*
X-2532207Y80935453D01*
X-2488823Y80871150D01*
X-2437248Y80795169D01*
X-2379150Y80709978D01*
X-2316194Y80618049D01*
X-2306597Y80604066D01*
X-2243226Y80511144D01*
X-2184808Y80424276D01*
X-2132969Y80345975D01*
X-2089338Y80278754D01*
X-2055542Y80225125D01*
X-2033210Y80187602D01*
X-2023971Y80168695D01*
X-2023814Y80167648D01*
X-2028934Y80148142D01*
X-2043210Y80108565D01*
X-2065017Y80052707D01*
X-2092731Y79984361D01*
X-2124728Y79907318D01*
X-2159383Y79825370D01*
X-2195071Y79742309D01*
X-2230168Y79661927D01*
X-2263049Y79588014D01*
X-2292089Y79524364D01*
X-2315665Y79474767D01*
X-2332151Y79443015D01*
X-2338230Y79433810D01*
X-2350208Y79426189D01*
X-2374118Y79417342D01*
X-2412010Y79406809D01*
X-2465932Y79394129D01*
X-2537933Y79378842D01*
X-2630062Y79360488D01*
X-2744367Y79338607D01*
X-2850187Y79318804D01*
X-2985754Y79293341D01*
X-3097213Y79271759D01*
X-3186295Y79253673D01*
X-3254727Y79238699D01*
X-3304240Y79226450D01*
X-3336561Y79216543D01*
X-3353420Y79208592D01*
X-3356005Y79206176D01*
X-3360461Y79193764D01*
X-3364104Y79168165D01*
X-3366997Y79127422D01*
X-3369200Y79069576D01*
X-3370775Y78992671D01*
X-3371783Y78894748D01*
X-3372286Y78773849D01*
X-3372371Y78683845D01*
X-3372264Y78554332D01*
X-3371877Y78448531D01*
X-3371112Y78363968D01*
X-3369873Y78298171D01*
X-3368061Y78248665D01*
X-3365579Y78212979D01*
X-3362329Y78188638D01*
X-3358213Y78173169D01*
X-3353134Y78164100D01*
X-3351797Y78162636D01*
X-3332379Y78146247D01*
X-3323598Y78142062D01*
X-3309411Y78139755D01*
X-3272408Y78133192D01*
X-3215514Y78122905D01*
X-3141657Y78109430D01*
X-3053763Y78093299D01*
X-2954759Y78075047D01*
X-2849920Y78055643D01*
X-2711794Y78029653D01*
X-2598382Y78007461D01*
X-2508529Y77988812D01*
X-2441080Y77973450D01*
X-2394879Y77961117D01*
X-2368772Y77951559D01*
X-2362780Y77947627D01*
X-2352698Y77930199D01*
X-2334801Y77892024D01*
X-2310584Y77836829D01*
X-2281544Y77768341D01*
X-2249176Y77690287D01*
X-2214976Y77606393D01*
X-2180442Y77520386D01*
X-2147068Y77435994D01*
X-2116352Y77356943D01*
X-2089789Y77286961D01*
X-2068875Y77229773D01*
X-2055107Y77189108D01*
X-2049980Y77168691D01*
X-2049975Y77168422D01*
X-2057178Y77152338D01*
X-2077667Y77117331D01*
X-2109778Y77065979D01*
X-2151846Y77000856D01*
X-2202208Y76924541D01*
X-2259199Y76839608D01*
X-2320416Y76749713D01*
X-2382445Y76658933D01*
X-2439736Y76574442D01*
X-2490595Y76498787D01*
X-2533329Y76434516D01*
X-2566244Y76384175D01*
X-2587647Y76350311D01*
X-2595832Y76335518D01*
X-2587935Y76321130D01*
X-2562170Y76289765D01*
X-2519589Y76242547D01*
X-2461247Y76180601D01*
X-2388195Y76105051D01*
X-2301488Y76017021D01*
X-2235161Y75950501D01*
X-2141137Y75856856D01*
X-2063686Y75780341D01*
X-2001062Y75719374D01*
X-1951518Y75672376D01*
X-1913307Y75637765D01*
X-1884684Y75613961D01*
X-1863901Y75599383D01*
X-1849211Y75592450D01*
X-1838870Y75591582D01*
X-1838636Y75591627D01*
X-1820778Y75600352D01*
X-1784189Y75622267D01*
X-1731614Y75655586D01*
X-1665801Y75698525D01*
X-1589497Y75749295D01*
X-1505449Y75806110D01*
X-1441697Y75849747D01*
X-1354011Y75909972D01*
X-1272444Y75965791D01*
X-1199694Y76015377D01*
X-1138456Y76056898D01*
X-1091427Y76088526D01*
X-1061303Y76108430D01*
X-1051577Y76114485D01*
X-1041447Y76117805D01*
X-1027493Y76117151D01*
X-1006935Y76111287D01*
X-976994Y76098974D01*
X-934892Y76078974D01*
X-877849Y76050050D01*
X-803085Y76010964D01*
X-718316Y75966057D01*
X-674727Y75943825D01*
X-647598Y75933418D01*
X-630813Y75933397D01*
X-618255Y75942323D01*
X-618110Y75942474D01*
X-609666Y75958053D01*
X-592416Y75995466D01*
X-567360Y76052290D01*
X-535498Y76126106D01*
X-497829Y76214494D01*
X-455354Y76315031D01*
X-409071Y76425298D01*
X-359981Y76542873D01*
X-309084Y76665337D01*
X-257380Y76790269D01*
X-205867Y76915247D01*
X-155547Y77037852D01*
X-107419Y77155662D01*
X-62482Y77266256D01*
X-21737Y77367215D01*
X13817Y77456118D01*
X43179Y77530543D01*
X65351Y77588070D01*
X79332Y77626279D01*
X84124Y77642682D01*
X72729Y77666326D01*
X37857Y77695992D01*
X8840Y77714900D01*
X-141970Y77820490D01*
X-270933Y77938943D01*
X-377497Y78069390D01*
X-461108Y78210967D01*
X-521213Y78362807D01*
X-557259Y78524042D01*
X-566614Y78616178D01*
X-564214Y78784487D01*
X-537212Y78946169D01*
X-486780Y79099226D01*
X-414090Y79241661D01*
X-320312Y79371473D01*
X-206620Y79486667D01*
X-74184Y79585244D01*
X38299Y79647827D01*
X161517Y79700607D01*
X278640Y79734806D01*
X399496Y79752628D01*
X522732Y79756450D01*
X689742Y79741795D01*
X848925Y79702916D01*
X998248Y79641125D01*
X1135679Y79557733D01*
X1259187Y79454053D01*
X1366740Y79331396D01*
X1456306Y79191075D01*
X1484135Y79135679D01*
X1524561Y79042101D01*
X1552654Y78957027D01*
X1570222Y78871810D01*
X1579076Y78777801D01*
X1581061Y78672319D01*
X1579814Y78594119D01*
X1576345Y78533723D01*
X1569614Y78482776D01*
X1558580Y78432924D01*
X1545532Y78386799D01*
X1492778Y78242535D01*
X1424551Y78112994D01*
X1338395Y77994992D01*
X1231856Y77885343D01*
X1102480Y77780862D01*
X1050131Y77744098D01*
X1002427Y77710633D01*
X963341Y77681217D01*
X937751Y77659641D01*
X930419Y77651080D01*
X933807Y77635600D01*
X946211Y77598917D01*
X966507Y77543972D01*
X993568Y77473702D01*
X1026268Y77391047D01*
X1063480Y77298947D01*
X1091480Y77230745D01*
X1139993Y77113285D01*
X1195489Y76978842D01*
X1254985Y76834647D01*
X1315498Y76687934D01*
X1374044Y76545932D01*
X1427640Y76415874D01*
X1440570Y76384486D01*
X1495289Y76252930D01*
X1541970Y76143429D01*
X1580394Y76056472D01*
X1610339Y75992546D01*
X1631583Y75952137D01*
X1643905Y75935735D01*
X1644480Y75935480D01*
X1664218Y75938897D01*
X1703164Y75954111D01*
X1757962Y75979627D01*
X1825260Y76013948D01*
X1849726Y76026999D01*
X1912793Y76060615D01*
X1967958Y76089321D01*
X2011043Y76110999D01*
X2037871Y76123528D01*
X2044461Y76125773D01*
X2057526Y76118611D01*
X2089652Y76098229D01*
X2138352Y76066286D01*
X2201137Y76024440D01*
X2275519Y75974347D01*
X2359011Y75917668D01*
X2447212Y75857371D01*
X2537899Y75795666D01*
X2622640Y75738961D01*
X2698826Y75688928D01*
X2763849Y75647241D01*
X2815101Y75615572D01*
X2849975Y75595595D01*
X2865612Y75588969D01*
X2883332Y75598571D01*
X2918773Y75627342D01*
X2971874Y75675224D01*
X3042576Y75742162D01*
X3130818Y75828102D01*
X3236542Y75932986D01*
X3249393Y75945835D01*
X3353949Y76051157D01*
X3440811Y76140193D01*
X3509699Y76212640D01*
X3560332Y76268197D01*
X3592429Y76306561D01*
X3605709Y76327430D01*
X3606082Y76329457D01*
X3598878Y76346111D01*
X3578381Y76381647D01*
X3546264Y76433459D01*
X3504198Y76498942D01*
X3453859Y76575490D01*
X3396917Y76660499D01*
X3337680Y76747521D01*
X3269271Y76848084D01*
X3208790Y76938646D01*
X3157530Y77017180D01*
X3116780Y77081660D01*
X3087831Y77130059D01*
X3071973Y77160351D01*
X3069278Y77169003D01*
X3074131Y77189942D01*
X3087687Y77231138D01*
X3108445Y77288842D01*
X3134902Y77359300D01*
X3165556Y77438761D01*
X3198904Y77523472D01*
X3233443Y77609681D01*
X3267673Y77693637D01*
X3300090Y77771588D01*
X3329192Y77839781D01*
X3353476Y77894465D01*
X3371440Y77931888D01*
X3381168Y77947920D01*
X3397145Y77956075D01*
X3431852Y77966716D01*
X3486554Y77980119D01*
X3562518Y77996565D01*
X3661010Y78016332D01*
X3783296Y78039700D01*
X3874484Y78056647D01*
X4000493Y78080032D01*
X4103127Y78099526D01*
X4184819Y78115688D01*
X4247999Y78129078D01*
X4295098Y78140254D01*
X4328547Y78149777D01*
X4350776Y78158206D01*
X4364217Y78166101D01*
X4368737Y78170409D01*
X4374656Y78179141D01*
X4379465Y78191754D01*
X4383279Y78210826D01*
X4386212Y78238938D01*
X4388375Y78278667D01*
X4389884Y78332593D01*
X4390852Y78403296D01*
X4391392Y78493353D01*
X4391618Y78605343D01*
X4391649Y78690907D01*
X4391433Y78826468D01*
X4390742Y78937816D01*
X4389514Y79026921D01*
X4387687Y79095751D01*
X4385197Y79146275D01*
X4381983Y79180463D01*
X4377981Y79200283D01*
X4375283Y79205960D01*
X4363013Y79213441D01*
X4335230Y79222803D01*
X4290246Y79234421D01*
X4226369Y79248670D01*
X4141909Y79265924D01*
X4035176Y79286558D01*
X3904480Y79310946D01*
X3887577Y79314056D01*
X3778445Y79334298D01*
X3676328Y79353595D01*
X3584370Y79371328D01*
X3505712Y79386875D01*
X3443496Y79399616D01*
X3400862Y79408931D01*
X3381197Y79414101D01*
X3369829Y79420660D01*
X3357656Y79433321D01*
X3343361Y79454674D01*
X3325627Y79487309D01*
X3303135Y79533816D01*
X3274569Y79596786D01*
X3238611Y79678809D01*
X3194625Y79780882D01*
X3155960Y79872100D01*
X3120935Y79956757D01*
X3090859Y80031529D01*
X3067039Y80093092D01*
X3050783Y80138122D01*
X3043399Y80163294D01*
X3043093Y80166036D01*
X3050681Y80185909D01*
X3072950Y80225778D01*
X3109156Y80284480D01*
X3158557Y80360850D01*
X3220408Y80453725D01*
X3293968Y80561940D01*
X3320354Y80600337D01*
X3383418Y80692553D01*
X3441717Y80779082D01*
X3493559Y80857316D01*
X3537254Y80924647D01*
X3571110Y80978468D01*
X3593436Y81016172D01*
X3602541Y81035150D01*
X3602620Y81035567D01*
X3601700Y81046140D01*
X3595060Y81060656D01*
X3581097Y81080880D01*
X3558205Y81108576D01*
X3524783Y81145512D01*
X3479225Y81193451D01*
X3419929Y81254160D01*
X3345290Y81329403D01*
X3253705Y81420946D01*
X3241217Y81433393D01*
X3134575Y81539022D01*
X3045547Y81625824D01*
X2973837Y81694075D01*
X2919147Y81744050D01*
X2881180Y81776024D01*
X2859640Y81790271D01*
X2855219Y81790970D01*
X2840378Y81782087D01*
X2806446Y81759977D01*
X2755878Y81726295D01*
X2691131Y81682696D01*
X2614659Y81630835D01*
X2528918Y81572366D01*
X2436363Y81508945D01*
X2415506Y81494613D01*
X2321869Y81430575D01*
X2234487Y81371466D01*
X2155812Y81318894D01*
X2088292Y81274468D01*
X2034377Y81239796D01*
X1996517Y81216486D01*
X1977161Y81206147D01*
X1975608Y81205773D01*
X1958351Y81210566D01*
X1920516Y81224024D01*
X1865710Y81244766D01*
X1797537Y81271411D01*
X1719602Y81302578D01*
X1664798Y81324860D01*
X1554027Y81370209D01*
X1465039Y81406772D01*
X1395382Y81435670D01*
X1342601Y81458026D01*
X1304242Y81474964D01*
X1277852Y81487605D01*
X1260976Y81497073D01*
X1251161Y81504490D01*
X1245953Y81510980D01*
X1242897Y81517663D01*
X1242790Y81517936D01*
X1238980Y81534154D01*
X1231049Y81572641D01*
X1219657Y81629921D01*
X1205465Y81702518D01*
X1189132Y81786955D01*
X1171318Y81879756D01*
X1152683Y81977445D01*
X1133885Y82076545D01*
X1115586Y82173580D01*
X1098445Y82265074D01*
X1083122Y82347550D01*
X1070276Y82417533D01*
X1060568Y82471545D01*
X1054656Y82506110D01*
X1053104Y82517389D01*
X1044784Y82532713D01*
X1032415Y82546848D01*
X1024486Y82552166D01*
X1010735Y82556498D01*
X988691Y82559942D01*
X955880Y82562595D01*
X909828Y82564555D01*
X848062Y82565920D01*
X768110Y82566787D01*
X667498Y82567253D01*
X543752Y82567417D01*
X511206Y82567422D01*
X374630Y82567210D01*
G37*
X374630Y82567210D02*
X262277Y82566531D01*
X172192Y82565324D01*
X102415Y82563529D01*
X50989Y82561083D01*
X15957Y82557925D01*
X-4641Y82553994D01*
X-11136Y82551057D01*
X-18368Y82539452D01*
X-27390Y82513232D01*
X-38585Y82470672D01*
X-52332Y82410045D01*
X-69013Y82329625D01*
X-89009Y82227686D01*
X-112702Y82102501D01*
X-126059Y82030618D01*
X-152961Y81886996D01*
X-176004Y81768076D01*
X-195443Y81672700D01*
X-211530Y81599710D01*
X-224518Y81547947D01*
X-234661Y81516253D01*
X-241055Y81504404D01*
X-258019Y81494350D01*
X-295493Y81476289D01*
X-349627Y81451821D01*
X-416571Y81422545D01*
X-492478Y81390064D01*
X-573496Y81355976D01*
X-655777Y81321883D01*
X-735471Y81289385D01*
X-808728Y81260082D01*
X-871700Y81235574D01*
X-920537Y81217463D01*
X-951389Y81207348D01*
X-959344Y81205773D01*
X-973944Y81212960D01*
X-1007658Y81233463D01*
X-1058073Y81265696D01*
X-1122771Y81308072D01*
X-1199337Y81359004D01*
X-1285356Y81416907D01*
X-1378411Y81480192D01*
X-1407879Y81500361D01*
X-1502301Y81564893D01*
X-1590110Y81624541D01*
X-1668939Y81677726D01*
X-1736422Y81722867D01*
X-1790192Y81758382D01*
X-1827883Y81782693D01*
X-1847128Y81794218D01*
X-1848991Y81794948D01*
X-1862211Y81785942D01*
X-1890927Y81760535D01*
X-1932769Y81721140D01*
X-1985364Y81670173D01*
X-2046343Y81610049D01*
X-2113334Y81543183D01*
X-2183967Y81471988D01*
X-2255869Y81398881D01*
X-2326672Y81326275D01*
X-2394002Y81256586D01*
X-2455490Y81192229D01*
X-2508765Y81135618D01*
X-2551455Y81089168D01*
X-2581189Y81055293D01*
X-2595597Y81036410D01*
X-2596534Y81033585D01*
X-2587730Y81019141D01*
X-2565731Y80985607D01*
X-2532207Y80935453D01*
X-2488823Y80871150D01*
X-2437248Y80795169D01*
X-2379150Y80709978D01*
X-2316194Y80618049D01*
X-2306597Y80604066D01*
X-2243226Y80511144D01*
X-2184808Y80424276D01*
X-2132969Y80345975D01*
X-2089338Y80278754D01*
X-2055542Y80225125D01*
X-2033210Y80187602D01*
X-2023971Y80168695D01*
X-2023814Y80167648D01*
X-2028934Y80148142D01*
X-2043210Y80108565D01*
X-2065017Y80052707D01*
X-2092731Y79984361D01*
X-2124728Y79907318D01*
X-2159383Y79825370D01*
X-2195071Y79742309D01*
X-2230168Y79661927D01*
X-2263049Y79588014D01*
X-2292089Y79524364D01*
X-2315665Y79474767D01*
X-2332151Y79443015D01*
X-2338230Y79433810D01*
X-2350208Y79426189D01*
X-2374118Y79417342D01*
X-2412010Y79406809D01*
X-2465932Y79394129D01*
X-2537933Y79378842D01*
X-2630062Y79360488D01*
X-2744367Y79338607D01*
X-2850187Y79318804D01*
X-2985754Y79293341D01*
X-3097213Y79271759D01*
X-3186295Y79253673D01*
X-3254727Y79238699D01*
X-3304240Y79226450D01*
X-3336561Y79216543D01*
X-3353420Y79208592D01*
X-3356005Y79206176D01*
X-3360461Y79193764D01*
X-3364104Y79168165D01*
X-3366997Y79127422D01*
X-3369200Y79069576D01*
X-3370775Y78992671D01*
X-3371783Y78894748D01*
X-3372286Y78773849D01*
X-3372371Y78683845D01*
X-3372264Y78554332D01*
X-3371877Y78448531D01*
X-3371112Y78363968D01*
X-3369873Y78298171D01*
X-3368061Y78248665D01*
X-3365579Y78212979D01*
X-3362329Y78188638D01*
X-3358213Y78173169D01*
X-3353134Y78164100D01*
X-3351797Y78162636D01*
X-3332379Y78146247D01*
X-3323598Y78142062D01*
X-3309411Y78139755D01*
X-3272408Y78133192D01*
X-3215514Y78122905D01*
X-3141657Y78109430D01*
X-3053763Y78093299D01*
X-2954759Y78075047D01*
X-2849920Y78055643D01*
X-2711794Y78029653D01*
X-2598382Y78007461D01*
X-2508529Y77988812D01*
X-2441080Y77973450D01*
X-2394879Y77961117D01*
X-2368772Y77951559D01*
X-2362780Y77947627D01*
X-2352698Y77930199D01*
X-2334801Y77892024D01*
X-2310584Y77836829D01*
X-2281544Y77768341D01*
X-2249176Y77690287D01*
X-2214976Y77606393D01*
X-2180442Y77520386D01*
X-2147068Y77435994D01*
X-2116352Y77356943D01*
X-2089789Y77286961D01*
X-2068875Y77229773D01*
X-2055107Y77189108D01*
X-2049980Y77168691D01*
X-2049975Y77168422D01*
X-2057178Y77152338D01*
X-2077667Y77117331D01*
X-2109778Y77065979D01*
X-2151846Y77000856D01*
X-2202208Y76924541D01*
X-2259199Y76839608D01*
X-2320416Y76749713D01*
X-2382445Y76658933D01*
X-2439736Y76574442D01*
X-2490595Y76498787D01*
X-2533329Y76434516D01*
X-2566244Y76384175D01*
X-2587647Y76350311D01*
X-2595832Y76335518D01*
X-2587935Y76321130D01*
X-2562170Y76289765D01*
X-2519589Y76242547D01*
X-2461247Y76180601D01*
X-2388195Y76105051D01*
X-2301488Y76017021D01*
X-2235161Y75950501D01*
X-2141137Y75856856D01*
X-2063686Y75780341D01*
X-2001062Y75719374D01*
X-1951518Y75672376D01*
X-1913307Y75637765D01*
X-1884684Y75613961D01*
X-1863901Y75599383D01*
X-1849211Y75592450D01*
X-1838870Y75591582D01*
X-1838636Y75591627D01*
X-1820778Y75600352D01*
X-1784189Y75622267D01*
X-1731614Y75655586D01*
X-1665801Y75698525D01*
X-1589497Y75749295D01*
X-1505449Y75806110D01*
X-1441697Y75849747D01*
X-1354011Y75909972D01*
X-1272444Y75965791D01*
X-1199694Y76015377D01*
X-1138456Y76056898D01*
X-1091427Y76088526D01*
X-1061303Y76108430D01*
X-1051577Y76114485D01*
X-1041447Y76117805D01*
X-1027493Y76117151D01*
X-1006935Y76111287D01*
X-976994Y76098974D01*
X-934892Y76078974D01*
X-877849Y76050050D01*
X-803085Y76010964D01*
X-718316Y75966057D01*
X-674727Y75943825D01*
X-647598Y75933418D01*
X-630813Y75933397D01*
X-618255Y75942323D01*
X-618110Y75942474D01*
X-609666Y75958053D01*
X-592416Y75995466D01*
X-567360Y76052290D01*
X-535498Y76126106D01*
X-497829Y76214494D01*
X-455354Y76315031D01*
X-409071Y76425298D01*
X-359981Y76542873D01*
X-309084Y76665337D01*
X-257380Y76790269D01*
X-205867Y76915247D01*
X-155547Y77037852D01*
X-107419Y77155662D01*
X-62482Y77266256D01*
X-21737Y77367215D01*
X13817Y77456118D01*
X43179Y77530543D01*
X65351Y77588070D01*
X79332Y77626279D01*
X84124Y77642682D01*
X72729Y77666326D01*
X37857Y77695992D01*
X8840Y77714900D01*
X-141970Y77820490D01*
X-270933Y77938943D01*
X-377497Y78069390D01*
X-461108Y78210967D01*
X-521213Y78362807D01*
X-557259Y78524042D01*
X-566614Y78616178D01*
X-564214Y78784487D01*
X-537212Y78946169D01*
X-486780Y79099226D01*
X-414090Y79241661D01*
X-320312Y79371473D01*
X-206620Y79486667D01*
X-74184Y79585244D01*
X38299Y79647827D01*
X161517Y79700607D01*
X278640Y79734806D01*
X399496Y79752628D01*
X522732Y79756450D01*
X689742Y79741795D01*
X848925Y79702916D01*
X998248Y79641125D01*
X1135679Y79557733D01*
X1259187Y79454053D01*
X1366740Y79331396D01*
X1456306Y79191075D01*
X1484135Y79135679D01*
X1524561Y79042101D01*
X1552654Y78957027D01*
X1570222Y78871810D01*
X1579076Y78777801D01*
X1581061Y78672319D01*
X1579814Y78594119D01*
X1576345Y78533723D01*
X1569614Y78482776D01*
X1558580Y78432924D01*
X1545532Y78386799D01*
X1492778Y78242535D01*
X1424551Y78112994D01*
X1338395Y77994992D01*
X1231856Y77885343D01*
X1102480Y77780862D01*
X1050131Y77744098D01*
X1002427Y77710633D01*
X963341Y77681217D01*
X937751Y77659641D01*
X930419Y77651080D01*
X933807Y77635600D01*
X946211Y77598917D01*
X966507Y77543972D01*
X993568Y77473702D01*
X1026268Y77391047D01*
X1063480Y77298947D01*
X1091480Y77230745D01*
X1139993Y77113285D01*
X1195489Y76978842D01*
X1254985Y76834647D01*
X1315498Y76687934D01*
X1374044Y76545932D01*
X1427640Y76415874D01*
X1440570Y76384486D01*
X1495289Y76252930D01*
X1541970Y76143429D01*
X1580394Y76056472D01*
X1610339Y75992546D01*
X1631583Y75952137D01*
X1643905Y75935735D01*
X1644480Y75935480D01*
X1664218Y75938897D01*
X1703164Y75954111D01*
X1757962Y75979627D01*
X1825260Y76013948D01*
X1849726Y76026999D01*
X1912793Y76060615D01*
X1967958Y76089321D01*
X2011043Y76110999D01*
X2037871Y76123528D01*
X2044461Y76125773D01*
X2057526Y76118611D01*
X2089652Y76098229D01*
X2138352Y76066286D01*
X2201137Y76024440D01*
X2275519Y75974347D01*
X2359011Y75917668D01*
X2447212Y75857371D01*
X2537899Y75795666D01*
X2622640Y75738961D01*
X2698826Y75688928D01*
X2763849Y75647241D01*
X2815101Y75615572D01*
X2849975Y75595595D01*
X2865612Y75588969D01*
X2883332Y75598571D01*
X2918773Y75627342D01*
X2971874Y75675224D01*
X3042576Y75742162D01*
X3130818Y75828102D01*
X3236542Y75932986D01*
X3249393Y75945835D01*
X3353949Y76051157D01*
X3440811Y76140193D01*
X3509699Y76212640D01*
X3560332Y76268197D01*
X3592429Y76306561D01*
X3605709Y76327430D01*
X3606082Y76329457D01*
X3598878Y76346111D01*
X3578381Y76381647D01*
X3546264Y76433459D01*
X3504198Y76498942D01*
X3453859Y76575490D01*
X3396917Y76660499D01*
X3337680Y76747521D01*
X3269271Y76848084D01*
X3208790Y76938646D01*
X3157530Y77017180D01*
X3116780Y77081660D01*
X3087831Y77130059D01*
X3071973Y77160351D01*
X3069278Y77169003D01*
X3074131Y77189942D01*
X3087687Y77231138D01*
X3108445Y77288842D01*
X3134902Y77359300D01*
X3165556Y77438761D01*
X3198904Y77523472D01*
X3233443Y77609681D01*
X3267673Y77693637D01*
X3300090Y77771588D01*
X3329192Y77839781D01*
X3353476Y77894465D01*
X3371440Y77931888D01*
X3381168Y77947920D01*
X3397145Y77956075D01*
X3431852Y77966716D01*
X3486554Y77980119D01*
X3562518Y77996565D01*
X3661010Y78016332D01*
X3783296Y78039700D01*
X3874484Y78056647D01*
X4000493Y78080032D01*
X4103127Y78099526D01*
X4184819Y78115688D01*
X4247999Y78129078D01*
X4295098Y78140254D01*
X4328547Y78149777D01*
X4350776Y78158206D01*
X4364217Y78166101D01*
X4368737Y78170409D01*
X4374656Y78179141D01*
X4379465Y78191754D01*
X4383279Y78210826D01*
X4386212Y78238938D01*
X4388375Y78278667D01*
X4389884Y78332593D01*
X4390852Y78403296D01*
X4391392Y78493353D01*
X4391618Y78605343D01*
X4391649Y78690907D01*
X4391433Y78826468D01*
X4390742Y78937816D01*
X4389514Y79026921D01*
X4387687Y79095751D01*
X4385197Y79146275D01*
X4381983Y79180463D01*
X4377981Y79200283D01*
X4375283Y79205960D01*
X4363013Y79213441D01*
X4335230Y79222803D01*
X4290246Y79234421D01*
X4226369Y79248670D01*
X4141909Y79265924D01*
X4035176Y79286558D01*
X3904480Y79310946D01*
X3887577Y79314056D01*
X3778445Y79334298D01*
X3676328Y79353595D01*
X3584370Y79371328D01*
X3505712Y79386875D01*
X3443496Y79399616D01*
X3400862Y79408931D01*
X3381197Y79414101D01*
X3369829Y79420660D01*
X3357656Y79433321D01*
X3343361Y79454674D01*
X3325627Y79487309D01*
X3303135Y79533816D01*
X3274569Y79596786D01*
X3238611Y79678809D01*
X3194625Y79780882D01*
X3155960Y79872100D01*
X3120935Y79956757D01*
X3090859Y80031529D01*
X3067039Y80093092D01*
X3050783Y80138122D01*
X3043399Y80163294D01*
X3043093Y80166036D01*
X3050681Y80185909D01*
X3072950Y80225778D01*
X3109156Y80284480D01*
X3158557Y80360850D01*
X3220408Y80453725D01*
X3293968Y80561940D01*
X3320354Y80600337D01*
X3383418Y80692553D01*
X3441717Y80779082D01*
X3493559Y80857316D01*
X3537254Y80924647D01*
X3571110Y80978468D01*
X3593436Y81016172D01*
X3602541Y81035150D01*
X3602620Y81035567D01*
X3601700Y81046140D01*
X3595060Y81060656D01*
X3581097Y81080880D01*
X3558205Y81108576D01*
X3524783Y81145512D01*
X3479225Y81193451D01*
X3419929Y81254160D01*
X3345290Y81329403D01*
X3253705Y81420946D01*
X3241217Y81433393D01*
X3134575Y81539022D01*
X3045547Y81625824D01*
X2973837Y81694075D01*
X2919147Y81744050D01*
X2881180Y81776024D01*
X2859640Y81790271D01*
X2855219Y81790970D01*
X2840378Y81782087D01*
X2806446Y81759977D01*
X2755878Y81726295D01*
X2691131Y81682696D01*
X2614659Y81630835D01*
X2528918Y81572366D01*
X2436363Y81508945D01*
X2415506Y81494613D01*
X2321869Y81430575D01*
X2234487Y81371466D01*
X2155812Y81318894D01*
X2088292Y81274468D01*
X2034377Y81239796D01*
X1996517Y81216486D01*
X1977161Y81206147D01*
X1975608Y81205773D01*
X1958351Y81210566D01*
X1920516Y81224024D01*
X1865710Y81244766D01*
X1797537Y81271411D01*
X1719602Y81302578D01*
X1664798Y81324860D01*
X1554027Y81370209D01*
X1465039Y81406772D01*
X1395382Y81435670D01*
X1342601Y81458026D01*
X1304242Y81474964D01*
X1277852Y81487605D01*
X1260976Y81497073D01*
X1251161Y81504490D01*
X1245953Y81510980D01*
X1242897Y81517663D01*
X1242790Y81517936D01*
X1238980Y81534154D01*
X1231049Y81572641D01*
X1219657Y81629921D01*
X1205465Y81702518D01*
X1189132Y81786955D01*
X1171318Y81879756D01*
X1152683Y81977445D01*
X1133885Y82076545D01*
X1115586Y82173580D01*
X1098445Y82265074D01*
X1083122Y82347550D01*
X1070276Y82417533D01*
X1060568Y82471545D01*
X1054656Y82506110D01*
X1053104Y82517389D01*
X1044784Y82532713D01*
X1032415Y82546848D01*
X1024486Y82552166D01*
X1010735Y82556498D01*
X988691Y82559942D01*
X955880Y82562595D01*
X909828Y82564555D01*
X848062Y82565920D01*
X768110Y82566787D01*
X667498Y82567253D01*
X543752Y82567417D01*
X511206Y82567422D01*
X374630Y82567210D01*
D14*
X42772857Y-1339523D02*
X42713333Y-1280000D01*
X42594285Y-1220476D01*
X42296666Y-1220476D01*
X42177619Y-1280000D01*
X42118095Y-1339523D01*
X42058571Y-1458571D01*
X42058571Y-1577619D01*
X42118095Y-1756190D01*
X42832380Y-2470476D01*
X42058571Y-2470476D01*
X41641904Y-2470476D02*
X40987142Y-1637142D01*
X41641904Y-1637142D02*
X40987142Y-2470476D01*
X39856190Y-1280000D02*
X39975238Y-1220476D01*
X40153809Y-1220476D01*
X40332380Y-1280000D01*
X40451428Y-1399047D01*
X40510952Y-1518095D01*
X40570476Y-1756190D01*
X40570476Y-1934761D01*
X40510952Y-2172857D01*
X40451428Y-2291904D01*
X40332380Y-2410952D01*
X40153809Y-2470476D01*
X40034761Y-2470476D01*
X39856190Y-2410952D01*
X39796666Y-2351428D01*
X39796666Y-1934761D01*
X40034761Y-1934761D01*
X39260952Y-2470476D02*
X39260952Y-1220476D01*
X38546666Y-2470476D01*
X38546666Y-1220476D01*
X37951428Y-2470476D02*
X37951428Y-1220476D01*
X37653809Y-1220476D01*
X37475238Y-1280000D01*
X37356190Y-1399047D01*
X37296666Y-1518095D01*
X37237142Y-1756190D01*
X37237142Y-1934761D01*
X37296666Y-2172857D01*
X37356190Y-2291904D01*
X37475238Y-2410952D01*
X37653809Y-2470476D01*
X37951428Y-2470476D01*
X79960476Y75803096D02*
X79960476Y76398334D01*
X80555714Y76457858D01*
X80496190Y76398334D01*
X80436666Y76279286D01*
X80436666Y75981667D01*
X80496190Y75862620D01*
X80555714Y75803096D01*
X80674761Y75743572D01*
X80972380Y75743572D01*
X81091428Y75803096D01*
X81150952Y75862620D01*
X81210476Y75981667D01*
X81210476Y76279286D01*
X81150952Y76398334D01*
X81091428Y76457858D01*
X79960476Y75386429D02*
X81210476Y74969762D01*
X79960476Y74553096D01*
X82023809Y80059524D02*
X81250000Y80059524D01*
X81666666Y79583334D01*
X81488095Y79583334D01*
X81369047Y79523810D01*
X81309523Y79464286D01*
X81250000Y79345239D01*
X81250000Y79047620D01*
X81309523Y78928572D01*
X81369047Y78869048D01*
X81488095Y78809524D01*
X81845238Y78809524D01*
X81964285Y78869048D01*
X82023809Y78928572D01*
X80833333Y78809524D02*
X80178571Y79642858D01*
X80833333Y79642858D02*
X80178571Y78809524D01*
X79821428Y80059524D02*
X79047619Y80059524D01*
X79464285Y79583334D01*
X79285714Y79583334D01*
X79166666Y79523810D01*
X79107142Y79464286D01*
X79047619Y79345239D01*
X79047619Y79047620D01*
X79107142Y78928572D01*
X79166666Y78869048D01*
X79285714Y78809524D01*
X79642857Y78809524D01*
X79761904Y78869048D01*
X79821428Y78928572D01*
X78690476Y80059524D02*
X78273809Y78809524D01*
X77857142Y80059524D01*
X77559523Y80059524D02*
X76785714Y80059524D01*
X77202380Y79583334D01*
X77023809Y79583334D01*
X76904761Y79523810D01*
X76845238Y79464286D01*
X76785714Y79345239D01*
X76785714Y79047620D01*
X76845238Y78928572D01*
X76904761Y78869048D01*
X77023809Y78809524D01*
X77380952Y78809524D01*
X77500000Y78869048D01*
X77559523Y78928572D01*
X77480000Y76517381D02*
X77420476Y76636429D01*
X77420476Y76815000D01*
X77480000Y76993572D01*
X77599047Y77112620D01*
X77718095Y77172143D01*
X77956190Y77231667D01*
X78134761Y77231667D01*
X78372857Y77172143D01*
X78491904Y77112620D01*
X78610952Y76993572D01*
X78670476Y76815000D01*
X78670476Y76695953D01*
X78610952Y76517381D01*
X78551428Y76457858D01*
X78134761Y76457858D01*
X78134761Y76695953D01*
X78670476Y75922143D02*
X77420476Y75922143D01*
X78670476Y75207858D01*
X77420476Y75207858D01*
X78670476Y74612620D02*
X77420476Y74612620D01*
X77420476Y74315000D01*
X77480000Y74136429D01*
X77599047Y74017381D01*
X77718095Y73957858D01*
X77956190Y73898334D01*
X78134761Y73898334D01*
X78372857Y73957858D01*
X78491904Y74017381D01*
X78610952Y74136429D01*
X78670476Y74315000D01*
X78670476Y74612620D01*
M02*
