G04 #@! TF.GenerationSoftware,KiCad,Pcbnew,(5.1.6)-1*
G04 #@! TF.CreationDate,2020-06-25T15:36:58+02:00*
G04 #@! TF.ProjectId,board_zero,626f6172-645f-47a6-9572-6f2e6b696361,1.0*
G04 #@! TF.SameCoordinates,Original*
G04 #@! TF.FileFunction,Copper,L3,Inr*
G04 #@! TF.FilePolarity,Positive*
%FSLAX46Y46*%
G04 Gerber Fmt 4.6, Leading zero omitted, Abs format (unit mm)*
G04 Created by KiCad (PCBNEW (5.1.6)-1) date 2020-06-25 15:36:58*
%MOMM*%
%LPD*%
G01*
G04 APERTURE LIST*
G04 #@! TA.AperFunction,ViaPad*
%ADD10R,1.700000X1.700000*%
G04 #@! TD*
G04 #@! TA.AperFunction,ViaPad*
%ADD11O,1.700000X1.700000*%
G04 #@! TD*
G04 #@! TA.AperFunction,ViaPad*
%ADD12C,1.685000*%
G04 #@! TD*
G04 #@! TA.AperFunction,ViaPad*
%ADD13C,1.310000*%
G04 #@! TD*
G04 #@! TA.AperFunction,ViaPad*
%ADD14C,0.800000*%
G04 #@! TD*
G04 #@! TA.AperFunction,ViaPad*
%ADD15C,6.400000*%
G04 #@! TD*
G04 #@! TA.AperFunction,ViaPad*
%ADD16R,1.524000X3.048000*%
G04 #@! TD*
G04 #@! TA.AperFunction,ViaPad*
%ADD17O,1.524000X3.048000*%
G04 #@! TD*
G04 #@! TA.AperFunction,ViaPad*
%ADD18R,3.048000X1.524000*%
G04 #@! TD*
G04 #@! TA.AperFunction,ViaPad*
%ADD19O,3.048000X1.524000*%
G04 #@! TD*
G04 #@! TA.AperFunction,Conductor*
%ADD20C,0.700000*%
G04 #@! TD*
G04 #@! TA.AperFunction,Conductor*
%ADD21C,0.350000*%
G04 #@! TD*
G04 APERTURE END LIST*
D10*
X26670000Y-104140000D03*
D11*
X26670000Y-106680000D03*
D10*
X26670000Y-95250000D03*
D11*
X26670000Y-97790000D03*
D10*
X26670000Y-86360000D03*
D11*
X26670000Y-88900000D03*
D10*
X26670000Y-35560000D03*
D11*
X26670000Y-38100000D03*
D10*
X26670000Y-48260000D03*
D11*
X26670000Y-50800000D03*
D12*
X36830000Y-45720000D03*
X39370000Y-45720000D03*
X41910000Y-45720000D03*
X44450000Y-45720000D03*
X46990000Y-45720000D03*
X49530000Y-45720000D03*
X52070000Y-45720000D03*
X54610000Y-45720000D03*
X57150000Y-45720000D03*
X59690000Y-45720000D03*
X62230000Y-45720000D03*
X64770000Y-45720000D03*
X67310000Y-45720000D03*
X69850000Y-45720000D03*
X72390000Y-45720000D03*
X74930000Y-45720000D03*
X77470000Y-45720000D03*
X80010000Y-45720000D03*
X82550000Y-45720000D03*
X85090000Y-45720000D03*
X87630000Y-45720000D03*
X90170000Y-45720000D03*
X92710000Y-45720000D03*
X95250000Y-45720000D03*
X97790000Y-45720000D03*
X36830000Y-48260000D03*
X39370000Y-48260000D03*
X41910000Y-48260000D03*
X44450000Y-48260000D03*
X46990000Y-48260000D03*
X49530000Y-48260000D03*
X52070000Y-48260000D03*
X54610000Y-48260000D03*
X57150000Y-48260000D03*
X59690000Y-48260000D03*
X62230000Y-48260000D03*
X64770000Y-48260000D03*
X67310000Y-48260000D03*
X69850000Y-48260000D03*
X72390000Y-48260000D03*
X74930000Y-48260000D03*
X77470000Y-48260000D03*
X80010000Y-48260000D03*
X82550000Y-48260000D03*
X85090000Y-48260000D03*
X87630000Y-48260000D03*
X90170000Y-48260000D03*
X92710000Y-48260000D03*
X95250000Y-48260000D03*
X97790000Y-48260000D03*
X36830000Y-50800000D03*
X39370000Y-50800000D03*
X41910000Y-50800000D03*
X44450000Y-50800000D03*
X46990000Y-50800000D03*
X49530000Y-50800000D03*
X52070000Y-50800000D03*
X54610000Y-50800000D03*
X57150000Y-50800000D03*
X59690000Y-50800000D03*
X62230000Y-50800000D03*
X64770000Y-50800000D03*
X67310000Y-50800000D03*
X69850000Y-50800000D03*
X72390000Y-50800000D03*
X74930000Y-50800000D03*
X77470000Y-50800000D03*
X80010000Y-50800000D03*
X82550000Y-50800000D03*
X85090000Y-50800000D03*
X87630000Y-50800000D03*
X90170000Y-50800000D03*
X92710000Y-50800000D03*
X95250000Y-50800000D03*
X97790000Y-50800000D03*
X36830000Y-53340000D03*
X39370000Y-53340000D03*
X41910000Y-53340000D03*
X44450000Y-53340000D03*
X46990000Y-53340000D03*
X49530000Y-53340000D03*
X52070000Y-53340000D03*
X54610000Y-53340000D03*
X57150000Y-53340000D03*
X59690000Y-53340000D03*
X62230000Y-53340000D03*
X64770000Y-53340000D03*
X67310000Y-53340000D03*
X69850000Y-53340000D03*
X72390000Y-53340000D03*
X74930000Y-53340000D03*
X77470000Y-53340000D03*
X80010000Y-53340000D03*
X82550000Y-53340000D03*
X85090000Y-53340000D03*
X87630000Y-53340000D03*
X90170000Y-53340000D03*
X92710000Y-53340000D03*
X95250000Y-53340000D03*
X97790000Y-53340000D03*
X36830000Y-55880000D03*
X39370000Y-55880000D03*
X41910000Y-55880000D03*
X44450000Y-55880000D03*
X46990000Y-55880000D03*
X49530000Y-55880000D03*
X52070000Y-55880000D03*
X54610000Y-55880000D03*
X57150000Y-55880000D03*
X59690000Y-55880000D03*
X62230000Y-55880000D03*
X64770000Y-55880000D03*
X67310000Y-55880000D03*
X69850000Y-55880000D03*
X72390000Y-55880000D03*
X74930000Y-55880000D03*
X77470000Y-55880000D03*
X80010000Y-55880000D03*
X82550000Y-55880000D03*
X85090000Y-55880000D03*
X87630000Y-55880000D03*
X90170000Y-55880000D03*
X92710000Y-55880000D03*
X95250000Y-55880000D03*
X97790000Y-55880000D03*
X36830000Y-58420000D03*
X39370000Y-58420000D03*
X41910000Y-58420000D03*
X44450000Y-58420000D03*
X46990000Y-58420000D03*
X49530000Y-58420000D03*
X52070000Y-58420000D03*
X54610000Y-58420000D03*
X80010000Y-58420000D03*
X82550000Y-58420000D03*
X85090000Y-58420000D03*
X87630000Y-58420000D03*
X90170000Y-58420000D03*
X92710000Y-58420000D03*
X95250000Y-58420000D03*
X97790000Y-58420000D03*
X36830000Y-60960000D03*
X39370000Y-60960000D03*
X41910000Y-60960000D03*
X44450000Y-60960000D03*
X46990000Y-60960000D03*
X49530000Y-60960000D03*
X52070000Y-60960000D03*
X54610000Y-60960000D03*
X80010000Y-60960000D03*
X82550000Y-60960000D03*
X85090000Y-60960000D03*
X87630000Y-60960000D03*
X90170000Y-60960000D03*
X92710000Y-60960000D03*
X95250000Y-60960000D03*
X97790000Y-60960000D03*
X36830000Y-63500000D03*
X39370000Y-63500000D03*
X41910000Y-63500000D03*
X44450000Y-63500000D03*
X46990000Y-63500000D03*
X49530000Y-63500000D03*
X52070000Y-63500000D03*
X54610000Y-63500000D03*
X80010000Y-63500000D03*
X82550000Y-63500000D03*
X85090000Y-63500000D03*
X87630000Y-63500000D03*
X90170000Y-63500000D03*
X92710000Y-63500000D03*
X95250000Y-63500000D03*
X97790000Y-63500000D03*
X36830000Y-66040000D03*
X39370000Y-66040000D03*
X41910000Y-66040000D03*
X44450000Y-66040000D03*
X46990000Y-66040000D03*
X49530000Y-66040000D03*
X52070000Y-66040000D03*
X54610000Y-66040000D03*
X80010000Y-66040000D03*
X82550000Y-66040000D03*
X85090000Y-66040000D03*
X87630000Y-66040000D03*
X90170000Y-66040000D03*
X92710000Y-66040000D03*
X95250000Y-66040000D03*
X97790000Y-66040000D03*
X36830000Y-68580000D03*
X39370000Y-68580000D03*
X41910000Y-68580000D03*
X44450000Y-68580000D03*
X46990000Y-68580000D03*
X49530000Y-68580000D03*
X52070000Y-68580000D03*
X54610000Y-68580000D03*
X57150000Y-68580000D03*
X59690000Y-68580000D03*
X74930000Y-68580000D03*
X77470000Y-68580000D03*
X80010000Y-68580000D03*
X82550000Y-68580000D03*
X85090000Y-68580000D03*
X87630000Y-68580000D03*
X90170000Y-68580000D03*
X92710000Y-68580000D03*
X95250000Y-68580000D03*
X97790000Y-68580000D03*
X36830000Y-71120000D03*
X39370000Y-71120000D03*
X41910000Y-71120000D03*
X44450000Y-71120000D03*
X46990000Y-71120000D03*
X49530000Y-71120000D03*
X52070000Y-71120000D03*
X54610000Y-71120000D03*
X57150000Y-71120000D03*
X59690000Y-71120000D03*
X62230000Y-71120000D03*
X64770000Y-71120000D03*
X67310000Y-71120000D03*
X69850000Y-71120000D03*
X72390000Y-71120000D03*
X74930000Y-71120000D03*
X77470000Y-71120000D03*
X80010000Y-71120000D03*
X82550000Y-71120000D03*
X85090000Y-71120000D03*
X87630000Y-71120000D03*
X90170000Y-71120000D03*
X92710000Y-71120000D03*
X95250000Y-71120000D03*
X97790000Y-71120000D03*
X36830000Y-73660000D03*
X39370000Y-73660000D03*
X41910000Y-73660000D03*
X44450000Y-73660000D03*
X46990000Y-73660000D03*
X49530000Y-73660000D03*
X52070000Y-73660000D03*
X54610000Y-73660000D03*
X57150000Y-73660000D03*
X59690000Y-73660000D03*
X62230000Y-73660000D03*
X64770000Y-73660000D03*
X67310000Y-73660000D03*
X69850000Y-73660000D03*
X72390000Y-73660000D03*
X74930000Y-73660000D03*
X77470000Y-73660000D03*
X80010000Y-73660000D03*
X82550000Y-73660000D03*
X85090000Y-73660000D03*
X87630000Y-73660000D03*
X90170000Y-73660000D03*
X92710000Y-73660000D03*
X95250000Y-73660000D03*
X97790000Y-73660000D03*
X36830000Y-76200000D03*
X39370000Y-76200000D03*
X41910000Y-76200000D03*
X44450000Y-76200000D03*
X46990000Y-76200000D03*
X49530000Y-76200000D03*
X52070000Y-76200000D03*
X54610000Y-76200000D03*
X57150000Y-76200000D03*
X59690000Y-76200000D03*
X62230000Y-76200000D03*
X64770000Y-76200000D03*
X67310000Y-76200000D03*
X69850000Y-76200000D03*
X72390000Y-76200000D03*
X74930000Y-76200000D03*
X77470000Y-76200000D03*
X80010000Y-76200000D03*
X82550000Y-76200000D03*
X85090000Y-76200000D03*
X87630000Y-76200000D03*
X90170000Y-76200000D03*
X92710000Y-76200000D03*
X95250000Y-76200000D03*
X97790000Y-76200000D03*
X36830000Y-78740000D03*
X39370000Y-78740000D03*
X41910000Y-78740000D03*
X44450000Y-78740000D03*
X46990000Y-78740000D03*
X49530000Y-78740000D03*
X52070000Y-78740000D03*
X54610000Y-78740000D03*
X57150000Y-78740000D03*
X59690000Y-78740000D03*
X62230000Y-78740000D03*
X64770000Y-78740000D03*
X67310000Y-78740000D03*
X69850000Y-78740000D03*
X72390000Y-78740000D03*
X74930000Y-78740000D03*
X77470000Y-78740000D03*
X80010000Y-78740000D03*
X82550000Y-78740000D03*
X85090000Y-78740000D03*
X87630000Y-78740000D03*
X90170000Y-78740000D03*
X92710000Y-78740000D03*
X95250000Y-78740000D03*
X97790000Y-78740000D03*
X36830000Y-81280000D03*
X39370000Y-81280000D03*
X41910000Y-81280000D03*
X44450000Y-81280000D03*
X46990000Y-81280000D03*
X49530000Y-81280000D03*
X52070000Y-81280000D03*
X54610000Y-81280000D03*
X57150000Y-81280000D03*
X59690000Y-81280000D03*
X62230000Y-81280000D03*
X64770000Y-81280000D03*
X67310000Y-81280000D03*
X69850000Y-81280000D03*
X72390000Y-81280000D03*
X74930000Y-81280000D03*
X77470000Y-81280000D03*
X80010000Y-81280000D03*
X82550000Y-81280000D03*
X85090000Y-81280000D03*
X87630000Y-81280000D03*
X90170000Y-81280000D03*
X92710000Y-81280000D03*
X95250000Y-81280000D03*
X97790000Y-81280000D03*
X36830000Y-83820000D03*
X39370000Y-83820000D03*
X41910000Y-83820000D03*
X44450000Y-83820000D03*
X46990000Y-83820000D03*
X49530000Y-83820000D03*
X52070000Y-83820000D03*
X54610000Y-83820000D03*
X80010000Y-83820000D03*
X82550000Y-83820000D03*
X85090000Y-83820000D03*
X87630000Y-83820000D03*
X90170000Y-83820000D03*
X92710000Y-83820000D03*
X95250000Y-83820000D03*
X97790000Y-83820000D03*
X36830000Y-86360000D03*
X39370000Y-86360000D03*
X41910000Y-86360000D03*
X44450000Y-86360000D03*
X46990000Y-86360000D03*
X49530000Y-86360000D03*
X52070000Y-86360000D03*
X54610000Y-86360000D03*
X80010000Y-86360000D03*
X82550000Y-86360000D03*
X85090000Y-86360000D03*
X87630000Y-86360000D03*
X90170000Y-86360000D03*
X92710000Y-86360000D03*
X95250000Y-86360000D03*
X97790000Y-86360000D03*
X36830000Y-88900000D03*
X39370000Y-88900000D03*
X41910000Y-88900000D03*
X44450000Y-88900000D03*
X46990000Y-88900000D03*
X49530000Y-88900000D03*
X52070000Y-88900000D03*
X54610000Y-88900000D03*
X80010000Y-88900000D03*
X82550000Y-88900000D03*
X85090000Y-88900000D03*
X87630000Y-88900000D03*
X90170000Y-88900000D03*
X92710000Y-88900000D03*
X95250000Y-88900000D03*
X97790000Y-88900000D03*
X36830000Y-91440000D03*
X39370000Y-91440000D03*
X41910000Y-91440000D03*
X44450000Y-91440000D03*
X46990000Y-91440000D03*
X49530000Y-91440000D03*
X52070000Y-91440000D03*
X54610000Y-91440000D03*
X80010000Y-91440000D03*
X82550000Y-91440000D03*
X85090000Y-91440000D03*
X87630000Y-91440000D03*
X90170000Y-91440000D03*
X92710000Y-91440000D03*
X95250000Y-91440000D03*
X97790000Y-91440000D03*
X36830000Y-93980000D03*
X39370000Y-93980000D03*
X41910000Y-93980000D03*
X44450000Y-93980000D03*
X46990000Y-93980000D03*
X49530000Y-93980000D03*
X52070000Y-93980000D03*
X54610000Y-93980000D03*
X80010000Y-93980000D03*
X82550000Y-93980000D03*
X85090000Y-93980000D03*
X87630000Y-93980000D03*
X90170000Y-93980000D03*
X92710000Y-93980000D03*
X95250000Y-93980000D03*
X97790000Y-93980000D03*
X36830000Y-96520000D03*
X39370000Y-96520000D03*
X41910000Y-96520000D03*
X44450000Y-96520000D03*
X46990000Y-96520000D03*
X49530000Y-96520000D03*
X52070000Y-96520000D03*
X54610000Y-96520000D03*
X57150000Y-96520000D03*
X59690000Y-96520000D03*
X74930000Y-96520000D03*
X77470000Y-96520000D03*
X80010000Y-96520000D03*
X82550000Y-96520000D03*
X85090000Y-96520000D03*
X87630000Y-96520000D03*
X90170000Y-96520000D03*
X92710000Y-96520000D03*
X95250000Y-96520000D03*
X97790000Y-96520000D03*
X36830000Y-99060000D03*
X39370000Y-99060000D03*
X41910000Y-99060000D03*
X44450000Y-99060000D03*
X46990000Y-99060000D03*
X49530000Y-99060000D03*
X52070000Y-99060000D03*
X54610000Y-99060000D03*
X57150000Y-99060000D03*
X59690000Y-99060000D03*
X62230000Y-99060000D03*
X64770000Y-99060000D03*
X67310000Y-99060000D03*
X69850000Y-99060000D03*
X72390000Y-99060000D03*
X74930000Y-99060000D03*
X77470000Y-99060000D03*
X80010000Y-99060000D03*
X82550000Y-99060000D03*
X85090000Y-99060000D03*
X87630000Y-99060000D03*
X90170000Y-99060000D03*
X92710000Y-99060000D03*
X95250000Y-99060000D03*
X97790000Y-99060000D03*
X36830000Y-101600000D03*
X39370000Y-101600000D03*
X41910000Y-101600000D03*
X44450000Y-101600000D03*
X46990000Y-101600000D03*
X49530000Y-101600000D03*
X52070000Y-101600000D03*
X54610000Y-101600000D03*
X57150000Y-101600000D03*
X59690000Y-101600000D03*
X62230000Y-101600000D03*
X64770000Y-101600000D03*
X67310000Y-101600000D03*
X69850000Y-101600000D03*
X72390000Y-101600000D03*
X74930000Y-101600000D03*
X77470000Y-101600000D03*
X80010000Y-101600000D03*
X82550000Y-101600000D03*
X85090000Y-101600000D03*
X87630000Y-101600000D03*
X90170000Y-101600000D03*
X92710000Y-101600000D03*
X95250000Y-101600000D03*
X97790000Y-101600000D03*
X36830000Y-104140000D03*
X39370000Y-104140000D03*
X41910000Y-104140000D03*
X44450000Y-104140000D03*
X46990000Y-104140000D03*
X49530000Y-104140000D03*
X52070000Y-104140000D03*
X54610000Y-104140000D03*
X57150000Y-104140000D03*
X59690000Y-104140000D03*
X62230000Y-104140000D03*
X64770000Y-104140000D03*
X67310000Y-104140000D03*
X69850000Y-104140000D03*
X72390000Y-104140000D03*
X74930000Y-104140000D03*
X77470000Y-104140000D03*
X80010000Y-104140000D03*
X82550000Y-104140000D03*
X85090000Y-104140000D03*
X87630000Y-104140000D03*
X90170000Y-104140000D03*
X92710000Y-104140000D03*
X95250000Y-104140000D03*
X97790000Y-104140000D03*
X36830000Y-106680000D03*
X39370000Y-106680000D03*
X41910000Y-106680000D03*
X44450000Y-106680000D03*
X46990000Y-106680000D03*
X49530000Y-106680000D03*
X52070000Y-106680000D03*
X54610000Y-106680000D03*
X57150000Y-106680000D03*
X59690000Y-106680000D03*
X62230000Y-106680000D03*
X64770000Y-106680000D03*
X67310000Y-106680000D03*
X69850000Y-106680000D03*
X72390000Y-106680000D03*
X74930000Y-106680000D03*
X77470000Y-106680000D03*
X80010000Y-106680000D03*
X82550000Y-106680000D03*
X85090000Y-106680000D03*
X87630000Y-106680000D03*
X90170000Y-106680000D03*
X92710000Y-106680000D03*
X95250000Y-106680000D03*
X97790000Y-106680000D03*
X62230000Y-96520000D03*
X64770000Y-96520000D03*
X67310000Y-96520000D03*
X69850000Y-96520000D03*
X72390000Y-96520000D03*
X57150000Y-93980000D03*
X59690000Y-93980000D03*
X74930000Y-93980000D03*
X77470000Y-93980000D03*
D13*
X99060000Y-36195000D03*
X96520000Y-36195000D03*
X93980000Y-36195000D03*
X91440000Y-36195000D03*
X88900000Y-36195000D03*
X86360000Y-36195000D03*
X83820000Y-36195000D03*
X81280000Y-36195000D03*
X78740000Y-36195000D03*
X76200000Y-36195000D03*
X73660000Y-36195000D03*
X71120000Y-36195000D03*
X68580000Y-36195000D03*
X66040000Y-36195000D03*
X63500000Y-36195000D03*
X60960000Y-36195000D03*
X58420000Y-36195000D03*
X55880000Y-36195000D03*
X53340000Y-36195000D03*
X50800000Y-36195000D03*
X48260000Y-36195000D03*
X45720000Y-36195000D03*
X43180000Y-36195000D03*
X40640000Y-36195000D03*
X38100000Y-36195000D03*
X35560000Y-36195000D03*
X99060000Y-33655000D03*
X96520000Y-33655000D03*
X93980000Y-33655000D03*
X91440000Y-33655000D03*
X88900000Y-33655000D03*
X86360000Y-33655000D03*
X83820000Y-33655000D03*
X81280000Y-33655000D03*
X78740000Y-33655000D03*
X76200000Y-33655000D03*
X73660000Y-33655000D03*
X71120000Y-33655000D03*
X68580000Y-33655000D03*
X66040000Y-33655000D03*
X63500000Y-33655000D03*
X60960000Y-33655000D03*
X58420000Y-33655000D03*
X55880000Y-33655000D03*
X53340000Y-33655000D03*
X50800000Y-33655000D03*
X48260000Y-33655000D03*
X45720000Y-33655000D03*
X43180000Y-33655000D03*
X40640000Y-33655000D03*
X38100000Y-33655000D03*
G04 #@! TA.AperFunction,ViaPad*
G36*
G01*
X34905000Y-34060000D02*
X34905000Y-33250000D01*
G75*
G02*
X35155000Y-33000000I250000J0D01*
G01*
X35965000Y-33000000D01*
G75*
G02*
X36215000Y-33250000I0J-250000D01*
G01*
X36215000Y-34060000D01*
G75*
G02*
X35965000Y-34310000I-250000J0D01*
G01*
X35155000Y-34310000D01*
G75*
G02*
X34905000Y-34060000I0J250000D01*
G01*
G37*
G04 #@! TD.AperFunction*
X99060000Y-31115000D03*
X96520000Y-31115000D03*
X93980000Y-31115000D03*
X91440000Y-31115000D03*
X88900000Y-31115000D03*
X86360000Y-31115000D03*
X83820000Y-31115000D03*
X81280000Y-31115000D03*
X78740000Y-31115000D03*
X76200000Y-31115000D03*
X73660000Y-31115000D03*
X71120000Y-31115000D03*
X68580000Y-31115000D03*
X66040000Y-31115000D03*
X63500000Y-31115000D03*
X60960000Y-31115000D03*
X58420000Y-31115000D03*
X55880000Y-31115000D03*
X53340000Y-31115000D03*
X50800000Y-31115000D03*
X48260000Y-31115000D03*
X45720000Y-31115000D03*
X43180000Y-31115000D03*
X40640000Y-31115000D03*
X38100000Y-31115000D03*
X35560000Y-31115000D03*
X99060000Y-28575000D03*
X96520000Y-28575000D03*
X93980000Y-28575000D03*
X91440000Y-28575000D03*
X88900000Y-28575000D03*
X86360000Y-28575000D03*
X83820000Y-28575000D03*
X81280000Y-28575000D03*
X78740000Y-28575000D03*
X76200000Y-28575000D03*
X73660000Y-28575000D03*
X71120000Y-28575000D03*
X68580000Y-28575000D03*
X66040000Y-28575000D03*
X63500000Y-28575000D03*
X60960000Y-28575000D03*
X58420000Y-28575000D03*
X55880000Y-28575000D03*
X53340000Y-28575000D03*
X50800000Y-28575000D03*
X48260000Y-28575000D03*
X45720000Y-28575000D03*
X43180000Y-28575000D03*
X40640000Y-28575000D03*
X38100000Y-28575000D03*
G04 #@! TA.AperFunction,ViaPad*
G36*
G01*
X34905000Y-28980000D02*
X34905000Y-28170000D01*
G75*
G02*
X35155000Y-27920000I250000J0D01*
G01*
X35965000Y-27920000D01*
G75*
G02*
X36215000Y-28170000I0J-250000D01*
G01*
X36215000Y-28980000D01*
G75*
G02*
X35965000Y-29230000I-250000J0D01*
G01*
X35155000Y-29230000D01*
G75*
G02*
X34905000Y-28980000I0J250000D01*
G01*
G37*
G04 #@! TD.AperFunction*
D12*
X77470000Y-58420000D03*
X74930000Y-58420000D03*
X77470000Y-60960000D03*
X74930000Y-60960000D03*
X77470000Y-63500000D03*
X74930000Y-63500000D03*
X77470000Y-66040000D03*
X74930000Y-66040000D03*
X59690000Y-66040000D03*
X57150000Y-66040000D03*
X59690000Y-63500000D03*
X57150000Y-63500000D03*
X59690000Y-60960000D03*
X57150000Y-60960000D03*
X59690000Y-58420000D03*
X57150000Y-58420000D03*
X77470000Y-83820000D03*
X74930000Y-83820000D03*
X77470000Y-86360000D03*
X74930000Y-86360000D03*
X77470000Y-88900000D03*
X74930000Y-88900000D03*
X77470000Y-91440000D03*
X74930000Y-91440000D03*
X59690000Y-91440000D03*
X57150000Y-91440000D03*
X59690000Y-88900000D03*
X57150000Y-88900000D03*
X59690000Y-86360000D03*
X57150000Y-86360000D03*
X59690000Y-83820000D03*
X57150000Y-83820000D03*
D14*
X28367056Y-112602944D03*
X26670000Y-111900000D03*
X24972944Y-112602944D03*
X24270000Y-114300000D03*
X24972944Y-115997056D03*
X26670000Y-116700000D03*
X28367056Y-115997056D03*
X29070000Y-114300000D03*
D15*
X26670000Y-114300000D03*
D14*
X108377056Y-112602944D03*
X106680000Y-111900000D03*
X104982944Y-112602944D03*
X104280000Y-114300000D03*
X104982944Y-115997056D03*
X106680000Y-116700000D03*
X108377056Y-115997056D03*
X109080000Y-114300000D03*
D15*
X106680000Y-114300000D03*
D14*
X105837056Y-26877944D03*
X104140000Y-26175000D03*
X102442944Y-26877944D03*
X101740000Y-28575000D03*
X102442944Y-30272056D03*
X104140000Y-30975000D03*
X105837056Y-30272056D03*
X106540000Y-28575000D03*
D15*
X104140000Y-28575000D03*
D14*
X32177056Y-26877944D03*
X30480000Y-26175000D03*
X28782944Y-26877944D03*
X28080000Y-28575000D03*
X28782944Y-30272056D03*
X30480000Y-30975000D03*
X32177056Y-30272056D03*
X32880000Y-28575000D03*
D15*
X30480000Y-28575000D03*
D16*
X35560000Y-111760000D03*
D17*
X38100000Y-111760000D03*
X40640000Y-111760000D03*
X43180000Y-111760000D03*
X45720000Y-111760000D03*
X48260000Y-111760000D03*
X50800000Y-111760000D03*
X53340000Y-111760000D03*
X55880000Y-111760000D03*
X58420000Y-111760000D03*
X60960000Y-111760000D03*
X63500000Y-111760000D03*
X66040000Y-111760000D03*
X68580000Y-111760000D03*
X71120000Y-111760000D03*
X73660000Y-111760000D03*
X76200000Y-111760000D03*
X78740000Y-111760000D03*
X81280000Y-111760000D03*
X83820000Y-111760000D03*
X86360000Y-111760000D03*
X88900000Y-111760000D03*
X91440000Y-111760000D03*
X93980000Y-111760000D03*
X96520000Y-111760000D03*
X99060000Y-111760000D03*
D18*
X102870000Y-107950000D03*
D19*
X102870000Y-105410000D03*
X102870000Y-102870000D03*
X102870000Y-100330000D03*
X102870000Y-97790000D03*
X102870000Y-95250000D03*
X102870000Y-92710000D03*
X102870000Y-90170000D03*
X102870000Y-87630000D03*
X102870000Y-85090000D03*
X102870000Y-82550000D03*
X102870000Y-80010000D03*
X102870000Y-77470000D03*
X102870000Y-74930000D03*
X102870000Y-72390000D03*
X102870000Y-69850000D03*
X102870000Y-67310000D03*
X102870000Y-64770000D03*
X102870000Y-62230000D03*
X102870000Y-59690000D03*
X102870000Y-57150000D03*
X102870000Y-54610000D03*
X102870000Y-52070000D03*
X102870000Y-49530000D03*
X102870000Y-46990000D03*
X102870000Y-44450000D03*
X31750000Y-107950000D03*
X31750000Y-105410000D03*
X31750000Y-102870000D03*
X31750000Y-100330000D03*
X31750000Y-97790000D03*
X31750000Y-95250000D03*
X31750000Y-92710000D03*
X31750000Y-90170000D03*
X31750000Y-87630000D03*
X31750000Y-85090000D03*
X31750000Y-82550000D03*
X31750000Y-80010000D03*
X31750000Y-77470000D03*
X31750000Y-74930000D03*
X31750000Y-72390000D03*
X31750000Y-69850000D03*
X31750000Y-67310000D03*
X31750000Y-64770000D03*
X31750000Y-62230000D03*
X31750000Y-59690000D03*
X31750000Y-57150000D03*
X31750000Y-54610000D03*
X31750000Y-52070000D03*
X31750000Y-49530000D03*
X31750000Y-46990000D03*
D18*
X31750000Y-44450000D03*
D16*
X35560000Y-40640000D03*
D17*
X38100000Y-40640000D03*
X40640000Y-40640000D03*
X43180000Y-40640000D03*
X45720000Y-40640000D03*
X48260000Y-40640000D03*
X50800000Y-40640000D03*
X53340000Y-40640000D03*
X55880000Y-40640000D03*
X58420000Y-40640000D03*
X60960000Y-40640000D03*
X63500000Y-40640000D03*
X66040000Y-40640000D03*
X68580000Y-40640000D03*
X71120000Y-40640000D03*
X73660000Y-40640000D03*
X76200000Y-40640000D03*
X78740000Y-40640000D03*
X81280000Y-40640000D03*
X83820000Y-40640000D03*
X86360000Y-40640000D03*
X88900000Y-40640000D03*
X91440000Y-40640000D03*
X93980000Y-40640000D03*
X96520000Y-40640000D03*
X99060000Y-40640000D03*
D20*
X29972000Y-110363000D02*
X26670000Y-107061000D01*
X32893000Y-110363000D02*
X29972000Y-110363000D01*
X73660000Y-110490000D02*
X72136000Y-108966000D01*
X73660000Y-111760000D02*
X73660000Y-110490000D01*
X26670000Y-107061000D02*
X26670000Y-106680000D01*
X72136000Y-108966000D02*
X34290000Y-108966000D01*
X34290000Y-108966000D02*
X32893000Y-110363000D01*
D21*
X36830000Y-29845000D02*
X35560000Y-28575000D01*
X36830000Y-42545000D02*
X36830000Y-29845000D01*
X34925000Y-44450000D02*
X36830000Y-42545000D01*
X31750000Y-44450000D02*
X34925000Y-44450000D01*
X30480000Y-44450000D02*
X26670000Y-48260000D01*
X31750000Y-44450000D02*
X30480000Y-44450000D01*
X99060000Y-28575000D02*
X97790000Y-29845000D01*
X97790000Y-29845000D02*
X97790000Y-42545000D01*
X96522499Y-46323403D02*
X96522499Y-43812501D01*
X93980000Y-47649100D02*
X94641599Y-46987501D01*
X93980000Y-48865902D02*
X93980000Y-47649100D01*
X93318401Y-49527501D02*
X93980000Y-48865902D01*
X88902499Y-53943403D02*
X88902499Y-52731599D01*
X94641599Y-46987501D02*
X95858401Y-46987501D01*
X88238401Y-54607501D02*
X88902499Y-53943403D01*
X87021599Y-54607501D02*
X88238401Y-54607501D01*
X86357501Y-56488401D02*
X86357501Y-55271599D01*
X85698401Y-57147501D02*
X86357501Y-56488401D01*
X83817501Y-57811599D02*
X84481599Y-57147501D01*
X83817501Y-59028401D02*
X83817501Y-57811599D01*
X89566597Y-52067501D02*
X90778401Y-52067501D01*
X83158401Y-59687501D02*
X83817501Y-59028401D01*
X81941599Y-59687501D02*
X83158401Y-59687501D01*
X80618401Y-62227501D02*
X81277501Y-61568401D01*
X79401599Y-62227501D02*
X80618401Y-62227501D01*
X78737501Y-64108401D02*
X78737501Y-62891599D01*
X76861599Y-64767501D02*
X78078401Y-64767501D01*
X76197501Y-66648401D02*
X76197501Y-65431599D01*
X74321599Y-67307501D02*
X75538401Y-67307501D01*
X88902499Y-52731599D02*
X89566597Y-52067501D01*
X73657501Y-69188401D02*
X73657501Y-67971599D01*
X72998401Y-69847501D02*
X73657501Y-69188401D01*
X71781599Y-69847501D02*
X72998401Y-69847501D01*
X71117501Y-70511599D02*
X71781599Y-69847501D01*
X71117501Y-71728401D02*
X71117501Y-70511599D01*
X69241599Y-72387501D02*
X70458401Y-72387501D01*
X68577501Y-73051599D02*
X69241599Y-72387501D01*
X68577501Y-74268401D02*
X68577501Y-73051599D01*
X67918401Y-74927501D02*
X68577501Y-74268401D01*
X66701599Y-74927501D02*
X67918401Y-74927501D01*
X66037501Y-75591599D02*
X66701599Y-74927501D01*
X66037501Y-76808401D02*
X66037501Y-75591599D01*
X47598401Y-95247501D02*
X48257501Y-94588401D01*
X48257501Y-93371599D02*
X48921599Y-92707501D01*
X70458401Y-72387501D02*
X71117501Y-71728401D01*
X46381599Y-95247501D02*
X47598401Y-95247501D01*
X55218401Y-87627501D02*
X55877501Y-86968401D01*
X43841599Y-97787501D02*
X45058401Y-97787501D01*
X55877501Y-85751599D02*
X56541599Y-85087501D01*
X76197501Y-65431599D02*
X76861599Y-64767501D01*
X48257501Y-94588401D02*
X48257501Y-93371599D01*
X45717501Y-97128401D02*
X45717501Y-95911599D01*
X63497501Y-78131599D02*
X64161599Y-77467501D01*
X73657501Y-67971599D02*
X74321599Y-67307501D01*
X43177501Y-98451599D02*
X43841599Y-97787501D01*
X43177501Y-99668401D02*
X43177501Y-98451599D01*
X58417501Y-84428401D02*
X58417501Y-83211599D01*
X75538401Y-67307501D02*
X76197501Y-66648401D01*
X38097501Y-103531599D02*
X38761599Y-102867501D01*
X63497501Y-79348401D02*
X63497501Y-78131599D01*
X81277501Y-60351599D02*
X81941599Y-59687501D01*
X42518401Y-100327501D02*
X43177501Y-99668401D01*
X91442499Y-50191599D02*
X92106597Y-49527501D01*
X78078401Y-64767501D02*
X78737501Y-64108401D01*
X45717501Y-95911599D02*
X46381599Y-95247501D01*
X64161599Y-77467501D02*
X65378401Y-77467501D01*
X86357501Y-55271599D02*
X87021599Y-54607501D01*
X38097501Y-104748401D02*
X38097501Y-103531599D01*
X65378401Y-77467501D02*
X66037501Y-76808401D01*
X81277501Y-61568401D02*
X81277501Y-60351599D01*
X37438401Y-105407501D02*
X38097501Y-104748401D01*
X48921599Y-92707501D02*
X50138401Y-92707501D01*
X40637501Y-102208401D02*
X40637501Y-100991599D01*
X50797501Y-90831599D02*
X51461599Y-90167501D01*
X45058401Y-97787501D02*
X45717501Y-97128401D01*
X90778401Y-52067501D02*
X91442499Y-51403403D01*
X52678401Y-90167501D02*
X53337501Y-89508401D01*
X55877501Y-86968401D02*
X55877501Y-85751599D01*
X51461599Y-90167501D02*
X52678401Y-90167501D01*
X54001599Y-87627501D02*
X55218401Y-87627501D01*
X50138401Y-92707501D02*
X50797501Y-92048401D01*
X92106597Y-49527501D02*
X93318401Y-49527501D01*
X38761599Y-102867501D02*
X39978401Y-102867501D01*
X78737501Y-62891599D02*
X79401599Y-62227501D01*
X95858401Y-46987501D02*
X96522499Y-46323403D01*
X84481599Y-57147501D02*
X85698401Y-57147501D01*
X39978401Y-102867501D02*
X40637501Y-102208401D01*
X40637501Y-100991599D02*
X41301599Y-100327501D01*
X50797501Y-92048401D02*
X50797501Y-90831599D01*
X53337501Y-89508401D02*
X53337501Y-88291599D01*
X62838401Y-80007501D02*
X63497501Y-79348401D01*
X53337501Y-88291599D02*
X54001599Y-87627501D01*
X56541599Y-85087501D02*
X57758401Y-85087501D01*
X91442499Y-51403403D02*
X91442499Y-50191599D01*
X41301599Y-100327501D02*
X42518401Y-100327501D01*
X57758401Y-85087501D02*
X58417501Y-84428401D01*
X58417501Y-83211599D02*
X59081599Y-82547501D01*
X59081599Y-82547501D02*
X60298401Y-82547501D01*
X60298401Y-82547501D02*
X60957501Y-81888401D01*
X60957501Y-81888401D02*
X60957501Y-80671599D01*
X60957501Y-80671599D02*
X61621599Y-80007501D01*
X61621599Y-80007501D02*
X62838401Y-80007501D01*
X96522499Y-43812501D02*
X97790000Y-42545000D01*
X33650002Y-107950000D02*
X36192501Y-105407501D01*
X31750000Y-107950000D02*
X33650002Y-107950000D01*
X36192501Y-105407501D02*
X37438401Y-105407501D01*
X96520000Y-28575000D02*
X95250000Y-29845000D01*
X95250000Y-29845000D02*
X95250000Y-42545000D01*
X38097501Y-102208401D02*
X37433403Y-102872499D01*
X39973403Y-100332499D02*
X38761599Y-100332499D01*
X40637501Y-99668401D02*
X39973403Y-100332499D01*
X40637501Y-98456597D02*
X40637501Y-99668401D01*
X43177501Y-97128401D02*
X42513403Y-97792499D01*
X43841599Y-95252499D02*
X43177501Y-95916597D01*
X45058401Y-95252499D02*
X43841599Y-95252499D01*
X45717501Y-93376597D02*
X45717501Y-94593399D01*
X46381599Y-92712499D02*
X45717501Y-93376597D01*
X48257501Y-92053399D02*
X47598401Y-92712499D01*
X50133403Y-90172499D02*
X48921599Y-90172499D01*
X50797501Y-89508401D02*
X50133403Y-90172499D01*
X53337501Y-86968401D02*
X52673403Y-87632499D01*
X53337501Y-85756597D02*
X53337501Y-86968401D01*
X55877501Y-84428401D02*
X55213403Y-85092499D01*
X55877501Y-83216597D02*
X55877501Y-84428401D01*
X56541599Y-82552499D02*
X55877501Y-83216597D01*
X58417501Y-80676597D02*
X58417501Y-81888401D01*
X59081599Y-80012499D02*
X58417501Y-80676597D01*
X60293403Y-80012499D02*
X59081599Y-80012499D01*
X60957501Y-78136597D02*
X60957501Y-79348401D01*
X62833403Y-77472499D02*
X61621599Y-77472499D01*
X58417501Y-81888401D02*
X57753403Y-82552499D01*
X63497501Y-76808401D02*
X62833403Y-77472499D01*
X63497501Y-75596597D02*
X63497501Y-76808401D01*
X64161599Y-74932499D02*
X63497501Y-75596597D01*
X65373403Y-74932499D02*
X64161599Y-74932499D01*
X66037501Y-74268401D02*
X65373403Y-74932499D01*
X66037501Y-73051599D02*
X66037501Y-74268401D01*
X66696601Y-72392499D02*
X66037501Y-73051599D01*
X68577501Y-71728401D02*
X67913403Y-72392499D01*
X70455902Y-69850000D02*
X69239100Y-69850000D01*
X71117501Y-67971599D02*
X71117501Y-69188401D01*
X73657501Y-65431599D02*
X73657501Y-66648401D01*
X51461599Y-87632499D02*
X50797501Y-88296597D01*
X74316601Y-64772499D02*
X73657501Y-65431599D01*
X45717501Y-94593399D02*
X45058401Y-95252499D01*
X76197501Y-64108401D02*
X75533403Y-64772499D01*
X61621599Y-77472499D02*
X60957501Y-78136597D01*
X76197501Y-62891599D02*
X76197501Y-64108401D01*
X48257501Y-90836597D02*
X48257501Y-92053399D01*
X76861599Y-62227501D02*
X76197501Y-62891599D01*
X57753403Y-82552499D02*
X56541599Y-82552499D01*
X78078401Y-62227501D02*
X76861599Y-62227501D01*
X78737501Y-61568401D02*
X78078401Y-62227501D01*
X42513403Y-97792499D02*
X41301599Y-97792499D01*
X78737501Y-60351599D02*
X78737501Y-61568401D01*
X60957501Y-79348401D02*
X60293403Y-80012499D01*
X79401599Y-59687501D02*
X78737501Y-60351599D01*
X80618401Y-59687501D02*
X79401599Y-59687501D01*
X81277501Y-59028401D02*
X80618401Y-59687501D01*
X73657501Y-66648401D02*
X72995902Y-67310000D01*
X81941599Y-57147501D02*
X81277501Y-57811599D01*
X47598401Y-92712499D02*
X46381599Y-92712499D01*
X75533403Y-64772499D02*
X74316601Y-64772499D01*
X83158401Y-57147501D02*
X81941599Y-57147501D01*
X83817501Y-56488401D02*
X83158401Y-57147501D01*
X38097501Y-100996597D02*
X38097501Y-102208401D01*
X83817501Y-55271599D02*
X83817501Y-56488401D01*
X54001599Y-85092499D02*
X53337501Y-85756597D01*
X85698401Y-54607501D02*
X84481599Y-54607501D01*
X38761599Y-100332499D02*
X38097501Y-100996597D01*
X87021599Y-52067501D02*
X86357501Y-52731599D01*
X71779100Y-67310000D02*
X71117501Y-67971599D01*
X81277501Y-57811599D02*
X81277501Y-59028401D01*
X88238401Y-52067501D02*
X87021599Y-52067501D01*
X41301599Y-97792499D02*
X40637501Y-98456597D01*
X86357501Y-53948401D02*
X85698401Y-54607501D01*
X88897501Y-51408401D02*
X88238401Y-52067501D01*
X43177501Y-95916597D02*
X43177501Y-97128401D01*
X72995902Y-67310000D02*
X71779100Y-67310000D01*
X86357501Y-52731599D02*
X86357501Y-53948401D01*
X88897501Y-50191599D02*
X88897501Y-51408401D01*
X52673403Y-87632499D02*
X51461599Y-87632499D01*
X68577501Y-70511599D02*
X68577501Y-71728401D01*
X89561599Y-49527501D02*
X88897501Y-50191599D01*
X48921599Y-90172499D02*
X48257501Y-90836597D01*
X84481599Y-54607501D02*
X83817501Y-55271599D01*
X90778401Y-49527501D02*
X89561599Y-49527501D01*
X91437501Y-48868401D02*
X90778401Y-49527501D01*
X50797501Y-88296597D02*
X50797501Y-89508401D01*
X91437501Y-47651599D02*
X91437501Y-48868401D01*
X55213403Y-85092499D02*
X54001599Y-85092499D01*
X71117501Y-69188401D02*
X70455902Y-69850000D01*
X92101599Y-46987501D02*
X91437501Y-47651599D01*
X67913403Y-72392499D02*
X66696601Y-72392499D01*
X93318401Y-46987501D02*
X92101599Y-46987501D01*
X69239100Y-69850000D02*
X68577501Y-70511599D01*
X93982499Y-46323403D02*
X93318401Y-46987501D01*
X93982499Y-43812501D02*
X93982499Y-46323403D01*
X95250000Y-42545000D02*
X93982499Y-43812501D01*
X33659998Y-105410000D02*
X36197499Y-102872499D01*
X31750000Y-105410000D02*
X33659998Y-105410000D01*
X37433403Y-102872499D02*
X36197499Y-102872499D01*
X38766597Y-97787501D02*
X38102499Y-98451599D01*
X39978401Y-97787501D02*
X38766597Y-97787501D01*
X42518401Y-95247501D02*
X41306597Y-95247501D01*
X43182499Y-94583403D02*
X42518401Y-95247501D01*
X43846597Y-92707501D02*
X43182499Y-93371599D01*
X45058401Y-92707501D02*
X43846597Y-92707501D01*
X46386597Y-90167501D02*
X45722499Y-90831599D01*
X48262499Y-88291599D02*
X48262499Y-89503403D01*
X48926597Y-87627501D02*
X48262499Y-88291599D01*
X50802499Y-86963403D02*
X50138401Y-87627501D01*
X50802499Y-85751599D02*
X50802499Y-86963403D01*
X52678401Y-85087501D02*
X51466597Y-85087501D01*
X53342499Y-84423403D02*
X52678401Y-85087501D01*
X54006597Y-82547501D02*
X53342499Y-83211599D01*
X55218401Y-82547501D02*
X54006597Y-82547501D01*
X55882499Y-81883403D02*
X55218401Y-82547501D01*
X55882499Y-80671599D02*
X55882499Y-81883403D01*
X56546597Y-80007501D02*
X55882499Y-80671599D01*
X41306597Y-95247501D02*
X40642499Y-95911599D01*
X57763399Y-80007501D02*
X56546597Y-80007501D01*
X58422499Y-79348401D02*
X57763399Y-80007501D01*
X58422499Y-78131599D02*
X58422499Y-79348401D01*
X59086597Y-77467501D02*
X58422499Y-78131599D01*
X60298401Y-77467501D02*
X59086597Y-77467501D01*
X60962499Y-76803403D02*
X60298401Y-77467501D01*
X60962499Y-75591599D02*
X60962499Y-76803403D01*
X61626597Y-74927501D02*
X60962499Y-75591599D01*
X43182499Y-93371599D02*
X43182499Y-94583403D01*
X62838401Y-74927501D02*
X61626597Y-74927501D01*
X63502499Y-74263403D02*
X62838401Y-74927501D01*
X63502499Y-73051599D02*
X63502499Y-74263403D01*
X76866597Y-59687501D02*
X76202499Y-60351599D01*
X83822499Y-53943403D02*
X83158401Y-54607501D01*
X69246597Y-67307501D02*
X68582499Y-67971599D01*
X86362499Y-51403403D02*
X85698401Y-52067501D01*
X84486597Y-52067501D02*
X83822499Y-52731599D01*
X86362499Y-50191599D02*
X86362499Y-51403403D01*
X51466597Y-85087501D02*
X50802499Y-85751599D01*
X92710000Y-42545000D02*
X91442499Y-43812501D01*
X48262499Y-89503403D02*
X47598401Y-90167501D01*
X91442499Y-43812501D02*
X91442499Y-46323403D01*
X81946597Y-54607501D02*
X81282499Y-55271599D01*
X76202499Y-61568401D02*
X75543399Y-62227501D01*
X83822499Y-52731599D02*
X83822499Y-53943403D01*
X91442499Y-46323403D02*
X90778401Y-46987501D01*
X80618401Y-57147501D02*
X79406597Y-57147501D01*
X66042499Y-70511599D02*
X66042499Y-71723403D01*
X85698401Y-52067501D02*
X84486597Y-52067501D01*
X65378401Y-72387501D02*
X64166597Y-72387501D01*
X88902499Y-48863403D02*
X88238401Y-49527501D01*
X53342499Y-83211599D02*
X53342499Y-84423403D01*
X93980000Y-28575000D02*
X92710000Y-29845000D01*
X79406597Y-57147501D02*
X78742499Y-57811599D01*
X87026597Y-49527501D02*
X86362499Y-50191599D01*
X81282499Y-55271599D02*
X81282499Y-56483403D01*
X83158401Y-54607501D02*
X81946597Y-54607501D01*
X81282499Y-56483403D02*
X80618401Y-57147501D01*
X92710000Y-29845000D02*
X92710000Y-42545000D01*
X78742499Y-57811599D02*
X78742499Y-59028401D01*
X38102499Y-99663403D02*
X37438401Y-100327501D01*
X71122499Y-66648401D02*
X70463399Y-67307501D01*
X90778401Y-46987501D02*
X89566597Y-46987501D01*
X50138401Y-87627501D02*
X48926597Y-87627501D01*
X89566597Y-46987501D02*
X88902499Y-47651599D01*
X78083399Y-59687501D02*
X76866597Y-59687501D01*
X47598401Y-90167501D02*
X46386597Y-90167501D01*
X88902499Y-47651599D02*
X88902499Y-48863403D01*
X76202499Y-60351599D02*
X76202499Y-61568401D01*
X40642499Y-97123403D02*
X39978401Y-97787501D01*
X88238401Y-49527501D02*
X87026597Y-49527501D01*
X74326597Y-62227501D02*
X73662499Y-62891599D01*
X78742499Y-59028401D02*
X78083399Y-59687501D01*
X38102499Y-98451599D02*
X38102499Y-99663403D01*
X75543399Y-62227501D02*
X74326597Y-62227501D01*
X73662499Y-62891599D02*
X73662499Y-64103403D01*
X73662499Y-64103403D02*
X72998401Y-64767501D01*
X45722499Y-92043403D02*
X45058401Y-92707501D01*
X72998401Y-64767501D02*
X71786597Y-64767501D01*
X45722499Y-90831599D02*
X45722499Y-92043403D01*
X71786597Y-64767501D02*
X71122499Y-65431599D01*
X71122499Y-65431599D02*
X71122499Y-66648401D01*
X70463399Y-67307501D02*
X69246597Y-67307501D01*
X68582499Y-67971599D02*
X68582499Y-69183403D01*
X68582499Y-69183403D02*
X67918401Y-69847501D01*
X67918401Y-69847501D02*
X66706597Y-69847501D01*
X66706597Y-69847501D02*
X66042499Y-70511599D01*
X66042499Y-71723403D02*
X65378401Y-72387501D01*
X40642499Y-95911599D02*
X40642499Y-97123403D01*
X64166597Y-72387501D02*
X63502499Y-73051599D01*
X33655000Y-102870000D02*
X36197499Y-100327501D01*
X31750000Y-102870000D02*
X33655000Y-102870000D01*
X37438401Y-100327501D02*
X36197499Y-100327501D01*
X88900000Y-28575000D02*
X87630000Y-29845000D01*
X87630000Y-29845000D02*
X87630000Y-42545000D01*
X86995000Y-43180000D02*
X87585990Y-42589010D01*
X86362499Y-43812501D02*
X86995000Y-43180000D01*
X85698401Y-46987501D02*
X86362499Y-46323403D01*
X84486597Y-46987501D02*
X85698401Y-46987501D01*
X83822499Y-47651599D02*
X84486597Y-46987501D01*
X83822499Y-48863403D02*
X83822499Y-47651599D01*
X83158401Y-49527501D02*
X83822499Y-48863403D01*
X81946597Y-49527501D02*
X83158401Y-49527501D01*
X81282499Y-50191599D02*
X81946597Y-49527501D01*
X81282499Y-51403403D02*
X81282499Y-50191599D01*
X78742499Y-53943403D02*
X78742499Y-52731599D01*
X76202499Y-55271599D02*
X76866597Y-54607501D01*
X76202499Y-56483403D02*
X76202499Y-55271599D01*
X75538401Y-57147501D02*
X76202499Y-56483403D01*
X74326597Y-57147501D02*
X75538401Y-57147501D01*
X73662499Y-57811599D02*
X74326597Y-57147501D01*
X73662499Y-59023403D02*
X73662499Y-57811599D01*
X72998401Y-59687501D02*
X73662499Y-59023403D01*
X71122499Y-60351599D02*
X71786597Y-59687501D01*
X71122499Y-61563403D02*
X71122499Y-60351599D01*
X69246597Y-62227501D02*
X70458401Y-62227501D01*
X68582499Y-62891599D02*
X69246597Y-62227501D01*
X68582499Y-64103403D02*
X68582499Y-62891599D01*
X66701599Y-64767501D02*
X67918401Y-64767501D01*
X66042499Y-65426601D02*
X66701599Y-64767501D01*
X48926597Y-82547501D02*
X50138401Y-82547501D01*
X48262499Y-84423403D02*
X48262499Y-83211599D01*
X48262499Y-83211599D02*
X48926597Y-82547501D01*
X67918401Y-64767501D02*
X68582499Y-64103403D01*
X47598401Y-85087501D02*
X48262499Y-84423403D01*
X45722499Y-85751599D02*
X46386597Y-85087501D01*
X60962499Y-71723403D02*
X60962499Y-70511599D01*
X45722499Y-86963403D02*
X45722499Y-85751599D01*
X71786597Y-59687501D02*
X72998401Y-59687501D01*
X54006597Y-77467501D02*
X55218401Y-77467501D01*
X62843399Y-69847501D02*
X63502499Y-69188401D01*
X45058401Y-87627501D02*
X45722499Y-86963403D01*
X70458401Y-62227501D02*
X71122499Y-61563403D01*
X52678401Y-80007501D02*
X53342499Y-79343403D01*
X43846597Y-87627501D02*
X45058401Y-87627501D01*
X43182499Y-89508401D02*
X43182499Y-88291599D01*
X80618401Y-52067501D02*
X81282499Y-51403403D01*
X55218401Y-77467501D02*
X55882499Y-76803403D01*
X66042499Y-66648401D02*
X66042499Y-65426601D01*
X42523399Y-90167501D02*
X43182499Y-89508401D01*
X31750000Y-97790000D02*
X33624000Y-97790000D01*
X55882499Y-76803403D02*
X55882499Y-75591599D01*
X38766597Y-92707501D02*
X39978401Y-92707501D01*
X76866597Y-54607501D02*
X78078401Y-54607501D01*
X50802499Y-81883403D02*
X50802499Y-80671599D01*
X39978401Y-92707501D02*
X40642499Y-92043403D01*
X43182499Y-88291599D02*
X43846597Y-87627501D01*
X33624000Y-97790000D02*
X36166499Y-95247501D01*
X36166499Y-95247501D02*
X37438401Y-95247501D01*
X65383399Y-67307501D02*
X66042499Y-66648401D01*
X38102499Y-93371599D02*
X38766597Y-92707501D01*
X86362499Y-46323403D02*
X86362499Y-43812501D01*
X40642499Y-92043403D02*
X40642499Y-90831599D01*
X38102499Y-94583403D02*
X38102499Y-93371599D01*
X63502499Y-67971599D02*
X64166597Y-67307501D01*
X46386597Y-85087501D02*
X47598401Y-85087501D01*
X60962499Y-70511599D02*
X61626597Y-69847501D01*
X78078401Y-54607501D02*
X78742499Y-53943403D01*
X37438401Y-95247501D02*
X38102499Y-94583403D01*
X41306597Y-90167501D02*
X42523399Y-90167501D01*
X50138401Y-82547501D02*
X50802499Y-81883403D01*
X56546597Y-74927501D02*
X57763399Y-74927501D01*
X50802499Y-80671599D02*
X51466597Y-80007501D01*
X78742499Y-52731599D02*
X79406597Y-52067501D01*
X51466597Y-80007501D02*
X52678401Y-80007501D01*
X40642499Y-90831599D02*
X41306597Y-90167501D01*
X64166597Y-67307501D02*
X65383399Y-67307501D01*
X79406597Y-52067501D02*
X80618401Y-52067501D01*
X53342499Y-79343403D02*
X53342499Y-78131599D01*
X53342499Y-78131599D02*
X54006597Y-77467501D01*
X55882499Y-75591599D02*
X56546597Y-74927501D01*
X57763399Y-74927501D02*
X58422499Y-74268401D01*
X58422499Y-74268401D02*
X58422499Y-73051599D01*
X58422499Y-73051599D02*
X59086597Y-72387501D01*
X59086597Y-72387501D02*
X60298401Y-72387501D01*
X60298401Y-72387501D02*
X60962499Y-71723403D01*
X61626597Y-69847501D02*
X62843399Y-69847501D01*
X63502499Y-69188401D02*
X63502499Y-67971599D01*
X85090000Y-29845000D02*
X86360000Y-28575000D01*
X83822499Y-46323403D02*
X83822499Y-43812501D01*
X83158401Y-46987501D02*
X83822499Y-46323403D01*
X81946597Y-46987501D02*
X83158401Y-46987501D01*
X81282499Y-47651599D02*
X81946597Y-46987501D01*
X81282499Y-48863403D02*
X81282499Y-47651599D01*
X80618401Y-49527501D02*
X81282499Y-48863403D01*
X78742499Y-50191599D02*
X79406597Y-49527501D01*
X78742499Y-51403403D02*
X78742499Y-50191599D01*
X78078401Y-52067501D02*
X78742499Y-51403403D01*
X76861599Y-52067501D02*
X78078401Y-52067501D01*
X76202499Y-52726601D02*
X76861599Y-52067501D01*
X76202499Y-53943403D02*
X76202499Y-52726601D01*
X75538401Y-54607501D02*
X76202499Y-53943403D01*
X74321599Y-54607501D02*
X75538401Y-54607501D01*
X73662499Y-55266601D02*
X74321599Y-54607501D01*
X73662499Y-56483403D02*
X73662499Y-55266601D01*
X72998401Y-57147501D02*
X73662499Y-56483403D01*
X71786597Y-57147501D02*
X72998401Y-57147501D01*
X71122499Y-57811599D02*
X71786597Y-57147501D01*
X71122499Y-59023403D02*
X71122499Y-57811599D01*
X70458401Y-59687501D02*
X71122499Y-59023403D01*
X69246597Y-59687501D02*
X70458401Y-59687501D01*
X85090000Y-42545000D02*
X85090000Y-29845000D01*
X68582499Y-60351599D02*
X69246597Y-59687501D01*
X68582499Y-61563403D02*
X68582499Y-60351599D01*
X67918401Y-62227501D02*
X68582499Y-61563403D01*
X66706597Y-62227501D02*
X67918401Y-62227501D01*
X66042499Y-62891599D02*
X66706597Y-62227501D01*
X66042499Y-64108401D02*
X66042499Y-62891599D01*
X65383399Y-64767501D02*
X66042499Y-64108401D01*
X64166597Y-64767501D02*
X65383399Y-64767501D01*
X63502499Y-65431599D02*
X64166597Y-64767501D01*
X63502499Y-66643403D02*
X63502499Y-65431599D01*
X62838401Y-67307501D02*
X63502499Y-66643403D01*
X61626597Y-67307501D02*
X62838401Y-67307501D01*
X60298401Y-69847501D02*
X60962499Y-69183403D01*
X59086597Y-69847501D02*
X60298401Y-69847501D01*
X58422499Y-70511599D02*
X59086597Y-69847501D01*
X58422499Y-71723403D02*
X58422499Y-70511599D01*
X57758401Y-72387501D02*
X58422499Y-71723403D01*
X56546597Y-72387501D02*
X57758401Y-72387501D01*
X55882499Y-73051599D02*
X56546597Y-72387501D01*
X55218401Y-74932499D02*
X55882499Y-74268401D01*
X54001599Y-74932499D02*
X55218401Y-74932499D01*
X53342499Y-75591599D02*
X54001599Y-74932499D01*
X52678401Y-77472499D02*
X53342499Y-76808401D01*
X51461599Y-77472499D02*
X52678401Y-77472499D01*
X50802499Y-78131599D02*
X51461599Y-77472499D01*
X50802499Y-79348401D02*
X50802499Y-78131599D01*
X50143399Y-80007501D02*
X50802499Y-79348401D01*
X48926597Y-80007501D02*
X50143399Y-80007501D01*
X48262499Y-80671599D02*
X48926597Y-80007501D01*
X48262499Y-81883403D02*
X48262499Y-80671599D01*
X47598401Y-82547501D02*
X48262499Y-81883403D01*
X46386597Y-82547501D02*
X47598401Y-82547501D01*
X45722499Y-83211599D02*
X46386597Y-82547501D01*
X45722499Y-84423403D02*
X45722499Y-83211599D01*
X60962499Y-67971599D02*
X61626597Y-67307501D01*
X43182499Y-85751599D02*
X43846597Y-85087501D01*
X43846597Y-85087501D02*
X45058401Y-85087501D01*
X43182499Y-86963403D02*
X43182499Y-85751599D01*
X60962499Y-69183403D02*
X60962499Y-67971599D01*
X42518401Y-87627501D02*
X43182499Y-86963403D01*
X41306597Y-87627501D02*
X42518401Y-87627501D01*
X55882499Y-74268401D02*
X55882499Y-73051599D01*
X40642499Y-88291599D02*
X41306597Y-87627501D01*
X83822499Y-43812501D02*
X85090000Y-42545000D01*
X40642499Y-89503403D02*
X40642499Y-88291599D01*
X45058401Y-85087501D02*
X45722499Y-84423403D01*
X39978401Y-90167501D02*
X40642499Y-89503403D01*
X38766597Y-90167501D02*
X39978401Y-90167501D01*
X38102499Y-90831599D02*
X38766597Y-90167501D01*
X79406597Y-49527501D02*
X80618401Y-49527501D01*
X38102499Y-92043403D02*
X38102499Y-90831599D01*
X37438401Y-92707501D02*
X38102499Y-92043403D01*
X53342499Y-76808401D02*
X53342499Y-75591599D01*
X31750000Y-95250000D02*
X33655000Y-95250000D01*
X33655000Y-95250000D02*
X36197499Y-92707501D01*
X36197499Y-92707501D02*
X37438401Y-92707501D01*
X82550000Y-29845000D02*
X83820000Y-28575000D01*
X82550000Y-42545000D02*
X82550000Y-29845000D01*
X81282499Y-43812501D02*
X82550000Y-42545000D01*
X81282499Y-46323403D02*
X81282499Y-43812501D01*
X80618401Y-46987501D02*
X81282499Y-46323403D01*
X79406597Y-46987501D02*
X80618401Y-46987501D01*
X76866597Y-49527501D02*
X78078401Y-49527501D01*
X76202499Y-51403403D02*
X76202499Y-50191599D01*
X75538401Y-52067501D02*
X76202499Y-51403403D01*
X72993403Y-54612499D02*
X73662499Y-53943403D01*
X71781599Y-54612499D02*
X72993403Y-54612499D01*
X71122499Y-55271599D02*
X71781599Y-54612499D01*
X71122499Y-56488401D02*
X71122499Y-55271599D01*
X70460900Y-57150000D02*
X71122499Y-56488401D01*
X69244098Y-57150000D02*
X70460900Y-57150000D01*
X68582499Y-59028401D02*
X68582499Y-57811599D01*
X66706597Y-59687501D02*
X67923399Y-59687501D01*
X66042499Y-60351599D02*
X66706597Y-59687501D01*
X65378401Y-62227501D02*
X66042499Y-61563403D01*
X73662499Y-52731599D02*
X74326597Y-52067501D01*
X47598401Y-80012499D02*
X48262499Y-79348401D01*
X46381599Y-80012499D02*
X47598401Y-80012499D01*
X45722499Y-80671599D02*
X46381599Y-80012499D01*
X50802499Y-75591599D02*
X51466597Y-74927501D01*
X45722499Y-81888401D02*
X45722499Y-80671599D01*
X48921599Y-77472499D02*
X50138401Y-77472499D01*
X45058401Y-82552499D02*
X45722499Y-81888401D01*
X43841599Y-82552499D02*
X45058401Y-82552499D01*
X42518401Y-85092499D02*
X43182499Y-84428401D01*
X67923399Y-59687501D02*
X68582499Y-59028401D01*
X43182499Y-84428401D02*
X43182499Y-83211599D01*
X33684098Y-92710000D02*
X36221599Y-90172499D01*
X78742499Y-47651599D02*
X79406597Y-46987501D01*
X48262499Y-79348401D02*
X48262499Y-78131599D01*
X38761599Y-87632499D02*
X39978401Y-87632499D01*
X73662499Y-53943403D02*
X73662499Y-52731599D01*
X38102499Y-89508401D02*
X38102499Y-88291599D01*
X43182499Y-83211599D02*
X43841599Y-82552499D01*
X37438401Y-90172499D02*
X38102499Y-89508401D01*
X57758401Y-69847501D02*
X58422499Y-69183403D01*
X36221599Y-90172499D02*
X37438401Y-90172499D01*
X63502499Y-62891599D02*
X64166597Y-62227501D01*
X40642499Y-85751599D02*
X41301599Y-85092499D01*
X31750000Y-92710000D02*
X33684098Y-92710000D01*
X48262499Y-78131599D02*
X48921599Y-77472499D01*
X39978401Y-87632499D02*
X40642499Y-86968401D01*
X38102499Y-88291599D02*
X38761599Y-87632499D01*
X40642499Y-86968401D02*
X40642499Y-85751599D01*
X41301599Y-85092499D02*
X42518401Y-85092499D01*
X50138401Y-77472499D02*
X50802499Y-76808401D01*
X51466597Y-74927501D02*
X52683399Y-74927501D01*
X50802499Y-76808401D02*
X50802499Y-75591599D01*
X52683399Y-74927501D02*
X53342499Y-74268401D01*
X64166597Y-62227501D02*
X65378401Y-62227501D01*
X53342499Y-74268401D02*
X53342499Y-73051599D01*
X53342499Y-73051599D02*
X54006597Y-72387501D01*
X66042499Y-61563403D02*
X66042499Y-60351599D01*
X54006597Y-72387501D02*
X55218401Y-72387501D01*
X55218401Y-72387501D02*
X55882499Y-71723403D01*
X55882499Y-71723403D02*
X55882499Y-70511599D01*
X76202499Y-50191599D02*
X76866597Y-49527501D01*
X55882499Y-70511599D02*
X56546597Y-69847501D01*
X68582499Y-57811599D02*
X69244098Y-57150000D01*
X56546597Y-69847501D02*
X57758401Y-69847501D01*
X78078401Y-49527501D02*
X78742499Y-48863403D01*
X58422499Y-69183403D02*
X58422499Y-67971599D01*
X58422499Y-67971599D02*
X59086597Y-67307501D01*
X74326597Y-52067501D02*
X75538401Y-52067501D01*
X59086597Y-67307501D02*
X60298401Y-67307501D01*
X78742499Y-48863403D02*
X78742499Y-47651599D01*
X60298401Y-67307501D02*
X60962499Y-66643403D01*
X60962499Y-66643403D02*
X60962499Y-65431599D01*
X60962499Y-65431599D02*
X61626597Y-64767501D01*
X61626597Y-64767501D02*
X62838401Y-64767501D01*
X62838401Y-64767501D02*
X63502499Y-64103403D01*
X63502499Y-64103403D02*
X63502499Y-62891599D01*
X80010000Y-29845000D02*
X81280000Y-28575000D01*
X80010000Y-42545000D02*
X80010000Y-29845000D01*
X78078401Y-46992499D02*
X78737501Y-46333399D01*
X76861599Y-46992499D02*
X78078401Y-46992499D01*
X76202499Y-47651599D02*
X76861599Y-46992499D01*
X74321599Y-49532499D02*
X75538401Y-49532499D01*
X72998401Y-52072499D02*
X73662499Y-51408401D01*
X71781599Y-52072499D02*
X72998401Y-52072499D01*
X71122499Y-52731599D02*
X71781599Y-52072499D01*
X70458401Y-54612499D02*
X71122499Y-53948401D01*
X69241599Y-54612499D02*
X70458401Y-54612499D01*
X68582499Y-55271599D02*
X69241599Y-54612499D01*
X66037501Y-59028401D02*
X66037501Y-57816597D01*
X65373403Y-59692499D02*
X66037501Y-59028401D01*
X64161599Y-59692499D02*
X65373403Y-59692499D01*
X63497501Y-60356597D02*
X64161599Y-59692499D01*
X48262499Y-76803403D02*
X48262499Y-75591599D01*
X45722499Y-79348401D02*
X45722499Y-78131599D01*
X58417501Y-65436597D02*
X59081599Y-64772499D01*
X76202499Y-48868401D02*
X76202499Y-47651599D01*
X45063399Y-80007501D02*
X45722499Y-79348401D01*
X78737501Y-46333399D02*
X78737501Y-43817499D01*
X47595902Y-77470000D02*
X48262499Y-76803403D01*
X43182499Y-80671599D02*
X43846597Y-80007501D01*
X43182499Y-81883403D02*
X43182499Y-80671599D01*
X42518401Y-82547501D02*
X43182499Y-81883403D01*
X75538401Y-49532499D02*
X76202499Y-48868401D01*
X41912499Y-82547501D02*
X42518401Y-82547501D01*
X43846597Y-80007501D02*
X45063399Y-80007501D01*
X41301599Y-82552499D02*
X41907501Y-82552499D01*
X40637501Y-84428401D02*
X40637501Y-83216597D01*
X68582499Y-56488401D02*
X68582499Y-55271599D01*
X39973403Y-85092499D02*
X40637501Y-84428401D01*
X38761599Y-85092499D02*
X39973403Y-85092499D01*
X38097501Y-86968401D02*
X38097501Y-85756597D01*
X66037501Y-57816597D02*
X66701599Y-57152499D01*
X46384098Y-77470000D02*
X47595902Y-77470000D01*
X38097501Y-85756597D02*
X38761599Y-85092499D01*
X45722499Y-78131599D02*
X46384098Y-77470000D01*
X37433403Y-87632499D02*
X38097501Y-86968401D01*
X41907501Y-82552499D02*
X41912499Y-82547501D01*
X36221599Y-87632499D02*
X37433403Y-87632499D01*
X33684098Y-90170000D02*
X36221599Y-87632499D01*
X40637501Y-83216597D02*
X41301599Y-82552499D01*
X31750000Y-90170000D02*
X33684098Y-90170000D01*
X48262499Y-75591599D02*
X48926597Y-74927501D01*
X57753403Y-67312499D02*
X58417501Y-66648401D01*
X48926597Y-74927501D02*
X50138401Y-74927501D01*
X67918401Y-57152499D02*
X68582499Y-56488401D01*
X50138401Y-74927501D02*
X50797501Y-74268401D01*
X78737501Y-43817499D02*
X80010000Y-42545000D01*
X50797501Y-74268401D02*
X50797501Y-73056597D01*
X71122499Y-53948401D02*
X71122499Y-52731599D01*
X50797501Y-73056597D02*
X51461599Y-72392499D01*
X51461599Y-72392499D02*
X52673403Y-72392499D01*
X52673403Y-72392499D02*
X53337501Y-71728401D01*
X55213403Y-69852499D02*
X55877501Y-69188401D01*
X73662499Y-50191599D02*
X74321599Y-49532499D01*
X53337501Y-71728401D02*
X53337501Y-70516597D01*
X53337501Y-70516597D02*
X54001599Y-69852499D01*
X54001599Y-69852499D02*
X55213403Y-69852499D01*
X58417501Y-66648401D02*
X58417501Y-65436597D01*
X55877501Y-69188401D02*
X55877501Y-67976597D01*
X55877501Y-67976597D02*
X56541599Y-67312499D01*
X56541599Y-67312499D02*
X57753403Y-67312499D01*
X59081599Y-64772499D02*
X60293403Y-64772499D01*
X60293403Y-64772499D02*
X60957501Y-64108401D01*
X60957501Y-64108401D02*
X60957501Y-62891599D01*
X60957501Y-62891599D02*
X61616601Y-62232499D01*
X73662499Y-51408401D02*
X73662499Y-50191599D01*
X61616601Y-62232499D02*
X62833403Y-62232499D01*
X66701599Y-57152499D02*
X67918401Y-57152499D01*
X62833403Y-62232499D02*
X63497501Y-61568401D01*
X63497501Y-61568401D02*
X63497501Y-60356597D01*
X77470000Y-29845000D02*
X78740000Y-28575000D01*
X77470000Y-42545000D02*
X77470000Y-29845000D01*
X76202499Y-43812501D02*
X77470000Y-42545000D01*
X76202499Y-46328401D02*
X76202499Y-43812501D01*
X75543399Y-46987501D02*
X76202499Y-46328401D01*
X74326597Y-46987501D02*
X75543399Y-46987501D01*
X73662499Y-47651599D02*
X74326597Y-46987501D01*
X72998401Y-49527501D02*
X73662499Y-48863403D01*
X71786597Y-49527501D02*
X72998401Y-49527501D01*
X71122499Y-50191599D02*
X71786597Y-49527501D01*
X71122499Y-51403403D02*
X71122499Y-50191599D01*
X69241599Y-52072499D02*
X70453403Y-52072499D01*
X68582499Y-53948401D02*
X68582499Y-52731599D01*
X67918401Y-54612499D02*
X68582499Y-53948401D01*
X66042499Y-55271599D02*
X66701599Y-54612499D01*
X66042499Y-56488401D02*
X66042499Y-55271599D01*
X65378401Y-57152499D02*
X66042499Y-56488401D01*
X64161599Y-57152499D02*
X65378401Y-57152499D01*
X63502499Y-57811599D02*
X64161599Y-57152499D01*
X66701599Y-54612499D02*
X67918401Y-54612499D01*
X63502499Y-59028401D02*
X63502499Y-57811599D01*
X62838401Y-59692499D02*
X63502499Y-59028401D01*
X61621599Y-59692499D02*
X62838401Y-59692499D01*
X60962499Y-60351599D02*
X61621599Y-59692499D01*
X60962499Y-61568401D02*
X60962499Y-60351599D01*
X68582499Y-52731599D02*
X69241599Y-52072499D01*
X60298401Y-62232499D02*
X60962499Y-61568401D01*
X59081599Y-62232499D02*
X60298401Y-62232499D01*
X58422499Y-62891599D02*
X59081599Y-62232499D01*
X58422499Y-64108401D02*
X58422499Y-62891599D01*
X57758401Y-64772499D02*
X58422499Y-64108401D01*
X56541599Y-64772499D02*
X57758401Y-64772499D01*
X55882499Y-65431599D02*
X56541599Y-64772499D01*
X70453403Y-52072499D02*
X71122499Y-51403403D01*
X55882499Y-66648401D02*
X55882499Y-65431599D01*
X55218401Y-67312499D02*
X55882499Y-66648401D01*
X54001599Y-67312499D02*
X55218401Y-67312499D01*
X53342499Y-67971599D02*
X54001599Y-67312499D01*
X53342499Y-69188401D02*
X53342499Y-67971599D01*
X52678401Y-69852499D02*
X53342499Y-69188401D01*
X51461599Y-69852499D02*
X52678401Y-69852499D01*
X50802499Y-70511599D02*
X51461599Y-69852499D01*
X50802499Y-71728401D02*
X50802499Y-70511599D01*
X50138401Y-72392499D02*
X50802499Y-71728401D01*
X48921599Y-72392499D02*
X50138401Y-72392499D01*
X48262499Y-73051599D02*
X48921599Y-72392499D01*
X48262499Y-74268401D02*
X48262499Y-73051599D01*
X47598401Y-74932499D02*
X48262499Y-74268401D01*
X46381599Y-74932499D02*
X47598401Y-74932499D01*
X45722499Y-75591599D02*
X46381599Y-74932499D01*
X45722499Y-76808401D02*
X45722499Y-75591599D01*
X45058401Y-77472499D02*
X45722499Y-76808401D01*
X43841599Y-77472499D02*
X45058401Y-77472499D01*
X43182499Y-78131599D02*
X43841599Y-77472499D01*
X43182499Y-79348401D02*
X43182499Y-78131599D01*
X42518401Y-80012499D02*
X43182499Y-79348401D01*
X41301599Y-80012499D02*
X42518401Y-80012499D01*
X40642499Y-80671599D02*
X41301599Y-80012499D01*
X40642499Y-81888401D02*
X40642499Y-80671599D01*
X73662499Y-48863403D02*
X73662499Y-47651599D01*
X39978401Y-82552499D02*
X40642499Y-81888401D01*
X38761599Y-82552499D02*
X39978401Y-82552499D01*
X38102499Y-83211599D02*
X38761599Y-82552499D01*
X38102499Y-84428401D02*
X38102499Y-83211599D01*
X37443399Y-85087501D02*
X38102499Y-84428401D01*
X33655000Y-87630000D02*
X36197499Y-85087501D01*
X31750000Y-87630000D02*
X33655000Y-87630000D01*
X36197499Y-85087501D02*
X37443399Y-85087501D01*
X74930000Y-29845000D02*
X76200000Y-28575000D01*
X74930000Y-42545000D02*
X74930000Y-29845000D01*
X73662499Y-43812501D02*
X74930000Y-42545000D01*
X73662499Y-46328401D02*
X73662499Y-43812501D01*
X72998401Y-46992499D02*
X73662499Y-46328401D01*
X71122499Y-48868401D02*
X71122499Y-47651599D01*
X70460900Y-49530000D02*
X71122499Y-48868401D01*
X69244098Y-49530000D02*
X70460900Y-49530000D01*
X68582499Y-51408401D02*
X68582499Y-50191599D01*
X66706597Y-52067501D02*
X67923399Y-52067501D01*
X66042499Y-53948401D02*
X66042499Y-52731599D01*
X65383399Y-54607501D02*
X66042499Y-53948401D01*
X64166597Y-54607501D02*
X65383399Y-54607501D01*
X63502499Y-55271599D02*
X64166597Y-54607501D01*
X63502499Y-56483403D02*
X63502499Y-55271599D01*
X62833403Y-57152499D02*
X63502499Y-56483403D01*
X61621599Y-57152499D02*
X62833403Y-57152499D01*
X60962499Y-57811599D02*
X61621599Y-57152499D01*
X60962499Y-59028401D02*
X60962499Y-57811599D01*
X59081599Y-59692499D02*
X60298401Y-59692499D01*
X58422499Y-60351599D02*
X59081599Y-59692499D01*
X58422499Y-61568401D02*
X58422499Y-60351599D01*
X57758401Y-62232499D02*
X58422499Y-61568401D01*
X56541599Y-62232499D02*
X57758401Y-62232499D01*
X55218401Y-64772499D02*
X55882499Y-64108401D01*
X53342499Y-66648401D02*
X53342499Y-65431599D01*
X52678401Y-67312499D02*
X53342499Y-66648401D01*
X51461599Y-67312499D02*
X52678401Y-67312499D01*
X50802499Y-69188401D02*
X50802499Y-67971599D01*
X50138401Y-69852499D02*
X50802499Y-69188401D01*
X48921599Y-69852499D02*
X50138401Y-69852499D01*
X48262499Y-70511599D02*
X48921599Y-69852499D01*
X48262499Y-71728401D02*
X48262499Y-70511599D01*
X47598401Y-72392499D02*
X48262499Y-71728401D01*
X46381599Y-72392499D02*
X47598401Y-72392499D01*
X45722499Y-73051599D02*
X46381599Y-72392499D01*
X45722499Y-74268401D02*
X45722499Y-73051599D01*
X45058401Y-74932499D02*
X45722499Y-74268401D01*
X43841599Y-74932499D02*
X45058401Y-74932499D01*
X71781599Y-46992499D02*
X72998401Y-46992499D01*
X43182499Y-75591599D02*
X43841599Y-74932499D01*
X43182499Y-76808401D02*
X43182499Y-75591599D01*
X50802499Y-67971599D02*
X51461599Y-67312499D01*
X42518401Y-77472499D02*
X43182499Y-76808401D01*
X71122499Y-47651599D02*
X71781599Y-46992499D01*
X41301599Y-77472499D02*
X42518401Y-77472499D01*
X55882499Y-62891599D02*
X56541599Y-62232499D01*
X40642499Y-78131599D02*
X41301599Y-77472499D01*
X55882499Y-64108401D02*
X55882499Y-62891599D01*
X40642499Y-79348401D02*
X40642499Y-78131599D01*
X66042499Y-52731599D02*
X66706597Y-52067501D01*
X39978401Y-80012499D02*
X40642499Y-79348401D01*
X38761599Y-80012499D02*
X39978401Y-80012499D01*
X54001599Y-64772499D02*
X55218401Y-64772499D01*
X38102499Y-80671599D02*
X38761599Y-80012499D01*
X67923399Y-52067501D02*
X68582499Y-51408401D01*
X38102499Y-81888401D02*
X38102499Y-80671599D01*
X53342499Y-65431599D02*
X54001599Y-64772499D01*
X37443399Y-82547501D02*
X38102499Y-81888401D01*
X60298401Y-59692499D02*
X60962499Y-59028401D01*
X68582499Y-50191599D02*
X69244098Y-49530000D01*
X33655000Y-85090000D02*
X36197499Y-82547501D01*
X31750000Y-85090000D02*
X33655000Y-85090000D01*
X36197499Y-82547501D02*
X37443399Y-82547501D01*
X69850000Y-41810685D02*
X69850000Y-42545000D01*
X69850000Y-29845000D02*
X69850000Y-41810685D01*
X68580000Y-28575000D02*
X69850000Y-29845000D01*
X68565451Y-43829549D02*
X69215000Y-43180000D01*
X67324549Y-43829549D02*
X68565451Y-43829549D01*
X66037501Y-45116597D02*
X67324549Y-43829549D01*
X65373403Y-46992499D02*
X66037501Y-46328401D01*
X33655000Y-77470000D02*
X36192501Y-74932499D01*
X56541599Y-54612499D02*
X57753403Y-54612499D01*
X43841599Y-67312499D02*
X45053403Y-67312499D01*
X43177501Y-67976597D02*
X43841599Y-67312499D01*
X55877501Y-55276597D02*
X56541599Y-54612499D01*
X45717501Y-65436597D02*
X46381599Y-64772499D01*
X48257501Y-64108401D02*
X48257501Y-62896597D01*
X43177501Y-69188401D02*
X43177501Y-67976597D01*
X48921599Y-62232499D02*
X50133403Y-62232499D01*
X59081599Y-52072499D02*
X60293403Y-52072499D01*
X57753403Y-54612499D02*
X58417501Y-53948401D01*
X45717501Y-66648401D02*
X45717501Y-65436597D01*
X42513403Y-69852499D02*
X43177501Y-69188401D01*
X46381599Y-64772499D02*
X47593403Y-64772499D01*
X58417501Y-53948401D02*
X58417501Y-52736597D01*
X38097501Y-74273399D02*
X38097501Y-73056597D01*
X45053403Y-67312499D02*
X45717501Y-66648401D01*
X37438401Y-74932499D02*
X38097501Y-74273399D01*
X36192501Y-74932499D02*
X37438401Y-74932499D01*
X39973403Y-72392499D02*
X40637501Y-71728401D01*
X40637501Y-71728401D02*
X40637501Y-70511599D01*
X38097501Y-73056597D02*
X38761599Y-72392499D01*
X38761599Y-72392499D02*
X39973403Y-72392499D01*
X51461599Y-59692499D02*
X52678401Y-59692499D01*
X48257501Y-62896597D02*
X48921599Y-62232499D01*
X31750000Y-77470000D02*
X33655000Y-77470000D01*
X54001599Y-57152499D02*
X55218401Y-57152499D01*
X60293403Y-52072499D02*
X60957501Y-51408401D01*
X40637501Y-70511599D02*
X41296601Y-69852499D01*
X55218401Y-57152499D02*
X55877501Y-56493399D01*
X41296601Y-69852499D02*
X42513403Y-69852499D01*
X50133403Y-62232499D02*
X50797501Y-61568401D01*
X61621599Y-49532499D02*
X62833403Y-49532499D01*
X66037501Y-46328401D02*
X66037501Y-45116597D01*
X50797501Y-61568401D02*
X50797501Y-60356597D01*
X69215000Y-43180000D02*
X69805990Y-42589010D01*
X50797501Y-60356597D02*
X51461599Y-59692499D01*
X62833403Y-49532499D02*
X63497501Y-48868401D01*
X52678401Y-59692499D02*
X53337501Y-59033399D01*
X47593403Y-64772499D02*
X48257501Y-64108401D01*
X63497501Y-47656597D02*
X64161599Y-46992499D01*
X53337501Y-59033399D02*
X53337501Y-57816597D01*
X58417501Y-52736597D02*
X59081599Y-52072499D01*
X53337501Y-57816597D02*
X54001599Y-57152499D01*
X60957501Y-51408401D02*
X60957501Y-50196597D01*
X60957501Y-50196597D02*
X61621599Y-49532499D01*
X63497501Y-48868401D02*
X63497501Y-47656597D01*
X55877501Y-56493399D02*
X55877501Y-55276597D01*
X64161599Y-46992499D02*
X65373403Y-46992499D01*
X63500000Y-28575000D02*
X64770000Y-29845000D01*
X64770000Y-29845000D02*
X64770000Y-42545000D01*
X50802499Y-56483403D02*
X50802499Y-55271599D01*
X45722499Y-61568401D02*
X45722499Y-60351599D01*
X38102499Y-67971599D02*
X38766597Y-67307501D01*
X50802499Y-55271599D02*
X51466597Y-54607501D01*
X38102499Y-69183403D02*
X38102499Y-67971599D01*
X51466597Y-54607501D02*
X52678401Y-54607501D01*
X54006597Y-52067501D02*
X55223399Y-52067501D01*
X59086597Y-46987501D02*
X60298401Y-46987501D01*
X55223399Y-52067501D02*
X55882499Y-51408401D01*
X55882499Y-50191599D02*
X56546597Y-49527501D01*
X52678401Y-54607501D02*
X53342499Y-53943403D01*
X48926597Y-57147501D02*
X50138401Y-57147501D01*
X57758401Y-49527501D02*
X58422499Y-48863403D01*
X58422499Y-48863403D02*
X58422499Y-47651599D01*
X64725990Y-42589010D02*
X63485451Y-43829549D01*
X53342499Y-52731599D02*
X54006597Y-52067501D01*
X58422499Y-47651599D02*
X59086597Y-46987501D01*
X40642499Y-65431599D02*
X41306597Y-64767501D01*
X60298401Y-46987501D02*
X60962499Y-46323403D01*
X45722499Y-60351599D02*
X46386597Y-59687501D01*
X63485451Y-43829549D02*
X62244549Y-43829549D01*
X43182499Y-64103403D02*
X43182499Y-62891599D01*
X36221599Y-69847501D02*
X37438401Y-69847501D01*
X42518401Y-64767501D02*
X43182499Y-64103403D01*
X31750000Y-72390000D02*
X33679100Y-72390000D01*
X33679100Y-72390000D02*
X36221599Y-69847501D01*
X40642499Y-66643403D02*
X40642499Y-65431599D01*
X53342499Y-53943403D02*
X53342499Y-52731599D01*
X50138401Y-57147501D02*
X50802499Y-56483403D01*
X56546597Y-49527501D02*
X57758401Y-49527501D01*
X60962499Y-46323403D02*
X60962499Y-45111599D01*
X37438401Y-69847501D02*
X38102499Y-69183403D01*
X60962499Y-45111599D02*
X62244549Y-43829549D01*
X55882499Y-51408401D02*
X55882499Y-50191599D01*
X46386597Y-59687501D02*
X47598401Y-59687501D01*
X48262499Y-57811599D02*
X48926597Y-57147501D01*
X48262499Y-59023403D02*
X48262499Y-57811599D01*
X47598401Y-59687501D02*
X48262499Y-59023403D01*
X45063399Y-62227501D02*
X45722499Y-61568401D01*
X43846597Y-62227501D02*
X45063399Y-62227501D01*
X43182499Y-62891599D02*
X43846597Y-62227501D01*
X41306597Y-64767501D02*
X42518401Y-64767501D01*
X39978401Y-67307501D02*
X40642499Y-66643403D01*
X38766597Y-67307501D02*
X39978401Y-67307501D01*
X60960000Y-28575000D02*
X62230000Y-29845000D01*
X62230000Y-29845000D02*
X62230000Y-42545000D01*
X58422499Y-46328401D02*
X58422499Y-45111599D01*
X57763399Y-46987501D02*
X58422499Y-46328401D01*
X56546597Y-46987501D02*
X57763399Y-46987501D01*
X55882499Y-47651599D02*
X56546597Y-46987501D01*
X55882499Y-48868401D02*
X55882499Y-47651599D01*
X55223399Y-49527501D02*
X55882499Y-48868401D01*
X54006597Y-49527501D02*
X55223399Y-49527501D01*
X53342499Y-50191599D02*
X54006597Y-49527501D01*
X53342499Y-51403403D02*
X53342499Y-50191599D01*
X52678401Y-52067501D02*
X53342499Y-51403403D01*
X51466597Y-52067501D02*
X52678401Y-52067501D01*
X50802499Y-52731599D02*
X51466597Y-52067501D01*
X50802499Y-53948401D02*
X50802499Y-52731599D01*
X50143399Y-54607501D02*
X50802499Y-53948401D01*
X48926597Y-54607501D02*
X50143399Y-54607501D01*
X48262499Y-55271599D02*
X48926597Y-54607501D01*
X47603399Y-57147501D02*
X48262499Y-56488401D01*
X46386597Y-57147501D02*
X47603399Y-57147501D01*
X45722499Y-57811599D02*
X46386597Y-57147501D01*
X45722499Y-59023403D02*
X45722499Y-57811599D01*
X45058401Y-59687501D02*
X45722499Y-59023403D01*
X43182499Y-60351599D02*
X43846597Y-59687501D01*
X48262499Y-56488401D02*
X48262499Y-55271599D01*
X43182499Y-61563403D02*
X43182499Y-60351599D01*
X41306597Y-62227501D02*
X42518401Y-62227501D01*
X40642499Y-62891599D02*
X41306597Y-62227501D01*
X40642499Y-64103403D02*
X40642499Y-62891599D01*
X43846597Y-59687501D02*
X45058401Y-59687501D01*
X39978401Y-64767501D02*
X40642499Y-64103403D01*
X38766597Y-64767501D02*
X39978401Y-64767501D01*
X42518401Y-62227501D02*
X43182499Y-61563403D01*
X38102499Y-65431599D02*
X38766597Y-64767501D01*
X38102499Y-66648401D02*
X38102499Y-65431599D01*
X37443399Y-67307501D02*
X38102499Y-66648401D01*
X36226597Y-67307501D02*
X37443399Y-67307501D01*
X33684098Y-69850000D02*
X36226597Y-67307501D01*
X31750000Y-69850000D02*
X33684098Y-69850000D01*
X62230000Y-42545000D02*
X60945451Y-43829549D01*
X60945451Y-43829549D02*
X59704549Y-43829549D01*
X58422499Y-45111599D02*
X59704549Y-43829549D01*
X58420000Y-28575000D02*
X59690000Y-29845000D01*
X59690000Y-29845000D02*
X59690000Y-42545000D01*
X55223399Y-46987501D02*
X55882499Y-46328401D01*
X53342499Y-47651599D02*
X54006597Y-46987501D01*
X53342499Y-48863403D02*
X53342499Y-47651599D01*
X55882499Y-46328401D02*
X55882499Y-45111599D01*
X52678401Y-49527501D02*
X53342499Y-48863403D01*
X51466597Y-49527501D02*
X52678401Y-49527501D01*
X50802499Y-51408401D02*
X50802499Y-50191599D01*
X50143399Y-52067501D02*
X50802499Y-51408401D01*
X48926597Y-52067501D02*
X50143399Y-52067501D01*
X54006597Y-46987501D02*
X55223399Y-46987501D01*
X48262499Y-52731599D02*
X48926597Y-52067501D01*
X48262499Y-53948401D02*
X48262499Y-52731599D01*
X45722499Y-55271599D02*
X46386597Y-54607501D01*
X45722499Y-56488401D02*
X45722499Y-55271599D01*
X45063399Y-57147501D02*
X45722499Y-56488401D01*
X43846597Y-57147501D02*
X45063399Y-57147501D01*
X50802499Y-50191599D02*
X51466597Y-49527501D01*
X43182499Y-57811599D02*
X43846597Y-57147501D01*
X43182499Y-59023403D02*
X43182499Y-57811599D01*
X42518401Y-59687501D02*
X43182499Y-59023403D01*
X47603399Y-54607501D02*
X48262499Y-53948401D01*
X41306597Y-59687501D02*
X42518401Y-59687501D01*
X40642499Y-60351599D02*
X41306597Y-59687501D01*
X40642499Y-61563403D02*
X40642499Y-60351599D01*
X39978401Y-62227501D02*
X40642499Y-61563403D01*
X38766597Y-62227501D02*
X39978401Y-62227501D01*
X38102499Y-62891599D02*
X38766597Y-62227501D01*
X38102499Y-64103403D02*
X38102499Y-62891599D01*
X37438401Y-64767501D02*
X38102499Y-64103403D01*
X36221599Y-64767501D02*
X37438401Y-64767501D01*
X33679100Y-67310000D02*
X36221599Y-64767501D01*
X46386597Y-54607501D02*
X47603399Y-54607501D01*
X31750000Y-67310000D02*
X33679100Y-67310000D01*
X58405451Y-43829549D02*
X59690000Y-42545000D01*
X57164549Y-43829549D02*
X58405451Y-43829549D01*
X55882499Y-45111599D02*
X57164549Y-43829549D01*
X53342499Y-45082501D02*
X54610000Y-43815000D01*
X53342499Y-46323403D02*
X53342499Y-45082501D01*
X51466597Y-46987501D02*
X52678401Y-46987501D01*
X50802499Y-47651599D02*
X51466597Y-46987501D01*
X50802499Y-48863403D02*
X50802499Y-47651599D01*
X50138401Y-49527501D02*
X50802499Y-48863403D01*
X33684098Y-64770000D02*
X36226597Y-62227501D01*
X37443399Y-62227501D02*
X38102499Y-61568401D01*
X40642499Y-57811599D02*
X41306597Y-57147501D01*
X45722499Y-52731599D02*
X46386597Y-52067501D01*
X40642499Y-59023403D02*
X40642499Y-57811599D01*
X39978401Y-59687501D02*
X40642499Y-59023403D01*
X38766597Y-59687501D02*
X39978401Y-59687501D01*
X38102499Y-60351599D02*
X38766597Y-59687501D01*
X48262499Y-51408401D02*
X48262499Y-50191599D01*
X41306597Y-57147501D02*
X42523399Y-57147501D01*
X36226597Y-62227501D02*
X37443399Y-62227501D01*
X31750000Y-64770000D02*
X33684098Y-64770000D01*
X54610000Y-43815000D02*
X55880000Y-43815000D01*
X42523399Y-57147501D02*
X43182499Y-56488401D01*
X57150000Y-42545000D02*
X57150000Y-29845000D01*
X43182499Y-56488401D02*
X43182499Y-55271599D01*
X55880000Y-43815000D02*
X57150000Y-42545000D01*
X43182499Y-55271599D02*
X43846597Y-54607501D01*
X43846597Y-54607501D02*
X45063399Y-54607501D01*
X52678401Y-46987501D02*
X53342499Y-46323403D01*
X45063399Y-54607501D02*
X45722499Y-53948401D01*
X45722499Y-53948401D02*
X45722499Y-52731599D01*
X57150000Y-29845000D02*
X55880000Y-28575000D01*
X48262499Y-50191599D02*
X48926597Y-49527501D01*
X38102499Y-61568401D02*
X38102499Y-60351599D01*
X46386597Y-52067501D02*
X47603399Y-52067501D01*
X47603399Y-52067501D02*
X48262499Y-51408401D01*
X48926597Y-49527501D02*
X50138401Y-49527501D01*
X54610000Y-29845000D02*
X53975000Y-29210000D01*
X54610000Y-42545000D02*
X54610000Y-29845000D01*
X53340000Y-28575000D02*
X53975000Y-29210000D01*
X53342499Y-43812501D02*
X54610000Y-42545000D01*
X52101597Y-43812501D02*
X53342499Y-43812501D01*
X50802499Y-45111599D02*
X52101597Y-43812501D01*
X50143399Y-46987501D02*
X50802499Y-46328401D01*
X48926597Y-46987501D02*
X50143399Y-46987501D01*
X48262499Y-47651599D02*
X48926597Y-46987501D01*
X48262499Y-48863403D02*
X48262499Y-47651599D01*
X47598401Y-49527501D02*
X48262499Y-48863403D01*
X46386597Y-49527501D02*
X47598401Y-49527501D01*
X45722499Y-50191599D02*
X46386597Y-49527501D01*
X45722499Y-51403403D02*
X45722499Y-50191599D01*
X45058401Y-52067501D02*
X45722499Y-51403403D01*
X43846597Y-52067501D02*
X45058401Y-52067501D01*
X43180000Y-52734098D02*
X43846597Y-52067501D01*
X43180000Y-53945902D02*
X43180000Y-52734098D01*
X42518401Y-54607501D02*
X43180000Y-53945902D01*
X41306597Y-54607501D02*
X42518401Y-54607501D01*
X40642499Y-55271599D02*
X41306597Y-54607501D01*
X50802499Y-46328401D02*
X50802499Y-45111599D01*
X40642499Y-56488401D02*
X40642499Y-55271599D01*
X39983399Y-57147501D02*
X40642499Y-56488401D01*
X38766597Y-57147501D02*
X39983399Y-57147501D01*
X38102499Y-57811599D02*
X38766597Y-57147501D01*
X38102499Y-59023403D02*
X38102499Y-57811599D01*
X37438401Y-59687501D02*
X38102499Y-59023403D01*
X36221599Y-59687501D02*
X37438401Y-59687501D01*
X33679100Y-62230000D02*
X36221599Y-59687501D01*
X31750000Y-62230000D02*
X33679100Y-62230000D01*
X50800000Y-28575000D02*
X52070000Y-29845000D01*
X52070000Y-29845000D02*
X52070000Y-42545000D01*
X50800000Y-43815000D02*
X52070000Y-42545000D01*
X48262499Y-46323403D02*
X48262499Y-45111599D01*
X47598401Y-46987501D02*
X48262499Y-46323403D01*
X45722499Y-47651599D02*
X46386597Y-46987501D01*
X48262499Y-45111599D02*
X49559098Y-43815000D01*
X45722499Y-48863403D02*
X45722499Y-47651599D01*
X43846597Y-49527501D02*
X45058401Y-49527501D01*
X46386597Y-46987501D02*
X47598401Y-46987501D01*
X43182499Y-50191599D02*
X43846597Y-49527501D01*
X43182499Y-51403403D02*
X43182499Y-50191599D01*
X42518401Y-52067501D02*
X43182499Y-51403403D01*
X41306597Y-52067501D02*
X42518401Y-52067501D01*
X40642499Y-52731599D02*
X41306597Y-52067501D01*
X45058401Y-49527501D02*
X45722499Y-48863403D01*
X40642499Y-53943403D02*
X40642499Y-52731599D01*
X39978401Y-54607501D02*
X40642499Y-53943403D01*
X38766597Y-54607501D02*
X39978401Y-54607501D01*
X49559098Y-43815000D02*
X50800000Y-43815000D01*
X38102499Y-56488401D02*
X38102499Y-55271599D01*
X37443399Y-57147501D02*
X38102499Y-56488401D01*
X38102499Y-55271599D02*
X38766597Y-54607501D01*
X36226597Y-57147501D02*
X37443399Y-57147501D01*
X33684098Y-59690000D02*
X36226597Y-57147501D01*
X31750000Y-59690000D02*
X33684098Y-59690000D01*
X33684098Y-57150000D02*
X31750000Y-57150000D01*
X36226597Y-54607501D02*
X33684098Y-57150000D01*
X38102499Y-52731599D02*
X38102499Y-53948401D01*
X39978401Y-52067501D02*
X38766597Y-52067501D01*
X40642499Y-51403403D02*
X39978401Y-52067501D01*
X40642499Y-50191599D02*
X40642499Y-51403403D01*
X42523399Y-49527501D02*
X41306597Y-49527501D01*
X38102499Y-53948401D02*
X37443399Y-54607501D01*
X49530000Y-42545000D02*
X48260000Y-43815000D01*
X43846597Y-46987501D02*
X43182499Y-47651599D01*
X37443399Y-54607501D02*
X36226597Y-54607501D01*
X38766597Y-52067501D02*
X38102499Y-52731599D01*
X49530000Y-29845000D02*
X49530000Y-42545000D01*
X45063399Y-46987501D02*
X43846597Y-46987501D01*
X47019098Y-43815000D02*
X45722499Y-45111599D01*
X48260000Y-43815000D02*
X47019098Y-43815000D01*
X48260000Y-28575000D02*
X49530000Y-29845000D01*
X45722499Y-45111599D02*
X45722499Y-46328401D01*
X45722499Y-46328401D02*
X45063399Y-46987501D01*
X41306597Y-49527501D02*
X40642499Y-50191599D01*
X43182499Y-47651599D02*
X43182499Y-48868401D01*
X43182499Y-48868401D02*
X42523399Y-49527501D01*
X36226597Y-52067501D02*
X33684098Y-54610000D01*
X37438401Y-52067501D02*
X36226597Y-52067501D01*
X38102499Y-51403403D02*
X37438401Y-52067501D01*
X38102499Y-50191599D02*
X38102499Y-51403403D01*
X38766597Y-49527501D02*
X38102499Y-50191599D01*
X39978401Y-49527501D02*
X38766597Y-49527501D01*
X45720000Y-43815000D02*
X44479098Y-43815000D01*
X40642499Y-47651599D02*
X40642499Y-48863403D01*
X46990000Y-42545000D02*
X45720000Y-43815000D01*
X46990000Y-29845000D02*
X46990000Y-42545000D01*
X45720000Y-28575000D02*
X46990000Y-29845000D01*
X44479098Y-43815000D02*
X43182499Y-45111599D01*
X43182499Y-45111599D02*
X43182499Y-46323403D01*
X43182499Y-46323403D02*
X42518401Y-46987501D01*
X42518401Y-46987501D02*
X41306597Y-46987501D01*
X41306597Y-46987501D02*
X40642499Y-47651599D01*
X33684098Y-54610000D02*
X31750000Y-54610000D01*
X40642499Y-48863403D02*
X39978401Y-49527501D01*
X37438401Y-49527501D02*
X36226597Y-49527501D01*
X33684098Y-52070000D02*
X31750000Y-52070000D01*
X44450000Y-42545000D02*
X43180000Y-43815000D01*
X43180000Y-43815000D02*
X41939098Y-43815000D01*
X44450000Y-29845000D02*
X44450000Y-42545000D01*
X41939098Y-43815000D02*
X40642499Y-45111599D01*
X43180000Y-28575000D02*
X44450000Y-29845000D01*
X40642499Y-45111599D02*
X40642499Y-46323403D01*
X40642499Y-46323403D02*
X39978401Y-46987501D01*
X39978401Y-46987501D02*
X38766597Y-46987501D01*
X38766597Y-46987501D02*
X38102499Y-47651599D01*
X36226597Y-49527501D02*
X33684098Y-52070000D01*
X38102499Y-47651599D02*
X38102499Y-48863403D01*
X38102499Y-48863403D02*
X37438401Y-49527501D01*
X33684098Y-49530000D02*
X31750000Y-49530000D01*
X38102499Y-45111599D02*
X38102499Y-46323403D01*
X40640000Y-28575000D02*
X41910000Y-29845000D01*
X41910000Y-29845000D02*
X41910000Y-42545000D01*
X38102499Y-46323403D02*
X37438401Y-46987501D01*
X40640000Y-43815000D02*
X39399098Y-43815000D01*
X36226597Y-46987501D02*
X33684098Y-49530000D01*
X37438401Y-46987501D02*
X36226597Y-46987501D01*
X41910000Y-42545000D02*
X40640000Y-43815000D01*
X39399098Y-43815000D02*
X38102499Y-45111599D01*
X33684098Y-46990000D02*
X31750000Y-46990000D01*
X39370000Y-29845000D02*
X39370000Y-42545000D01*
X38100000Y-28575000D02*
X39370000Y-29845000D01*
X38100000Y-43815000D02*
X36859098Y-43815000D01*
X36859098Y-43815000D02*
X33684098Y-46990000D01*
X39370000Y-42545000D02*
X38100000Y-43815000D01*
M02*
