M48
; DRILL file {KiCad (5.1.6)-1} date 06/26/20 12:13:48
; FORMAT={-:-/ absolute / metric / decimal}
; #@! TF.CreationDate,2020-06-26T12:13:48+02:00
; #@! TF.GenerationSoftware,Kicad,Pcbnew,(5.1.6)-1
; #@! TF.FileFunction,Plated,1,4,PTH
FMAT,2
METRIC
T1C0.400
T2C0.500
T3C0.710
T4C0.750
T5C0.762
T6C1.000
T7C3.200
%
G90
G05
T1
X77.47Y-26.67
T2
X104.28Y-114.3
X104.983Y-112.603
X104.983Y-115.997
X106.68Y-111.9
X106.68Y-116.7
X108.377Y-112.603
X108.377Y-115.997
X109.08Y-114.3
X101.74Y-28.575
X102.443Y-26.878
X102.443Y-30.272
X104.14Y-26.175
X104.14Y-30.975
X105.837Y-26.878
X105.837Y-30.272
X106.54Y-28.575
X28.08Y-28.575
X28.783Y-26.878
X28.783Y-30.272
X30.48Y-26.175
X30.48Y-30.975
X32.177Y-26.878
X32.177Y-30.272
X32.88Y-28.575
X24.27Y-114.3
X24.973Y-112.603
X24.973Y-115.997
X26.67Y-111.9
X26.67Y-116.7
X28.367Y-112.603
X28.367Y-115.997
X29.07Y-114.3
T3
X35.56Y-28.575
X35.56Y-31.115
X38.1Y-28.575
X38.1Y-31.115
X40.64Y-28.575
X40.64Y-31.115
X43.18Y-28.575
X43.18Y-31.115
X45.72Y-28.575
X45.72Y-31.115
X48.26Y-28.575
X48.26Y-31.115
X50.8Y-28.575
X50.8Y-31.115
X53.34Y-28.575
X53.34Y-31.115
X55.88Y-28.575
X55.88Y-31.115
X58.42Y-28.575
X58.42Y-31.115
X60.96Y-28.575
X60.96Y-31.115
X63.5Y-28.575
X63.5Y-31.115
X66.04Y-28.575
X66.04Y-31.115
X68.58Y-28.575
X68.58Y-31.115
X71.12Y-28.575
X71.12Y-31.115
X73.66Y-28.575
X73.66Y-31.115
X76.2Y-28.575
X76.2Y-31.115
X78.74Y-28.575
X78.74Y-31.115
X81.28Y-28.575
X81.28Y-31.115
X83.82Y-28.575
X83.82Y-31.115
X86.36Y-28.575
X86.36Y-31.115
X88.9Y-28.575
X88.9Y-31.115
X91.44Y-28.575
X91.44Y-31.115
X93.98Y-28.575
X93.98Y-31.115
X96.52Y-28.575
X96.52Y-31.115
X99.06Y-28.575
X99.06Y-31.115
X35.56Y-33.655
X35.56Y-36.195
X38.1Y-33.655
X38.1Y-36.195
X40.64Y-33.655
X40.64Y-36.195
X43.18Y-33.655
X43.18Y-36.195
X45.72Y-33.655
X45.72Y-36.195
X48.26Y-33.655
X48.26Y-36.195
X50.8Y-33.655
X50.8Y-36.195
X53.34Y-33.655
X53.34Y-36.195
X55.88Y-33.655
X55.88Y-36.195
X58.42Y-33.655
X58.42Y-36.195
X60.96Y-33.655
X60.96Y-36.195
X63.5Y-33.655
X63.5Y-36.195
X66.04Y-33.655
X66.04Y-36.195
X68.58Y-33.655
X68.58Y-36.195
X71.12Y-33.655
X71.12Y-36.195
X73.66Y-33.655
X73.66Y-36.195
X76.2Y-33.655
X76.2Y-36.195
X78.74Y-33.655
X78.74Y-36.195
X81.28Y-33.655
X81.28Y-36.195
X83.82Y-33.655
X83.82Y-36.195
X86.36Y-33.655
X86.36Y-36.195
X88.9Y-33.655
X88.9Y-36.195
X91.44Y-33.655
X91.44Y-36.195
X93.98Y-33.655
X93.98Y-36.195
X96.52Y-33.655
X96.52Y-36.195
X99.06Y-33.655
X99.06Y-36.195
T4
X36.83Y-45.72
X36.83Y-48.26
X36.83Y-50.8
X36.83Y-53.34
X36.83Y-55.88
X36.83Y-58.42
X36.83Y-60.96
X36.83Y-63.5
X36.83Y-66.04
X36.83Y-68.58
X36.83Y-71.12
X36.83Y-73.66
X36.83Y-76.2
X36.83Y-78.74
X36.83Y-81.28
X36.83Y-83.82
X36.83Y-86.36
X36.83Y-88.9
X36.83Y-91.44
X36.83Y-93.98
X36.83Y-96.52
X36.83Y-99.06
X36.83Y-101.6
X36.83Y-104.14
X36.83Y-106.68
X39.37Y-45.72
X39.37Y-48.26
X39.37Y-50.8
X39.37Y-53.34
X39.37Y-55.88
X39.37Y-58.42
X39.37Y-60.96
X39.37Y-63.5
X39.37Y-66.04
X39.37Y-68.58
X39.37Y-71.12
X39.37Y-73.66
X39.37Y-76.2
X39.37Y-78.74
X39.37Y-81.28
X39.37Y-83.82
X39.37Y-86.36
X39.37Y-88.9
X39.37Y-91.44
X39.37Y-93.98
X39.37Y-96.52
X39.37Y-99.06
X39.37Y-101.6
X39.37Y-104.14
X39.37Y-106.68
X41.91Y-45.72
X41.91Y-48.26
X41.91Y-50.8
X41.91Y-53.34
X41.91Y-55.88
X41.91Y-58.42
X41.91Y-60.96
X41.91Y-63.5
X41.91Y-66.04
X41.91Y-68.58
X41.91Y-71.12
X41.91Y-73.66
X41.91Y-76.2
X41.91Y-78.74
X41.91Y-81.28
X41.91Y-83.82
X41.91Y-86.36
X41.91Y-88.9
X41.91Y-91.44
X41.91Y-93.98
X41.91Y-96.52
X41.91Y-99.06
X41.91Y-101.6
X41.91Y-104.14
X41.91Y-106.68
X44.45Y-45.72
X44.45Y-48.26
X44.45Y-50.8
X44.45Y-53.34
X44.45Y-55.88
X44.45Y-58.42
X44.45Y-60.96
X44.45Y-63.5
X44.45Y-66.04
X44.45Y-68.58
X44.45Y-71.12
X44.45Y-73.66
X44.45Y-76.2
X44.45Y-78.74
X44.45Y-81.28
X44.45Y-83.82
X44.45Y-86.36
X44.45Y-88.9
X44.45Y-91.44
X44.45Y-93.98
X44.45Y-96.52
X44.45Y-99.06
X44.45Y-101.6
X44.45Y-104.14
X44.45Y-106.68
X46.99Y-45.72
X46.99Y-48.26
X46.99Y-50.8
X46.99Y-53.34
X46.99Y-55.88
X46.99Y-58.42
X46.99Y-60.96
X46.99Y-63.5
X46.99Y-66.04
X46.99Y-68.58
X46.99Y-71.12
X46.99Y-73.66
X46.99Y-76.2
X46.99Y-78.74
X46.99Y-81.28
X46.99Y-83.82
X46.99Y-86.36
X46.99Y-88.9
X46.99Y-91.44
X46.99Y-93.98
X46.99Y-96.52
X46.99Y-99.06
X46.99Y-101.6
X46.99Y-104.14
X46.99Y-106.68
X49.53Y-45.72
X49.53Y-48.26
X49.53Y-50.8
X49.53Y-53.34
X49.53Y-55.88
X49.53Y-58.42
X49.53Y-60.96
X49.53Y-63.5
X49.53Y-66.04
X49.53Y-68.58
X49.53Y-71.12
X49.53Y-73.66
X49.53Y-76.2
X49.53Y-78.74
X49.53Y-81.28
X49.53Y-83.82
X49.53Y-86.36
X49.53Y-88.9
X49.53Y-91.44
X49.53Y-93.98
X49.53Y-96.52
X49.53Y-99.06
X49.53Y-101.6
X49.53Y-104.14
X49.53Y-106.68
X52.07Y-45.72
X52.07Y-48.26
X52.07Y-50.8
X52.07Y-53.34
X52.07Y-55.88
X52.07Y-58.42
X52.07Y-60.96
X52.07Y-63.5
X52.07Y-66.04
X52.07Y-68.58
X52.07Y-71.12
X52.07Y-73.66
X52.07Y-76.2
X52.07Y-78.74
X52.07Y-81.28
X52.07Y-83.82
X52.07Y-86.36
X52.07Y-88.9
X52.07Y-91.44
X52.07Y-93.98
X52.07Y-96.52
X52.07Y-99.06
X52.07Y-101.6
X52.07Y-104.14
X52.07Y-106.68
X54.61Y-45.72
X54.61Y-48.26
X54.61Y-50.8
X54.61Y-53.34
X54.61Y-55.88
X54.61Y-58.42
X54.61Y-60.96
X54.61Y-63.5
X54.61Y-66.04
X54.61Y-68.58
X54.61Y-71.12
X54.61Y-73.66
X54.61Y-76.2
X54.61Y-78.74
X54.61Y-81.28
X54.61Y-83.82
X54.61Y-86.36
X54.61Y-88.9
X54.61Y-91.44
X54.61Y-93.98
X54.61Y-96.52
X54.61Y-99.06
X54.61Y-101.6
X54.61Y-104.14
X54.61Y-106.68
X57.15Y-45.72
X57.15Y-48.26
X57.15Y-50.8
X57.15Y-53.34
X57.15Y-55.88
X57.15Y-68.58
X57.15Y-71.12
X57.15Y-73.66
X57.15Y-76.2
X57.15Y-78.74
X57.15Y-81.28
X57.15Y-93.98
X57.15Y-96.52
X57.15Y-99.06
X57.15Y-101.6
X57.15Y-104.14
X57.15Y-106.68
X59.69Y-45.72
X59.69Y-48.26
X59.69Y-50.8
X59.69Y-53.34
X59.69Y-55.88
X59.69Y-68.58
X59.69Y-71.12
X59.69Y-73.66
X59.69Y-76.2
X59.69Y-78.74
X59.69Y-81.28
X59.69Y-93.98
X59.69Y-96.52
X59.69Y-99.06
X59.69Y-101.6
X59.69Y-104.14
X59.69Y-106.68
X62.23Y-45.72
X62.23Y-48.26
X62.23Y-50.8
X62.23Y-53.34
X62.23Y-55.88
X62.23Y-71.12
X62.23Y-73.66
X62.23Y-76.2
X62.23Y-78.74
X62.23Y-81.28
X62.23Y-96.52
X62.23Y-99.06
X62.23Y-101.6
X62.23Y-104.14
X62.23Y-106.68
X64.77Y-45.72
X64.77Y-48.26
X64.77Y-50.8
X64.77Y-53.34
X64.77Y-55.88
X64.77Y-71.12
X64.77Y-73.66
X64.77Y-76.2
X64.77Y-78.74
X64.77Y-81.28
X64.77Y-96.52
X64.77Y-99.06
X64.77Y-101.6
X64.77Y-104.14
X64.77Y-106.68
X67.31Y-45.72
X67.31Y-48.26
X67.31Y-50.8
X67.31Y-53.34
X67.31Y-55.88
X67.31Y-71.12
X67.31Y-73.66
X67.31Y-76.2
X67.31Y-78.74
X67.31Y-81.28
X67.31Y-96.52
X67.31Y-99.06
X67.31Y-101.6
X67.31Y-104.14
X67.31Y-106.68
X69.85Y-45.72
X69.85Y-48.26
X69.85Y-50.8
X69.85Y-53.34
X69.85Y-55.88
X69.85Y-71.12
X69.85Y-73.66
X69.85Y-76.2
X69.85Y-78.74
X69.85Y-81.28
X69.85Y-96.52
X69.85Y-99.06
X69.85Y-101.6
X69.85Y-104.14
X69.85Y-106.68
X72.39Y-45.72
X72.39Y-48.26
X72.39Y-50.8
X72.39Y-53.34
X72.39Y-55.88
X72.39Y-71.12
X72.39Y-73.66
X72.39Y-76.2
X72.39Y-78.74
X72.39Y-81.28
X72.39Y-96.52
X72.39Y-99.06
X72.39Y-101.6
X72.39Y-104.14
X72.39Y-106.68
X74.93Y-45.72
X74.93Y-48.26
X74.93Y-50.8
X74.93Y-53.34
X74.93Y-55.88
X74.93Y-68.58
X74.93Y-71.12
X74.93Y-73.66
X74.93Y-76.2
X74.93Y-78.74
X74.93Y-81.28
X74.93Y-93.98
X74.93Y-96.52
X74.93Y-99.06
X74.93Y-101.6
X74.93Y-104.14
X74.93Y-106.68
X77.47Y-45.72
X77.47Y-48.26
X77.47Y-50.8
X77.47Y-53.34
X77.47Y-55.88
X77.47Y-68.58
X77.47Y-71.12
X77.47Y-73.66
X77.47Y-76.2
X77.47Y-78.74
X77.47Y-81.28
X77.47Y-93.98
X77.47Y-96.52
X77.47Y-99.06
X77.47Y-101.6
X77.47Y-104.14
X77.47Y-106.68
X80.01Y-45.72
X80.01Y-48.26
X80.01Y-50.8
X80.01Y-53.34
X80.01Y-55.88
X80.01Y-58.42
X80.01Y-60.96
X80.01Y-63.5
X80.01Y-66.04
X80.01Y-68.58
X80.01Y-71.12
X80.01Y-73.66
X80.01Y-76.2
X80.01Y-78.74
X80.01Y-81.28
X80.01Y-83.82
X80.01Y-86.36
X80.01Y-88.9
X80.01Y-91.44
X80.01Y-93.98
X80.01Y-96.52
X80.01Y-99.06
X80.01Y-101.6
X80.01Y-104.14
X80.01Y-106.68
X82.55Y-45.72
X82.55Y-48.26
X82.55Y-50.8
X82.55Y-53.34
X82.55Y-55.88
X82.55Y-58.42
X82.55Y-60.96
X82.55Y-63.5
X82.55Y-66.04
X82.55Y-68.58
X82.55Y-71.12
X82.55Y-73.66
X82.55Y-76.2
X82.55Y-78.74
X82.55Y-81.28
X82.55Y-83.82
X82.55Y-86.36
X82.55Y-88.9
X82.55Y-91.44
X82.55Y-93.98
X82.55Y-96.52
X82.55Y-99.06
X82.55Y-101.6
X82.55Y-104.14
X82.55Y-106.68
X85.09Y-45.72
X85.09Y-48.26
X85.09Y-50.8
X85.09Y-53.34
X85.09Y-55.88
X85.09Y-58.42
X85.09Y-60.96
X85.09Y-63.5
X85.09Y-66.04
X85.09Y-68.58
X85.09Y-71.12
X85.09Y-73.66
X85.09Y-76.2
X85.09Y-78.74
X85.09Y-81.28
X85.09Y-83.82
X85.09Y-86.36
X85.09Y-88.9
X85.09Y-91.44
X85.09Y-93.98
X85.09Y-96.52
X85.09Y-99.06
X85.09Y-101.6
X85.09Y-104.14
X85.09Y-106.68
X87.63Y-45.72
X87.63Y-48.26
X87.63Y-50.8
X87.63Y-53.34
X87.63Y-55.88
X87.63Y-58.42
X87.63Y-60.96
X87.63Y-63.5
X87.63Y-66.04
X87.63Y-68.58
X87.63Y-71.12
X87.63Y-73.66
X87.63Y-76.2
X87.63Y-78.74
X87.63Y-81.28
X87.63Y-83.82
X87.63Y-86.36
X87.63Y-88.9
X87.63Y-91.44
X87.63Y-93.98
X87.63Y-96.52
X87.63Y-99.06
X87.63Y-101.6
X87.63Y-104.14
X87.63Y-106.68
X90.17Y-45.72
X90.17Y-48.26
X90.17Y-50.8
X90.17Y-53.34
X90.17Y-55.88
X90.17Y-58.42
X90.17Y-60.96
X90.17Y-63.5
X90.17Y-66.04
X90.17Y-68.58
X90.17Y-71.12
X90.17Y-73.66
X90.17Y-76.2
X90.17Y-78.74
X90.17Y-81.28
X90.17Y-83.82
X90.17Y-86.36
X90.17Y-88.9
X90.17Y-91.44
X90.17Y-93.98
X90.17Y-96.52
X90.17Y-99.06
X90.17Y-101.6
X90.17Y-104.14
X90.17Y-106.68
X92.71Y-45.72
X92.71Y-48.26
X92.71Y-50.8
X92.71Y-53.34
X92.71Y-55.88
X92.71Y-58.42
X92.71Y-60.96
X92.71Y-63.5
X92.71Y-66.04
X92.71Y-68.58
X92.71Y-71.12
X92.71Y-73.66
X92.71Y-76.2
X92.71Y-78.74
X92.71Y-81.28
X92.71Y-83.82
X92.71Y-86.36
X92.71Y-88.9
X92.71Y-91.44
X92.71Y-93.98
X92.71Y-96.52
X92.71Y-99.06
X92.71Y-101.6
X92.71Y-104.14
X92.71Y-106.68
X95.25Y-45.72
X95.25Y-48.26
X95.25Y-50.8
X95.25Y-53.34
X95.25Y-55.88
X95.25Y-58.42
X95.25Y-60.96
X95.25Y-63.5
X95.25Y-66.04
X95.25Y-68.58
X95.25Y-71.12
X95.25Y-73.66
X95.25Y-76.2
X95.25Y-78.74
X95.25Y-81.28
X95.25Y-83.82
X95.25Y-86.36
X95.25Y-88.9
X95.25Y-91.44
X95.25Y-93.98
X95.25Y-96.52
X95.25Y-99.06
X95.25Y-101.6
X95.25Y-104.14
X95.25Y-106.68
X97.79Y-45.72
X97.79Y-48.26
X97.79Y-50.8
X97.79Y-53.34
X97.79Y-55.88
X97.79Y-58.42
X97.79Y-60.96
X97.79Y-63.5
X97.79Y-66.04
X97.79Y-68.58
X97.79Y-71.12
X97.79Y-73.66
X97.79Y-76.2
X97.79Y-78.74
X97.79Y-81.28
X97.79Y-83.82
X97.79Y-86.36
X97.79Y-88.9
X97.79Y-91.44
X97.79Y-93.98
X97.79Y-96.52
X97.79Y-99.06
X97.79Y-101.6
X97.79Y-104.14
X97.79Y-106.68
X57.15Y-83.82
X57.15Y-86.36
X57.15Y-88.9
X57.15Y-91.44
X59.69Y-83.82
X59.69Y-86.36
X59.69Y-88.9
X59.69Y-91.44
X74.93Y-83.82
X74.93Y-86.36
X74.93Y-88.9
X74.93Y-91.44
X77.47Y-83.82
X77.47Y-86.36
X77.47Y-88.9
X77.47Y-91.44
X57.15Y-58.42
X57.15Y-60.96
X57.15Y-63.5
X57.15Y-66.04
X59.69Y-58.42
X59.69Y-60.96
X59.69Y-63.5
X59.69Y-66.04
X74.93Y-58.42
X74.93Y-60.96
X74.93Y-63.5
X74.93Y-66.04
X77.47Y-58.42
X77.47Y-60.96
X77.47Y-63.5
X77.47Y-66.04
T5
X35.56Y-40.64
X38.1Y-40.64
X43.18Y-40.64
X45.72Y-40.64
X48.26Y-40.64
X50.8Y-40.64
X53.34Y-40.64
X55.88Y-40.64
X58.42Y-40.64
X60.96Y-40.64
X63.5Y-40.64
X66.04Y-40.64
X68.58Y-40.64
X71.12Y-40.64
X73.66Y-40.64
X76.2Y-40.64
X78.74Y-40.64
X81.28Y-40.64
X83.82Y-40.64
X86.36Y-40.64
X88.9Y-40.64
X91.44Y-40.64
X93.98Y-40.64
X96.52Y-40.64
X99.06Y-40.64
X35.56Y-111.76
X38.1Y-111.76
X40.64Y-111.76
X43.18Y-111.76
X45.72Y-111.76
X48.26Y-111.76
X50.8Y-111.76
X53.34Y-111.76
X55.88Y-111.76
X58.42Y-111.76
X60.96Y-111.76
X63.5Y-111.76
X66.04Y-111.76
X68.58Y-111.76
X71.12Y-111.76
X73.66Y-111.76
X76.2Y-111.76
X78.74Y-111.76
X81.28Y-111.76
X83.82Y-111.76
X86.36Y-111.76
X88.9Y-111.76
X91.44Y-111.76
X93.98Y-111.76
X96.52Y-111.76
X99.06Y-111.76
X31.75Y-44.45
X31.75Y-46.99
X31.75Y-49.53
X31.75Y-52.07
X31.75Y-54.61
X31.75Y-57.15
X31.75Y-59.69
X31.75Y-62.23
X31.75Y-64.77
X31.75Y-67.31
X31.75Y-69.85
X31.75Y-72.39
X31.75Y-74.93
X31.75Y-77.47
X31.75Y-80.01
X31.75Y-82.55
X31.75Y-85.09
X31.75Y-87.63
X31.75Y-90.17
X31.75Y-92.71
X31.75Y-95.25
X31.75Y-97.79
X31.75Y-100.33
X31.75Y-102.87
X31.75Y-105.41
X31.75Y-107.95
X102.87Y-44.45
X102.87Y-46.99
X102.87Y-49.53
X102.87Y-52.07
X102.87Y-54.61
X102.87Y-57.15
X102.87Y-59.69
X102.87Y-62.23
X102.87Y-64.77
X102.87Y-67.31
X102.87Y-69.85
X102.87Y-72.39
X102.87Y-74.93
X102.87Y-77.47
X102.87Y-80.01
X102.87Y-82.55
X102.87Y-85.09
X102.87Y-87.63
X102.87Y-90.17
X102.87Y-92.71
X102.87Y-95.25
X102.87Y-97.79
X102.87Y-100.33
X102.87Y-102.87
X102.87Y-105.41
X102.87Y-107.95
T6
X26.67Y-86.36
X26.67Y-88.9
X26.67Y-48.26
X26.67Y-50.8
X26.67Y-104.14
X26.67Y-106.68
X26.67Y-95.25
X26.67Y-97.79
X26.67Y-35.56
X26.67Y-38.1
X40.64Y-40.64
T7
X26.67Y-114.3
X106.68Y-114.3
X104.14Y-28.575
X30.48Y-28.575
T0
M30
