G04 #@! TF.GenerationSoftware,KiCad,Pcbnew,(5.1.6)-1*
G04 #@! TF.CreationDate,2020-06-26T13:04:23+02:00*
G04 #@! TF.ProjectId,board_zero,626f6172-645f-47a6-9572-6f2e6b696361,1.0*
G04 #@! TF.SameCoordinates,Original*
G04 #@! TF.FileFunction,Profile,NP*
%FSLAX46Y46*%
G04 Gerber Fmt 4.6, Leading zero omitted, Abs format (unit mm)*
G04 Created by KiCad (PCBNEW (5.1.6)-1) date 2020-06-26 13:04:23*
%MOMM*%
%LPD*%
G01*
G04 APERTURE LIST*
G04 #@! TA.AperFunction,Profile*
%ADD10C,0.100000*%
G04 #@! TD*
G04 APERTURE END LIST*
D10*
X78930500Y-23495000D02*
G75*
G03*
X77978000Y-24447500I0J-952500D01*
G01*
X78930500Y-23495000D02*
X110807500Y-23495000D01*
X77025500Y-25400000D02*
G75*
G03*
X77978000Y-24447500I0J952500D01*
G01*
X57658000Y-24447500D02*
G75*
G03*
X58610500Y-25400000I952500J0D01*
G01*
X58610500Y-25400000D02*
X77025500Y-25400000D01*
X22542500Y-23495000D02*
X56705500Y-23495000D01*
X57658000Y-24447500D02*
G75*
G03*
X56705500Y-23495000I-952500J0D01*
G01*
X78930500Y-119380000D02*
X110807500Y-119380000D01*
X58610500Y-117475000D02*
X77025500Y-117475000D01*
X22542500Y-119380000D02*
X56705500Y-119380000D01*
X78930500Y-119380000D02*
G75*
G02*
X77978000Y-118427500I0J952500D01*
G01*
X77025500Y-117475000D02*
G75*
G02*
X77978000Y-118427500I0J-952500D01*
G01*
X57658000Y-118427500D02*
G75*
G02*
X58610500Y-117475000I952500J0D01*
G01*
X57658000Y-118427500D02*
G75*
G02*
X56705500Y-119380000I-952500J0D01*
G01*
X110807500Y-61290200D02*
G75*
G03*
X109855000Y-62242700I0J-952500D01*
G01*
X111760000Y-24447500D02*
X111760000Y-60337700D01*
X109855000Y-62242700D02*
X109855000Y-80632300D01*
X111760000Y-82537300D02*
X111760000Y-118427500D01*
X109855000Y-80632300D02*
G75*
G03*
X110807500Y-81584800I952500J0D01*
G01*
X111760000Y-82537300D02*
G75*
G03*
X110807500Y-81584800I-952500J0D01*
G01*
X110807500Y-61290200D02*
G75*
G03*
X111760000Y-60337700I0J952500D01*
G01*
X111760000Y-118427500D02*
G75*
G02*
X110807500Y-119380000I-952500J0D01*
G01*
X110807500Y-23495000D02*
G75*
G02*
X111760000Y-24447500I0J-952500D01*
G01*
X21590000Y-82537300D02*
X21590000Y-118427500D01*
X21590000Y-24447500D02*
X21590000Y-60337700D01*
X21590000Y-24447500D02*
G75*
G02*
X22542500Y-23495000I952500J0D01*
G01*
X23495000Y-62242700D02*
X23495000Y-80632300D01*
X22542500Y-61290200D02*
G75*
G02*
X21590000Y-60337700I0J952500D01*
G01*
X22542500Y-61290200D02*
G75*
G02*
X23495000Y-62242700I0J-952500D01*
G01*
X23495000Y-80632300D02*
G75*
G02*
X22542500Y-81584800I-952500J0D01*
G01*
X21590000Y-82537300D02*
G75*
G02*
X22542500Y-81584800I952500J0D01*
G01*
X22542500Y-119380000D02*
G75*
G02*
X21590000Y-118427500I0J952500D01*
G01*
M02*
