G04 #@! TF.GenerationSoftware,KiCad,Pcbnew,(5.1.6)-1*
G04 #@! TF.CreationDate,2020-06-25T15:36:58+02:00*
G04 #@! TF.ProjectId,board_zero,626f6172-645f-47a6-9572-6f2e6b696361,1.0*
G04 #@! TF.SameCoordinates,Original*
G04 #@! TF.FileFunction,Legend,Top*
G04 #@! TF.FilePolarity,Positive*
%FSLAX46Y46*%
G04 Gerber Fmt 4.6, Leading zero omitted, Abs format (unit mm)*
G04 Created by KiCad (PCBNEW (5.1.6)-1) date 2020-06-25 15:36:58*
%MOMM*%
%LPD*%
G01*
G04 APERTURE LIST*
%ADD10C,0.200000*%
%ADD11C,0.250000*%
%ADD12C,0.120000*%
%ADD13C,0.010000*%
%ADD14C,0.150000*%
G04 APERTURE END LIST*
D10*
X24391904Y-103640000D02*
X24296666Y-103592380D01*
X24153809Y-103592380D01*
X24010952Y-103640000D01*
X23915714Y-103735238D01*
X23868095Y-103830476D01*
X23820476Y-104020952D01*
X23820476Y-104163809D01*
X23868095Y-104354285D01*
X23915714Y-104449523D01*
X24010952Y-104544761D01*
X24153809Y-104592380D01*
X24249047Y-104592380D01*
X24391904Y-104544761D01*
X24439523Y-104497142D01*
X24439523Y-104163809D01*
X24249047Y-104163809D01*
X24510952Y-106608571D02*
X23749047Y-106608571D01*
X24130000Y-106227619D02*
X24130000Y-106989523D01*
X24391904Y-94750000D02*
X24296666Y-94702380D01*
X24153809Y-94702380D01*
X24010952Y-94750000D01*
X23915714Y-94845238D01*
X23868095Y-94940476D01*
X23820476Y-95130952D01*
X23820476Y-95273809D01*
X23868095Y-95464285D01*
X23915714Y-95559523D01*
X24010952Y-95654761D01*
X24153809Y-95702380D01*
X24249047Y-95702380D01*
X24391904Y-95654761D01*
X24439523Y-95607142D01*
X24439523Y-95273809D01*
X24249047Y-95273809D01*
X24510952Y-97718571D02*
X23749047Y-97718571D01*
X24130000Y-97337619D02*
X24130000Y-98099523D01*
X24391904Y-85860000D02*
X24296666Y-85812380D01*
X24153809Y-85812380D01*
X24010952Y-85860000D01*
X23915714Y-85955238D01*
X23868095Y-86050476D01*
X23820476Y-86240952D01*
X23820476Y-86383809D01*
X23868095Y-86574285D01*
X23915714Y-86669523D01*
X24010952Y-86764761D01*
X24153809Y-86812380D01*
X24249047Y-86812380D01*
X24391904Y-86764761D01*
X24439523Y-86717142D01*
X24439523Y-86383809D01*
X24249047Y-86383809D01*
X24510952Y-88828571D02*
X23749047Y-88828571D01*
X24130000Y-88447619D02*
X24130000Y-89209523D01*
D11*
X80019285Y-115383571D02*
X80519285Y-116883571D01*
X81019285Y-115383571D01*
X81447857Y-116812142D02*
X81662142Y-116883571D01*
X82019285Y-116883571D01*
X82162142Y-116812142D01*
X82233571Y-116740714D01*
X82305000Y-116597857D01*
X82305000Y-116455000D01*
X82233571Y-116312142D01*
X82162142Y-116240714D01*
X82019285Y-116169285D01*
X81733571Y-116097857D01*
X81590714Y-116026428D01*
X81519285Y-115955000D01*
X81447857Y-115812142D01*
X81447857Y-115669285D01*
X81519285Y-115526428D01*
X81590714Y-115455000D01*
X81733571Y-115383571D01*
X82090714Y-115383571D01*
X82305000Y-115455000D01*
X82733571Y-115383571D02*
X83590714Y-115383571D01*
X83162142Y-116883571D02*
X83162142Y-115383571D01*
X84876428Y-116883571D02*
X84019285Y-116883571D01*
X84447857Y-116883571D02*
X84447857Y-115383571D01*
X84305000Y-115597857D01*
X84162142Y-115740714D01*
X84019285Y-115812142D01*
X85805000Y-115383571D02*
X85947857Y-115383571D01*
X86090714Y-115455000D01*
X86162142Y-115526428D01*
X86233571Y-115669285D01*
X86305000Y-115955000D01*
X86305000Y-116312142D01*
X86233571Y-116597857D01*
X86162142Y-116740714D01*
X86090714Y-116812142D01*
X85947857Y-116883571D01*
X85805000Y-116883571D01*
X85662142Y-116812142D01*
X85590714Y-116740714D01*
X85519285Y-116597857D01*
X85447857Y-116312142D01*
X85447857Y-115955000D01*
X85519285Y-115669285D01*
X85590714Y-115526428D01*
X85662142Y-115455000D01*
X85805000Y-115383571D01*
X87590714Y-115883571D02*
X87590714Y-116883571D01*
X87233571Y-115312142D02*
X86876428Y-116383571D01*
X87805000Y-116383571D01*
X88376428Y-116312142D02*
X89519285Y-116312142D01*
X90233571Y-116883571D02*
X90233571Y-115383571D01*
X90805000Y-115383571D01*
X90947857Y-115455000D01*
X91019285Y-115526428D01*
X91090714Y-115669285D01*
X91090714Y-115883571D01*
X91019285Y-116026428D01*
X90947857Y-116097857D01*
X90805000Y-116169285D01*
X90233571Y-116169285D01*
X91733571Y-116883571D02*
X91733571Y-115883571D01*
X91733571Y-116169285D02*
X91805000Y-116026428D01*
X91876428Y-115955000D01*
X92019285Y-115883571D01*
X92162142Y-115883571D01*
X92876428Y-116883571D02*
X92733571Y-116812142D01*
X92662142Y-116740714D01*
X92590714Y-116597857D01*
X92590714Y-116169285D01*
X92662142Y-116026428D01*
X92733571Y-115955000D01*
X92876428Y-115883571D01*
X93090714Y-115883571D01*
X93233571Y-115955000D01*
X93305000Y-116026428D01*
X93376428Y-116169285D01*
X93376428Y-116597857D01*
X93305000Y-116740714D01*
X93233571Y-116812142D01*
X93090714Y-116883571D01*
X92876428Y-116883571D01*
X93805000Y-115883571D02*
X94376428Y-115883571D01*
X94019285Y-115383571D02*
X94019285Y-116669285D01*
X94090714Y-116812142D01*
X94233571Y-116883571D01*
X94376428Y-116883571D01*
X95090714Y-116883571D02*
X94947857Y-116812142D01*
X94876428Y-116740714D01*
X94805000Y-116597857D01*
X94805000Y-116169285D01*
X94876428Y-116026428D01*
X94947857Y-115955000D01*
X95090714Y-115883571D01*
X95305000Y-115883571D01*
X95447857Y-115955000D01*
X95519285Y-116026428D01*
X95590714Y-116169285D01*
X95590714Y-116597857D01*
X95519285Y-116740714D01*
X95447857Y-116812142D01*
X95305000Y-116883571D01*
X95090714Y-116883571D01*
X97233571Y-115883571D02*
X97590714Y-116883571D01*
X97947857Y-115883571D01*
X99305000Y-116883571D02*
X98447857Y-116883571D01*
X98876428Y-116883571D02*
X98876428Y-115383571D01*
X98733571Y-115597857D01*
X98590714Y-115740714D01*
X98447857Y-115812142D01*
X99947857Y-116740714D02*
X100019285Y-116812142D01*
X99947857Y-116883571D01*
X99876428Y-116812142D01*
X99947857Y-116740714D01*
X99947857Y-116883571D01*
X100947857Y-115383571D02*
X101090714Y-115383571D01*
X101233571Y-115455000D01*
X101305000Y-115526428D01*
X101376428Y-115669285D01*
X101447857Y-115955000D01*
X101447857Y-116312142D01*
X101376428Y-116597857D01*
X101305000Y-116740714D01*
X101233571Y-116812142D01*
X101090714Y-116883571D01*
X100947857Y-116883571D01*
X100805000Y-116812142D01*
X100733571Y-116740714D01*
X100662142Y-116597857D01*
X100590714Y-116312142D01*
X100590714Y-115955000D01*
X100662142Y-115669285D01*
X100733571Y-115526428D01*
X100805000Y-115455000D01*
X100947857Y-115383571D01*
D10*
X31202380Y-110474095D02*
X31202380Y-110950285D01*
X31678571Y-110997904D01*
X31630952Y-110950285D01*
X31583333Y-110855047D01*
X31583333Y-110616952D01*
X31630952Y-110521714D01*
X31678571Y-110474095D01*
X31773809Y-110426476D01*
X32011904Y-110426476D01*
X32107142Y-110474095D01*
X32154761Y-110521714D01*
X32202380Y-110616952D01*
X32202380Y-110855047D01*
X32154761Y-110950285D01*
X32107142Y-110997904D01*
X31297619Y-110045523D02*
X31250000Y-109997904D01*
X31202380Y-109902666D01*
X31202380Y-109664571D01*
X31250000Y-109569333D01*
X31297619Y-109521714D01*
X31392857Y-109474095D01*
X31488095Y-109474095D01*
X31630952Y-109521714D01*
X32202380Y-110093142D01*
X32202380Y-109474095D01*
X101107904Y-111212380D02*
X100631714Y-111212380D01*
X100584095Y-111688571D01*
X100631714Y-111640952D01*
X100726952Y-111593333D01*
X100965047Y-111593333D01*
X101060285Y-111640952D01*
X101107904Y-111688571D01*
X101155523Y-111783809D01*
X101155523Y-112021904D01*
X101107904Y-112117142D01*
X101060285Y-112164761D01*
X100965047Y-112212380D01*
X100726952Y-112212380D01*
X100631714Y-112164761D01*
X100584095Y-112117142D01*
X102107904Y-112212380D02*
X101536476Y-112212380D01*
X101822190Y-112212380D02*
X101822190Y-111212380D01*
X101726952Y-111355238D01*
X101631714Y-111450476D01*
X101536476Y-111498095D01*
X102322380Y-42402095D02*
X102322380Y-42878285D01*
X102798571Y-42925904D01*
X102750952Y-42878285D01*
X102703333Y-42783047D01*
X102703333Y-42544952D01*
X102750952Y-42449714D01*
X102798571Y-42402095D01*
X102893809Y-42354476D01*
X103131904Y-42354476D01*
X103227142Y-42402095D01*
X103274761Y-42449714D01*
X103322380Y-42544952D01*
X103322380Y-42783047D01*
X103274761Y-42878285D01*
X103227142Y-42925904D01*
X103322380Y-41402095D02*
X103322380Y-41973523D01*
X103322380Y-41687809D02*
X102322380Y-41687809D01*
X102465238Y-41783047D01*
X102560476Y-41878285D01*
X102608095Y-41973523D01*
X101107904Y-40092380D02*
X100631714Y-40092380D01*
X100584095Y-40568571D01*
X100631714Y-40520952D01*
X100726952Y-40473333D01*
X100965047Y-40473333D01*
X101060285Y-40520952D01*
X101107904Y-40568571D01*
X101155523Y-40663809D01*
X101155523Y-40901904D01*
X101107904Y-40997142D01*
X101060285Y-41044761D01*
X100965047Y-41092380D01*
X100726952Y-41092380D01*
X100631714Y-41044761D01*
X100584095Y-40997142D01*
X101536476Y-40187619D02*
X101584095Y-40140000D01*
X101679333Y-40092380D01*
X101917428Y-40092380D01*
X102012666Y-40140000D01*
X102060285Y-40187619D01*
X102107904Y-40282857D01*
X102107904Y-40378095D01*
X102060285Y-40520952D01*
X101488857Y-41092380D01*
X102107904Y-41092380D01*
X33369285Y-40187619D02*
X33416904Y-40140000D01*
X33512142Y-40092380D01*
X33750238Y-40092380D01*
X33845476Y-40140000D01*
X33893095Y-40187619D01*
X33940714Y-40282857D01*
X33940714Y-40378095D01*
X33893095Y-40520952D01*
X33321666Y-41092380D01*
X33940714Y-41092380D01*
X31297619Y-42830714D02*
X31250000Y-42783095D01*
X31202380Y-42687857D01*
X31202380Y-42449761D01*
X31250000Y-42354523D01*
X31297619Y-42306904D01*
X31392857Y-42259285D01*
X31488095Y-42259285D01*
X31630952Y-42306904D01*
X32202380Y-42878333D01*
X32202380Y-42259285D01*
X103322380Y-109442285D02*
X103322380Y-110013714D01*
X103322380Y-109728000D02*
X102322380Y-109728000D01*
X102465238Y-109823238D01*
X102560476Y-109918476D01*
X102608095Y-110013714D01*
X33940714Y-112212380D02*
X33369285Y-112212380D01*
X33655000Y-112212380D02*
X33655000Y-111212380D01*
X33559761Y-111355238D01*
X33464523Y-111450476D01*
X33369285Y-111498095D01*
D11*
X60131428Y-115740571D02*
X60131428Y-114240571D01*
X60131428Y-114954857D02*
X60988571Y-114954857D01*
X60988571Y-115740571D02*
X60988571Y-114240571D01*
X62274285Y-115669142D02*
X62131428Y-115740571D01*
X61845714Y-115740571D01*
X61702857Y-115669142D01*
X61631428Y-115526285D01*
X61631428Y-114954857D01*
X61702857Y-114812000D01*
X61845714Y-114740571D01*
X62131428Y-114740571D01*
X62274285Y-114812000D01*
X62345714Y-114954857D01*
X62345714Y-115097714D01*
X61631428Y-115240571D01*
X63631428Y-115740571D02*
X63631428Y-114954857D01*
X63560000Y-114812000D01*
X63417142Y-114740571D01*
X63131428Y-114740571D01*
X62988571Y-114812000D01*
X63631428Y-115669142D02*
X63488571Y-115740571D01*
X63131428Y-115740571D01*
X62988571Y-115669142D01*
X62917142Y-115526285D01*
X62917142Y-115383428D01*
X62988571Y-115240571D01*
X63131428Y-115169142D01*
X63488571Y-115169142D01*
X63631428Y-115097714D01*
X64988571Y-115740571D02*
X64988571Y-114240571D01*
X64988571Y-115669142D02*
X64845714Y-115740571D01*
X64560000Y-115740571D01*
X64417142Y-115669142D01*
X64345714Y-115597714D01*
X64274285Y-115454857D01*
X64274285Y-115026285D01*
X64345714Y-114883428D01*
X64417142Y-114812000D01*
X64560000Y-114740571D01*
X64845714Y-114740571D01*
X64988571Y-114812000D01*
X66274285Y-115669142D02*
X66131428Y-115740571D01*
X65845714Y-115740571D01*
X65702857Y-115669142D01*
X65631428Y-115526285D01*
X65631428Y-114954857D01*
X65702857Y-114812000D01*
X65845714Y-114740571D01*
X66131428Y-114740571D01*
X66274285Y-114812000D01*
X66345714Y-114954857D01*
X66345714Y-115097714D01*
X65631428Y-115240571D01*
X66988571Y-115740571D02*
X66988571Y-114740571D01*
X66988571Y-115026285D02*
X67060000Y-114883428D01*
X67131428Y-114812000D01*
X67274285Y-114740571D01*
X67417142Y-114740571D01*
X69060000Y-115740571D02*
X69060000Y-114240571D01*
X69060000Y-114954857D02*
X69917142Y-114954857D01*
X69917142Y-115740571D02*
X69917142Y-114240571D01*
X71417142Y-115740571D02*
X70560000Y-115740571D01*
X70988571Y-115740571D02*
X70988571Y-114240571D01*
X70845714Y-114454857D01*
X70702857Y-114597714D01*
X70560000Y-114669142D01*
X72060000Y-115169142D02*
X73202857Y-115169142D01*
X73845714Y-115312000D02*
X74560000Y-115312000D01*
X73702857Y-115740571D02*
X74202857Y-114240571D01*
X74702857Y-115740571D01*
X106850571Y-78298571D02*
X105350571Y-78298571D01*
X106064857Y-78298571D02*
X106064857Y-77441428D01*
X106850571Y-77441428D02*
X105350571Y-77441428D01*
X106779142Y-76155714D02*
X106850571Y-76298571D01*
X106850571Y-76584285D01*
X106779142Y-76727142D01*
X106636285Y-76798571D01*
X106064857Y-76798571D01*
X105922000Y-76727142D01*
X105850571Y-76584285D01*
X105850571Y-76298571D01*
X105922000Y-76155714D01*
X106064857Y-76084285D01*
X106207714Y-76084285D01*
X106350571Y-76798571D01*
X106850571Y-74798571D02*
X106064857Y-74798571D01*
X105922000Y-74870000D01*
X105850571Y-75012857D01*
X105850571Y-75298571D01*
X105922000Y-75441428D01*
X106779142Y-74798571D02*
X106850571Y-74941428D01*
X106850571Y-75298571D01*
X106779142Y-75441428D01*
X106636285Y-75512857D01*
X106493428Y-75512857D01*
X106350571Y-75441428D01*
X106279142Y-75298571D01*
X106279142Y-74941428D01*
X106207714Y-74798571D01*
X106850571Y-73441428D02*
X105350571Y-73441428D01*
X106779142Y-73441428D02*
X106850571Y-73584285D01*
X106850571Y-73870000D01*
X106779142Y-74012857D01*
X106707714Y-74084285D01*
X106564857Y-74155714D01*
X106136285Y-74155714D01*
X105993428Y-74084285D01*
X105922000Y-74012857D01*
X105850571Y-73870000D01*
X105850571Y-73584285D01*
X105922000Y-73441428D01*
X106779142Y-72155714D02*
X106850571Y-72298571D01*
X106850571Y-72584285D01*
X106779142Y-72727142D01*
X106636285Y-72798571D01*
X106064857Y-72798571D01*
X105922000Y-72727142D01*
X105850571Y-72584285D01*
X105850571Y-72298571D01*
X105922000Y-72155714D01*
X106064857Y-72084285D01*
X106207714Y-72084285D01*
X106350571Y-72798571D01*
X106850571Y-71441428D02*
X105850571Y-71441428D01*
X106136285Y-71441428D02*
X105993428Y-71370000D01*
X105922000Y-71298571D01*
X105850571Y-71155714D01*
X105850571Y-71012857D01*
X106850571Y-69370000D02*
X105350571Y-69370000D01*
X106064857Y-69370000D02*
X106064857Y-68512857D01*
X106850571Y-68512857D02*
X105350571Y-68512857D01*
X105493428Y-67870000D02*
X105422000Y-67798571D01*
X105350571Y-67655714D01*
X105350571Y-67298571D01*
X105422000Y-67155714D01*
X105493428Y-67084285D01*
X105636285Y-67012857D01*
X105779142Y-67012857D01*
X105993428Y-67084285D01*
X106850571Y-67941428D01*
X106850571Y-67012857D01*
X106279142Y-66370000D02*
X106279142Y-65227142D01*
X106422000Y-64584285D02*
X106422000Y-63870000D01*
X106850571Y-64727142D02*
X105350571Y-64227142D01*
X106850571Y-63727142D01*
X60024285Y-44112571D02*
X60024285Y-42612571D01*
X60024285Y-43326857D02*
X60881428Y-43326857D01*
X60881428Y-44112571D02*
X60881428Y-42612571D01*
X62167142Y-44041142D02*
X62024285Y-44112571D01*
X61738571Y-44112571D01*
X61595714Y-44041142D01*
X61524285Y-43898285D01*
X61524285Y-43326857D01*
X61595714Y-43184000D01*
X61738571Y-43112571D01*
X62024285Y-43112571D01*
X62167142Y-43184000D01*
X62238571Y-43326857D01*
X62238571Y-43469714D01*
X61524285Y-43612571D01*
X63524285Y-44112571D02*
X63524285Y-43326857D01*
X63452857Y-43184000D01*
X63310000Y-43112571D01*
X63024285Y-43112571D01*
X62881428Y-43184000D01*
X63524285Y-44041142D02*
X63381428Y-44112571D01*
X63024285Y-44112571D01*
X62881428Y-44041142D01*
X62810000Y-43898285D01*
X62810000Y-43755428D01*
X62881428Y-43612571D01*
X63024285Y-43541142D01*
X63381428Y-43541142D01*
X63524285Y-43469714D01*
X64881428Y-44112571D02*
X64881428Y-42612571D01*
X64881428Y-44041142D02*
X64738571Y-44112571D01*
X64452857Y-44112571D01*
X64310000Y-44041142D01*
X64238571Y-43969714D01*
X64167142Y-43826857D01*
X64167142Y-43398285D01*
X64238571Y-43255428D01*
X64310000Y-43184000D01*
X64452857Y-43112571D01*
X64738571Y-43112571D01*
X64881428Y-43184000D01*
X66167142Y-44041142D02*
X66024285Y-44112571D01*
X65738571Y-44112571D01*
X65595714Y-44041142D01*
X65524285Y-43898285D01*
X65524285Y-43326857D01*
X65595714Y-43184000D01*
X65738571Y-43112571D01*
X66024285Y-43112571D01*
X66167142Y-43184000D01*
X66238571Y-43326857D01*
X66238571Y-43469714D01*
X65524285Y-43612571D01*
X66881428Y-44112571D02*
X66881428Y-43112571D01*
X66881428Y-43398285D02*
X66952857Y-43255428D01*
X67024285Y-43184000D01*
X67167142Y-43112571D01*
X67310000Y-43112571D01*
X68952857Y-44112571D02*
X68952857Y-42612571D01*
X68952857Y-43326857D02*
X69810000Y-43326857D01*
X69810000Y-44112571D02*
X69810000Y-42612571D01*
X71310000Y-44112571D02*
X70452857Y-44112571D01*
X70881428Y-44112571D02*
X70881428Y-42612571D01*
X70738571Y-42826857D01*
X70595714Y-42969714D01*
X70452857Y-43041142D01*
X71952857Y-43541142D02*
X73095714Y-43541142D01*
X74310000Y-43326857D02*
X74524285Y-43398285D01*
X74595714Y-43469714D01*
X74667142Y-43612571D01*
X74667142Y-43826857D01*
X74595714Y-43969714D01*
X74524285Y-44041142D01*
X74381428Y-44112571D01*
X73810000Y-44112571D01*
X73810000Y-42612571D01*
X74310000Y-42612571D01*
X74452857Y-42684000D01*
X74524285Y-42755428D01*
X74595714Y-42898285D01*
X74595714Y-43041142D01*
X74524285Y-43184000D01*
X74452857Y-43255428D01*
X74310000Y-43326857D01*
X73810000Y-43326857D01*
X29126571Y-78405714D02*
X27626571Y-78405714D01*
X28340857Y-78405714D02*
X28340857Y-77548571D01*
X29126571Y-77548571D02*
X27626571Y-77548571D01*
X29055142Y-76262857D02*
X29126571Y-76405714D01*
X29126571Y-76691428D01*
X29055142Y-76834285D01*
X28912285Y-76905714D01*
X28340857Y-76905714D01*
X28198000Y-76834285D01*
X28126571Y-76691428D01*
X28126571Y-76405714D01*
X28198000Y-76262857D01*
X28340857Y-76191428D01*
X28483714Y-76191428D01*
X28626571Y-76905714D01*
X29126571Y-74905714D02*
X28340857Y-74905714D01*
X28198000Y-74977142D01*
X28126571Y-75120000D01*
X28126571Y-75405714D01*
X28198000Y-75548571D01*
X29055142Y-74905714D02*
X29126571Y-75048571D01*
X29126571Y-75405714D01*
X29055142Y-75548571D01*
X28912285Y-75620000D01*
X28769428Y-75620000D01*
X28626571Y-75548571D01*
X28555142Y-75405714D01*
X28555142Y-75048571D01*
X28483714Y-74905714D01*
X29126571Y-73548571D02*
X27626571Y-73548571D01*
X29055142Y-73548571D02*
X29126571Y-73691428D01*
X29126571Y-73977142D01*
X29055142Y-74120000D01*
X28983714Y-74191428D01*
X28840857Y-74262857D01*
X28412285Y-74262857D01*
X28269428Y-74191428D01*
X28198000Y-74120000D01*
X28126571Y-73977142D01*
X28126571Y-73691428D01*
X28198000Y-73548571D01*
X29055142Y-72262857D02*
X29126571Y-72405714D01*
X29126571Y-72691428D01*
X29055142Y-72834285D01*
X28912285Y-72905714D01*
X28340857Y-72905714D01*
X28198000Y-72834285D01*
X28126571Y-72691428D01*
X28126571Y-72405714D01*
X28198000Y-72262857D01*
X28340857Y-72191428D01*
X28483714Y-72191428D01*
X28626571Y-72905714D01*
X29126571Y-71548571D02*
X28126571Y-71548571D01*
X28412285Y-71548571D02*
X28269428Y-71477142D01*
X28198000Y-71405714D01*
X28126571Y-71262857D01*
X28126571Y-71120000D01*
X29126571Y-69477142D02*
X27626571Y-69477142D01*
X28340857Y-69477142D02*
X28340857Y-68620000D01*
X29126571Y-68620000D02*
X27626571Y-68620000D01*
X27769428Y-67977142D02*
X27698000Y-67905714D01*
X27626571Y-67762857D01*
X27626571Y-67405714D01*
X27698000Y-67262857D01*
X27769428Y-67191428D01*
X27912285Y-67120000D01*
X28055142Y-67120000D01*
X28269428Y-67191428D01*
X29126571Y-68048571D01*
X29126571Y-67120000D01*
X28555142Y-66477142D02*
X28555142Y-65334285D01*
X28340857Y-64120000D02*
X28412285Y-63905714D01*
X28483714Y-63834285D01*
X28626571Y-63762857D01*
X28840857Y-63762857D01*
X28983714Y-63834285D01*
X29055142Y-63905714D01*
X29126571Y-64048571D01*
X29126571Y-64620000D01*
X27626571Y-64620000D01*
X27626571Y-64120000D01*
X27698000Y-63977142D01*
X27769428Y-63905714D01*
X27912285Y-63834285D01*
X28055142Y-63834285D01*
X28198000Y-63905714D01*
X28269428Y-63977142D01*
X28340857Y-64120000D01*
X28340857Y-64620000D01*
D10*
X100440000Y-32275000D02*
X104140000Y-36830000D01*
X104799047Y-34732380D02*
X104799047Y-33732380D01*
X104799047Y-34208571D02*
X105370476Y-34208571D01*
X105370476Y-34732380D02*
X105370476Y-33732380D01*
X105799047Y-33827619D02*
X105846666Y-33780000D01*
X105941904Y-33732380D01*
X106180000Y-33732380D01*
X106275238Y-33780000D01*
X106322857Y-33827619D01*
X106370476Y-33922857D01*
X106370476Y-34018095D01*
X106322857Y-34160952D01*
X105751428Y-34732380D01*
X106370476Y-34732380D01*
X106799047Y-34351428D02*
X107560952Y-34351428D01*
X108370476Y-34208571D02*
X108513333Y-34256190D01*
X108560952Y-34303809D01*
X108608571Y-34399047D01*
X108608571Y-34541904D01*
X108560952Y-34637142D01*
X108513333Y-34684761D01*
X108418095Y-34732380D01*
X108037142Y-34732380D01*
X108037142Y-33732380D01*
X108370476Y-33732380D01*
X108465714Y-33780000D01*
X108513333Y-33827619D01*
X108560952Y-33922857D01*
X108560952Y-34018095D01*
X108513333Y-34113333D01*
X108465714Y-34160952D01*
X108370476Y-34208571D01*
X108037142Y-34208571D01*
X104870476Y-36432380D02*
X104870476Y-35432380D01*
X104870476Y-35908571D02*
X105441904Y-35908571D01*
X105441904Y-36432380D02*
X105441904Y-35432380D01*
X105870476Y-35527619D02*
X105918095Y-35480000D01*
X106013333Y-35432380D01*
X106251428Y-35432380D01*
X106346666Y-35480000D01*
X106394285Y-35527619D01*
X106441904Y-35622857D01*
X106441904Y-35718095D01*
X106394285Y-35860952D01*
X105822857Y-36432380D01*
X106441904Y-36432380D01*
X106870476Y-36051428D02*
X107632380Y-36051428D01*
X108060952Y-36146666D02*
X108537142Y-36146666D01*
X107965714Y-36432380D02*
X108299047Y-35432380D01*
X108632380Y-36432380D01*
X104799047Y-38132380D02*
X104799047Y-37132380D01*
X104799047Y-37608571D02*
X105370476Y-37608571D01*
X105370476Y-38132380D02*
X105370476Y-37132380D01*
X106370476Y-38132380D02*
X105799047Y-38132380D01*
X106084761Y-38132380D02*
X106084761Y-37132380D01*
X105989523Y-37275238D01*
X105894285Y-37370476D01*
X105799047Y-37418095D01*
X106799047Y-37751428D02*
X107560952Y-37751428D01*
X108370476Y-37608571D02*
X108513333Y-37656190D01*
X108560952Y-37703809D01*
X108608571Y-37799047D01*
X108608571Y-37941904D01*
X108560952Y-38037142D01*
X108513333Y-38084761D01*
X108418095Y-38132380D01*
X108037142Y-38132380D01*
X108037142Y-37132380D01*
X108370476Y-37132380D01*
X108465714Y-37180000D01*
X108513333Y-37227619D01*
X108560952Y-37322857D01*
X108560952Y-37418095D01*
X108513333Y-37513333D01*
X108465714Y-37560952D01*
X108370476Y-37608571D01*
X108037142Y-37608571D01*
X104870476Y-39832380D02*
X104870476Y-38832380D01*
X104870476Y-39308571D02*
X105441904Y-39308571D01*
X105441904Y-39832380D02*
X105441904Y-38832380D01*
X106441904Y-39832380D02*
X105870476Y-39832380D01*
X106156190Y-39832380D02*
X106156190Y-38832380D01*
X106060952Y-38975238D01*
X105965714Y-39070476D01*
X105870476Y-39118095D01*
X106870476Y-39451428D02*
X107632380Y-39451428D01*
X108060952Y-39546666D02*
X108537142Y-39546666D01*
X107965714Y-39832380D02*
X108299047Y-38832380D01*
X108632380Y-39832380D01*
X104140000Y-36830000D02*
X109220000Y-36830000D01*
X109220000Y-33020000D02*
X104140000Y-33020000D01*
X109220000Y-40640000D02*
X109220000Y-33020000D01*
X104140000Y-40640000D02*
X109220000Y-40640000D01*
X104140000Y-33020000D02*
X104140000Y-40640000D01*
X24439523Y-48712380D02*
X23963333Y-48712380D01*
X23963333Y-47712380D01*
X23844285Y-51252380D02*
X23844285Y-50252380D01*
X23844285Y-50728571D02*
X24415714Y-50728571D01*
X24415714Y-51252380D02*
X24415714Y-50252380D01*
X23844285Y-38552380D02*
X23844285Y-37552380D01*
X23844285Y-38028571D02*
X24415714Y-38028571D01*
X24415714Y-38552380D02*
X24415714Y-37552380D01*
X24439523Y-36012380D02*
X23963333Y-36012380D01*
X23963333Y-35012380D01*
X25340000Y-102810000D02*
X26670000Y-102810000D01*
X25340000Y-104140000D02*
X25340000Y-102810000D01*
X25340000Y-105410000D02*
X28000000Y-105410000D01*
X28000000Y-105410000D02*
X28000000Y-108010000D01*
X25340000Y-105410000D02*
X25340000Y-108010000D01*
X25340000Y-108010000D02*
X28000000Y-108010000D01*
X25340000Y-93920000D02*
X26670000Y-93920000D01*
X25340000Y-95250000D02*
X25340000Y-93920000D01*
X25340000Y-96520000D02*
X28000000Y-96520000D01*
X28000000Y-96520000D02*
X28000000Y-99120000D01*
X25340000Y-96520000D02*
X25340000Y-99120000D01*
X25340000Y-99120000D02*
X28000000Y-99120000D01*
D12*
X26928578Y-55320000D02*
X26411422Y-55320000D01*
X26928578Y-53900000D02*
X26411422Y-53900000D01*
X26928578Y-42620000D02*
X26411422Y-42620000D01*
X26928578Y-41200000D02*
X26411422Y-41200000D01*
D10*
X25340000Y-85030000D02*
X26670000Y-85030000D01*
X25340000Y-86360000D02*
X25340000Y-85030000D01*
X25340000Y-87630000D02*
X28000000Y-87630000D01*
X28000000Y-87630000D02*
X28000000Y-90230000D01*
X25340000Y-87630000D02*
X25340000Y-90230000D01*
X25340000Y-90230000D02*
X28000000Y-90230000D01*
X25340000Y-34230000D02*
X26670000Y-34230000D01*
X25340000Y-35560000D02*
X25340000Y-34230000D01*
X25340000Y-36830000D02*
X28000000Y-36830000D01*
X28000000Y-36830000D02*
X28000000Y-39430000D01*
X25340000Y-36830000D02*
X25340000Y-39430000D01*
X25340000Y-39430000D02*
X28000000Y-39430000D01*
X25340000Y-46930000D02*
X26670000Y-46930000D01*
X25340000Y-48260000D02*
X25340000Y-46930000D01*
X25340000Y-49530000D02*
X28000000Y-49530000D01*
X28000000Y-49530000D02*
X28000000Y-52130000D01*
X25340000Y-49530000D02*
X25340000Y-52130000D01*
X25340000Y-52130000D02*
X28000000Y-52130000D01*
D13*
G36*
X105630271Y-51995394D02*
G01*
X105630710Y-51922739D01*
X105631490Y-51864484D01*
X105632652Y-51819362D01*
X105634233Y-51786106D01*
X105636275Y-51763452D01*
X105638817Y-51750132D01*
X105640717Y-51745932D01*
X105648221Y-51741255D01*
X105665176Y-51735421D01*
X105692699Y-51728182D01*
X105731904Y-51719292D01*
X105783909Y-51708505D01*
X105849830Y-51695574D01*
X105930783Y-51680253D01*
X105977267Y-51671615D01*
X106070143Y-51654218D01*
X106147044Y-51639317D01*
X106208721Y-51626747D01*
X106255921Y-51616344D01*
X106289395Y-51607945D01*
X106309890Y-51601386D01*
X106317552Y-51597251D01*
X106324054Y-51586281D01*
X106335733Y-51562048D01*
X106351556Y-51527041D01*
X106370487Y-51483750D01*
X106391492Y-51434664D01*
X106413535Y-51382272D01*
X106435582Y-51329064D01*
X106456598Y-51277529D01*
X106475547Y-51230156D01*
X106491395Y-51189434D01*
X106503107Y-51157853D01*
X106509648Y-51137902D01*
X106510667Y-51132757D01*
X106506019Y-51123316D01*
X106492760Y-51101514D01*
X106471917Y-51068913D01*
X106444513Y-51027075D01*
X106411577Y-50977562D01*
X106374134Y-50921937D01*
X106333209Y-50861761D01*
X106320167Y-50842705D01*
X106278436Y-50781645D01*
X106239863Y-50724862D01*
X106205470Y-50673886D01*
X106176280Y-50630247D01*
X106153313Y-50595476D01*
X106137592Y-50571102D01*
X106130139Y-50558657D01*
X106129667Y-50557452D01*
X106135491Y-50548903D01*
X106151921Y-50530333D01*
X106177396Y-50503276D01*
X106210355Y-50469264D01*
X106249235Y-50429831D01*
X106292475Y-50386510D01*
X106338514Y-50340835D01*
X106385790Y-50294338D01*
X106432742Y-50248552D01*
X106477808Y-50205012D01*
X106519425Y-50165250D01*
X106556034Y-50130799D01*
X106586072Y-50103192D01*
X106607977Y-50083964D01*
X106620188Y-50074647D01*
X106622015Y-50074041D01*
X106631356Y-50079735D01*
X106653041Y-50093960D01*
X106685474Y-50115640D01*
X106727056Y-50143694D01*
X106776191Y-50177046D01*
X106831281Y-50214616D01*
X106890728Y-50255328D01*
X106899771Y-50261534D01*
X106959860Y-50302513D01*
X107016035Y-50340291D01*
X107066669Y-50373813D01*
X107110139Y-50402028D01*
X107144819Y-50423883D01*
X107169084Y-50438324D01*
X107181311Y-50444299D01*
X107181987Y-50444400D01*
X107194601Y-50441089D01*
X107220195Y-50431858D01*
X107256316Y-50417755D01*
X107300513Y-50399834D01*
X107350334Y-50379142D01*
X107403327Y-50356732D01*
X107457040Y-50333654D01*
X107509021Y-50310958D01*
X107556817Y-50289695D01*
X107597978Y-50270916D01*
X107630051Y-50255670D01*
X107650584Y-50245009D01*
X107656536Y-50241078D01*
X107661464Y-50233332D01*
X107667185Y-50217870D01*
X107673997Y-50193367D01*
X107682197Y-50158497D01*
X107692082Y-50111937D01*
X107703951Y-50052360D01*
X107718101Y-49978443D01*
X107730907Y-49910012D01*
X107747373Y-49822346D01*
X107761329Y-49750269D01*
X107773025Y-49692663D01*
X107782708Y-49648409D01*
X107790629Y-49616391D01*
X107797036Y-49595490D01*
X107802177Y-49584588D01*
X107803739Y-49582916D01*
X107811766Y-49580035D01*
X107828320Y-49577679D01*
X107854667Y-49575809D01*
X107892074Y-49574384D01*
X107941806Y-49573365D01*
X108005130Y-49572713D01*
X108083311Y-49572388D01*
X108141514Y-49572333D01*
X108225265Y-49572403D01*
X108293683Y-49572653D01*
X108348367Y-49573147D01*
X108390916Y-49573949D01*
X108422930Y-49575120D01*
X108446007Y-49576726D01*
X108461748Y-49578827D01*
X108471751Y-49581489D01*
X108477616Y-49584773D01*
X108478562Y-49585638D01*
X108489160Y-49598195D01*
X108491867Y-49603873D01*
X108493358Y-49613047D01*
X108497603Y-49636976D01*
X108504255Y-49673767D01*
X108512969Y-49721528D01*
X108523400Y-49778366D01*
X108535203Y-49842389D01*
X108547751Y-49910185D01*
X108564558Y-49999507D01*
X108578909Y-50072846D01*
X108590968Y-50130951D01*
X108600903Y-50174568D01*
X108608877Y-50204444D01*
X108615058Y-50221327D01*
X108617601Y-50225202D01*
X108628871Y-50231722D01*
X108653558Y-50243295D01*
X108689250Y-50258955D01*
X108733539Y-50277735D01*
X108784015Y-50298666D01*
X108838266Y-50320782D01*
X108893884Y-50343114D01*
X108948457Y-50364696D01*
X108999577Y-50384559D01*
X109044832Y-50401736D01*
X109081813Y-50415261D01*
X109108110Y-50424164D01*
X109121313Y-50427480D01*
X109121487Y-50427483D01*
X109131888Y-50422824D01*
X109154526Y-50409575D01*
X109187734Y-50388810D01*
X109229846Y-50361606D01*
X109279197Y-50329039D01*
X109334120Y-50292184D01*
X109392252Y-50252598D01*
X109450957Y-50212486D01*
X109505594Y-50175438D01*
X109554518Y-50142549D01*
X109596080Y-50114914D01*
X109628634Y-50093629D01*
X109650532Y-50079788D01*
X109660098Y-50074495D01*
X109669403Y-50079602D01*
X109689685Y-50096263D01*
X109720220Y-50123799D01*
X109760278Y-50161527D01*
X109809134Y-50208767D01*
X109866060Y-50264837D01*
X109909076Y-50307729D01*
X109969633Y-50368532D01*
X110019113Y-50418616D01*
X110058538Y-50459113D01*
X110088930Y-50491152D01*
X110111312Y-50515861D01*
X110126705Y-50534371D01*
X110136132Y-50547811D01*
X110140616Y-50557310D01*
X110141177Y-50563998D01*
X110141148Y-50564149D01*
X110135506Y-50575696D01*
X110121334Y-50599358D01*
X110099787Y-50633356D01*
X110072021Y-50675915D01*
X110039190Y-50725259D01*
X110002449Y-50779610D01*
X109974231Y-50820836D01*
X109935285Y-50877540D01*
X109899188Y-50930286D01*
X109867123Y-50977331D01*
X109840272Y-51016931D01*
X109819820Y-51047344D01*
X109806948Y-51066824D01*
X109803033Y-51073114D01*
X109800886Y-51079664D01*
X109801309Y-51088688D01*
X109805101Y-51101982D01*
X109813064Y-51121343D01*
X109825997Y-51148570D01*
X109844701Y-51185458D01*
X109869976Y-51233805D01*
X109899016Y-51288622D01*
X109913393Y-51316810D01*
X109920123Y-51334353D01*
X109920136Y-51345207D01*
X109914365Y-51353328D01*
X109914267Y-51353422D01*
X109904192Y-51358883D01*
X109879999Y-51370037D01*
X109843252Y-51386240D01*
X109795518Y-51406845D01*
X109738361Y-51431204D01*
X109673347Y-51458671D01*
X109602041Y-51488601D01*
X109526009Y-51520345D01*
X109446815Y-51553259D01*
X109366026Y-51586694D01*
X109285207Y-51620006D01*
X109205923Y-51652546D01*
X109129739Y-51683669D01*
X109058221Y-51712728D01*
X108992934Y-51739077D01*
X108935444Y-51762068D01*
X108887316Y-51781056D01*
X108850114Y-51795394D01*
X108825406Y-51804435D01*
X108814799Y-51807533D01*
X108799509Y-51800165D01*
X108780325Y-51777614D01*
X108768098Y-51758850D01*
X108699816Y-51661326D01*
X108623217Y-51577930D01*
X108538861Y-51509019D01*
X108447308Y-51454950D01*
X108349118Y-51416082D01*
X108244853Y-51392773D01*
X108185272Y-51386723D01*
X108076432Y-51388275D01*
X107971877Y-51405736D01*
X107872900Y-51438349D01*
X107780793Y-51485355D01*
X107696847Y-51545998D01*
X107622355Y-51619519D01*
X107558609Y-51705161D01*
X107518139Y-51777900D01*
X107484007Y-51857581D01*
X107461892Y-51933320D01*
X107450367Y-52011474D01*
X107447896Y-52091166D01*
X107457373Y-52199167D01*
X107482514Y-52302105D01*
X107522473Y-52398667D01*
X107576399Y-52487539D01*
X107643446Y-52567408D01*
X107722764Y-52636958D01*
X107813505Y-52694878D01*
X107849327Y-52712874D01*
X107909841Y-52739016D01*
X107964856Y-52757183D01*
X108019963Y-52768544D01*
X108080756Y-52774269D01*
X108148967Y-52775552D01*
X108199536Y-52774746D01*
X108238593Y-52772503D01*
X108271538Y-52768150D01*
X108303776Y-52761015D01*
X108333603Y-52752577D01*
X108426894Y-52718463D01*
X108510664Y-52674343D01*
X108586972Y-52618629D01*
X108657878Y-52549734D01*
X108725443Y-52466070D01*
X108749216Y-52432218D01*
X108770857Y-52401369D01*
X108789880Y-52376093D01*
X108803832Y-52359546D01*
X108809368Y-52354804D01*
X108819379Y-52356995D01*
X108843100Y-52365017D01*
X108878632Y-52378141D01*
X108924073Y-52395641D01*
X108977523Y-52416786D01*
X109037081Y-52440850D01*
X109081185Y-52458957D01*
X109157143Y-52490329D01*
X109244082Y-52526216D01*
X109337328Y-52564690D01*
X109432203Y-52603822D01*
X109524031Y-52641682D01*
X109608135Y-52676340D01*
X109628432Y-52684702D01*
X109713505Y-52720086D01*
X109784316Y-52750274D01*
X109840548Y-52775122D01*
X109881887Y-52794486D01*
X109908018Y-52808224D01*
X109918625Y-52816192D01*
X109918790Y-52816564D01*
X109916580Y-52829328D01*
X109906741Y-52854512D01*
X109890241Y-52889949D01*
X109868047Y-52933468D01*
X109859607Y-52949290D01*
X109837869Y-52990073D01*
X109819306Y-53025746D01*
X109805288Y-53053608D01*
X109797185Y-53070956D01*
X109795733Y-53075218D01*
X109800365Y-53083667D01*
X109813545Y-53104442D01*
X109834202Y-53135934D01*
X109861262Y-53176535D01*
X109893655Y-53224635D01*
X109930308Y-53278627D01*
X109969300Y-53335663D01*
X110009202Y-53394308D01*
X110045872Y-53449107D01*
X110078226Y-53498374D01*
X110105184Y-53540422D01*
X110125663Y-53573565D01*
X110138582Y-53596117D01*
X110142867Y-53606229D01*
X110136657Y-53617688D01*
X110118053Y-53640606D01*
X110087089Y-53674945D01*
X110043802Y-53720665D01*
X109988228Y-53777729D01*
X109920403Y-53846097D01*
X109912093Y-53854408D01*
X109843985Y-53922020D01*
X109786409Y-53978191D01*
X109739559Y-54022738D01*
X109703633Y-54055481D01*
X109678824Y-54076237D01*
X109665329Y-54084825D01*
X109664018Y-54085066D01*
X109653248Y-54080408D01*
X109630268Y-54067153D01*
X109596763Y-54046384D01*
X109554418Y-54019182D01*
X109504916Y-53986628D01*
X109449944Y-53949806D01*
X109393670Y-53911500D01*
X109328639Y-53867262D01*
X109270075Y-53828151D01*
X109219290Y-53795003D01*
X109177593Y-53768651D01*
X109146295Y-53749930D01*
X109126706Y-53739675D01*
X109121111Y-53737933D01*
X109107571Y-53741071D01*
X109080930Y-53749838D01*
X109043616Y-53763261D01*
X108998053Y-53780370D01*
X108946668Y-53800193D01*
X108891888Y-53821758D01*
X108836140Y-53844093D01*
X108781848Y-53866228D01*
X108731440Y-53887191D01*
X108687341Y-53906010D01*
X108651979Y-53921714D01*
X108627779Y-53933331D01*
X108617412Y-53939622D01*
X108612138Y-53949954D01*
X108605257Y-53972398D01*
X108596590Y-54007772D01*
X108585955Y-54056895D01*
X108573172Y-54120587D01*
X108558061Y-54199665D01*
X108547102Y-54258633D01*
X108531979Y-54340119D01*
X108519373Y-54406489D01*
X108508922Y-54459316D01*
X108500263Y-54500173D01*
X108493036Y-54530630D01*
X108486878Y-54552260D01*
X108481427Y-54566635D01*
X108476322Y-54575327D01*
X108473535Y-54578250D01*
X108467889Y-54582077D01*
X108459733Y-54585187D01*
X108447399Y-54587654D01*
X108429220Y-54589550D01*
X108403529Y-54590949D01*
X108368656Y-54591925D01*
X108322936Y-54592551D01*
X108264699Y-54592900D01*
X108192278Y-54593046D01*
X108136947Y-54593066D01*
X108049284Y-54592927D01*
X107977279Y-54592480D01*
X107919658Y-54591686D01*
X107875148Y-54590504D01*
X107842476Y-54588894D01*
X107820368Y-54586815D01*
X107807550Y-54584227D01*
X107803879Y-54582483D01*
X107799042Y-54574548D01*
X107792987Y-54556582D01*
X107785474Y-54527492D01*
X107776260Y-54486185D01*
X107765103Y-54431568D01*
X107751759Y-54362547D01*
X107735988Y-54278030D01*
X107733977Y-54267100D01*
X107720888Y-54196527D01*
X107708408Y-54130492D01*
X107696941Y-54071026D01*
X107686887Y-54020160D01*
X107678648Y-53979927D01*
X107672625Y-53952357D01*
X107669281Y-53939641D01*
X107665040Y-53932289D01*
X107656852Y-53924417D01*
X107643044Y-53915173D01*
X107621940Y-53903705D01*
X107591865Y-53889161D01*
X107551145Y-53870688D01*
X107498104Y-53847435D01*
X107432096Y-53818991D01*
X107373109Y-53793987D01*
X107318364Y-53771338D01*
X107270011Y-53751889D01*
X107230200Y-53736485D01*
X107201081Y-53725973D01*
X107184803Y-53721198D01*
X107183030Y-53721000D01*
X107170179Y-53725907D01*
X107144397Y-53740307D01*
X107106436Y-53763721D01*
X107057050Y-53795667D01*
X106996991Y-53835664D01*
X106927012Y-53883233D01*
X106902182Y-53900295D01*
X106842549Y-53941077D01*
X106786594Y-53978777D01*
X106736002Y-54012302D01*
X106692462Y-54040558D01*
X106657657Y-54062451D01*
X106633276Y-54076889D01*
X106621003Y-54082777D01*
X106620733Y-54082828D01*
X106613896Y-54082233D01*
X106604509Y-54077939D01*
X106591431Y-54068909D01*
X106573521Y-54054106D01*
X106549636Y-54032493D01*
X106518635Y-54003032D01*
X106479377Y-53964687D01*
X106430719Y-53916421D01*
X106371521Y-53857196D01*
X106363473Y-53849120D01*
X106295166Y-53780158D01*
X106239034Y-53722587D01*
X106194898Y-53676214D01*
X106162581Y-53640848D01*
X106141905Y-53616296D01*
X106132691Y-53602367D01*
X106132239Y-53599508D01*
X106137984Y-53589911D01*
X106152282Y-53567968D01*
X106174063Y-53535268D01*
X106202257Y-53493398D01*
X106235793Y-53443946D01*
X106273603Y-53388500D01*
X106314615Y-53328648D01*
X106323884Y-53315161D01*
X106365295Y-53254608D01*
X106403519Y-53198102D01*
X106437515Y-53147225D01*
X106466244Y-53103562D01*
X106488666Y-53068697D01*
X106503739Y-53044214D01*
X106510425Y-53031697D01*
X106510667Y-53030693D01*
X106507567Y-53019533D01*
X106498864Y-52995067D01*
X106485451Y-52959626D01*
X106468221Y-52915540D01*
X106448066Y-52865142D01*
X106433657Y-52829703D01*
X106404331Y-52758070D01*
X106380688Y-52700525D01*
X106362000Y-52655480D01*
X106347543Y-52621348D01*
X106336590Y-52596543D01*
X106328415Y-52579477D01*
X106322293Y-52568564D01*
X106317496Y-52562217D01*
X106313300Y-52558849D01*
X106308978Y-52556873D01*
X106308801Y-52556804D01*
X106298314Y-52554340D01*
X106273425Y-52549211D01*
X106236384Y-52541845D01*
X106189438Y-52532667D01*
X106134836Y-52522105D01*
X106074824Y-52510586D01*
X106011652Y-52498535D01*
X105947567Y-52486379D01*
X105884818Y-52474546D01*
X105825652Y-52463461D01*
X105772317Y-52453552D01*
X105727062Y-52445245D01*
X105692135Y-52438967D01*
X105669782Y-52435144D01*
X105662488Y-52434141D01*
X105652579Y-52428760D01*
X105643438Y-52420762D01*
X105639999Y-52415634D01*
X105637198Y-52406742D01*
X105634971Y-52392487D01*
X105633255Y-52371269D01*
X105631988Y-52341489D01*
X105631105Y-52301547D01*
X105630545Y-52249844D01*
X105630243Y-52184782D01*
X105630137Y-52104760D01*
X105630134Y-52083713D01*
X105630271Y-51995394D01*
G37*
X105630271Y-51995394D02*
X105630710Y-51922739D01*
X105631490Y-51864484D01*
X105632652Y-51819362D01*
X105634233Y-51786106D01*
X105636275Y-51763452D01*
X105638817Y-51750132D01*
X105640717Y-51745932D01*
X105648221Y-51741255D01*
X105665176Y-51735421D01*
X105692699Y-51728182D01*
X105731904Y-51719292D01*
X105783909Y-51708505D01*
X105849830Y-51695574D01*
X105930783Y-51680253D01*
X105977267Y-51671615D01*
X106070143Y-51654218D01*
X106147044Y-51639317D01*
X106208721Y-51626747D01*
X106255921Y-51616344D01*
X106289395Y-51607945D01*
X106309890Y-51601386D01*
X106317552Y-51597251D01*
X106324054Y-51586281D01*
X106335733Y-51562048D01*
X106351556Y-51527041D01*
X106370487Y-51483750D01*
X106391492Y-51434664D01*
X106413535Y-51382272D01*
X106435582Y-51329064D01*
X106456598Y-51277529D01*
X106475547Y-51230156D01*
X106491395Y-51189434D01*
X106503107Y-51157853D01*
X106509648Y-51137902D01*
X106510667Y-51132757D01*
X106506019Y-51123316D01*
X106492760Y-51101514D01*
X106471917Y-51068913D01*
X106444513Y-51027075D01*
X106411577Y-50977562D01*
X106374134Y-50921937D01*
X106333209Y-50861761D01*
X106320167Y-50842705D01*
X106278436Y-50781645D01*
X106239863Y-50724862D01*
X106205470Y-50673886D01*
X106176280Y-50630247D01*
X106153313Y-50595476D01*
X106137592Y-50571102D01*
X106130139Y-50558657D01*
X106129667Y-50557452D01*
X106135491Y-50548903D01*
X106151921Y-50530333D01*
X106177396Y-50503276D01*
X106210355Y-50469264D01*
X106249235Y-50429831D01*
X106292475Y-50386510D01*
X106338514Y-50340835D01*
X106385790Y-50294338D01*
X106432742Y-50248552D01*
X106477808Y-50205012D01*
X106519425Y-50165250D01*
X106556034Y-50130799D01*
X106586072Y-50103192D01*
X106607977Y-50083964D01*
X106620188Y-50074647D01*
X106622015Y-50074041D01*
X106631356Y-50079735D01*
X106653041Y-50093960D01*
X106685474Y-50115640D01*
X106727056Y-50143694D01*
X106776191Y-50177046D01*
X106831281Y-50214616D01*
X106890728Y-50255328D01*
X106899771Y-50261534D01*
X106959860Y-50302513D01*
X107016035Y-50340291D01*
X107066669Y-50373813D01*
X107110139Y-50402028D01*
X107144819Y-50423883D01*
X107169084Y-50438324D01*
X107181311Y-50444299D01*
X107181987Y-50444400D01*
X107194601Y-50441089D01*
X107220195Y-50431858D01*
X107256316Y-50417755D01*
X107300513Y-50399834D01*
X107350334Y-50379142D01*
X107403327Y-50356732D01*
X107457040Y-50333654D01*
X107509021Y-50310958D01*
X107556817Y-50289695D01*
X107597978Y-50270916D01*
X107630051Y-50255670D01*
X107650584Y-50245009D01*
X107656536Y-50241078D01*
X107661464Y-50233332D01*
X107667185Y-50217870D01*
X107673997Y-50193367D01*
X107682197Y-50158497D01*
X107692082Y-50111937D01*
X107703951Y-50052360D01*
X107718101Y-49978443D01*
X107730907Y-49910012D01*
X107747373Y-49822346D01*
X107761329Y-49750269D01*
X107773025Y-49692663D01*
X107782708Y-49648409D01*
X107790629Y-49616391D01*
X107797036Y-49595490D01*
X107802177Y-49584588D01*
X107803739Y-49582916D01*
X107811766Y-49580035D01*
X107828320Y-49577679D01*
X107854667Y-49575809D01*
X107892074Y-49574384D01*
X107941806Y-49573365D01*
X108005130Y-49572713D01*
X108083311Y-49572388D01*
X108141514Y-49572333D01*
X108225265Y-49572403D01*
X108293683Y-49572653D01*
X108348367Y-49573147D01*
X108390916Y-49573949D01*
X108422930Y-49575120D01*
X108446007Y-49576726D01*
X108461748Y-49578827D01*
X108471751Y-49581489D01*
X108477616Y-49584773D01*
X108478562Y-49585638D01*
X108489160Y-49598195D01*
X108491867Y-49603873D01*
X108493358Y-49613047D01*
X108497603Y-49636976D01*
X108504255Y-49673767D01*
X108512969Y-49721528D01*
X108523400Y-49778366D01*
X108535203Y-49842389D01*
X108547751Y-49910185D01*
X108564558Y-49999507D01*
X108578909Y-50072846D01*
X108590968Y-50130951D01*
X108600903Y-50174568D01*
X108608877Y-50204444D01*
X108615058Y-50221327D01*
X108617601Y-50225202D01*
X108628871Y-50231722D01*
X108653558Y-50243295D01*
X108689250Y-50258955D01*
X108733539Y-50277735D01*
X108784015Y-50298666D01*
X108838266Y-50320782D01*
X108893884Y-50343114D01*
X108948457Y-50364696D01*
X108999577Y-50384559D01*
X109044832Y-50401736D01*
X109081813Y-50415261D01*
X109108110Y-50424164D01*
X109121313Y-50427480D01*
X109121487Y-50427483D01*
X109131888Y-50422824D01*
X109154526Y-50409575D01*
X109187734Y-50388810D01*
X109229846Y-50361606D01*
X109279197Y-50329039D01*
X109334120Y-50292184D01*
X109392252Y-50252598D01*
X109450957Y-50212486D01*
X109505594Y-50175438D01*
X109554518Y-50142549D01*
X109596080Y-50114914D01*
X109628634Y-50093629D01*
X109650532Y-50079788D01*
X109660098Y-50074495D01*
X109669403Y-50079602D01*
X109689685Y-50096263D01*
X109720220Y-50123799D01*
X109760278Y-50161527D01*
X109809134Y-50208767D01*
X109866060Y-50264837D01*
X109909076Y-50307729D01*
X109969633Y-50368532D01*
X110019113Y-50418616D01*
X110058538Y-50459113D01*
X110088930Y-50491152D01*
X110111312Y-50515861D01*
X110126705Y-50534371D01*
X110136132Y-50547811D01*
X110140616Y-50557310D01*
X110141177Y-50563998D01*
X110141148Y-50564149D01*
X110135506Y-50575696D01*
X110121334Y-50599358D01*
X110099787Y-50633356D01*
X110072021Y-50675915D01*
X110039190Y-50725259D01*
X110002449Y-50779610D01*
X109974231Y-50820836D01*
X109935285Y-50877540D01*
X109899188Y-50930286D01*
X109867123Y-50977331D01*
X109840272Y-51016931D01*
X109819820Y-51047344D01*
X109806948Y-51066824D01*
X109803033Y-51073114D01*
X109800886Y-51079664D01*
X109801309Y-51088688D01*
X109805101Y-51101982D01*
X109813064Y-51121343D01*
X109825997Y-51148570D01*
X109844701Y-51185458D01*
X109869976Y-51233805D01*
X109899016Y-51288622D01*
X109913393Y-51316810D01*
X109920123Y-51334353D01*
X109920136Y-51345207D01*
X109914365Y-51353328D01*
X109914267Y-51353422D01*
X109904192Y-51358883D01*
X109879999Y-51370037D01*
X109843252Y-51386240D01*
X109795518Y-51406845D01*
X109738361Y-51431204D01*
X109673347Y-51458671D01*
X109602041Y-51488601D01*
X109526009Y-51520345D01*
X109446815Y-51553259D01*
X109366026Y-51586694D01*
X109285207Y-51620006D01*
X109205923Y-51652546D01*
X109129739Y-51683669D01*
X109058221Y-51712728D01*
X108992934Y-51739077D01*
X108935444Y-51762068D01*
X108887316Y-51781056D01*
X108850114Y-51795394D01*
X108825406Y-51804435D01*
X108814799Y-51807533D01*
X108799509Y-51800165D01*
X108780325Y-51777614D01*
X108768098Y-51758850D01*
X108699816Y-51661326D01*
X108623217Y-51577930D01*
X108538861Y-51509019D01*
X108447308Y-51454950D01*
X108349118Y-51416082D01*
X108244853Y-51392773D01*
X108185272Y-51386723D01*
X108076432Y-51388275D01*
X107971877Y-51405736D01*
X107872900Y-51438349D01*
X107780793Y-51485355D01*
X107696847Y-51545998D01*
X107622355Y-51619519D01*
X107558609Y-51705161D01*
X107518139Y-51777900D01*
X107484007Y-51857581D01*
X107461892Y-51933320D01*
X107450367Y-52011474D01*
X107447896Y-52091166D01*
X107457373Y-52199167D01*
X107482514Y-52302105D01*
X107522473Y-52398667D01*
X107576399Y-52487539D01*
X107643446Y-52567408D01*
X107722764Y-52636958D01*
X107813505Y-52694878D01*
X107849327Y-52712874D01*
X107909841Y-52739016D01*
X107964856Y-52757183D01*
X108019963Y-52768544D01*
X108080756Y-52774269D01*
X108148967Y-52775552D01*
X108199536Y-52774746D01*
X108238593Y-52772503D01*
X108271538Y-52768150D01*
X108303776Y-52761015D01*
X108333603Y-52752577D01*
X108426894Y-52718463D01*
X108510664Y-52674343D01*
X108586972Y-52618629D01*
X108657878Y-52549734D01*
X108725443Y-52466070D01*
X108749216Y-52432218D01*
X108770857Y-52401369D01*
X108789880Y-52376093D01*
X108803832Y-52359546D01*
X108809368Y-52354804D01*
X108819379Y-52356995D01*
X108843100Y-52365017D01*
X108878632Y-52378141D01*
X108924073Y-52395641D01*
X108977523Y-52416786D01*
X109037081Y-52440850D01*
X109081185Y-52458957D01*
X109157143Y-52490329D01*
X109244082Y-52526216D01*
X109337328Y-52564690D01*
X109432203Y-52603822D01*
X109524031Y-52641682D01*
X109608135Y-52676340D01*
X109628432Y-52684702D01*
X109713505Y-52720086D01*
X109784316Y-52750274D01*
X109840548Y-52775122D01*
X109881887Y-52794486D01*
X109908018Y-52808224D01*
X109918625Y-52816192D01*
X109918790Y-52816564D01*
X109916580Y-52829328D01*
X109906741Y-52854512D01*
X109890241Y-52889949D01*
X109868047Y-52933468D01*
X109859607Y-52949290D01*
X109837869Y-52990073D01*
X109819306Y-53025746D01*
X109805288Y-53053608D01*
X109797185Y-53070956D01*
X109795733Y-53075218D01*
X109800365Y-53083667D01*
X109813545Y-53104442D01*
X109834202Y-53135934D01*
X109861262Y-53176535D01*
X109893655Y-53224635D01*
X109930308Y-53278627D01*
X109969300Y-53335663D01*
X110009202Y-53394308D01*
X110045872Y-53449107D01*
X110078226Y-53498374D01*
X110105184Y-53540422D01*
X110125663Y-53573565D01*
X110138582Y-53596117D01*
X110142867Y-53606229D01*
X110136657Y-53617688D01*
X110118053Y-53640606D01*
X110087089Y-53674945D01*
X110043802Y-53720665D01*
X109988228Y-53777729D01*
X109920403Y-53846097D01*
X109912093Y-53854408D01*
X109843985Y-53922020D01*
X109786409Y-53978191D01*
X109739559Y-54022738D01*
X109703633Y-54055481D01*
X109678824Y-54076237D01*
X109665329Y-54084825D01*
X109664018Y-54085066D01*
X109653248Y-54080408D01*
X109630268Y-54067153D01*
X109596763Y-54046384D01*
X109554418Y-54019182D01*
X109504916Y-53986628D01*
X109449944Y-53949806D01*
X109393670Y-53911500D01*
X109328639Y-53867262D01*
X109270075Y-53828151D01*
X109219290Y-53795003D01*
X109177593Y-53768651D01*
X109146295Y-53749930D01*
X109126706Y-53739675D01*
X109121111Y-53737933D01*
X109107571Y-53741071D01*
X109080930Y-53749838D01*
X109043616Y-53763261D01*
X108998053Y-53780370D01*
X108946668Y-53800193D01*
X108891888Y-53821758D01*
X108836140Y-53844093D01*
X108781848Y-53866228D01*
X108731440Y-53887191D01*
X108687341Y-53906010D01*
X108651979Y-53921714D01*
X108627779Y-53933331D01*
X108617412Y-53939622D01*
X108612138Y-53949954D01*
X108605257Y-53972398D01*
X108596590Y-54007772D01*
X108585955Y-54056895D01*
X108573172Y-54120587D01*
X108558061Y-54199665D01*
X108547102Y-54258633D01*
X108531979Y-54340119D01*
X108519373Y-54406489D01*
X108508922Y-54459316D01*
X108500263Y-54500173D01*
X108493036Y-54530630D01*
X108486878Y-54552260D01*
X108481427Y-54566635D01*
X108476322Y-54575327D01*
X108473535Y-54578250D01*
X108467889Y-54582077D01*
X108459733Y-54585187D01*
X108447399Y-54587654D01*
X108429220Y-54589550D01*
X108403529Y-54590949D01*
X108368656Y-54591925D01*
X108322936Y-54592551D01*
X108264699Y-54592900D01*
X108192278Y-54593046D01*
X108136947Y-54593066D01*
X108049284Y-54592927D01*
X107977279Y-54592480D01*
X107919658Y-54591686D01*
X107875148Y-54590504D01*
X107842476Y-54588894D01*
X107820368Y-54586815D01*
X107807550Y-54584227D01*
X107803879Y-54582483D01*
X107799042Y-54574548D01*
X107792987Y-54556582D01*
X107785474Y-54527492D01*
X107776260Y-54486185D01*
X107765103Y-54431568D01*
X107751759Y-54362547D01*
X107735988Y-54278030D01*
X107733977Y-54267100D01*
X107720888Y-54196527D01*
X107708408Y-54130492D01*
X107696941Y-54071026D01*
X107686887Y-54020160D01*
X107678648Y-53979927D01*
X107672625Y-53952357D01*
X107669281Y-53939641D01*
X107665040Y-53932289D01*
X107656852Y-53924417D01*
X107643044Y-53915173D01*
X107621940Y-53903705D01*
X107591865Y-53889161D01*
X107551145Y-53870688D01*
X107498104Y-53847435D01*
X107432096Y-53818991D01*
X107373109Y-53793987D01*
X107318364Y-53771338D01*
X107270011Y-53751889D01*
X107230200Y-53736485D01*
X107201081Y-53725973D01*
X107184803Y-53721198D01*
X107183030Y-53721000D01*
X107170179Y-53725907D01*
X107144397Y-53740307D01*
X107106436Y-53763721D01*
X107057050Y-53795667D01*
X106996991Y-53835664D01*
X106927012Y-53883233D01*
X106902182Y-53900295D01*
X106842549Y-53941077D01*
X106786594Y-53978777D01*
X106736002Y-54012302D01*
X106692462Y-54040558D01*
X106657657Y-54062451D01*
X106633276Y-54076889D01*
X106621003Y-54082777D01*
X106620733Y-54082828D01*
X106613896Y-54082233D01*
X106604509Y-54077939D01*
X106591431Y-54068909D01*
X106573521Y-54054106D01*
X106549636Y-54032493D01*
X106518635Y-54003032D01*
X106479377Y-53964687D01*
X106430719Y-53916421D01*
X106371521Y-53857196D01*
X106363473Y-53849120D01*
X106295166Y-53780158D01*
X106239034Y-53722587D01*
X106194898Y-53676214D01*
X106162581Y-53640848D01*
X106141905Y-53616296D01*
X106132691Y-53602367D01*
X106132239Y-53599508D01*
X106137984Y-53589911D01*
X106152282Y-53567968D01*
X106174063Y-53535268D01*
X106202257Y-53493398D01*
X106235793Y-53443946D01*
X106273603Y-53388500D01*
X106314615Y-53328648D01*
X106323884Y-53315161D01*
X106365295Y-53254608D01*
X106403519Y-53198102D01*
X106437515Y-53147225D01*
X106466244Y-53103562D01*
X106488666Y-53068697D01*
X106503739Y-53044214D01*
X106510425Y-53031697D01*
X106510667Y-53030693D01*
X106507567Y-53019533D01*
X106498864Y-52995067D01*
X106485451Y-52959626D01*
X106468221Y-52915540D01*
X106448066Y-52865142D01*
X106433657Y-52829703D01*
X106404331Y-52758070D01*
X106380688Y-52700525D01*
X106362000Y-52655480D01*
X106347543Y-52621348D01*
X106336590Y-52596543D01*
X106328415Y-52579477D01*
X106322293Y-52568564D01*
X106317496Y-52562217D01*
X106313300Y-52558849D01*
X106308978Y-52556873D01*
X106308801Y-52556804D01*
X106298314Y-52554340D01*
X106273425Y-52549211D01*
X106236384Y-52541845D01*
X106189438Y-52532667D01*
X106134836Y-52522105D01*
X106074824Y-52510586D01*
X106011652Y-52498535D01*
X105947567Y-52486379D01*
X105884818Y-52474546D01*
X105825652Y-52463461D01*
X105772317Y-52453552D01*
X105727062Y-52445245D01*
X105692135Y-52438967D01*
X105669782Y-52435144D01*
X105662488Y-52434141D01*
X105652579Y-52428760D01*
X105643438Y-52420762D01*
X105639999Y-52415634D01*
X105637198Y-52406742D01*
X105634971Y-52392487D01*
X105633255Y-52371269D01*
X105631988Y-52341489D01*
X105631105Y-52301547D01*
X105630545Y-52249844D01*
X105630243Y-52184782D01*
X105630137Y-52104760D01*
X105630134Y-52083713D01*
X105630271Y-51995394D01*
G36*
X39825878Y-115385333D02*
G01*
X39946823Y-115399301D01*
X39977846Y-115407527D01*
X40048615Y-115436802D01*
X40076154Y-115476737D01*
X40076061Y-115552119D01*
X40075168Y-115562178D01*
X40081637Y-115684950D01*
X40131062Y-115763308D01*
X40228270Y-115802424D01*
X40305739Y-115809122D01*
X40403417Y-115817251D01*
X40464806Y-115845735D01*
X40501216Y-115907469D01*
X40523958Y-116015347D01*
X40530677Y-116065557D01*
X40532760Y-116294770D01*
X40483793Y-116508142D01*
X40388553Y-116695384D01*
X40251817Y-116846209D01*
X40131115Y-116926087D01*
X39993262Y-116976000D01*
X39822204Y-117008500D01*
X39646683Y-117020128D01*
X39495443Y-117007425D01*
X39481125Y-117004300D01*
X39420281Y-116984142D01*
X39395420Y-116948569D01*
X39394255Y-116876047D01*
X39395816Y-116854795D01*
X39381553Y-116728892D01*
X39321905Y-116641672D01*
X39225316Y-116598134D01*
X39100230Y-116603275D01*
X39017350Y-116630790D01*
X38971244Y-116622606D01*
X38932729Y-116563544D01*
X38903050Y-116465910D01*
X38883455Y-116342007D01*
X38875191Y-116204142D01*
X38879505Y-116064619D01*
X38897644Y-115935742D01*
X38930856Y-115829817D01*
X38935240Y-115820584D01*
X39028279Y-115678237D01*
X39153185Y-115547284D01*
X39286237Y-115452514D01*
X39288694Y-115451222D01*
X39385432Y-115419375D01*
X39522398Y-115396815D01*
X39676808Y-115384986D01*
X39825878Y-115385333D01*
G37*
X39825878Y-115385333D02*
X39946823Y-115399301D01*
X39977846Y-115407527D01*
X40048615Y-115436802D01*
X40076154Y-115476737D01*
X40076061Y-115552119D01*
X40075168Y-115562178D01*
X40081637Y-115684950D01*
X40131062Y-115763308D01*
X40228270Y-115802424D01*
X40305739Y-115809122D01*
X40403417Y-115817251D01*
X40464806Y-115845735D01*
X40501216Y-115907469D01*
X40523958Y-116015347D01*
X40530677Y-116065557D01*
X40532760Y-116294770D01*
X40483793Y-116508142D01*
X40388553Y-116695384D01*
X40251817Y-116846209D01*
X40131115Y-116926087D01*
X39993262Y-116976000D01*
X39822204Y-117008500D01*
X39646683Y-117020128D01*
X39495443Y-117007425D01*
X39481125Y-117004300D01*
X39420281Y-116984142D01*
X39395420Y-116948569D01*
X39394255Y-116876047D01*
X39395816Y-116854795D01*
X39381553Y-116728892D01*
X39321905Y-116641672D01*
X39225316Y-116598134D01*
X39100230Y-116603275D01*
X39017350Y-116630790D01*
X38971244Y-116622606D01*
X38932729Y-116563544D01*
X38903050Y-116465910D01*
X38883455Y-116342007D01*
X38875191Y-116204142D01*
X38879505Y-116064619D01*
X38897644Y-115935742D01*
X38930856Y-115829817D01*
X38935240Y-115820584D01*
X39028279Y-115678237D01*
X39153185Y-115547284D01*
X39286237Y-115452514D01*
X39288694Y-115451222D01*
X39385432Y-115419375D01*
X39522398Y-115396815D01*
X39676808Y-115384986D01*
X39825878Y-115385333D01*
G36*
X56451500Y-115220750D02*
G01*
X55403750Y-115220750D01*
X55403750Y-116109750D01*
X56451500Y-116109750D01*
X56451500Y-116268500D01*
X55403750Y-116268500D01*
X55403750Y-117189250D01*
X56483250Y-117189250D01*
X56483250Y-117348000D01*
X55213250Y-117348000D01*
X55213250Y-115062000D01*
X56451500Y-115062000D01*
X56451500Y-115220750D01*
G37*
X56451500Y-115220750D02*
X55403750Y-115220750D01*
X55403750Y-116109750D01*
X56451500Y-116109750D01*
X56451500Y-116268500D01*
X55403750Y-116268500D01*
X55403750Y-117189250D01*
X56483250Y-117189250D01*
X56483250Y-117348000D01*
X55213250Y-117348000D01*
X55213250Y-115062000D01*
X56451500Y-115062000D01*
X56451500Y-115220750D01*
G36*
X50213249Y-115083865D02*
G01*
X50237712Y-115105298D01*
X50268659Y-115147362D01*
X50308799Y-115215247D01*
X50360844Y-115314145D01*
X50427502Y-115449244D01*
X50511484Y-115625735D01*
X50615499Y-115848808D01*
X50742258Y-116123653D01*
X50769123Y-116182124D01*
X50882391Y-116429542D01*
X50986851Y-116659222D01*
X51079611Y-116864694D01*
X51157783Y-117039493D01*
X51218476Y-117177148D01*
X51258802Y-117271194D01*
X51275869Y-117315161D01*
X51276250Y-117317187D01*
X51248794Y-117339347D01*
X51186795Y-117348000D01*
X51148975Y-117344294D01*
X51116304Y-117327104D01*
X51082541Y-117287318D01*
X51041446Y-117215828D01*
X50986778Y-117103523D01*
X50920378Y-116959062D01*
X50743415Y-116570125D01*
X49654509Y-116552739D01*
X49466856Y-116950369D01*
X49390376Y-117110136D01*
X49333748Y-117220714D01*
X49291008Y-117290932D01*
X49256192Y-117329617D01*
X49223338Y-117345596D01*
X49198226Y-117348000D01*
X49136889Y-117333922D01*
X49117250Y-117306346D01*
X49130125Y-117268999D01*
X49166807Y-117180629D01*
X49224380Y-117047816D01*
X49299928Y-116877139D01*
X49390537Y-116675180D01*
X49493289Y-116448517D01*
X49517542Y-116395500D01*
X49722103Y-116395500D01*
X50181676Y-116395500D01*
X50344293Y-116393869D01*
X50481629Y-116389384D01*
X50582512Y-116382654D01*
X50635770Y-116374289D01*
X50641250Y-116370428D01*
X50628594Y-116333924D01*
X50594287Y-116252035D01*
X50543814Y-116136782D01*
X50482663Y-116000187D01*
X50416322Y-115854273D01*
X50350277Y-115711062D01*
X50290015Y-115582576D01*
X50241025Y-115480838D01*
X50208793Y-115417869D01*
X50200210Y-115404133D01*
X50179227Y-115420649D01*
X50140398Y-115484102D01*
X50090418Y-115582862D01*
X50063155Y-115642258D01*
X49991776Y-115801822D01*
X49912177Y-115978464D01*
X49840510Y-116136354D01*
X49834536Y-116149437D01*
X49722103Y-116395500D01*
X49517542Y-116395500D01*
X49605271Y-116203731D01*
X49620188Y-116171283D01*
X49751075Y-115887559D01*
X49858695Y-115656559D01*
X49945778Y-115473069D01*
X50015051Y-115331878D01*
X50069242Y-115227774D01*
X50111081Y-115155544D01*
X50143296Y-115109976D01*
X50168614Y-115085858D01*
X50189766Y-115077979D01*
X50192561Y-115077875D01*
X50213249Y-115083865D01*
G37*
X50213249Y-115083865D02*
X50237712Y-115105298D01*
X50268659Y-115147362D01*
X50308799Y-115215247D01*
X50360844Y-115314145D01*
X50427502Y-115449244D01*
X50511484Y-115625735D01*
X50615499Y-115848808D01*
X50742258Y-116123653D01*
X50769123Y-116182124D01*
X50882391Y-116429542D01*
X50986851Y-116659222D01*
X51079611Y-116864694D01*
X51157783Y-117039493D01*
X51218476Y-117177148D01*
X51258802Y-117271194D01*
X51275869Y-117315161D01*
X51276250Y-117317187D01*
X51248794Y-117339347D01*
X51186795Y-117348000D01*
X51148975Y-117344294D01*
X51116304Y-117327104D01*
X51082541Y-117287318D01*
X51041446Y-117215828D01*
X50986778Y-117103523D01*
X50920378Y-116959062D01*
X50743415Y-116570125D01*
X49654509Y-116552739D01*
X49466856Y-116950369D01*
X49390376Y-117110136D01*
X49333748Y-117220714D01*
X49291008Y-117290932D01*
X49256192Y-117329617D01*
X49223338Y-117345596D01*
X49198226Y-117348000D01*
X49136889Y-117333922D01*
X49117250Y-117306346D01*
X49130125Y-117268999D01*
X49166807Y-117180629D01*
X49224380Y-117047816D01*
X49299928Y-116877139D01*
X49390537Y-116675180D01*
X49493289Y-116448517D01*
X49517542Y-116395500D01*
X49722103Y-116395500D01*
X50181676Y-116395500D01*
X50344293Y-116393869D01*
X50481629Y-116389384D01*
X50582512Y-116382654D01*
X50635770Y-116374289D01*
X50641250Y-116370428D01*
X50628594Y-116333924D01*
X50594287Y-116252035D01*
X50543814Y-116136782D01*
X50482663Y-116000187D01*
X50416322Y-115854273D01*
X50350277Y-115711062D01*
X50290015Y-115582576D01*
X50241025Y-115480838D01*
X50208793Y-115417869D01*
X50200210Y-115404133D01*
X50179227Y-115420649D01*
X50140398Y-115484102D01*
X50090418Y-115582862D01*
X50063155Y-115642258D01*
X49991776Y-115801822D01*
X49912177Y-115978464D01*
X49840510Y-116136354D01*
X49834536Y-116149437D01*
X49722103Y-116395500D01*
X49517542Y-116395500D01*
X49605271Y-116203731D01*
X49620188Y-116171283D01*
X49751075Y-115887559D01*
X49858695Y-115656559D01*
X49945778Y-115473069D01*
X50015051Y-115331878D01*
X50069242Y-115227774D01*
X50111081Y-115155544D01*
X50143296Y-115109976D01*
X50168614Y-115085858D01*
X50189766Y-115077979D01*
X50192561Y-115077875D01*
X50213249Y-115083865D01*
G36*
X47617062Y-115067649D02*
G01*
X47806011Y-115073311D01*
X47944169Y-115080746D01*
X48044242Y-115091692D01*
X48118941Y-115107888D01*
X48180972Y-115131072D01*
X48219231Y-115150030D01*
X48368597Y-115256944D01*
X48464111Y-115393663D01*
X48509222Y-115566136D01*
X48514000Y-115658321D01*
X48500144Y-115833665D01*
X48454152Y-115968729D01*
X48369387Y-116081387D01*
X48349895Y-116100297D01*
X48256591Y-116172166D01*
X48148393Y-116221540D01*
X48012249Y-116251741D01*
X47835109Y-116266094D01*
X47689519Y-116268500D01*
X47339250Y-116268500D01*
X47339250Y-117348000D01*
X47148750Y-117348000D01*
X47148750Y-116109750D01*
X47339250Y-116109750D01*
X47648812Y-116109052D01*
X47823935Y-116104545D01*
X47952579Y-116090443D01*
X48051337Y-116064498D01*
X48087783Y-116049580D01*
X48209115Y-115962549D01*
X48288566Y-115839595D01*
X48321664Y-115696107D01*
X48303938Y-115547472D01*
X48261285Y-115452478D01*
X48193544Y-115365018D01*
X48106522Y-115302886D01*
X47988713Y-115261730D01*
X47828613Y-115237194D01*
X47664687Y-115226702D01*
X47339250Y-115213547D01*
X47339250Y-116109750D01*
X47148750Y-116109750D01*
X47148750Y-115056175D01*
X47617062Y-115067649D01*
G37*
X47617062Y-115067649D02*
X47806011Y-115073311D01*
X47944169Y-115080746D01*
X48044242Y-115091692D01*
X48118941Y-115107888D01*
X48180972Y-115131072D01*
X48219231Y-115150030D01*
X48368597Y-115256944D01*
X48464111Y-115393663D01*
X48509222Y-115566136D01*
X48514000Y-115658321D01*
X48500144Y-115833665D01*
X48454152Y-115968729D01*
X48369387Y-116081387D01*
X48349895Y-116100297D01*
X48256591Y-116172166D01*
X48148393Y-116221540D01*
X48012249Y-116251741D01*
X47835109Y-116266094D01*
X47689519Y-116268500D01*
X47339250Y-116268500D01*
X47339250Y-117348000D01*
X47148750Y-117348000D01*
X47148750Y-116109750D01*
X47339250Y-116109750D01*
X47648812Y-116109052D01*
X47823935Y-116104545D01*
X47952579Y-116090443D01*
X48051337Y-116064498D01*
X48087783Y-116049580D01*
X48209115Y-115962549D01*
X48288566Y-115839595D01*
X48321664Y-115696107D01*
X48303938Y-115547472D01*
X48261285Y-115452478D01*
X48193544Y-115365018D01*
X48106522Y-115302886D01*
X47988713Y-115261730D01*
X47828613Y-115237194D01*
X47664687Y-115226702D01*
X47339250Y-115213547D01*
X47339250Y-116109750D01*
X47148750Y-116109750D01*
X47148750Y-115056175D01*
X47617062Y-115067649D01*
G36*
X53475526Y-115054744D02*
G01*
X53621698Y-115071750D01*
X53755763Y-115103510D01*
X53832125Y-115128122D01*
X53946696Y-115169585D01*
X54014153Y-115202424D01*
X54047955Y-115237069D01*
X54061560Y-115283950D01*
X54064324Y-115308062D01*
X54068418Y-115378031D01*
X54065087Y-115410530D01*
X54064324Y-115410825D01*
X54031989Y-115400864D01*
X53953781Y-115374552D01*
X53843721Y-115336641D01*
X53784500Y-115315999D01*
X53512257Y-115244054D01*
X53250864Y-115220112D01*
X53012198Y-115244794D01*
X52918792Y-115270759D01*
X52755417Y-115353062D01*
X52596198Y-115480244D01*
X52459997Y-115635408D01*
X52394087Y-115740708D01*
X52352610Y-115826948D01*
X52327052Y-115906621D01*
X52313700Y-115999862D01*
X52308838Y-116126803D01*
X52308430Y-116205000D01*
X52310566Y-116355207D01*
X52319435Y-116462081D01*
X52338730Y-116545714D01*
X52372142Y-116626199D01*
X52393551Y-116668233D01*
X52532715Y-116865893D01*
X52718981Y-117026105D01*
X52862136Y-117106520D01*
X52954273Y-117141821D01*
X53054933Y-117162085D01*
X53184819Y-117170410D01*
X53292375Y-117170907D01*
X53435528Y-117166034D01*
X53560256Y-117151201D01*
X53684378Y-117121990D01*
X53825716Y-117073981D01*
X54002092Y-117002757D01*
X54046437Y-116983929D01*
X54085101Y-116977854D01*
X54100244Y-117014083D01*
X54102000Y-117059981D01*
X54094707Y-117124124D01*
X54062450Y-117167469D01*
X53989661Y-117207608D01*
X53959723Y-117220743D01*
X53693804Y-117310258D01*
X53419408Y-117358352D01*
X53156656Y-117362231D01*
X53043152Y-117348029D01*
X52817271Y-117280641D01*
X52601688Y-117166181D01*
X52411184Y-117015412D01*
X52260539Y-116839094D01*
X52199263Y-116733551D01*
X52115898Y-116493102D01*
X52084058Y-116234080D01*
X52103786Y-115973773D01*
X52175124Y-115729466D01*
X52196715Y-115681712D01*
X52305534Y-115514473D01*
X52461036Y-115353733D01*
X52647009Y-115214729D01*
X52762236Y-115150175D01*
X52864757Y-115101962D01*
X52948403Y-115071657D01*
X53033764Y-115055316D01*
X53141433Y-115048995D01*
X53291760Y-115048747D01*
X53475526Y-115054744D01*
G37*
X53475526Y-115054744D02*
X53621698Y-115071750D01*
X53755763Y-115103510D01*
X53832125Y-115128122D01*
X53946696Y-115169585D01*
X54014153Y-115202424D01*
X54047955Y-115237069D01*
X54061560Y-115283950D01*
X54064324Y-115308062D01*
X54068418Y-115378031D01*
X54065087Y-115410530D01*
X54064324Y-115410825D01*
X54031989Y-115400864D01*
X53953781Y-115374552D01*
X53843721Y-115336641D01*
X53784500Y-115315999D01*
X53512257Y-115244054D01*
X53250864Y-115220112D01*
X53012198Y-115244794D01*
X52918792Y-115270759D01*
X52755417Y-115353062D01*
X52596198Y-115480244D01*
X52459997Y-115635408D01*
X52394087Y-115740708D01*
X52352610Y-115826948D01*
X52327052Y-115906621D01*
X52313700Y-115999862D01*
X52308838Y-116126803D01*
X52308430Y-116205000D01*
X52310566Y-116355207D01*
X52319435Y-116462081D01*
X52338730Y-116545714D01*
X52372142Y-116626199D01*
X52393551Y-116668233D01*
X52532715Y-116865893D01*
X52718981Y-117026105D01*
X52862136Y-117106520D01*
X52954273Y-117141821D01*
X53054933Y-117162085D01*
X53184819Y-117170410D01*
X53292375Y-117170907D01*
X53435528Y-117166034D01*
X53560256Y-117151201D01*
X53684378Y-117121990D01*
X53825716Y-117073981D01*
X54002092Y-117002757D01*
X54046437Y-116983929D01*
X54085101Y-116977854D01*
X54100244Y-117014083D01*
X54102000Y-117059981D01*
X54094707Y-117124124D01*
X54062450Y-117167469D01*
X53989661Y-117207608D01*
X53959723Y-117220743D01*
X53693804Y-117310258D01*
X53419408Y-117358352D01*
X53156656Y-117362231D01*
X53043152Y-117348029D01*
X52817271Y-117280641D01*
X52601688Y-117166181D01*
X52411184Y-117015412D01*
X52260539Y-116839094D01*
X52199263Y-116733551D01*
X52115898Y-116493102D01*
X52084058Y-116234080D01*
X52103786Y-115973773D01*
X52175124Y-115729466D01*
X52196715Y-115681712D01*
X52305534Y-115514473D01*
X52461036Y-115353733D01*
X52647009Y-115214729D01*
X52762236Y-115150175D01*
X52864757Y-115101962D01*
X52948403Y-115071657D01*
X53033764Y-115055316D01*
X53141433Y-115048995D01*
X53291760Y-115048747D01*
X53475526Y-115054744D01*
G36*
X45492610Y-115050188D02*
G01*
X45668797Y-115084339D01*
X45727937Y-115104313D01*
X45817824Y-115142991D01*
X45862552Y-115179403D01*
X45877562Y-115230252D01*
X45878750Y-115267456D01*
X45878750Y-115372411D01*
X45696187Y-115297334D01*
X45488416Y-115235242D01*
X45303991Y-115227754D01*
X45146765Y-115273899D01*
X45020590Y-115372707D01*
X44945966Y-115486207D01*
X44908911Y-115578694D01*
X44905189Y-115656445D01*
X44921879Y-115726682D01*
X44949001Y-115800656D01*
X44987056Y-115860924D01*
X45045981Y-115915012D01*
X45135713Y-115970443D01*
X45266191Y-116034745D01*
X45418740Y-116102953D01*
X45616593Y-116196129D01*
X45761098Y-116282565D01*
X45860509Y-116370935D01*
X45923078Y-116469912D01*
X45957058Y-116588171D01*
X45967759Y-116679969D01*
X45953535Y-116881920D01*
X45884117Y-117059158D01*
X45765319Y-117203761D01*
X45602954Y-117307806D01*
X45476021Y-117350116D01*
X45379517Y-117369424D01*
X45301289Y-117373399D01*
X45209486Y-117362075D01*
X45147297Y-117350441D01*
X45050087Y-117322760D01*
X44934212Y-117278229D01*
X44885360Y-117256010D01*
X44796767Y-117208849D01*
X44752270Y-117167151D01*
X44737034Y-117112735D01*
X44735750Y-117072646D01*
X44741615Y-117002844D01*
X44756076Y-116973000D01*
X44759562Y-116973537D01*
X44952794Y-117067555D01*
X45101227Y-117133344D01*
X45215718Y-117173257D01*
X45307119Y-117189646D01*
X45386285Y-117184860D01*
X45464071Y-117161253D01*
X45517389Y-117137710D01*
X45644614Y-117047488D01*
X45730455Y-116925044D01*
X45768603Y-116785128D01*
X45752749Y-116642492D01*
X45741767Y-116613101D01*
X45694268Y-116524530D01*
X45627987Y-116449614D01*
X45531849Y-116380017D01*
X45394779Y-116307405D01*
X45247854Y-116241390D01*
X45041554Y-116144177D01*
X44891096Y-116050329D01*
X44789836Y-115951916D01*
X44731129Y-115841007D01*
X44708330Y-115709671D01*
X44710291Y-115599763D01*
X44749546Y-115416119D01*
X44840974Y-115263771D01*
X44988791Y-115136037D01*
X45012882Y-115120572D01*
X45143650Y-115068782D01*
X45310561Y-115045162D01*
X45492610Y-115050188D01*
G37*
X45492610Y-115050188D02*
X45668797Y-115084339D01*
X45727937Y-115104313D01*
X45817824Y-115142991D01*
X45862552Y-115179403D01*
X45877562Y-115230252D01*
X45878750Y-115267456D01*
X45878750Y-115372411D01*
X45696187Y-115297334D01*
X45488416Y-115235242D01*
X45303991Y-115227754D01*
X45146765Y-115273899D01*
X45020590Y-115372707D01*
X44945966Y-115486207D01*
X44908911Y-115578694D01*
X44905189Y-115656445D01*
X44921879Y-115726682D01*
X44949001Y-115800656D01*
X44987056Y-115860924D01*
X45045981Y-115915012D01*
X45135713Y-115970443D01*
X45266191Y-116034745D01*
X45418740Y-116102953D01*
X45616593Y-116196129D01*
X45761098Y-116282565D01*
X45860509Y-116370935D01*
X45923078Y-116469912D01*
X45957058Y-116588171D01*
X45967759Y-116679969D01*
X45953535Y-116881920D01*
X45884117Y-117059158D01*
X45765319Y-117203761D01*
X45602954Y-117307806D01*
X45476021Y-117350116D01*
X45379517Y-117369424D01*
X45301289Y-117373399D01*
X45209486Y-117362075D01*
X45147297Y-117350441D01*
X45050087Y-117322760D01*
X44934212Y-117278229D01*
X44885360Y-117256010D01*
X44796767Y-117208849D01*
X44752270Y-117167151D01*
X44737034Y-117112735D01*
X44735750Y-117072646D01*
X44741615Y-117002844D01*
X44756076Y-116973000D01*
X44759562Y-116973537D01*
X44952794Y-117067555D01*
X45101227Y-117133344D01*
X45215718Y-117173257D01*
X45307119Y-117189646D01*
X45386285Y-117184860D01*
X45464071Y-117161253D01*
X45517389Y-117137710D01*
X45644614Y-117047488D01*
X45730455Y-116925044D01*
X45768603Y-116785128D01*
X45752749Y-116642492D01*
X45741767Y-116613101D01*
X45694268Y-116524530D01*
X45627987Y-116449614D01*
X45531849Y-116380017D01*
X45394779Y-116307405D01*
X45247854Y-116241390D01*
X45041554Y-116144177D01*
X44891096Y-116050329D01*
X44789836Y-115951916D01*
X44731129Y-115841007D01*
X44708330Y-115709671D01*
X44710291Y-115599763D01*
X44749546Y-115416119D01*
X44840974Y-115263771D01*
X44988791Y-115136037D01*
X45012882Y-115120572D01*
X45143650Y-115068782D01*
X45310561Y-115045162D01*
X45492610Y-115050188D01*
G36*
X44100750Y-114903250D02*
G01*
X44100750Y-117506750D01*
X43743562Y-117505779D01*
X43386375Y-117504808D01*
X42735500Y-116803329D01*
X42084625Y-116101851D01*
X42076080Y-116804300D01*
X42067535Y-117506750D01*
X41270164Y-117506750D01*
X41283347Y-117260687D01*
X41321728Y-116989102D01*
X41384475Y-116792375D01*
X41459177Y-116531494D01*
X41490263Y-116249519D01*
X41478351Y-115964222D01*
X41424056Y-115693370D01*
X41338799Y-115475337D01*
X41296536Y-115360405D01*
X41277261Y-115217055D01*
X41275000Y-115126764D01*
X41275000Y-114903250D01*
X41632187Y-114903722D01*
X41989375Y-114904194D01*
X42640250Y-115605421D01*
X43291125Y-116306649D01*
X43299669Y-115604949D01*
X43308214Y-114903249D01*
X43704482Y-114903249D01*
X44100750Y-114903250D01*
G37*
X44100750Y-114903250D02*
X44100750Y-117506750D01*
X43743562Y-117505779D01*
X43386375Y-117504808D01*
X42735500Y-116803329D01*
X42084625Y-116101851D01*
X42076080Y-116804300D01*
X42067535Y-117506750D01*
X41270164Y-117506750D01*
X41283347Y-117260687D01*
X41321728Y-116989102D01*
X41384475Y-116792375D01*
X41459177Y-116531494D01*
X41490263Y-116249519D01*
X41478351Y-115964222D01*
X41424056Y-115693370D01*
X41338799Y-115475337D01*
X41296536Y-115360405D01*
X41277261Y-115217055D01*
X41275000Y-115126764D01*
X41275000Y-114903250D01*
X41632187Y-114903722D01*
X41989375Y-114904194D01*
X42640250Y-115605421D01*
X43291125Y-116306649D01*
X43299669Y-115604949D01*
X43308214Y-114903249D01*
X43704482Y-114903249D01*
X44100750Y-114903250D01*
G36*
X38068233Y-115181062D02*
G01*
X38062712Y-115353989D01*
X38043616Y-115488914D01*
X38007114Y-115610583D01*
X37998194Y-115633500D01*
X37954236Y-115792783D01*
X37928456Y-115992443D01*
X37920874Y-116212006D01*
X37931511Y-116430998D01*
X37960388Y-116628947D01*
X37997057Y-116759524D01*
X38038778Y-116894630D01*
X38061148Y-117037067D01*
X38068222Y-117213510D01*
X38068250Y-117227837D01*
X38068250Y-117506750D01*
X37274500Y-117506750D01*
X37274500Y-114903250D01*
X38068250Y-114903250D01*
X38068233Y-115181062D01*
G37*
X38068233Y-115181062D02*
X38062712Y-115353989D01*
X38043616Y-115488914D01*
X38007114Y-115610583D01*
X37998194Y-115633500D01*
X37954236Y-115792783D01*
X37928456Y-115992443D01*
X37920874Y-116212006D01*
X37931511Y-116430998D01*
X37960388Y-116628947D01*
X37997057Y-116759524D01*
X38038778Y-116894630D01*
X38061148Y-117037067D01*
X38068222Y-117213510D01*
X38068250Y-117227837D01*
X38068250Y-117506750D01*
X37274500Y-117506750D01*
X37274500Y-114903250D01*
X38068250Y-114903250D01*
X38068233Y-115181062D01*
G36*
X34925000Y-117506750D02*
G01*
X34131250Y-117506750D01*
X34131250Y-114903250D01*
X34925000Y-114903250D01*
X34925000Y-117506750D01*
G37*
X34925000Y-117506750D02*
X34131250Y-117506750D01*
X34131250Y-114903250D01*
X34925000Y-114903250D01*
X34925000Y-117506750D01*
G36*
X36438465Y-114899081D02*
G01*
X36739104Y-114978050D01*
X36837937Y-115018199D01*
X36957000Y-115071644D01*
X36957000Y-115690177D01*
X36710548Y-115564262D01*
X36528726Y-115481881D01*
X36370173Y-115435285D01*
X36268768Y-115420635D01*
X36157448Y-115413158D01*
X36087331Y-115419307D01*
X36036706Y-115444099D01*
X35991702Y-115484661D01*
X35942406Y-115544237D01*
X35925678Y-115598766D01*
X35946263Y-115653945D01*
X36008907Y-115715469D01*
X36118358Y-115789032D01*
X36279361Y-115880331D01*
X36355369Y-115921031D01*
X36598115Y-116057963D01*
X36785010Y-116184429D01*
X36921328Y-116307165D01*
X37012344Y-116432911D01*
X37063332Y-116568404D01*
X37079566Y-116720385D01*
X37073274Y-116838268D01*
X37023770Y-117034261D01*
X36922115Y-117201835D01*
X36774255Y-117338199D01*
X36586138Y-117440561D01*
X36363709Y-117506131D01*
X36112916Y-117532116D01*
X35839706Y-117515728D01*
X35687260Y-117488779D01*
X35549891Y-117455473D01*
X35411220Y-117416303D01*
X35330073Y-117389781D01*
X35179000Y-117335455D01*
X35179000Y-116683534D01*
X35433135Y-116806431D01*
X35653874Y-116898063D01*
X35851035Y-116949774D01*
X36018617Y-116961231D01*
X36150621Y-116932100D01*
X36241046Y-116862045D01*
X36248204Y-116851815D01*
X36280380Y-116782304D01*
X36275764Y-116718862D01*
X36229104Y-116655591D01*
X36135152Y-116586591D01*
X35988657Y-116505962D01*
X35902742Y-116463615D01*
X35758613Y-116391537D01*
X35624518Y-116319754D01*
X35517720Y-116257764D01*
X35465372Y-116222999D01*
X35314262Y-116074519D01*
X35212831Y-115900823D01*
X35161799Y-115712681D01*
X35161884Y-115520864D01*
X35213804Y-115336140D01*
X35318280Y-115169280D01*
X35390149Y-115096179D01*
X35545018Y-114986431D01*
X35721922Y-114915342D01*
X35933784Y-114878906D01*
X36113450Y-114871876D01*
X36438465Y-114899081D01*
G37*
X36438465Y-114899081D02*
X36739104Y-114978050D01*
X36837937Y-115018199D01*
X36957000Y-115071644D01*
X36957000Y-115690177D01*
X36710548Y-115564262D01*
X36528726Y-115481881D01*
X36370173Y-115435285D01*
X36268768Y-115420635D01*
X36157448Y-115413158D01*
X36087331Y-115419307D01*
X36036706Y-115444099D01*
X35991702Y-115484661D01*
X35942406Y-115544237D01*
X35925678Y-115598766D01*
X35946263Y-115653945D01*
X36008907Y-115715469D01*
X36118358Y-115789032D01*
X36279361Y-115880331D01*
X36355369Y-115921031D01*
X36598115Y-116057963D01*
X36785010Y-116184429D01*
X36921328Y-116307165D01*
X37012344Y-116432911D01*
X37063332Y-116568404D01*
X37079566Y-116720385D01*
X37073274Y-116838268D01*
X37023770Y-117034261D01*
X36922115Y-117201835D01*
X36774255Y-117338199D01*
X36586138Y-117440561D01*
X36363709Y-117506131D01*
X36112916Y-117532116D01*
X35839706Y-117515728D01*
X35687260Y-117488779D01*
X35549891Y-117455473D01*
X35411220Y-117416303D01*
X35330073Y-117389781D01*
X35179000Y-117335455D01*
X35179000Y-116683534D01*
X35433135Y-116806431D01*
X35653874Y-116898063D01*
X35851035Y-116949774D01*
X36018617Y-116961231D01*
X36150621Y-116932100D01*
X36241046Y-116862045D01*
X36248204Y-116851815D01*
X36280380Y-116782304D01*
X36275764Y-116718862D01*
X36229104Y-116655591D01*
X36135152Y-116586591D01*
X35988657Y-116505962D01*
X35902742Y-116463615D01*
X35758613Y-116391537D01*
X35624518Y-116319754D01*
X35517720Y-116257764D01*
X35465372Y-116222999D01*
X35314262Y-116074519D01*
X35212831Y-115900823D01*
X35161799Y-115712681D01*
X35161884Y-115520864D01*
X35213804Y-115336140D01*
X35318280Y-115169280D01*
X35390149Y-115096179D01*
X35545018Y-114986431D01*
X35721922Y-114915342D01*
X35933784Y-114878906D01*
X36113450Y-114871876D01*
X36438465Y-114899081D01*
G36*
X32279143Y-115616556D02*
G01*
X32357961Y-115815079D01*
X32429827Y-115992435D01*
X32491341Y-116140533D01*
X32539105Y-116251281D01*
X32569722Y-116316587D01*
X32579143Y-116330931D01*
X32596009Y-116303101D01*
X32632954Y-116224356D01*
X32686483Y-116102743D01*
X32753100Y-115946307D01*
X32829310Y-115763097D01*
X32885545Y-115625562D01*
X33172429Y-114919125D01*
X33591299Y-114910245D01*
X33769341Y-114908670D01*
X33900288Y-114912213D01*
X33978548Y-114920575D01*
X33999272Y-114932097D01*
X33984495Y-114966677D01*
X33946594Y-115053270D01*
X33888228Y-115185858D01*
X33812055Y-115358422D01*
X33720733Y-115564944D01*
X33616921Y-115799407D01*
X33503277Y-116055792D01*
X33416875Y-116250548D01*
X32845375Y-117538268D01*
X32585311Y-117538384D01*
X32463219Y-117535452D01*
X32367531Y-117527553D01*
X32314349Y-117516206D01*
X32309068Y-117512321D01*
X32292494Y-117477227D01*
X32254112Y-117391701D01*
X32197050Y-117262921D01*
X32124435Y-117098067D01*
X32039396Y-116904316D01*
X31945063Y-116688847D01*
X31844562Y-116458838D01*
X31741022Y-116221468D01*
X31637571Y-115983915D01*
X31537339Y-115753357D01*
X31443452Y-115536973D01*
X31359040Y-115341942D01*
X31287231Y-115175441D01*
X31231152Y-115044649D01*
X31193933Y-114956745D01*
X31178702Y-114918906D01*
X31178500Y-114918050D01*
X31208277Y-114912528D01*
X31289726Y-114907941D01*
X31411018Y-114904718D01*
X31560327Y-114903285D01*
X31588580Y-114903250D01*
X31998661Y-114903250D01*
X32279143Y-115616556D01*
G37*
X32279143Y-115616556D02*
X32357961Y-115815079D01*
X32429827Y-115992435D01*
X32491341Y-116140533D01*
X32539105Y-116251281D01*
X32569722Y-116316587D01*
X32579143Y-116330931D01*
X32596009Y-116303101D01*
X32632954Y-116224356D01*
X32686483Y-116102743D01*
X32753100Y-115946307D01*
X32829310Y-115763097D01*
X32885545Y-115625562D01*
X33172429Y-114919125D01*
X33591299Y-114910245D01*
X33769341Y-114908670D01*
X33900288Y-114912213D01*
X33978548Y-114920575D01*
X33999272Y-114932097D01*
X33984495Y-114966677D01*
X33946594Y-115053270D01*
X33888228Y-115185858D01*
X33812055Y-115358422D01*
X33720733Y-115564944D01*
X33616921Y-115799407D01*
X33503277Y-116055792D01*
X33416875Y-116250548D01*
X32845375Y-117538268D01*
X32585311Y-117538384D01*
X32463219Y-117535452D01*
X32367531Y-117527553D01*
X32314349Y-117516206D01*
X32309068Y-117512321D01*
X32292494Y-117477227D01*
X32254112Y-117391701D01*
X32197050Y-117262921D01*
X32124435Y-117098067D01*
X32039396Y-116904316D01*
X31945063Y-116688847D01*
X31844562Y-116458838D01*
X31741022Y-116221468D01*
X31637571Y-115983915D01*
X31537339Y-115753357D01*
X31443452Y-115536973D01*
X31359040Y-115341942D01*
X31287231Y-115175441D01*
X31231152Y-115044649D01*
X31193933Y-114956745D01*
X31178702Y-114918906D01*
X31178500Y-114918050D01*
X31208277Y-114912528D01*
X31289726Y-114907941D01*
X31411018Y-114904718D01*
X31560327Y-114903285D01*
X31588580Y-114903250D01*
X31998661Y-114903250D01*
X32279143Y-115616556D01*
D10*
X34290000Y-57150000D02*
X35560000Y-57150000D01*
X36830000Y-57150000D02*
X38100000Y-57150000D01*
X39370000Y-57150000D02*
X40640000Y-57150000D01*
X41910000Y-57150000D02*
X43180000Y-57150000D01*
X44450000Y-57150000D02*
X45720000Y-57150000D01*
X46990000Y-57150000D02*
X48260000Y-57150000D01*
X49530000Y-57150000D02*
X50800000Y-57150000D01*
X52070000Y-57150000D02*
X53340000Y-57150000D01*
X54610000Y-57150000D02*
X55880000Y-57150000D01*
X57150000Y-57150000D02*
X58420000Y-57150000D01*
X59690000Y-57150000D02*
X60960000Y-57150000D01*
X62230000Y-57150000D02*
X63500000Y-57150000D01*
X64770000Y-57150000D02*
X66040000Y-57150000D01*
X67310000Y-57150000D02*
X68580000Y-57150000D01*
X69850000Y-57150000D02*
X71120000Y-57150000D01*
X72390000Y-57150000D02*
X73660000Y-57150000D01*
X74930000Y-57150000D02*
X76200000Y-57150000D01*
X77470000Y-57150000D02*
X78740000Y-57150000D01*
X80010000Y-57150000D02*
X81280000Y-57150000D01*
X82550000Y-57150000D02*
X83820000Y-57150000D01*
X85090000Y-57150000D02*
X86360000Y-57150000D01*
X87630000Y-57150000D02*
X88900000Y-57150000D01*
X90170000Y-57150000D02*
X91440000Y-57150000D01*
X92710000Y-57150000D02*
X93980000Y-57150000D01*
X95250000Y-57150000D02*
X96520000Y-57150000D01*
X34290000Y-52070000D02*
X34290000Y-62230000D01*
X34290000Y-49530000D02*
X34290000Y-43180000D01*
X97790000Y-57150000D02*
X99060000Y-57150000D01*
X39370000Y-69850000D02*
X40640000Y-69850000D01*
X46990000Y-69850000D02*
X48260000Y-69850000D01*
X62230000Y-69850000D02*
X63500000Y-69850000D01*
X44450000Y-69850000D02*
X45720000Y-69850000D01*
X64770000Y-69850000D02*
X66040000Y-69850000D01*
X69850000Y-69850000D02*
X71120000Y-69850000D01*
X41910000Y-69850000D02*
X43180000Y-69850000D01*
X74930000Y-69850000D02*
X76200000Y-69850000D01*
X52070000Y-69850000D02*
X53340000Y-69850000D01*
X67310000Y-69850000D02*
X68580000Y-69850000D01*
X57150000Y-69850000D02*
X58420000Y-69850000D01*
X54610000Y-69850000D02*
X55880000Y-69850000D01*
X72390000Y-69850000D02*
X73660000Y-69850000D01*
X34290000Y-69850000D02*
X35560000Y-69850000D01*
X49530000Y-69850000D02*
X50800000Y-69850000D01*
X59690000Y-69850000D02*
X60960000Y-69850000D01*
X80010000Y-69850000D02*
X81280000Y-69850000D01*
X36830000Y-69850000D02*
X38100000Y-69850000D01*
X77470000Y-69850000D02*
X78740000Y-69850000D01*
X82550000Y-69850000D02*
X83820000Y-69850000D01*
X85090000Y-69850000D02*
X86360000Y-69850000D01*
X97790000Y-69850000D02*
X99060000Y-69850000D01*
X95250000Y-69850000D02*
X96520000Y-69850000D01*
X92710000Y-69850000D02*
X93980000Y-69850000D01*
X90170000Y-69850000D02*
X91440000Y-69850000D01*
X87630000Y-69850000D02*
X88900000Y-69850000D01*
X39370000Y-82550000D02*
X40640000Y-82550000D01*
X46990000Y-82550000D02*
X48260000Y-82550000D01*
X62230000Y-82550000D02*
X63500000Y-82550000D01*
X44450000Y-82550000D02*
X45720000Y-82550000D01*
X64770000Y-82550000D02*
X66040000Y-82550000D01*
X69850000Y-82550000D02*
X71120000Y-82550000D01*
X41910000Y-82550000D02*
X43180000Y-82550000D01*
X74930000Y-82550000D02*
X76200000Y-82550000D01*
X52070000Y-82550000D02*
X53340000Y-82550000D01*
X67310000Y-82550000D02*
X68580000Y-82550000D01*
X57150000Y-82550000D02*
X58420000Y-82550000D01*
X54610000Y-82550000D02*
X55880000Y-82550000D01*
X72390000Y-82550000D02*
X73660000Y-82550000D01*
X34290000Y-82550000D02*
X35560000Y-82550000D01*
X49530000Y-82550000D02*
X50800000Y-82550000D01*
X59690000Y-82550000D02*
X60960000Y-82550000D01*
X80010000Y-82550000D02*
X81280000Y-82550000D01*
X36830000Y-82550000D02*
X38100000Y-82550000D01*
X77470000Y-82550000D02*
X78740000Y-82550000D01*
X82550000Y-82550000D02*
X83820000Y-82550000D01*
X85090000Y-82550000D02*
X86360000Y-82550000D01*
X97790000Y-82550000D02*
X99060000Y-82550000D01*
X95250000Y-82550000D02*
X96520000Y-82550000D01*
X92710000Y-82550000D02*
X93980000Y-82550000D01*
X90170000Y-82550000D02*
X91440000Y-82550000D01*
X87630000Y-82550000D02*
X88900000Y-82550000D01*
X39370000Y-95250000D02*
X40640000Y-95250000D01*
X46990000Y-95250000D02*
X48260000Y-95250000D01*
X62230000Y-95250000D02*
X63500000Y-95250000D01*
X44450000Y-95250000D02*
X45720000Y-95250000D01*
X64770000Y-95250000D02*
X66040000Y-95250000D01*
X69850000Y-95250000D02*
X71120000Y-95250000D01*
X41910000Y-95250000D02*
X43180000Y-95250000D01*
X74930000Y-95250000D02*
X76200000Y-95250000D01*
X52070000Y-95250000D02*
X53340000Y-95250000D01*
X67310000Y-95250000D02*
X68580000Y-95250000D01*
X57150000Y-95250000D02*
X58420000Y-95250000D01*
X54610000Y-95250000D02*
X55880000Y-95250000D01*
X72390000Y-95250000D02*
X73660000Y-95250000D01*
X34290000Y-95250000D02*
X35560000Y-95250000D01*
X49530000Y-95250000D02*
X50800000Y-95250000D01*
X59690000Y-95250000D02*
X60960000Y-95250000D01*
X80010000Y-95250000D02*
X81280000Y-95250000D01*
X36830000Y-95250000D02*
X38100000Y-95250000D01*
X77470000Y-95250000D02*
X78740000Y-95250000D01*
X82550000Y-95250000D02*
X83820000Y-95250000D01*
X85090000Y-95250000D02*
X86360000Y-95250000D01*
X97790000Y-95250000D02*
X99060000Y-95250000D01*
X95250000Y-95250000D02*
X96520000Y-95250000D01*
X92710000Y-95250000D02*
X93980000Y-95250000D01*
X90170000Y-95250000D02*
X91440000Y-95250000D01*
X87630000Y-95250000D02*
X88900000Y-95250000D01*
X48260000Y-104140000D02*
X48260000Y-102870000D01*
X48260000Y-96520000D02*
X48260000Y-95250000D01*
X48260000Y-81280000D02*
X48260000Y-80010000D01*
X48260000Y-99060000D02*
X48260000Y-97790000D01*
X48260000Y-78740000D02*
X48260000Y-77470000D01*
X48260000Y-73660000D02*
X48260000Y-72390000D01*
X48260000Y-101600000D02*
X48260000Y-100330000D01*
X48260000Y-68580000D02*
X48260000Y-67310000D01*
X48260000Y-91440000D02*
X48260000Y-90170000D01*
X48260000Y-76200000D02*
X48260000Y-74930000D01*
X48260000Y-86360000D02*
X48260000Y-85090000D01*
X48260000Y-88900000D02*
X48260000Y-87630000D01*
X48260000Y-71120000D02*
X48260000Y-69850000D01*
X48260000Y-109220000D02*
X48260000Y-107950000D01*
X48260000Y-93980000D02*
X48260000Y-92710000D01*
X48260000Y-83820000D02*
X48260000Y-82550000D01*
X48260000Y-63500000D02*
X48260000Y-62230000D01*
X48260000Y-106680000D02*
X48260000Y-105410000D01*
X48260000Y-66040000D02*
X48260000Y-64770000D01*
X48260000Y-60960000D02*
X48260000Y-59690000D01*
X48260000Y-58420000D02*
X48260000Y-57150000D01*
X48260000Y-45720000D02*
X48260000Y-44450000D01*
X48260000Y-48260000D02*
X48260000Y-46990000D01*
X48260000Y-50800000D02*
X48260000Y-49530000D01*
X48260000Y-53340000D02*
X48260000Y-52070000D01*
X48260000Y-55880000D02*
X48260000Y-54610000D01*
X86360000Y-104140000D02*
X86360000Y-102870000D01*
X86360000Y-96520000D02*
X86360000Y-95250000D01*
X86360000Y-81280000D02*
X86360000Y-80010000D01*
X86360000Y-99060000D02*
X86360000Y-97790000D01*
X86360000Y-78740000D02*
X86360000Y-77470000D01*
X86360000Y-73660000D02*
X86360000Y-72390000D01*
X86360000Y-101600000D02*
X86360000Y-100330000D01*
X86360000Y-68580000D02*
X86360000Y-67310000D01*
X86360000Y-91440000D02*
X86360000Y-90170000D01*
X86360000Y-76200000D02*
X86360000Y-74930000D01*
X86360000Y-86360000D02*
X86360000Y-85090000D01*
X86360000Y-88900000D02*
X86360000Y-87630000D01*
X86360000Y-71120000D02*
X86360000Y-69850000D01*
X86360000Y-109220000D02*
X86360000Y-107950000D01*
X86360000Y-93980000D02*
X86360000Y-92710000D01*
X86360000Y-83820000D02*
X86360000Y-82550000D01*
X86360000Y-63500000D02*
X86360000Y-62230000D01*
X86360000Y-106680000D02*
X86360000Y-105410000D01*
X86360000Y-66040000D02*
X86360000Y-64770000D01*
X86360000Y-60960000D02*
X86360000Y-59690000D01*
X86360000Y-58420000D02*
X86360000Y-57150000D01*
X86360000Y-45720000D02*
X86360000Y-44450000D01*
X86360000Y-48260000D02*
X86360000Y-46990000D01*
X86360000Y-50800000D02*
X86360000Y-49530000D01*
X86360000Y-53340000D02*
X86360000Y-52070000D01*
X86360000Y-55880000D02*
X86360000Y-54610000D01*
X73660000Y-104140000D02*
X73660000Y-102870000D01*
X73660000Y-96520000D02*
X73660000Y-95250000D01*
X73660000Y-81280000D02*
X73660000Y-80010000D01*
X73660000Y-99060000D02*
X73660000Y-97790000D01*
X73660000Y-78740000D02*
X73660000Y-77470000D01*
X73660000Y-73660000D02*
X73660000Y-72390000D01*
X73660000Y-101600000D02*
X73660000Y-100330000D01*
X73660000Y-76200000D02*
X73660000Y-74930000D01*
X73660000Y-71120000D02*
X73660000Y-69850000D01*
X73660000Y-109220000D02*
X73660000Y-107950000D01*
X73660000Y-106680000D02*
X73660000Y-105410000D01*
X73660000Y-45720000D02*
X73660000Y-44450000D01*
X73660000Y-48260000D02*
X73660000Y-46990000D01*
X73660000Y-50800000D02*
X73660000Y-49530000D01*
X73660000Y-53340000D02*
X73660000Y-52070000D01*
X73660000Y-55880000D02*
X73660000Y-54610000D01*
X60960000Y-104140000D02*
X60960000Y-102870000D01*
X60960000Y-96520000D02*
X60960000Y-95250000D01*
X60960000Y-81280000D02*
X60960000Y-80010000D01*
X60960000Y-99060000D02*
X60960000Y-97790000D01*
X60960000Y-78740000D02*
X60960000Y-77470000D01*
X60960000Y-73660000D02*
X60960000Y-72390000D01*
X60960000Y-101600000D02*
X60960000Y-100330000D01*
X60960000Y-76200000D02*
X60960000Y-74930000D01*
X60960000Y-71120000D02*
X60960000Y-69850000D01*
X60960000Y-109220000D02*
X60960000Y-107950000D01*
X60960000Y-106680000D02*
X60960000Y-105410000D01*
X60960000Y-45720000D02*
X60960000Y-44450000D01*
X60960000Y-48260000D02*
X60960000Y-46990000D01*
X60960000Y-50800000D02*
X60960000Y-49530000D01*
X60960000Y-53340000D02*
X60960000Y-52070000D01*
X60960000Y-55880000D02*
X60960000Y-54610000D01*
X34290000Y-64770000D02*
X34290000Y-74930000D01*
X34290000Y-77470000D02*
X34290000Y-87630000D01*
X34290000Y-90170000D02*
X34290000Y-100330000D01*
X34290000Y-102870000D02*
X34290000Y-109220000D01*
X34290000Y-109220000D02*
X40640000Y-109220000D01*
X43180000Y-109220000D02*
X53340000Y-109220000D01*
X55880000Y-109220000D02*
X66040000Y-109220000D01*
X78740000Y-109220000D02*
X68580000Y-109220000D01*
X81280000Y-109220000D02*
X91440000Y-109220000D01*
X93980000Y-109220000D02*
X100330000Y-109220000D01*
X34180000Y-37575000D02*
X34180000Y-32275000D01*
X100440000Y-37575000D02*
X34180000Y-37575000D01*
X100440000Y-32275000D02*
X100440000Y-37575000D01*
X34180000Y-32275000D02*
X100440000Y-32275000D01*
X34180000Y-32495000D02*
X34180000Y-27195000D01*
X100440000Y-32495000D02*
X34180000Y-32495000D01*
X100440000Y-27195000D02*
X100440000Y-32495000D01*
X34180000Y-27195000D02*
X100440000Y-27195000D01*
X55880000Y-67310000D02*
X60960000Y-67310000D01*
X78740000Y-67310000D02*
X73660000Y-67310000D01*
X55880000Y-57150000D02*
X55880000Y-67310000D01*
X78740000Y-57150000D02*
X78740000Y-67310000D01*
X55880000Y-57150000D02*
X78740000Y-57150000D01*
X66640000Y-59690000D02*
G75*
G03*
X66640000Y-59690000I-600000J0D01*
G01*
X66440000Y-59690000D02*
G75*
G03*
X66440000Y-59690000I-400000J0D01*
G01*
X66240000Y-59690000D02*
G75*
G03*
X66240000Y-59690000I-200000J0D01*
G01*
X66140000Y-59690000D02*
G75*
G03*
X66140000Y-59690000I-100000J0D01*
G01*
X55880000Y-92710000D02*
X60960000Y-92710000D01*
X78740000Y-92710000D02*
X73660000Y-92710000D01*
X55880000Y-82550000D02*
X55880000Y-92710000D01*
X78740000Y-82550000D02*
X78740000Y-92710000D01*
X55880000Y-82550000D02*
X78740000Y-82550000D01*
X66640000Y-85090000D02*
G75*
G03*
X66640000Y-85090000I-600000J0D01*
G01*
X66440000Y-85090000D02*
G75*
G03*
X66440000Y-85090000I-400000J0D01*
G01*
X66240000Y-85090000D02*
G75*
G03*
X66240000Y-85090000I-200000J0D01*
G01*
X66140000Y-85090000D02*
G75*
G03*
X66140000Y-85090000I-100000J0D01*
G01*
D14*
X25527142Y-102167142D02*
X25479523Y-102214761D01*
X25336666Y-102262380D01*
X25241428Y-102262380D01*
X25098571Y-102214761D01*
X25003333Y-102119523D01*
X24955714Y-102024285D01*
X24908095Y-101833809D01*
X24908095Y-101690952D01*
X24955714Y-101500476D01*
X25003333Y-101405238D01*
X25098571Y-101310000D01*
X25241428Y-101262380D01*
X25336666Y-101262380D01*
X25479523Y-101310000D01*
X25527142Y-101357619D01*
X25955714Y-102262380D02*
X25955714Y-101262380D01*
X25955714Y-101738571D02*
X26527142Y-101738571D01*
X26527142Y-102262380D02*
X26527142Y-101262380D01*
X26955714Y-101976666D02*
X27431904Y-101976666D01*
X26860476Y-102262380D02*
X27193809Y-101262380D01*
X27527142Y-102262380D01*
X28431904Y-102262380D02*
X28098571Y-101786190D01*
X27860476Y-102262380D02*
X27860476Y-101262380D01*
X28241428Y-101262380D01*
X28336666Y-101310000D01*
X28384285Y-101357619D01*
X28431904Y-101452857D01*
X28431904Y-101595714D01*
X28384285Y-101690952D01*
X28336666Y-101738571D01*
X28241428Y-101786190D01*
X27860476Y-101786190D01*
X25027142Y-92372380D02*
X25360476Y-93372380D01*
X25693809Y-92372380D01*
X26360476Y-92848571D02*
X26503333Y-92896190D01*
X26550952Y-92943809D01*
X26598571Y-93039047D01*
X26598571Y-93181904D01*
X26550952Y-93277142D01*
X26503333Y-93324761D01*
X26408095Y-93372380D01*
X26027142Y-93372380D01*
X26027142Y-92372380D01*
X26360476Y-92372380D01*
X26455714Y-92420000D01*
X26503333Y-92467619D01*
X26550952Y-92562857D01*
X26550952Y-92658095D01*
X26503333Y-92753333D01*
X26455714Y-92800952D01*
X26360476Y-92848571D01*
X26027142Y-92848571D01*
X26979523Y-93086666D02*
X27455714Y-93086666D01*
X26884285Y-93372380D02*
X27217619Y-92372380D01*
X27550952Y-93372380D01*
X27741428Y-92372380D02*
X28312857Y-92372380D01*
X28027142Y-93372380D02*
X28027142Y-92372380D01*
D10*
X26503333Y-56882380D02*
X26170000Y-56406190D01*
X25931904Y-56882380D02*
X25931904Y-55882380D01*
X26312857Y-55882380D01*
X26408095Y-55930000D01*
X26455714Y-55977619D01*
X26503333Y-56072857D01*
X26503333Y-56215714D01*
X26455714Y-56310952D01*
X26408095Y-56358571D01*
X26312857Y-56406190D01*
X25931904Y-56406190D01*
X26884285Y-55977619D02*
X26931904Y-55930000D01*
X27027142Y-55882380D01*
X27265238Y-55882380D01*
X27360476Y-55930000D01*
X27408095Y-55977619D01*
X27455714Y-56072857D01*
X27455714Y-56168095D01*
X27408095Y-56310952D01*
X26836666Y-56882380D01*
X27455714Y-56882380D01*
X26503333Y-44012380D02*
X26170000Y-43536190D01*
X25931904Y-44012380D02*
X25931904Y-43012380D01*
X26312857Y-43012380D01*
X26408095Y-43060000D01*
X26455714Y-43107619D01*
X26503333Y-43202857D01*
X26503333Y-43345714D01*
X26455714Y-43440952D01*
X26408095Y-43488571D01*
X26312857Y-43536190D01*
X25931904Y-43536190D01*
X27455714Y-44012380D02*
X26884285Y-44012380D01*
X27170000Y-44012380D02*
X27170000Y-43012380D01*
X27074761Y-43155238D01*
X26979523Y-43250476D01*
X26884285Y-43298095D01*
X26479523Y-83272380D02*
X26003333Y-83272380D01*
X25955714Y-83748571D01*
X26003333Y-83700952D01*
X26098571Y-83653333D01*
X26336666Y-83653333D01*
X26431904Y-83700952D01*
X26479523Y-83748571D01*
X26527142Y-83843809D01*
X26527142Y-84081904D01*
X26479523Y-84177142D01*
X26431904Y-84224761D01*
X26336666Y-84272380D01*
X26098571Y-84272380D01*
X26003333Y-84224761D01*
X25955714Y-84177142D01*
X26812857Y-83272380D02*
X27146190Y-84272380D01*
X27479523Y-83272380D01*
X25360476Y-33587142D02*
X25312857Y-33634761D01*
X25170000Y-33682380D01*
X25074761Y-33682380D01*
X24931904Y-33634761D01*
X24836666Y-33539523D01*
X24789047Y-33444285D01*
X24741428Y-33253809D01*
X24741428Y-33110952D01*
X24789047Y-32920476D01*
X24836666Y-32825238D01*
X24931904Y-32730000D01*
X25074761Y-32682380D01*
X25170000Y-32682380D01*
X25312857Y-32730000D01*
X25360476Y-32777619D01*
X25741428Y-33396666D02*
X26217619Y-33396666D01*
X25646190Y-33682380D02*
X25979523Y-32682380D01*
X26312857Y-33682380D01*
X26646190Y-33682380D02*
X26646190Y-32682380D01*
X27217619Y-33682380D01*
X27217619Y-32682380D01*
X27693809Y-33587142D02*
X27741428Y-33634761D01*
X27693809Y-33682380D01*
X27646190Y-33634761D01*
X27693809Y-33587142D01*
X27693809Y-33682380D01*
X28122380Y-33396666D02*
X28598571Y-33396666D01*
X28027142Y-33682380D02*
X28360476Y-32682380D01*
X28693809Y-33682380D01*
X25289047Y-46287142D02*
X25241428Y-46334761D01*
X25098571Y-46382380D01*
X25003333Y-46382380D01*
X24860476Y-46334761D01*
X24765238Y-46239523D01*
X24717619Y-46144285D01*
X24670000Y-45953809D01*
X24670000Y-45810952D01*
X24717619Y-45620476D01*
X24765238Y-45525238D01*
X24860476Y-45430000D01*
X25003333Y-45382380D01*
X25098571Y-45382380D01*
X25241428Y-45430000D01*
X25289047Y-45477619D01*
X25670000Y-46096666D02*
X26146190Y-46096666D01*
X25574761Y-46382380D02*
X25908095Y-45382380D01*
X26241428Y-46382380D01*
X26574761Y-46382380D02*
X26574761Y-45382380D01*
X27146190Y-46382380D01*
X27146190Y-45382380D01*
X27622380Y-46287142D02*
X27670000Y-46334761D01*
X27622380Y-46382380D01*
X27574761Y-46334761D01*
X27622380Y-46287142D01*
X27622380Y-46382380D01*
X28431904Y-45858571D02*
X28574761Y-45906190D01*
X28622380Y-45953809D01*
X28670000Y-46049047D01*
X28670000Y-46191904D01*
X28622380Y-46287142D01*
X28574761Y-46334761D01*
X28479523Y-46382380D01*
X28098571Y-46382380D01*
X28098571Y-45382380D01*
X28431904Y-45382380D01*
X28527142Y-45430000D01*
X28574761Y-45477619D01*
X28622380Y-45572857D01*
X28622380Y-45668095D01*
X28574761Y-45763333D01*
X28527142Y-45810952D01*
X28431904Y-45858571D01*
X28098571Y-45858571D01*
X34528095Y-50252380D02*
X34051904Y-50252380D01*
X34004285Y-50728571D01*
X34051904Y-50680952D01*
X34147142Y-50633333D01*
X34385238Y-50633333D01*
X34480476Y-50680952D01*
X34528095Y-50728571D01*
X34575714Y-50823809D01*
X34575714Y-51061904D01*
X34528095Y-51157142D01*
X34480476Y-51204761D01*
X34385238Y-51252380D01*
X34147142Y-51252380D01*
X34051904Y-51204761D01*
X34004285Y-51157142D01*
X34480476Y-63285714D02*
X34480476Y-63952380D01*
X34242380Y-62904761D02*
X34004285Y-63619047D01*
X34623333Y-63619047D01*
X33956666Y-75652380D02*
X34575714Y-75652380D01*
X34242380Y-76033333D01*
X34385238Y-76033333D01*
X34480476Y-76080952D01*
X34528095Y-76128571D01*
X34575714Y-76223809D01*
X34575714Y-76461904D01*
X34528095Y-76557142D01*
X34480476Y-76604761D01*
X34385238Y-76652380D01*
X34099523Y-76652380D01*
X34004285Y-76604761D01*
X33956666Y-76557142D01*
X34004285Y-88447619D02*
X34051904Y-88400000D01*
X34147142Y-88352380D01*
X34385238Y-88352380D01*
X34480476Y-88400000D01*
X34528095Y-88447619D01*
X34575714Y-88542857D01*
X34575714Y-88638095D01*
X34528095Y-88780952D01*
X33956666Y-89352380D01*
X34575714Y-89352380D01*
X34575714Y-102052380D02*
X34004285Y-102052380D01*
X34290000Y-102052380D02*
X34290000Y-101052380D01*
X34194761Y-101195238D01*
X34099523Y-101290476D01*
X34004285Y-101338095D01*
X41576666Y-108672380D02*
X41910000Y-109672380D01*
X42243333Y-108672380D01*
X54181428Y-108672380D02*
X54419523Y-109672380D01*
X54610000Y-108958095D01*
X54800476Y-109672380D01*
X55038571Y-108672380D01*
X66976666Y-108672380D02*
X67643333Y-109672380D01*
X67643333Y-108672380D02*
X66976666Y-109672380D01*
X80010000Y-109196190D02*
X80010000Y-109672380D01*
X79676666Y-108672380D02*
X80010000Y-109196190D01*
X80343333Y-108672380D01*
X92376666Y-108672380D02*
X93043333Y-108672380D01*
X92376666Y-109672380D01*
X93043333Y-109672380D01*
X62047380Y-63206190D02*
X61047380Y-63206190D01*
X61952142Y-62158571D02*
X61999761Y-62206190D01*
X62047380Y-62349047D01*
X62047380Y-62444285D01*
X61999761Y-62587142D01*
X61904523Y-62682380D01*
X61809285Y-62730000D01*
X61618809Y-62777619D01*
X61475952Y-62777619D01*
X61285476Y-62730000D01*
X61190238Y-62682380D01*
X61095000Y-62587142D01*
X61047380Y-62444285D01*
X61047380Y-62349047D01*
X61095000Y-62206190D01*
X61142619Y-62158571D01*
X62047380Y-61206190D02*
X62047380Y-61777619D01*
X62047380Y-61491904D02*
X61047380Y-61491904D01*
X61190238Y-61587142D01*
X61285476Y-61682380D01*
X61333095Y-61777619D01*
X61880714Y-58872380D02*
X61309285Y-58872380D01*
X61595000Y-58872380D02*
X61595000Y-57872380D01*
X61499761Y-58015238D01*
X61404523Y-58110476D01*
X61309285Y-58158095D01*
X61261666Y-65492380D02*
X61928333Y-65492380D01*
X61499761Y-66492380D01*
X72834523Y-66492380D02*
X72263095Y-66492380D01*
X72548809Y-66492380D02*
X72548809Y-65492380D01*
X72453571Y-65635238D01*
X72358333Y-65730476D01*
X72263095Y-65778095D01*
X73453571Y-65492380D02*
X73548809Y-65492380D01*
X73644047Y-65540000D01*
X73691666Y-65587619D01*
X73739285Y-65682857D01*
X73786904Y-65873333D01*
X73786904Y-66111428D01*
X73739285Y-66301904D01*
X73691666Y-66397142D01*
X73644047Y-66444761D01*
X73548809Y-66492380D01*
X73453571Y-66492380D01*
X73358333Y-66444761D01*
X73310714Y-66397142D01*
X73263095Y-66301904D01*
X73215476Y-66111428D01*
X73215476Y-65873333D01*
X73263095Y-65682857D01*
X73310714Y-65587619D01*
X73358333Y-65540000D01*
X73453571Y-65492380D01*
X72834523Y-58872380D02*
X72263095Y-58872380D01*
X72548809Y-58872380D02*
X72548809Y-57872380D01*
X72453571Y-58015238D01*
X72358333Y-58110476D01*
X72263095Y-58158095D01*
X73691666Y-57872380D02*
X73501190Y-57872380D01*
X73405952Y-57920000D01*
X73358333Y-57967619D01*
X73263095Y-58110476D01*
X73215476Y-58300952D01*
X73215476Y-58681904D01*
X73263095Y-58777142D01*
X73310714Y-58824761D01*
X73405952Y-58872380D01*
X73596428Y-58872380D01*
X73691666Y-58824761D01*
X73739285Y-58777142D01*
X73786904Y-58681904D01*
X73786904Y-58443809D01*
X73739285Y-58348571D01*
X73691666Y-58300952D01*
X73596428Y-58253333D01*
X73405952Y-58253333D01*
X73310714Y-58300952D01*
X73263095Y-58348571D01*
X73215476Y-58443809D01*
X62047380Y-88606190D02*
X61047380Y-88606190D01*
X61952142Y-87558571D02*
X61999761Y-87606190D01*
X62047380Y-87749047D01*
X62047380Y-87844285D01*
X61999761Y-87987142D01*
X61904523Y-88082380D01*
X61809285Y-88130000D01*
X61618809Y-88177619D01*
X61475952Y-88177619D01*
X61285476Y-88130000D01*
X61190238Y-88082380D01*
X61095000Y-87987142D01*
X61047380Y-87844285D01*
X61047380Y-87749047D01*
X61095000Y-87606190D01*
X61142619Y-87558571D01*
X61142619Y-87177619D02*
X61095000Y-87130000D01*
X61047380Y-87034761D01*
X61047380Y-86796666D01*
X61095000Y-86701428D01*
X61142619Y-86653809D01*
X61237857Y-86606190D01*
X61333095Y-86606190D01*
X61475952Y-86653809D01*
X62047380Y-87225238D01*
X62047380Y-86606190D01*
X61880714Y-84272380D02*
X61309285Y-84272380D01*
X61595000Y-84272380D02*
X61595000Y-83272380D01*
X61499761Y-83415238D01*
X61404523Y-83510476D01*
X61309285Y-83558095D01*
X61261666Y-90892380D02*
X61928333Y-90892380D01*
X61499761Y-91892380D01*
X72834523Y-91892380D02*
X72263095Y-91892380D01*
X72548809Y-91892380D02*
X72548809Y-90892380D01*
X72453571Y-91035238D01*
X72358333Y-91130476D01*
X72263095Y-91178095D01*
X73453571Y-90892380D02*
X73548809Y-90892380D01*
X73644047Y-90940000D01*
X73691666Y-90987619D01*
X73739285Y-91082857D01*
X73786904Y-91273333D01*
X73786904Y-91511428D01*
X73739285Y-91701904D01*
X73691666Y-91797142D01*
X73644047Y-91844761D01*
X73548809Y-91892380D01*
X73453571Y-91892380D01*
X73358333Y-91844761D01*
X73310714Y-91797142D01*
X73263095Y-91701904D01*
X73215476Y-91511428D01*
X73215476Y-91273333D01*
X73263095Y-91082857D01*
X73310714Y-90987619D01*
X73358333Y-90940000D01*
X73453571Y-90892380D01*
X72834523Y-84272380D02*
X72263095Y-84272380D01*
X72548809Y-84272380D02*
X72548809Y-83272380D01*
X72453571Y-83415238D01*
X72358333Y-83510476D01*
X72263095Y-83558095D01*
X73691666Y-83272380D02*
X73501190Y-83272380D01*
X73405952Y-83320000D01*
X73358333Y-83367619D01*
X73263095Y-83510476D01*
X73215476Y-83700952D01*
X73215476Y-84081904D01*
X73263095Y-84177142D01*
X73310714Y-84224761D01*
X73405952Y-84272380D01*
X73596428Y-84272380D01*
X73691666Y-84224761D01*
X73739285Y-84177142D01*
X73786904Y-84081904D01*
X73786904Y-83843809D01*
X73739285Y-83748571D01*
X73691666Y-83700952D01*
X73596428Y-83653333D01*
X73405952Y-83653333D01*
X73310714Y-83700952D01*
X73263095Y-83748571D01*
X73215476Y-83843809D01*
M02*
