G04 #@! TF.GenerationSoftware,KiCad,Pcbnew,(5.1.6)-1*
G04 #@! TF.CreationDate,2020-06-25T15:36:58+02:00*
G04 #@! TF.ProjectId,board_zero,626f6172-645f-47a6-9572-6f2e6b696361,1.0*
G04 #@! TF.SameCoordinates,Original*
G04 #@! TF.FileFunction,Copper,L2,Inr*
G04 #@! TF.FilePolarity,Positive*
%FSLAX46Y46*%
G04 Gerber Fmt 4.6, Leading zero omitted, Abs format (unit mm)*
G04 Created by KiCad (PCBNEW (5.1.6)-1) date 2020-06-25 15:36:58*
%MOMM*%
%LPD*%
G01*
G04 APERTURE LIST*
G04 #@! TA.AperFunction,ViaPad*
%ADD10R,1.700000X1.700000*%
G04 #@! TD*
G04 #@! TA.AperFunction,ViaPad*
%ADD11O,1.700000X1.700000*%
G04 #@! TD*
G04 #@! TA.AperFunction,ViaPad*
%ADD12C,1.685000*%
G04 #@! TD*
G04 #@! TA.AperFunction,ViaPad*
%ADD13C,1.310000*%
G04 #@! TD*
G04 #@! TA.AperFunction,ViaPad*
%ADD14C,0.800000*%
G04 #@! TD*
G04 #@! TA.AperFunction,ViaPad*
%ADD15C,6.400000*%
G04 #@! TD*
G04 #@! TA.AperFunction,ViaPad*
%ADD16R,1.524000X3.048000*%
G04 #@! TD*
G04 #@! TA.AperFunction,ViaPad*
%ADD17O,1.524000X3.048000*%
G04 #@! TD*
G04 #@! TA.AperFunction,ViaPad*
%ADD18R,3.048000X1.524000*%
G04 #@! TD*
G04 #@! TA.AperFunction,ViaPad*
%ADD19O,3.048000X1.524000*%
G04 #@! TD*
G04 #@! TA.AperFunction,Conductor*
%ADD20C,0.350000*%
G04 #@! TD*
G04 APERTURE END LIST*
D10*
X26670000Y-104140000D03*
D11*
X26670000Y-106680000D03*
D10*
X26670000Y-95250000D03*
D11*
X26670000Y-97790000D03*
D10*
X26670000Y-86360000D03*
D11*
X26670000Y-88900000D03*
D10*
X26670000Y-35560000D03*
D11*
X26670000Y-38100000D03*
D10*
X26670000Y-48260000D03*
D11*
X26670000Y-50800000D03*
D12*
X36830000Y-45720000D03*
X39370000Y-45720000D03*
X41910000Y-45720000D03*
X44450000Y-45720000D03*
X46990000Y-45720000D03*
X49530000Y-45720000D03*
X52070000Y-45720000D03*
X54610000Y-45720000D03*
X57150000Y-45720000D03*
X59690000Y-45720000D03*
X62230000Y-45720000D03*
X64770000Y-45720000D03*
X67310000Y-45720000D03*
X69850000Y-45720000D03*
X72390000Y-45720000D03*
X74930000Y-45720000D03*
X77470000Y-45720000D03*
X80010000Y-45720000D03*
X82550000Y-45720000D03*
X85090000Y-45720000D03*
X87630000Y-45720000D03*
X90170000Y-45720000D03*
X92710000Y-45720000D03*
X95250000Y-45720000D03*
X97790000Y-45720000D03*
X36830000Y-48260000D03*
X39370000Y-48260000D03*
X41910000Y-48260000D03*
X44450000Y-48260000D03*
X46990000Y-48260000D03*
X49530000Y-48260000D03*
X52070000Y-48260000D03*
X54610000Y-48260000D03*
X57150000Y-48260000D03*
X59690000Y-48260000D03*
X62230000Y-48260000D03*
X64770000Y-48260000D03*
X67310000Y-48260000D03*
X69850000Y-48260000D03*
X72390000Y-48260000D03*
X74930000Y-48260000D03*
X77470000Y-48260000D03*
X80010000Y-48260000D03*
X82550000Y-48260000D03*
X85090000Y-48260000D03*
X87630000Y-48260000D03*
X90170000Y-48260000D03*
X92710000Y-48260000D03*
X95250000Y-48260000D03*
X97790000Y-48260000D03*
X36830000Y-50800000D03*
X39370000Y-50800000D03*
X41910000Y-50800000D03*
X44450000Y-50800000D03*
X46990000Y-50800000D03*
X49530000Y-50800000D03*
X52070000Y-50800000D03*
X54610000Y-50800000D03*
X57150000Y-50800000D03*
X59690000Y-50800000D03*
X62230000Y-50800000D03*
X64770000Y-50800000D03*
X67310000Y-50800000D03*
X69850000Y-50800000D03*
X72390000Y-50800000D03*
X74930000Y-50800000D03*
X77470000Y-50800000D03*
X80010000Y-50800000D03*
X82550000Y-50800000D03*
X85090000Y-50800000D03*
X87630000Y-50800000D03*
X90170000Y-50800000D03*
X92710000Y-50800000D03*
X95250000Y-50800000D03*
X97790000Y-50800000D03*
X36830000Y-53340000D03*
X39370000Y-53340000D03*
X41910000Y-53340000D03*
X44450000Y-53340000D03*
X46990000Y-53340000D03*
X49530000Y-53340000D03*
X52070000Y-53340000D03*
X54610000Y-53340000D03*
X57150000Y-53340000D03*
X59690000Y-53340000D03*
X62230000Y-53340000D03*
X64770000Y-53340000D03*
X67310000Y-53340000D03*
X69850000Y-53340000D03*
X72390000Y-53340000D03*
X74930000Y-53340000D03*
X77470000Y-53340000D03*
X80010000Y-53340000D03*
X82550000Y-53340000D03*
X85090000Y-53340000D03*
X87630000Y-53340000D03*
X90170000Y-53340000D03*
X92710000Y-53340000D03*
X95250000Y-53340000D03*
X97790000Y-53340000D03*
X36830000Y-55880000D03*
X39370000Y-55880000D03*
X41910000Y-55880000D03*
X44450000Y-55880000D03*
X46990000Y-55880000D03*
X49530000Y-55880000D03*
X52070000Y-55880000D03*
X54610000Y-55880000D03*
X57150000Y-55880000D03*
X59690000Y-55880000D03*
X62230000Y-55880000D03*
X64770000Y-55880000D03*
X67310000Y-55880000D03*
X69850000Y-55880000D03*
X72390000Y-55880000D03*
X74930000Y-55880000D03*
X77470000Y-55880000D03*
X80010000Y-55880000D03*
X82550000Y-55880000D03*
X85090000Y-55880000D03*
X87630000Y-55880000D03*
X90170000Y-55880000D03*
X92710000Y-55880000D03*
X95250000Y-55880000D03*
X97790000Y-55880000D03*
X36830000Y-58420000D03*
X39370000Y-58420000D03*
X41910000Y-58420000D03*
X44450000Y-58420000D03*
X46990000Y-58420000D03*
X49530000Y-58420000D03*
X52070000Y-58420000D03*
X54610000Y-58420000D03*
X80010000Y-58420000D03*
X82550000Y-58420000D03*
X85090000Y-58420000D03*
X87630000Y-58420000D03*
X90170000Y-58420000D03*
X92710000Y-58420000D03*
X95250000Y-58420000D03*
X97790000Y-58420000D03*
X36830000Y-60960000D03*
X39370000Y-60960000D03*
X41910000Y-60960000D03*
X44450000Y-60960000D03*
X46990000Y-60960000D03*
X49530000Y-60960000D03*
X52070000Y-60960000D03*
X54610000Y-60960000D03*
X80010000Y-60960000D03*
X82550000Y-60960000D03*
X85090000Y-60960000D03*
X87630000Y-60960000D03*
X90170000Y-60960000D03*
X92710000Y-60960000D03*
X95250000Y-60960000D03*
X97790000Y-60960000D03*
X36830000Y-63500000D03*
X39370000Y-63500000D03*
X41910000Y-63500000D03*
X44450000Y-63500000D03*
X46990000Y-63500000D03*
X49530000Y-63500000D03*
X52070000Y-63500000D03*
X54610000Y-63500000D03*
X80010000Y-63500000D03*
X82550000Y-63500000D03*
X85090000Y-63500000D03*
X87630000Y-63500000D03*
X90170000Y-63500000D03*
X92710000Y-63500000D03*
X95250000Y-63500000D03*
X97790000Y-63500000D03*
X36830000Y-66040000D03*
X39370000Y-66040000D03*
X41910000Y-66040000D03*
X44450000Y-66040000D03*
X46990000Y-66040000D03*
X49530000Y-66040000D03*
X52070000Y-66040000D03*
X54610000Y-66040000D03*
X80010000Y-66040000D03*
X82550000Y-66040000D03*
X85090000Y-66040000D03*
X87630000Y-66040000D03*
X90170000Y-66040000D03*
X92710000Y-66040000D03*
X95250000Y-66040000D03*
X97790000Y-66040000D03*
X36830000Y-68580000D03*
X39370000Y-68580000D03*
X41910000Y-68580000D03*
X44450000Y-68580000D03*
X46990000Y-68580000D03*
X49530000Y-68580000D03*
X52070000Y-68580000D03*
X54610000Y-68580000D03*
X57150000Y-68580000D03*
X59690000Y-68580000D03*
X74930000Y-68580000D03*
X77470000Y-68580000D03*
X80010000Y-68580000D03*
X82550000Y-68580000D03*
X85090000Y-68580000D03*
X87630000Y-68580000D03*
X90170000Y-68580000D03*
X92710000Y-68580000D03*
X95250000Y-68580000D03*
X97790000Y-68580000D03*
X36830000Y-71120000D03*
X39370000Y-71120000D03*
X41910000Y-71120000D03*
X44450000Y-71120000D03*
X46990000Y-71120000D03*
X49530000Y-71120000D03*
X52070000Y-71120000D03*
X54610000Y-71120000D03*
X57150000Y-71120000D03*
X59690000Y-71120000D03*
X62230000Y-71120000D03*
X64770000Y-71120000D03*
X67310000Y-71120000D03*
X69850000Y-71120000D03*
X72390000Y-71120000D03*
X74930000Y-71120000D03*
X77470000Y-71120000D03*
X80010000Y-71120000D03*
X82550000Y-71120000D03*
X85090000Y-71120000D03*
X87630000Y-71120000D03*
X90170000Y-71120000D03*
X92710000Y-71120000D03*
X95250000Y-71120000D03*
X97790000Y-71120000D03*
X36830000Y-73660000D03*
X39370000Y-73660000D03*
X41910000Y-73660000D03*
X44450000Y-73660000D03*
X46990000Y-73660000D03*
X49530000Y-73660000D03*
X52070000Y-73660000D03*
X54610000Y-73660000D03*
X57150000Y-73660000D03*
X59690000Y-73660000D03*
X62230000Y-73660000D03*
X64770000Y-73660000D03*
X67310000Y-73660000D03*
X69850000Y-73660000D03*
X72390000Y-73660000D03*
X74930000Y-73660000D03*
X77470000Y-73660000D03*
X80010000Y-73660000D03*
X82550000Y-73660000D03*
X85090000Y-73660000D03*
X87630000Y-73660000D03*
X90170000Y-73660000D03*
X92710000Y-73660000D03*
X95250000Y-73660000D03*
X97790000Y-73660000D03*
X36830000Y-76200000D03*
X39370000Y-76200000D03*
X41910000Y-76200000D03*
X44450000Y-76200000D03*
X46990000Y-76200000D03*
X49530000Y-76200000D03*
X52070000Y-76200000D03*
X54610000Y-76200000D03*
X57150000Y-76200000D03*
X59690000Y-76200000D03*
X62230000Y-76200000D03*
X64770000Y-76200000D03*
X67310000Y-76200000D03*
X69850000Y-76200000D03*
X72390000Y-76200000D03*
X74930000Y-76200000D03*
X77470000Y-76200000D03*
X80010000Y-76200000D03*
X82550000Y-76200000D03*
X85090000Y-76200000D03*
X87630000Y-76200000D03*
X90170000Y-76200000D03*
X92710000Y-76200000D03*
X95250000Y-76200000D03*
X97790000Y-76200000D03*
X36830000Y-78740000D03*
X39370000Y-78740000D03*
X41910000Y-78740000D03*
X44450000Y-78740000D03*
X46990000Y-78740000D03*
X49530000Y-78740000D03*
X52070000Y-78740000D03*
X54610000Y-78740000D03*
X57150000Y-78740000D03*
X59690000Y-78740000D03*
X62230000Y-78740000D03*
X64770000Y-78740000D03*
X67310000Y-78740000D03*
X69850000Y-78740000D03*
X72390000Y-78740000D03*
X74930000Y-78740000D03*
X77470000Y-78740000D03*
X80010000Y-78740000D03*
X82550000Y-78740000D03*
X85090000Y-78740000D03*
X87630000Y-78740000D03*
X90170000Y-78740000D03*
X92710000Y-78740000D03*
X95250000Y-78740000D03*
X97790000Y-78740000D03*
X36830000Y-81280000D03*
X39370000Y-81280000D03*
X41910000Y-81280000D03*
X44450000Y-81280000D03*
X46990000Y-81280000D03*
X49530000Y-81280000D03*
X52070000Y-81280000D03*
X54610000Y-81280000D03*
X57150000Y-81280000D03*
X59690000Y-81280000D03*
X62230000Y-81280000D03*
X64770000Y-81280000D03*
X67310000Y-81280000D03*
X69850000Y-81280000D03*
X72390000Y-81280000D03*
X74930000Y-81280000D03*
X77470000Y-81280000D03*
X80010000Y-81280000D03*
X82550000Y-81280000D03*
X85090000Y-81280000D03*
X87630000Y-81280000D03*
X90170000Y-81280000D03*
X92710000Y-81280000D03*
X95250000Y-81280000D03*
X97790000Y-81280000D03*
X36830000Y-83820000D03*
X39370000Y-83820000D03*
X41910000Y-83820000D03*
X44450000Y-83820000D03*
X46990000Y-83820000D03*
X49530000Y-83820000D03*
X52070000Y-83820000D03*
X54610000Y-83820000D03*
X80010000Y-83820000D03*
X82550000Y-83820000D03*
X85090000Y-83820000D03*
X87630000Y-83820000D03*
X90170000Y-83820000D03*
X92710000Y-83820000D03*
X95250000Y-83820000D03*
X97790000Y-83820000D03*
X36830000Y-86360000D03*
X39370000Y-86360000D03*
X41910000Y-86360000D03*
X44450000Y-86360000D03*
X46990000Y-86360000D03*
X49530000Y-86360000D03*
X52070000Y-86360000D03*
X54610000Y-86360000D03*
X80010000Y-86360000D03*
X82550000Y-86360000D03*
X85090000Y-86360000D03*
X87630000Y-86360000D03*
X90170000Y-86360000D03*
X92710000Y-86360000D03*
X95250000Y-86360000D03*
X97790000Y-86360000D03*
X36830000Y-88900000D03*
X39370000Y-88900000D03*
X41910000Y-88900000D03*
X44450000Y-88900000D03*
X46990000Y-88900000D03*
X49530000Y-88900000D03*
X52070000Y-88900000D03*
X54610000Y-88900000D03*
X80010000Y-88900000D03*
X82550000Y-88900000D03*
X85090000Y-88900000D03*
X87630000Y-88900000D03*
X90170000Y-88900000D03*
X92710000Y-88900000D03*
X95250000Y-88900000D03*
X97790000Y-88900000D03*
X36830000Y-91440000D03*
X39370000Y-91440000D03*
X41910000Y-91440000D03*
X44450000Y-91440000D03*
X46990000Y-91440000D03*
X49530000Y-91440000D03*
X52070000Y-91440000D03*
X54610000Y-91440000D03*
X80010000Y-91440000D03*
X82550000Y-91440000D03*
X85090000Y-91440000D03*
X87630000Y-91440000D03*
X90170000Y-91440000D03*
X92710000Y-91440000D03*
X95250000Y-91440000D03*
X97790000Y-91440000D03*
X36830000Y-93980000D03*
X39370000Y-93980000D03*
X41910000Y-93980000D03*
X44450000Y-93980000D03*
X46990000Y-93980000D03*
X49530000Y-93980000D03*
X52070000Y-93980000D03*
X54610000Y-93980000D03*
X80010000Y-93980000D03*
X82550000Y-93980000D03*
X85090000Y-93980000D03*
X87630000Y-93980000D03*
X90170000Y-93980000D03*
X92710000Y-93980000D03*
X95250000Y-93980000D03*
X97790000Y-93980000D03*
X36830000Y-96520000D03*
X39370000Y-96520000D03*
X41910000Y-96520000D03*
X44450000Y-96520000D03*
X46990000Y-96520000D03*
X49530000Y-96520000D03*
X52070000Y-96520000D03*
X54610000Y-96520000D03*
X57150000Y-96520000D03*
X59690000Y-96520000D03*
X74930000Y-96520000D03*
X77470000Y-96520000D03*
X80010000Y-96520000D03*
X82550000Y-96520000D03*
X85090000Y-96520000D03*
X87630000Y-96520000D03*
X90170000Y-96520000D03*
X92710000Y-96520000D03*
X95250000Y-96520000D03*
X97790000Y-96520000D03*
X36830000Y-99060000D03*
X39370000Y-99060000D03*
X41910000Y-99060000D03*
X44450000Y-99060000D03*
X46990000Y-99060000D03*
X49530000Y-99060000D03*
X52070000Y-99060000D03*
X54610000Y-99060000D03*
X57150000Y-99060000D03*
X59690000Y-99060000D03*
X62230000Y-99060000D03*
X64770000Y-99060000D03*
X67310000Y-99060000D03*
X69850000Y-99060000D03*
X72390000Y-99060000D03*
X74930000Y-99060000D03*
X77470000Y-99060000D03*
X80010000Y-99060000D03*
X82550000Y-99060000D03*
X85090000Y-99060000D03*
X87630000Y-99060000D03*
X90170000Y-99060000D03*
X92710000Y-99060000D03*
X95250000Y-99060000D03*
X97790000Y-99060000D03*
X36830000Y-101600000D03*
X39370000Y-101600000D03*
X41910000Y-101600000D03*
X44450000Y-101600000D03*
X46990000Y-101600000D03*
X49530000Y-101600000D03*
X52070000Y-101600000D03*
X54610000Y-101600000D03*
X57150000Y-101600000D03*
X59690000Y-101600000D03*
X62230000Y-101600000D03*
X64770000Y-101600000D03*
X67310000Y-101600000D03*
X69850000Y-101600000D03*
X72390000Y-101600000D03*
X74930000Y-101600000D03*
X77470000Y-101600000D03*
X80010000Y-101600000D03*
X82550000Y-101600000D03*
X85090000Y-101600000D03*
X87630000Y-101600000D03*
X90170000Y-101600000D03*
X92710000Y-101600000D03*
X95250000Y-101600000D03*
X97790000Y-101600000D03*
X36830000Y-104140000D03*
X39370000Y-104140000D03*
X41910000Y-104140000D03*
X44450000Y-104140000D03*
X46990000Y-104140000D03*
X49530000Y-104140000D03*
X52070000Y-104140000D03*
X54610000Y-104140000D03*
X57150000Y-104140000D03*
X59690000Y-104140000D03*
X62230000Y-104140000D03*
X64770000Y-104140000D03*
X67310000Y-104140000D03*
X69850000Y-104140000D03*
X72390000Y-104140000D03*
X74930000Y-104140000D03*
X77470000Y-104140000D03*
X80010000Y-104140000D03*
X82550000Y-104140000D03*
X85090000Y-104140000D03*
X87630000Y-104140000D03*
X90170000Y-104140000D03*
X92710000Y-104140000D03*
X95250000Y-104140000D03*
X97790000Y-104140000D03*
X36830000Y-106680000D03*
X39370000Y-106680000D03*
X41910000Y-106680000D03*
X44450000Y-106680000D03*
X46990000Y-106680000D03*
X49530000Y-106680000D03*
X52070000Y-106680000D03*
X54610000Y-106680000D03*
X57150000Y-106680000D03*
X59690000Y-106680000D03*
X62230000Y-106680000D03*
X64770000Y-106680000D03*
X67310000Y-106680000D03*
X69850000Y-106680000D03*
X72390000Y-106680000D03*
X74930000Y-106680000D03*
X77470000Y-106680000D03*
X80010000Y-106680000D03*
X82550000Y-106680000D03*
X85090000Y-106680000D03*
X87630000Y-106680000D03*
X90170000Y-106680000D03*
X92710000Y-106680000D03*
X95250000Y-106680000D03*
X97790000Y-106680000D03*
X62230000Y-96520000D03*
X64770000Y-96520000D03*
X67310000Y-96520000D03*
X69850000Y-96520000D03*
X72390000Y-96520000D03*
X57150000Y-93980000D03*
X59690000Y-93980000D03*
X74930000Y-93980000D03*
X77470000Y-93980000D03*
D13*
X99060000Y-36195000D03*
X96520000Y-36195000D03*
X93980000Y-36195000D03*
X91440000Y-36195000D03*
X88900000Y-36195000D03*
X86360000Y-36195000D03*
X83820000Y-36195000D03*
X81280000Y-36195000D03*
X78740000Y-36195000D03*
X76200000Y-36195000D03*
X73660000Y-36195000D03*
X71120000Y-36195000D03*
X68580000Y-36195000D03*
X66040000Y-36195000D03*
X63500000Y-36195000D03*
X60960000Y-36195000D03*
X58420000Y-36195000D03*
X55880000Y-36195000D03*
X53340000Y-36195000D03*
X50800000Y-36195000D03*
X48260000Y-36195000D03*
X45720000Y-36195000D03*
X43180000Y-36195000D03*
X40640000Y-36195000D03*
X38100000Y-36195000D03*
X35560000Y-36195000D03*
X99060000Y-33655000D03*
X96520000Y-33655000D03*
X93980000Y-33655000D03*
X91440000Y-33655000D03*
X88900000Y-33655000D03*
X86360000Y-33655000D03*
X83820000Y-33655000D03*
X81280000Y-33655000D03*
X78740000Y-33655000D03*
X76200000Y-33655000D03*
X73660000Y-33655000D03*
X71120000Y-33655000D03*
X68580000Y-33655000D03*
X66040000Y-33655000D03*
X63500000Y-33655000D03*
X60960000Y-33655000D03*
X58420000Y-33655000D03*
X55880000Y-33655000D03*
X53340000Y-33655000D03*
X50800000Y-33655000D03*
X48260000Y-33655000D03*
X45720000Y-33655000D03*
X43180000Y-33655000D03*
X40640000Y-33655000D03*
X38100000Y-33655000D03*
G04 #@! TA.AperFunction,ViaPad*
G36*
G01*
X34905000Y-34060000D02*
X34905000Y-33250000D01*
G75*
G02*
X35155000Y-33000000I250000J0D01*
G01*
X35965000Y-33000000D01*
G75*
G02*
X36215000Y-33250000I0J-250000D01*
G01*
X36215000Y-34060000D01*
G75*
G02*
X35965000Y-34310000I-250000J0D01*
G01*
X35155000Y-34310000D01*
G75*
G02*
X34905000Y-34060000I0J250000D01*
G01*
G37*
G04 #@! TD.AperFunction*
X99060000Y-31115000D03*
X96520000Y-31115000D03*
X93980000Y-31115000D03*
X91440000Y-31115000D03*
X88900000Y-31115000D03*
X86360000Y-31115000D03*
X83820000Y-31115000D03*
X81280000Y-31115000D03*
X78740000Y-31115000D03*
X76200000Y-31115000D03*
X73660000Y-31115000D03*
X71120000Y-31115000D03*
X68580000Y-31115000D03*
X66040000Y-31115000D03*
X63500000Y-31115000D03*
X60960000Y-31115000D03*
X58420000Y-31115000D03*
X55880000Y-31115000D03*
X53340000Y-31115000D03*
X50800000Y-31115000D03*
X48260000Y-31115000D03*
X45720000Y-31115000D03*
X43180000Y-31115000D03*
X40640000Y-31115000D03*
X38100000Y-31115000D03*
X35560000Y-31115000D03*
X99060000Y-28575000D03*
X96520000Y-28575000D03*
X93980000Y-28575000D03*
X91440000Y-28575000D03*
X88900000Y-28575000D03*
X86360000Y-28575000D03*
X83820000Y-28575000D03*
X81280000Y-28575000D03*
X78740000Y-28575000D03*
X76200000Y-28575000D03*
X73660000Y-28575000D03*
X71120000Y-28575000D03*
X68580000Y-28575000D03*
X66040000Y-28575000D03*
X63500000Y-28575000D03*
X60960000Y-28575000D03*
X58420000Y-28575000D03*
X55880000Y-28575000D03*
X53340000Y-28575000D03*
X50800000Y-28575000D03*
X48260000Y-28575000D03*
X45720000Y-28575000D03*
X43180000Y-28575000D03*
X40640000Y-28575000D03*
X38100000Y-28575000D03*
G04 #@! TA.AperFunction,ViaPad*
G36*
G01*
X34905000Y-28980000D02*
X34905000Y-28170000D01*
G75*
G02*
X35155000Y-27920000I250000J0D01*
G01*
X35965000Y-27920000D01*
G75*
G02*
X36215000Y-28170000I0J-250000D01*
G01*
X36215000Y-28980000D01*
G75*
G02*
X35965000Y-29230000I-250000J0D01*
G01*
X35155000Y-29230000D01*
G75*
G02*
X34905000Y-28980000I0J250000D01*
G01*
G37*
G04 #@! TD.AperFunction*
D12*
X77470000Y-58420000D03*
X74930000Y-58420000D03*
X77470000Y-60960000D03*
X74930000Y-60960000D03*
X77470000Y-63500000D03*
X74930000Y-63500000D03*
X77470000Y-66040000D03*
X74930000Y-66040000D03*
X59690000Y-66040000D03*
X57150000Y-66040000D03*
X59690000Y-63500000D03*
X57150000Y-63500000D03*
X59690000Y-60960000D03*
X57150000Y-60960000D03*
X59690000Y-58420000D03*
X57150000Y-58420000D03*
X77470000Y-83820000D03*
X74930000Y-83820000D03*
X77470000Y-86360000D03*
X74930000Y-86360000D03*
X77470000Y-88900000D03*
X74930000Y-88900000D03*
X77470000Y-91440000D03*
X74930000Y-91440000D03*
X59690000Y-91440000D03*
X57150000Y-91440000D03*
X59690000Y-88900000D03*
X57150000Y-88900000D03*
X59690000Y-86360000D03*
X57150000Y-86360000D03*
X59690000Y-83820000D03*
X57150000Y-83820000D03*
D14*
X28367056Y-112602944D03*
X26670000Y-111900000D03*
X24972944Y-112602944D03*
X24270000Y-114300000D03*
X24972944Y-115997056D03*
X26670000Y-116700000D03*
X28367056Y-115997056D03*
X29070000Y-114300000D03*
D15*
X26670000Y-114300000D03*
D14*
X108377056Y-112602944D03*
X106680000Y-111900000D03*
X104982944Y-112602944D03*
X104280000Y-114300000D03*
X104982944Y-115997056D03*
X106680000Y-116700000D03*
X108377056Y-115997056D03*
X109080000Y-114300000D03*
D15*
X106680000Y-114300000D03*
D14*
X105837056Y-26877944D03*
X104140000Y-26175000D03*
X102442944Y-26877944D03*
X101740000Y-28575000D03*
X102442944Y-30272056D03*
X104140000Y-30975000D03*
X105837056Y-30272056D03*
X106540000Y-28575000D03*
D15*
X104140000Y-28575000D03*
D14*
X32177056Y-26877944D03*
X30480000Y-26175000D03*
X28782944Y-26877944D03*
X28080000Y-28575000D03*
X28782944Y-30272056D03*
X30480000Y-30975000D03*
X32177056Y-30272056D03*
X32880000Y-28575000D03*
D15*
X30480000Y-28575000D03*
D16*
X35560000Y-111760000D03*
D17*
X38100000Y-111760000D03*
X40640000Y-111760000D03*
X43180000Y-111760000D03*
X45720000Y-111760000D03*
X48260000Y-111760000D03*
X50800000Y-111760000D03*
X53340000Y-111760000D03*
X55880000Y-111760000D03*
X58420000Y-111760000D03*
X60960000Y-111760000D03*
X63500000Y-111760000D03*
X66040000Y-111760000D03*
X68580000Y-111760000D03*
X71120000Y-111760000D03*
X73660000Y-111760000D03*
X76200000Y-111760000D03*
X78740000Y-111760000D03*
X81280000Y-111760000D03*
X83820000Y-111760000D03*
X86360000Y-111760000D03*
X88900000Y-111760000D03*
X91440000Y-111760000D03*
X93980000Y-111760000D03*
X96520000Y-111760000D03*
X99060000Y-111760000D03*
D18*
X102870000Y-107950000D03*
D19*
X102870000Y-105410000D03*
X102870000Y-102870000D03*
X102870000Y-100330000D03*
X102870000Y-97790000D03*
X102870000Y-95250000D03*
X102870000Y-92710000D03*
X102870000Y-90170000D03*
X102870000Y-87630000D03*
X102870000Y-85090000D03*
X102870000Y-82550000D03*
X102870000Y-80010000D03*
X102870000Y-77470000D03*
X102870000Y-74930000D03*
X102870000Y-72390000D03*
X102870000Y-69850000D03*
X102870000Y-67310000D03*
X102870000Y-64770000D03*
X102870000Y-62230000D03*
X102870000Y-59690000D03*
X102870000Y-57150000D03*
X102870000Y-54610000D03*
X102870000Y-52070000D03*
X102870000Y-49530000D03*
X102870000Y-46990000D03*
X102870000Y-44450000D03*
X31750000Y-107950000D03*
X31750000Y-105410000D03*
X31750000Y-102870000D03*
X31750000Y-100330000D03*
X31750000Y-97790000D03*
X31750000Y-95250000D03*
X31750000Y-92710000D03*
X31750000Y-90170000D03*
X31750000Y-87630000D03*
X31750000Y-85090000D03*
X31750000Y-82550000D03*
X31750000Y-80010000D03*
X31750000Y-77470000D03*
X31750000Y-74930000D03*
X31750000Y-72390000D03*
X31750000Y-69850000D03*
X31750000Y-67310000D03*
X31750000Y-64770000D03*
X31750000Y-62230000D03*
X31750000Y-59690000D03*
X31750000Y-57150000D03*
X31750000Y-54610000D03*
X31750000Y-52070000D03*
X31750000Y-49530000D03*
X31750000Y-46990000D03*
D18*
X31750000Y-44450000D03*
D16*
X35560000Y-40640000D03*
D17*
X38100000Y-40640000D03*
X40640000Y-40640000D03*
X43180000Y-40640000D03*
X45720000Y-40640000D03*
X48260000Y-40640000D03*
X50800000Y-40640000D03*
X53340000Y-40640000D03*
X55880000Y-40640000D03*
X58420000Y-40640000D03*
X60960000Y-40640000D03*
X63500000Y-40640000D03*
X66040000Y-40640000D03*
X68580000Y-40640000D03*
X71120000Y-40640000D03*
X73660000Y-40640000D03*
X76200000Y-40640000D03*
X78740000Y-40640000D03*
X81280000Y-40640000D03*
X83820000Y-40640000D03*
X86360000Y-40640000D03*
X88900000Y-40640000D03*
X91440000Y-40640000D03*
X93980000Y-40640000D03*
X96520000Y-40640000D03*
X99060000Y-40640000D03*
D20*
X35560000Y-33655000D02*
X36830000Y-34925000D01*
X35560000Y-38735000D02*
X36830000Y-37465000D01*
X35560000Y-40640000D02*
X35560000Y-38735000D01*
X36830000Y-34925000D02*
X36830000Y-37465000D01*
X30480000Y-35560000D02*
X32385000Y-33655000D01*
X26670000Y-35560000D02*
X30480000Y-35560000D01*
X35560000Y-33655000D02*
X32385000Y-33655000D01*
X35560000Y-37465000D02*
X34372999Y-38652001D01*
X35560000Y-36195000D02*
X35560000Y-37465000D01*
X34372999Y-42627999D02*
X35560000Y-43815000D01*
X35560000Y-43815000D02*
X35560000Y-111760000D01*
X34372999Y-38652001D02*
X34372999Y-40557001D01*
X34372999Y-40557001D02*
X34372999Y-42627999D01*
X30480000Y-38100000D02*
X26670000Y-38100000D01*
X31032001Y-38652001D02*
X30480000Y-38100000D01*
X34372999Y-38652001D02*
X31032001Y-38652001D01*
X99060000Y-36195000D02*
X99060000Y-37465000D01*
X99060000Y-37465000D02*
X100330000Y-38735000D01*
X100330000Y-38735000D02*
X100330000Y-42545000D01*
X99060000Y-111760000D02*
X99060000Y-43815000D01*
X99060000Y-43815000D02*
X100330000Y-42545000D01*
X97790000Y-38735000D02*
X96520000Y-37465000D01*
X97790000Y-38735000D02*
X97790000Y-42545000D01*
X96520000Y-37465000D02*
X96520000Y-36195000D01*
X96517501Y-43817499D02*
X96517501Y-111757501D01*
X96517501Y-111757501D02*
X96520000Y-111760000D01*
X97790000Y-42545000D02*
X96517501Y-43817499D01*
X93980000Y-36195000D02*
X93980000Y-37465000D01*
X93980000Y-37465000D02*
X95250000Y-38735000D01*
X95250000Y-38735000D02*
X95250000Y-42545000D01*
X93980000Y-43815000D02*
X95250000Y-42545000D01*
X93980000Y-111760000D02*
X93980000Y-43815000D01*
X91440000Y-36195000D02*
X91440000Y-37465000D01*
X91440000Y-37465000D02*
X92710000Y-38735000D01*
X92710000Y-38735000D02*
X92710000Y-42545000D01*
X91437501Y-111757501D02*
X91440000Y-111760000D01*
X91437501Y-43817499D02*
X91437501Y-111757501D01*
X92710000Y-42545000D02*
X91437501Y-43817499D01*
X88900000Y-37465000D02*
X88900000Y-36195000D01*
X90170000Y-38735000D02*
X88900000Y-37465000D01*
X90170000Y-42545000D02*
X90170000Y-38735000D01*
X88900000Y-111760000D02*
X88900000Y-43815000D01*
X88900000Y-43815000D02*
X90170000Y-42545000D01*
X86360000Y-37465000D02*
X86360000Y-36195000D01*
X87630000Y-38735000D02*
X86360000Y-37465000D01*
X87630000Y-38735000D02*
X87630000Y-42545000D01*
X86362499Y-111757501D02*
X86360000Y-111760000D01*
X86362499Y-43812501D02*
X86362499Y-111757501D01*
X87630000Y-42545000D02*
X86362499Y-43812501D01*
X85090000Y-38735000D02*
X83820000Y-37465000D01*
X85090000Y-38735000D02*
X85090000Y-42545000D01*
X83820000Y-37465000D02*
X83820000Y-36195000D01*
X83820000Y-111760000D02*
X83820000Y-43815000D01*
X83820000Y-43815000D02*
X85090000Y-42545000D01*
X81280000Y-37465000D02*
X81280000Y-36195000D01*
X82550000Y-42545000D02*
X82550000Y-38735000D01*
X82550000Y-38735000D02*
X81280000Y-37465000D01*
X81277501Y-111757501D02*
X81280000Y-111760000D01*
X81277501Y-43817499D02*
X81277501Y-111757501D01*
X82550000Y-42545000D02*
X81277501Y-43817499D01*
X78740000Y-37465000D02*
X78740000Y-36195000D01*
X80010000Y-42545000D02*
X80010000Y-38735000D01*
X80010000Y-38735000D02*
X78740000Y-37465000D01*
X78740000Y-43815000D02*
X80010000Y-42545000D01*
X78740000Y-111760000D02*
X78740000Y-43815000D01*
X69850000Y-38735000D02*
X71120000Y-37465000D01*
X69850000Y-38735000D02*
X69850000Y-42545000D01*
X71120000Y-37465000D02*
X71120000Y-36195000D01*
X71117501Y-111757501D02*
X71120000Y-111760000D01*
X71117501Y-43812501D02*
X71117501Y-111757501D01*
X69850000Y-42545000D02*
X71117501Y-43812501D01*
X68580000Y-37465000D02*
X68580000Y-36195000D01*
X67310000Y-38735000D02*
X68580000Y-37465000D01*
X67310000Y-42545000D02*
X67310000Y-38735000D01*
X68580000Y-43815000D02*
X67310000Y-42545000D01*
X68580000Y-111760000D02*
X68580000Y-43815000D01*
X66040000Y-37465000D02*
X66040000Y-36195000D01*
X64770000Y-38735000D02*
X66040000Y-37465000D01*
X64770000Y-42545000D02*
X64770000Y-38735000D01*
X66037501Y-111757501D02*
X66040000Y-111760000D01*
X66037501Y-43812501D02*
X66037501Y-111757501D01*
X64770000Y-42545000D02*
X66037501Y-43812501D01*
X62230000Y-38735000D02*
X63500000Y-37465000D01*
X62230000Y-38735000D02*
X62230000Y-42545000D01*
X63500000Y-37465000D02*
X63500000Y-36195000D01*
X63500000Y-43815000D02*
X62230000Y-42545000D01*
X63500000Y-111760000D02*
X63500000Y-43815000D01*
X59690000Y-38735000D02*
X59690000Y-40005000D01*
X60960000Y-37121309D02*
X60960000Y-36195000D01*
X59690000Y-38735000D02*
X60960000Y-37465000D01*
X60960000Y-37465000D02*
X60960000Y-37121309D01*
X60957501Y-111757501D02*
X60960000Y-111760000D01*
X59690000Y-42545000D02*
X60957501Y-43812501D01*
X60957501Y-43812501D02*
X60957501Y-111757501D01*
X59690000Y-38735000D02*
X59690000Y-42545000D01*
X57150000Y-38735000D02*
X57150000Y-42545000D01*
X58420000Y-37465000D02*
X57150000Y-38735000D01*
X58420000Y-36195000D02*
X58420000Y-37465000D01*
X58420000Y-43815000D02*
X57150000Y-42545000D01*
X58420000Y-111760000D02*
X58420000Y-43815000D01*
X54610000Y-38735000D02*
X54610000Y-42545000D01*
X55880000Y-37465000D02*
X54610000Y-38735000D01*
X55880000Y-36195000D02*
X55880000Y-37465000D01*
X55877501Y-111757501D02*
X55880000Y-111760000D01*
X55877501Y-43812501D02*
X55877501Y-111757501D01*
X54610000Y-42545000D02*
X55877501Y-43812501D01*
X53340000Y-36195000D02*
X53340000Y-37121309D01*
X53340000Y-37465000D02*
X52070000Y-38735000D01*
X52070000Y-38735000D02*
X52070000Y-42545000D01*
X53340000Y-37465000D02*
X53340000Y-37121309D01*
X53340000Y-43815000D02*
X52070000Y-42545000D01*
X53340000Y-111760000D02*
X53340000Y-43815000D01*
X50800000Y-37465000D02*
X49530000Y-38735000D01*
X49530000Y-38735000D02*
X49530000Y-42545000D01*
X50797501Y-111757501D02*
X50800000Y-111760000D01*
X49530000Y-42545000D02*
X50797501Y-43812501D01*
X50800000Y-36195000D02*
X50800000Y-37465000D01*
X50797501Y-43812501D02*
X50797501Y-111757501D01*
X48260000Y-37465000D02*
X46990000Y-38735000D01*
X46990000Y-38735000D02*
X46990000Y-42545000D01*
X48260000Y-36195000D02*
X48260000Y-37465000D01*
X48260000Y-43815000D02*
X46990000Y-42545000D01*
X48260000Y-111760000D02*
X48260000Y-43815000D01*
X45720000Y-37465000D02*
X45720000Y-37121309D01*
X45720000Y-37121309D02*
X45720000Y-36195000D01*
X44450000Y-42545000D02*
X44450000Y-38735000D01*
X44450000Y-38735000D02*
X45720000Y-37465000D01*
X45720000Y-43815000D02*
X44450000Y-42545000D01*
X45720000Y-111760000D02*
X45720000Y-43815000D01*
X43177501Y-111757501D02*
X43180000Y-111760000D01*
X43180000Y-36195000D02*
X43180000Y-37465000D01*
X41910000Y-38735000D02*
X41910000Y-42545000D01*
X41910000Y-42545000D02*
X43177501Y-43812501D01*
X43180000Y-37465000D02*
X41910000Y-38735000D01*
X43177501Y-43812501D02*
X43177501Y-111757501D01*
X40637501Y-111757501D02*
X40640000Y-111760000D01*
X40640000Y-37465000D02*
X39370000Y-38735000D01*
X40640000Y-36195000D02*
X40640000Y-37465000D01*
X39370000Y-38735000D02*
X39370000Y-42545000D01*
X39370000Y-42545000D02*
X40637501Y-43812501D01*
X40637501Y-43812501D02*
X40637501Y-111757501D01*
X38097501Y-111757501D02*
X38100000Y-111760000D01*
X38100000Y-36195000D02*
X38100000Y-37465000D01*
X38097501Y-43812501D02*
X38097501Y-111757501D01*
X38100000Y-37465000D02*
X36830000Y-38735000D01*
X36830000Y-38735000D02*
X36830000Y-42545000D01*
X36830000Y-42545000D02*
X38097501Y-43812501D01*
X99060000Y-33655000D02*
X97790000Y-34925000D01*
X99060000Y-40640000D02*
X99060000Y-38735000D01*
X99060000Y-38735000D02*
X97790000Y-37465000D01*
X97790000Y-34925000D02*
X97790000Y-37465000D01*
X96520000Y-33655000D02*
X95250000Y-34925000D01*
X96520000Y-40640000D02*
X96520000Y-38735000D01*
X96520000Y-38735000D02*
X95250000Y-37465000D01*
X95250000Y-34925000D02*
X95250000Y-37465000D01*
X93980000Y-33655000D02*
X92710000Y-34925000D01*
X93980000Y-40640000D02*
X93980000Y-38735000D01*
X93980000Y-38735000D02*
X92710000Y-37465000D01*
X92710000Y-34925000D02*
X92710000Y-37465000D01*
X91440000Y-33655000D02*
X90170000Y-34925000D01*
X91440000Y-40640000D02*
X91440000Y-38735000D01*
X91440000Y-38735000D02*
X90170000Y-37465000D01*
X90170000Y-34925000D02*
X90170000Y-37465000D01*
X88900000Y-33655000D02*
X87630000Y-34925000D01*
X87630000Y-37465000D02*
X88900000Y-38735000D01*
X87630000Y-34925000D02*
X87630000Y-37465000D01*
X88900000Y-38735000D02*
X88900000Y-40640000D01*
X85090000Y-37465000D02*
X86360000Y-38735000D01*
X86360000Y-33655000D02*
X85090000Y-34925000D01*
X86360000Y-38735000D02*
X86360000Y-40640000D01*
X85090000Y-34925000D02*
X85090000Y-37465000D01*
X83820000Y-40640000D02*
X83820000Y-38735000D01*
X83820000Y-38735000D02*
X82550000Y-37465000D01*
X82550000Y-34925000D02*
X83820000Y-33655000D01*
X82550000Y-37465000D02*
X82550000Y-34925000D01*
X81280000Y-40640000D02*
X81280000Y-38735000D01*
X81280000Y-38735000D02*
X80010000Y-37465000D01*
X80010000Y-34925000D02*
X80010000Y-37465000D01*
X81280000Y-33655000D02*
X80010000Y-34925000D01*
X78740000Y-40640000D02*
X78740000Y-38735000D01*
X78740000Y-38735000D02*
X77470000Y-37465000D01*
X77470000Y-34925000D02*
X78105000Y-34290000D01*
X77470000Y-37465000D02*
X77470000Y-34925000D01*
X78105000Y-34290000D02*
X78740000Y-33655000D01*
X71120000Y-40640000D02*
X71120000Y-38735000D01*
X71120000Y-38735000D02*
X72390000Y-37465000D01*
X72390000Y-34925000D02*
X71120000Y-33655000D01*
X72390000Y-37465000D02*
X72390000Y-34925000D01*
X68580000Y-33655000D02*
X69850000Y-34925000D01*
X68580000Y-38735000D02*
X69850000Y-37465000D01*
X68580000Y-40640000D02*
X68580000Y-38735000D01*
X69850000Y-34925000D02*
X69850000Y-37465000D01*
X66040000Y-33655000D02*
X67310000Y-34925000D01*
X66040000Y-40640000D02*
X66040000Y-38735000D01*
X66040000Y-38735000D02*
X67310000Y-37465000D01*
X67310000Y-37465000D02*
X67310000Y-34925000D01*
X63500000Y-40640000D02*
X63500000Y-38735000D01*
X63500000Y-38735000D02*
X64770000Y-37465000D01*
X64770000Y-34925000D02*
X63500000Y-33655000D01*
X64770000Y-37465000D02*
X64770000Y-34925000D01*
X60960000Y-40640000D02*
X60960000Y-38735000D01*
X60960000Y-38735000D02*
X62230000Y-37465000D01*
X62230000Y-34925000D02*
X60960000Y-33655000D01*
X62230000Y-37465000D02*
X62230000Y-34925000D01*
X58420000Y-40640000D02*
X58420000Y-38735000D01*
X58420000Y-38735000D02*
X59690000Y-37465000D01*
X59690000Y-34925000D02*
X58420000Y-33655000D01*
X59690000Y-37465000D02*
X59690000Y-34925000D01*
X55880000Y-40640000D02*
X55880000Y-38735000D01*
X55880000Y-38735000D02*
X57150000Y-37465000D01*
X57150000Y-34925000D02*
X57150000Y-37465000D01*
X55880000Y-33655000D02*
X57150000Y-34925000D01*
X53340000Y-38735000D02*
X54610000Y-37465000D01*
X53340000Y-40640000D02*
X53340000Y-38735000D01*
X54610000Y-34925000D02*
X53340000Y-33655000D01*
X54610000Y-37465000D02*
X54610000Y-34925000D01*
X50800000Y-40640000D02*
X50800000Y-38735000D01*
X50800000Y-38735000D02*
X52070000Y-37465000D01*
X52070000Y-34925000D02*
X52070000Y-37465000D01*
X50800000Y-33655000D02*
X52070000Y-34925000D01*
X48260000Y-40640000D02*
X48260000Y-38735000D01*
X48260000Y-38735000D02*
X49530000Y-37465000D01*
X49530000Y-34925000D02*
X48260000Y-33655000D01*
X49530000Y-37465000D02*
X49530000Y-34925000D01*
X45720000Y-38735000D02*
X45720000Y-40640000D01*
X46990000Y-37465000D02*
X45720000Y-38735000D01*
X46990000Y-34925000D02*
X46990000Y-37465000D01*
X45720000Y-33655000D02*
X46990000Y-34925000D01*
X43180000Y-40640000D02*
X43180000Y-38735000D01*
X43180000Y-38735000D02*
X44450000Y-37465000D01*
X44450000Y-34925000D02*
X44450000Y-37465000D01*
X43180000Y-33655000D02*
X44450000Y-34925000D01*
X41720001Y-34735001D02*
X40640000Y-33655000D01*
X40640000Y-40640000D02*
X40640000Y-38735000D01*
X40640000Y-38735000D02*
X41720001Y-37654999D01*
X41720001Y-37654999D02*
X41720001Y-34735001D01*
X39370000Y-34925000D02*
X38100000Y-33655000D01*
X38100000Y-38735000D02*
X39370000Y-37465000D01*
X38100000Y-40640000D02*
X38100000Y-38735000D01*
X39370000Y-37465000D02*
X39370000Y-34925000D01*
M02*
