G04 #@! TF.GenerationSoftware,KiCad,Pcbnew,(5.1.6)-1*
G04 #@! TF.CreationDate,2020-06-26T12:13:42+02:00*
G04 #@! TF.ProjectId,board_zero,626f6172-645f-47a6-9572-6f2e6b696361,1.0*
G04 #@! TF.SameCoordinates,Original*
G04 #@! TF.FileFunction,Soldermask,Top*
G04 #@! TF.FilePolarity,Negative*
%FSLAX46Y46*%
G04 Gerber Fmt 4.6, Leading zero omitted, Abs format (unit mm)*
G04 Created by KiCad (PCBNEW (5.1.6)-1) date 2020-06-26 12:13:42*
%MOMM*%
%LPD*%
G01*
G04 APERTURE LIST*
G04 #@! TA.AperFunction,Profile*
%ADD10C,0.100000*%
G04 #@! TD*
%ADD11C,1.735000*%
%ADD12C,1.310000*%
%ADD13O,1.700000X1.700000*%
%ADD14R,1.700000X1.700000*%
%ADD15C,0.800000*%
%ADD16C,6.400000*%
%ADD17R,1.524000X3.048000*%
%ADD18O,1.524000X3.048000*%
%ADD19R,3.048000X1.524000*%
%ADD20O,3.048000X1.524000*%
G04 APERTURE END LIST*
D10*
X78930500Y-23495000D02*
G75*
G03*
X77978000Y-24447500I0J-952500D01*
G01*
X78930500Y-23495000D02*
X110807500Y-23495000D01*
X77025500Y-25400000D02*
G75*
G03*
X77978000Y-24447500I0J952500D01*
G01*
X57658000Y-24447500D02*
G75*
G03*
X58610500Y-25400000I952500J0D01*
G01*
X58610500Y-25400000D02*
X77025500Y-25400000D01*
X22542500Y-23495000D02*
X56705500Y-23495000D01*
X57658000Y-24447500D02*
G75*
G03*
X56705500Y-23495000I-952500J0D01*
G01*
X78930500Y-119380000D02*
X110807500Y-119380000D01*
X58610500Y-117475000D02*
X77025500Y-117475000D01*
X22542500Y-119380000D02*
X56705500Y-119380000D01*
X78930500Y-119380000D02*
G75*
G02*
X77978000Y-118427500I0J952500D01*
G01*
X77025500Y-117475000D02*
G75*
G02*
X77978000Y-118427500I0J-952500D01*
G01*
X57658000Y-118427500D02*
G75*
G02*
X58610500Y-117475000I952500J0D01*
G01*
X57658000Y-118427500D02*
G75*
G02*
X56705500Y-119380000I-952500J0D01*
G01*
X110807500Y-61290200D02*
G75*
G03*
X109855000Y-62242700I0J-952500D01*
G01*
X111760000Y-24447500D02*
X111760000Y-60337700D01*
X109855000Y-62242700D02*
X109855000Y-80632300D01*
X111760000Y-82537300D02*
X111760000Y-118427500D01*
X109855000Y-80632300D02*
G75*
G03*
X110807500Y-81584800I952500J0D01*
G01*
X111760000Y-82537300D02*
G75*
G03*
X110807500Y-81584800I-952500J0D01*
G01*
X110807500Y-61290200D02*
G75*
G03*
X111760000Y-60337700I0J952500D01*
G01*
X111760000Y-118427500D02*
G75*
G02*
X110807500Y-119380000I-952500J0D01*
G01*
X110807500Y-23495000D02*
G75*
G02*
X111760000Y-24447500I0J-952500D01*
G01*
X21590000Y-82537300D02*
X21590000Y-118427500D01*
X21590000Y-24447500D02*
X21590000Y-60337700D01*
X21590000Y-24447500D02*
G75*
G02*
X22542500Y-23495000I952500J0D01*
G01*
X23495000Y-62242700D02*
X23495000Y-80632300D01*
X22542500Y-61290200D02*
G75*
G02*
X21590000Y-60337700I0J952500D01*
G01*
X22542500Y-61290200D02*
G75*
G02*
X23495000Y-62242700I0J-952500D01*
G01*
X23495000Y-80632300D02*
G75*
G02*
X22542500Y-81584800I-952500J0D01*
G01*
X21590000Y-82537300D02*
G75*
G02*
X22542500Y-81584800I952500J0D01*
G01*
X22542500Y-119380000D02*
G75*
G02*
X21590000Y-118427500I0J952500D01*
G01*
G36*
G01*
X69785000Y-92225000D02*
X69785000Y-91925000D01*
G75*
G02*
X69935000Y-91775000I150000J0D01*
G01*
X71610000Y-91775000D01*
G75*
G02*
X71760000Y-91925000I0J-150000D01*
G01*
X71760000Y-92225000D01*
G75*
G02*
X71610000Y-92375000I-150000J0D01*
G01*
X69935000Y-92375000D01*
G75*
G02*
X69785000Y-92225000I0J150000D01*
G01*
G37*
G36*
G01*
X69785000Y-93495000D02*
X69785000Y-93195000D01*
G75*
G02*
X69935000Y-93045000I150000J0D01*
G01*
X71610000Y-93045000D01*
G75*
G02*
X71760000Y-93195000I0J-150000D01*
G01*
X71760000Y-93495000D01*
G75*
G02*
X71610000Y-93645000I-150000J0D01*
G01*
X69935000Y-93645000D01*
G75*
G02*
X69785000Y-93495000I0J150000D01*
G01*
G37*
G36*
G01*
X69785000Y-85875000D02*
X69785000Y-85575000D01*
G75*
G02*
X69935000Y-85425000I150000J0D01*
G01*
X71610000Y-85425000D01*
G75*
G02*
X71760000Y-85575000I0J-150000D01*
G01*
X71760000Y-85875000D01*
G75*
G02*
X71610000Y-86025000I-150000J0D01*
G01*
X69935000Y-86025000D01*
G75*
G02*
X69785000Y-85875000I0J150000D01*
G01*
G37*
G36*
G01*
X69785000Y-90955000D02*
X69785000Y-90655000D01*
G75*
G02*
X69935000Y-90505000I150000J0D01*
G01*
X71610000Y-90505000D01*
G75*
G02*
X71760000Y-90655000I0J-150000D01*
G01*
X71760000Y-90955000D01*
G75*
G02*
X71610000Y-91105000I-150000J0D01*
G01*
X69935000Y-91105000D01*
G75*
G02*
X69785000Y-90955000I0J150000D01*
G01*
G37*
G36*
G01*
X62860000Y-88415000D02*
X62860000Y-88115000D01*
G75*
G02*
X63010000Y-87965000I150000J0D01*
G01*
X64685000Y-87965000D01*
G75*
G02*
X64835000Y-88115000I0J-150000D01*
G01*
X64835000Y-88415000D01*
G75*
G02*
X64685000Y-88565000I-150000J0D01*
G01*
X63010000Y-88565000D01*
G75*
G02*
X62860000Y-88415000I0J150000D01*
G01*
G37*
G36*
G01*
X62860000Y-92225000D02*
X62860000Y-91925000D01*
G75*
G02*
X63010000Y-91775000I150000J0D01*
G01*
X64685000Y-91775000D01*
G75*
G02*
X64835000Y-91925000I0J-150000D01*
G01*
X64835000Y-92225000D01*
G75*
G02*
X64685000Y-92375000I-150000J0D01*
G01*
X63010000Y-92375000D01*
G75*
G02*
X62860000Y-92225000I0J150000D01*
G01*
G37*
G36*
G01*
X62860000Y-89685000D02*
X62860000Y-89385000D01*
G75*
G02*
X63010000Y-89235000I150000J0D01*
G01*
X64685000Y-89235000D01*
G75*
G02*
X64835000Y-89385000I0J-150000D01*
G01*
X64835000Y-89685000D01*
G75*
G02*
X64685000Y-89835000I-150000J0D01*
G01*
X63010000Y-89835000D01*
G75*
G02*
X62860000Y-89685000I0J150000D01*
G01*
G37*
G36*
G01*
X62860000Y-84605000D02*
X62860000Y-84305000D01*
G75*
G02*
X63010000Y-84155000I150000J0D01*
G01*
X64685000Y-84155000D01*
G75*
G02*
X64835000Y-84305000I0J-150000D01*
G01*
X64835000Y-84605000D01*
G75*
G02*
X64685000Y-84755000I-150000J0D01*
G01*
X63010000Y-84755000D01*
G75*
G02*
X62860000Y-84605000I0J150000D01*
G01*
G37*
G36*
G01*
X69785000Y-89685000D02*
X69785000Y-89385000D01*
G75*
G02*
X69935000Y-89235000I150000J0D01*
G01*
X71610000Y-89235000D01*
G75*
G02*
X71760000Y-89385000I0J-150000D01*
G01*
X71760000Y-89685000D01*
G75*
G02*
X71610000Y-89835000I-150000J0D01*
G01*
X69935000Y-89835000D01*
G75*
G02*
X69785000Y-89685000I0J150000D01*
G01*
G37*
G36*
G01*
X62860000Y-93495000D02*
X62860000Y-93195000D01*
G75*
G02*
X63010000Y-93045000I150000J0D01*
G01*
X64685000Y-93045000D01*
G75*
G02*
X64835000Y-93195000I0J-150000D01*
G01*
X64835000Y-93495000D01*
G75*
G02*
X64685000Y-93645000I-150000J0D01*
G01*
X63010000Y-93645000D01*
G75*
G02*
X62860000Y-93495000I0J150000D01*
G01*
G37*
G36*
G01*
X62860000Y-87145000D02*
X62860000Y-86845000D01*
G75*
G02*
X63010000Y-86695000I150000J0D01*
G01*
X64685000Y-86695000D01*
G75*
G02*
X64835000Y-86845000I0J-150000D01*
G01*
X64835000Y-87145000D01*
G75*
G02*
X64685000Y-87295000I-150000J0D01*
G01*
X63010000Y-87295000D01*
G75*
G02*
X62860000Y-87145000I0J150000D01*
G01*
G37*
G36*
G01*
X62860000Y-85875000D02*
X62860000Y-85575000D01*
G75*
G02*
X63010000Y-85425000I150000J0D01*
G01*
X64685000Y-85425000D01*
G75*
G02*
X64835000Y-85575000I0J-150000D01*
G01*
X64835000Y-85875000D01*
G75*
G02*
X64685000Y-86025000I-150000J0D01*
G01*
X63010000Y-86025000D01*
G75*
G02*
X62860000Y-85875000I0J150000D01*
G01*
G37*
G36*
G01*
X69785000Y-88415000D02*
X69785000Y-88115000D01*
G75*
G02*
X69935000Y-87965000I150000J0D01*
G01*
X71610000Y-87965000D01*
G75*
G02*
X71760000Y-88115000I0J-150000D01*
G01*
X71760000Y-88415000D01*
G75*
G02*
X71610000Y-88565000I-150000J0D01*
G01*
X69935000Y-88565000D01*
G75*
G02*
X69785000Y-88415000I0J150000D01*
G01*
G37*
G36*
G01*
X62860000Y-90955000D02*
X62860000Y-90655000D01*
G75*
G02*
X63010000Y-90505000I150000J0D01*
G01*
X64685000Y-90505000D01*
G75*
G02*
X64835000Y-90655000I0J-150000D01*
G01*
X64835000Y-90955000D01*
G75*
G02*
X64685000Y-91105000I-150000J0D01*
G01*
X63010000Y-91105000D01*
G75*
G02*
X62860000Y-90955000I0J150000D01*
G01*
G37*
G36*
G01*
X69785000Y-84605000D02*
X69785000Y-84305000D01*
G75*
G02*
X69935000Y-84155000I150000J0D01*
G01*
X71610000Y-84155000D01*
G75*
G02*
X71760000Y-84305000I0J-150000D01*
G01*
X71760000Y-84605000D01*
G75*
G02*
X71610000Y-84755000I-150000J0D01*
G01*
X69935000Y-84755000D01*
G75*
G02*
X69785000Y-84605000I0J150000D01*
G01*
G37*
G36*
G01*
X69785000Y-87145000D02*
X69785000Y-86845000D01*
G75*
G02*
X69935000Y-86695000I150000J0D01*
G01*
X71610000Y-86695000D01*
G75*
G02*
X71760000Y-86845000I0J-150000D01*
G01*
X71760000Y-87145000D01*
G75*
G02*
X71610000Y-87295000I-150000J0D01*
G01*
X69935000Y-87295000D01*
G75*
G02*
X69785000Y-87145000I0J150000D01*
G01*
G37*
D11*
X57150000Y-83820000D03*
X59690000Y-83820000D03*
X57150000Y-86360000D03*
X59690000Y-86360000D03*
X57150000Y-88900000D03*
X59690000Y-88900000D03*
X57150000Y-91440000D03*
X59690000Y-91440000D03*
X74930000Y-91440000D03*
X77470000Y-91440000D03*
X74930000Y-88900000D03*
X77470000Y-88900000D03*
X74930000Y-86360000D03*
X77470000Y-86360000D03*
X74930000Y-83820000D03*
X77470000Y-83820000D03*
G36*
G01*
X69785000Y-66825000D02*
X69785000Y-66525000D01*
G75*
G02*
X69935000Y-66375000I150000J0D01*
G01*
X71610000Y-66375000D01*
G75*
G02*
X71760000Y-66525000I0J-150000D01*
G01*
X71760000Y-66825000D01*
G75*
G02*
X71610000Y-66975000I-150000J0D01*
G01*
X69935000Y-66975000D01*
G75*
G02*
X69785000Y-66825000I0J150000D01*
G01*
G37*
G36*
G01*
X69785000Y-68095000D02*
X69785000Y-67795000D01*
G75*
G02*
X69935000Y-67645000I150000J0D01*
G01*
X71610000Y-67645000D01*
G75*
G02*
X71760000Y-67795000I0J-150000D01*
G01*
X71760000Y-68095000D01*
G75*
G02*
X71610000Y-68245000I-150000J0D01*
G01*
X69935000Y-68245000D01*
G75*
G02*
X69785000Y-68095000I0J150000D01*
G01*
G37*
G36*
G01*
X69785000Y-60475000D02*
X69785000Y-60175000D01*
G75*
G02*
X69935000Y-60025000I150000J0D01*
G01*
X71610000Y-60025000D01*
G75*
G02*
X71760000Y-60175000I0J-150000D01*
G01*
X71760000Y-60475000D01*
G75*
G02*
X71610000Y-60625000I-150000J0D01*
G01*
X69935000Y-60625000D01*
G75*
G02*
X69785000Y-60475000I0J150000D01*
G01*
G37*
G36*
G01*
X69785000Y-65555000D02*
X69785000Y-65255000D01*
G75*
G02*
X69935000Y-65105000I150000J0D01*
G01*
X71610000Y-65105000D01*
G75*
G02*
X71760000Y-65255000I0J-150000D01*
G01*
X71760000Y-65555000D01*
G75*
G02*
X71610000Y-65705000I-150000J0D01*
G01*
X69935000Y-65705000D01*
G75*
G02*
X69785000Y-65555000I0J150000D01*
G01*
G37*
G36*
G01*
X62860000Y-63015000D02*
X62860000Y-62715000D01*
G75*
G02*
X63010000Y-62565000I150000J0D01*
G01*
X64685000Y-62565000D01*
G75*
G02*
X64835000Y-62715000I0J-150000D01*
G01*
X64835000Y-63015000D01*
G75*
G02*
X64685000Y-63165000I-150000J0D01*
G01*
X63010000Y-63165000D01*
G75*
G02*
X62860000Y-63015000I0J150000D01*
G01*
G37*
G36*
G01*
X62860000Y-66825000D02*
X62860000Y-66525000D01*
G75*
G02*
X63010000Y-66375000I150000J0D01*
G01*
X64685000Y-66375000D01*
G75*
G02*
X64835000Y-66525000I0J-150000D01*
G01*
X64835000Y-66825000D01*
G75*
G02*
X64685000Y-66975000I-150000J0D01*
G01*
X63010000Y-66975000D01*
G75*
G02*
X62860000Y-66825000I0J150000D01*
G01*
G37*
G36*
G01*
X62860000Y-64285000D02*
X62860000Y-63985000D01*
G75*
G02*
X63010000Y-63835000I150000J0D01*
G01*
X64685000Y-63835000D01*
G75*
G02*
X64835000Y-63985000I0J-150000D01*
G01*
X64835000Y-64285000D01*
G75*
G02*
X64685000Y-64435000I-150000J0D01*
G01*
X63010000Y-64435000D01*
G75*
G02*
X62860000Y-64285000I0J150000D01*
G01*
G37*
G36*
G01*
X62860000Y-59205000D02*
X62860000Y-58905000D01*
G75*
G02*
X63010000Y-58755000I150000J0D01*
G01*
X64685000Y-58755000D01*
G75*
G02*
X64835000Y-58905000I0J-150000D01*
G01*
X64835000Y-59205000D01*
G75*
G02*
X64685000Y-59355000I-150000J0D01*
G01*
X63010000Y-59355000D01*
G75*
G02*
X62860000Y-59205000I0J150000D01*
G01*
G37*
G36*
G01*
X69785000Y-64285000D02*
X69785000Y-63985000D01*
G75*
G02*
X69935000Y-63835000I150000J0D01*
G01*
X71610000Y-63835000D01*
G75*
G02*
X71760000Y-63985000I0J-150000D01*
G01*
X71760000Y-64285000D01*
G75*
G02*
X71610000Y-64435000I-150000J0D01*
G01*
X69935000Y-64435000D01*
G75*
G02*
X69785000Y-64285000I0J150000D01*
G01*
G37*
G36*
G01*
X62860000Y-68095000D02*
X62860000Y-67795000D01*
G75*
G02*
X63010000Y-67645000I150000J0D01*
G01*
X64685000Y-67645000D01*
G75*
G02*
X64835000Y-67795000I0J-150000D01*
G01*
X64835000Y-68095000D01*
G75*
G02*
X64685000Y-68245000I-150000J0D01*
G01*
X63010000Y-68245000D01*
G75*
G02*
X62860000Y-68095000I0J150000D01*
G01*
G37*
G36*
G01*
X62860000Y-61745000D02*
X62860000Y-61445000D01*
G75*
G02*
X63010000Y-61295000I150000J0D01*
G01*
X64685000Y-61295000D01*
G75*
G02*
X64835000Y-61445000I0J-150000D01*
G01*
X64835000Y-61745000D01*
G75*
G02*
X64685000Y-61895000I-150000J0D01*
G01*
X63010000Y-61895000D01*
G75*
G02*
X62860000Y-61745000I0J150000D01*
G01*
G37*
G36*
G01*
X62860000Y-60475000D02*
X62860000Y-60175000D01*
G75*
G02*
X63010000Y-60025000I150000J0D01*
G01*
X64685000Y-60025000D01*
G75*
G02*
X64835000Y-60175000I0J-150000D01*
G01*
X64835000Y-60475000D01*
G75*
G02*
X64685000Y-60625000I-150000J0D01*
G01*
X63010000Y-60625000D01*
G75*
G02*
X62860000Y-60475000I0J150000D01*
G01*
G37*
G36*
G01*
X69785000Y-63015000D02*
X69785000Y-62715000D01*
G75*
G02*
X69935000Y-62565000I150000J0D01*
G01*
X71610000Y-62565000D01*
G75*
G02*
X71760000Y-62715000I0J-150000D01*
G01*
X71760000Y-63015000D01*
G75*
G02*
X71610000Y-63165000I-150000J0D01*
G01*
X69935000Y-63165000D01*
G75*
G02*
X69785000Y-63015000I0J150000D01*
G01*
G37*
G36*
G01*
X62860000Y-65555000D02*
X62860000Y-65255000D01*
G75*
G02*
X63010000Y-65105000I150000J0D01*
G01*
X64685000Y-65105000D01*
G75*
G02*
X64835000Y-65255000I0J-150000D01*
G01*
X64835000Y-65555000D01*
G75*
G02*
X64685000Y-65705000I-150000J0D01*
G01*
X63010000Y-65705000D01*
G75*
G02*
X62860000Y-65555000I0J150000D01*
G01*
G37*
G36*
G01*
X69785000Y-59205000D02*
X69785000Y-58905000D01*
G75*
G02*
X69935000Y-58755000I150000J0D01*
G01*
X71610000Y-58755000D01*
G75*
G02*
X71760000Y-58905000I0J-150000D01*
G01*
X71760000Y-59205000D01*
G75*
G02*
X71610000Y-59355000I-150000J0D01*
G01*
X69935000Y-59355000D01*
G75*
G02*
X69785000Y-59205000I0J150000D01*
G01*
G37*
G36*
G01*
X69785000Y-61745000D02*
X69785000Y-61445000D01*
G75*
G02*
X69935000Y-61295000I150000J0D01*
G01*
X71610000Y-61295000D01*
G75*
G02*
X71760000Y-61445000I0J-150000D01*
G01*
X71760000Y-61745000D01*
G75*
G02*
X71610000Y-61895000I-150000J0D01*
G01*
X69935000Y-61895000D01*
G75*
G02*
X69785000Y-61745000I0J150000D01*
G01*
G37*
X57150000Y-58420000D03*
X59690000Y-58420000D03*
X57150000Y-60960000D03*
X59690000Y-60960000D03*
X57150000Y-63500000D03*
X59690000Y-63500000D03*
X57150000Y-66040000D03*
X59690000Y-66040000D03*
X74930000Y-66040000D03*
X77470000Y-66040000D03*
X74930000Y-63500000D03*
X77470000Y-63500000D03*
X74930000Y-60960000D03*
X77470000Y-60960000D03*
X74930000Y-58420000D03*
X77470000Y-58420000D03*
X77470000Y-93980000D03*
X74930000Y-93980000D03*
X59690000Y-93980000D03*
X57150000Y-93980000D03*
X72390000Y-96520000D03*
X69850000Y-96520000D03*
X67310000Y-96520000D03*
X64770000Y-96520000D03*
X62230000Y-96520000D03*
X97790000Y-106680000D03*
X95250000Y-106680000D03*
X92710000Y-106680000D03*
X90170000Y-106680000D03*
X87630000Y-106680000D03*
X85090000Y-106680000D03*
X82550000Y-106680000D03*
X80010000Y-106680000D03*
X77470000Y-106680000D03*
X74930000Y-106680000D03*
X72390000Y-106680000D03*
X69850000Y-106680000D03*
X67310000Y-106680000D03*
X64770000Y-106680000D03*
X62230000Y-106680000D03*
X59690000Y-106680000D03*
X57150000Y-106680000D03*
X54610000Y-106680000D03*
X52070000Y-106680000D03*
X49530000Y-106680000D03*
X46990000Y-106680000D03*
X44450000Y-106680000D03*
X41910000Y-106680000D03*
X39370000Y-106680000D03*
X36830000Y-106680000D03*
X97790000Y-104140000D03*
X95250000Y-104140000D03*
X92710000Y-104140000D03*
X90170000Y-104140000D03*
X87630000Y-104140000D03*
X85090000Y-104140000D03*
X82550000Y-104140000D03*
X80010000Y-104140000D03*
X77470000Y-104140000D03*
X74930000Y-104140000D03*
X72390000Y-104140000D03*
X69850000Y-104140000D03*
X67310000Y-104140000D03*
X64770000Y-104140000D03*
X62230000Y-104140000D03*
X59690000Y-104140000D03*
X57150000Y-104140000D03*
X54610000Y-104140000D03*
X52070000Y-104140000D03*
X49530000Y-104140000D03*
X46990000Y-104140000D03*
X44450000Y-104140000D03*
X41910000Y-104140000D03*
X39370000Y-104140000D03*
X36830000Y-104140000D03*
X97790000Y-101600000D03*
X95250000Y-101600000D03*
X92710000Y-101600000D03*
X90170000Y-101600000D03*
X87630000Y-101600000D03*
X85090000Y-101600000D03*
X82550000Y-101600000D03*
X80010000Y-101600000D03*
X77470000Y-101600000D03*
X74930000Y-101600000D03*
X72390000Y-101600000D03*
X69850000Y-101600000D03*
X67310000Y-101600000D03*
X64770000Y-101600000D03*
X62230000Y-101600000D03*
X59690000Y-101600000D03*
X57150000Y-101600000D03*
X54610000Y-101600000D03*
X52070000Y-101600000D03*
X49530000Y-101600000D03*
X46990000Y-101600000D03*
X44450000Y-101600000D03*
X41910000Y-101600000D03*
X39370000Y-101600000D03*
X36830000Y-101600000D03*
X97790000Y-99060000D03*
X95250000Y-99060000D03*
X92710000Y-99060000D03*
X90170000Y-99060000D03*
X87630000Y-99060000D03*
X85090000Y-99060000D03*
X82550000Y-99060000D03*
X80010000Y-99060000D03*
X77470000Y-99060000D03*
X74930000Y-99060000D03*
X72390000Y-99060000D03*
X69850000Y-99060000D03*
X67310000Y-99060000D03*
X64770000Y-99060000D03*
X62230000Y-99060000D03*
X59690000Y-99060000D03*
X57150000Y-99060000D03*
X54610000Y-99060000D03*
X52070000Y-99060000D03*
X49530000Y-99060000D03*
X46990000Y-99060000D03*
X44450000Y-99060000D03*
X41910000Y-99060000D03*
X39370000Y-99060000D03*
X36830000Y-99060000D03*
X97790000Y-96520000D03*
X95250000Y-96520000D03*
X92710000Y-96520000D03*
X90170000Y-96520000D03*
X87630000Y-96520000D03*
X85090000Y-96520000D03*
X82550000Y-96520000D03*
X80010000Y-96520000D03*
X77470000Y-96520000D03*
X74930000Y-96520000D03*
X59690000Y-96520000D03*
X57150000Y-96520000D03*
X54610000Y-96520000D03*
X52070000Y-96520000D03*
X49530000Y-96520000D03*
X46990000Y-96520000D03*
X44450000Y-96520000D03*
X41910000Y-96520000D03*
X39370000Y-96520000D03*
X36830000Y-96520000D03*
X97790000Y-93980000D03*
X95250000Y-93980000D03*
X92710000Y-93980000D03*
X90170000Y-93980000D03*
X87630000Y-93980000D03*
X85090000Y-93980000D03*
X82550000Y-93980000D03*
X80010000Y-93980000D03*
X54610000Y-93980000D03*
X52070000Y-93980000D03*
X49530000Y-93980000D03*
X46990000Y-93980000D03*
X44450000Y-93980000D03*
X41910000Y-93980000D03*
X39370000Y-93980000D03*
X36830000Y-93980000D03*
X97790000Y-91440000D03*
X95250000Y-91440000D03*
X92710000Y-91440000D03*
X90170000Y-91440000D03*
X87630000Y-91440000D03*
X85090000Y-91440000D03*
X82550000Y-91440000D03*
X80010000Y-91440000D03*
X54610000Y-91440000D03*
X52070000Y-91440000D03*
X49530000Y-91440000D03*
X46990000Y-91440000D03*
X44450000Y-91440000D03*
X41910000Y-91440000D03*
X39370000Y-91440000D03*
X36830000Y-91440000D03*
X97790000Y-88900000D03*
X95250000Y-88900000D03*
X92710000Y-88900000D03*
X90170000Y-88900000D03*
X87630000Y-88900000D03*
X85090000Y-88900000D03*
X82550000Y-88900000D03*
X80010000Y-88900000D03*
X54610000Y-88900000D03*
X52070000Y-88900000D03*
X49530000Y-88900000D03*
X46990000Y-88900000D03*
X44450000Y-88900000D03*
X41910000Y-88900000D03*
X39370000Y-88900000D03*
X36830000Y-88900000D03*
X97790000Y-86360000D03*
X95250000Y-86360000D03*
X92710000Y-86360000D03*
X90170000Y-86360000D03*
X87630000Y-86360000D03*
X85090000Y-86360000D03*
X82550000Y-86360000D03*
X80010000Y-86360000D03*
X54610000Y-86360000D03*
X52070000Y-86360000D03*
X49530000Y-86360000D03*
X46990000Y-86360000D03*
X44450000Y-86360000D03*
X41910000Y-86360000D03*
X39370000Y-86360000D03*
X36830000Y-86360000D03*
X97790000Y-83820000D03*
X95250000Y-83820000D03*
X92710000Y-83820000D03*
X90170000Y-83820000D03*
X87630000Y-83820000D03*
X85090000Y-83820000D03*
X82550000Y-83820000D03*
X80010000Y-83820000D03*
X54610000Y-83820000D03*
X52070000Y-83820000D03*
X49530000Y-83820000D03*
X46990000Y-83820000D03*
X44450000Y-83820000D03*
X41910000Y-83820000D03*
X39370000Y-83820000D03*
X36830000Y-83820000D03*
X97790000Y-81280000D03*
X95250000Y-81280000D03*
X92710000Y-81280000D03*
X90170000Y-81280000D03*
X87630000Y-81280000D03*
X85090000Y-81280000D03*
X82550000Y-81280000D03*
X80010000Y-81280000D03*
X77470000Y-81280000D03*
X74930000Y-81280000D03*
X72390000Y-81280000D03*
X69850000Y-81280000D03*
X67310000Y-81280000D03*
X64770000Y-81280000D03*
X62230000Y-81280000D03*
X59690000Y-81280000D03*
X57150000Y-81280000D03*
X54610000Y-81280000D03*
X52070000Y-81280000D03*
X49530000Y-81280000D03*
X46990000Y-81280000D03*
X44450000Y-81280000D03*
X41910000Y-81280000D03*
X39370000Y-81280000D03*
X36830000Y-81280000D03*
X97790000Y-78740000D03*
X95250000Y-78740000D03*
X92710000Y-78740000D03*
X90170000Y-78740000D03*
X87630000Y-78740000D03*
X85090000Y-78740000D03*
X82550000Y-78740000D03*
X80010000Y-78740000D03*
X77470000Y-78740000D03*
X74930000Y-78740000D03*
X72390000Y-78740000D03*
X69850000Y-78740000D03*
X67310000Y-78740000D03*
X64770000Y-78740000D03*
X62230000Y-78740000D03*
X59690000Y-78740000D03*
X57150000Y-78740000D03*
X54610000Y-78740000D03*
X52070000Y-78740000D03*
X49530000Y-78740000D03*
X46990000Y-78740000D03*
X44450000Y-78740000D03*
X41910000Y-78740000D03*
X39370000Y-78740000D03*
X36830000Y-78740000D03*
X97790000Y-76200000D03*
X95250000Y-76200000D03*
X92710000Y-76200000D03*
X90170000Y-76200000D03*
X87630000Y-76200000D03*
X85090000Y-76200000D03*
X82550000Y-76200000D03*
X80010000Y-76200000D03*
X77470000Y-76200000D03*
X74930000Y-76200000D03*
X72390000Y-76200000D03*
X69850000Y-76200000D03*
X67310000Y-76200000D03*
X64770000Y-76200000D03*
X62230000Y-76200000D03*
X59690000Y-76200000D03*
X57150000Y-76200000D03*
X54610000Y-76200000D03*
X52070000Y-76200000D03*
X49530000Y-76200000D03*
X46990000Y-76200000D03*
X44450000Y-76200000D03*
X41910000Y-76200000D03*
X39370000Y-76200000D03*
X36830000Y-76200000D03*
X97790000Y-73660000D03*
X95250000Y-73660000D03*
X92710000Y-73660000D03*
X90170000Y-73660000D03*
X87630000Y-73660000D03*
X85090000Y-73660000D03*
X82550000Y-73660000D03*
X80010000Y-73660000D03*
X77470000Y-73660000D03*
X74930000Y-73660000D03*
X72390000Y-73660000D03*
X69850000Y-73660000D03*
X67310000Y-73660000D03*
X64770000Y-73660000D03*
X62230000Y-73660000D03*
X59690000Y-73660000D03*
X57150000Y-73660000D03*
X54610000Y-73660000D03*
X52070000Y-73660000D03*
X49530000Y-73660000D03*
X46990000Y-73660000D03*
X44450000Y-73660000D03*
X41910000Y-73660000D03*
X39370000Y-73660000D03*
X36830000Y-73660000D03*
X97790000Y-71120000D03*
X95250000Y-71120000D03*
X92710000Y-71120000D03*
X90170000Y-71120000D03*
X87630000Y-71120000D03*
X85090000Y-71120000D03*
X82550000Y-71120000D03*
X80010000Y-71120000D03*
X77470000Y-71120000D03*
X74930000Y-71120000D03*
X72390000Y-71120000D03*
X69850000Y-71120000D03*
X67310000Y-71120000D03*
X64770000Y-71120000D03*
X62230000Y-71120000D03*
X59690000Y-71120000D03*
X57150000Y-71120000D03*
X54610000Y-71120000D03*
X52070000Y-71120000D03*
X49530000Y-71120000D03*
X46990000Y-71120000D03*
X44450000Y-71120000D03*
X41910000Y-71120000D03*
X39370000Y-71120000D03*
X36830000Y-71120000D03*
X97790000Y-68580000D03*
X95250000Y-68580000D03*
X92710000Y-68580000D03*
X90170000Y-68580000D03*
X87630000Y-68580000D03*
X85090000Y-68580000D03*
X82550000Y-68580000D03*
X80010000Y-68580000D03*
X77470000Y-68580000D03*
X74930000Y-68580000D03*
X59690000Y-68580000D03*
X57150000Y-68580000D03*
X54610000Y-68580000D03*
X52070000Y-68580000D03*
X49530000Y-68580000D03*
X46990000Y-68580000D03*
X44450000Y-68580000D03*
X41910000Y-68580000D03*
X39370000Y-68580000D03*
X36830000Y-68580000D03*
X97790000Y-66040000D03*
X95250000Y-66040000D03*
X92710000Y-66040000D03*
X90170000Y-66040000D03*
X87630000Y-66040000D03*
X85090000Y-66040000D03*
X82550000Y-66040000D03*
X80010000Y-66040000D03*
X54610000Y-66040000D03*
X52070000Y-66040000D03*
X49530000Y-66040000D03*
X46990000Y-66040000D03*
X44450000Y-66040000D03*
X41910000Y-66040000D03*
X39370000Y-66040000D03*
X36830000Y-66040000D03*
X97790000Y-63500000D03*
X95250000Y-63500000D03*
X92710000Y-63500000D03*
X90170000Y-63500000D03*
X87630000Y-63500000D03*
X85090000Y-63500000D03*
X82550000Y-63500000D03*
X80010000Y-63500000D03*
X54610000Y-63500000D03*
X52070000Y-63500000D03*
X49530000Y-63500000D03*
X46990000Y-63500000D03*
X44450000Y-63500000D03*
X41910000Y-63500000D03*
X39370000Y-63500000D03*
X36830000Y-63500000D03*
X97790000Y-60960000D03*
X95250000Y-60960000D03*
X92710000Y-60960000D03*
X90170000Y-60960000D03*
X87630000Y-60960000D03*
X85090000Y-60960000D03*
X82550000Y-60960000D03*
X80010000Y-60960000D03*
X54610000Y-60960000D03*
X52070000Y-60960000D03*
X49530000Y-60960000D03*
X46990000Y-60960000D03*
X44450000Y-60960000D03*
X41910000Y-60960000D03*
X39370000Y-60960000D03*
X36830000Y-60960000D03*
X97790000Y-58420000D03*
X95250000Y-58420000D03*
X92710000Y-58420000D03*
X90170000Y-58420000D03*
X87630000Y-58420000D03*
X85090000Y-58420000D03*
X82550000Y-58420000D03*
X80010000Y-58420000D03*
X54610000Y-58420000D03*
X52070000Y-58420000D03*
X49530000Y-58420000D03*
X46990000Y-58420000D03*
X44450000Y-58420000D03*
X41910000Y-58420000D03*
X39370000Y-58420000D03*
X36830000Y-58420000D03*
X97790000Y-55880000D03*
X95250000Y-55880000D03*
X92710000Y-55880000D03*
X90170000Y-55880000D03*
X87630000Y-55880000D03*
X85090000Y-55880000D03*
X82550000Y-55880000D03*
X80010000Y-55880000D03*
X77470000Y-55880000D03*
X74930000Y-55880000D03*
X72390000Y-55880000D03*
X69850000Y-55880000D03*
X67310000Y-55880000D03*
X64770000Y-55880000D03*
X62230000Y-55880000D03*
X59690000Y-55880000D03*
X57150000Y-55880000D03*
X54610000Y-55880000D03*
X52070000Y-55880000D03*
X49530000Y-55880000D03*
X46990000Y-55880000D03*
X44450000Y-55880000D03*
X41910000Y-55880000D03*
X39370000Y-55880000D03*
X36830000Y-55880000D03*
X97790000Y-53340000D03*
X95250000Y-53340000D03*
X92710000Y-53340000D03*
X90170000Y-53340000D03*
X87630000Y-53340000D03*
X85090000Y-53340000D03*
X82550000Y-53340000D03*
X80010000Y-53340000D03*
X77470000Y-53340000D03*
X74930000Y-53340000D03*
X72390000Y-53340000D03*
X69850000Y-53340000D03*
X67310000Y-53340000D03*
X64770000Y-53340000D03*
X62230000Y-53340000D03*
X59690000Y-53340000D03*
X57150000Y-53340000D03*
X54610000Y-53340000D03*
X52070000Y-53340000D03*
X49530000Y-53340000D03*
X46990000Y-53340000D03*
X44450000Y-53340000D03*
X41910000Y-53340000D03*
X39370000Y-53340000D03*
X36830000Y-53340000D03*
X97790000Y-50800000D03*
X95250000Y-50800000D03*
X92710000Y-50800000D03*
X90170000Y-50800000D03*
X87630000Y-50800000D03*
X85090000Y-50800000D03*
X82550000Y-50800000D03*
X80010000Y-50800000D03*
X77470000Y-50800000D03*
X74930000Y-50800000D03*
X72390000Y-50800000D03*
X69850000Y-50800000D03*
X67310000Y-50800000D03*
X64770000Y-50800000D03*
X62230000Y-50800000D03*
X59690000Y-50800000D03*
X57150000Y-50800000D03*
X54610000Y-50800000D03*
X52070000Y-50800000D03*
X49530000Y-50800000D03*
X46990000Y-50800000D03*
X44450000Y-50800000D03*
X41910000Y-50800000D03*
X39370000Y-50800000D03*
X36830000Y-50800000D03*
X97790000Y-48260000D03*
X95250000Y-48260000D03*
X92710000Y-48260000D03*
X90170000Y-48260000D03*
X87630000Y-48260000D03*
X85090000Y-48260000D03*
X82550000Y-48260000D03*
X80010000Y-48260000D03*
X77470000Y-48260000D03*
X74930000Y-48260000D03*
X72390000Y-48260000D03*
X69850000Y-48260000D03*
X67310000Y-48260000D03*
X64770000Y-48260000D03*
X62230000Y-48260000D03*
X59690000Y-48260000D03*
X57150000Y-48260000D03*
X54610000Y-48260000D03*
X52070000Y-48260000D03*
X49530000Y-48260000D03*
X46990000Y-48260000D03*
X44450000Y-48260000D03*
X41910000Y-48260000D03*
X39370000Y-48260000D03*
X36830000Y-48260000D03*
X97790000Y-45720000D03*
X95250000Y-45720000D03*
X92710000Y-45720000D03*
X90170000Y-45720000D03*
X87630000Y-45720000D03*
X85090000Y-45720000D03*
X82550000Y-45720000D03*
X80010000Y-45720000D03*
X77470000Y-45720000D03*
X74930000Y-45720000D03*
X72390000Y-45720000D03*
X69850000Y-45720000D03*
X67310000Y-45720000D03*
X64770000Y-45720000D03*
X62230000Y-45720000D03*
X59690000Y-45720000D03*
X57150000Y-45720000D03*
X54610000Y-45720000D03*
X52070000Y-45720000D03*
X49530000Y-45720000D03*
X46990000Y-45720000D03*
X44450000Y-45720000D03*
X41910000Y-45720000D03*
X39370000Y-45720000D03*
X36830000Y-45720000D03*
D12*
X99060000Y-31115000D03*
X96520000Y-31115000D03*
X93980000Y-31115000D03*
X91440000Y-31115000D03*
X88900000Y-31115000D03*
X86360000Y-31115000D03*
X83820000Y-31115000D03*
X81280000Y-31115000D03*
X78740000Y-31115000D03*
X76200000Y-31115000D03*
X73660000Y-31115000D03*
X71120000Y-31115000D03*
X68580000Y-31115000D03*
X66040000Y-31115000D03*
X63500000Y-31115000D03*
X60960000Y-31115000D03*
X58420000Y-31115000D03*
X55880000Y-31115000D03*
X53340000Y-31115000D03*
X50800000Y-31115000D03*
X48260000Y-31115000D03*
X45720000Y-31115000D03*
X43180000Y-31115000D03*
X40640000Y-31115000D03*
X38100000Y-31115000D03*
X35560000Y-31115000D03*
X99060000Y-28575000D03*
X96520000Y-28575000D03*
X93980000Y-28575000D03*
X91440000Y-28575000D03*
X88900000Y-28575000D03*
X86360000Y-28575000D03*
X83820000Y-28575000D03*
X81280000Y-28575000D03*
X78740000Y-28575000D03*
X76200000Y-28575000D03*
X73660000Y-28575000D03*
X71120000Y-28575000D03*
X68580000Y-28575000D03*
X66040000Y-28575000D03*
X63500000Y-28575000D03*
X60960000Y-28575000D03*
X58420000Y-28575000D03*
X55880000Y-28575000D03*
X53340000Y-28575000D03*
X50800000Y-28575000D03*
X48260000Y-28575000D03*
X45720000Y-28575000D03*
X43180000Y-28575000D03*
X40640000Y-28575000D03*
X38100000Y-28575000D03*
G36*
G01*
X34905000Y-28980000D02*
X34905000Y-28170000D01*
G75*
G02*
X35155000Y-27920000I250000J0D01*
G01*
X35965000Y-27920000D01*
G75*
G02*
X36215000Y-28170000I0J-250000D01*
G01*
X36215000Y-28980000D01*
G75*
G02*
X35965000Y-29230000I-250000J0D01*
G01*
X35155000Y-29230000D01*
G75*
G02*
X34905000Y-28980000I0J250000D01*
G01*
G37*
G36*
G01*
X83305000Y-24775000D02*
X83305000Y-26025000D01*
G75*
G02*
X83055000Y-26275000I-250000J0D01*
G01*
X82305000Y-26275000D01*
G75*
G02*
X82055000Y-26025000I0J250000D01*
G01*
X82055000Y-24775000D01*
G75*
G02*
X82305000Y-24525000I250000J0D01*
G01*
X83055000Y-24525000D01*
G75*
G02*
X83305000Y-24775000I0J-250000D01*
G01*
G37*
G36*
G01*
X80505000Y-24775000D02*
X80505000Y-26025000D01*
G75*
G02*
X80255000Y-26275000I-250000J0D01*
G01*
X79505000Y-26275000D01*
G75*
G02*
X79255000Y-26025000I0J250000D01*
G01*
X79255000Y-24775000D01*
G75*
G02*
X79505000Y-24525000I250000J0D01*
G01*
X80255000Y-24525000D01*
G75*
G02*
X80505000Y-24775000I0J-250000D01*
G01*
G37*
D13*
X26670000Y-106680000D03*
D14*
X26670000Y-104140000D03*
D13*
X26670000Y-97790000D03*
D14*
X26670000Y-95250000D03*
G36*
G01*
X26220000Y-54153750D02*
X26220000Y-55066250D01*
G75*
G02*
X25976250Y-55310000I-243750J0D01*
G01*
X25488750Y-55310000D01*
G75*
G02*
X25245000Y-55066250I0J243750D01*
G01*
X25245000Y-54153750D01*
G75*
G02*
X25488750Y-53910000I243750J0D01*
G01*
X25976250Y-53910000D01*
G75*
G02*
X26220000Y-54153750I0J-243750D01*
G01*
G37*
G36*
G01*
X28095000Y-54153750D02*
X28095000Y-55066250D01*
G75*
G02*
X27851250Y-55310000I-243750J0D01*
G01*
X27363750Y-55310000D01*
G75*
G02*
X27120000Y-55066250I0J243750D01*
G01*
X27120000Y-54153750D01*
G75*
G02*
X27363750Y-53910000I243750J0D01*
G01*
X27851250Y-53910000D01*
G75*
G02*
X28095000Y-54153750I0J-243750D01*
G01*
G37*
G36*
G01*
X26220000Y-41453750D02*
X26220000Y-42366250D01*
G75*
G02*
X25976250Y-42610000I-243750J0D01*
G01*
X25488750Y-42610000D01*
G75*
G02*
X25245000Y-42366250I0J243750D01*
G01*
X25245000Y-41453750D01*
G75*
G02*
X25488750Y-41210000I243750J0D01*
G01*
X25976250Y-41210000D01*
G75*
G02*
X26220000Y-41453750I0J-243750D01*
G01*
G37*
G36*
G01*
X28095000Y-41453750D02*
X28095000Y-42366250D01*
G75*
G02*
X27851250Y-42610000I-243750J0D01*
G01*
X27363750Y-42610000D01*
G75*
G02*
X27120000Y-42366250I0J243750D01*
G01*
X27120000Y-41453750D01*
G75*
G02*
X27363750Y-41210000I243750J0D01*
G01*
X27851250Y-41210000D01*
G75*
G02*
X28095000Y-41453750I0J-243750D01*
G01*
G37*
D13*
X26670000Y-88900000D03*
D14*
X26670000Y-86360000D03*
X26670000Y-35560000D03*
D13*
X26670000Y-38100000D03*
X26670000Y-50800000D03*
D14*
X26670000Y-48260000D03*
D12*
X99060000Y-36195000D03*
X96520000Y-36195000D03*
X93980000Y-36195000D03*
X91440000Y-36195000D03*
X88900000Y-36195000D03*
X86360000Y-36195000D03*
X83820000Y-36195000D03*
X81280000Y-36195000D03*
X78740000Y-36195000D03*
X76200000Y-36195000D03*
X73660000Y-36195000D03*
X71120000Y-36195000D03*
X68580000Y-36195000D03*
X66040000Y-36195000D03*
X63500000Y-36195000D03*
X60960000Y-36195000D03*
X58420000Y-36195000D03*
X55880000Y-36195000D03*
X53340000Y-36195000D03*
X50800000Y-36195000D03*
X48260000Y-36195000D03*
X45720000Y-36195000D03*
X43180000Y-36195000D03*
X40640000Y-36195000D03*
X38100000Y-36195000D03*
X35560000Y-36195000D03*
X99060000Y-33655000D03*
X96520000Y-33655000D03*
X93980000Y-33655000D03*
X91440000Y-33655000D03*
X88900000Y-33655000D03*
X86360000Y-33655000D03*
X83820000Y-33655000D03*
X81280000Y-33655000D03*
X78740000Y-33655000D03*
X76200000Y-33655000D03*
X73660000Y-33655000D03*
X71120000Y-33655000D03*
X68580000Y-33655000D03*
X66040000Y-33655000D03*
X63500000Y-33655000D03*
X60960000Y-33655000D03*
X58420000Y-33655000D03*
X55880000Y-33655000D03*
X53340000Y-33655000D03*
X50800000Y-33655000D03*
X48260000Y-33655000D03*
X45720000Y-33655000D03*
X43180000Y-33655000D03*
X40640000Y-33655000D03*
X38100000Y-33655000D03*
G36*
G01*
X34905000Y-34060000D02*
X34905000Y-33250000D01*
G75*
G02*
X35155000Y-33000000I250000J0D01*
G01*
X35965000Y-33000000D01*
G75*
G02*
X36215000Y-33250000I0J-250000D01*
G01*
X36215000Y-34060000D01*
G75*
G02*
X35965000Y-34310000I-250000J0D01*
G01*
X35155000Y-34310000D01*
G75*
G02*
X34905000Y-34060000I0J250000D01*
G01*
G37*
D15*
X28367056Y-112602944D03*
X26670000Y-111900000D03*
X24972944Y-112602944D03*
X24270000Y-114300000D03*
X24972944Y-115997056D03*
X26670000Y-116700000D03*
X28367056Y-115997056D03*
X29070000Y-114300000D03*
D16*
X26670000Y-114300000D03*
D15*
X108377056Y-112602944D03*
X106680000Y-111900000D03*
X104982944Y-112602944D03*
X104280000Y-114300000D03*
X104982944Y-115997056D03*
X106680000Y-116700000D03*
X108377056Y-115997056D03*
X109080000Y-114300000D03*
D16*
X106680000Y-114300000D03*
D15*
X105837056Y-26877944D03*
X104140000Y-26175000D03*
X102442944Y-26877944D03*
X101740000Y-28575000D03*
X102442944Y-30272056D03*
X104140000Y-30975000D03*
X105837056Y-30272056D03*
X106540000Y-28575000D03*
D16*
X104140000Y-28575000D03*
D15*
X32177056Y-26877944D03*
X30480000Y-26175000D03*
X28782944Y-26877944D03*
X28080000Y-28575000D03*
X28782944Y-30272056D03*
X30480000Y-30975000D03*
X32177056Y-30272056D03*
X32880000Y-28575000D03*
D16*
X30480000Y-28575000D03*
D17*
X35560000Y-111760000D03*
D18*
X38100000Y-111760000D03*
X40640000Y-111760000D03*
X43180000Y-111760000D03*
X45720000Y-111760000D03*
X48260000Y-111760000D03*
X50800000Y-111760000D03*
X53340000Y-111760000D03*
X55880000Y-111760000D03*
X58420000Y-111760000D03*
X60960000Y-111760000D03*
X63500000Y-111760000D03*
X66040000Y-111760000D03*
X68580000Y-111760000D03*
X71120000Y-111760000D03*
X73660000Y-111760000D03*
X76200000Y-111760000D03*
X78740000Y-111760000D03*
X81280000Y-111760000D03*
X83820000Y-111760000D03*
X86360000Y-111760000D03*
X88900000Y-111760000D03*
X91440000Y-111760000D03*
X93980000Y-111760000D03*
X96520000Y-111760000D03*
X99060000Y-111760000D03*
D19*
X102870000Y-107950000D03*
D20*
X102870000Y-105410000D03*
X102870000Y-102870000D03*
X102870000Y-100330000D03*
X102870000Y-97790000D03*
X102870000Y-95250000D03*
X102870000Y-92710000D03*
X102870000Y-90170000D03*
X102870000Y-87630000D03*
X102870000Y-85090000D03*
X102870000Y-82550000D03*
X102870000Y-80010000D03*
X102870000Y-77470000D03*
X102870000Y-74930000D03*
X102870000Y-72390000D03*
X102870000Y-69850000D03*
X102870000Y-67310000D03*
X102870000Y-64770000D03*
X102870000Y-62230000D03*
X102870000Y-59690000D03*
X102870000Y-57150000D03*
X102870000Y-54610000D03*
X102870000Y-52070000D03*
X102870000Y-49530000D03*
X102870000Y-46990000D03*
X102870000Y-44450000D03*
X31750000Y-107950000D03*
X31750000Y-105410000D03*
X31750000Y-102870000D03*
X31750000Y-100330000D03*
X31750000Y-97790000D03*
X31750000Y-95250000D03*
X31750000Y-92710000D03*
X31750000Y-90170000D03*
X31750000Y-87630000D03*
X31750000Y-85090000D03*
X31750000Y-82550000D03*
X31750000Y-80010000D03*
X31750000Y-77470000D03*
X31750000Y-74930000D03*
X31750000Y-72390000D03*
X31750000Y-69850000D03*
X31750000Y-67310000D03*
X31750000Y-64770000D03*
X31750000Y-62230000D03*
X31750000Y-59690000D03*
X31750000Y-57150000D03*
X31750000Y-54610000D03*
X31750000Y-52070000D03*
X31750000Y-49530000D03*
X31750000Y-46990000D03*
D19*
X31750000Y-44450000D03*
D17*
X35560000Y-40640000D03*
D18*
X38100000Y-40640000D03*
X40640000Y-40640000D03*
X43180000Y-40640000D03*
X45720000Y-40640000D03*
X48260000Y-40640000D03*
X50800000Y-40640000D03*
X53340000Y-40640000D03*
X55880000Y-40640000D03*
X58420000Y-40640000D03*
X60960000Y-40640000D03*
X63500000Y-40640000D03*
X66040000Y-40640000D03*
X68580000Y-40640000D03*
X71120000Y-40640000D03*
X73660000Y-40640000D03*
X76200000Y-40640000D03*
X78740000Y-40640000D03*
X81280000Y-40640000D03*
X83820000Y-40640000D03*
X86360000Y-40640000D03*
X88900000Y-40640000D03*
X91440000Y-40640000D03*
X93980000Y-40640000D03*
X96520000Y-40640000D03*
X99060000Y-40640000D03*
M02*
