M48
; DRILL file {KiCad (5.1.6)-1} date 08/26/20 15:25:48
; FORMAT={-:-/ absolute / metric / decimal}
; #@! TF.CreationDate,2020-08-26T15:25:48+02:00
; #@! TF.GenerationSoftware,Kicad,Pcbnew,(5.1.6)-1
FMAT,2
METRIC
T1C0.400
T2C0.500
T3C0.800
T4C0.850
T5C3.200
%
G90
G05
T1
X21.186Y89.408
X21.186Y88.265
X22.583Y89.408
X22.583Y88.265
X27.934Y89.408
X27.934Y88.265
X29.331Y89.408
X29.331Y88.265
X52.959Y89.408
X52.959Y88.265
X54.356Y89.408
X54.356Y88.265
X59.704Y89.408
X59.704Y88.265
X61.101Y89.408
X61.101Y88.265
T2
X75.07Y85.725
X75.773Y87.422
X75.773Y84.028
X77.47Y88.125
X77.47Y83.325
X79.167Y87.422
X79.167Y84.028
X79.87Y85.725
X-2.4Y0.0
X-1.697Y1.697
X-1.697Y-1.697
X0.0Y2.4
X0.0Y-2.4
X1.697Y1.697
X1.697Y-1.697
X2.4Y0.0
X1.41Y85.725
X2.113Y87.422
X2.113Y84.028
X3.81Y88.125
X3.81Y83.325
X5.507Y87.422
X5.507Y84.028
X6.21Y85.725
X77.61Y0.0
X78.313Y1.697
X78.313Y-1.697
X80.01Y2.4
X80.01Y-2.4
X81.707Y1.697
X81.707Y-1.697
X82.41Y0.0
T3
X8.89Y85.725
X8.89Y83.185
X11.43Y85.725
X11.43Y83.185
X13.97Y85.725
X13.97Y83.185
X16.51Y85.725
X16.51Y83.185
X19.05Y85.725
X19.05Y83.185
X21.59Y85.725
X21.59Y83.185
X24.13Y85.725
X24.13Y83.185
X26.67Y85.725
X26.67Y83.185
X29.21Y85.725
X29.21Y83.185
X31.75Y85.725
X31.75Y83.185
X34.29Y85.725
X34.29Y83.185
X36.83Y85.725
X36.83Y83.185
X39.37Y85.725
X39.37Y83.185
X41.91Y85.725
X41.91Y83.185
X44.45Y85.725
X44.45Y83.185
X46.99Y85.725
X46.99Y83.185
X49.53Y85.725
X49.53Y83.185
X52.07Y85.725
X52.07Y83.185
X54.61Y85.725
X54.61Y83.185
X57.15Y85.725
X57.15Y83.185
X59.69Y85.725
X59.69Y83.185
X62.23Y85.725
X62.23Y83.185
X64.77Y85.725
X64.77Y83.185
X67.31Y85.725
X67.31Y83.185
X69.85Y85.725
X69.85Y83.185
X72.39Y85.725
X72.39Y83.185
X8.89Y80.645
X8.89Y78.105
X11.43Y80.645
X11.43Y78.105
X13.97Y80.645
X13.97Y78.105
X16.51Y80.645
X16.51Y78.105
X19.05Y80.645
X19.05Y78.105
X21.59Y80.645
X21.59Y78.105
X24.13Y80.645
X24.13Y78.105
X26.67Y80.645
X26.67Y78.105
X29.21Y80.645
X29.21Y78.105
X31.75Y80.645
X31.75Y78.105
X34.29Y80.645
X34.29Y78.105
X36.83Y80.645
X36.83Y78.105
X39.37Y80.645
X39.37Y78.105
X41.91Y80.645
X41.91Y78.105
X44.45Y80.645
X44.45Y78.105
X46.99Y80.645
X46.99Y78.105
X49.53Y80.645
X49.53Y78.105
X52.07Y80.645
X52.07Y78.105
X54.61Y80.645
X54.61Y78.105
X57.15Y80.645
X57.15Y78.105
X59.69Y80.645
X59.69Y78.105
X62.23Y80.645
X62.23Y78.105
X64.77Y80.645
X64.77Y78.105
X67.31Y80.645
X67.31Y78.105
X69.85Y80.645
X69.85Y78.105
X72.39Y80.645
X72.39Y78.105
T4
X-0.635Y71.755
X-0.635Y69.215
X-0.635Y66.675
X-0.635Y64.135
X-0.635Y61.595
X-0.635Y59.055
X-0.635Y56.515
X-0.635Y53.975
X-0.635Y51.435
X-0.635Y48.895
X-0.635Y46.355
X-0.635Y43.815
X-0.635Y41.275
X-0.635Y38.735
X-0.635Y36.195
X-0.635Y33.655
X-0.635Y31.115
X-0.635Y28.575
X-0.635Y26.035
X-0.635Y23.495
X-0.635Y20.955
X-0.635Y18.415
X-0.635Y15.875
X-0.635Y13.335
X-0.635Y10.795
X-0.635Y8.255
X-0.635Y5.715
X1.905Y71.755
X1.905Y69.215
X1.905Y66.675
X1.905Y64.135
X1.905Y61.595
X1.905Y59.055
X1.905Y56.515
X1.905Y53.975
X1.905Y51.435
X1.905Y48.895
X1.905Y46.355
X1.905Y43.815
X1.905Y41.275
X1.905Y38.735
X1.905Y36.195
X1.905Y33.655
X1.905Y31.115
X1.905Y28.575
X1.905Y26.035
X1.905Y23.495
X1.905Y23.495
X1.905Y20.955
X1.905Y18.415
X1.905Y15.875
X1.905Y13.335
X1.905Y10.795
X1.905Y8.255
X1.905Y5.715
X4.445Y74.295
X4.445Y71.755
X4.445Y69.215
X4.445Y66.675
X4.445Y64.135
X4.445Y61.595
X4.445Y59.055
X4.445Y56.515
X4.445Y53.975
X4.445Y51.435
X4.445Y48.895
X4.445Y46.355
X4.445Y43.815
X4.445Y41.275
X4.445Y38.735
X4.445Y36.195
X4.445Y33.655
X4.445Y31.115
X4.445Y28.575
X4.445Y26.035
X4.445Y23.495
X4.445Y20.955
X4.445Y18.415
X4.445Y15.875
X4.445Y13.335
X4.445Y10.795
X4.445Y8.255
X4.445Y5.715
X5.715Y71.755
X5.715Y69.215
X5.715Y66.675
X5.715Y64.135
X5.715Y61.595
X5.715Y59.055
X5.715Y56.515
X5.715Y53.975
X5.715Y51.435
X5.715Y48.895
X5.715Y46.355
X5.715Y43.815
X5.715Y38.735
X5.715Y36.195
X5.715Y33.655
X5.715Y31.115
X5.715Y28.575
X5.715Y26.035
X5.715Y23.495
X5.715Y20.955
X5.715Y18.415
X5.715Y15.875
X5.715Y13.335
X5.715Y10.795
X5.715Y8.255
X5.715Y5.715
X6.985Y74.295
X6.985Y71.755
X6.985Y69.215
X6.985Y66.675
X6.985Y64.135
X6.985Y61.595
X6.985Y59.055
X6.985Y56.515
X6.985Y53.975
X6.985Y51.435
X6.985Y48.895
X6.985Y46.355
X6.985Y43.815
X6.985Y41.275
X6.985Y38.735
X6.985Y36.195
X6.985Y33.655
X6.985Y31.115
X6.985Y28.575
X6.985Y26.035
X6.985Y23.495
X6.985Y20.955
X6.985Y18.415
X6.985Y15.875
X6.985Y13.335
X6.985Y10.795
X6.985Y8.255
X6.985Y5.715
X6.985Y3.175
X6.985Y0.635
X9.525Y74.295
X9.525Y71.755
X9.525Y69.215
X9.525Y66.675
X9.525Y64.135
X9.525Y61.595
X9.525Y59.055
X9.525Y56.515
X9.525Y53.975
X9.525Y51.435
X9.525Y48.895
X9.525Y46.355
X9.525Y43.815
X9.525Y41.275
X9.525Y38.735
X9.525Y36.195
X9.525Y33.655
X9.525Y31.115
X9.525Y28.575
X9.525Y26.035
X9.525Y23.495
X9.525Y20.955
X9.525Y18.415
X9.525Y15.875
X9.525Y13.335
X9.525Y10.795
X9.525Y8.255
X9.525Y5.715
X9.525Y3.175
X9.525Y0.635
X12.065Y74.295
X12.065Y71.755
X12.065Y69.215
X12.065Y66.675
X12.065Y64.135
X12.065Y61.595
X12.065Y59.055
X12.065Y56.515
X12.065Y53.975
X12.065Y51.435
X12.065Y48.895
X12.065Y46.355
X12.065Y43.815
X12.065Y41.275
X12.065Y38.735
X12.065Y36.195
X12.065Y33.655
X12.065Y31.115
X12.065Y28.575
X12.065Y26.035
X12.065Y23.495
X12.065Y20.955
X12.065Y18.415
X12.065Y15.875
X12.065Y13.335
X12.065Y10.795
X12.065Y8.255
X12.065Y5.715
X12.065Y3.175
X12.065Y0.635
X14.605Y74.295
X14.605Y71.755
X14.605Y69.215
X14.605Y66.675
X14.605Y64.135
X14.605Y61.595
X14.605Y59.055
X14.605Y56.515
X14.605Y53.975
X14.605Y51.435
X14.605Y48.895
X14.605Y46.355
X14.605Y43.815
X14.605Y41.275
X14.605Y38.735
X14.605Y36.195
X14.605Y33.655
X14.605Y31.115
X14.605Y28.575
X14.605Y26.035
X14.605Y23.495
X14.605Y20.955
X14.605Y18.415
X14.605Y15.875
X14.605Y13.335
X14.605Y10.795
X14.605Y8.255
X14.605Y5.715
X14.605Y3.175
X14.605Y0.635
X17.145Y74.295
X17.145Y71.755
X17.145Y69.215
X17.145Y66.675
X17.145Y48.895
X17.145Y46.355
X17.145Y43.815
X17.145Y41.275
X17.145Y38.735
X17.145Y36.195
X17.145Y33.655
X17.145Y31.115
X17.145Y28.575
X17.145Y26.035
X17.145Y23.495
X17.145Y20.955
X17.145Y18.415
X17.145Y15.875
X17.145Y13.335
X17.145Y10.795
X17.145Y8.255
X17.145Y5.715
X17.145Y3.175
X17.145Y0.635
X19.685Y74.295
X19.685Y71.755
X19.685Y69.215
X19.685Y66.675
X19.685Y48.895
X19.685Y46.355
X19.685Y43.815
X19.685Y41.275
X19.685Y38.735
X19.685Y36.195
X19.685Y33.655
X19.685Y31.115
X19.685Y28.575
X19.685Y26.035
X19.685Y23.495
X19.685Y20.955
X19.685Y18.415
X19.685Y15.875
X19.685Y13.335
X19.685Y10.795
X19.685Y8.255
X19.685Y5.715
X19.685Y3.175
X19.685Y0.635
X22.225Y74.295
X22.225Y71.755
X22.225Y69.215
X22.225Y66.675
X22.225Y48.895
X22.225Y46.355
X22.225Y43.815
X22.225Y41.275
X22.225Y38.735
X22.225Y36.195
X22.225Y33.655
X22.225Y31.115
X22.225Y28.575
X22.225Y26.035
X22.225Y23.495
X22.225Y20.955
X22.225Y18.415
X22.225Y15.875
X22.225Y13.335
X22.225Y10.795
X22.225Y8.255
X22.225Y5.715
X22.225Y3.175
X22.225Y0.635
X24.765Y74.295
X24.765Y71.755
X24.765Y69.215
X24.765Y66.675
X24.765Y48.895
X24.765Y46.355
X24.765Y43.815
X24.765Y41.275
X24.765Y38.735
X24.765Y36.195
X24.765Y33.655
X24.765Y31.115
X24.765Y28.575
X24.765Y26.035
X24.765Y23.495
X24.765Y20.955
X24.765Y18.415
X24.765Y15.875
X24.765Y13.335
X24.765Y10.795
X24.765Y8.255
X24.765Y5.715
X24.765Y3.175
X24.765Y0.635
X27.305Y74.295
X27.305Y71.755
X27.305Y69.215
X27.305Y66.675
X27.305Y64.135
X27.305Y61.595
X27.305Y59.055
X27.305Y56.515
X27.305Y53.975
X27.305Y51.435
X27.305Y48.895
X27.305Y46.355
X27.305Y43.815
X27.305Y41.275
X27.305Y38.735
X27.305Y36.195
X27.305Y33.655
X27.305Y31.115
X27.305Y28.575
X27.305Y26.035
X27.305Y23.495
X27.305Y20.955
X27.305Y18.415
X27.305Y15.875
X27.305Y13.335
X27.305Y10.795
X27.305Y8.255
X27.305Y5.715
X27.305Y3.175
X27.305Y0.635
X29.845Y74.295
X29.845Y71.755
X29.845Y69.215
X29.845Y66.675
X29.845Y64.135
X29.845Y61.595
X29.845Y59.055
X29.845Y56.515
X29.845Y53.975
X29.845Y51.435
X29.845Y48.895
X29.845Y46.355
X29.845Y43.815
X29.845Y41.275
X29.845Y38.735
X29.845Y36.195
X29.845Y33.655
X29.845Y31.115
X29.845Y28.575
X29.845Y26.035
X29.845Y23.495
X29.845Y20.955
X29.845Y18.415
X29.845Y15.875
X29.845Y13.335
X29.845Y10.795
X29.845Y8.255
X29.845Y5.715
X29.845Y3.175
X29.845Y0.635
X32.385Y74.295
X32.385Y71.755
X32.385Y69.215
X32.385Y66.675
X32.385Y64.135
X32.385Y61.595
X32.385Y59.055
X32.385Y56.515
X32.385Y53.975
X32.385Y51.435
X32.385Y48.895
X32.385Y46.355
X32.385Y43.815
X32.385Y41.275
X32.385Y38.735
X32.385Y36.195
X32.385Y33.655
X32.385Y31.115
X32.385Y28.575
X32.385Y26.035
X32.385Y23.495
X32.385Y20.955
X32.385Y18.415
X32.385Y15.875
X32.385Y13.335
X32.385Y10.795
X32.385Y8.255
X32.385Y5.715
X32.385Y3.175
X32.385Y0.635
X34.925Y74.295
X34.925Y71.755
X34.925Y69.215
X34.925Y66.675
X34.925Y64.135
X34.925Y61.595
X34.925Y59.055
X34.925Y56.515
X34.925Y53.975
X34.925Y51.435
X34.925Y48.895
X34.925Y46.355
X34.925Y43.815
X34.925Y41.275
X34.925Y38.735
X34.925Y36.195
X34.925Y33.655
X34.925Y31.115
X34.925Y28.575
X34.925Y26.035
X34.925Y23.495
X34.925Y20.955
X34.925Y18.415
X34.925Y15.875
X34.925Y13.335
X34.925Y10.795
X34.925Y8.255
X34.925Y5.715
X34.925Y3.175
X34.925Y0.635
X36.195Y71.755
X36.195Y69.215
X36.195Y66.675
X36.195Y64.135
X36.195Y61.595
X36.195Y59.055
X36.195Y56.515
X36.195Y53.975
X36.195Y51.435
X36.195Y48.895
X36.195Y46.355
X36.195Y43.815
X36.195Y38.735
X36.195Y36.195
X36.195Y33.655
X36.195Y31.115
X36.195Y28.575
X36.195Y26.035
X36.195Y23.495
X36.195Y20.955
X36.195Y18.415
X36.195Y15.875
X36.195Y13.335
X36.195Y10.795
X36.195Y8.255
X36.195Y5.715
X36.195Y3.175
X37.465Y74.295
X37.465Y71.755
X37.465Y69.215
X37.465Y66.675
X37.465Y64.135
X37.465Y61.595
X37.465Y59.055
X37.465Y56.515
X37.465Y53.975
X37.465Y51.435
X37.465Y48.895
X37.465Y46.355
X37.465Y43.815
X37.465Y41.275
X37.465Y38.735
X37.465Y36.195
X37.465Y33.655
X37.465Y31.115
X37.465Y28.575
X37.465Y26.035
X37.465Y23.495
X37.465Y20.955
X37.465Y18.415
X37.465Y15.875
X37.465Y13.335
X37.465Y10.795
X37.465Y8.255
X37.465Y5.715
X37.465Y3.175
X37.465Y0.635
X40.005Y71.755
X40.005Y69.215
X40.005Y66.675
X40.005Y64.135
X40.005Y61.595
X40.005Y59.055
X40.005Y56.515
X40.005Y53.975
X40.005Y51.435
X40.005Y48.895
X40.005Y46.355
X40.005Y43.815
X40.005Y38.735
X40.005Y36.195
X40.005Y33.655
X40.005Y31.115
X40.005Y28.575
X40.005Y26.035
X40.005Y26.035
X40.005Y23.495
X40.005Y20.955
X40.005Y18.415
X40.005Y15.875
X40.005Y13.335
X40.005Y10.795
X40.005Y8.255
X40.005Y5.715
X40.005Y3.175
X42.545Y74.295
X42.545Y71.755
X42.545Y69.215
X42.545Y66.675
X42.545Y64.135
X42.545Y61.595
X42.545Y59.055
X42.545Y56.515
X42.545Y53.975
X42.545Y51.435
X42.545Y48.895
X42.545Y46.355
X42.545Y43.815
X42.545Y41.275
X42.545Y38.735
X42.545Y36.195
X42.545Y33.655
X42.545Y31.115
X42.545Y28.575
X42.545Y26.035
X42.545Y23.495
X42.545Y20.955
X42.545Y18.415
X42.545Y15.875
X42.545Y13.335
X42.545Y10.795
X42.545Y8.255
X42.545Y5.715
X42.545Y3.175
X42.545Y0.635
X43.815Y71.755
X43.815Y69.215
X43.815Y66.675
X43.815Y64.135
X43.815Y61.595
X43.815Y59.055
X43.815Y56.515
X43.815Y53.975
X43.815Y51.435
X43.815Y48.895
X43.815Y46.355
X43.815Y43.815
X43.815Y38.735
X43.815Y36.195
X43.815Y33.655
X43.815Y31.115
X43.815Y28.575
X43.815Y26.035
X43.815Y23.495
X43.815Y20.955
X43.815Y18.415
X43.815Y15.875
X43.815Y13.335
X43.815Y10.795
X43.815Y8.255
X43.815Y5.715
X43.815Y3.175
X45.085Y74.295
X45.085Y71.755
X45.085Y69.215
X45.085Y66.675
X45.085Y64.135
X45.085Y61.595
X45.085Y59.055
X45.085Y56.515
X45.085Y53.975
X45.085Y51.435
X45.085Y48.895
X45.085Y46.355
X45.085Y43.815
X45.085Y41.275
X45.085Y38.735
X45.085Y36.195
X45.085Y33.655
X45.085Y31.115
X45.085Y28.575
X45.085Y26.035
X45.085Y23.495
X45.085Y20.955
X45.085Y18.415
X45.085Y15.875
X45.085Y13.335
X45.085Y10.795
X45.085Y8.255
X45.085Y5.715
X45.085Y3.175
X45.085Y0.635
X47.625Y74.295
X47.625Y71.755
X47.625Y69.215
X47.625Y66.675
X47.625Y64.135
X47.625Y61.595
X47.625Y59.055
X47.625Y56.515
X47.625Y53.975
X47.625Y51.435
X47.625Y48.895
X47.625Y46.355
X47.625Y43.815
X47.625Y41.275
X47.625Y38.735
X47.625Y36.195
X47.625Y33.655
X47.625Y31.115
X47.625Y28.575
X47.625Y26.035
X47.625Y23.495
X47.625Y20.955
X47.625Y18.415
X47.625Y15.875
X47.625Y13.335
X47.625Y10.795
X47.625Y8.255
X47.625Y5.715
X47.625Y3.175
X47.625Y0.635
X50.165Y74.295
X50.165Y71.755
X50.165Y69.215
X50.165Y66.675
X50.165Y64.135
X50.165Y61.595
X50.165Y59.055
X50.165Y56.515
X50.165Y53.975
X50.165Y51.435
X50.165Y48.895
X50.165Y46.355
X50.165Y43.815
X50.165Y41.275
X50.165Y38.735
X50.165Y36.195
X50.165Y33.655
X50.165Y31.115
X50.165Y28.575
X50.165Y26.035
X50.165Y23.495
X50.165Y20.955
X50.165Y18.415
X50.165Y15.875
X50.165Y13.335
X50.165Y10.795
X50.165Y8.255
X50.165Y5.715
X50.165Y3.175
X50.165Y0.635
X52.705Y74.295
X52.705Y71.755
X52.705Y69.215
X52.705Y66.675
X52.705Y64.135
X52.705Y61.595
X52.705Y59.055
X52.705Y56.515
X52.705Y53.975
X52.705Y51.435
X52.705Y48.895
X52.705Y46.355
X52.705Y43.815
X52.705Y41.275
X52.705Y38.735
X52.705Y36.195
X52.705Y33.655
X52.705Y31.115
X52.705Y28.575
X52.705Y26.035
X52.705Y23.495
X52.705Y20.955
X52.705Y18.415
X52.705Y15.875
X52.705Y13.335
X52.705Y10.795
X52.705Y8.255
X52.705Y5.715
X52.705Y3.175
X52.705Y0.635
X55.245Y74.295
X55.245Y71.755
X55.245Y69.215
X55.245Y66.675
X55.245Y48.895
X55.245Y46.355
X55.245Y43.815
X55.245Y41.275
X55.245Y38.735
X55.245Y36.195
X55.245Y33.655
X55.245Y31.115
X55.245Y28.575
X55.245Y26.035
X55.245Y23.495
X55.245Y20.955
X55.245Y18.415
X55.245Y15.875
X55.245Y13.335
X55.245Y10.795
X55.245Y8.255
X55.245Y5.715
X55.245Y3.175
X55.245Y0.635
X57.785Y74.295
X57.785Y71.755
X57.785Y69.215
X57.785Y66.675
X57.785Y48.895
X57.785Y46.355
X57.785Y43.815
X57.785Y41.275
X57.785Y38.735
X57.785Y36.195
X57.785Y33.655
X57.785Y31.115
X57.785Y28.575
X57.785Y26.035
X57.785Y23.495
X57.785Y20.955
X57.785Y18.415
X57.785Y15.875
X57.785Y13.335
X57.785Y10.795
X57.785Y8.255
X57.785Y5.715
X57.785Y3.175
X57.785Y0.635
X60.325Y74.295
X60.325Y71.755
X60.325Y69.215
X60.325Y66.675
X60.325Y48.895
X60.325Y46.355
X60.325Y43.815
X60.325Y41.275
X60.325Y38.735
X60.325Y36.195
X60.325Y33.655
X60.325Y31.115
X60.325Y28.575
X60.325Y26.035
X60.325Y23.495
X60.325Y20.955
X60.325Y18.415
X60.325Y15.875
X60.325Y13.335
X60.325Y10.795
X60.325Y8.255
X60.325Y5.715
X60.325Y3.175
X60.325Y0.635
X62.865Y74.295
X62.865Y71.755
X62.865Y69.215
X62.865Y66.675
X62.865Y48.895
X62.865Y46.355
X62.865Y43.815
X62.865Y41.275
X62.865Y38.735
X62.865Y36.195
X62.865Y33.655
X62.865Y31.115
X62.865Y28.575
X62.865Y26.035
X62.865Y23.495
X62.865Y20.955
X62.865Y18.415
X62.865Y15.875
X62.865Y13.335
X62.865Y10.795
X62.865Y8.255
X62.865Y5.715
X62.865Y3.175
X62.865Y0.635
X65.405Y74.295
X65.405Y71.755
X65.405Y69.215
X65.405Y66.675
X65.405Y64.135
X65.405Y61.595
X65.405Y59.055
X65.405Y56.515
X65.405Y53.975
X65.405Y51.435
X65.405Y48.895
X65.405Y46.355
X65.405Y43.815
X65.405Y41.275
X65.405Y38.735
X65.405Y36.195
X65.405Y33.655
X65.405Y31.115
X65.405Y28.575
X65.405Y26.035
X65.405Y23.495
X65.405Y20.955
X65.405Y18.415
X65.405Y15.875
X65.405Y13.335
X65.405Y10.795
X65.405Y8.255
X65.405Y5.715
X65.405Y3.175
X65.405Y0.635
X67.945Y74.295
X67.945Y71.755
X67.945Y69.215
X67.945Y66.675
X67.945Y64.135
X67.945Y61.595
X67.945Y59.055
X67.945Y56.515
X67.945Y53.975
X67.945Y51.435
X67.945Y48.895
X67.945Y46.355
X67.945Y43.815
X67.945Y41.275
X67.945Y38.735
X67.945Y36.195
X67.945Y33.655
X67.945Y31.115
X67.945Y28.575
X67.945Y26.035
X67.945Y23.495
X67.945Y20.955
X67.945Y18.415
X67.945Y15.875
X67.945Y13.335
X67.945Y10.795
X67.945Y8.255
X67.945Y5.715
X67.945Y3.175
X67.945Y0.635
X70.485Y74.295
X70.485Y71.755
X70.485Y69.215
X70.485Y66.675
X70.485Y64.135
X70.485Y61.595
X70.485Y59.055
X70.485Y56.515
X70.485Y53.975
X70.485Y51.435
X70.485Y48.895
X70.485Y46.355
X70.485Y43.815
X70.485Y41.275
X70.485Y38.735
X70.485Y36.195
X70.485Y33.655
X70.485Y31.115
X70.485Y28.575
X70.485Y26.035
X70.485Y23.495
X70.485Y20.955
X70.485Y18.415
X70.485Y15.875
X70.485Y13.335
X70.485Y10.795
X70.485Y8.255
X70.485Y5.715
X70.485Y3.175
X70.485Y0.635
X73.025Y74.295
X73.025Y71.755
X73.025Y69.215
X73.025Y66.675
X73.025Y64.135
X73.025Y61.595
X73.025Y59.055
X73.025Y56.515
X73.025Y53.975
X73.025Y51.435
X73.025Y48.895
X73.025Y46.355
X73.025Y43.815
X73.025Y41.275
X73.025Y38.735
X73.025Y36.195
X73.025Y33.655
X73.025Y31.115
X73.025Y28.575
X73.025Y26.035
X73.025Y23.495
X73.025Y20.955
X73.025Y18.415
X73.025Y15.875
X73.025Y13.335
X73.025Y10.795
X73.025Y8.255
X73.025Y5.715
X73.025Y3.175
X73.025Y0.635
X74.295Y71.755
X74.295Y69.215
X74.295Y66.675
X74.295Y64.135
X74.295Y61.595
X74.295Y59.055
X74.295Y56.515
X74.295Y53.975
X74.295Y51.435
X74.295Y48.895
X74.295Y46.355
X74.295Y43.815
X74.295Y38.735
X74.295Y36.195
X74.295Y33.655
X74.295Y31.115
X74.295Y28.575
X74.295Y26.035
X74.295Y23.495
X74.295Y20.955
X74.295Y18.415
X74.295Y15.875
X74.295Y13.335
X74.295Y10.795
X74.295Y8.255
X74.295Y5.715
X75.565Y74.295
X75.565Y71.755
X75.565Y69.215
X75.565Y66.675
X75.565Y64.135
X75.565Y61.595
X75.565Y59.055
X75.565Y56.515
X75.565Y53.975
X75.565Y51.435
X75.565Y48.895
X75.565Y46.355
X75.565Y43.815
X75.565Y41.275
X75.565Y38.735
X75.565Y36.195
X75.565Y33.655
X75.565Y31.115
X75.565Y28.575
X75.565Y26.035
X75.565Y23.495
X75.565Y20.955
X75.565Y18.415
X75.565Y15.875
X75.565Y13.335
X75.565Y10.795
X75.565Y8.255
X75.565Y5.715
X78.105Y71.755
X78.105Y69.215
X78.105Y66.675
X78.105Y64.135
X78.105Y61.595
X78.105Y59.055
X78.105Y56.515
X78.105Y53.975
X78.105Y51.435
X78.105Y48.895
X78.105Y46.355
X78.105Y43.815
X78.105Y41.275
X78.105Y38.735
X78.105Y36.195
X78.105Y33.655
X78.105Y31.115
X78.105Y28.575
X78.105Y26.035
X78.105Y23.495
X78.105Y23.495
X78.105Y20.955
X78.105Y18.415
X78.105Y15.875
X78.105Y13.335
X78.105Y10.795
X78.105Y8.255
X78.105Y5.715
X80.645Y71.755
X80.645Y69.215
X80.645Y66.675
X80.645Y64.135
X80.645Y61.595
X80.645Y59.055
X80.645Y56.515
X80.645Y53.975
X80.645Y51.435
X80.645Y48.895
X80.645Y46.355
X80.645Y43.815
X80.645Y41.275
X80.645Y38.735
X80.645Y36.195
X80.645Y33.655
X80.645Y31.115
X80.645Y28.575
X80.645Y26.035
X80.645Y23.495
X80.645Y20.955
X80.645Y18.415
X80.645Y15.875
X80.645Y13.335
X80.645Y10.795
X80.645Y8.255
X80.645Y5.715
X23.99Y88.95
X26.53Y88.95
X55.76Y88.95
X58.3Y88.95
T5
X77.47Y85.725
X0.0Y0.0
X3.81Y85.725
X80.01Y0.0
T0
M30
