G04 #@! TF.GenerationSoftware,KiCad,Pcbnew,(5.1.6)-1*
G04 #@! TF.CreationDate,2020-08-26T15:11:37+02:00*
G04 #@! TF.ProjectId,element_foxtrot,656c656d-656e-4745-9f66-6f7874726f74,v1.0*
G04 #@! TF.SameCoordinates,Original*
G04 #@! TF.FileFunction,Soldermask,Bot*
G04 #@! TF.FilePolarity,Negative*
%FSLAX46Y46*%
G04 Gerber Fmt 4.6, Leading zero omitted, Abs format (unit mm)*
G04 Created by KiCad (PCBNEW (5.1.6)-1) date 2020-08-26 15:11:37*
%MOMM*%
%LPD*%
G01*
G04 APERTURE LIST*
G04 #@! TA.AperFunction,Profile*
%ADD10C,0.050000*%
G04 #@! TD*
%ADD11C,1.500000*%
%ADD12C,2.250000*%
%ADD13C,1.300000*%
%ADD14C,1.365000*%
%ADD15C,0.800000*%
%ADD16C,6.400000*%
%ADD17R,1.750000X1.750000*%
%ADD18O,1.100000X2.550000*%
%ADD19O,1.200000X2.400000*%
%ADD20C,2.600000*%
%ADD21C,1.600000*%
%ADD22R,1.600000X1.600000*%
%ADD23O,4.500000X2.250000*%
%ADD24O,4.000000X2.000000*%
%ADD25O,2.000000X4.000000*%
%ADD26C,9.520000*%
G04 APERTURE END LIST*
D10*
X109000000Y-79000000D02*
X143500000Y-79000000D01*
X143500000Y-78000000D02*
X109000000Y-78000000D01*
X200000000Y-79000000D02*
X202000000Y-79000000D01*
X196000000Y-78000000D02*
X153500000Y-78000000D01*
X147500000Y-79000000D02*
G75*
G02*
X147500000Y-78000000I0J500000D01*
G01*
X153500000Y-79000000D02*
X196000000Y-79000000D01*
X200000000Y-79000000D02*
G75*
G02*
X200000000Y-78000000I0J500000D01*
G01*
X147500000Y-79000000D02*
X149500000Y-79000000D01*
X196000000Y-78000000D02*
G75*
G02*
X196000000Y-79000000I0J-500000D01*
G01*
X143500000Y-78000000D02*
G75*
G02*
X143500000Y-79000000I0J-500000D01*
G01*
X202000000Y-78000000D02*
G75*
G02*
X202000000Y-79000000I0J-500000D01*
G01*
X206000000Y-79000000D02*
G75*
G02*
X206000000Y-78000000I0J500000D01*
G01*
X153500000Y-79000000D02*
G75*
G02*
X153500000Y-78000000I0J500000D01*
G01*
X206000000Y-79000000D02*
X222500000Y-79000000D01*
X222500000Y-78000000D02*
X206000000Y-78000000D01*
X149500000Y-78000000D02*
G75*
G02*
X149500000Y-79000000I0J-500000D01*
G01*
X149500000Y-78000000D02*
X147500000Y-78000000D01*
X202000000Y-78000000D02*
X200000000Y-78000000D01*
X25000000Y-84000000D02*
G75*
G02*
X30000000Y-79000000I5000000J0D01*
G01*
X30000000Y-78000000D02*
G75*
G02*
X25000000Y-73000000I0J5000000D01*
G01*
X227500000Y-335000000D02*
G75*
G02*
X222500000Y-340000000I-5000000J0D01*
G01*
X30000000Y-340000000D02*
G75*
G02*
X25000000Y-335000000I0J5000000D01*
G01*
X99000000Y-78000000D02*
G75*
G02*
X99000000Y-79000000I0J-500000D01*
G01*
X99000000Y-78000000D02*
X91500000Y-78000000D01*
X91500000Y-79000000D02*
G75*
G02*
X91500000Y-78000000I0J500000D01*
G01*
X91500000Y-79000000D02*
X99000000Y-79000000D01*
X81500000Y-78000000D02*
X74000000Y-78000000D01*
X81500000Y-78000000D02*
G75*
G02*
X81500000Y-79000000I0J-500000D01*
G01*
X74000000Y-79000000D02*
G75*
G02*
X74000000Y-78000000I0J500000D01*
G01*
X74000000Y-79000000D02*
X81500000Y-79000000D01*
X50500000Y-79000000D02*
X52500000Y-79000000D01*
X70000000Y-78000000D02*
X68000000Y-78000000D01*
X56500000Y-79000000D02*
X64000000Y-79000000D01*
X68000000Y-79000000D02*
X70000000Y-79000000D01*
X46500000Y-78000000D02*
G75*
G02*
X46500000Y-79000000I0J-500000D01*
G01*
X70000000Y-78000000D02*
G75*
G02*
X70000000Y-79000000I0J-500000D01*
G01*
X52500000Y-78000000D02*
X50500000Y-78000000D01*
X85500000Y-79000000D02*
X87500000Y-79000000D01*
X50500000Y-79000000D02*
G75*
G02*
X50500000Y-78000000I0J500000D01*
G01*
X87500000Y-78000000D02*
X85500000Y-78000000D01*
X68000000Y-79000000D02*
G75*
G02*
X68000000Y-78000000I0J500000D01*
G01*
X46500000Y-78000000D02*
X30000000Y-78000000D01*
X64000000Y-78000000D02*
G75*
G02*
X64000000Y-79000000I0J-500000D01*
G01*
X56500000Y-79000000D02*
G75*
G02*
X56500000Y-78000000I0J500000D01*
G01*
X64000000Y-78000000D02*
X56500000Y-78000000D01*
X30000000Y-79000000D02*
X46500000Y-79000000D01*
X109000000Y-79000000D02*
G75*
G02*
X109000000Y-78000000I0J500000D01*
G01*
X103000000Y-79000000D02*
G75*
G02*
X103000000Y-78000000I0J500000D01*
G01*
X103000000Y-79000000D02*
X105000000Y-79000000D01*
X105000000Y-78000000D02*
X103000000Y-78000000D01*
X52500000Y-78000000D02*
G75*
G02*
X52500000Y-79000000I0J-500000D01*
G01*
X87500000Y-78000000D02*
G75*
G02*
X87500000Y-79000000I0J-500000D01*
G01*
X85500000Y-79000000D02*
G75*
G02*
X85500000Y-78000000I0J500000D01*
G01*
X105000000Y-78000000D02*
G75*
G02*
X105000000Y-79000000I0J-500000D01*
G01*
X25000000Y-73000000D02*
X25000000Y-37500000D01*
X25000000Y-37500000D02*
G75*
G02*
X30000000Y-32500000I5000000J0D01*
G01*
X227500000Y-84000000D02*
X227500000Y-335000000D01*
X222500000Y-79000000D02*
G75*
G02*
X227500000Y-84000000I0J-5000000D01*
G01*
X227500000Y-73000000D02*
G75*
G02*
X222500000Y-78000000I-5000000J0D01*
G01*
X222500000Y-32500000D02*
G75*
G02*
X227500000Y-37500000I0J-5000000D01*
G01*
X154830000Y-38220000D02*
X154830000Y-32500000D01*
X164180000Y-38220000D02*
X154830000Y-38220000D01*
X164180000Y-32500000D02*
X164180000Y-38220000D01*
X164180000Y-32500000D02*
X222500000Y-32500000D01*
X30000000Y-32500000D02*
X154830000Y-32500000D01*
X25000000Y-335000000D02*
X25000000Y-84000000D01*
X222500000Y-340000000D02*
X30000000Y-340000000D01*
X227500000Y-37500000D02*
X227500000Y-73000000D01*
D11*
G04 #@! TO.C,SW1*
X189500000Y-36500000D03*
X185500000Y-36500000D03*
X183500000Y-36500000D03*
X181500000Y-36500000D03*
X179500000Y-36500000D03*
X175500000Y-36500000D03*
X173500000Y-36500000D03*
X171500000Y-36500000D03*
X189500000Y-39000000D03*
X185500000Y-39000000D03*
X183500000Y-39000000D03*
X181500000Y-39000000D03*
X179500000Y-39000000D03*
X175500000Y-39000000D03*
X173500000Y-39000000D03*
X171500000Y-39000000D03*
D12*
X191500000Y-40750000D03*
X191500000Y-34750000D03*
X169500000Y-34750000D03*
X169500000Y-40750000D03*
G04 #@! TD*
D13*
G04 #@! TO.C,RV2*
X40480000Y-51590000D03*
X40480000Y-49050000D03*
X40480000Y-46510000D03*
G04 #@! TD*
G04 #@! TO.C,RV1*
X66040000Y-51590000D03*
X66040000Y-49050000D03*
X66040000Y-46510000D03*
G04 #@! TD*
D14*
G04 #@! TO.C,Module 3*
X185865000Y-216515000D03*
X193485000Y-213975000D03*
X150305000Y-213975000D03*
X152845000Y-216515000D03*
X157925000Y-216515000D03*
X196025000Y-213975000D03*
X160465000Y-216515000D03*
X198565000Y-213975000D03*
X160465000Y-213975000D03*
X163005000Y-213975000D03*
X168085000Y-216515000D03*
X175705000Y-216515000D03*
X190945000Y-213975000D03*
X165545000Y-213975000D03*
X165545000Y-216515000D03*
X203645000Y-216515000D03*
X188405000Y-216515000D03*
X206185000Y-216515000D03*
X173165000Y-216515000D03*
X175705000Y-213975000D03*
X183325000Y-213975000D03*
X152845000Y-213975000D03*
X203645000Y-213975000D03*
X145225000Y-213975000D03*
X201105000Y-213975000D03*
X147765000Y-213975000D03*
X180785000Y-213975000D03*
X196025000Y-216515000D03*
X180785000Y-216515000D03*
X185865000Y-213975000D03*
X163005000Y-216515000D03*
X157925000Y-213975000D03*
X178245000Y-216515000D03*
X170625000Y-216515000D03*
X155385000Y-216515000D03*
X170625000Y-213975000D03*
X193485000Y-216515000D03*
X150305000Y-216515000D03*
X206185000Y-213975000D03*
X208725000Y-216515000D03*
X188405000Y-213975000D03*
X201105000Y-216515000D03*
X190945000Y-216515000D03*
X145225000Y-216515000D03*
X155385000Y-213975000D03*
X178245000Y-213975000D03*
X183325000Y-216515000D03*
X173165000Y-213975000D03*
X208725000Y-213975000D03*
X198565000Y-216515000D03*
X147765000Y-216515000D03*
X168085000Y-213975000D03*
X185865000Y-211435000D03*
X193485000Y-208895000D03*
X150305000Y-208895000D03*
X152845000Y-211435000D03*
X157925000Y-211435000D03*
X196025000Y-208895000D03*
X160465000Y-211435000D03*
X198565000Y-208895000D03*
X160465000Y-208895000D03*
X163005000Y-208895000D03*
X168085000Y-211435000D03*
X175705000Y-211435000D03*
X190945000Y-208895000D03*
X165545000Y-208895000D03*
X165545000Y-211435000D03*
X203645000Y-211435000D03*
X188405000Y-211435000D03*
X206185000Y-211435000D03*
X173165000Y-211435000D03*
X175705000Y-208895000D03*
X183325000Y-208895000D03*
X152845000Y-208895000D03*
X203645000Y-208895000D03*
X145225000Y-208895000D03*
X201105000Y-208895000D03*
X147765000Y-208895000D03*
X180785000Y-208895000D03*
X196025000Y-211435000D03*
X180785000Y-211435000D03*
X185865000Y-208895000D03*
X163005000Y-211435000D03*
X157925000Y-208895000D03*
X178245000Y-211435000D03*
X170625000Y-211435000D03*
X155385000Y-211435000D03*
X170625000Y-208895000D03*
X193485000Y-211435000D03*
X150305000Y-211435000D03*
X206185000Y-208895000D03*
X208725000Y-211435000D03*
X188405000Y-208895000D03*
X201105000Y-211435000D03*
X190945000Y-211435000D03*
X145225000Y-211435000D03*
X155385000Y-208895000D03*
X178245000Y-208895000D03*
X183325000Y-211435000D03*
X173165000Y-208895000D03*
X208725000Y-208895000D03*
X198565000Y-211435000D03*
X147765000Y-211435000D03*
X168085000Y-208895000D03*
D15*
X216345000Y-292220000D03*
X218042056Y-292922944D03*
X216345000Y-297020000D03*
X214647944Y-296317056D03*
X213945000Y-294620000D03*
X218745000Y-294620000D03*
X218042056Y-296317056D03*
X136335000Y-292220000D03*
X214647944Y-292922944D03*
D16*
X216345000Y-294620000D03*
D15*
X138032056Y-292922944D03*
X138032056Y-296317056D03*
X136335000Y-297020000D03*
X134637944Y-292922944D03*
X133935000Y-294620000D03*
X134637944Y-296317056D03*
D16*
X136335000Y-294620000D03*
D15*
X138735000Y-294620000D03*
X216205000Y-208895000D03*
X215502056Y-210592056D03*
X213805000Y-206495000D03*
X212107944Y-210592056D03*
X211405000Y-208895000D03*
X215502056Y-207197944D03*
X213805000Y-211295000D03*
X212107944Y-207197944D03*
D16*
X213805000Y-208895000D03*
D15*
X141842056Y-207197944D03*
X138447944Y-207197944D03*
X137745000Y-208895000D03*
X138447944Y-210592056D03*
D16*
X140145000Y-208895000D03*
D15*
X140145000Y-211295000D03*
X140145000Y-206495000D03*
X141842056Y-210592056D03*
X142545000Y-208895000D03*
G04 #@! TD*
D14*
G04 #@! TO.C,Module 1*
X85695000Y-110635000D03*
X93315000Y-108095000D03*
X50135000Y-108095000D03*
X52675000Y-110635000D03*
X57755000Y-110635000D03*
X95855000Y-108095000D03*
X60295000Y-110635000D03*
X98395000Y-108095000D03*
X60295000Y-108095000D03*
X62835000Y-108095000D03*
X67915000Y-110635000D03*
X75535000Y-110635000D03*
X90775000Y-108095000D03*
X65375000Y-108095000D03*
X65375000Y-110635000D03*
X103475000Y-110635000D03*
X88235000Y-110635000D03*
X106015000Y-110635000D03*
X72995000Y-110635000D03*
X75535000Y-108095000D03*
X83155000Y-108095000D03*
X52675000Y-108095000D03*
X103475000Y-108095000D03*
X45055000Y-108095000D03*
X100935000Y-108095000D03*
X47595000Y-108095000D03*
X80615000Y-108095000D03*
X95855000Y-110635000D03*
X80615000Y-110635000D03*
X85695000Y-108095000D03*
X62835000Y-110635000D03*
X57755000Y-108095000D03*
X78075000Y-110635000D03*
X70455000Y-110635000D03*
X55215000Y-110635000D03*
X70455000Y-108095000D03*
X93315000Y-110635000D03*
X50135000Y-110635000D03*
X106015000Y-108095000D03*
X108555000Y-110635000D03*
X88235000Y-108095000D03*
X100935000Y-110635000D03*
X90775000Y-110635000D03*
X45055000Y-110635000D03*
X55215000Y-108095000D03*
X78075000Y-108095000D03*
X83155000Y-110635000D03*
X72995000Y-108095000D03*
X108555000Y-108095000D03*
X98395000Y-110635000D03*
X47595000Y-110635000D03*
X67915000Y-108095000D03*
X85695000Y-105555000D03*
X93315000Y-103015000D03*
X50135000Y-103015000D03*
X52675000Y-105555000D03*
X57755000Y-105555000D03*
X95855000Y-103015000D03*
X60295000Y-105555000D03*
X98395000Y-103015000D03*
X60295000Y-103015000D03*
X62835000Y-103015000D03*
X67915000Y-105555000D03*
X75535000Y-105555000D03*
X90775000Y-103015000D03*
X65375000Y-103015000D03*
X65375000Y-105555000D03*
X103475000Y-105555000D03*
X88235000Y-105555000D03*
X106015000Y-105555000D03*
X72995000Y-105555000D03*
X75535000Y-103015000D03*
X83155000Y-103015000D03*
X52675000Y-103015000D03*
X103475000Y-103015000D03*
X45055000Y-103015000D03*
X100935000Y-103015000D03*
X47595000Y-103015000D03*
X80615000Y-103015000D03*
X95855000Y-105555000D03*
X80615000Y-105555000D03*
X85695000Y-103015000D03*
X62835000Y-105555000D03*
X57755000Y-103015000D03*
X78075000Y-105555000D03*
X70455000Y-105555000D03*
X55215000Y-105555000D03*
X70455000Y-103015000D03*
X93315000Y-105555000D03*
X50135000Y-105555000D03*
X106015000Y-103015000D03*
X108555000Y-105555000D03*
X88235000Y-103015000D03*
X100935000Y-105555000D03*
X90775000Y-105555000D03*
X45055000Y-105555000D03*
X55215000Y-103015000D03*
X78075000Y-103015000D03*
X83155000Y-105555000D03*
X72995000Y-103015000D03*
X108555000Y-103015000D03*
X98395000Y-105555000D03*
X47595000Y-105555000D03*
X67915000Y-103015000D03*
D15*
X116175000Y-186340000D03*
X117872056Y-187042944D03*
X116175000Y-191140000D03*
X114477944Y-190437056D03*
X113775000Y-188740000D03*
X118575000Y-188740000D03*
X117872056Y-190437056D03*
X36165000Y-186340000D03*
X114477944Y-187042944D03*
D16*
X116175000Y-188740000D03*
D15*
X37862056Y-187042944D03*
X37862056Y-190437056D03*
X36165000Y-191140000D03*
X34467944Y-187042944D03*
X33765000Y-188740000D03*
X34467944Y-190437056D03*
D16*
X36165000Y-188740000D03*
D15*
X38565000Y-188740000D03*
X116035000Y-103015000D03*
X115332056Y-104712056D03*
X113635000Y-100615000D03*
X111937944Y-104712056D03*
X111235000Y-103015000D03*
X115332056Y-101317944D03*
X113635000Y-105415000D03*
X111937944Y-101317944D03*
D16*
X113635000Y-103015000D03*
D15*
X41672056Y-101317944D03*
X38277944Y-101317944D03*
X37575000Y-103015000D03*
X38277944Y-104712056D03*
D16*
X39975000Y-103015000D03*
D15*
X39975000Y-105415000D03*
X39975000Y-100615000D03*
X41672056Y-104712056D03*
X42375000Y-103015000D03*
G04 #@! TD*
D16*
G04 #@! TO.C,H15*
X222500000Y-335000000D03*
D15*
X224900000Y-335000000D03*
X224197056Y-336697056D03*
X222500000Y-337400000D03*
X220802944Y-336697056D03*
X220100000Y-335000000D03*
X220802944Y-333302944D03*
X222500000Y-332600000D03*
X224197056Y-333302944D03*
G04 #@! TD*
D16*
G04 #@! TO.C,H14*
X127500000Y-335000000D03*
D15*
X129900000Y-335000000D03*
X129197056Y-336697056D03*
X127500000Y-337400000D03*
X125802944Y-336697056D03*
X125100000Y-335000000D03*
X125802944Y-333302944D03*
X127500000Y-332600000D03*
X129197056Y-333302944D03*
G04 #@! TD*
D16*
G04 #@! TO.C,H13*
X30000000Y-335000000D03*
D15*
X32400000Y-335000000D03*
X31697056Y-336697056D03*
X30000000Y-337400000D03*
X28302944Y-336697056D03*
X27600000Y-335000000D03*
X28302944Y-333302944D03*
X30000000Y-332600000D03*
X31697056Y-333302944D03*
G04 #@! TD*
D14*
G04 #@! TO.C,Module 4*
X185865000Y-110635000D03*
X193485000Y-108095000D03*
X150305000Y-108095000D03*
X152845000Y-110635000D03*
X157925000Y-110635000D03*
X196025000Y-108095000D03*
X160465000Y-110635000D03*
X198565000Y-108095000D03*
X160465000Y-108095000D03*
X163005000Y-108095000D03*
X168085000Y-110635000D03*
X175705000Y-110635000D03*
X190945000Y-108095000D03*
X165545000Y-108095000D03*
X165545000Y-110635000D03*
X203645000Y-110635000D03*
X188405000Y-110635000D03*
X206185000Y-110635000D03*
X173165000Y-110635000D03*
X175705000Y-108095000D03*
X183325000Y-108095000D03*
X152845000Y-108095000D03*
X203645000Y-108095000D03*
X145225000Y-108095000D03*
X201105000Y-108095000D03*
X147765000Y-108095000D03*
X180785000Y-108095000D03*
X196025000Y-110635000D03*
X180785000Y-110635000D03*
X185865000Y-108095000D03*
X163005000Y-110635000D03*
X157925000Y-108095000D03*
X178245000Y-110635000D03*
X170625000Y-110635000D03*
X155385000Y-110635000D03*
X170625000Y-108095000D03*
X193485000Y-110635000D03*
X150305000Y-110635000D03*
X206185000Y-108095000D03*
X208725000Y-110635000D03*
X188405000Y-108095000D03*
X201105000Y-110635000D03*
X190945000Y-110635000D03*
X145225000Y-110635000D03*
X155385000Y-108095000D03*
X178245000Y-108095000D03*
X183325000Y-110635000D03*
X173165000Y-108095000D03*
X208725000Y-108095000D03*
X198565000Y-110635000D03*
X147765000Y-110635000D03*
X168085000Y-108095000D03*
X185865000Y-105555000D03*
X193485000Y-103015000D03*
X150305000Y-103015000D03*
X152845000Y-105555000D03*
X157925000Y-105555000D03*
X196025000Y-103015000D03*
X160465000Y-105555000D03*
X198565000Y-103015000D03*
X160465000Y-103015000D03*
X163005000Y-103015000D03*
X168085000Y-105555000D03*
X175705000Y-105555000D03*
X190945000Y-103015000D03*
X165545000Y-103015000D03*
X165545000Y-105555000D03*
X203645000Y-105555000D03*
X188405000Y-105555000D03*
X206185000Y-105555000D03*
X173165000Y-105555000D03*
X175705000Y-103015000D03*
X183325000Y-103015000D03*
X152845000Y-103015000D03*
X203645000Y-103015000D03*
X145225000Y-103015000D03*
X201105000Y-103015000D03*
X147765000Y-103015000D03*
X180785000Y-103015000D03*
X196025000Y-105555000D03*
X180785000Y-105555000D03*
X185865000Y-103015000D03*
X163005000Y-105555000D03*
X157925000Y-103015000D03*
X178245000Y-105555000D03*
X170625000Y-105555000D03*
X155385000Y-105555000D03*
X170625000Y-103015000D03*
X193485000Y-105555000D03*
X150305000Y-105555000D03*
X206185000Y-103015000D03*
X208725000Y-105555000D03*
X188405000Y-103015000D03*
X201105000Y-105555000D03*
X190945000Y-105555000D03*
X145225000Y-105555000D03*
X155385000Y-103015000D03*
X178245000Y-103015000D03*
X183325000Y-105555000D03*
X173165000Y-103015000D03*
X208725000Y-103015000D03*
X198565000Y-105555000D03*
X147765000Y-105555000D03*
X168085000Y-103015000D03*
D15*
X216345000Y-186340000D03*
X218042056Y-187042944D03*
X216345000Y-191140000D03*
X214647944Y-190437056D03*
X213945000Y-188740000D03*
X218745000Y-188740000D03*
X218042056Y-190437056D03*
X136335000Y-186340000D03*
X214647944Y-187042944D03*
D16*
X216345000Y-188740000D03*
D15*
X138032056Y-187042944D03*
X138032056Y-190437056D03*
X136335000Y-191140000D03*
X134637944Y-187042944D03*
X133935000Y-188740000D03*
X134637944Y-190437056D03*
D16*
X136335000Y-188740000D03*
D15*
X138735000Y-188740000D03*
X216205000Y-103015000D03*
X215502056Y-104712056D03*
X213805000Y-100615000D03*
X212107944Y-104712056D03*
X211405000Y-103015000D03*
X215502056Y-101317944D03*
X213805000Y-105415000D03*
X212107944Y-101317944D03*
D16*
X213805000Y-103015000D03*
D15*
X141842056Y-101317944D03*
X138447944Y-101317944D03*
X137745000Y-103015000D03*
X138447944Y-104712056D03*
D16*
X140145000Y-103015000D03*
D15*
X140145000Y-105415000D03*
X140145000Y-100615000D03*
X141842056Y-104712056D03*
X142545000Y-103015000D03*
G04 #@! TD*
D14*
G04 #@! TO.C,Module 2*
X85695000Y-216515000D03*
X93315000Y-213975000D03*
X50135000Y-213975000D03*
X52675000Y-216515000D03*
X57755000Y-216515000D03*
X95855000Y-213975000D03*
X60295000Y-216515000D03*
X98395000Y-213975000D03*
X60295000Y-213975000D03*
X62835000Y-213975000D03*
X67915000Y-216515000D03*
X75535000Y-216515000D03*
X90775000Y-213975000D03*
X65375000Y-213975000D03*
X65375000Y-216515000D03*
X103475000Y-216515000D03*
X88235000Y-216515000D03*
X106015000Y-216515000D03*
X72995000Y-216515000D03*
X75535000Y-213975000D03*
X83155000Y-213975000D03*
X52675000Y-213975000D03*
X103475000Y-213975000D03*
X45055000Y-213975000D03*
X100935000Y-213975000D03*
X47595000Y-213975000D03*
X80615000Y-213975000D03*
X95855000Y-216515000D03*
X80615000Y-216515000D03*
X85695000Y-213975000D03*
X62835000Y-216515000D03*
X57755000Y-213975000D03*
X78075000Y-216515000D03*
X70455000Y-216515000D03*
X55215000Y-216515000D03*
X70455000Y-213975000D03*
X93315000Y-216515000D03*
X50135000Y-216515000D03*
X106015000Y-213975000D03*
X108555000Y-216515000D03*
X88235000Y-213975000D03*
X100935000Y-216515000D03*
X90775000Y-216515000D03*
X45055000Y-216515000D03*
X55215000Y-213975000D03*
X78075000Y-213975000D03*
X83155000Y-216515000D03*
X72995000Y-213975000D03*
X108555000Y-213975000D03*
X98395000Y-216515000D03*
X47595000Y-216515000D03*
X67915000Y-213975000D03*
X85695000Y-211435000D03*
X93315000Y-208895000D03*
X50135000Y-208895000D03*
X52675000Y-211435000D03*
X57755000Y-211435000D03*
X95855000Y-208895000D03*
X60295000Y-211435000D03*
X98395000Y-208895000D03*
X60295000Y-208895000D03*
X62835000Y-208895000D03*
X67915000Y-211435000D03*
X75535000Y-211435000D03*
X90775000Y-208895000D03*
X65375000Y-208895000D03*
X65375000Y-211435000D03*
X103475000Y-211435000D03*
X88235000Y-211435000D03*
X106015000Y-211435000D03*
X72995000Y-211435000D03*
X75535000Y-208895000D03*
X83155000Y-208895000D03*
X52675000Y-208895000D03*
X103475000Y-208895000D03*
X45055000Y-208895000D03*
X100935000Y-208895000D03*
X47595000Y-208895000D03*
X80615000Y-208895000D03*
X95855000Y-211435000D03*
X80615000Y-211435000D03*
X85695000Y-208895000D03*
X62835000Y-211435000D03*
X57755000Y-208895000D03*
X78075000Y-211435000D03*
X70455000Y-211435000D03*
X55215000Y-211435000D03*
X70455000Y-208895000D03*
X93315000Y-211435000D03*
X50135000Y-211435000D03*
X106015000Y-208895000D03*
X108555000Y-211435000D03*
X88235000Y-208895000D03*
X100935000Y-211435000D03*
X90775000Y-211435000D03*
X45055000Y-211435000D03*
X55215000Y-208895000D03*
X78075000Y-208895000D03*
X83155000Y-211435000D03*
X72995000Y-208895000D03*
X108555000Y-208895000D03*
X98395000Y-211435000D03*
X47595000Y-211435000D03*
X67915000Y-208895000D03*
D15*
X116175000Y-292220000D03*
X117872056Y-292922944D03*
X116175000Y-297020000D03*
X114477944Y-296317056D03*
X113775000Y-294620000D03*
X118575000Y-294620000D03*
X117872056Y-296317056D03*
X36165000Y-292220000D03*
X114477944Y-292922944D03*
D16*
X116175000Y-294620000D03*
D15*
X37862056Y-292922944D03*
X37862056Y-296317056D03*
X36165000Y-297020000D03*
X34467944Y-292922944D03*
X33765000Y-294620000D03*
X34467944Y-296317056D03*
D16*
X36165000Y-294620000D03*
D15*
X38565000Y-294620000D03*
X116035000Y-208895000D03*
X115332056Y-210592056D03*
X113635000Y-206495000D03*
X111937944Y-210592056D03*
X111235000Y-208895000D03*
X115332056Y-207197944D03*
X113635000Y-211295000D03*
X111937944Y-207197944D03*
D16*
X113635000Y-208895000D03*
D15*
X41672056Y-207197944D03*
X38277944Y-207197944D03*
X37575000Y-208895000D03*
X38277944Y-210592056D03*
D16*
X39975000Y-208895000D03*
D15*
X39975000Y-211295000D03*
X39975000Y-206495000D03*
X41672056Y-210592056D03*
X42375000Y-208895000D03*
G04 #@! TD*
D17*
G04 #@! TO.C,J4*
X48960000Y-73770000D03*
X48960000Y-71230000D03*
X51500000Y-73770000D03*
X54040000Y-73770000D03*
X51500000Y-71230000D03*
X54040000Y-71230000D03*
G04 #@! TD*
G04 #@! TO.C,J3*
X66460000Y-73770000D03*
X66460000Y-71230000D03*
X69000000Y-73770000D03*
X71540000Y-73770000D03*
X69000000Y-71230000D03*
X71540000Y-71230000D03*
G04 #@! TD*
G04 #@! TO.C,J2*
X83960000Y-73770000D03*
X83960000Y-71230000D03*
X86500000Y-73770000D03*
X89040000Y-73770000D03*
X86500000Y-71230000D03*
X89040000Y-71230000D03*
G04 #@! TD*
D18*
G04 #@! TO.C,P1*
X154050000Y-38350000D03*
X164950000Y-38350000D03*
D19*
X154050000Y-35120000D03*
X164950000Y-35120000D03*
G04 #@! TD*
D16*
G04 #@! TO.C,H12*
X30000000Y-198750000D03*
D15*
X30000000Y-201150000D03*
X28302944Y-200447056D03*
X27600000Y-198750000D03*
X28302944Y-197052944D03*
X30000000Y-196350000D03*
X31697056Y-197052944D03*
X32400000Y-198750000D03*
X31697056Y-200447056D03*
G04 #@! TD*
D16*
G04 #@! TO.C,H11*
X126250000Y-198750000D03*
D15*
X126250000Y-201150000D03*
X124552944Y-200447056D03*
X123850000Y-198750000D03*
X124552944Y-197052944D03*
X126250000Y-196350000D03*
X127947056Y-197052944D03*
X128650000Y-198750000D03*
X127947056Y-200447056D03*
G04 #@! TD*
D16*
G04 #@! TO.C,H10*
X222500000Y-198750000D03*
D15*
X222500000Y-201150000D03*
X220802944Y-200447056D03*
X220100000Y-198750000D03*
X220802944Y-197052944D03*
X222500000Y-196350000D03*
X224197056Y-197052944D03*
X224900000Y-198750000D03*
X224197056Y-200447056D03*
G04 #@! TD*
D16*
G04 #@! TO.C,H9*
X30000000Y-84500000D03*
D15*
X30000000Y-86900000D03*
X28302944Y-86197056D03*
X27600000Y-84500000D03*
X28302944Y-82802944D03*
X30000000Y-82100000D03*
X31697056Y-82802944D03*
X32400000Y-84500000D03*
X31697056Y-86197056D03*
G04 #@! TD*
D16*
G04 #@! TO.C,H8*
X126250000Y-84500000D03*
D15*
X126250000Y-86900000D03*
X124552944Y-86197056D03*
X123850000Y-84500000D03*
X124552944Y-82802944D03*
X126250000Y-82100000D03*
X127947056Y-82802944D03*
X128650000Y-84500000D03*
X127947056Y-86197056D03*
G04 #@! TD*
D16*
G04 #@! TO.C,H7*
X222500000Y-84500000D03*
D15*
X222500000Y-86900000D03*
X220802944Y-86197056D03*
X220100000Y-84500000D03*
X220802944Y-82802944D03*
X222500000Y-82100000D03*
X224197056Y-82802944D03*
X224900000Y-84500000D03*
X224197056Y-86197056D03*
G04 #@! TD*
D16*
G04 #@! TO.C,H6*
X30000000Y-72500000D03*
D15*
X32400000Y-72500000D03*
X31697056Y-74197056D03*
X30000000Y-74900000D03*
X28302944Y-74197056D03*
X27600000Y-72500000D03*
X28302944Y-70802944D03*
X30000000Y-70100000D03*
X31697056Y-70802944D03*
G04 #@! TD*
D16*
G04 #@! TO.C,H5*
X30000000Y-37500000D03*
D15*
X32400000Y-37500000D03*
X31697056Y-39197056D03*
X30000000Y-39900000D03*
X28302944Y-39197056D03*
X27600000Y-37500000D03*
X28302944Y-35802944D03*
X30000000Y-35100000D03*
X31697056Y-35802944D03*
G04 #@! TD*
D16*
G04 #@! TO.C,H4*
X126250000Y-72500000D03*
D15*
X128650000Y-72500000D03*
X127947056Y-74197056D03*
X126250000Y-74900000D03*
X124552944Y-74197056D03*
X123850000Y-72500000D03*
X124552944Y-70802944D03*
X126250000Y-70100000D03*
X127947056Y-70802944D03*
G04 #@! TD*
D16*
G04 #@! TO.C,H3*
X126250000Y-37500000D03*
D15*
X128650000Y-37500000D03*
X127947056Y-39197056D03*
X126250000Y-39900000D03*
X124552944Y-39197056D03*
X123850000Y-37500000D03*
X124552944Y-35802944D03*
X126250000Y-35100000D03*
X127947056Y-35802944D03*
G04 #@! TD*
D16*
G04 #@! TO.C,H2*
X222500000Y-72500000D03*
D15*
X224900000Y-72500000D03*
X224197056Y-74197056D03*
X222500000Y-74900000D03*
X220802944Y-74197056D03*
X220100000Y-72500000D03*
X220802944Y-70802944D03*
X222500000Y-70100000D03*
X224197056Y-70802944D03*
G04 #@! TD*
D16*
G04 #@! TO.C,H1*
X222500000Y-37500000D03*
D15*
X224900000Y-37500000D03*
X224197056Y-39197056D03*
X222500000Y-39900000D03*
X220802944Y-39197056D03*
X220100000Y-37500000D03*
X220802944Y-35802944D03*
X222500000Y-35100000D03*
X224197056Y-35802944D03*
G04 #@! TD*
D20*
G04 #@! TO.C,F5*
X111850000Y-54000000D03*
X111850000Y-49000000D03*
X99150000Y-49000000D03*
X99150000Y-54000000D03*
G04 #@! TD*
G04 #@! TO.C,F6*
X111850000Y-45000000D03*
X111850000Y-40000000D03*
X99150000Y-40000000D03*
X99150000Y-45000000D03*
G04 #@! TD*
G04 #@! TO.C,F4*
X111850000Y-63000000D03*
X111850000Y-58000000D03*
X99150000Y-58000000D03*
X99150000Y-63000000D03*
G04 #@! TD*
G04 #@! TO.C,F3*
X111850000Y-72000000D03*
X111850000Y-67000000D03*
X99150000Y-67000000D03*
X99150000Y-72000000D03*
G04 #@! TD*
G04 #@! TO.C,F2*
X150000000Y-37150000D03*
X145000000Y-37150000D03*
X145000000Y-49850000D03*
X150000000Y-49850000D03*
G04 #@! TD*
G04 #@! TO.C,F1*
X215000000Y-37150000D03*
X210000000Y-37150000D03*
X210000000Y-49850000D03*
X215000000Y-49850000D03*
G04 #@! TD*
D21*
G04 #@! TO.C,C21*
X222750000Y-58500000D03*
D22*
X220250000Y-58500000D03*
G04 #@! TD*
D21*
G04 #@! TO.C,C9*
X140500000Y-64500000D03*
D22*
X137000000Y-64500000D03*
G04 #@! TD*
D21*
G04 #@! TO.C,C8*
X140500000Y-55750000D03*
D22*
X137000000Y-55750000D03*
G04 #@! TD*
D17*
G04 #@! TO.C,J7*
X176560000Y-45750000D03*
X168940000Y-45750000D03*
X174020000Y-45750000D03*
X171480000Y-45750000D03*
G04 #@! TD*
G04 #@! TO.C,J5*
X166170000Y-68750000D03*
X168710000Y-68750000D03*
X171250000Y-68750000D03*
X176330000Y-68750000D03*
X173790000Y-68750000D03*
G04 #@! TD*
D23*
G04 #@! TO.C,J1*
X201500000Y-44620000D03*
D24*
X201500000Y-38620000D03*
D25*
X197000000Y-37620000D03*
X206000000Y-37620000D03*
D21*
X201500000Y-35620000D03*
G04 #@! TD*
D26*
G04 #@! TO.C,TP12*
X104000000Y-86500000D03*
G04 #@! TD*
G04 #@! TO.C,TP11*
X68995000Y-86500000D03*
G04 #@! TD*
G04 #@! TO.C,TP10*
X51495000Y-86500000D03*
G04 #@! TD*
G04 #@! TO.C,TP9*
X86495000Y-86500000D03*
G04 #@! TD*
M02*
