G04 #@! TF.GenerationSoftware,KiCad,Pcbnew,(5.1.6)-1*
G04 #@! TF.CreationDate,2020-08-26T11:46:56+02:00*
G04 #@! TF.ProjectId,element_foxtrot,656c656d-656e-4745-9f66-6f7874726f74,v1.0*
G04 #@! TF.SameCoordinates,Original*
G04 #@! TF.FileFunction,Paste,Top*
G04 #@! TF.FilePolarity,Positive*
%FSLAX46Y46*%
G04 Gerber Fmt 4.6, Leading zero omitted, Abs format (unit mm)*
G04 Created by KiCad (PCBNEW (5.1.6)-1) date 2020-08-26 11:46:56*
%MOMM*%
%LPD*%
G01*
G04 APERTURE LIST*
G04 #@! TA.AperFunction,Profile*
%ADD10C,0.050000*%
G04 #@! TD*
%ADD11R,2.000000X1.350000*%
%ADD12R,1.270000X0.500000*%
%ADD13R,2.400000X1.500000*%
%ADD14R,1.400000X1.100000*%
%ADD15R,1.200000X1.200000*%
%ADD16R,0.250000X0.600000*%
%ADD17R,0.600000X0.250000*%
%ADD18R,1.150000X1.120000*%
%ADD19R,2.150000X1.300000*%
%ADD20R,1.120000X1.150000*%
%ADD21R,1.300000X2.150000*%
%ADD22R,1.050000X1.500000*%
%ADD23R,1.500000X1.050000*%
%ADD24R,0.700000X0.600000*%
%ADD25R,1.300000X2.000000*%
%ADD26R,1.000000X0.300000*%
%ADD27R,1.100000X1.400000*%
%ADD28R,0.350000X0.900000*%
%ADD29R,1.200000X2.070000*%
%ADD30R,0.600000X0.900000*%
%ADD31R,0.860000X0.540000*%
%ADD32R,2.500000X1.700000*%
%ADD33R,0.600000X0.700000*%
%ADD34R,1.000000X0.350000*%
%ADD35R,1.700000X2.500000*%
%ADD36R,1.250000X1.270000*%
%ADD37R,1.270000X1.250000*%
%ADD38R,1.630000X1.270000*%
%ADD39R,1.270000X1.630000*%
%ADD40R,1.270000X1.270000*%
%ADD41R,2.030000X4.320000*%
%ADD42R,4.320000X2.030000*%
%ADD43R,1.750000X1.250000*%
G04 APERTURE END LIST*
D10*
X109000000Y-79000000D02*
X143500000Y-79000000D01*
X143500000Y-78000000D02*
X109000000Y-78000000D01*
X200000000Y-79000000D02*
X202000000Y-79000000D01*
X196000000Y-78000000D02*
X153500000Y-78000000D01*
X147500000Y-79000000D02*
G75*
G02*
X147500000Y-78000000I0J500000D01*
G01*
X153500000Y-79000000D02*
X196000000Y-79000000D01*
X200000000Y-79000000D02*
G75*
G02*
X200000000Y-78000000I0J500000D01*
G01*
X147500000Y-79000000D02*
X149500000Y-79000000D01*
X196000000Y-78000000D02*
G75*
G02*
X196000000Y-79000000I0J-500000D01*
G01*
X143500000Y-78000000D02*
G75*
G02*
X143500000Y-79000000I0J-500000D01*
G01*
X202000000Y-78000000D02*
G75*
G02*
X202000000Y-79000000I0J-500000D01*
G01*
X206000000Y-79000000D02*
G75*
G02*
X206000000Y-78000000I0J500000D01*
G01*
X153500000Y-79000000D02*
G75*
G02*
X153500000Y-78000000I0J500000D01*
G01*
X206000000Y-79000000D02*
X222500000Y-79000000D01*
X222500000Y-78000000D02*
X206000000Y-78000000D01*
X149500000Y-78000000D02*
G75*
G02*
X149500000Y-79000000I0J-500000D01*
G01*
X149500000Y-78000000D02*
X147500000Y-78000000D01*
X202000000Y-78000000D02*
X200000000Y-78000000D01*
X25000000Y-84000000D02*
G75*
G02*
X30000000Y-79000000I5000000J0D01*
G01*
X30000000Y-78000000D02*
G75*
G02*
X25000000Y-73000000I0J5000000D01*
G01*
X227500000Y-335000000D02*
G75*
G02*
X222500000Y-340000000I-5000000J0D01*
G01*
X30000000Y-340000000D02*
G75*
G02*
X25000000Y-335000000I0J5000000D01*
G01*
X99000000Y-78000000D02*
G75*
G02*
X99000000Y-79000000I0J-500000D01*
G01*
X99000000Y-78000000D02*
X91500000Y-78000000D01*
X91500000Y-79000000D02*
G75*
G02*
X91500000Y-78000000I0J500000D01*
G01*
X91500000Y-79000000D02*
X99000000Y-79000000D01*
X81500000Y-78000000D02*
X74000000Y-78000000D01*
X81500000Y-78000000D02*
G75*
G02*
X81500000Y-79000000I0J-500000D01*
G01*
X74000000Y-79000000D02*
G75*
G02*
X74000000Y-78000000I0J500000D01*
G01*
X74000000Y-79000000D02*
X81500000Y-79000000D01*
X50500000Y-79000000D02*
X52500000Y-79000000D01*
X70000000Y-78000000D02*
X68000000Y-78000000D01*
X56500000Y-79000000D02*
X64000000Y-79000000D01*
X68000000Y-79000000D02*
X70000000Y-79000000D01*
X46500000Y-78000000D02*
G75*
G02*
X46500000Y-79000000I0J-500000D01*
G01*
X70000000Y-78000000D02*
G75*
G02*
X70000000Y-79000000I0J-500000D01*
G01*
X52500000Y-78000000D02*
X50500000Y-78000000D01*
X85500000Y-79000000D02*
X87500000Y-79000000D01*
X50500000Y-79000000D02*
G75*
G02*
X50500000Y-78000000I0J500000D01*
G01*
X87500000Y-78000000D02*
X85500000Y-78000000D01*
X68000000Y-79000000D02*
G75*
G02*
X68000000Y-78000000I0J500000D01*
G01*
X46500000Y-78000000D02*
X30000000Y-78000000D01*
X64000000Y-78000000D02*
G75*
G02*
X64000000Y-79000000I0J-500000D01*
G01*
X56500000Y-79000000D02*
G75*
G02*
X56500000Y-78000000I0J500000D01*
G01*
X64000000Y-78000000D02*
X56500000Y-78000000D01*
X30000000Y-79000000D02*
X46500000Y-79000000D01*
X109000000Y-79000000D02*
G75*
G02*
X109000000Y-78000000I0J500000D01*
G01*
X103000000Y-79000000D02*
G75*
G02*
X103000000Y-78000000I0J500000D01*
G01*
X103000000Y-79000000D02*
X105000000Y-79000000D01*
X105000000Y-78000000D02*
X103000000Y-78000000D01*
X52500000Y-78000000D02*
G75*
G02*
X52500000Y-79000000I0J-500000D01*
G01*
X87500000Y-78000000D02*
G75*
G02*
X87500000Y-79000000I0J-500000D01*
G01*
X85500000Y-79000000D02*
G75*
G02*
X85500000Y-78000000I0J500000D01*
G01*
X105000000Y-78000000D02*
G75*
G02*
X105000000Y-79000000I0J-500000D01*
G01*
X25000000Y-73000000D02*
X25000000Y-37500000D01*
X25000000Y-37500000D02*
G75*
G02*
X30000000Y-32500000I5000000J0D01*
G01*
X227500000Y-84000000D02*
X227500000Y-335000000D01*
X222500000Y-79000000D02*
G75*
G02*
X227500000Y-84000000I0J-5000000D01*
G01*
X227500000Y-73000000D02*
G75*
G02*
X222500000Y-78000000I-5000000J0D01*
G01*
X222500000Y-32500000D02*
G75*
G02*
X227500000Y-37500000I0J-5000000D01*
G01*
X154830000Y-38220000D02*
X154830000Y-32500000D01*
X164180000Y-38220000D02*
X154830000Y-38220000D01*
X164180000Y-32500000D02*
X164180000Y-38220000D01*
X164180000Y-32500000D02*
X222500000Y-32500000D01*
X30000000Y-32500000D02*
X154830000Y-32500000D01*
X25000000Y-335000000D02*
X25000000Y-84000000D01*
X222500000Y-340000000D02*
X30000000Y-340000000D01*
X227500000Y-37500000D02*
X227500000Y-73000000D01*
D11*
X204500000Y-69725000D03*
X204500000Y-71275000D03*
D12*
X201642000Y-68595000D03*
X201642000Y-69865000D03*
X201642000Y-71135000D03*
X201642000Y-72405000D03*
X207358000Y-68595000D03*
X207358000Y-69865000D03*
X207358000Y-71135000D03*
X207358000Y-72405000D03*
D13*
X216350000Y-67250000D03*
X216350000Y-61250000D03*
X216350000Y-65250000D03*
X216350000Y-63250000D03*
X210150000Y-67250000D03*
X210150000Y-65250000D03*
X210150000Y-63250000D03*
X210150000Y-61250000D03*
D14*
X59940000Y-52125000D03*
X59940000Y-53875000D03*
X85500000Y-52125000D03*
X85500000Y-53875000D03*
D15*
X166825000Y-57055000D03*
X168175000Y-57055000D03*
X168175000Y-55705000D03*
X166825000Y-55705000D03*
D16*
X168750000Y-54480000D03*
X168250000Y-54480000D03*
X167750000Y-54480000D03*
X167250000Y-54480000D03*
X166750000Y-54480000D03*
X166250000Y-54480000D03*
D17*
X169400000Y-57630000D03*
X169400000Y-57130000D03*
X169400000Y-56630000D03*
X169400000Y-56130000D03*
X169400000Y-55630000D03*
X169400000Y-55130000D03*
D16*
X168750000Y-58280000D03*
X168250000Y-58280000D03*
X167750000Y-58280000D03*
X167250000Y-58280000D03*
X166750000Y-58280000D03*
X166250000Y-58280000D03*
D17*
X165600000Y-57630000D03*
X165600000Y-57130000D03*
X165600000Y-56630000D03*
X165600000Y-56130000D03*
X165600000Y-55630000D03*
X165600000Y-55130000D03*
D18*
X191890000Y-69350000D03*
X191890000Y-68030000D03*
X191890000Y-66710000D03*
X191890000Y-65390000D03*
X193240000Y-69350000D03*
X193240000Y-68030000D03*
X193240000Y-66710000D03*
X193240000Y-65390000D03*
X194590000Y-69350000D03*
X194590000Y-68030000D03*
X194590000Y-66710000D03*
X194590000Y-65390000D03*
X195940000Y-69350000D03*
X195940000Y-68030000D03*
X195940000Y-66710000D03*
X195940000Y-65390000D03*
D19*
X187250000Y-69655000D03*
X187250000Y-65085000D03*
D20*
X121730000Y-51795000D03*
X120410000Y-51795000D03*
X119090000Y-51795000D03*
X117770000Y-51795000D03*
X121730000Y-50445000D03*
X120410000Y-50445000D03*
X119090000Y-50445000D03*
X117770000Y-50445000D03*
X121730000Y-49095000D03*
X120410000Y-49095000D03*
X119090000Y-49095000D03*
X117770000Y-49095000D03*
X121730000Y-47745000D03*
X120410000Y-47745000D03*
X119090000Y-47745000D03*
X117770000Y-47745000D03*
D21*
X122035000Y-56435000D03*
X117465000Y-56435000D03*
D20*
X128980000Y-51795000D03*
X127660000Y-51795000D03*
X126340000Y-51795000D03*
X125020000Y-51795000D03*
X128980000Y-50445000D03*
X127660000Y-50445000D03*
X126340000Y-50445000D03*
X125020000Y-50445000D03*
X128980000Y-49095000D03*
X127660000Y-49095000D03*
X126340000Y-49095000D03*
X125020000Y-49095000D03*
X128980000Y-47745000D03*
X127660000Y-47745000D03*
X126340000Y-47745000D03*
X125020000Y-47745000D03*
D21*
X129285000Y-56435000D03*
X124715000Y-56435000D03*
D18*
X148610000Y-61520000D03*
X148610000Y-62840000D03*
X148610000Y-64160000D03*
X148610000Y-65480000D03*
X147260000Y-61520000D03*
X147260000Y-62840000D03*
X147260000Y-64160000D03*
X147260000Y-65480000D03*
X145910000Y-61520000D03*
X145910000Y-62840000D03*
X145910000Y-64160000D03*
X145910000Y-65480000D03*
X144560000Y-61520000D03*
X144560000Y-62840000D03*
X144560000Y-64160000D03*
X144560000Y-65480000D03*
D19*
X153250000Y-61215000D03*
X153250000Y-65785000D03*
D18*
X191890000Y-61850000D03*
X191890000Y-60530000D03*
X191890000Y-59210000D03*
X191890000Y-57890000D03*
X193240000Y-61850000D03*
X193240000Y-60530000D03*
X193240000Y-59210000D03*
X193240000Y-57890000D03*
X194590000Y-61850000D03*
X194590000Y-60530000D03*
X194590000Y-59210000D03*
X194590000Y-57890000D03*
X195940000Y-61850000D03*
X195940000Y-60530000D03*
X195940000Y-59210000D03*
X195940000Y-57890000D03*
D19*
X187250000Y-62155000D03*
X187250000Y-57585000D03*
D18*
X148610000Y-54270000D03*
X148610000Y-55590000D03*
X148610000Y-56910000D03*
X148610000Y-58230000D03*
X147260000Y-54270000D03*
X147260000Y-55590000D03*
X147260000Y-56910000D03*
X147260000Y-58230000D03*
X145910000Y-54270000D03*
X145910000Y-55590000D03*
X145910000Y-56910000D03*
X145910000Y-58230000D03*
X144560000Y-54270000D03*
X144560000Y-55590000D03*
X144560000Y-56910000D03*
X144560000Y-58230000D03*
D19*
X153250000Y-53965000D03*
X153250000Y-58535000D03*
D18*
X200390000Y-52850000D03*
X200390000Y-51530000D03*
X200390000Y-50210000D03*
X200390000Y-48890000D03*
X201740000Y-52850000D03*
X201740000Y-51530000D03*
X201740000Y-50210000D03*
X201740000Y-48890000D03*
X203090000Y-52850000D03*
X203090000Y-51530000D03*
X203090000Y-50210000D03*
X203090000Y-48890000D03*
X204440000Y-52850000D03*
X204440000Y-51530000D03*
X204440000Y-50210000D03*
X204440000Y-48890000D03*
D19*
X195750000Y-53155000D03*
X195750000Y-48585000D03*
D22*
X131475000Y-48250000D03*
X134525000Y-48250000D03*
D23*
X198500000Y-55225000D03*
X198500000Y-58275000D03*
D22*
X152975000Y-47250000D03*
X156025000Y-47250000D03*
D24*
X173150000Y-49050000D03*
X173150000Y-50000000D03*
X173150000Y-50950000D03*
X170850000Y-50950000D03*
X170850000Y-50000000D03*
X170850000Y-49050000D03*
D25*
X214200000Y-255700000D03*
X214200000Y-282300000D03*
D26*
X211500000Y-258000000D03*
X211500000Y-258500000D03*
X211500000Y-259000000D03*
X211500000Y-259500000D03*
X211500000Y-260000000D03*
X211500000Y-260500000D03*
X211500000Y-261000000D03*
X211500000Y-261500000D03*
X211500000Y-262000000D03*
X211500000Y-262500000D03*
X211500000Y-263000000D03*
X211500000Y-263500000D03*
X211500000Y-264000000D03*
X211500000Y-264500000D03*
X211500000Y-265000000D03*
X211500000Y-265500000D03*
X211500000Y-266000000D03*
X211500000Y-266500000D03*
X211500000Y-267000000D03*
X211500000Y-267500000D03*
X211500000Y-268000000D03*
X211500000Y-268500000D03*
X211500000Y-269000000D03*
X211500000Y-269500000D03*
X211500000Y-270000000D03*
X211500000Y-270500000D03*
X211500000Y-271000000D03*
X211500000Y-271500000D03*
X211500000Y-272000000D03*
X211500000Y-272500000D03*
X211500000Y-273000000D03*
X211500000Y-273500000D03*
X211500000Y-274000000D03*
X211500000Y-274500000D03*
X211500000Y-275000000D03*
X211500000Y-275500000D03*
X211500000Y-276000000D03*
X211500000Y-276500000D03*
X211500000Y-277000000D03*
X211500000Y-277500000D03*
X211500000Y-278000000D03*
X211500000Y-278500000D03*
X211500000Y-279000000D03*
X211500000Y-279500000D03*
X211500000Y-280000000D03*
D25*
X214200000Y-221700000D03*
X214200000Y-248300000D03*
D26*
X211500000Y-224000000D03*
X211500000Y-224500000D03*
X211500000Y-225000000D03*
X211500000Y-225500000D03*
X211500000Y-226000000D03*
X211500000Y-226500000D03*
X211500000Y-227000000D03*
X211500000Y-227500000D03*
X211500000Y-228000000D03*
X211500000Y-228500000D03*
X211500000Y-229000000D03*
X211500000Y-229500000D03*
X211500000Y-230000000D03*
X211500000Y-230500000D03*
X211500000Y-231000000D03*
X211500000Y-231500000D03*
X211500000Y-232000000D03*
X211500000Y-232500000D03*
X211500000Y-233000000D03*
X211500000Y-233500000D03*
X211500000Y-234000000D03*
X211500000Y-234500000D03*
X211500000Y-235000000D03*
X211500000Y-235500000D03*
X211500000Y-236000000D03*
X211500000Y-236500000D03*
X211500000Y-237000000D03*
X211500000Y-237500000D03*
X211500000Y-238000000D03*
X211500000Y-238500000D03*
X211500000Y-239000000D03*
X211500000Y-239500000D03*
X211500000Y-240000000D03*
X211500000Y-240500000D03*
X211500000Y-241000000D03*
X211500000Y-241500000D03*
X211500000Y-242000000D03*
X211500000Y-242500000D03*
X211500000Y-243000000D03*
X211500000Y-243500000D03*
X211500000Y-244000000D03*
X211500000Y-244500000D03*
X211500000Y-245000000D03*
X211500000Y-245500000D03*
X211500000Y-246000000D03*
D27*
X133375000Y-50500000D03*
X131625000Y-50500000D03*
D28*
X163750000Y-38970000D03*
X163250000Y-38970000D03*
X162750000Y-38970000D03*
X162250000Y-38970000D03*
X161750000Y-38970000D03*
X161250000Y-38970000D03*
X160750000Y-38970000D03*
X160250000Y-38970000D03*
X159750000Y-38970000D03*
X159250000Y-38970000D03*
X158750000Y-38970000D03*
X158250000Y-38970000D03*
X157750000Y-38970000D03*
X157250000Y-38970000D03*
X156750000Y-38970000D03*
X156250000Y-38970000D03*
X155750000Y-38970000D03*
X155250000Y-38970000D03*
D14*
X166250000Y-61875000D03*
X166250000Y-60125000D03*
D27*
X163875000Y-57750000D03*
X162125000Y-57750000D03*
D14*
X166750000Y-52125000D03*
X166750000Y-50375000D03*
X169000000Y-52125000D03*
X169000000Y-50375000D03*
X164500000Y-52125000D03*
X164500000Y-50375000D03*
X211500000Y-55375000D03*
X211500000Y-57125000D03*
D27*
X209125000Y-54000000D03*
X207375000Y-54000000D03*
D24*
X185250000Y-53000000D03*
X187250000Y-52050000D03*
X187250000Y-53950000D03*
D27*
X176625000Y-59500000D03*
X174875000Y-59500000D03*
X176625000Y-57250000D03*
X174875000Y-57250000D03*
X133375000Y-46000000D03*
X131625000Y-46000000D03*
D14*
X198500000Y-60125000D03*
X198500000Y-61875000D03*
D27*
X157875000Y-47250000D03*
X159625000Y-47250000D03*
D14*
X173750000Y-65625000D03*
X173750000Y-63875000D03*
X171250000Y-65625000D03*
X171250000Y-63875000D03*
X168750000Y-65625000D03*
X168750000Y-63875000D03*
X59940000Y-48375000D03*
X59940000Y-50125000D03*
D27*
X176625000Y-52750000D03*
X174875000Y-52750000D03*
D14*
X168750000Y-60125000D03*
X168750000Y-61875000D03*
D27*
X176625000Y-61750000D03*
X174875000Y-61750000D03*
X133375000Y-52750000D03*
X131625000Y-52750000D03*
X176625000Y-55000000D03*
X174875000Y-55000000D03*
X182625000Y-56250000D03*
X184375000Y-56250000D03*
D14*
X182500000Y-58375000D03*
X182500000Y-60125000D03*
D27*
X157875000Y-67250000D03*
X156125000Y-67250000D03*
X181625000Y-47500000D03*
X183375000Y-47500000D03*
X181625000Y-49750000D03*
X183375000Y-49750000D03*
X189125000Y-53120000D03*
X190875000Y-53120000D03*
D14*
X158000000Y-65125000D03*
X158000000Y-63375000D03*
X202250000Y-66375000D03*
X202250000Y-64625000D03*
D27*
X209125000Y-58500000D03*
X207375000Y-58500000D03*
X181625000Y-51870000D03*
X183375000Y-51870000D03*
X189125000Y-55250000D03*
X190875000Y-55250000D03*
D14*
X204500000Y-60625000D03*
X204500000Y-62375000D03*
D27*
X189125000Y-51000000D03*
X190875000Y-51000000D03*
D14*
X206750000Y-62875000D03*
X206750000Y-61125000D03*
D27*
X154875000Y-49500000D03*
X153125000Y-49500000D03*
X158625000Y-51500000D03*
X156875000Y-51500000D03*
D14*
X176750000Y-63875000D03*
X176750000Y-65625000D03*
D27*
X181625000Y-54000000D03*
X183375000Y-54000000D03*
X207375000Y-56250000D03*
X209125000Y-56250000D03*
X156875000Y-49500000D03*
X158625000Y-49500000D03*
D14*
X204500000Y-64875000D03*
X204500000Y-66625000D03*
X206750000Y-64875000D03*
X206750000Y-66625000D03*
X204250000Y-56725000D03*
X204250000Y-58475000D03*
D27*
X203625000Y-74500000D03*
X201875000Y-74500000D03*
D14*
X213750000Y-57125000D03*
X213750000Y-55375000D03*
D29*
X215570000Y-71000000D03*
X210930000Y-71000000D03*
D30*
X184500000Y-60240000D03*
X184500000Y-58250000D03*
X156000000Y-63255000D03*
X156000000Y-65245000D03*
X193000000Y-53115000D03*
X193000000Y-51125000D03*
D27*
X46625000Y-64000000D03*
X48375000Y-64000000D03*
X64125000Y-64000000D03*
X65875000Y-64000000D03*
X81625000Y-64000000D03*
X83375000Y-64000000D03*
X153125000Y-45000000D03*
X154875000Y-45000000D03*
D31*
X152930000Y-51500000D03*
X155070000Y-51500000D03*
D32*
X51500000Y-61000000D03*
X55500000Y-61000000D03*
D33*
X172000000Y-52380000D03*
X172950000Y-54380000D03*
X171050000Y-54380000D03*
X172000000Y-56130000D03*
X172950000Y-58130000D03*
X171050000Y-58130000D03*
X163950000Y-62150000D03*
X163000000Y-62150000D03*
X162050000Y-62150000D03*
X162050000Y-59850000D03*
X163000000Y-59850000D03*
X163950000Y-59850000D03*
X172000000Y-59750000D03*
X172950000Y-61750000D03*
X171050000Y-61750000D03*
X137500000Y-49250000D03*
X136550000Y-47250000D03*
X138450000Y-47250000D03*
X186250000Y-48000000D03*
X187200000Y-50000000D03*
X185300000Y-50000000D03*
D34*
X162050000Y-56030000D03*
X162050000Y-54730000D03*
X163950000Y-54730000D03*
X163950000Y-55380000D03*
X163950000Y-56030000D03*
D35*
X141250000Y-48500000D03*
X141250000Y-44500000D03*
X201500000Y-56000000D03*
X201500000Y-60000000D03*
D14*
X216000000Y-55375000D03*
X216000000Y-57125000D03*
X199500000Y-70875000D03*
X199500000Y-72625000D03*
D36*
X57150000Y-56070000D03*
X44730000Y-56070000D03*
D37*
X53230000Y-57710000D03*
X50940000Y-57710000D03*
X48650000Y-57710000D03*
D38*
X44920000Y-51500000D03*
X44920000Y-49210000D03*
D39*
X46370000Y-45480000D03*
X48650000Y-45480000D03*
X50940000Y-45480000D03*
X53230000Y-45480000D03*
D38*
X56960000Y-46930000D03*
X56960000Y-49210000D03*
X56960000Y-51500000D03*
D40*
X48650000Y-46930000D03*
X46370000Y-49210000D03*
X55510000Y-49210000D03*
X55510000Y-46930000D03*
X53230000Y-46930000D03*
X50940000Y-46930000D03*
X46370000Y-46930000D03*
X46370000Y-51500000D03*
D41*
X46370000Y-54930000D03*
D42*
X49800000Y-56070000D03*
X54370000Y-56070000D03*
D40*
X55510000Y-51500000D03*
D43*
X51500000Y-64125000D03*
X51500000Y-66875000D03*
X69000000Y-64125000D03*
X69000000Y-66875000D03*
X86500000Y-64125000D03*
X86500000Y-66875000D03*
D36*
X82710000Y-56070000D03*
X70290000Y-56070000D03*
D37*
X78790000Y-57710000D03*
X76500000Y-57710000D03*
X74210000Y-57710000D03*
D38*
X70480000Y-51500000D03*
X70480000Y-49210000D03*
D39*
X71930000Y-45480000D03*
X74210000Y-45480000D03*
X76500000Y-45480000D03*
X78790000Y-45480000D03*
D38*
X82520000Y-46930000D03*
X82520000Y-49210000D03*
X82520000Y-51500000D03*
D40*
X74210000Y-46930000D03*
X71930000Y-49210000D03*
X81070000Y-49210000D03*
X81070000Y-46930000D03*
X78790000Y-46930000D03*
X76500000Y-46930000D03*
X71930000Y-46930000D03*
X71930000Y-51500000D03*
D41*
X71930000Y-54930000D03*
D42*
X75360000Y-56070000D03*
X79930000Y-56070000D03*
D40*
X81070000Y-51500000D03*
M02*
