G04 #@! TF.GenerationSoftware,KiCad,Pcbnew,(5.1.6)-1*
G04 #@! TF.CreationDate,2020-08-26T11:46:56+02:00*
G04 #@! TF.ProjectId,element_foxtrot,656c656d-656e-4745-9f66-6f7874726f74,v1.0*
G04 #@! TF.SameCoordinates,Original*
G04 #@! TF.FileFunction,Legend,Bot*
G04 #@! TF.FilePolarity,Positive*
%FSLAX46Y46*%
G04 Gerber Fmt 4.6, Leading zero omitted, Abs format (unit mm)*
G04 Created by KiCad (PCBNEW (5.1.6)-1) date 2020-08-26 11:46:56*
%MOMM*%
%LPD*%
G01*
G04 APERTURE LIST*
G04 #@! TA.AperFunction,Profile*
%ADD10C,0.050000*%
G04 #@! TD*
G04 APERTURE END LIST*
D10*
X109000000Y-79000000D02*
X143500000Y-79000000D01*
X143500000Y-78000000D02*
X109000000Y-78000000D01*
X200000000Y-79000000D02*
X202000000Y-79000000D01*
X196000000Y-78000000D02*
X153500000Y-78000000D01*
X147500000Y-79000000D02*
G75*
G02*
X147500000Y-78000000I0J500000D01*
G01*
X153500000Y-79000000D02*
X196000000Y-79000000D01*
X200000000Y-79000000D02*
G75*
G02*
X200000000Y-78000000I0J500000D01*
G01*
X147500000Y-79000000D02*
X149500000Y-79000000D01*
X196000000Y-78000000D02*
G75*
G02*
X196000000Y-79000000I0J-500000D01*
G01*
X143500000Y-78000000D02*
G75*
G02*
X143500000Y-79000000I0J-500000D01*
G01*
X202000000Y-78000000D02*
G75*
G02*
X202000000Y-79000000I0J-500000D01*
G01*
X206000000Y-79000000D02*
G75*
G02*
X206000000Y-78000000I0J500000D01*
G01*
X153500000Y-79000000D02*
G75*
G02*
X153500000Y-78000000I0J500000D01*
G01*
X206000000Y-79000000D02*
X222500000Y-79000000D01*
X222500000Y-78000000D02*
X206000000Y-78000000D01*
X149500000Y-78000000D02*
G75*
G02*
X149500000Y-79000000I0J-500000D01*
G01*
X149500000Y-78000000D02*
X147500000Y-78000000D01*
X202000000Y-78000000D02*
X200000000Y-78000000D01*
X25000000Y-84000000D02*
G75*
G02*
X30000000Y-79000000I5000000J0D01*
G01*
X30000000Y-78000000D02*
G75*
G02*
X25000000Y-73000000I0J5000000D01*
G01*
X227500000Y-335000000D02*
G75*
G02*
X222500000Y-340000000I-5000000J0D01*
G01*
X30000000Y-340000000D02*
G75*
G02*
X25000000Y-335000000I0J5000000D01*
G01*
X99000000Y-78000000D02*
G75*
G02*
X99000000Y-79000000I0J-500000D01*
G01*
X99000000Y-78000000D02*
X91500000Y-78000000D01*
X91500000Y-79000000D02*
G75*
G02*
X91500000Y-78000000I0J500000D01*
G01*
X91500000Y-79000000D02*
X99000000Y-79000000D01*
X81500000Y-78000000D02*
X74000000Y-78000000D01*
X81500000Y-78000000D02*
G75*
G02*
X81500000Y-79000000I0J-500000D01*
G01*
X74000000Y-79000000D02*
G75*
G02*
X74000000Y-78000000I0J500000D01*
G01*
X74000000Y-79000000D02*
X81500000Y-79000000D01*
X50500000Y-79000000D02*
X52500000Y-79000000D01*
X70000000Y-78000000D02*
X68000000Y-78000000D01*
X56500000Y-79000000D02*
X64000000Y-79000000D01*
X68000000Y-79000000D02*
X70000000Y-79000000D01*
X46500000Y-78000000D02*
G75*
G02*
X46500000Y-79000000I0J-500000D01*
G01*
X70000000Y-78000000D02*
G75*
G02*
X70000000Y-79000000I0J-500000D01*
G01*
X52500000Y-78000000D02*
X50500000Y-78000000D01*
X85500000Y-79000000D02*
X87500000Y-79000000D01*
X50500000Y-79000000D02*
G75*
G02*
X50500000Y-78000000I0J500000D01*
G01*
X87500000Y-78000000D02*
X85500000Y-78000000D01*
X68000000Y-79000000D02*
G75*
G02*
X68000000Y-78000000I0J500000D01*
G01*
X46500000Y-78000000D02*
X30000000Y-78000000D01*
X64000000Y-78000000D02*
G75*
G02*
X64000000Y-79000000I0J-500000D01*
G01*
X56500000Y-79000000D02*
G75*
G02*
X56500000Y-78000000I0J500000D01*
G01*
X64000000Y-78000000D02*
X56500000Y-78000000D01*
X30000000Y-79000000D02*
X46500000Y-79000000D01*
X109000000Y-79000000D02*
G75*
G02*
X109000000Y-78000000I0J500000D01*
G01*
X103000000Y-79000000D02*
G75*
G02*
X103000000Y-78000000I0J500000D01*
G01*
X103000000Y-79000000D02*
X105000000Y-79000000D01*
X105000000Y-78000000D02*
X103000000Y-78000000D01*
X52500000Y-78000000D02*
G75*
G02*
X52500000Y-79000000I0J-500000D01*
G01*
X87500000Y-78000000D02*
G75*
G02*
X87500000Y-79000000I0J-500000D01*
G01*
X85500000Y-79000000D02*
G75*
G02*
X85500000Y-78000000I0J500000D01*
G01*
X105000000Y-78000000D02*
G75*
G02*
X105000000Y-79000000I0J-500000D01*
G01*
X25000000Y-73000000D02*
X25000000Y-37500000D01*
X25000000Y-37500000D02*
G75*
G02*
X30000000Y-32500000I5000000J0D01*
G01*
X227500000Y-84000000D02*
X227500000Y-335000000D01*
X222500000Y-79000000D02*
G75*
G02*
X227500000Y-84000000I0J-5000000D01*
G01*
X227500000Y-73000000D02*
G75*
G02*
X222500000Y-78000000I-5000000J0D01*
G01*
X222500000Y-32500000D02*
G75*
G02*
X227500000Y-37500000I0J-5000000D01*
G01*
X154830000Y-38220000D02*
X154830000Y-32500000D01*
X164180000Y-38220000D02*
X154830000Y-38220000D01*
X164180000Y-32500000D02*
X164180000Y-38220000D01*
X164180000Y-32500000D02*
X222500000Y-32500000D01*
X30000000Y-32500000D02*
X154830000Y-32500000D01*
X25000000Y-335000000D02*
X25000000Y-84000000D01*
X222500000Y-340000000D02*
X30000000Y-340000000D01*
X227500000Y-37500000D02*
X227500000Y-73000000D01*
M02*
