G04 #@! TF.GenerationSoftware,KiCad,Pcbnew,(5.1.6)-1*
G04 #@! TF.CreationDate,2020-08-26T11:46:56+02:00*
G04 #@! TF.ProjectId,element_foxtrot,656c656d-656e-4745-9f66-6f7874726f74,v1.0*
G04 #@! TF.SameCoordinates,Original*
G04 #@! TF.FileFunction,Soldermask,Top*
G04 #@! TF.FilePolarity,Negative*
%FSLAX46Y46*%
G04 Gerber Fmt 4.6, Leading zero omitted, Abs format (unit mm)*
G04 Created by KiCad (PCBNEW (5.1.6)-1) date 2020-08-26 11:46:56*
%MOMM*%
%LPD*%
G01*
G04 APERTURE LIST*
%ADD10C,0.001000*%
G04 #@! TA.AperFunction,Profile*
%ADD11C,0.050000*%
G04 #@! TD*
%ADD12C,1.500000*%
%ADD13C,2.250000*%
%ADD14R,2.200000X3.100000*%
%ADD15R,1.270000X0.500000*%
%ADD16R,2.400000X7.500000*%
%ADD17R,1.400000X1.100000*%
%ADD18R,2.700000X2.700000*%
%ADD19R,0.250000X0.600000*%
%ADD20R,0.600000X0.250000*%
%ADD21R,2.150000X1.300000*%
%ADD22R,5.700000X5.500000*%
%ADD23R,1.300000X2.150000*%
%ADD24R,5.500000X5.700000*%
%ADD25C,1.300000*%
%ADD26R,1.050000X1.500000*%
%ADD27R,1.500000X1.050000*%
%ADD28R,0.700000X0.600000*%
%ADD29R,1.300000X2.000000*%
%ADD30R,1.000000X0.300000*%
%ADD31C,1.365000*%
%ADD32C,0.800000*%
%ADD33C,6.400000*%
%ADD34C,1.000000*%
%ADD35C,2.000000*%
%ADD36R,1.750000X1.750000*%
%ADD37R,1.100000X1.400000*%
%ADD38O,1.100000X2.550000*%
%ADD39O,1.200000X2.400000*%
%ADD40R,0.350000X0.900000*%
%ADD41R,1.200000X2.070000*%
%ADD42C,2.600000*%
%ADD43R,0.600000X0.900000*%
%ADD44R,0.860000X0.540000*%
%ADD45C,1.600000*%
%ADD46R,1.600000X1.600000*%
%ADD47R,2.500000X1.700000*%
%ADD48R,0.600000X0.700000*%
%ADD49O,4.500000X2.250000*%
%ADD50O,4.000000X2.000000*%
%ADD51O,2.000000X4.000000*%
%ADD52R,1.000000X0.350000*%
%ADD53R,1.700000X2.500000*%
%ADD54R,1.250000X1.270000*%
%ADD55R,1.270000X1.250000*%
%ADD56R,1.630000X1.270000*%
%ADD57R,1.270000X1.630000*%
%ADD58R,1.270000X1.270000*%
%ADD59R,2.030000X4.320000*%
%ADD60R,4.320000X2.030000*%
%ADD61C,9.520000*%
%ADD62R,1.750000X1.250000*%
G04 APERTURE END LIST*
D10*
G36*
X157470000Y-42610000D02*
G01*
X156530000Y-42610000D01*
X156530000Y-38470000D01*
X157470000Y-38470000D01*
X157470000Y-42610000D01*
G37*
X157470000Y-42610000D02*
X156530000Y-42610000D01*
X156530000Y-38470000D01*
X157470000Y-38470000D01*
X157470000Y-42610000D01*
G36*
X163970000Y-39540000D02*
G01*
X164740000Y-40180000D01*
X164740000Y-41750000D01*
X162570000Y-41750000D01*
X162570000Y-38470000D01*
X163970000Y-38470000D01*
X163970000Y-39540000D01*
G37*
X163970000Y-39540000D02*
X164740000Y-40180000D01*
X164740000Y-41750000D01*
X162570000Y-41750000D01*
X162570000Y-38470000D01*
X163970000Y-38470000D01*
X163970000Y-39540000D01*
G36*
X156430000Y-41750000D02*
G01*
X154260000Y-41750000D01*
X154260000Y-40180000D01*
X155030000Y-39540000D01*
X155030000Y-38470000D01*
X156430000Y-38470000D01*
X156430000Y-41750000D01*
G37*
X156430000Y-41750000D02*
X154260000Y-41750000D01*
X154260000Y-40180000D01*
X155030000Y-39540000D01*
X155030000Y-38470000D01*
X156430000Y-38470000D01*
X156430000Y-41750000D01*
D11*
X109000000Y-79000000D02*
X143500000Y-79000000D01*
X143500000Y-78000000D02*
X109000000Y-78000000D01*
X200000000Y-79000000D02*
X202000000Y-79000000D01*
X196000000Y-78000000D02*
X153500000Y-78000000D01*
X147500000Y-79000000D02*
G75*
G02*
X147500000Y-78000000I0J500000D01*
G01*
X153500000Y-79000000D02*
X196000000Y-79000000D01*
X200000000Y-79000000D02*
G75*
G02*
X200000000Y-78000000I0J500000D01*
G01*
X147500000Y-79000000D02*
X149500000Y-79000000D01*
X196000000Y-78000000D02*
G75*
G02*
X196000000Y-79000000I0J-500000D01*
G01*
X143500000Y-78000000D02*
G75*
G02*
X143500000Y-79000000I0J-500000D01*
G01*
X202000000Y-78000000D02*
G75*
G02*
X202000000Y-79000000I0J-500000D01*
G01*
X206000000Y-79000000D02*
G75*
G02*
X206000000Y-78000000I0J500000D01*
G01*
X153500000Y-79000000D02*
G75*
G02*
X153500000Y-78000000I0J500000D01*
G01*
X206000000Y-79000000D02*
X222500000Y-79000000D01*
X222500000Y-78000000D02*
X206000000Y-78000000D01*
X149500000Y-78000000D02*
G75*
G02*
X149500000Y-79000000I0J-500000D01*
G01*
X149500000Y-78000000D02*
X147500000Y-78000000D01*
X202000000Y-78000000D02*
X200000000Y-78000000D01*
X25000000Y-84000000D02*
G75*
G02*
X30000000Y-79000000I5000000J0D01*
G01*
X30000000Y-78000000D02*
G75*
G02*
X25000000Y-73000000I0J5000000D01*
G01*
X227500000Y-335000000D02*
G75*
G02*
X222500000Y-340000000I-5000000J0D01*
G01*
X30000000Y-340000000D02*
G75*
G02*
X25000000Y-335000000I0J5000000D01*
G01*
X99000000Y-78000000D02*
G75*
G02*
X99000000Y-79000000I0J-500000D01*
G01*
X99000000Y-78000000D02*
X91500000Y-78000000D01*
X91500000Y-79000000D02*
G75*
G02*
X91500000Y-78000000I0J500000D01*
G01*
X91500000Y-79000000D02*
X99000000Y-79000000D01*
X81500000Y-78000000D02*
X74000000Y-78000000D01*
X81500000Y-78000000D02*
G75*
G02*
X81500000Y-79000000I0J-500000D01*
G01*
X74000000Y-79000000D02*
G75*
G02*
X74000000Y-78000000I0J500000D01*
G01*
X74000000Y-79000000D02*
X81500000Y-79000000D01*
D10*
G36*
X162470000Y-42610000D02*
G01*
X161530000Y-42610000D01*
X161530000Y-38470000D01*
X162470000Y-38470000D01*
X162470000Y-42610000D01*
G37*
X162470000Y-42610000D02*
X161530000Y-42610000D01*
X161530000Y-38470000D01*
X162470000Y-38470000D01*
X162470000Y-42610000D01*
D11*
X50500000Y-79000000D02*
X52500000Y-79000000D01*
X70000000Y-78000000D02*
X68000000Y-78000000D01*
X56500000Y-79000000D02*
X64000000Y-79000000D01*
X68000000Y-79000000D02*
X70000000Y-79000000D01*
X46500000Y-78000000D02*
G75*
G02*
X46500000Y-79000000I0J-500000D01*
G01*
X70000000Y-78000000D02*
G75*
G02*
X70000000Y-79000000I0J-500000D01*
G01*
X52500000Y-78000000D02*
X50500000Y-78000000D01*
X85500000Y-79000000D02*
X87500000Y-79000000D01*
X50500000Y-79000000D02*
G75*
G02*
X50500000Y-78000000I0J500000D01*
G01*
X87500000Y-78000000D02*
X85500000Y-78000000D01*
X68000000Y-79000000D02*
G75*
G02*
X68000000Y-78000000I0J500000D01*
G01*
X46500000Y-78000000D02*
X30000000Y-78000000D01*
X64000000Y-78000000D02*
G75*
G02*
X64000000Y-79000000I0J-500000D01*
G01*
X56500000Y-79000000D02*
G75*
G02*
X56500000Y-78000000I0J500000D01*
G01*
X64000000Y-78000000D02*
X56500000Y-78000000D01*
X30000000Y-79000000D02*
X46500000Y-79000000D01*
X109000000Y-79000000D02*
G75*
G02*
X109000000Y-78000000I0J500000D01*
G01*
X103000000Y-79000000D02*
G75*
G02*
X103000000Y-78000000I0J500000D01*
G01*
X103000000Y-79000000D02*
X105000000Y-79000000D01*
X105000000Y-78000000D02*
X103000000Y-78000000D01*
X52500000Y-78000000D02*
G75*
G02*
X52500000Y-79000000I0J-500000D01*
G01*
X87500000Y-78000000D02*
G75*
G02*
X87500000Y-79000000I0J-500000D01*
G01*
X85500000Y-79000000D02*
G75*
G02*
X85500000Y-78000000I0J500000D01*
G01*
X105000000Y-78000000D02*
G75*
G02*
X105000000Y-79000000I0J-500000D01*
G01*
X25000000Y-73000000D02*
X25000000Y-37500000D01*
X25000000Y-37500000D02*
G75*
G02*
X30000000Y-32500000I5000000J0D01*
G01*
X227500000Y-84000000D02*
X227500000Y-335000000D01*
X222500000Y-79000000D02*
G75*
G02*
X227500000Y-84000000I0J-5000000D01*
G01*
X227500000Y-73000000D02*
G75*
G02*
X222500000Y-78000000I-5000000J0D01*
G01*
X222500000Y-32500000D02*
G75*
G02*
X227500000Y-37500000I0J-5000000D01*
G01*
X154830000Y-38220000D02*
X154830000Y-32500000D01*
X164180000Y-38220000D02*
X154830000Y-38220000D01*
X164180000Y-32500000D02*
X164180000Y-38220000D01*
X164180000Y-32500000D02*
X222500000Y-32500000D01*
X30000000Y-32500000D02*
X154830000Y-32500000D01*
X25000000Y-335000000D02*
X25000000Y-84000000D01*
X222500000Y-340000000D02*
X30000000Y-340000000D01*
X227500000Y-37500000D02*
X227500000Y-73000000D01*
D12*
X189500000Y-36500000D03*
X185500000Y-36500000D03*
X183500000Y-36500000D03*
X181500000Y-36500000D03*
X179500000Y-36500000D03*
X175500000Y-36500000D03*
X173500000Y-36500000D03*
X171500000Y-36500000D03*
X189500000Y-39000000D03*
X185500000Y-39000000D03*
X183500000Y-39000000D03*
X181500000Y-39000000D03*
X179500000Y-39000000D03*
X175500000Y-39000000D03*
X173500000Y-39000000D03*
X171500000Y-39000000D03*
D13*
X191500000Y-40750000D03*
X191500000Y-34750000D03*
X169500000Y-34750000D03*
X169500000Y-40750000D03*
D14*
X204500000Y-70500000D03*
D15*
X201642000Y-68595000D03*
X201642000Y-69865000D03*
X201642000Y-71135000D03*
X201642000Y-72405000D03*
X207358000Y-68595000D03*
X207358000Y-69865000D03*
X207358000Y-71135000D03*
X207358000Y-72405000D03*
D16*
X216350000Y-64250000D03*
X210150000Y-64250000D03*
D17*
X59940000Y-52125000D03*
X59940000Y-53875000D03*
X85500000Y-52125000D03*
X85500000Y-53875000D03*
D18*
X167500000Y-56380000D03*
D19*
X168750000Y-54480000D03*
X168250000Y-54480000D03*
X167750000Y-54480000D03*
X167250000Y-54480000D03*
X166750000Y-54480000D03*
X166250000Y-54480000D03*
D20*
X169400000Y-57630000D03*
X169400000Y-57130000D03*
X169400000Y-56630000D03*
X169400000Y-56130000D03*
X169400000Y-55630000D03*
X169400000Y-55130000D03*
D19*
X168750000Y-58280000D03*
X168250000Y-58280000D03*
X167750000Y-58280000D03*
X167250000Y-58280000D03*
X166750000Y-58280000D03*
X166250000Y-58280000D03*
D20*
X165600000Y-57630000D03*
X165600000Y-57130000D03*
X165600000Y-56630000D03*
X165600000Y-56130000D03*
X165600000Y-55630000D03*
X165600000Y-55130000D03*
D21*
X187250000Y-69655000D03*
D22*
X193915000Y-67370000D03*
D21*
X187250000Y-65085000D03*
D23*
X122035000Y-56435000D03*
D24*
X119750000Y-49770000D03*
D23*
X117465000Y-56435000D03*
X129285000Y-56435000D03*
D24*
X127000000Y-49770000D03*
D23*
X124715000Y-56435000D03*
D21*
X153250000Y-61215000D03*
D22*
X146585000Y-63500000D03*
D21*
X153250000Y-65785000D03*
X187250000Y-62155000D03*
D22*
X193915000Y-59870000D03*
D21*
X187250000Y-57585000D03*
X153250000Y-53965000D03*
D22*
X146585000Y-56250000D03*
D21*
X153250000Y-58535000D03*
X195750000Y-53155000D03*
D22*
X202415000Y-50870000D03*
D21*
X195750000Y-48585000D03*
D25*
X40480000Y-51590000D03*
X40480000Y-49050000D03*
X40480000Y-46510000D03*
X66040000Y-51590000D03*
X66040000Y-49050000D03*
X66040000Y-46510000D03*
D26*
X131475000Y-48250000D03*
X134525000Y-48250000D03*
D27*
X198500000Y-55225000D03*
X198500000Y-58275000D03*
D26*
X152975000Y-47250000D03*
X156025000Y-47250000D03*
D28*
X173150000Y-49050000D03*
X173150000Y-50000000D03*
X173150000Y-50950000D03*
X170850000Y-50950000D03*
X170850000Y-50000000D03*
X170850000Y-49050000D03*
D29*
X214200000Y-255700000D03*
X214200000Y-282300000D03*
D30*
X211500000Y-258000000D03*
X211500000Y-258500000D03*
X211500000Y-259000000D03*
X211500000Y-259500000D03*
X211500000Y-260000000D03*
X211500000Y-260500000D03*
X211500000Y-261000000D03*
X211500000Y-261500000D03*
X211500000Y-262000000D03*
X211500000Y-262500000D03*
X211500000Y-263000000D03*
X211500000Y-263500000D03*
X211500000Y-264000000D03*
X211500000Y-264500000D03*
X211500000Y-265000000D03*
X211500000Y-265500000D03*
X211500000Y-266000000D03*
X211500000Y-266500000D03*
X211500000Y-267000000D03*
X211500000Y-267500000D03*
X211500000Y-268000000D03*
X211500000Y-268500000D03*
X211500000Y-269000000D03*
X211500000Y-269500000D03*
X211500000Y-270000000D03*
X211500000Y-270500000D03*
X211500000Y-271000000D03*
X211500000Y-271500000D03*
X211500000Y-272000000D03*
X211500000Y-272500000D03*
X211500000Y-273000000D03*
X211500000Y-273500000D03*
X211500000Y-274000000D03*
X211500000Y-274500000D03*
X211500000Y-275000000D03*
X211500000Y-275500000D03*
X211500000Y-276000000D03*
X211500000Y-276500000D03*
X211500000Y-277000000D03*
X211500000Y-277500000D03*
X211500000Y-278000000D03*
X211500000Y-278500000D03*
X211500000Y-279000000D03*
X211500000Y-279500000D03*
X211500000Y-280000000D03*
D29*
X214200000Y-221700000D03*
X214200000Y-248300000D03*
D30*
X211500000Y-224000000D03*
X211500000Y-224500000D03*
X211500000Y-225000000D03*
X211500000Y-225500000D03*
X211500000Y-226000000D03*
X211500000Y-226500000D03*
X211500000Y-227000000D03*
X211500000Y-227500000D03*
X211500000Y-228000000D03*
X211500000Y-228500000D03*
X211500000Y-229000000D03*
X211500000Y-229500000D03*
X211500000Y-230000000D03*
X211500000Y-230500000D03*
X211500000Y-231000000D03*
X211500000Y-231500000D03*
X211500000Y-232000000D03*
X211500000Y-232500000D03*
X211500000Y-233000000D03*
X211500000Y-233500000D03*
X211500000Y-234000000D03*
X211500000Y-234500000D03*
X211500000Y-235000000D03*
X211500000Y-235500000D03*
X211500000Y-236000000D03*
X211500000Y-236500000D03*
X211500000Y-237000000D03*
X211500000Y-237500000D03*
X211500000Y-238000000D03*
X211500000Y-238500000D03*
X211500000Y-239000000D03*
X211500000Y-239500000D03*
X211500000Y-240000000D03*
X211500000Y-240500000D03*
X211500000Y-241000000D03*
X211500000Y-241500000D03*
X211500000Y-242000000D03*
X211500000Y-242500000D03*
X211500000Y-243000000D03*
X211500000Y-243500000D03*
X211500000Y-244000000D03*
X211500000Y-244500000D03*
X211500000Y-245000000D03*
X211500000Y-245500000D03*
X211500000Y-246000000D03*
D31*
X185865000Y-216515000D03*
X193485000Y-213975000D03*
X150305000Y-213975000D03*
X152845000Y-216515000D03*
X157925000Y-216515000D03*
X196025000Y-213975000D03*
X160465000Y-216515000D03*
X198565000Y-213975000D03*
X160465000Y-213975000D03*
X163005000Y-213975000D03*
X168085000Y-216515000D03*
X175705000Y-216515000D03*
X190945000Y-213975000D03*
X165545000Y-213975000D03*
X165545000Y-216515000D03*
X203645000Y-216515000D03*
X188405000Y-216515000D03*
X206185000Y-216515000D03*
X173165000Y-216515000D03*
X175705000Y-213975000D03*
X183325000Y-213975000D03*
X152845000Y-213975000D03*
X203645000Y-213975000D03*
X145225000Y-213975000D03*
X201105000Y-213975000D03*
X147765000Y-213975000D03*
X180785000Y-213975000D03*
X196025000Y-216515000D03*
X180785000Y-216515000D03*
X185865000Y-213975000D03*
X163005000Y-216515000D03*
X157925000Y-213975000D03*
X178245000Y-216515000D03*
X170625000Y-216515000D03*
X155385000Y-216515000D03*
X170625000Y-213975000D03*
X193485000Y-216515000D03*
X150305000Y-216515000D03*
X206185000Y-213975000D03*
X208725000Y-216515000D03*
X188405000Y-213975000D03*
X201105000Y-216515000D03*
X190945000Y-216515000D03*
X145225000Y-216515000D03*
X155385000Y-213975000D03*
X178245000Y-213975000D03*
X183325000Y-216515000D03*
X173165000Y-213975000D03*
X208725000Y-213975000D03*
X198565000Y-216515000D03*
X147765000Y-216515000D03*
X168085000Y-213975000D03*
X185865000Y-211435000D03*
X193485000Y-208895000D03*
X150305000Y-208895000D03*
X152845000Y-211435000D03*
X157925000Y-211435000D03*
X196025000Y-208895000D03*
X160465000Y-211435000D03*
X198565000Y-208895000D03*
X160465000Y-208895000D03*
X163005000Y-208895000D03*
X168085000Y-211435000D03*
X175705000Y-211435000D03*
X190945000Y-208895000D03*
X165545000Y-208895000D03*
X165545000Y-211435000D03*
X203645000Y-211435000D03*
X188405000Y-211435000D03*
X206185000Y-211435000D03*
X173165000Y-211435000D03*
X175705000Y-208895000D03*
X183325000Y-208895000D03*
X152845000Y-208895000D03*
X203645000Y-208895000D03*
X145225000Y-208895000D03*
X201105000Y-208895000D03*
X147765000Y-208895000D03*
X180785000Y-208895000D03*
X196025000Y-211435000D03*
X180785000Y-211435000D03*
X185865000Y-208895000D03*
X163005000Y-211435000D03*
X157925000Y-208895000D03*
X178245000Y-211435000D03*
X170625000Y-211435000D03*
X155385000Y-211435000D03*
X170625000Y-208895000D03*
X193485000Y-211435000D03*
X150305000Y-211435000D03*
X206185000Y-208895000D03*
X208725000Y-211435000D03*
X188405000Y-208895000D03*
X201105000Y-211435000D03*
X190945000Y-211435000D03*
X145225000Y-211435000D03*
X155385000Y-208895000D03*
X178245000Y-208895000D03*
X183325000Y-211435000D03*
X173165000Y-208895000D03*
X208725000Y-208895000D03*
X198565000Y-211435000D03*
X147765000Y-211435000D03*
X168085000Y-208895000D03*
D32*
X216345000Y-292220000D03*
X218042056Y-292922944D03*
X216345000Y-297020000D03*
X214647944Y-296317056D03*
X213945000Y-294620000D03*
X218745000Y-294620000D03*
X218042056Y-296317056D03*
X136335000Y-292220000D03*
X214647944Y-292922944D03*
D33*
X216345000Y-294620000D03*
D32*
X138032056Y-292922944D03*
X138032056Y-296317056D03*
X136335000Y-297020000D03*
X134637944Y-292922944D03*
X133935000Y-294620000D03*
X134637944Y-296317056D03*
D33*
X136335000Y-294620000D03*
D32*
X138735000Y-294620000D03*
X216205000Y-208895000D03*
X215502056Y-210592056D03*
X213805000Y-206495000D03*
X212107944Y-210592056D03*
X211405000Y-208895000D03*
X215502056Y-207197944D03*
X213805000Y-211295000D03*
X212107944Y-207197944D03*
D33*
X213805000Y-208895000D03*
D32*
X141842056Y-207197944D03*
X138447944Y-207197944D03*
X137745000Y-208895000D03*
X138447944Y-210592056D03*
D33*
X140145000Y-208895000D03*
D32*
X140145000Y-211295000D03*
X140145000Y-206495000D03*
X141842056Y-210592056D03*
X142545000Y-208895000D03*
D31*
X85695000Y-110635000D03*
X93315000Y-108095000D03*
X50135000Y-108095000D03*
X52675000Y-110635000D03*
X57755000Y-110635000D03*
X95855000Y-108095000D03*
X60295000Y-110635000D03*
X98395000Y-108095000D03*
X60295000Y-108095000D03*
X62835000Y-108095000D03*
X67915000Y-110635000D03*
X75535000Y-110635000D03*
X90775000Y-108095000D03*
X65375000Y-108095000D03*
X65375000Y-110635000D03*
X103475000Y-110635000D03*
X88235000Y-110635000D03*
X106015000Y-110635000D03*
X72995000Y-110635000D03*
X75535000Y-108095000D03*
X83155000Y-108095000D03*
X52675000Y-108095000D03*
X103475000Y-108095000D03*
X45055000Y-108095000D03*
X100935000Y-108095000D03*
X47595000Y-108095000D03*
X80615000Y-108095000D03*
X95855000Y-110635000D03*
X80615000Y-110635000D03*
X85695000Y-108095000D03*
X62835000Y-110635000D03*
X57755000Y-108095000D03*
X78075000Y-110635000D03*
X70455000Y-110635000D03*
X55215000Y-110635000D03*
X70455000Y-108095000D03*
X93315000Y-110635000D03*
X50135000Y-110635000D03*
X106015000Y-108095000D03*
X108555000Y-110635000D03*
X88235000Y-108095000D03*
X100935000Y-110635000D03*
X90775000Y-110635000D03*
X45055000Y-110635000D03*
X55215000Y-108095000D03*
X78075000Y-108095000D03*
X83155000Y-110635000D03*
X72995000Y-108095000D03*
X108555000Y-108095000D03*
X98395000Y-110635000D03*
X47595000Y-110635000D03*
X67915000Y-108095000D03*
X85695000Y-105555000D03*
X93315000Y-103015000D03*
X50135000Y-103015000D03*
X52675000Y-105555000D03*
X57755000Y-105555000D03*
X95855000Y-103015000D03*
X60295000Y-105555000D03*
X98395000Y-103015000D03*
X60295000Y-103015000D03*
X62835000Y-103015000D03*
X67915000Y-105555000D03*
X75535000Y-105555000D03*
X90775000Y-103015000D03*
X65375000Y-103015000D03*
X65375000Y-105555000D03*
X103475000Y-105555000D03*
X88235000Y-105555000D03*
X106015000Y-105555000D03*
X72995000Y-105555000D03*
X75535000Y-103015000D03*
X83155000Y-103015000D03*
X52675000Y-103015000D03*
X103475000Y-103015000D03*
X45055000Y-103015000D03*
X100935000Y-103015000D03*
X47595000Y-103015000D03*
X80615000Y-103015000D03*
X95855000Y-105555000D03*
X80615000Y-105555000D03*
X85695000Y-103015000D03*
X62835000Y-105555000D03*
X57755000Y-103015000D03*
X78075000Y-105555000D03*
X70455000Y-105555000D03*
X55215000Y-105555000D03*
X70455000Y-103015000D03*
X93315000Y-105555000D03*
X50135000Y-105555000D03*
X106015000Y-103015000D03*
X108555000Y-105555000D03*
X88235000Y-103015000D03*
X100935000Y-105555000D03*
X90775000Y-105555000D03*
X45055000Y-105555000D03*
X55215000Y-103015000D03*
X78075000Y-103015000D03*
X83155000Y-105555000D03*
X72995000Y-103015000D03*
X108555000Y-103015000D03*
X98395000Y-105555000D03*
X47595000Y-105555000D03*
X67915000Y-103015000D03*
D32*
X116175000Y-186340000D03*
X117872056Y-187042944D03*
X116175000Y-191140000D03*
X114477944Y-190437056D03*
X113775000Y-188740000D03*
X118575000Y-188740000D03*
X117872056Y-190437056D03*
X36165000Y-186340000D03*
X114477944Y-187042944D03*
D33*
X116175000Y-188740000D03*
D32*
X37862056Y-187042944D03*
X37862056Y-190437056D03*
X36165000Y-191140000D03*
X34467944Y-187042944D03*
X33765000Y-188740000D03*
X34467944Y-190437056D03*
D33*
X36165000Y-188740000D03*
D32*
X38565000Y-188740000D03*
X116035000Y-103015000D03*
X115332056Y-104712056D03*
X113635000Y-100615000D03*
X111937944Y-104712056D03*
X111235000Y-103015000D03*
X115332056Y-101317944D03*
X113635000Y-105415000D03*
X111937944Y-101317944D03*
D33*
X113635000Y-103015000D03*
D32*
X41672056Y-101317944D03*
X38277944Y-101317944D03*
X37575000Y-103015000D03*
X38277944Y-104712056D03*
D33*
X39975000Y-103015000D03*
D32*
X39975000Y-105415000D03*
X39975000Y-100615000D03*
X41672056Y-104712056D03*
X42375000Y-103015000D03*
D33*
X222500000Y-335000000D03*
D32*
X224900000Y-335000000D03*
X224197056Y-336697056D03*
X222500000Y-337400000D03*
X220802944Y-336697056D03*
X220100000Y-335000000D03*
X220802944Y-333302944D03*
X222500000Y-332600000D03*
X224197056Y-333302944D03*
D33*
X127500000Y-335000000D03*
D32*
X129900000Y-335000000D03*
X129197056Y-336697056D03*
X127500000Y-337400000D03*
X125802944Y-336697056D03*
X125100000Y-335000000D03*
X125802944Y-333302944D03*
X127500000Y-332600000D03*
X129197056Y-333302944D03*
D33*
X30000000Y-335000000D03*
D32*
X32400000Y-335000000D03*
X31697056Y-336697056D03*
X30000000Y-337400000D03*
X28302944Y-336697056D03*
X27600000Y-335000000D03*
X28302944Y-333302944D03*
X30000000Y-332600000D03*
X31697056Y-333302944D03*
D31*
X185865000Y-110635000D03*
X193485000Y-108095000D03*
X150305000Y-108095000D03*
X152845000Y-110635000D03*
X157925000Y-110635000D03*
X196025000Y-108095000D03*
X160465000Y-110635000D03*
X198565000Y-108095000D03*
X160465000Y-108095000D03*
X163005000Y-108095000D03*
X168085000Y-110635000D03*
X175705000Y-110635000D03*
X190945000Y-108095000D03*
X165545000Y-108095000D03*
X165545000Y-110635000D03*
X203645000Y-110635000D03*
X188405000Y-110635000D03*
X206185000Y-110635000D03*
X173165000Y-110635000D03*
X175705000Y-108095000D03*
X183325000Y-108095000D03*
X152845000Y-108095000D03*
X203645000Y-108095000D03*
X145225000Y-108095000D03*
X201105000Y-108095000D03*
X147765000Y-108095000D03*
X180785000Y-108095000D03*
X196025000Y-110635000D03*
X180785000Y-110635000D03*
X185865000Y-108095000D03*
X163005000Y-110635000D03*
X157925000Y-108095000D03*
X178245000Y-110635000D03*
X170625000Y-110635000D03*
X155385000Y-110635000D03*
X170625000Y-108095000D03*
X193485000Y-110635000D03*
X150305000Y-110635000D03*
X206185000Y-108095000D03*
X208725000Y-110635000D03*
X188405000Y-108095000D03*
X201105000Y-110635000D03*
X190945000Y-110635000D03*
X145225000Y-110635000D03*
X155385000Y-108095000D03*
X178245000Y-108095000D03*
X183325000Y-110635000D03*
X173165000Y-108095000D03*
X208725000Y-108095000D03*
X198565000Y-110635000D03*
X147765000Y-110635000D03*
X168085000Y-108095000D03*
X185865000Y-105555000D03*
X193485000Y-103015000D03*
X150305000Y-103015000D03*
X152845000Y-105555000D03*
X157925000Y-105555000D03*
X196025000Y-103015000D03*
X160465000Y-105555000D03*
X198565000Y-103015000D03*
X160465000Y-103015000D03*
X163005000Y-103015000D03*
X168085000Y-105555000D03*
X175705000Y-105555000D03*
X190945000Y-103015000D03*
X165545000Y-103015000D03*
X165545000Y-105555000D03*
X203645000Y-105555000D03*
X188405000Y-105555000D03*
X206185000Y-105555000D03*
X173165000Y-105555000D03*
X175705000Y-103015000D03*
X183325000Y-103015000D03*
X152845000Y-103015000D03*
X203645000Y-103015000D03*
X145225000Y-103015000D03*
X201105000Y-103015000D03*
X147765000Y-103015000D03*
X180785000Y-103015000D03*
X196025000Y-105555000D03*
X180785000Y-105555000D03*
X185865000Y-103015000D03*
X163005000Y-105555000D03*
X157925000Y-103015000D03*
X178245000Y-105555000D03*
X170625000Y-105555000D03*
X155385000Y-105555000D03*
X170625000Y-103015000D03*
X193485000Y-105555000D03*
X150305000Y-105555000D03*
X206185000Y-103015000D03*
X208725000Y-105555000D03*
X188405000Y-103015000D03*
X201105000Y-105555000D03*
X190945000Y-105555000D03*
X145225000Y-105555000D03*
X155385000Y-103015000D03*
X178245000Y-103015000D03*
X183325000Y-105555000D03*
X173165000Y-103015000D03*
X208725000Y-103015000D03*
X198565000Y-105555000D03*
X147765000Y-105555000D03*
X168085000Y-103015000D03*
D32*
X216345000Y-186340000D03*
X218042056Y-187042944D03*
X216345000Y-191140000D03*
X214647944Y-190437056D03*
X213945000Y-188740000D03*
X218745000Y-188740000D03*
X218042056Y-190437056D03*
X136335000Y-186340000D03*
X214647944Y-187042944D03*
D33*
X216345000Y-188740000D03*
D32*
X138032056Y-187042944D03*
X138032056Y-190437056D03*
X136335000Y-191140000D03*
X134637944Y-187042944D03*
X133935000Y-188740000D03*
X134637944Y-190437056D03*
D33*
X136335000Y-188740000D03*
D32*
X138735000Y-188740000D03*
X216205000Y-103015000D03*
X215502056Y-104712056D03*
X213805000Y-100615000D03*
X212107944Y-104712056D03*
X211405000Y-103015000D03*
X215502056Y-101317944D03*
X213805000Y-105415000D03*
X212107944Y-101317944D03*
D33*
X213805000Y-103015000D03*
D32*
X141842056Y-101317944D03*
X138447944Y-101317944D03*
X137745000Y-103015000D03*
X138447944Y-104712056D03*
D33*
X140145000Y-103015000D03*
D32*
X140145000Y-105415000D03*
X140145000Y-100615000D03*
X141842056Y-104712056D03*
X142545000Y-103015000D03*
D31*
X85695000Y-216515000D03*
X93315000Y-213975000D03*
X50135000Y-213975000D03*
X52675000Y-216515000D03*
X57755000Y-216515000D03*
X95855000Y-213975000D03*
X60295000Y-216515000D03*
X98395000Y-213975000D03*
X60295000Y-213975000D03*
X62835000Y-213975000D03*
X67915000Y-216515000D03*
X75535000Y-216515000D03*
X90775000Y-213975000D03*
X65375000Y-213975000D03*
X65375000Y-216515000D03*
X103475000Y-216515000D03*
X88235000Y-216515000D03*
X106015000Y-216515000D03*
X72995000Y-216515000D03*
X75535000Y-213975000D03*
X83155000Y-213975000D03*
X52675000Y-213975000D03*
X103475000Y-213975000D03*
X45055000Y-213975000D03*
X100935000Y-213975000D03*
X47595000Y-213975000D03*
X80615000Y-213975000D03*
X95855000Y-216515000D03*
X80615000Y-216515000D03*
X85695000Y-213975000D03*
X62835000Y-216515000D03*
X57755000Y-213975000D03*
X78075000Y-216515000D03*
X70455000Y-216515000D03*
X55215000Y-216515000D03*
X70455000Y-213975000D03*
X93315000Y-216515000D03*
X50135000Y-216515000D03*
X106015000Y-213975000D03*
X108555000Y-216515000D03*
X88235000Y-213975000D03*
X100935000Y-216515000D03*
X90775000Y-216515000D03*
X45055000Y-216515000D03*
X55215000Y-213975000D03*
X78075000Y-213975000D03*
X83155000Y-216515000D03*
X72995000Y-213975000D03*
X108555000Y-213975000D03*
X98395000Y-216515000D03*
X47595000Y-216515000D03*
X67915000Y-213975000D03*
X85695000Y-211435000D03*
X93315000Y-208895000D03*
X50135000Y-208895000D03*
X52675000Y-211435000D03*
X57755000Y-211435000D03*
X95855000Y-208895000D03*
X60295000Y-211435000D03*
X98395000Y-208895000D03*
X60295000Y-208895000D03*
X62835000Y-208895000D03*
X67915000Y-211435000D03*
X75535000Y-211435000D03*
X90775000Y-208895000D03*
X65375000Y-208895000D03*
X65375000Y-211435000D03*
X103475000Y-211435000D03*
X88235000Y-211435000D03*
X106015000Y-211435000D03*
X72995000Y-211435000D03*
X75535000Y-208895000D03*
X83155000Y-208895000D03*
X52675000Y-208895000D03*
X103475000Y-208895000D03*
X45055000Y-208895000D03*
X100935000Y-208895000D03*
X47595000Y-208895000D03*
X80615000Y-208895000D03*
X95855000Y-211435000D03*
X80615000Y-211435000D03*
X85695000Y-208895000D03*
X62835000Y-211435000D03*
X57755000Y-208895000D03*
X78075000Y-211435000D03*
X70455000Y-211435000D03*
X55215000Y-211435000D03*
X70455000Y-208895000D03*
X93315000Y-211435000D03*
X50135000Y-211435000D03*
X106015000Y-208895000D03*
X108555000Y-211435000D03*
X88235000Y-208895000D03*
X100935000Y-211435000D03*
X90775000Y-211435000D03*
X45055000Y-211435000D03*
X55215000Y-208895000D03*
X78075000Y-208895000D03*
X83155000Y-211435000D03*
X72995000Y-208895000D03*
X108555000Y-208895000D03*
X98395000Y-211435000D03*
X47595000Y-211435000D03*
X67915000Y-208895000D03*
D32*
X116175000Y-292220000D03*
X117872056Y-292922944D03*
X116175000Y-297020000D03*
X114477944Y-296317056D03*
X113775000Y-294620000D03*
X118575000Y-294620000D03*
X117872056Y-296317056D03*
X36165000Y-292220000D03*
X114477944Y-292922944D03*
D33*
X116175000Y-294620000D03*
D32*
X37862056Y-292922944D03*
X37862056Y-296317056D03*
X36165000Y-297020000D03*
X34467944Y-292922944D03*
X33765000Y-294620000D03*
X34467944Y-296317056D03*
D33*
X36165000Y-294620000D03*
D32*
X38565000Y-294620000D03*
X116035000Y-208895000D03*
X115332056Y-210592056D03*
X113635000Y-206495000D03*
X111937944Y-210592056D03*
X111235000Y-208895000D03*
X115332056Y-207197944D03*
X113635000Y-211295000D03*
X111937944Y-207197944D03*
D33*
X113635000Y-208895000D03*
D32*
X41672056Y-207197944D03*
X38277944Y-207197944D03*
X37575000Y-208895000D03*
X38277944Y-210592056D03*
D33*
X39975000Y-208895000D03*
D32*
X39975000Y-211295000D03*
X39975000Y-206495000D03*
X41672056Y-210592056D03*
X42375000Y-208895000D03*
D34*
X161400000Y-47850000D03*
X164200000Y-47850000D03*
X178740000Y-59500000D03*
D35*
X45500000Y-69250000D03*
X63000000Y-69250000D03*
X80500000Y-69250000D03*
X45500000Y-66500000D03*
X63000000Y-66500000D03*
X80500000Y-66500000D03*
D36*
X48960000Y-73770000D03*
X48960000Y-71230000D03*
X51500000Y-73770000D03*
X54040000Y-73770000D03*
X51500000Y-71230000D03*
X54040000Y-71230000D03*
X66460000Y-73770000D03*
X66460000Y-71230000D03*
X69000000Y-73770000D03*
X71540000Y-73770000D03*
X69000000Y-71230000D03*
X71540000Y-71230000D03*
X83960000Y-73770000D03*
X83960000Y-71230000D03*
X86500000Y-73770000D03*
X89040000Y-73770000D03*
X86500000Y-71230000D03*
X89040000Y-71230000D03*
D37*
X133375000Y-50500000D03*
X131625000Y-50500000D03*
D38*
X154050000Y-38350000D03*
X164950000Y-38350000D03*
D39*
X154050000Y-35120000D03*
X164950000Y-35120000D03*
D40*
X163750000Y-38970000D03*
X163250000Y-38970000D03*
X162750000Y-38970000D03*
X162250000Y-38970000D03*
X161750000Y-38970000D03*
X161250000Y-38970000D03*
X160750000Y-38970000D03*
X160250000Y-38970000D03*
X159750000Y-38970000D03*
X159250000Y-38970000D03*
X158750000Y-38970000D03*
X158250000Y-38970000D03*
X157750000Y-38970000D03*
X157250000Y-38970000D03*
X156750000Y-38970000D03*
X156250000Y-38970000D03*
X155750000Y-38970000D03*
X155250000Y-38970000D03*
D33*
X30000000Y-198750000D03*
D32*
X30000000Y-201150000D03*
X28302944Y-200447056D03*
X27600000Y-198750000D03*
X28302944Y-197052944D03*
X30000000Y-196350000D03*
X31697056Y-197052944D03*
X32400000Y-198750000D03*
X31697056Y-200447056D03*
D33*
X126250000Y-198750000D03*
D32*
X126250000Y-201150000D03*
X124552944Y-200447056D03*
X123850000Y-198750000D03*
X124552944Y-197052944D03*
X126250000Y-196350000D03*
X127947056Y-197052944D03*
X128650000Y-198750000D03*
X127947056Y-200447056D03*
D33*
X222500000Y-198750000D03*
D32*
X222500000Y-201150000D03*
X220802944Y-200447056D03*
X220100000Y-198750000D03*
X220802944Y-197052944D03*
X222500000Y-196350000D03*
X224197056Y-197052944D03*
X224900000Y-198750000D03*
X224197056Y-200447056D03*
D33*
X30000000Y-84500000D03*
D32*
X30000000Y-86900000D03*
X28302944Y-86197056D03*
X27600000Y-84500000D03*
X28302944Y-82802944D03*
X30000000Y-82100000D03*
X31697056Y-82802944D03*
X32400000Y-84500000D03*
X31697056Y-86197056D03*
D33*
X126250000Y-84500000D03*
D32*
X126250000Y-86900000D03*
X124552944Y-86197056D03*
X123850000Y-84500000D03*
X124552944Y-82802944D03*
X126250000Y-82100000D03*
X127947056Y-82802944D03*
X128650000Y-84500000D03*
X127947056Y-86197056D03*
D33*
X222500000Y-84500000D03*
D32*
X222500000Y-86900000D03*
X220802944Y-86197056D03*
X220100000Y-84500000D03*
X220802944Y-82802944D03*
X222500000Y-82100000D03*
X224197056Y-82802944D03*
X224900000Y-84500000D03*
X224197056Y-86197056D03*
D17*
X166250000Y-61875000D03*
X166250000Y-60125000D03*
D37*
X163875000Y-57750000D03*
X162125000Y-57750000D03*
D17*
X166750000Y-52125000D03*
X166750000Y-50375000D03*
X169000000Y-52125000D03*
X169000000Y-50375000D03*
X164500000Y-52125000D03*
X164500000Y-50375000D03*
D33*
X30000000Y-72500000D03*
D32*
X32400000Y-72500000D03*
X31697056Y-74197056D03*
X30000000Y-74900000D03*
X28302944Y-74197056D03*
X27600000Y-72500000D03*
X28302944Y-70802944D03*
X30000000Y-70100000D03*
X31697056Y-70802944D03*
D33*
X30000000Y-37500000D03*
D32*
X32400000Y-37500000D03*
X31697056Y-39197056D03*
X30000000Y-39900000D03*
X28302944Y-39197056D03*
X27600000Y-37500000D03*
X28302944Y-35802944D03*
X30000000Y-35100000D03*
X31697056Y-35802944D03*
D33*
X126250000Y-72500000D03*
D32*
X128650000Y-72500000D03*
X127947056Y-74197056D03*
X126250000Y-74900000D03*
X124552944Y-74197056D03*
X123850000Y-72500000D03*
X124552944Y-70802944D03*
X126250000Y-70100000D03*
X127947056Y-70802944D03*
D33*
X126250000Y-37500000D03*
D32*
X128650000Y-37500000D03*
X127947056Y-39197056D03*
X126250000Y-39900000D03*
X124552944Y-39197056D03*
X123850000Y-37500000D03*
X124552944Y-35802944D03*
X126250000Y-35100000D03*
X127947056Y-35802944D03*
D33*
X222500000Y-72500000D03*
D32*
X224900000Y-72500000D03*
X224197056Y-74197056D03*
X222500000Y-74900000D03*
X220802944Y-74197056D03*
X220100000Y-72500000D03*
X220802944Y-70802944D03*
X222500000Y-70100000D03*
X224197056Y-70802944D03*
D33*
X222500000Y-37500000D03*
D32*
X224900000Y-37500000D03*
X224197056Y-39197056D03*
X222500000Y-39900000D03*
X220802944Y-39197056D03*
X220100000Y-37500000D03*
X220802944Y-35802944D03*
X222500000Y-35100000D03*
X224197056Y-35802944D03*
D17*
X211500000Y-55375000D03*
X211500000Y-57125000D03*
D37*
X209125000Y-54000000D03*
X207375000Y-54000000D03*
D28*
X185250000Y-53000000D03*
X187250000Y-52050000D03*
X187250000Y-53950000D03*
D37*
X176625000Y-59500000D03*
X174875000Y-59500000D03*
X176625000Y-57250000D03*
X174875000Y-57250000D03*
X133375000Y-46000000D03*
X131625000Y-46000000D03*
D17*
X198500000Y-60125000D03*
X198500000Y-61875000D03*
D37*
X157875000Y-47250000D03*
X159625000Y-47250000D03*
D17*
X173750000Y-65625000D03*
X173750000Y-63875000D03*
X171250000Y-65625000D03*
X171250000Y-63875000D03*
X168750000Y-65625000D03*
X168750000Y-63875000D03*
X59940000Y-48375000D03*
X59940000Y-50125000D03*
D37*
X176625000Y-52750000D03*
X174875000Y-52750000D03*
D17*
X168750000Y-60125000D03*
X168750000Y-61875000D03*
D37*
X176625000Y-61750000D03*
X174875000Y-61750000D03*
X133375000Y-52750000D03*
X131625000Y-52750000D03*
X176625000Y-55000000D03*
X174875000Y-55000000D03*
X182625000Y-56250000D03*
X184375000Y-56250000D03*
D17*
X182500000Y-58375000D03*
X182500000Y-60125000D03*
D37*
X157875000Y-67250000D03*
X156125000Y-67250000D03*
X181625000Y-47500000D03*
X183375000Y-47500000D03*
X181625000Y-49750000D03*
X183375000Y-49750000D03*
X189125000Y-53120000D03*
X190875000Y-53120000D03*
D17*
X158000000Y-65125000D03*
X158000000Y-63375000D03*
X202250000Y-66375000D03*
X202250000Y-64625000D03*
D37*
X209125000Y-58500000D03*
X207375000Y-58500000D03*
X181625000Y-51870000D03*
X183375000Y-51870000D03*
X189125000Y-55250000D03*
X190875000Y-55250000D03*
D17*
X204500000Y-60625000D03*
X204500000Y-62375000D03*
D37*
X189125000Y-51000000D03*
X190875000Y-51000000D03*
D17*
X206750000Y-62875000D03*
X206750000Y-61125000D03*
D37*
X154875000Y-49500000D03*
X153125000Y-49500000D03*
X158625000Y-51500000D03*
X156875000Y-51500000D03*
D17*
X176750000Y-63875000D03*
X176750000Y-65625000D03*
D37*
X181625000Y-54000000D03*
X183375000Y-54000000D03*
X207375000Y-56250000D03*
X209125000Y-56250000D03*
X156875000Y-49500000D03*
X158625000Y-49500000D03*
D17*
X204500000Y-64875000D03*
X204500000Y-66625000D03*
X206750000Y-64875000D03*
X206750000Y-66625000D03*
X204250000Y-56725000D03*
X204250000Y-58475000D03*
D37*
X203625000Y-74500000D03*
X201875000Y-74500000D03*
D17*
X213750000Y-57125000D03*
X213750000Y-55375000D03*
D41*
X215570000Y-71000000D03*
X210930000Y-71000000D03*
D42*
X111850000Y-54000000D03*
X111850000Y-49000000D03*
X99150000Y-49000000D03*
X99150000Y-54000000D03*
X111850000Y-45000000D03*
X111850000Y-40000000D03*
X99150000Y-40000000D03*
X99150000Y-45000000D03*
X111850000Y-63000000D03*
X111850000Y-58000000D03*
X99150000Y-58000000D03*
X99150000Y-63000000D03*
X111850000Y-72000000D03*
X111850000Y-67000000D03*
X99150000Y-67000000D03*
X99150000Y-72000000D03*
X150000000Y-37150000D03*
X145000000Y-37150000D03*
X145000000Y-49850000D03*
X150000000Y-49850000D03*
X215000000Y-37150000D03*
X210000000Y-37150000D03*
X210000000Y-49850000D03*
X215000000Y-49850000D03*
D43*
X184500000Y-60240000D03*
X184500000Y-58250000D03*
X156000000Y-63255000D03*
X156000000Y-65245000D03*
X193000000Y-53115000D03*
X193000000Y-51125000D03*
D37*
X46625000Y-64000000D03*
X48375000Y-64000000D03*
X64125000Y-64000000D03*
X65875000Y-64000000D03*
X81625000Y-64000000D03*
X83375000Y-64000000D03*
X153125000Y-45000000D03*
X154875000Y-45000000D03*
D44*
X152930000Y-51500000D03*
X155070000Y-51500000D03*
D45*
X222750000Y-58500000D03*
D46*
X220250000Y-58500000D03*
D47*
X51500000Y-61000000D03*
X55500000Y-61000000D03*
D48*
X172000000Y-52380000D03*
X172950000Y-54380000D03*
X171050000Y-54380000D03*
X172000000Y-56130000D03*
X172950000Y-58130000D03*
X171050000Y-58130000D03*
D45*
X140500000Y-64500000D03*
D46*
X137000000Y-64500000D03*
D45*
X140500000Y-55750000D03*
D46*
X137000000Y-55750000D03*
D48*
X163950000Y-62150000D03*
X163000000Y-62150000D03*
X162050000Y-62150000D03*
X162050000Y-59850000D03*
X163000000Y-59850000D03*
X163950000Y-59850000D03*
X172000000Y-59750000D03*
X172950000Y-61750000D03*
X171050000Y-61750000D03*
X137500000Y-49250000D03*
X136550000Y-47250000D03*
X138450000Y-47250000D03*
X186250000Y-48000000D03*
X187200000Y-50000000D03*
X185300000Y-50000000D03*
D36*
X176560000Y-45750000D03*
X168940000Y-45750000D03*
X174020000Y-45750000D03*
X171480000Y-45750000D03*
X166170000Y-68750000D03*
X168710000Y-68750000D03*
X171250000Y-68750000D03*
X176330000Y-68750000D03*
X173790000Y-68750000D03*
D49*
X201500000Y-44620000D03*
D50*
X201500000Y-38620000D03*
D51*
X197000000Y-37620000D03*
X206000000Y-37620000D03*
D45*
X201500000Y-35620000D03*
D52*
X162050000Y-56030000D03*
X162050000Y-54730000D03*
X163950000Y-54730000D03*
X163950000Y-55380000D03*
X163950000Y-56030000D03*
D53*
X141250000Y-48500000D03*
X141250000Y-44500000D03*
X201500000Y-56000000D03*
X201500000Y-60000000D03*
D17*
X216000000Y-55375000D03*
X216000000Y-57125000D03*
X199500000Y-70875000D03*
X199500000Y-72625000D03*
D54*
X57150000Y-56070000D03*
X44730000Y-56070000D03*
D55*
X53230000Y-57710000D03*
X50940000Y-57710000D03*
X48650000Y-57710000D03*
D56*
X44920000Y-51500000D03*
X44920000Y-49210000D03*
D57*
X46370000Y-45480000D03*
X48650000Y-45480000D03*
X50940000Y-45480000D03*
X53230000Y-45480000D03*
D56*
X56960000Y-46930000D03*
X56960000Y-49210000D03*
X56960000Y-51500000D03*
D58*
X48650000Y-46930000D03*
X46370000Y-49210000D03*
X55510000Y-49210000D03*
X55510000Y-46930000D03*
X53230000Y-46930000D03*
X50940000Y-46930000D03*
X46370000Y-46930000D03*
X46370000Y-51500000D03*
D59*
X46370000Y-54930000D03*
D60*
X49800000Y-56070000D03*
X54370000Y-56070000D03*
D58*
X55510000Y-51500000D03*
D61*
X104000000Y-86500000D03*
X68995000Y-86500000D03*
X51495000Y-86500000D03*
X86495000Y-86500000D03*
D62*
X51500000Y-64125000D03*
X51500000Y-66875000D03*
X69000000Y-64125000D03*
X69000000Y-66875000D03*
X86500000Y-64125000D03*
X86500000Y-66875000D03*
D54*
X82710000Y-56070000D03*
X70290000Y-56070000D03*
D55*
X78790000Y-57710000D03*
X76500000Y-57710000D03*
X74210000Y-57710000D03*
D56*
X70480000Y-51500000D03*
X70480000Y-49210000D03*
D57*
X71930000Y-45480000D03*
X74210000Y-45480000D03*
X76500000Y-45480000D03*
X78790000Y-45480000D03*
D56*
X82520000Y-46930000D03*
X82520000Y-49210000D03*
X82520000Y-51500000D03*
D58*
X74210000Y-46930000D03*
X71930000Y-49210000D03*
X81070000Y-49210000D03*
X81070000Y-46930000D03*
X78790000Y-46930000D03*
X76500000Y-46930000D03*
X71930000Y-46930000D03*
X71930000Y-51500000D03*
D59*
X71930000Y-54930000D03*
D60*
X75360000Y-56070000D03*
X79930000Y-56070000D03*
D58*
X81070000Y-51500000D03*
M02*
