M48
; DRILL file {KiCad (5.1.6)-1} date 08/26/20 15:11:49
; FORMAT={-:-/ absolute / metric / decimal}
; #@! TF.CreationDate,2020-08-26T15:11:49+02:00
; #@! TF.GenerationSoftware,Kicad,Pcbnew,(5.1.6)-1
FMAT,2
METRIC
T1C0.300
T2C0.500
T3C0.650
T4C0.700
T5C0.800
T6C0.850
T7C1.000
T8C1.300
T9C1.500
T10C3.200
T11C7.140
T12C1.600
%
G90
G05
T1
X45.245Y-218.205
X47.785Y-218.205
X50.325Y-218.205
X52.865Y-218.205
X52.865Y-275.355
X53.5Y-274.72
X54.135Y-274.085
X54.77Y-273.45
X55.4Y-272.82
X55.405Y-218.205
X56.04Y-272.18
X56.675Y-271.545
X57.31Y-270.91
X57.94Y-270.28
X57.945Y-218.205
X58.58Y-269.64
X59.215Y-269.005
X59.85Y-268.37
X59.94Y-47.38
X60.48Y-267.74
X60.485Y-218.205
X61.12Y-267.1
X61.755Y-266.465
X62.39Y-265.83
X63.02Y-265.2
X63.025Y-218.205
X63.66Y-264.56
X64.295Y-263.925
X64.93Y-263.29
X65.56Y-262.66
X65.565Y-218.205
X66.2Y-262.02
X66.835Y-261.385
X67.47Y-260.75
X68.1Y-260.12
X68.105Y-218.205
X68.74Y-259.48
X69.375Y-258.845
X70.01Y-258.21
X70.64Y-257.58
X70.645Y-218.205
X71.28Y-256.94
X71.915Y-256.305
X72.406Y-207.472
X72.55Y-255.67
X73.18Y-255.04
X73.185Y-218.205
X73.82Y-254.4
X74.455Y-253.765
X75.09Y-253.13
X75.72Y-252.5
X76.36Y-251.86
X76.995Y-251.225
X77.63Y-250.59
X78.26Y-249.96
X78.9Y-249.32
X79.535Y-248.685
X80.17Y-248.05
X80.81Y-247.41
X81.44Y-246.78
X82.075Y-246.145
X82.71Y-245.51
X83.345Y-244.875
X83.98Y-244.24
X84.615Y-243.605
X85.25Y-242.97
X85.885Y-242.335
X86.52Y-241.7
X87.155Y-241.065
X87.79Y-240.43
X88.42Y-239.8
X88.425Y-218.205
X89.06Y-239.16
X89.695Y-238.525
X90.33Y-237.89
X90.96Y-237.26
X90.965Y-218.205
X91.6Y-236.62
X92.235Y-235.985
X92.87Y-235.35
X93.5Y-234.72
X93.505Y-218.205
X94.14Y-234.08
X94.775Y-233.445
X95.41Y-232.81
X96.04Y-232.18
X96.045Y-218.205
X96.68Y-231.54
X97.315Y-230.905
X97.95Y-230.27
X98.58Y-229.64
X98.585Y-218.205
X99.22Y-229.0
X99.855Y-228.365
X100.49Y-227.73
X101.125Y-227.095
X101.76Y-226.46
X102.39Y-225.83
X103.03Y-225.19
X103.665Y-218.205
X103.665Y-224.555
X104.3Y-223.92
X104.93Y-223.29
X105.57Y-222.65
X106.205Y-218.205
X106.205Y-222.015
X106.84Y-221.38
X107.47Y-220.75
X108.11Y-220.11
X108.745Y-218.205
X108.745Y-219.475
X109.38Y-218.84
X117.47Y-54.76
X124.72Y-54.85
X134.36Y-50.5
X136.455Y-50.655
X136.55Y-46.44
X138.46Y-48.14
X145.415Y-218.205
X147.955Y-218.205
X150.495Y-218.205
X153.035Y-218.205
X153.035Y-275.355
X153.67Y-274.72
X154.305Y-274.085
X154.94Y-273.45
X155.57Y-272.82
X155.575Y-218.205
X156.21Y-272.18
X156.845Y-271.545
X157.48Y-270.91
X158.07Y-39.85
X158.11Y-270.28
X158.115Y-218.205
X158.66Y-40.53
X158.75Y-44.68
X158.75Y-269.64
X159.25Y-39.85
X159.385Y-269.005
X159.68Y-51.5
X160.02Y-268.37
X160.1Y-40.53
X160.65Y-267.74
X160.655Y-218.205
X160.78Y-39.85
X161.24Y-62.15
X161.29Y-267.1
X161.925Y-266.465
X162.05Y-60.71
X162.448Y-47.4
X162.56Y-265.83
X162.94Y-55.37
X163.0Y-45.91
X163.0Y-60.71
X163.19Y-265.2
X163.195Y-218.205
X163.83Y-264.56
X163.96Y-60.71
X164.465Y-263.925
X164.5Y-49.31
X164.5Y-53.18
X165.1Y-263.29
X165.73Y-262.66
X165.735Y-218.205
X166.26Y-62.93
X166.37Y-262.02
X166.75Y-49.32
X167.005Y-261.385
X167.25Y-53.45
X167.64Y-260.75
X168.0Y-59.07
X168.27Y-260.12
X168.275Y-218.205
X168.91Y-259.48
X169.0Y-49.32
X169.07Y-59.07
X169.38Y-54.48
X169.545Y-258.845
X170.005Y-63.875
X170.18Y-258.21
X170.21Y-55.13
X170.21Y-57.63
X170.81Y-257.58
X170.815Y-218.205
X171.05Y-53.52
X171.05Y-58.99
X171.45Y-256.94
X172.0Y-55.27
X172.085Y-256.305
X172.36Y-50.0
X172.576Y-207.472
X172.72Y-255.67
X172.95Y-53.52
X172.95Y-62.61
X173.35Y-255.04
X173.355Y-218.205
X173.99Y-254.4
X174.0Y-44.23
X174.625Y-253.765
X175.26Y-253.13
X175.89Y-252.5
X176.53Y-251.86
X177.165Y-251.225
X177.8Y-250.59
X178.43Y-249.96
X179.07Y-249.32
X179.705Y-248.685
X180.34Y-248.05
X180.64Y-47.5
X180.64Y-51.87
X180.64Y-53.99
X180.98Y-247.41
X181.61Y-246.78
X182.245Y-246.145
X182.88Y-245.51
X183.515Y-244.875
X184.15Y-244.24
X184.785Y-243.605
X185.42Y-242.97
X186.055Y-242.335
X186.11Y-53.0
X186.69Y-241.7
X187.2Y-49.22
X187.325Y-241.065
X187.96Y-240.43
X188.59Y-239.8
X188.595Y-218.205
X188.996Y-57.584
X188.996Y-65.084
X189.13Y-49.87
X189.23Y-239.16
X189.865Y-238.525
X190.5Y-237.89
X191.13Y-237.26
X191.135Y-218.205
X191.77Y-236.62
X192.405Y-235.985
X193.04Y-235.35
X193.67Y-234.72
X193.675Y-218.205
X194.31Y-234.08
X194.945Y-233.445
X195.58Y-232.81
X196.21Y-232.18
X196.215Y-218.205
X196.85Y-231.54
X197.485Y-230.905
X198.12Y-230.27
X198.75Y-229.64
X198.755Y-218.205
X199.39Y-229.0
X200.025Y-228.365
X200.66Y-227.73
X201.295Y-227.095
X201.93Y-226.46
X202.56Y-225.83
X202.865Y-71.135
X203.2Y-225.19
X203.835Y-218.205
X203.835Y-224.555
X204.0Y-69.5
X204.0Y-70.5
X204.0Y-71.5
X204.47Y-223.92
X205.0Y-69.5
X205.0Y-70.5
X205.0Y-71.5
X205.1Y-223.29
X205.74Y-222.65
X206.375Y-218.205
X206.375Y-222.015
X207.01Y-221.38
X207.64Y-220.75
X208.28Y-220.11
X208.915Y-218.205
X208.915Y-219.475
X209.55Y-218.84
X144.976Y-54.828
X144.976Y-56.25
X144.976Y-57.672
X146.585Y-54.828
X146.585Y-56.25
X146.585Y-57.672
X148.194Y-54.828
X148.194Y-56.25
X148.194Y-57.672
X192.306Y-58.447
X192.306Y-59.87
X192.306Y-61.292
X193.915Y-58.447
X193.915Y-59.87
X193.915Y-61.292
X195.524Y-58.447
X195.524Y-59.87
X195.524Y-61.292
X125.578Y-48.161
X125.578Y-49.77
X125.578Y-51.379
X127.0Y-48.161
X127.0Y-49.77
X127.0Y-51.379
X128.422Y-48.161
X128.422Y-49.77
X128.422Y-51.379
X200.806Y-49.447
X200.806Y-50.87
X200.806Y-52.292
X202.415Y-49.447
X202.415Y-50.87
X202.415Y-52.292
X204.024Y-49.447
X204.024Y-50.87
X204.024Y-52.292
X144.976Y-62.078
X144.976Y-63.5
X144.976Y-64.922
X146.585Y-62.078
X146.585Y-63.5
X146.585Y-64.922
X148.194Y-62.078
X148.194Y-63.5
X148.194Y-64.922
X118.328Y-48.161
X118.328Y-49.77
X118.328Y-51.379
X119.75Y-48.161
X119.75Y-49.77
X119.75Y-51.379
X121.172Y-48.161
X121.172Y-49.77
X121.172Y-51.379
X192.306Y-65.947
X192.306Y-67.37
X192.306Y-68.793
X193.915Y-65.947
X193.915Y-67.37
X193.915Y-68.793
X195.524Y-65.947
X195.524Y-67.37
X195.524Y-68.793
T2
X37.5Y-37.5
X37.5Y-40.0
X37.5Y-42.5
X37.5Y-45.0
X37.5Y-47.5
X37.5Y-50.0
X37.5Y-52.5
X37.5Y-55.0
X37.5Y-57.5
X37.5Y-60.0
X42.5Y-37.5
X42.5Y-40.0
X42.5Y-42.5
X42.5Y-60.0
X42.69Y-52.0
X42.69Y-56.0
X43.44Y-51.25
X43.44Y-52.75
X43.44Y-55.25
X43.44Y-56.75
X43.94Y-54.0
X43.94Y-57.75
X44.69Y-53.25
X44.69Y-54.75
X44.69Y-58.5
X45.44Y-57.75
X45.54Y-64.0
X46.19Y-58.5
X46.94Y-57.75
X47.5Y-37.5
X47.5Y-40.0
X47.5Y-42.5
X47.5Y-60.0
X48.44Y-54.5
X49.0Y-76.0
X49.0Y-80.5
X49.19Y-53.75
X49.5Y-60.25
X49.5Y-61.75
X49.75Y-63.25
X49.75Y-64.5
X49.75Y-66.5
X49.75Y-67.75
X49.94Y-54.5
X50.19Y-49.0
X50.69Y-53.75
X50.75Y-59.5
X50.75Y-62.5
X50.75Y-68.5
X50.94Y-48.25
X51.44Y-54.5
X51.5Y-76.0
X51.5Y-80.5
X51.69Y-49.0
X52.25Y-59.5
X52.25Y-62.5
X52.25Y-68.5
X52.5Y-37.5
X52.5Y-40.0
X52.5Y-42.5
X52.69Y-54.5
X53.25Y-66.5
X53.25Y-67.75
X53.44Y-53.75
X54.0Y-76.0
X54.0Y-80.5
X54.19Y-54.5
X54.44Y-57.75
X54.5Y-59.5
X54.5Y-62.5
X54.94Y-53.75
X55.19Y-58.5
X55.69Y-54.5
X55.94Y-57.75
X56.25Y-59.5
X56.25Y-62.5
X56.44Y-53.75
X56.69Y-58.5
X57.19Y-54.5
X57.44Y-57.75
X57.5Y-37.5
X57.5Y-40.0
X57.5Y-60.25
X57.5Y-61.75
X57.94Y-53.75
X58.44Y-55.25
X58.44Y-56.75
X58.7Y-52.13
X59.19Y-56.0
X60.0Y-60.0
X62.5Y-37.5
X62.5Y-42.5
X62.5Y-45.0
X62.5Y-47.5
X62.5Y-50.0
X62.5Y-52.5
X62.5Y-55.0
X62.5Y-57.5
X63.04Y-64.0
X66.5Y-76.0
X66.5Y-80.5
X67.25Y-63.25
X67.25Y-64.5
X67.25Y-66.5
X67.25Y-67.75
X67.5Y-37.5
X67.5Y-42.5
X67.5Y-57.5
X67.5Y-60.0
X68.25Y-52.0
X68.25Y-56.0
X68.25Y-62.5
X68.25Y-68.5
X69.0Y-51.25
X69.0Y-52.75
X69.0Y-55.25
X69.0Y-56.75
X69.0Y-76.0
X69.0Y-80.5
X69.5Y-54.0
X69.5Y-57.75
X69.75Y-62.5
X69.75Y-68.5
X70.25Y-53.25
X70.25Y-54.75
X70.25Y-58.5
X70.75Y-63.25
X70.75Y-64.5
X70.75Y-66.5
X70.75Y-67.75
X71.0Y-57.75
X71.5Y-76.0
X71.5Y-80.5
X71.75Y-58.5
X72.5Y-37.5
X72.5Y-42.5
X72.5Y-57.75
X72.5Y-60.0
X72.5Y-62.5
X74.0Y-54.5
X74.5Y-100.0
X74.5Y-101.5
X74.75Y-53.75
X75.5Y-54.5
X75.5Y-100.75
X75.75Y-49.0
X76.25Y-53.75
X76.5Y-48.25
X76.5Y-100.0
X76.5Y-101.5
X77.0Y-54.5
X77.25Y-49.0
X77.5Y-37.5
X77.5Y-42.5
X78.25Y-54.5
X78.25Y-100.0
X78.25Y-101.5
X79.0Y-53.75
X79.25Y-100.75
X79.75Y-54.5
X80.0Y-57.75
X80.25Y-100.0
X80.25Y-101.5
X80.5Y-53.75
X80.54Y-64.0
X80.75Y-58.5
X81.25Y-54.5
X81.5Y-57.75
X82.0Y-53.75
X82.25Y-58.5
X82.5Y-37.5
X82.5Y-42.5
X82.75Y-54.5
X83.0Y-57.75
X83.5Y-53.75
X84.0Y-55.25
X84.0Y-56.75
X84.0Y-76.0
X84.0Y-80.5
X84.26Y-52.13
X84.75Y-56.0
X84.75Y-63.25
X84.75Y-64.5
X84.75Y-66.5
X84.75Y-67.75
X84.75Y-100.0
X84.75Y-101.5
X85.75Y-62.5
X85.75Y-68.5
X85.75Y-100.75
X86.5Y-76.0
X86.5Y-80.5
X86.75Y-100.0
X86.75Y-101.5
X87.25Y-62.5
X87.25Y-68.5
X87.5Y-37.5
X87.5Y-42.5
X87.5Y-45.0
X87.5Y-47.5
X87.5Y-50.0
X87.5Y-57.5
X88.25Y-63.25
X88.25Y-64.5
X88.25Y-66.5
X88.25Y-67.75
X89.0Y-76.0
X89.0Y-80.5
X92.5Y-37.5
X92.5Y-40.0
X92.5Y-42.5
X92.5Y-47.5
X92.5Y-50.0
X92.5Y-52.5
X92.5Y-55.0
X92.5Y-57.5
X92.5Y-62.5
X92.5Y-65.0
X92.5Y-67.5
X92.5Y-70.0
X115.0Y-40.0
X115.0Y-42.5
X115.0Y-45.0
X115.0Y-60.0
X115.0Y-62.5
X115.0Y-65.0
X115.0Y-67.5
X115.0Y-70.0
X115.0Y-72.5
X120.0Y-40.0
X120.0Y-42.5
X120.0Y-45.0
X120.0Y-55.75
X120.0Y-57.25
X120.0Y-60.0
X120.0Y-62.5
X120.0Y-65.0
X120.0Y-67.5
X120.0Y-70.0
X120.0Y-72.5
X120.75Y-55.0
X120.75Y-56.5
X120.75Y-58.0
X125.0Y-42.5
X125.0Y-45.0
X125.0Y-60.0
X125.0Y-62.5
X125.0Y-65.0
X125.0Y-67.5
X127.25Y-55.75
X127.25Y-57.25
X128.0Y-55.0
X128.0Y-56.5
X128.0Y-58.0
X130.0Y-60.0
X130.0Y-62.5
X130.0Y-65.0
X130.0Y-67.5
X130.0Y-70.0
X131.63Y-44.76
X135.0Y-57.5
X135.0Y-60.0
X135.0Y-62.5
X135.0Y-65.0
X135.0Y-67.5
X135.0Y-70.0
X135.0Y-72.5
X139.0Y-44.0
X139.0Y-45.5
X139.75Y-43.25
X139.75Y-44.75
X140.0Y-67.5
X140.0Y-70.0
X140.0Y-72.5
X140.0Y-75.0
X142.75Y-47.5
X142.75Y-49.0
X143.5Y-48.25
X145.0Y-40.0
X145.0Y-42.5
X145.0Y-45.0
X145.0Y-47.5
X145.0Y-67.5
X145.0Y-70.0
X145.0Y-72.5
X145.0Y-75.0
X150.0Y-40.0
X150.0Y-42.5
X150.0Y-45.0
X150.0Y-47.5
X150.0Y-67.5
X150.0Y-70.0
X150.0Y-72.5
X150.0Y-75.0
X151.0Y-45.5
X151.0Y-47.0
X151.49Y-58.54
X151.5Y-65.78
X151.75Y-44.75
X151.75Y-46.25
X151.75Y-47.75
X151.75Y-55.25
X151.75Y-62.5
X152.5Y-56.0
X152.5Y-63.25
X153.25Y-55.25
X153.25Y-62.5
X153.75Y-41.25
X154.0Y-56.0
X154.0Y-63.25
X154.75Y-40.5
X154.75Y-55.25
X154.75Y-62.5
X155.0Y-72.5
X155.0Y-75.0
X155.75Y-40.0
X155.75Y-41.25
X156.25Y-54.0
X156.25Y-56.5
X156.25Y-58.75
X156.25Y-61.25
X157.0Y-40.0
X157.0Y-41.1
X157.0Y-42.2
X158.25Y-54.0
X158.25Y-56.5
X158.25Y-58.75
X158.25Y-61.25
X159.62Y-46.01
X159.78Y-49.5
X160.0Y-72.5
X160.0Y-75.0
X160.96Y-57.74
X162.0Y-40.0
X162.0Y-41.1
X162.0Y-42.2
X163.25Y-40.0
X163.25Y-41.25
X164.25Y-40.5
X165.0Y-72.5
X165.0Y-75.0
X165.25Y-41.25
X170.0Y-72.5
X170.0Y-75.0
X170.06Y-60.12
X173.98Y-53.88
X174.75Y-100.0
X174.75Y-101.5
X175.0Y-72.5
X175.0Y-75.0
X175.75Y-100.75
X176.75Y-100.0
X176.75Y-101.5
X178.06Y-63.87
X178.5Y-100.0
X178.5Y-101.5
X179.5Y-100.75
X180.0Y-72.5
X180.0Y-75.0
X180.5Y-100.0
X180.5Y-101.5
X182.0Y-62.0
X182.0Y-64.5
X182.0Y-67.0
X182.0Y-69.5
X184.5Y-62.0
X184.5Y-64.5
X184.5Y-67.0
X184.5Y-69.5
X184.95Y-100.0
X184.95Y-101.5
X185.0Y-72.5
X185.0Y-75.0
X185.5Y-60.75
X185.5Y-68.25
X185.95Y-100.75
X186.25Y-60.0
X186.25Y-67.5
X186.95Y-100.0
X186.95Y-101.5
X187.0Y-60.75
X187.0Y-68.25
X187.75Y-60.0
X187.75Y-67.5
X188.5Y-60.75
X188.5Y-68.25
X190.0Y-72.5
X190.0Y-75.0
X192.5Y-54.5
X193.25Y-55.25
X194.0Y-54.5
X194.75Y-55.25
X195.0Y-72.5
X195.0Y-75.0
X195.5Y-54.5
X196.25Y-55.25
X197.0Y-54.5
X199.25Y-63.0
X199.5Y-69.5
X200.0Y-62.25
X200.75Y-63.0
X201.5Y-62.25
X202.25Y-63.0
X205.0Y-45.0
X205.0Y-74.5
X207.38Y-52.69
X210.0Y-40.0
X210.0Y-42.5
X210.0Y-45.0
X213.25Y-53.0
X213.25Y-54.2
X214.25Y-53.6
X215.0Y-40.0
X215.0Y-42.5
X215.0Y-45.0
X216.75Y-70.25
X216.75Y-71.75
X217.31Y-55.37
X217.5Y-71.0
X123.85Y-198.75
X124.553Y-197.053
X124.553Y-200.447
X126.25Y-196.35
X126.25Y-201.15
X127.947Y-197.053
X127.947Y-200.447
X128.65Y-198.75
X27.6Y-37.5
X28.303Y-35.803
X28.303Y-39.197
X30.0Y-35.1
X30.0Y-39.9
X31.697Y-35.803
X31.697Y-39.197
X32.4Y-37.5
X27.6Y-198.75
X28.303Y-197.053
X28.303Y-200.447
X30.0Y-196.35
X30.0Y-201.15
X31.697Y-197.053
X31.697Y-200.447
X32.4Y-198.75
X33.765Y-188.74
X34.468Y-187.043
X34.468Y-190.437
X36.165Y-186.34
X36.165Y-191.14
X37.575Y-103.015
X37.862Y-187.043
X37.862Y-190.437
X38.278Y-101.318
X38.278Y-104.712
X38.565Y-188.74
X39.975Y-100.615
X39.975Y-105.415
X41.672Y-101.318
X41.672Y-104.712
X42.375Y-103.015
X111.235Y-103.015
X111.938Y-101.318
X111.938Y-104.712
X113.635Y-100.615
X113.635Y-105.415
X113.775Y-188.74
X114.478Y-187.043
X114.478Y-190.437
X115.332Y-101.318
X115.332Y-104.712
X116.035Y-103.015
X116.175Y-186.34
X116.175Y-191.14
X117.872Y-187.043
X117.872Y-190.437
X118.575Y-188.74
X220.1Y-335.0
X220.803Y-333.303
X220.803Y-336.697
X222.5Y-332.6
X222.5Y-337.4
X224.197Y-333.303
X224.197Y-336.697
X224.9Y-335.0
X220.1Y-198.75
X220.803Y-197.053
X220.803Y-200.447
X222.5Y-196.35
X222.5Y-201.15
X224.197Y-197.053
X224.197Y-200.447
X224.9Y-198.75
X123.85Y-72.5
X124.553Y-70.803
X124.553Y-74.197
X126.25Y-70.1
X126.25Y-74.9
X127.947Y-70.803
X127.947Y-74.197
X128.65Y-72.5
X33.765Y-294.62
X34.468Y-292.923
X34.468Y-296.317
X36.165Y-292.22
X36.165Y-297.02
X37.575Y-208.895
X37.862Y-292.923
X37.862Y-296.317
X38.278Y-207.198
X38.278Y-210.592
X38.565Y-294.62
X39.975Y-206.495
X39.975Y-211.295
X41.672Y-207.198
X41.672Y-210.592
X42.375Y-208.895
X111.235Y-208.895
X111.938Y-207.198
X111.938Y-210.592
X113.635Y-206.495
X113.635Y-211.295
X113.775Y-294.62
X114.478Y-292.923
X114.478Y-296.317
X115.332Y-207.198
X115.332Y-210.592
X116.035Y-208.895
X116.175Y-292.22
X116.175Y-297.02
X117.872Y-292.923
X117.872Y-296.317
X118.575Y-294.62
X220.1Y-37.5
X220.803Y-35.803
X220.803Y-39.197
X222.5Y-35.1
X222.5Y-39.9
X224.197Y-35.803
X224.197Y-39.197
X224.9Y-37.5
X27.6Y-72.5
X28.303Y-70.803
X28.303Y-74.197
X30.0Y-70.1
X30.0Y-74.9
X31.697Y-70.803
X31.697Y-74.197
X32.4Y-72.5
X220.1Y-84.5
X220.803Y-82.803
X220.803Y-86.197
X222.5Y-82.1
X222.5Y-86.9
X224.197Y-82.803
X224.197Y-86.197
X224.9Y-84.5
X133.935Y-188.74
X134.638Y-187.043
X134.638Y-190.437
X136.335Y-186.34
X136.335Y-191.14
X137.745Y-103.015
X138.032Y-187.043
X138.032Y-190.437
X138.448Y-101.318
X138.448Y-104.712
X138.735Y-188.74
X140.145Y-100.615
X140.145Y-105.415
X141.842Y-101.318
X141.842Y-104.712
X142.545Y-103.015
X211.405Y-103.015
X212.108Y-101.318
X212.108Y-104.712
X213.805Y-100.615
X213.805Y-105.415
X213.945Y-188.74
X214.648Y-187.043
X214.648Y-190.437
X215.502Y-101.318
X215.502Y-104.712
X216.205Y-103.015
X216.345Y-186.34
X216.345Y-191.14
X218.042Y-187.043
X218.042Y-190.437
X218.745Y-188.74
X133.935Y-294.62
X134.638Y-292.923
X134.638Y-296.317
X136.335Y-292.22
X136.335Y-297.02
X137.745Y-208.895
X138.032Y-292.923
X138.032Y-296.317
X138.448Y-207.198
X138.448Y-210.592
X138.735Y-294.62
X140.145Y-206.495
X140.145Y-211.295
X141.842Y-207.198
X141.842Y-210.592
X142.545Y-208.895
X211.405Y-208.895
X212.108Y-207.198
X212.108Y-210.592
X213.805Y-206.495
X213.805Y-211.295
X213.945Y-294.62
X214.648Y-292.923
X214.648Y-296.317
X215.502Y-207.198
X215.502Y-210.592
X216.205Y-208.895
X216.345Y-292.22
X216.345Y-297.02
X218.042Y-292.923
X218.042Y-296.317
X218.745Y-294.62
X220.1Y-72.5
X220.803Y-70.803
X220.803Y-74.197
X222.5Y-70.1
X222.5Y-74.9
X224.197Y-70.803
X224.197Y-74.197
X224.9Y-72.5
X123.85Y-84.5
X124.553Y-82.803
X124.553Y-86.197
X126.25Y-82.1
X126.25Y-86.9
X127.947Y-82.803
X127.947Y-86.197
X128.65Y-84.5
X27.6Y-335.0
X28.303Y-333.303
X28.303Y-336.697
X30.0Y-332.6
X30.0Y-337.4
X31.697Y-333.303
X31.697Y-336.697
X32.4Y-335.0
X27.6Y-84.5
X28.303Y-82.803
X28.303Y-86.197
X30.0Y-82.1
X30.0Y-86.9
X31.697Y-82.803
X31.697Y-86.197
X32.4Y-84.5
X125.1Y-335.0
X125.803Y-333.303
X125.803Y-336.697
X127.5Y-332.6
X127.5Y-337.4
X129.197Y-333.303
X129.197Y-336.697
X129.9Y-335.0
X123.85Y-37.5
X124.553Y-35.803
X124.553Y-39.197
X126.25Y-35.1
X126.25Y-39.9
X127.947Y-35.803
X127.947Y-39.197
X128.65Y-37.5
T4
X66.04Y-46.51
X66.04Y-49.05
X66.04Y-51.59
X40.48Y-46.51
X40.48Y-49.05
X40.48Y-51.59
T5
X156.19Y-45.0
X145.225Y-103.015
X145.225Y-105.555
X145.225Y-108.095
X145.225Y-110.635
X147.765Y-103.015
X147.765Y-105.555
X147.765Y-108.095
X147.765Y-110.635
X150.305Y-103.015
X150.305Y-105.555
X150.305Y-108.095
X150.305Y-110.635
X152.845Y-103.015
X152.845Y-105.555
X152.845Y-108.095
X152.845Y-110.635
X155.385Y-103.015
X155.385Y-105.555
X155.385Y-108.095
X155.385Y-110.635
X157.925Y-103.015
X157.925Y-105.555
X157.925Y-108.095
X157.925Y-110.635
X160.465Y-103.015
X160.465Y-105.555
X160.465Y-108.095
X160.465Y-110.635
X163.005Y-103.015
X163.005Y-105.555
X163.005Y-108.095
X163.005Y-110.635
X165.545Y-103.015
X165.545Y-105.555
X165.545Y-108.095
X165.545Y-110.635
X168.085Y-103.015
X168.085Y-105.555
X168.085Y-108.095
X168.085Y-110.635
X170.625Y-103.015
X170.625Y-105.555
X170.625Y-108.095
X170.625Y-110.635
X173.165Y-103.015
X173.165Y-105.555
X173.165Y-108.095
X173.165Y-110.635
X175.705Y-103.015
X175.705Y-105.555
X175.705Y-108.095
X175.705Y-110.635
X178.245Y-103.015
X178.245Y-105.555
X178.245Y-108.095
X178.245Y-110.635
X180.785Y-103.015
X180.785Y-105.555
X180.785Y-108.095
X180.785Y-110.635
X183.325Y-103.015
X183.325Y-105.555
X183.325Y-108.095
X183.325Y-110.635
X185.865Y-103.015
X185.865Y-105.555
X185.865Y-108.095
X185.865Y-110.635
X188.405Y-103.015
X188.405Y-105.555
X188.405Y-108.095
X188.405Y-110.635
X190.945Y-103.015
X190.945Y-105.555
X190.945Y-108.095
X190.945Y-110.635
X193.485Y-103.015
X193.485Y-105.555
X193.485Y-108.095
X193.485Y-110.635
X196.025Y-103.015
X196.025Y-105.555
X196.025Y-108.095
X196.025Y-110.635
X198.565Y-103.015
X198.565Y-105.555
X198.565Y-108.095
X198.565Y-110.635
X201.105Y-103.015
X201.105Y-105.555
X201.105Y-108.095
X201.105Y-110.635
X203.645Y-103.015
X203.645Y-105.555
X203.645Y-108.095
X203.645Y-110.635
X206.185Y-103.015
X206.185Y-105.555
X206.185Y-108.095
X206.185Y-110.635
X208.725Y-103.015
X208.725Y-105.555
X208.725Y-108.095
X208.725Y-110.635
X145.225Y-208.895
X145.225Y-211.435
X145.225Y-213.975
X145.225Y-216.515
X147.765Y-208.895
X147.765Y-211.435
X147.765Y-213.975
X147.765Y-216.515
X150.305Y-208.895
X150.305Y-211.435
X150.305Y-213.975
X150.305Y-216.515
X152.845Y-208.895
X152.845Y-211.435
X152.845Y-213.975
X152.845Y-216.515
X155.385Y-208.895
X155.385Y-211.435
X155.385Y-213.975
X155.385Y-216.515
X157.925Y-208.895
X157.925Y-211.435
X157.925Y-213.975
X157.925Y-216.515
X160.465Y-208.895
X160.465Y-211.435
X160.465Y-213.975
X160.465Y-216.515
X163.005Y-208.895
X163.005Y-211.435
X163.005Y-213.975
X163.005Y-216.515
X165.545Y-208.895
X165.545Y-211.435
X165.545Y-213.975
X165.545Y-216.515
X168.085Y-208.895
X168.085Y-211.435
X168.085Y-213.975
X168.085Y-216.515
X170.625Y-208.895
X170.625Y-211.435
X170.625Y-213.975
X170.625Y-216.515
X173.165Y-208.895
X173.165Y-211.435
X173.165Y-213.975
X173.165Y-216.515
X175.705Y-208.895
X175.705Y-211.435
X175.705Y-213.975
X175.705Y-216.515
X178.245Y-208.895
X178.245Y-211.435
X178.245Y-213.975
X178.245Y-216.515
X180.785Y-208.895
X180.785Y-211.435
X180.785Y-213.975
X180.785Y-216.515
X183.325Y-208.895
X183.325Y-211.435
X183.325Y-213.975
X183.325Y-216.515
X185.865Y-208.895
X185.865Y-211.435
X185.865Y-213.975
X185.865Y-216.515
X188.405Y-208.895
X188.405Y-211.435
X188.405Y-213.975
X188.405Y-216.515
X190.945Y-208.895
X190.945Y-211.435
X190.945Y-213.975
X190.945Y-216.515
X193.485Y-208.895
X193.485Y-211.435
X193.485Y-213.975
X193.485Y-216.515
X196.025Y-208.895
X196.025Y-211.435
X196.025Y-213.975
X196.025Y-216.515
X198.565Y-208.895
X198.565Y-211.435
X198.565Y-213.975
X198.565Y-216.515
X201.105Y-208.895
X201.105Y-211.435
X201.105Y-213.975
X201.105Y-216.515
X203.645Y-208.895
X203.645Y-211.435
X203.645Y-213.975
X203.645Y-216.515
X206.185Y-208.895
X206.185Y-211.435
X206.185Y-213.975
X206.185Y-216.515
X208.725Y-208.895
X208.725Y-211.435
X208.725Y-213.975
X208.725Y-216.515
X137.0Y-55.75
X140.5Y-55.75
X137.0Y-64.5
X140.5Y-64.5
X45.055Y-103.015
X45.055Y-105.555
X45.055Y-108.095
X45.055Y-110.635
X47.595Y-103.015
X47.595Y-105.555
X47.595Y-108.095
X47.595Y-110.635
X50.135Y-103.015
X50.135Y-105.555
X50.135Y-108.095
X50.135Y-110.635
X52.675Y-103.015
X52.675Y-105.555
X52.675Y-108.095
X52.675Y-110.635
X55.215Y-103.015
X55.215Y-105.555
X55.215Y-108.095
X55.215Y-110.635
X57.755Y-103.015
X57.755Y-105.555
X57.755Y-108.095
X57.755Y-110.635
X60.295Y-103.015
X60.295Y-105.555
X60.295Y-108.095
X60.295Y-110.635
X62.835Y-103.015
X62.835Y-105.555
X62.835Y-108.095
X62.835Y-110.635
X65.375Y-103.015
X65.375Y-105.555
X65.375Y-108.095
X65.375Y-110.635
X67.915Y-103.015
X67.915Y-105.555
X67.915Y-108.095
X67.915Y-110.635
X70.455Y-103.015
X70.455Y-105.555
X70.455Y-108.095
X70.455Y-110.635
X72.995Y-103.015
X72.995Y-105.555
X72.995Y-108.095
X72.995Y-110.635
X75.535Y-103.015
X75.535Y-105.555
X75.535Y-108.095
X75.535Y-110.635
X78.075Y-103.015
X78.075Y-105.555
X78.075Y-108.095
X78.075Y-110.635
X80.615Y-103.015
X80.615Y-105.555
X80.615Y-108.095
X80.615Y-110.635
X83.155Y-103.015
X83.155Y-105.555
X83.155Y-108.095
X83.155Y-110.635
X85.695Y-103.015
X85.695Y-105.555
X85.695Y-108.095
X85.695Y-110.635
X88.235Y-103.015
X88.235Y-105.555
X88.235Y-108.095
X88.235Y-110.635
X90.775Y-103.015
X90.775Y-105.555
X90.775Y-108.095
X90.775Y-110.635
X93.315Y-103.015
X93.315Y-105.555
X93.315Y-108.095
X93.315Y-110.635
X95.855Y-103.015
X95.855Y-105.555
X95.855Y-108.095
X95.855Y-110.635
X98.395Y-103.015
X98.395Y-105.555
X98.395Y-108.095
X98.395Y-110.635
X100.935Y-103.015
X100.935Y-105.555
X100.935Y-108.095
X100.935Y-110.635
X103.475Y-103.015
X103.475Y-105.555
X103.475Y-108.095
X103.475Y-110.635
X106.015Y-103.015
X106.015Y-105.555
X106.015Y-108.095
X106.015Y-110.635
X108.555Y-103.015
X108.555Y-105.555
X108.555Y-108.095
X108.555Y-110.635
X220.25Y-58.5
X222.75Y-58.5
X45.055Y-208.895
X45.055Y-211.435
X45.055Y-213.975
X45.055Y-216.515
X47.595Y-208.895
X47.595Y-211.435
X47.595Y-213.975
X47.595Y-216.515
X50.135Y-208.895
X50.135Y-211.435
X50.135Y-213.975
X50.135Y-216.515
X52.675Y-208.895
X52.675Y-211.435
X52.675Y-213.975
X52.675Y-216.515
X55.215Y-208.895
X55.215Y-211.435
X55.215Y-213.975
X55.215Y-216.515
X57.755Y-208.895
X57.755Y-211.435
X57.755Y-213.975
X57.755Y-216.515
X60.295Y-208.895
X60.295Y-211.435
X60.295Y-213.975
X60.295Y-216.515
X62.835Y-208.895
X62.835Y-211.435
X62.835Y-213.975
X62.835Y-216.515
X65.375Y-208.895
X65.375Y-211.435
X65.375Y-213.975
X65.375Y-216.515
X67.915Y-208.895
X67.915Y-211.435
X67.915Y-213.975
X67.915Y-216.515
X70.455Y-208.895
X70.455Y-211.435
X70.455Y-213.975
X70.455Y-216.515
X72.995Y-208.895
X72.995Y-211.435
X72.995Y-213.975
X72.995Y-216.515
X75.535Y-208.895
X75.535Y-211.435
X75.535Y-213.975
X75.535Y-216.515
X78.075Y-208.895
X78.075Y-211.435
X78.075Y-213.975
X78.075Y-216.515
X80.615Y-208.895
X80.615Y-211.435
X80.615Y-213.975
X80.615Y-216.515
X83.155Y-208.895
X83.155Y-211.435
X83.155Y-213.975
X83.155Y-216.515
X85.695Y-208.895
X85.695Y-211.435
X85.695Y-213.975
X85.695Y-216.515
X88.235Y-208.895
X88.235Y-211.435
X88.235Y-213.975
X88.235Y-216.515
X90.775Y-208.895
X90.775Y-211.435
X90.775Y-213.975
X90.775Y-216.515
X93.315Y-208.895
X93.315Y-211.435
X93.315Y-213.975
X93.315Y-216.515
X95.855Y-208.895
X95.855Y-211.435
X95.855Y-213.975
X95.855Y-216.515
X98.395Y-208.895
X98.395Y-211.435
X98.395Y-213.975
X98.395Y-216.515
X100.935Y-208.895
X100.935Y-211.435
X100.935Y-213.975
X100.935Y-216.515
X103.475Y-208.895
X103.475Y-211.435
X103.475Y-213.975
X103.475Y-216.515
X106.015Y-208.895
X106.015Y-211.435
X106.015Y-213.975
X106.015Y-216.515
X108.555Y-208.895
X108.555Y-211.435
X108.555Y-213.975
X108.555Y-216.515
T6
X166.17Y-68.75
X168.71Y-68.75
X171.25Y-68.75
X173.79Y-68.75
X176.33Y-68.75
X168.94Y-45.75
X171.48Y-45.75
X174.02Y-45.75
X176.56Y-45.75
X83.96Y-71.23
X83.96Y-73.77
X86.5Y-71.23
X86.5Y-73.77
X89.04Y-71.23
X89.04Y-73.77
X66.46Y-71.23
X66.46Y-73.77
X69.0Y-71.23
X69.0Y-73.77
X71.54Y-71.23
X71.54Y-73.77
X48.96Y-71.23
X48.96Y-73.77
X51.5Y-71.23
X51.5Y-73.77
X54.04Y-71.23
X54.04Y-73.77
T7
X171.5Y-36.5
X171.5Y-39.0
X173.5Y-36.5
X173.5Y-39.0
X175.5Y-36.5
X175.5Y-39.0
X179.5Y-36.5
X179.5Y-39.0
X181.5Y-36.5
X181.5Y-39.0
X183.5Y-36.5
X183.5Y-39.0
X185.5Y-36.5
X185.5Y-39.0
X189.5Y-36.5
X189.5Y-39.0
T8
X145.0Y-37.15
X145.0Y-49.85
X150.0Y-37.15
X150.0Y-49.85
X99.15Y-67.0
X99.15Y-72.0
X111.85Y-67.0
X111.85Y-72.0
X99.15Y-58.0
X99.15Y-63.0
X111.85Y-58.0
X111.85Y-63.0
X99.15Y-49.0
X99.15Y-54.0
X111.85Y-49.0
X111.85Y-54.0
X210.0Y-37.15
X210.0Y-49.85
X215.0Y-37.15
X215.0Y-49.85
X99.15Y-40.0
X99.15Y-45.0
X111.85Y-40.0
X111.85Y-45.0
T9
X169.5Y-34.75
X169.5Y-40.75
X191.5Y-34.75
X191.5Y-40.75
T10
X36.165Y-294.62
X39.975Y-208.895
X113.635Y-208.895
X116.175Y-294.62
X222.5Y-37.5
X30.0Y-72.5
X222.5Y-84.5
X136.335Y-188.74
X140.145Y-103.015
X213.805Y-103.015
X216.345Y-188.74
X136.335Y-294.62
X140.145Y-208.895
X213.805Y-208.895
X216.345Y-294.62
X222.5Y-72.5
X126.25Y-84.5
X30.0Y-335.0
X30.0Y-84.5
X127.5Y-335.0
X126.25Y-37.5
X126.25Y-198.75
X30.0Y-37.5
X30.0Y-198.75
X36.165Y-188.74
X39.975Y-103.015
X113.635Y-103.015
X116.175Y-188.74
X222.5Y-335.0
X222.5Y-198.75
X126.25Y-72.5
T11
X104.0Y-86.5
X68.995Y-86.5
X51.495Y-86.5
X86.495Y-86.5
T12
X201.5Y-35.62
T3
G00X154.05Y-35.695
M15
G01X154.05Y-34.545
M16
G05
G00X154.05Y-37.65
M15
G01X154.05Y-39.05
M16
G05
G00X164.95Y-34.545
M15
G01X164.95Y-35.695
M16
G05
G00X164.95Y-37.65
M15
G01X164.95Y-39.05
M16
G05
T7
G00X197.0Y-38.37
M15
G01X197.0Y-36.87
M16
G05
G00X200.85Y-38.62
M15
G01X202.15Y-38.62
M16
G05
G00X200.5Y-44.62
M15
G01X202.5Y-44.62
M16
G05
G00X206.0Y-38.37
M15
G01X206.0Y-36.87
M16
G05
T0
M30
