G04 #@! TF.GenerationSoftware,KiCad,Pcbnew,(5.1.6)-1*
G04 #@! TF.CreationDate,2020-08-06T12:50:43+02:00*
G04 #@! TF.ProjectId,board_sierra,626f6172-645f-4736-9965-7272612e6b69,rev?*
G04 #@! TF.SameCoordinates,Original*
G04 #@! TF.FileFunction,Paste,Top*
G04 #@! TF.FilePolarity,Positive*
%FSLAX46Y46*%
G04 Gerber Fmt 4.6, Leading zero omitted, Abs format (unit mm)*
G04 Created by KiCad (PCBNEW (5.1.6)-1) date 2020-08-06 12:50:43*
%MOMM*%
%LPD*%
G01*
G04 APERTURE LIST*
G04 #@! TA.AperFunction,Profile*
%ADD10C,0.100000*%
G04 #@! TD*
%ADD11R,1.450000X1.075000*%
%ADD12R,0.950000X0.450000*%
%ADD13R,0.300000X0.600000*%
%ADD14R,1.070000X1.470000*%
%ADD15R,0.950000X0.950000*%
%ADD16R,0.500000X0.600000*%
%ADD17R,1.100000X1.400000*%
%ADD18R,0.300000X1.475000*%
%ADD19R,1.475000X0.300000*%
%ADD20R,1.470000X1.150000*%
%ADD21R,0.200000X0.600000*%
%ADD22R,0.600000X0.200000*%
%ADD23R,1.700000X0.600000*%
%ADD24R,0.600000X0.500000*%
%ADD25R,0.463000X0.225000*%
%ADD26R,0.225000X0.463000*%
%ADD27R,0.500000X0.250000*%
%ADD28R,0.900000X0.700000*%
%ADD29R,0.700000X0.600000*%
%ADD30R,0.250000X0.500000*%
%ADD31R,0.700000X0.900000*%
%ADD32R,0.600000X0.600000*%
%ADD33R,0.600000X0.400000*%
G04 APERTURE END LIST*
D10*
X137985500Y-43180000D02*
G75*
G03*
X138938000Y-42227500I0J952500D01*
G01*
X119570500Y-43180000D02*
X137985500Y-43180000D01*
X139890500Y-41275000D02*
X171767500Y-41275000D01*
X118618000Y-42227500D02*
G75*
G03*
X117665500Y-41275000I-952500J0D01*
G01*
X118618000Y-42227500D02*
G75*
G03*
X119570500Y-43180000I952500J0D01*
G01*
X83502500Y-41275000D02*
X117665500Y-41275000D01*
X139890500Y-41275000D02*
G75*
G03*
X138938000Y-42227500I0J-952500D01*
G01*
X139890500Y-137160000D02*
X171767500Y-137160000D01*
X119570500Y-135255000D02*
X137985500Y-135255000D01*
X83502500Y-137160000D02*
X117665500Y-137160000D01*
X139890500Y-137160000D02*
G75*
G02*
X138938000Y-136207500I0J952500D01*
G01*
X137985500Y-135255000D02*
G75*
G02*
X138938000Y-136207500I0J-952500D01*
G01*
X118618000Y-136207500D02*
G75*
G02*
X119570500Y-135255000I952500J0D01*
G01*
X118618000Y-136207500D02*
G75*
G02*
X117665500Y-137160000I-952500J0D01*
G01*
X171767500Y-79070200D02*
G75*
G03*
X170815000Y-80022700I0J-952500D01*
G01*
X172720000Y-42227500D02*
X172720000Y-78117700D01*
X170815000Y-80022700D02*
X170815000Y-98412300D01*
X172720000Y-100317300D02*
X172720000Y-136207500D01*
X170815000Y-98412300D02*
G75*
G03*
X171767500Y-99364800I952500J0D01*
G01*
X172720000Y-100317300D02*
G75*
G03*
X171767500Y-99364800I-952500J0D01*
G01*
X171767500Y-79070200D02*
G75*
G03*
X172720000Y-78117700I0J952500D01*
G01*
X172720000Y-136207500D02*
G75*
G02*
X171767500Y-137160000I-952500J0D01*
G01*
X171767500Y-41275000D02*
G75*
G02*
X172720000Y-42227500I0J-952500D01*
G01*
X82550000Y-100317300D02*
X82550000Y-136207500D01*
X82550000Y-42227500D02*
X82550000Y-78117700D01*
X82550000Y-42227500D02*
G75*
G02*
X83502500Y-41275000I952500J0D01*
G01*
X84455000Y-80022700D02*
X84455000Y-98412300D01*
X83502500Y-79070200D02*
G75*
G02*
X82550000Y-78117700I0J952500D01*
G01*
X83502500Y-79070200D02*
G75*
G02*
X84455000Y-80022700I0J-952500D01*
G01*
X84455000Y-98412300D02*
G75*
G02*
X83502500Y-99364800I-952500J0D01*
G01*
X82550000Y-100317300D02*
G75*
G02*
X83502500Y-99364800I952500J0D01*
G01*
X83502500Y-137160000D02*
G75*
G02*
X82550000Y-136207500I0J952500D01*
G01*
D11*
X91820000Y-96400500D03*
X90170000Y-96400500D03*
X88520000Y-96400500D03*
X91820000Y-95125500D03*
X90170000Y-95125500D03*
X88520000Y-95125500D03*
X91820000Y-93850500D03*
X90170000Y-93850500D03*
X88520000Y-93850500D03*
X91820000Y-92575500D03*
X90170000Y-92575500D03*
D12*
X86270000Y-92583000D03*
X86270000Y-93853000D03*
X86270000Y-95123000D03*
X86270000Y-96393000D03*
X94070000Y-96393000D03*
X94070000Y-95123000D03*
X94070000Y-93853000D03*
X94070000Y-92583000D03*
D11*
X88520000Y-92575500D03*
X113410000Y-96400500D03*
X111760000Y-96400500D03*
X110110000Y-96400500D03*
X113410000Y-95125500D03*
X111760000Y-95125500D03*
X110110000Y-95125500D03*
X113410000Y-93850500D03*
X111760000Y-93850500D03*
X110110000Y-93850500D03*
X113410000Y-92575500D03*
X111760000Y-92575500D03*
D12*
X107860000Y-92583000D03*
X107860000Y-93853000D03*
X107860000Y-95123000D03*
X107860000Y-96393000D03*
X115660000Y-96393000D03*
X115660000Y-95123000D03*
X115660000Y-93853000D03*
X115660000Y-92583000D03*
D11*
X110110000Y-92575500D03*
X102615000Y-96400500D03*
X100965000Y-96400500D03*
X99315000Y-96400500D03*
X102615000Y-95125500D03*
X100965000Y-95125500D03*
X99315000Y-95125500D03*
X102615000Y-93850500D03*
X100965000Y-93850500D03*
X99315000Y-93850500D03*
X102615000Y-92575500D03*
X100965000Y-92575500D03*
D12*
X97065000Y-92583000D03*
X97065000Y-93853000D03*
X97065000Y-95123000D03*
X97065000Y-96393000D03*
X104865000Y-96393000D03*
X104865000Y-95123000D03*
X104865000Y-93853000D03*
X104865000Y-92583000D03*
D11*
X99315000Y-92575500D03*
D13*
X120965000Y-73420000D03*
X121615000Y-73420000D03*
X122265000Y-73420000D03*
X122915000Y-73420000D03*
X122915000Y-70620000D03*
X122265000Y-70620000D03*
X121615000Y-70620000D03*
X120965000Y-70620000D03*
D14*
X121305000Y-72020000D03*
X122575000Y-72020000D03*
D13*
X85345000Y-77480000D03*
X85995000Y-77480000D03*
X86645000Y-77480000D03*
X87295000Y-77480000D03*
X87295000Y-74680000D03*
X86645000Y-74680000D03*
X85995000Y-74680000D03*
X85345000Y-74680000D03*
D14*
X85685000Y-76080000D03*
X86955000Y-76080000D03*
D15*
X86715000Y-89150000D03*
X88165000Y-89150000D03*
X117290000Y-93085000D03*
X117290000Y-91635000D03*
X117290000Y-83455000D03*
X117290000Y-82005000D03*
X117340000Y-96570000D03*
X118790000Y-96570000D03*
X117345000Y-86930000D03*
X118795000Y-86930000D03*
X84250000Y-66990000D03*
X85700000Y-66990000D03*
X89070000Y-68725000D03*
X89070000Y-70175000D03*
D16*
X118470000Y-83730000D03*
X119470000Y-83730000D03*
D17*
X119125000Y-94760000D03*
X117375000Y-94760000D03*
X119125000Y-85130000D03*
X117375000Y-85130000D03*
D18*
X95216000Y-88584500D03*
X95716000Y-88584500D03*
X96216000Y-88584500D03*
X96716000Y-88584500D03*
X97216000Y-88584500D03*
X97716000Y-88584500D03*
X98216000Y-88584500D03*
X98716000Y-88584500D03*
X99216000Y-88584500D03*
X99716000Y-88584500D03*
X100216000Y-88584500D03*
X100716000Y-88584500D03*
X101216000Y-88584500D03*
X101716000Y-88584500D03*
X102216000Y-88584500D03*
X102716000Y-88584500D03*
X103216000Y-88584500D03*
X103716000Y-88584500D03*
X104216000Y-88584500D03*
X104716000Y-88584500D03*
X105216000Y-88584500D03*
X105716000Y-88584500D03*
X106216000Y-88584500D03*
X106716000Y-88584500D03*
X107216000Y-88584500D03*
X107716000Y-88584500D03*
X108216000Y-88584500D03*
X108716000Y-88584500D03*
X109216000Y-88584500D03*
X109716000Y-88584500D03*
X110216000Y-88584500D03*
X110716000Y-88584500D03*
X111216000Y-88584500D03*
X111716000Y-88584500D03*
X112216000Y-88584500D03*
X112716000Y-88584500D03*
D19*
X114628500Y-86672000D03*
X114628500Y-86172000D03*
X114628500Y-85672000D03*
X114628500Y-85172000D03*
X114628500Y-84672000D03*
X114628500Y-84172000D03*
X114628500Y-83672000D03*
X114628500Y-83172000D03*
X114628500Y-82672000D03*
X114628500Y-82172000D03*
X114628500Y-81672000D03*
X114628500Y-81172000D03*
X114628500Y-80672000D03*
X114628500Y-80172000D03*
X114628500Y-79672000D03*
X114628500Y-79172000D03*
X114628500Y-78672000D03*
X114628500Y-78172000D03*
X114628500Y-77672000D03*
X114628500Y-77172000D03*
X114628500Y-76672000D03*
X114628500Y-76172000D03*
X114628500Y-75672000D03*
X114628500Y-75172000D03*
X114628500Y-74672000D03*
X114628500Y-74172000D03*
X114628500Y-73672000D03*
X114628500Y-73172000D03*
X114628500Y-72672000D03*
X114628500Y-72172000D03*
X114628500Y-71672000D03*
X114628500Y-71172000D03*
X114628500Y-70672000D03*
X114628500Y-70172000D03*
X114628500Y-69672000D03*
X114628500Y-69172000D03*
D18*
X112716000Y-67259500D03*
X112216000Y-67259500D03*
X111716000Y-67259500D03*
X111216000Y-67259500D03*
X110716000Y-67259500D03*
X110216000Y-67259500D03*
X109716000Y-67259500D03*
X109216000Y-67259500D03*
X108716000Y-67259500D03*
X108216000Y-67259500D03*
X107716000Y-67259500D03*
X107216000Y-67259500D03*
X106716000Y-67259500D03*
X106216000Y-67259500D03*
X105716000Y-67259500D03*
X105216000Y-67259500D03*
X104716000Y-67259500D03*
X104216000Y-67259500D03*
X103716000Y-67259500D03*
X103216000Y-67259500D03*
X102716000Y-67259500D03*
X102216000Y-67259500D03*
X101716000Y-67259500D03*
X101216000Y-67259500D03*
X100716000Y-67259500D03*
X100216000Y-67259500D03*
X99716000Y-67259500D03*
X99216000Y-67259500D03*
X98716000Y-67259500D03*
X98216000Y-67259500D03*
X97716000Y-67259500D03*
X97216000Y-67259500D03*
X96716000Y-67259500D03*
X96216000Y-67259500D03*
X95716000Y-67259500D03*
X95216000Y-67259500D03*
D19*
X93303500Y-69172000D03*
X93303500Y-69672000D03*
X93303500Y-70172000D03*
X93303500Y-70672000D03*
X93303500Y-71172000D03*
X93303500Y-71672000D03*
X93303500Y-72172000D03*
X93303500Y-72672000D03*
X93303500Y-73172000D03*
X93303500Y-73672000D03*
X93303500Y-74172000D03*
X93303500Y-74672000D03*
X93303500Y-75172000D03*
X93303500Y-75672000D03*
X93303500Y-76172000D03*
X93303500Y-76672000D03*
X93303500Y-77172000D03*
X93303500Y-77672000D03*
X93303500Y-78172000D03*
X93303500Y-78672000D03*
X93303500Y-79172000D03*
X93303500Y-79672000D03*
X93303500Y-80172000D03*
X93303500Y-80672000D03*
X93303500Y-81172000D03*
X93303500Y-81672000D03*
X93303500Y-82172000D03*
X93303500Y-82672000D03*
X93303500Y-83172000D03*
X93303500Y-83672000D03*
X93303500Y-84172000D03*
X93303500Y-84672000D03*
X93303500Y-85172000D03*
X93303500Y-85672000D03*
X93303500Y-86172000D03*
X93303500Y-86672000D03*
D20*
X121920000Y-91725000D03*
X121920000Y-90375000D03*
D21*
X121170000Y-89150000D03*
X121670000Y-89150000D03*
X122170000Y-89150000D03*
X122670000Y-89150000D03*
D22*
X123320000Y-89800000D03*
X123320000Y-90300000D03*
X123320000Y-90800000D03*
X123320000Y-91300000D03*
X123320000Y-91800000D03*
X123320000Y-92300000D03*
D21*
X122670000Y-92950000D03*
X122170000Y-92950000D03*
X121670000Y-92950000D03*
X121170000Y-92950000D03*
D22*
X120520000Y-92300000D03*
X120520000Y-91800000D03*
X120520000Y-91300000D03*
X120520000Y-90800000D03*
X120520000Y-90300000D03*
X120520000Y-89800000D03*
D15*
X125500000Y-95900000D03*
X125500000Y-94450000D03*
X125500000Y-86135000D03*
X125500000Y-84685000D03*
D23*
X89715000Y-87075000D03*
X86665000Y-87075000D03*
X89715000Y-85805000D03*
X86665000Y-85805000D03*
X89715000Y-84535000D03*
X86665000Y-84535000D03*
X89715000Y-83265000D03*
X86665000Y-83265000D03*
D16*
X113920000Y-90630000D03*
X114920000Y-90630000D03*
D24*
X86320000Y-72630000D03*
X86320000Y-73630000D03*
X91810000Y-79420000D03*
X91810000Y-80420000D03*
X91810000Y-85920000D03*
X91810000Y-86920000D03*
D16*
X109960000Y-90340000D03*
X110960000Y-90340000D03*
X118470000Y-92460000D03*
X119470000Y-92460000D03*
D24*
X84210000Y-52770000D03*
X84210000Y-51770000D03*
D16*
X84640000Y-53820000D03*
X85640000Y-53820000D03*
D25*
X87578500Y-51470000D03*
X87578500Y-51870000D03*
X87578500Y-52270000D03*
X87578500Y-52670000D03*
D26*
X86960000Y-52888500D03*
X86560000Y-52888500D03*
X86160000Y-52888500D03*
X85760000Y-52888500D03*
D25*
X85141500Y-52670000D03*
X85141500Y-52270000D03*
X85141500Y-51870000D03*
X85141500Y-51470000D03*
D26*
X85760000Y-51251500D03*
X86160000Y-51251500D03*
X86560000Y-51251500D03*
X86960000Y-51251500D03*
D25*
X107898500Y-57820000D03*
X107898500Y-58220000D03*
X107898500Y-58620000D03*
X107898500Y-59020000D03*
D26*
X107280000Y-59238500D03*
X106880000Y-59238500D03*
X106480000Y-59238500D03*
X106080000Y-59238500D03*
D25*
X105461500Y-59020000D03*
X105461500Y-58620000D03*
X105461500Y-58220000D03*
X105461500Y-57820000D03*
D26*
X106080000Y-57601500D03*
X106480000Y-57601500D03*
X106880000Y-57601500D03*
X107280000Y-57601500D03*
D24*
X114690000Y-58920000D03*
X114690000Y-57920000D03*
D16*
X92620000Y-60170000D03*
X91620000Y-60170000D03*
X89720000Y-60170000D03*
X90720000Y-60170000D03*
X110040000Y-60170000D03*
X111040000Y-60170000D03*
D25*
X97738500Y-57820000D03*
X97738500Y-58220000D03*
X97738500Y-58620000D03*
X97738500Y-59020000D03*
D26*
X97120000Y-59238500D03*
X96720000Y-59238500D03*
X96320000Y-59238500D03*
X95920000Y-59238500D03*
D25*
X95301500Y-59020000D03*
X95301500Y-58620000D03*
X95301500Y-58220000D03*
X95301500Y-57820000D03*
D26*
X95920000Y-57601500D03*
X96320000Y-57601500D03*
X96720000Y-57601500D03*
X97120000Y-57601500D03*
D24*
X94370000Y-58920000D03*
X94370000Y-57920000D03*
D16*
X94810000Y-60170000D03*
X95810000Y-60170000D03*
D24*
X99450000Y-58920000D03*
X99450000Y-57920000D03*
D16*
X99880000Y-60170000D03*
X100880000Y-60170000D03*
D24*
X119690000Y-73570000D03*
X119690000Y-72570000D03*
X124190000Y-73570000D03*
X124190000Y-72570000D03*
X84070000Y-77630000D03*
X84070000Y-76630000D03*
X88570000Y-77630000D03*
X88570000Y-76630000D03*
D20*
X121920000Y-82085000D03*
X121920000Y-80735000D03*
D21*
X121170000Y-79510000D03*
X121670000Y-79510000D03*
X122170000Y-79510000D03*
X122670000Y-79510000D03*
D22*
X123320000Y-80160000D03*
X123320000Y-80660000D03*
X123320000Y-81160000D03*
X123320000Y-81660000D03*
X123320000Y-82160000D03*
X123320000Y-82660000D03*
D21*
X122670000Y-83310000D03*
X122170000Y-83310000D03*
X121670000Y-83310000D03*
X121170000Y-83310000D03*
D22*
X120520000Y-82660000D03*
X120520000Y-82160000D03*
X120520000Y-81660000D03*
X120520000Y-81160000D03*
X120520000Y-80660000D03*
X120520000Y-80160000D03*
D27*
X122370000Y-84540000D03*
X122370000Y-85040000D03*
X122370000Y-85540000D03*
X122370000Y-86040000D03*
X120470000Y-86040000D03*
X120470000Y-85540000D03*
X120470000Y-85040000D03*
X120470000Y-84540000D03*
D28*
X121420000Y-85740000D03*
X121420000Y-84840000D03*
D16*
X87890000Y-90330000D03*
X88890000Y-90330000D03*
X86990000Y-90330000D03*
X85990000Y-90330000D03*
D24*
X125820000Y-72570000D03*
X125820000Y-73570000D03*
D16*
X118470000Y-82830000D03*
X119470000Y-82830000D03*
X119470000Y-89600000D03*
X118470000Y-89600000D03*
X124370000Y-88650000D03*
X125370000Y-88650000D03*
D24*
X84130000Y-68170000D03*
X84130000Y-69170000D03*
X87850000Y-68260000D03*
X87850000Y-69260000D03*
D29*
X125810000Y-70060000D03*
X125810000Y-71460000D03*
D16*
X118470000Y-93360000D03*
X119470000Y-93360000D03*
X119970000Y-96750000D03*
X120970000Y-96750000D03*
X119970000Y-87110000D03*
X120970000Y-87110000D03*
X86880000Y-67310000D03*
X87880000Y-67310000D03*
D24*
X87850000Y-70350000D03*
X87850000Y-71350000D03*
D16*
X123320000Y-95450000D03*
X124320000Y-95450000D03*
X123320000Y-85820000D03*
X124320000Y-85820000D03*
X122050000Y-96750000D03*
X123050000Y-96750000D03*
X122050000Y-87110000D03*
X123050000Y-87110000D03*
X119470000Y-88650000D03*
X118470000Y-88650000D03*
X119470000Y-79020000D03*
X118470000Y-79020000D03*
D24*
X123120000Y-68570000D03*
X123120000Y-69570000D03*
X87500000Y-72630000D03*
X87500000Y-73630000D03*
X120750000Y-68570000D03*
X120750000Y-69570000D03*
X85130000Y-72630000D03*
X85130000Y-73630000D03*
X119690000Y-71620000D03*
X119690000Y-70620000D03*
X84070000Y-75680000D03*
X84070000Y-74680000D03*
D16*
X86390000Y-71460000D03*
X85390000Y-71460000D03*
D24*
X104530000Y-58920000D03*
X104530000Y-57920000D03*
X120120000Y-77270000D03*
X120120000Y-76270000D03*
X109610000Y-58920000D03*
X109610000Y-57920000D03*
X89290000Y-58120000D03*
X89290000Y-59120000D03*
D16*
X118470000Y-90660000D03*
X119470000Y-90660000D03*
X118470000Y-91560000D03*
X119470000Y-91560000D03*
X118470000Y-81030000D03*
X119470000Y-81030000D03*
X118470000Y-81930000D03*
X119470000Y-81930000D03*
X119470000Y-79970000D03*
X118470000Y-79970000D03*
X124370000Y-79020000D03*
X125370000Y-79020000D03*
X125370000Y-89600000D03*
X124370000Y-89600000D03*
X124370000Y-90550000D03*
X125370000Y-90550000D03*
X125370000Y-91610000D03*
X124370000Y-91610000D03*
X125370000Y-79970000D03*
X124370000Y-79970000D03*
X124370000Y-80920000D03*
X125370000Y-80920000D03*
X125370000Y-81980000D03*
X124370000Y-81980000D03*
D24*
X84210000Y-59120000D03*
X84210000Y-58120000D03*
X118990000Y-59620000D03*
X118990000Y-58620000D03*
D30*
X85270000Y-68500000D03*
X85770000Y-68500000D03*
X86270000Y-68500000D03*
X86770000Y-68500000D03*
X86770000Y-70400000D03*
X86270000Y-70400000D03*
X85770000Y-70400000D03*
X85270000Y-70400000D03*
D31*
X86470000Y-69450000D03*
X85570000Y-69450000D03*
D27*
X122370000Y-94180000D03*
X122370000Y-94680000D03*
X122370000Y-95180000D03*
X122370000Y-95680000D03*
X120470000Y-95680000D03*
X120470000Y-95180000D03*
X120470000Y-94680000D03*
X120470000Y-94180000D03*
D28*
X121420000Y-95380000D03*
X121420000Y-94480000D03*
D32*
X121020000Y-77770000D03*
D33*
X121020000Y-77020000D03*
D32*
X121020000Y-76270000D03*
X122820000Y-76270000D03*
D33*
X122820000Y-77020000D03*
D32*
X122820000Y-77770000D03*
D16*
X113920000Y-89680000D03*
X114920000Y-89680000D03*
D24*
X124190000Y-68570000D03*
X124190000Y-69570000D03*
X88570000Y-72620000D03*
X88570000Y-73620000D03*
X119690000Y-68570000D03*
X119690000Y-69570000D03*
X84070000Y-72630000D03*
X84070000Y-73630000D03*
X121940000Y-69570000D03*
X121940000Y-68570000D03*
D16*
X121440000Y-74480000D03*
X122440000Y-74480000D03*
X85820000Y-78530000D03*
X86820000Y-78530000D03*
D24*
X124190000Y-71620000D03*
X124190000Y-70620000D03*
X88570000Y-75680000D03*
X88570000Y-74680000D03*
D16*
X104970000Y-60170000D03*
X105970000Y-60170000D03*
X84640000Y-60170000D03*
X85640000Y-60170000D03*
X115130000Y-60170000D03*
X116130000Y-60170000D03*
X96720000Y-90340000D03*
X97720000Y-90340000D03*
D24*
X116110000Y-79920000D03*
X116110000Y-78920000D03*
X116120000Y-69920000D03*
X116120000Y-68920000D03*
D25*
X112978500Y-57820000D03*
X112978500Y-58220000D03*
X112978500Y-58620000D03*
X112978500Y-59020000D03*
D26*
X112360000Y-59238500D03*
X111960000Y-59238500D03*
X111560000Y-59238500D03*
X111160000Y-59238500D03*
D25*
X110541500Y-59020000D03*
X110541500Y-58620000D03*
X110541500Y-58220000D03*
X110541500Y-57820000D03*
D26*
X111160000Y-57601500D03*
X111560000Y-57601500D03*
X111960000Y-57601500D03*
X112360000Y-57601500D03*
D25*
X92658500Y-57820000D03*
X92658500Y-58220000D03*
X92658500Y-58620000D03*
X92658500Y-59020000D03*
D26*
X92040000Y-59238500D03*
X91640000Y-59238500D03*
X91240000Y-59238500D03*
X90840000Y-59238500D03*
D25*
X90221500Y-59020000D03*
X90221500Y-58620000D03*
X90221500Y-58220000D03*
X90221500Y-57820000D03*
D26*
X90840000Y-57601500D03*
X91240000Y-57601500D03*
X91640000Y-57601500D03*
X92040000Y-57601500D03*
D25*
X102818500Y-57820000D03*
X102818500Y-58220000D03*
X102818500Y-58620000D03*
X102818500Y-59020000D03*
D26*
X102200000Y-59238500D03*
X101800000Y-59238500D03*
X101400000Y-59238500D03*
X101000000Y-59238500D03*
D25*
X100381500Y-59020000D03*
X100381500Y-58620000D03*
X100381500Y-58220000D03*
X100381500Y-57820000D03*
D26*
X101000000Y-57601500D03*
X101400000Y-57601500D03*
X101800000Y-57601500D03*
X102200000Y-57601500D03*
D25*
X87578500Y-57820000D03*
X87578500Y-58220000D03*
X87578500Y-58620000D03*
X87578500Y-59020000D03*
D26*
X86960000Y-59238500D03*
X86560000Y-59238500D03*
X86160000Y-59238500D03*
X85760000Y-59238500D03*
D25*
X85141500Y-59020000D03*
X85141500Y-58620000D03*
X85141500Y-58220000D03*
X85141500Y-57820000D03*
D26*
X85760000Y-57601500D03*
X86160000Y-57601500D03*
X86560000Y-57601500D03*
X86960000Y-57601500D03*
D25*
X118058500Y-57820000D03*
X118058500Y-58220000D03*
X118058500Y-58620000D03*
X118058500Y-59020000D03*
D26*
X117440000Y-59238500D03*
X117040000Y-59238500D03*
X116640000Y-59238500D03*
X116240000Y-59238500D03*
D25*
X115621500Y-59020000D03*
X115621500Y-58620000D03*
X115621500Y-58220000D03*
X115621500Y-57820000D03*
D26*
X116240000Y-57601500D03*
X116640000Y-57601500D03*
X117040000Y-57601500D03*
X117440000Y-57601500D03*
M02*
