G04 #@! TF.GenerationSoftware,KiCad,Pcbnew,(5.1.6)-1*
G04 #@! TF.CreationDate,2020-09-14T11:10:16+02:00*
G04 #@! TF.ProjectId,board_sierra,626f6172-645f-4736-9965-7272612e6b69,v1.1*
G04 #@! TF.SameCoordinates,PX1903cf0PY6c69e80*
G04 #@! TF.FileFunction,Soldermask,Bot*
G04 #@! TF.FilePolarity,Negative*
%FSLAX46Y46*%
G04 Gerber Fmt 4.6, Leading zero omitted, Abs format (unit mm)*
G04 Created by KiCad (PCBNEW (5.1.6)-1) date 2020-09-14 11:10:16*
%MOMM*%
%LPD*%
G01*
G04 APERTURE LIST*
G04 #@! TA.AperFunction,Profile*
%ADD10C,0.100000*%
G04 #@! TD*
%ADD11R,4.200000X1.850000*%
%ADD12R,1.850000X4.200000*%
%ADD13C,1.500000*%
%ADD14C,1.000000*%
%ADD15R,3.860000X0.650000*%
%ADD16R,2.000000X2.000000*%
%ADD17R,0.950000X0.950000*%
%ADD18R,1.100000X1.400000*%
%ADD19R,0.500000X0.600000*%
%ADD20R,1.250000X1.750000*%
%ADD21R,1.600000X0.600000*%
%ADD22R,1.450000X1.750000*%
%ADD23R,0.300000X0.750000*%
%ADD24R,1.750000X1.450000*%
%ADD25R,0.750000X0.300000*%
%ADD26C,6.400000*%
%ADD27C,0.800000*%
%ADD28R,0.600000X0.500000*%
%ADD29R,0.463000X0.225000*%
%ADD30R,0.225000X0.463000*%
%ADD31R,0.500000X0.300000*%
%ADD32R,0.800000X0.900000*%
%ADD33R,1.000000X1.800000*%
%ADD34C,1.365000*%
G04 APERTURE END LIST*
D10*
X50355500Y88900000D02*
G75*
G03*
X51308000Y89852500I0J952500D01*
G01*
X31940500Y88900000D02*
X50355500Y88900000D01*
X52260500Y90805000D02*
X84137500Y90805000D01*
X30988000Y89852500D02*
G75*
G03*
X30035500Y90805000I-952500J0D01*
G01*
X30988000Y89852500D02*
G75*
G03*
X31940500Y88900000I952500J0D01*
G01*
X-4127500Y90805000D02*
X30035500Y90805000D01*
X52260500Y90805000D02*
G75*
G03*
X51308000Y89852500I0J-952500D01*
G01*
X52260500Y-5080000D02*
X84137500Y-5080000D01*
X31940500Y-3175000D02*
X50355500Y-3175000D01*
X-4127500Y-5080000D02*
X30035500Y-5080000D01*
X52260500Y-5080000D02*
G75*
G02*
X51308000Y-4127500I0J952500D01*
G01*
X50355500Y-3175000D02*
G75*
G02*
X51308000Y-4127500I0J-952500D01*
G01*
X30988000Y-4127500D02*
G75*
G02*
X31940500Y-3175000I952500J0D01*
G01*
X30988000Y-4127500D02*
G75*
G02*
X30035500Y-5080000I-952500J0D01*
G01*
X84137500Y53009800D02*
G75*
G03*
X83185000Y52057300I0J-952500D01*
G01*
X85090000Y89852500D02*
X85090000Y53962300D01*
X83185000Y52057300D02*
X83185000Y33667700D01*
X85090000Y31762700D02*
X85090000Y-4127500D01*
X83185000Y33667700D02*
G75*
G03*
X84137500Y32715200I952500J0D01*
G01*
X85090000Y31762700D02*
G75*
G03*
X84137500Y32715200I-952500J0D01*
G01*
X84137500Y53009800D02*
G75*
G03*
X85090000Y53962300I0J952500D01*
G01*
X85090000Y-4127500D02*
G75*
G02*
X84137500Y-5080000I-952500J0D01*
G01*
X84137500Y90805000D02*
G75*
G02*
X85090000Y89852500I0J-952500D01*
G01*
X-5080000Y31762700D02*
X-5080000Y-4127500D01*
X-5080000Y89852500D02*
X-5080000Y53962300D01*
X-5080000Y89852500D02*
G75*
G02*
X-4127500Y90805000I952500J0D01*
G01*
X-3175000Y52057300D02*
X-3175000Y33667700D01*
X-4127500Y53009800D02*
G75*
G02*
X-5080000Y53962300I0J952500D01*
G01*
X-4127500Y53009800D02*
G75*
G02*
X-3175000Y52057300I0J-952500D01*
G01*
X-3175000Y33667700D02*
G75*
G02*
X-4127500Y32715200I-952500J0D01*
G01*
X-5080000Y31762700D02*
G75*
G02*
X-4127500Y32715200I952500J0D01*
G01*
X-4127500Y-5080000D02*
G75*
G02*
X-5080000Y-4127500I0J952500D01*
G01*
G04 #@! TO.C,UA5*
G36*
G01*
X41620000Y10967500D02*
X41620000Y11892500D01*
G75*
G02*
X42082500Y12355000I462500J0D01*
G01*
X43007500Y12355000D01*
G75*
G02*
X43470000Y11892500I0J-462500D01*
G01*
X43470000Y10967500D01*
G75*
G02*
X43007500Y10505000I-462500J0D01*
G01*
X42082500Y10505000D01*
G75*
G02*
X41620000Y10967500I0J462500D01*
G01*
G37*
G36*
G01*
X41620000Y13507500D02*
X41620000Y14432500D01*
G75*
G02*
X42082500Y14895000I462500J0D01*
G01*
X43007500Y14895000D01*
G75*
G02*
X43470000Y14432500I0J-462500D01*
G01*
X43470000Y13507500D01*
G75*
G02*
X43007500Y13045000I-462500J0D01*
G01*
X42082500Y13045000D01*
G75*
G02*
X41620000Y13507500I0J462500D01*
G01*
G37*
G36*
G01*
X41620000Y8427500D02*
X41620000Y9352500D01*
G75*
G02*
X42082500Y9815000I462500J0D01*
G01*
X43007500Y9815000D01*
G75*
G02*
X43470000Y9352500I0J-462500D01*
G01*
X43470000Y8427500D01*
G75*
G02*
X43007500Y7965000I-462500J0D01*
G01*
X42082500Y7965000D01*
G75*
G02*
X41620000Y8427500I0J462500D01*
G01*
G37*
G36*
G01*
X41620000Y18587500D02*
X41620000Y19512500D01*
G75*
G02*
X42082500Y19975000I462500J0D01*
G01*
X43007500Y19975000D01*
G75*
G02*
X43470000Y19512500I0J-462500D01*
G01*
X43470000Y18587500D01*
G75*
G02*
X43007500Y18125000I-462500J0D01*
G01*
X42082500Y18125000D01*
G75*
G02*
X41620000Y18587500I0J462500D01*
G01*
G37*
G36*
G01*
X41620000Y21127500D02*
X41620000Y22052500D01*
G75*
G02*
X42082500Y22515000I462500J0D01*
G01*
X43007500Y22515000D01*
G75*
G02*
X43470000Y22052500I0J-462500D01*
G01*
X43470000Y21127500D01*
G75*
G02*
X43007500Y20665000I-462500J0D01*
G01*
X42082500Y20665000D01*
G75*
G02*
X41620000Y21127500I0J462500D01*
G01*
G37*
G36*
G01*
X41620000Y16047500D02*
X41620000Y16972500D01*
G75*
G02*
X42082500Y17435000I462500J0D01*
G01*
X43007500Y17435000D01*
G75*
G02*
X43470000Y16972500I0J-462500D01*
G01*
X43470000Y16047500D01*
G75*
G02*
X43007500Y15585000I-462500J0D01*
G01*
X42082500Y15585000D01*
G75*
G02*
X41620000Y16047500I0J462500D01*
G01*
G37*
G36*
G01*
X41620000Y23667500D02*
X41620000Y24592500D01*
G75*
G02*
X42082500Y25055000I462500J0D01*
G01*
X43007500Y25055000D01*
G75*
G02*
X43470000Y24592500I0J-462500D01*
G01*
X43470000Y23667500D01*
G75*
G02*
X43007500Y23205000I-462500J0D01*
G01*
X42082500Y23205000D01*
G75*
G02*
X41620000Y23667500I0J462500D01*
G01*
G37*
G36*
G01*
X41620000Y26207500D02*
X41620000Y27132500D01*
G75*
G02*
X42082500Y27595000I462500J0D01*
G01*
X43007500Y27595000D01*
G75*
G02*
X43470000Y27132500I0J-462500D01*
G01*
X43470000Y26207500D01*
G75*
G02*
X43007500Y25745000I-462500J0D01*
G01*
X42082500Y25745000D01*
G75*
G02*
X41620000Y26207500I0J462500D01*
G01*
G37*
G36*
G01*
X41620000Y3347500D02*
X41620000Y4272500D01*
G75*
G02*
X42082500Y4735000I462500J0D01*
G01*
X43007500Y4735000D01*
G75*
G02*
X43470000Y4272500I0J-462500D01*
G01*
X43470000Y3347500D01*
G75*
G02*
X43007500Y2885000I-462500J0D01*
G01*
X42082500Y2885000D01*
G75*
G02*
X41620000Y3347500I0J462500D01*
G01*
G37*
G36*
G01*
X41620000Y5887500D02*
X41620000Y6812500D01*
G75*
G02*
X42082500Y7275000I462500J0D01*
G01*
X43007500Y7275000D01*
G75*
G02*
X43470000Y6812500I0J-462500D01*
G01*
X43470000Y5887500D01*
G75*
G02*
X43007500Y5425000I-462500J0D01*
G01*
X42082500Y5425000D01*
G75*
G02*
X41620000Y5887500I0J462500D01*
G01*
G37*
G36*
G01*
X36540000Y3347500D02*
X36540000Y4272500D01*
G75*
G02*
X37002500Y4735000I462500J0D01*
G01*
X37927500Y4735000D01*
G75*
G02*
X38390000Y4272500I0J-462500D01*
G01*
X38390000Y3347500D01*
G75*
G02*
X37927500Y2885000I-462500J0D01*
G01*
X37002500Y2885000D01*
G75*
G02*
X36540000Y3347500I0J462500D01*
G01*
G37*
G36*
G01*
X39080000Y3347500D02*
X39080000Y4272500D01*
G75*
G02*
X39542500Y4735000I462500J0D01*
G01*
X40467500Y4735000D01*
G75*
G02*
X40930000Y4272500I0J-462500D01*
G01*
X40930000Y3347500D01*
G75*
G02*
X40467500Y2885000I-462500J0D01*
G01*
X39542500Y2885000D01*
G75*
G02*
X39080000Y3347500I0J462500D01*
G01*
G37*
G36*
G01*
X36540000Y26207500D02*
X36540000Y27132500D01*
G75*
G02*
X37002500Y27595000I462500J0D01*
G01*
X37927500Y27595000D01*
G75*
G02*
X38390000Y27132500I0J-462500D01*
G01*
X38390000Y26207500D01*
G75*
G02*
X37927500Y25745000I-462500J0D01*
G01*
X37002500Y25745000D01*
G75*
G02*
X36540000Y26207500I0J462500D01*
G01*
G37*
G36*
G01*
X39080000Y23667500D02*
X39080000Y24592500D01*
G75*
G02*
X39542500Y25055000I462500J0D01*
G01*
X40467500Y25055000D01*
G75*
G02*
X40930000Y24592500I0J-462500D01*
G01*
X40930000Y23667500D01*
G75*
G02*
X40467500Y23205000I-462500J0D01*
G01*
X39542500Y23205000D01*
G75*
G02*
X39080000Y23667500I0J462500D01*
G01*
G37*
G36*
G01*
X39080000Y26207500D02*
X39080000Y27132500D01*
G75*
G02*
X39542500Y27595000I462500J0D01*
G01*
X40467500Y27595000D01*
G75*
G02*
X40930000Y27132500I0J-462500D01*
G01*
X40930000Y26207500D01*
G75*
G02*
X40467500Y25745000I-462500J0D01*
G01*
X39542500Y25745000D01*
G75*
G02*
X39080000Y26207500I0J462500D01*
G01*
G37*
G36*
G01*
X36540000Y23667500D02*
X36540000Y24592500D01*
G75*
G02*
X37002500Y25055000I462500J0D01*
G01*
X37927500Y25055000D01*
G75*
G02*
X38390000Y24592500I0J-462500D01*
G01*
X38390000Y23667500D01*
G75*
G02*
X37927500Y23205000I-462500J0D01*
G01*
X37002500Y23205000D01*
G75*
G02*
X36540000Y23667500I0J462500D01*
G01*
G37*
G36*
G01*
X36540000Y5887500D02*
X36540000Y6812500D01*
G75*
G02*
X37002500Y7275000I462500J0D01*
G01*
X37927500Y7275000D01*
G75*
G02*
X38390000Y6812500I0J-462500D01*
G01*
X38390000Y5887500D01*
G75*
G02*
X37927500Y5425000I-462500J0D01*
G01*
X37002500Y5425000D01*
G75*
G02*
X36540000Y5887500I0J462500D01*
G01*
G37*
G36*
G01*
X36540000Y10967500D02*
X36540000Y11892500D01*
G75*
G02*
X37002500Y12355000I462500J0D01*
G01*
X37927500Y12355000D01*
G75*
G02*
X38390000Y11892500I0J-462500D01*
G01*
X38390000Y10967500D01*
G75*
G02*
X37927500Y10505000I-462500J0D01*
G01*
X37002500Y10505000D01*
G75*
G02*
X36540000Y10967500I0J462500D01*
G01*
G37*
G36*
G01*
X39080000Y5887500D02*
X39080000Y6812500D01*
G75*
G02*
X39542500Y7275000I462500J0D01*
G01*
X40467500Y7275000D01*
G75*
G02*
X40930000Y6812500I0J-462500D01*
G01*
X40930000Y5887500D01*
G75*
G02*
X40467500Y5425000I-462500J0D01*
G01*
X39542500Y5425000D01*
G75*
G02*
X39080000Y5887500I0J462500D01*
G01*
G37*
G36*
G01*
X36540000Y18587500D02*
X36540000Y19512500D01*
G75*
G02*
X37002500Y19975000I462500J0D01*
G01*
X37927500Y19975000D01*
G75*
G02*
X38390000Y19512500I0J-462500D01*
G01*
X38390000Y18587500D01*
G75*
G02*
X37927500Y18125000I-462500J0D01*
G01*
X37002500Y18125000D01*
G75*
G02*
X36540000Y18587500I0J462500D01*
G01*
G37*
G36*
G01*
X39080000Y16047500D02*
X39080000Y16972500D01*
G75*
G02*
X39542500Y17435000I462500J0D01*
G01*
X40467500Y17435000D01*
G75*
G02*
X40930000Y16972500I0J-462500D01*
G01*
X40930000Y16047500D01*
G75*
G02*
X40467500Y15585000I-462500J0D01*
G01*
X39542500Y15585000D01*
G75*
G02*
X39080000Y16047500I0J462500D01*
G01*
G37*
G36*
G01*
X39080000Y21127500D02*
X39080000Y22052500D01*
G75*
G02*
X39542500Y22515000I462500J0D01*
G01*
X40467500Y22515000D01*
G75*
G02*
X40930000Y22052500I0J-462500D01*
G01*
X40930000Y21127500D01*
G75*
G02*
X40467500Y20665000I-462500J0D01*
G01*
X39542500Y20665000D01*
G75*
G02*
X39080000Y21127500I0J462500D01*
G01*
G37*
G36*
G01*
X36540000Y16047500D02*
X36540000Y16972500D01*
G75*
G02*
X37002500Y17435000I462500J0D01*
G01*
X37927500Y17435000D01*
G75*
G02*
X38390000Y16972500I0J-462500D01*
G01*
X38390000Y16047500D01*
G75*
G02*
X37927500Y15585000I-462500J0D01*
G01*
X37002500Y15585000D01*
G75*
G02*
X36540000Y16047500I0J462500D01*
G01*
G37*
G36*
G01*
X39080000Y18587500D02*
X39080000Y19512500D01*
G75*
G02*
X39542500Y19975000I462500J0D01*
G01*
X40467500Y19975000D01*
G75*
G02*
X40930000Y19512500I0J-462500D01*
G01*
X40930000Y18587500D01*
G75*
G02*
X40467500Y18125000I-462500J0D01*
G01*
X39542500Y18125000D01*
G75*
G02*
X39080000Y18587500I0J462500D01*
G01*
G37*
G36*
G01*
X36540000Y8427500D02*
X36540000Y9352500D01*
G75*
G02*
X37002500Y9815000I462500J0D01*
G01*
X37927500Y9815000D01*
G75*
G02*
X38390000Y9352500I0J-462500D01*
G01*
X38390000Y8427500D01*
G75*
G02*
X37927500Y7965000I-462500J0D01*
G01*
X37002500Y7965000D01*
G75*
G02*
X36540000Y8427500I0J462500D01*
G01*
G37*
G36*
G01*
X39080000Y10967500D02*
X39080000Y11892500D01*
G75*
G02*
X39542500Y12355000I462500J0D01*
G01*
X40467500Y12355000D01*
G75*
G02*
X40930000Y11892500I0J-462500D01*
G01*
X40930000Y10967500D01*
G75*
G02*
X40467500Y10505000I-462500J0D01*
G01*
X39542500Y10505000D01*
G75*
G02*
X39080000Y10967500I0J462500D01*
G01*
G37*
G36*
G01*
X39080000Y13507500D02*
X39080000Y14432500D01*
G75*
G02*
X39542500Y14895000I462500J0D01*
G01*
X40467500Y14895000D01*
G75*
G02*
X40930000Y14432500I0J-462500D01*
G01*
X40930000Y13507500D01*
G75*
G02*
X40467500Y13045000I-462500J0D01*
G01*
X39542500Y13045000D01*
G75*
G02*
X39080000Y13507500I0J462500D01*
G01*
G37*
G36*
G01*
X39080000Y8427500D02*
X39080000Y9352500D01*
G75*
G02*
X39542500Y9815000I462500J0D01*
G01*
X40467500Y9815000D01*
G75*
G02*
X40930000Y9352500I0J-462500D01*
G01*
X40930000Y8427500D01*
G75*
G02*
X40467500Y7965000I-462500J0D01*
G01*
X39542500Y7965000D01*
G75*
G02*
X39080000Y8427500I0J462500D01*
G01*
G37*
G36*
G01*
X36540000Y13507500D02*
X36540000Y14432500D01*
G75*
G02*
X37002500Y14895000I462500J0D01*
G01*
X37927500Y14895000D01*
G75*
G02*
X38390000Y14432500I0J-462500D01*
G01*
X38390000Y13507500D01*
G75*
G02*
X37927500Y13045000I-462500J0D01*
G01*
X37002500Y13045000D01*
G75*
G02*
X36540000Y13507500I0J462500D01*
G01*
G37*
G36*
G01*
X36540000Y21127500D02*
X36540000Y22052500D01*
G75*
G02*
X37002500Y22515000I462500J0D01*
G01*
X37927500Y22515000D01*
G75*
G02*
X38390000Y22052500I0J-462500D01*
G01*
X38390000Y21127500D01*
G75*
G02*
X37927500Y20665000I-462500J0D01*
G01*
X37002500Y20665000D01*
G75*
G02*
X36540000Y21127500I0J462500D01*
G01*
G37*
G36*
G01*
X49378697Y4155068D02*
X49819932Y4596303D01*
G75*
G02*
X50510068Y4596303I345068J-345068D01*
G01*
X50951303Y4155068D01*
G75*
G02*
X50951303Y3464932I-345068J-345068D01*
G01*
X50510068Y3023697D01*
G75*
G02*
X49819932Y3023697I-345068J345068D01*
G01*
X49378697Y3464932D01*
G75*
G02*
X49378697Y4155068I345068J345068D01*
G01*
G37*
G36*
G01*
X49378697Y27015068D02*
X49819932Y27456303D01*
G75*
G02*
X50510068Y27456303I345068J-345068D01*
G01*
X50951303Y27015068D01*
G75*
G02*
X50951303Y26324932I-345068J-345068D01*
G01*
X50510068Y25883697D01*
G75*
G02*
X49819932Y25883697I-345068J345068D01*
G01*
X49378697Y26324932D01*
G75*
G02*
X49378697Y27015068I345068J345068D01*
G01*
G37*
G36*
G01*
X49378697Y24475068D02*
X49819932Y24916303D01*
G75*
G02*
X50510068Y24916303I345068J-345068D01*
G01*
X50951303Y24475068D01*
G75*
G02*
X50951303Y23784932I-345068J-345068D01*
G01*
X50510068Y23343697D01*
G75*
G02*
X49819932Y23343697I-345068J345068D01*
G01*
X49378697Y23784932D01*
G75*
G02*
X49378697Y24475068I345068J345068D01*
G01*
G37*
G36*
G01*
X49378697Y14315068D02*
X49819932Y14756303D01*
G75*
G02*
X50510068Y14756303I345068J-345068D01*
G01*
X50951303Y14315068D01*
G75*
G02*
X50951303Y13624932I-345068J-345068D01*
G01*
X50510068Y13183697D01*
G75*
G02*
X49819932Y13183697I-345068J345068D01*
G01*
X49378697Y13624932D01*
G75*
G02*
X49378697Y14315068I345068J345068D01*
G01*
G37*
G36*
G01*
X49378697Y19395068D02*
X49819932Y19836303D01*
G75*
G02*
X50510068Y19836303I345068J-345068D01*
G01*
X50951303Y19395068D01*
G75*
G02*
X50951303Y18704932I-345068J-345068D01*
G01*
X50510068Y18263697D01*
G75*
G02*
X49819932Y18263697I-345068J345068D01*
G01*
X49378697Y18704932D01*
G75*
G02*
X49378697Y19395068I345068J345068D01*
G01*
G37*
G36*
G01*
X49378697Y11775068D02*
X49819932Y12216303D01*
G75*
G02*
X50510068Y12216303I345068J-345068D01*
G01*
X50951303Y11775068D01*
G75*
G02*
X50951303Y11084932I-345068J-345068D01*
G01*
X50510068Y10643697D01*
G75*
G02*
X49819932Y10643697I-345068J345068D01*
G01*
X49378697Y11084932D01*
G75*
G02*
X49378697Y11775068I345068J345068D01*
G01*
G37*
G36*
G01*
X49378697Y6695068D02*
X49819932Y7136303D01*
G75*
G02*
X50510068Y7136303I345068J-345068D01*
G01*
X50951303Y6695068D01*
G75*
G02*
X50951303Y6004932I-345068J-345068D01*
G01*
X50510068Y5563697D01*
G75*
G02*
X49819932Y5563697I-345068J345068D01*
G01*
X49378697Y6004932D01*
G75*
G02*
X49378697Y6695068I345068J345068D01*
G01*
G37*
G36*
G01*
X49378697Y21935068D02*
X49819932Y22376303D01*
G75*
G02*
X50510068Y22376303I345068J-345068D01*
G01*
X50951303Y21935068D01*
G75*
G02*
X50951303Y21244932I-345068J-345068D01*
G01*
X50510068Y20803697D01*
G75*
G02*
X49819932Y20803697I-345068J345068D01*
G01*
X49378697Y21244932D01*
G75*
G02*
X49378697Y21935068I345068J345068D01*
G01*
G37*
G36*
G01*
X49378697Y16855068D02*
X49819932Y17296303D01*
G75*
G02*
X50510068Y17296303I345068J-345068D01*
G01*
X50951303Y16855068D01*
G75*
G02*
X50951303Y16164932I-345068J-345068D01*
G01*
X50510068Y15723697D01*
G75*
G02*
X49819932Y15723697I-345068J345068D01*
G01*
X49378697Y16164932D01*
G75*
G02*
X49378697Y16855068I345068J345068D01*
G01*
G37*
G36*
G01*
X49378697Y9235068D02*
X49819932Y9676303D01*
G75*
G02*
X50510068Y9676303I345068J-345068D01*
G01*
X50951303Y9235068D01*
G75*
G02*
X50951303Y8544932I-345068J-345068D01*
G01*
X50510068Y8103697D01*
G75*
G02*
X49819932Y8103697I-345068J345068D01*
G01*
X49378697Y8544932D01*
G75*
G02*
X49378697Y9235068I345068J345068D01*
G01*
G37*
G36*
G01*
X6522500Y2195000D02*
X7447500Y2195000D01*
G75*
G02*
X7910000Y1732500I0J-462500D01*
G01*
X7910000Y807500D01*
G75*
G02*
X7447500Y345000I-462500J0D01*
G01*
X6522500Y345000D01*
G75*
G02*
X6060000Y807500I0J462500D01*
G01*
X6060000Y1732500D01*
G75*
G02*
X6522500Y2195000I462500J0D01*
G01*
G37*
G36*
G01*
X72562500Y2195000D02*
X73487500Y2195000D01*
G75*
G02*
X73950000Y1732500I0J-462500D01*
G01*
X73950000Y807500D01*
G75*
G02*
X73487500Y345000I-462500J0D01*
G01*
X72562500Y345000D01*
G75*
G02*
X72100000Y807500I0J462500D01*
G01*
X72100000Y1732500D01*
G75*
G02*
X72562500Y2195000I462500J0D01*
G01*
G37*
G36*
G01*
X80182500Y7275000D02*
X81107500Y7275000D01*
G75*
G02*
X81570000Y6812500I0J-462500D01*
G01*
X81570000Y5887500D01*
G75*
G02*
X81107500Y5425000I-462500J0D01*
G01*
X80182500Y5425000D01*
G75*
G02*
X79720000Y5887500I0J462500D01*
G01*
X79720000Y6812500D01*
G75*
G02*
X80182500Y7275000I462500J0D01*
G01*
G37*
G36*
G01*
X79720000Y69387500D02*
X79720000Y70312500D01*
G75*
G02*
X80182500Y70775000I462500J0D01*
G01*
X81107500Y70775000D01*
G75*
G02*
X81570000Y70312500I0J-462500D01*
G01*
X81570000Y69387500D01*
G75*
G02*
X81107500Y68925000I-462500J0D01*
G01*
X80182500Y68925000D01*
G75*
G02*
X79720000Y69387500I0J462500D01*
G01*
G37*
G36*
G01*
X77180000Y71927500D02*
X77180000Y72852500D01*
G75*
G02*
X77642500Y73315000I462500J0D01*
G01*
X78567500Y73315000D01*
G75*
G02*
X79030000Y72852500I0J-462500D01*
G01*
X79030000Y71927500D01*
G75*
G02*
X78567500Y71465000I-462500J0D01*
G01*
X77642500Y71465000D01*
G75*
G02*
X77180000Y71927500I0J462500D01*
G01*
G37*
G36*
G01*
X49240000Y71927500D02*
X49240000Y72852500D01*
G75*
G02*
X49702500Y73315000I462500J0D01*
G01*
X50627500Y73315000D01*
G75*
G02*
X51090000Y72852500I0J-462500D01*
G01*
X51090000Y71927500D01*
G75*
G02*
X50627500Y71465000I-462500J0D01*
G01*
X49702500Y71465000D01*
G75*
G02*
X49240000Y71927500I0J462500D01*
G01*
G37*
G36*
G01*
X46700000Y69387500D02*
X46700000Y70312500D01*
G75*
G02*
X47162500Y70775000I462500J0D01*
G01*
X48087500Y70775000D01*
G75*
G02*
X48550000Y70312500I0J-462500D01*
G01*
X48550000Y69387500D01*
G75*
G02*
X48087500Y68925000I-462500J0D01*
G01*
X47162500Y68925000D01*
G75*
G02*
X46700000Y69387500I0J462500D01*
G01*
G37*
G36*
G01*
X77180000Y28747500D02*
X77180000Y29672500D01*
G75*
G02*
X77642500Y30135000I462500J0D01*
G01*
X78567500Y30135000D01*
G75*
G02*
X79030000Y29672500I0J-462500D01*
G01*
X79030000Y28747500D01*
G75*
G02*
X78567500Y28285000I-462500J0D01*
G01*
X77642500Y28285000D01*
G75*
G02*
X77180000Y28747500I0J462500D01*
G01*
G37*
G36*
G01*
X47162500Y32675000D02*
X48087500Y32675000D01*
G75*
G02*
X48550000Y32212500I0J-462500D01*
G01*
X48550000Y31287500D01*
G75*
G02*
X48087500Y30825000I-462500J0D01*
G01*
X47162500Y30825000D01*
G75*
G02*
X46700000Y31287500I0J462500D01*
G01*
X46700000Y32212500D01*
G75*
G02*
X47162500Y32675000I462500J0D01*
G01*
G37*
G36*
G01*
X-1097500Y27595000D02*
X-172500Y27595000D01*
G75*
G02*
X290000Y27132500I0J-462500D01*
G01*
X290000Y26207500D01*
G75*
G02*
X-172500Y25745000I-462500J0D01*
G01*
X-1097500Y25745000D01*
G75*
G02*
X-1560000Y26207500I0J462500D01*
G01*
X-1560000Y27132500D01*
G75*
G02*
X-1097500Y27595000I462500J0D01*
G01*
G37*
G36*
G01*
X-1097500Y7275000D02*
X-172500Y7275000D01*
G75*
G02*
X290000Y6812500I0J-462500D01*
G01*
X290000Y5887500D01*
G75*
G02*
X-172500Y5425000I-462500J0D01*
G01*
X-1097500Y5425000D01*
G75*
G02*
X-1560000Y5887500I0J462500D01*
G01*
X-1560000Y6812500D01*
G75*
G02*
X-1097500Y7275000I462500J0D01*
G01*
G37*
G36*
G01*
X980000Y28747500D02*
X980000Y29672500D01*
G75*
G02*
X1442500Y30135000I462500J0D01*
G01*
X2367500Y30135000D01*
G75*
G02*
X2830000Y29672500I0J-462500D01*
G01*
X2830000Y28747500D01*
G75*
G02*
X2367500Y28285000I-462500J0D01*
G01*
X1442500Y28285000D01*
G75*
G02*
X980000Y28747500I0J462500D01*
G01*
G37*
D11*
X4445000Y29210000D03*
X75565000Y72390000D03*
X52705000Y72390000D03*
X70485000Y72390000D03*
X73025000Y72390000D03*
X57785000Y72390000D03*
X60325000Y72390000D03*
X62865000Y72390000D03*
X65405000Y72390000D03*
X67945000Y72390000D03*
X55245000Y72390000D03*
D12*
X80645000Y67310000D03*
X47625000Y67310000D03*
D13*
X52705000Y67310000D03*
X50165000Y67310000D03*
G36*
G01*
X49240000Y66847500D02*
X49240000Y67772500D01*
G75*
G02*
X49702500Y68235000I462500J0D01*
G01*
X53167500Y68235000D01*
G75*
G02*
X53630000Y67772500I0J-462500D01*
G01*
X53630000Y66847500D01*
G75*
G02*
X53167500Y66385000I-462500J0D01*
G01*
X49702500Y66385000D01*
G75*
G02*
X49240000Y66847500I0J462500D01*
G01*
G37*
G36*
G01*
X61940000Y66847500D02*
X61940000Y67772500D01*
G75*
G02*
X62402500Y68235000I462500J0D01*
G01*
X63327500Y68235000D01*
G75*
G02*
X63790000Y67772500I0J-462500D01*
G01*
X63790000Y66847500D01*
G75*
G02*
X63327500Y66385000I-462500J0D01*
G01*
X62402500Y66385000D01*
G75*
G02*
X61940000Y66847500I0J462500D01*
G01*
G37*
G36*
G01*
X54320000Y66847500D02*
X54320000Y67772500D01*
G75*
G02*
X54782500Y68235000I462500J0D01*
G01*
X55707500Y68235000D01*
G75*
G02*
X56170000Y67772500I0J-462500D01*
G01*
X56170000Y66847500D01*
G75*
G02*
X55707500Y66385000I-462500J0D01*
G01*
X54782500Y66385000D01*
G75*
G02*
X54320000Y66847500I0J462500D01*
G01*
G37*
X75565000Y67310000D03*
G36*
G01*
X67020000Y66847500D02*
X67020000Y67772500D01*
G75*
G02*
X67482500Y68235000I462500J0D01*
G01*
X68407500Y68235000D01*
G75*
G02*
X68870000Y67772500I0J-462500D01*
G01*
X68870000Y66847500D01*
G75*
G02*
X68407500Y66385000I-462500J0D01*
G01*
X67482500Y66385000D01*
G75*
G02*
X67020000Y66847500I0J462500D01*
G01*
G37*
G36*
G01*
X72100000Y66847500D02*
X72100000Y67772500D01*
G75*
G02*
X72562500Y68235000I462500J0D01*
G01*
X73487500Y68235000D01*
G75*
G02*
X73950000Y67772500I0J-462500D01*
G01*
X73950000Y66847500D01*
G75*
G02*
X73487500Y66385000I-462500J0D01*
G01*
X72562500Y66385000D01*
G75*
G02*
X72100000Y66847500I0J462500D01*
G01*
G37*
G36*
G01*
X59400000Y66847500D02*
X59400000Y67772500D01*
G75*
G02*
X59862500Y68235000I462500J0D01*
G01*
X60787500Y68235000D01*
G75*
G02*
X61250000Y67772500I0J-462500D01*
G01*
X61250000Y66847500D01*
G75*
G02*
X60787500Y66385000I-462500J0D01*
G01*
X59862500Y66385000D01*
G75*
G02*
X59400000Y66847500I0J462500D01*
G01*
G37*
X78105000Y67310000D03*
G36*
G01*
X64480000Y66847500D02*
X64480000Y67772500D01*
G75*
G02*
X64942500Y68235000I462500J0D01*
G01*
X65867500Y68235000D01*
G75*
G02*
X66330000Y67772500I0J-462500D01*
G01*
X66330000Y66847500D01*
G75*
G02*
X65867500Y66385000I-462500J0D01*
G01*
X64942500Y66385000D01*
G75*
G02*
X64480000Y66847500I0J462500D01*
G01*
G37*
G36*
G01*
X56860000Y66847500D02*
X56860000Y67772500D01*
G75*
G02*
X57322500Y68235000I462500J0D01*
G01*
X58247500Y68235000D01*
G75*
G02*
X58710000Y67772500I0J-462500D01*
G01*
X58710000Y66847500D01*
G75*
G02*
X58247500Y66385000I-462500J0D01*
G01*
X57322500Y66385000D01*
G75*
G02*
X56860000Y66847500I0J462500D01*
G01*
G37*
G36*
G01*
X74640000Y66847500D02*
X74640000Y67772500D01*
G75*
G02*
X75102500Y68235000I462500J0D01*
G01*
X78567500Y68235000D01*
G75*
G02*
X79030000Y67772500I0J-462500D01*
G01*
X79030000Y66847500D01*
G75*
G02*
X78567500Y66385000I-462500J0D01*
G01*
X75102500Y66385000D01*
G75*
G02*
X74640000Y66847500I0J462500D01*
G01*
G37*
G36*
G01*
X69560000Y66847500D02*
X69560000Y67772500D01*
G75*
G02*
X70022500Y68235000I462500J0D01*
G01*
X70947500Y68235000D01*
G75*
G02*
X71410000Y67772500I0J-462500D01*
G01*
X71410000Y66847500D01*
G75*
G02*
X70947500Y66385000I-462500J0D01*
G01*
X70022500Y66385000D01*
G75*
G02*
X69560000Y66847500I0J462500D01*
G01*
G37*
G36*
G01*
X23978697Y4155068D02*
X24419932Y4596303D01*
G75*
G02*
X25110068Y4596303I345068J-345068D01*
G01*
X25551303Y4155068D01*
G75*
G02*
X25551303Y3464932I-345068J-345068D01*
G01*
X25110068Y3023697D01*
G75*
G02*
X24419932Y3023697I-345068J345068D01*
G01*
X23978697Y3464932D01*
G75*
G02*
X23978697Y4155068I345068J345068D01*
G01*
G37*
G36*
G01*
X23978697Y24475068D02*
X24419932Y24916303D01*
G75*
G02*
X25110068Y24916303I345068J-345068D01*
G01*
X25551303Y24475068D01*
G75*
G02*
X25551303Y23784932I-345068J-345068D01*
G01*
X25110068Y23343697D01*
G75*
G02*
X24419932Y23343697I-345068J345068D01*
G01*
X23978697Y23784932D01*
G75*
G02*
X23978697Y24475068I345068J345068D01*
G01*
G37*
G36*
G01*
X23978697Y27015068D02*
X24419932Y27456303D01*
G75*
G02*
X25110068Y27456303I345068J-345068D01*
G01*
X25551303Y27015068D01*
G75*
G02*
X25551303Y26324932I-345068J-345068D01*
G01*
X25110068Y25883697D01*
G75*
G02*
X24419932Y25883697I-345068J345068D01*
G01*
X23978697Y26324932D01*
G75*
G02*
X23978697Y27015068I345068J345068D01*
G01*
G37*
G36*
G01*
X23978697Y6695068D02*
X24419932Y7136303D01*
G75*
G02*
X25110068Y7136303I345068J-345068D01*
G01*
X25551303Y6695068D01*
G75*
G02*
X25551303Y6004932I-345068J-345068D01*
G01*
X25110068Y5563697D01*
G75*
G02*
X24419932Y5563697I-345068J345068D01*
G01*
X23978697Y6004932D01*
G75*
G02*
X23978697Y6695068I345068J345068D01*
G01*
G37*
G36*
G01*
X56998697Y4155068D02*
X57439932Y4596303D01*
G75*
G02*
X58130068Y4596303I345068J-345068D01*
G01*
X58571303Y4155068D01*
G75*
G02*
X58571303Y3464932I-345068J-345068D01*
G01*
X58130068Y3023697D01*
G75*
G02*
X57439932Y3023697I-345068J345068D01*
G01*
X56998697Y3464932D01*
G75*
G02*
X56998697Y4155068I345068J345068D01*
G01*
G37*
G36*
G01*
X51918697Y4155068D02*
X52359932Y4596303D01*
G75*
G02*
X53050068Y4596303I345068J-345068D01*
G01*
X53491303Y4155068D01*
G75*
G02*
X53491303Y3464932I-345068J-345068D01*
G01*
X53050068Y3023697D01*
G75*
G02*
X52359932Y3023697I-345068J345068D01*
G01*
X51918697Y3464932D01*
G75*
G02*
X51918697Y4155068I345068J345068D01*
G01*
G37*
G36*
G01*
X67158697Y4155068D02*
X67599932Y4596303D01*
G75*
G02*
X68290068Y4596303I345068J-345068D01*
G01*
X68731303Y4155068D01*
G75*
G02*
X68731303Y3464932I-345068J-345068D01*
G01*
X68290068Y3023697D01*
G75*
G02*
X67599932Y3023697I-345068J345068D01*
G01*
X67158697Y3464932D01*
G75*
G02*
X67158697Y4155068I345068J345068D01*
G01*
G37*
G36*
G01*
X6060000Y3347500D02*
X6060000Y4272500D01*
G75*
G02*
X6522500Y4735000I462500J0D01*
G01*
X7447500Y4735000D01*
G75*
G02*
X7910000Y4272500I0J-462500D01*
G01*
X7910000Y3347500D01*
G75*
G02*
X7447500Y2885000I-462500J0D01*
G01*
X6522500Y2885000D01*
G75*
G02*
X6060000Y3347500I0J462500D01*
G01*
G37*
G36*
G01*
X62078697Y4155068D02*
X62519932Y4596303D01*
G75*
G02*
X63210068Y4596303I345068J-345068D01*
G01*
X63651303Y4155068D01*
G75*
G02*
X63651303Y3464932I-345068J-345068D01*
G01*
X63210068Y3023697D01*
G75*
G02*
X62519932Y3023697I-345068J345068D01*
G01*
X62078697Y3464932D01*
G75*
G02*
X62078697Y4155068I345068J345068D01*
G01*
G37*
G36*
G01*
X54458697Y4155068D02*
X54899932Y4596303D01*
G75*
G02*
X55590068Y4596303I345068J-345068D01*
G01*
X56031303Y4155068D01*
G75*
G02*
X56031303Y3464932I-345068J-345068D01*
G01*
X55590068Y3023697D01*
G75*
G02*
X54899932Y3023697I-345068J345068D01*
G01*
X54458697Y3464932D01*
G75*
G02*
X54458697Y4155068I345068J345068D01*
G01*
G37*
G36*
G01*
X64618697Y4155068D02*
X65059932Y4596303D01*
G75*
G02*
X65750068Y4596303I345068J-345068D01*
G01*
X66191303Y4155068D01*
G75*
G02*
X66191303Y3464932I-345068J-345068D01*
G01*
X65750068Y3023697D01*
G75*
G02*
X65059932Y3023697I-345068J345068D01*
G01*
X64618697Y3464932D01*
G75*
G02*
X64618697Y4155068I345068J345068D01*
G01*
G37*
G36*
G01*
X21438697Y4155068D02*
X21879932Y4596303D01*
G75*
G02*
X22570068Y4596303I345068J-345068D01*
G01*
X23011303Y4155068D01*
G75*
G02*
X23011303Y3464932I-345068J-345068D01*
G01*
X22570068Y3023697D01*
G75*
G02*
X21879932Y3023697I-345068J345068D01*
G01*
X21438697Y3464932D01*
G75*
G02*
X21438697Y4155068I345068J345068D01*
G01*
G37*
G36*
G01*
X26518697Y4155068D02*
X26959932Y4596303D01*
G75*
G02*
X27650068Y4596303I345068J-345068D01*
G01*
X28091303Y4155068D01*
G75*
G02*
X28091303Y3464932I-345068J-345068D01*
G01*
X27650068Y3023697D01*
G75*
G02*
X26959932Y3023697I-345068J345068D01*
G01*
X26518697Y3464932D01*
G75*
G02*
X26518697Y4155068I345068J345068D01*
G01*
G37*
G36*
G01*
X29058697Y4155068D02*
X29499932Y4596303D01*
G75*
G02*
X30190068Y4596303I345068J-345068D01*
G01*
X30631303Y4155068D01*
G75*
G02*
X30631303Y3464932I-345068J-345068D01*
G01*
X30190068Y3023697D01*
G75*
G02*
X29499932Y3023697I-345068J345068D01*
G01*
X29058697Y3464932D01*
G75*
G02*
X29058697Y4155068I345068J345068D01*
G01*
G37*
G36*
G01*
X59538697Y4155068D02*
X59979932Y4596303D01*
G75*
G02*
X60670068Y4596303I345068J-345068D01*
G01*
X61111303Y4155068D01*
G75*
G02*
X61111303Y3464932I-345068J-345068D01*
G01*
X60670068Y3023697D01*
G75*
G02*
X59979932Y3023697I-345068J345068D01*
G01*
X59538697Y3464932D01*
G75*
G02*
X59538697Y4155068I345068J345068D01*
G01*
G37*
G36*
G01*
X18898697Y4155068D02*
X19339932Y4596303D01*
G75*
G02*
X20030068Y4596303I345068J-345068D01*
G01*
X20471303Y4155068D01*
G75*
G02*
X20471303Y3464932I-345068J-345068D01*
G01*
X20030068Y3023697D01*
G75*
G02*
X19339932Y3023697I-345068J345068D01*
G01*
X18898697Y3464932D01*
G75*
G02*
X18898697Y4155068I345068J345068D01*
G01*
G37*
G36*
G01*
X46700000Y3347500D02*
X46700000Y4272500D01*
G75*
G02*
X47162500Y4735000I462500J0D01*
G01*
X48087500Y4735000D01*
G75*
G02*
X48550000Y4272500I0J-462500D01*
G01*
X48550000Y3347500D01*
G75*
G02*
X48087500Y2885000I-462500J0D01*
G01*
X47162500Y2885000D01*
G75*
G02*
X46700000Y3347500I0J462500D01*
G01*
G37*
G36*
G01*
X13818697Y4155068D02*
X14259932Y4596303D01*
G75*
G02*
X14950068Y4596303I345068J-345068D01*
G01*
X15391303Y4155068D01*
G75*
G02*
X15391303Y3464932I-345068J-345068D01*
G01*
X14950068Y3023697D01*
G75*
G02*
X14259932Y3023697I-345068J345068D01*
G01*
X13818697Y3464932D01*
G75*
G02*
X13818697Y4155068I345068J345068D01*
G01*
G37*
G36*
G01*
X8600000Y3347500D02*
X8600000Y4272500D01*
G75*
G02*
X9062500Y4735000I462500J0D01*
G01*
X9987500Y4735000D01*
G75*
G02*
X10450000Y4272500I0J-462500D01*
G01*
X10450000Y3347500D01*
G75*
G02*
X9987500Y2885000I-462500J0D01*
G01*
X9062500Y2885000D01*
G75*
G02*
X8600000Y3347500I0J462500D01*
G01*
G37*
G36*
G01*
X16358697Y4155068D02*
X16799932Y4596303D01*
G75*
G02*
X17490068Y4596303I345068J-345068D01*
G01*
X17931303Y4155068D01*
G75*
G02*
X17931303Y3464932I-345068J-345068D01*
G01*
X17490068Y3023697D01*
G75*
G02*
X16799932Y3023697I-345068J345068D01*
G01*
X16358697Y3464932D01*
G75*
G02*
X16358697Y4155068I345068J345068D01*
G01*
G37*
G36*
G01*
X72100000Y3347500D02*
X72100000Y4272500D01*
G75*
G02*
X72562500Y4735000I462500J0D01*
G01*
X73487500Y4735000D01*
G75*
G02*
X73950000Y4272500I0J-462500D01*
G01*
X73950000Y3347500D01*
G75*
G02*
X73487500Y2885000I-462500J0D01*
G01*
X72562500Y2885000D01*
G75*
G02*
X72100000Y3347500I0J462500D01*
G01*
G37*
G36*
G01*
X34000000Y3347500D02*
X34000000Y4272500D01*
G75*
G02*
X34462500Y4735000I462500J0D01*
G01*
X35387500Y4735000D01*
G75*
G02*
X35850000Y4272500I0J-462500D01*
G01*
X35850000Y3347500D01*
G75*
G02*
X35387500Y2885000I-462500J0D01*
G01*
X34462500Y2885000D01*
G75*
G02*
X34000000Y3347500I0J462500D01*
G01*
G37*
G36*
G01*
X44160000Y3347500D02*
X44160000Y4272500D01*
G75*
G02*
X44622500Y4735000I462500J0D01*
G01*
X45547500Y4735000D01*
G75*
G02*
X46010000Y4272500I0J-462500D01*
G01*
X46010000Y3347500D01*
G75*
G02*
X45547500Y2885000I-462500J0D01*
G01*
X44622500Y2885000D01*
G75*
G02*
X44160000Y3347500I0J462500D01*
G01*
G37*
G36*
G01*
X31460000Y3347500D02*
X31460000Y4272500D01*
G75*
G02*
X31922500Y4735000I462500J0D01*
G01*
X32847500Y4735000D01*
G75*
G02*
X33310000Y4272500I0J-462500D01*
G01*
X33310000Y3347500D01*
G75*
G02*
X32847500Y2885000I-462500J0D01*
G01*
X31922500Y2885000D01*
G75*
G02*
X31460000Y3347500I0J462500D01*
G01*
G37*
G36*
G01*
X11278697Y4155068D02*
X11719932Y4596303D01*
G75*
G02*
X12410068Y4596303I345068J-345068D01*
G01*
X12851303Y4155068D01*
G75*
G02*
X12851303Y3464932I-345068J-345068D01*
G01*
X12410068Y3023697D01*
G75*
G02*
X11719932Y3023697I-345068J345068D01*
G01*
X11278697Y3464932D01*
G75*
G02*
X11278697Y4155068I345068J345068D01*
G01*
G37*
G36*
G01*
X69560000Y3347500D02*
X69560000Y4272500D01*
G75*
G02*
X70022500Y4735000I462500J0D01*
G01*
X70947500Y4735000D01*
G75*
G02*
X71410000Y4272500I0J-462500D01*
G01*
X71410000Y3347500D01*
G75*
G02*
X70947500Y2885000I-462500J0D01*
G01*
X70022500Y2885000D01*
G75*
G02*
X69560000Y3347500I0J462500D01*
G01*
G37*
D11*
X75565000Y29210000D03*
X70485000Y29210000D03*
X73025000Y29210000D03*
X55245000Y29210000D03*
X67945000Y29210000D03*
X47625000Y29210000D03*
X45085000Y29210000D03*
X50165000Y29210000D03*
X57785000Y29210000D03*
X62865000Y29210000D03*
X65405000Y29210000D03*
X60325000Y29210000D03*
X52705000Y29210000D03*
D12*
X-635000Y24130000D03*
G36*
G01*
X980000Y23667500D02*
X980000Y24592500D01*
G75*
G02*
X1442500Y25055000I462500J0D01*
G01*
X4907500Y25055000D01*
G75*
G02*
X5370000Y24592500I0J-462500D01*
G01*
X5370000Y23667500D01*
G75*
G02*
X4907500Y23205000I-462500J0D01*
G01*
X1442500Y23205000D01*
G75*
G02*
X980000Y23667500I0J462500D01*
G01*
G37*
G36*
G01*
X980000Y26207500D02*
X980000Y27132500D01*
G75*
G02*
X1442500Y27595000I462500J0D01*
G01*
X4907500Y27595000D01*
G75*
G02*
X5370000Y27132500I0J-462500D01*
G01*
X5370000Y26207500D01*
G75*
G02*
X4907500Y25745000I-462500J0D01*
G01*
X1442500Y25745000D01*
G75*
G02*
X980000Y26207500I0J462500D01*
G01*
G37*
D13*
X4445000Y26670000D03*
X1905000Y26670000D03*
X1905000Y24130000D03*
X4445000Y24130000D03*
G36*
G01*
X72100000Y23667500D02*
X72100000Y24592500D01*
G75*
G02*
X72562500Y25055000I462500J0D01*
G01*
X73487500Y25055000D01*
G75*
G02*
X73950000Y24592500I0J-462500D01*
G01*
X73950000Y23667500D01*
G75*
G02*
X73487500Y23205000I-462500J0D01*
G01*
X72562500Y23205000D01*
G75*
G02*
X72100000Y23667500I0J462500D01*
G01*
G37*
G36*
G01*
X18898697Y27015068D02*
X19339932Y27456303D01*
G75*
G02*
X20030068Y27456303I345068J-345068D01*
G01*
X20471303Y27015068D01*
G75*
G02*
X20471303Y26324932I-345068J-345068D01*
G01*
X20030068Y25883697D01*
G75*
G02*
X19339932Y25883697I-345068J345068D01*
G01*
X18898697Y26324932D01*
G75*
G02*
X18898697Y27015068I345068J345068D01*
G01*
G37*
G36*
G01*
X21438697Y24475068D02*
X21879932Y24916303D01*
G75*
G02*
X22570068Y24916303I345068J-345068D01*
G01*
X23011303Y24475068D01*
G75*
G02*
X23011303Y23784932I-345068J-345068D01*
G01*
X22570068Y23343697D01*
G75*
G02*
X21879932Y23343697I-345068J345068D01*
G01*
X21438697Y23784932D01*
G75*
G02*
X21438697Y24475068I345068J345068D01*
G01*
G37*
G36*
G01*
X11278697Y27015068D02*
X11719932Y27456303D01*
G75*
G02*
X12410068Y27456303I345068J-345068D01*
G01*
X12851303Y27015068D01*
G75*
G02*
X12851303Y26324932I-345068J-345068D01*
G01*
X12410068Y25883697D01*
G75*
G02*
X11719932Y25883697I-345068J345068D01*
G01*
X11278697Y26324932D01*
G75*
G02*
X11278697Y27015068I345068J345068D01*
G01*
G37*
G36*
G01*
X72100000Y26207500D02*
X72100000Y27132500D01*
G75*
G02*
X72562500Y27595000I462500J0D01*
G01*
X73487500Y27595000D01*
G75*
G02*
X73950000Y27132500I0J-462500D01*
G01*
X73950000Y26207500D01*
G75*
G02*
X73487500Y25745000I-462500J0D01*
G01*
X72562500Y25745000D01*
G75*
G02*
X72100000Y26207500I0J462500D01*
G01*
G37*
G36*
G01*
X11278697Y24475068D02*
X11719932Y24916303D01*
G75*
G02*
X12410068Y24916303I345068J-345068D01*
G01*
X12851303Y24475068D01*
G75*
G02*
X12851303Y23784932I-345068J-345068D01*
G01*
X12410068Y23343697D01*
G75*
G02*
X11719932Y23343697I-345068J345068D01*
G01*
X11278697Y23784932D01*
G75*
G02*
X11278697Y24475068I345068J345068D01*
G01*
G37*
G36*
G01*
X18898697Y24475068D02*
X19339932Y24916303D01*
G75*
G02*
X20030068Y24916303I345068J-345068D01*
G01*
X20471303Y24475068D01*
G75*
G02*
X20471303Y23784932I-345068J-345068D01*
G01*
X20030068Y23343697D01*
G75*
G02*
X19339932Y23343697I-345068J345068D01*
G01*
X18898697Y23784932D01*
G75*
G02*
X18898697Y24475068I345068J345068D01*
G01*
G37*
G36*
G01*
X21438697Y27015068D02*
X21879932Y27456303D01*
G75*
G02*
X22570068Y27456303I345068J-345068D01*
G01*
X23011303Y27015068D01*
G75*
G02*
X23011303Y26324932I-345068J-345068D01*
G01*
X22570068Y25883697D01*
G75*
G02*
X21879932Y25883697I-345068J345068D01*
G01*
X21438697Y26324932D01*
G75*
G02*
X21438697Y27015068I345068J345068D01*
G01*
G37*
G36*
G01*
X34000000Y26207500D02*
X34000000Y27132500D01*
G75*
G02*
X34462500Y27595000I462500J0D01*
G01*
X35387500Y27595000D01*
G75*
G02*
X35850000Y27132500I0J-462500D01*
G01*
X35850000Y26207500D01*
G75*
G02*
X35387500Y25745000I-462500J0D01*
G01*
X34462500Y25745000D01*
G75*
G02*
X34000000Y26207500I0J462500D01*
G01*
G37*
G36*
G01*
X8600000Y23667500D02*
X8600000Y24592500D01*
G75*
G02*
X9062500Y25055000I462500J0D01*
G01*
X9987500Y25055000D01*
G75*
G02*
X10450000Y24592500I0J-462500D01*
G01*
X10450000Y23667500D01*
G75*
G02*
X9987500Y23205000I-462500J0D01*
G01*
X9062500Y23205000D01*
G75*
G02*
X8600000Y23667500I0J462500D01*
G01*
G37*
G36*
G01*
X34000000Y23667500D02*
X34000000Y24592500D01*
G75*
G02*
X34462500Y25055000I462500J0D01*
G01*
X35387500Y25055000D01*
G75*
G02*
X35850000Y24592500I0J-462500D01*
G01*
X35850000Y23667500D01*
G75*
G02*
X35387500Y23205000I-462500J0D01*
G01*
X34462500Y23205000D01*
G75*
G02*
X34000000Y23667500I0J462500D01*
G01*
G37*
G36*
G01*
X16358697Y24475068D02*
X16799932Y24916303D01*
G75*
G02*
X17490068Y24916303I345068J-345068D01*
G01*
X17931303Y24475068D01*
G75*
G02*
X17931303Y23784932I-345068J-345068D01*
G01*
X17490068Y23343697D01*
G75*
G02*
X16799932Y23343697I-345068J345068D01*
G01*
X16358697Y23784932D01*
G75*
G02*
X16358697Y24475068I345068J345068D01*
G01*
G37*
G36*
G01*
X13818697Y24475068D02*
X14259932Y24916303D01*
G75*
G02*
X14950068Y24916303I345068J-345068D01*
G01*
X15391303Y24475068D01*
G75*
G02*
X15391303Y23784932I-345068J-345068D01*
G01*
X14950068Y23343697D01*
G75*
G02*
X14259932Y23343697I-345068J345068D01*
G01*
X13818697Y23784932D01*
G75*
G02*
X13818697Y24475068I345068J345068D01*
G01*
G37*
G36*
G01*
X6060000Y26207500D02*
X6060000Y27132500D01*
G75*
G02*
X6522500Y27595000I462500J0D01*
G01*
X7447500Y27595000D01*
G75*
G02*
X7910000Y27132500I0J-462500D01*
G01*
X7910000Y26207500D01*
G75*
G02*
X7447500Y25745000I-462500J0D01*
G01*
X6522500Y25745000D01*
G75*
G02*
X6060000Y26207500I0J462500D01*
G01*
G37*
G36*
G01*
X6060000Y23667500D02*
X6060000Y24592500D01*
G75*
G02*
X6522500Y25055000I462500J0D01*
G01*
X7447500Y25055000D01*
G75*
G02*
X7910000Y24592500I0J-462500D01*
G01*
X7910000Y23667500D01*
G75*
G02*
X7447500Y23205000I-462500J0D01*
G01*
X6522500Y23205000D01*
G75*
G02*
X6060000Y23667500I0J462500D01*
G01*
G37*
G36*
G01*
X8600000Y26207500D02*
X8600000Y27132500D01*
G75*
G02*
X9062500Y27595000I462500J0D01*
G01*
X9987500Y27595000D01*
G75*
G02*
X10450000Y27132500I0J-462500D01*
G01*
X10450000Y26207500D01*
G75*
G02*
X9987500Y25745000I-462500J0D01*
G01*
X9062500Y25745000D01*
G75*
G02*
X8600000Y26207500I0J462500D01*
G01*
G37*
G36*
G01*
X13818697Y27015068D02*
X14259932Y27456303D01*
G75*
G02*
X14950068Y27456303I345068J-345068D01*
G01*
X15391303Y27015068D01*
G75*
G02*
X15391303Y26324932I-345068J-345068D01*
G01*
X14950068Y25883697D01*
G75*
G02*
X14259932Y25883697I-345068J345068D01*
G01*
X13818697Y26324932D01*
G75*
G02*
X13818697Y27015068I345068J345068D01*
G01*
G37*
G36*
G01*
X31460000Y23667500D02*
X31460000Y24592500D01*
G75*
G02*
X31922500Y25055000I462500J0D01*
G01*
X32847500Y25055000D01*
G75*
G02*
X33310000Y24592500I0J-462500D01*
G01*
X33310000Y23667500D01*
G75*
G02*
X32847500Y23205000I-462500J0D01*
G01*
X31922500Y23205000D01*
G75*
G02*
X31460000Y23667500I0J462500D01*
G01*
G37*
G36*
G01*
X16358697Y27015068D02*
X16799932Y27456303D01*
G75*
G02*
X17490068Y27456303I345068J-345068D01*
G01*
X17931303Y27015068D01*
G75*
G02*
X17931303Y26324932I-345068J-345068D01*
G01*
X17490068Y25883697D01*
G75*
G02*
X16799932Y25883697I-345068J345068D01*
G01*
X16358697Y26324932D01*
G75*
G02*
X16358697Y27015068I345068J345068D01*
G01*
G37*
G36*
G01*
X31460000Y26207500D02*
X31460000Y27132500D01*
G75*
G02*
X31922500Y27595000I462500J0D01*
G01*
X32847500Y27595000D01*
G75*
G02*
X33310000Y27132500I0J-462500D01*
G01*
X33310000Y26207500D01*
G75*
G02*
X32847500Y25745000I-462500J0D01*
G01*
X31922500Y25745000D01*
G75*
G02*
X31460000Y26207500I0J462500D01*
G01*
G37*
G36*
G01*
X69560000Y26207500D02*
X69560000Y27132500D01*
G75*
G02*
X70022500Y27595000I462500J0D01*
G01*
X70947500Y27595000D01*
G75*
G02*
X71410000Y27132500I0J-462500D01*
G01*
X71410000Y26207500D01*
G75*
G02*
X70947500Y25745000I-462500J0D01*
G01*
X70022500Y25745000D01*
G75*
G02*
X69560000Y26207500I0J462500D01*
G01*
G37*
G36*
G01*
X46700000Y23667500D02*
X46700000Y24592500D01*
G75*
G02*
X47162500Y25055000I462500J0D01*
G01*
X48087500Y25055000D01*
G75*
G02*
X48550000Y24592500I0J-462500D01*
G01*
X48550000Y23667500D01*
G75*
G02*
X48087500Y23205000I-462500J0D01*
G01*
X47162500Y23205000D01*
G75*
G02*
X46700000Y23667500I0J462500D01*
G01*
G37*
G36*
G01*
X69560000Y23667500D02*
X69560000Y24592500D01*
G75*
G02*
X70022500Y25055000I462500J0D01*
G01*
X70947500Y25055000D01*
G75*
G02*
X71410000Y24592500I0J-462500D01*
G01*
X71410000Y23667500D01*
G75*
G02*
X70947500Y23205000I-462500J0D01*
G01*
X70022500Y23205000D01*
G75*
G02*
X69560000Y23667500I0J462500D01*
G01*
G37*
G36*
G01*
X44160000Y23667500D02*
X44160000Y24592500D01*
G75*
G02*
X44622500Y25055000I462500J0D01*
G01*
X45547500Y25055000D01*
G75*
G02*
X46010000Y24592500I0J-462500D01*
G01*
X46010000Y23667500D01*
G75*
G02*
X45547500Y23205000I-462500J0D01*
G01*
X44622500Y23205000D01*
G75*
G02*
X44160000Y23667500I0J462500D01*
G01*
G37*
G36*
G01*
X46700000Y26207500D02*
X46700000Y27132500D01*
G75*
G02*
X47162500Y27595000I462500J0D01*
G01*
X48087500Y27595000D01*
G75*
G02*
X48550000Y27132500I0J-462500D01*
G01*
X48550000Y26207500D01*
G75*
G02*
X48087500Y25745000I-462500J0D01*
G01*
X47162500Y25745000D01*
G75*
G02*
X46700000Y26207500I0J462500D01*
G01*
G37*
G36*
G01*
X44160000Y26207500D02*
X44160000Y27132500D01*
G75*
G02*
X44622500Y27595000I462500J0D01*
G01*
X45547500Y27595000D01*
G75*
G02*
X46010000Y27132500I0J-462500D01*
G01*
X46010000Y26207500D01*
G75*
G02*
X45547500Y25745000I-462500J0D01*
G01*
X44622500Y25745000D01*
G75*
G02*
X44160000Y26207500I0J462500D01*
G01*
G37*
X52705000Y36830000D03*
G36*
G01*
X49240000Y36367500D02*
X49240000Y37292500D01*
G75*
G02*
X49702500Y37755000I462500J0D01*
G01*
X53167500Y37755000D01*
G75*
G02*
X53630000Y37292500I0J-462500D01*
G01*
X53630000Y36367500D01*
G75*
G02*
X53167500Y35905000I-462500J0D01*
G01*
X49702500Y35905000D01*
G75*
G02*
X49240000Y36367500I0J462500D01*
G01*
G37*
X50165000Y36830000D03*
G36*
G01*
X49240000Y33827500D02*
X49240000Y34752500D01*
G75*
G02*
X49702500Y35215000I462500J0D01*
G01*
X53167500Y35215000D01*
G75*
G02*
X53630000Y34752500I0J-462500D01*
G01*
X53630000Y33827500D01*
G75*
G02*
X53167500Y33365000I-462500J0D01*
G01*
X49702500Y33365000D01*
G75*
G02*
X49240000Y33827500I0J462500D01*
G01*
G37*
X52705000Y34290000D03*
X50165000Y34290000D03*
X50165000Y31750000D03*
X52705000Y31750000D03*
G36*
G01*
X49240000Y31287500D02*
X49240000Y32212500D01*
G75*
G02*
X49702500Y32675000I462500J0D01*
G01*
X53167500Y32675000D01*
G75*
G02*
X53630000Y32212500I0J-462500D01*
G01*
X53630000Y31287500D01*
G75*
G02*
X53167500Y30825000I-462500J0D01*
G01*
X49702500Y30825000D01*
G75*
G02*
X49240000Y31287500I0J462500D01*
G01*
G37*
X50165000Y44450000D03*
X52705000Y44450000D03*
G36*
G01*
X49240000Y46527500D02*
X49240000Y47452500D01*
G75*
G02*
X49702500Y47915000I462500J0D01*
G01*
X53167500Y47915000D01*
G75*
G02*
X53630000Y47452500I0J-462500D01*
G01*
X53630000Y46527500D01*
G75*
G02*
X53167500Y46065000I-462500J0D01*
G01*
X49702500Y46065000D01*
G75*
G02*
X49240000Y46527500I0J462500D01*
G01*
G37*
X52705000Y46990000D03*
X50165000Y46990000D03*
G36*
G01*
X49240000Y41447500D02*
X49240000Y42372500D01*
G75*
G02*
X49702500Y42835000I462500J0D01*
G01*
X53167500Y42835000D01*
G75*
G02*
X53630000Y42372500I0J-462500D01*
G01*
X53630000Y41447500D01*
G75*
G02*
X53167500Y40985000I-462500J0D01*
G01*
X49702500Y40985000D01*
G75*
G02*
X49240000Y41447500I0J462500D01*
G01*
G37*
G36*
G01*
X49240000Y43987500D02*
X49240000Y44912500D01*
G75*
G02*
X49702500Y45375000I462500J0D01*
G01*
X53167500Y45375000D01*
G75*
G02*
X53630000Y44912500I0J-462500D01*
G01*
X53630000Y43987500D01*
G75*
G02*
X53167500Y43525000I-462500J0D01*
G01*
X49702500Y43525000D01*
G75*
G02*
X49240000Y43987500I0J462500D01*
G01*
G37*
G36*
G01*
X49240000Y38907500D02*
X49240000Y39832500D01*
G75*
G02*
X49702500Y40295000I462500J0D01*
G01*
X53167500Y40295000D01*
G75*
G02*
X53630000Y39832500I0J-462500D01*
G01*
X53630000Y38907500D01*
G75*
G02*
X53167500Y38445000I-462500J0D01*
G01*
X49702500Y38445000D01*
G75*
G02*
X49240000Y38907500I0J462500D01*
G01*
G37*
X50165000Y39370000D03*
X52705000Y41910000D03*
X52705000Y39370000D03*
X50165000Y41910000D03*
D12*
X47625000Y34290000D03*
X47625000Y36830000D03*
X47625000Y59690000D03*
X47625000Y41910000D03*
X47625000Y49530000D03*
X47625000Y62230000D03*
X47625000Y54610000D03*
X47625000Y57150000D03*
X47625000Y64770000D03*
X47625000Y44450000D03*
X47625000Y46990000D03*
X47625000Y39370000D03*
X47625000Y52070000D03*
D13*
X52705000Y57150000D03*
X50165000Y57150000D03*
X50165000Y49530000D03*
X52705000Y49530000D03*
G36*
G01*
X49240000Y51607500D02*
X49240000Y52532500D01*
G75*
G02*
X49702500Y52995000I462500J0D01*
G01*
X53167500Y52995000D01*
G75*
G02*
X53630000Y52532500I0J-462500D01*
G01*
X53630000Y51607500D01*
G75*
G02*
X53167500Y51145000I-462500J0D01*
G01*
X49702500Y51145000D01*
G75*
G02*
X49240000Y51607500I0J462500D01*
G01*
G37*
X52705000Y54610000D03*
X50165000Y54610000D03*
G36*
G01*
X49240000Y54147500D02*
X49240000Y55072500D01*
G75*
G02*
X49702500Y55535000I462500J0D01*
G01*
X53167500Y55535000D01*
G75*
G02*
X53630000Y55072500I0J-462500D01*
G01*
X53630000Y54147500D01*
G75*
G02*
X53167500Y53685000I-462500J0D01*
G01*
X49702500Y53685000D01*
G75*
G02*
X49240000Y54147500I0J462500D01*
G01*
G37*
G36*
G01*
X49240000Y49067500D02*
X49240000Y49992500D01*
G75*
G02*
X49702500Y50455000I462500J0D01*
G01*
X53167500Y50455000D01*
G75*
G02*
X53630000Y49992500I0J-462500D01*
G01*
X53630000Y49067500D01*
G75*
G02*
X53167500Y48605000I-462500J0D01*
G01*
X49702500Y48605000D01*
G75*
G02*
X49240000Y49067500I0J462500D01*
G01*
G37*
X52705000Y52070000D03*
X50165000Y52070000D03*
G36*
G01*
X49240000Y56687500D02*
X49240000Y57612500D01*
G75*
G02*
X49702500Y58075000I462500J0D01*
G01*
X53167500Y58075000D01*
G75*
G02*
X53630000Y57612500I0J-462500D01*
G01*
X53630000Y56687500D01*
G75*
G02*
X53167500Y56225000I-462500J0D01*
G01*
X49702500Y56225000D01*
G75*
G02*
X49240000Y56687500I0J462500D01*
G01*
G37*
X50165000Y62230000D03*
G36*
G01*
X49240000Y64307500D02*
X49240000Y65232500D01*
G75*
G02*
X49702500Y65695000I462500J0D01*
G01*
X53167500Y65695000D01*
G75*
G02*
X53630000Y65232500I0J-462500D01*
G01*
X53630000Y64307500D01*
G75*
G02*
X53167500Y63845000I-462500J0D01*
G01*
X49702500Y63845000D01*
G75*
G02*
X49240000Y64307500I0J462500D01*
G01*
G37*
X52705000Y59690000D03*
G36*
G01*
X49240000Y61767500D02*
X49240000Y62692500D01*
G75*
G02*
X49702500Y63155000I462500J0D01*
G01*
X53167500Y63155000D01*
G75*
G02*
X53630000Y62692500I0J-462500D01*
G01*
X53630000Y61767500D01*
G75*
G02*
X53167500Y61305000I-462500J0D01*
G01*
X49702500Y61305000D01*
G75*
G02*
X49240000Y61767500I0J462500D01*
G01*
G37*
X50165000Y64770000D03*
G36*
G01*
X49240000Y59227500D02*
X49240000Y60152500D01*
G75*
G02*
X49702500Y60615000I462500J0D01*
G01*
X53167500Y60615000D01*
G75*
G02*
X53630000Y60152500I0J-462500D01*
G01*
X53630000Y59227500D01*
G75*
G02*
X53167500Y58765000I-462500J0D01*
G01*
X49702500Y58765000D01*
G75*
G02*
X49240000Y59227500I0J462500D01*
G01*
G37*
G36*
G01*
X49240000Y69387500D02*
X49240000Y70312500D01*
G75*
G02*
X49702500Y70775000I462500J0D01*
G01*
X53167500Y70775000D01*
G75*
G02*
X53630000Y70312500I0J-462500D01*
G01*
X53630000Y69387500D01*
G75*
G02*
X53167500Y68925000I-462500J0D01*
G01*
X49702500Y68925000D01*
G75*
G02*
X49240000Y69387500I0J462500D01*
G01*
G37*
X52705000Y62230000D03*
X50165000Y59690000D03*
X52705000Y69850000D03*
X52705000Y64770000D03*
X50165000Y69850000D03*
D11*
X70485000Y1270000D03*
D12*
X-635000Y8890000D03*
X-635000Y13970000D03*
X-635000Y16510000D03*
X-635000Y21590000D03*
X-635000Y11430000D03*
X-635000Y19050000D03*
G36*
G01*
X980000Y8427500D02*
X980000Y9352500D01*
G75*
G02*
X1442500Y9815000I462500J0D01*
G01*
X4907500Y9815000D01*
G75*
G02*
X5370000Y9352500I0J-462500D01*
G01*
X5370000Y8427500D01*
G75*
G02*
X4907500Y7965000I-462500J0D01*
G01*
X1442500Y7965000D01*
G75*
G02*
X980000Y8427500I0J462500D01*
G01*
G37*
D13*
X1905000Y6350000D03*
X4445000Y8890000D03*
X1905000Y8890000D03*
X4445000Y6350000D03*
G36*
G01*
X980000Y5887500D02*
X980000Y6812500D01*
G75*
G02*
X1442500Y7275000I462500J0D01*
G01*
X4907500Y7275000D01*
G75*
G02*
X5370000Y6812500I0J-462500D01*
G01*
X5370000Y5887500D01*
G75*
G02*
X4907500Y5425000I-462500J0D01*
G01*
X1442500Y5425000D01*
G75*
G02*
X980000Y5887500I0J462500D01*
G01*
G37*
G36*
G01*
X980000Y18587500D02*
X980000Y19512500D01*
G75*
G02*
X1442500Y19975000I462500J0D01*
G01*
X4907500Y19975000D01*
G75*
G02*
X5370000Y19512500I0J-462500D01*
G01*
X5370000Y18587500D01*
G75*
G02*
X4907500Y18125000I-462500J0D01*
G01*
X1442500Y18125000D01*
G75*
G02*
X980000Y18587500I0J462500D01*
G01*
G37*
X1905000Y11430000D03*
X1905000Y19050000D03*
G36*
G01*
X980000Y10967500D02*
X980000Y11892500D01*
G75*
G02*
X1442500Y12355000I462500J0D01*
G01*
X4907500Y12355000D01*
G75*
G02*
X5370000Y11892500I0J-462500D01*
G01*
X5370000Y10967500D01*
G75*
G02*
X4907500Y10505000I-462500J0D01*
G01*
X1442500Y10505000D01*
G75*
G02*
X980000Y10967500I0J462500D01*
G01*
G37*
X1905000Y16510000D03*
G36*
G01*
X980000Y13507500D02*
X980000Y14432500D01*
G75*
G02*
X1442500Y14895000I462500J0D01*
G01*
X4907500Y14895000D01*
G75*
G02*
X5370000Y14432500I0J-462500D01*
G01*
X5370000Y13507500D01*
G75*
G02*
X4907500Y13045000I-462500J0D01*
G01*
X1442500Y13045000D01*
G75*
G02*
X980000Y13507500I0J462500D01*
G01*
G37*
X1905000Y13970000D03*
X4445000Y19050000D03*
X4445000Y16510000D03*
G36*
G01*
X980000Y16047500D02*
X980000Y16972500D01*
G75*
G02*
X1442500Y17435000I462500J0D01*
G01*
X4907500Y17435000D01*
G75*
G02*
X5370000Y16972500I0J-462500D01*
G01*
X5370000Y16047500D01*
G75*
G02*
X4907500Y15585000I-462500J0D01*
G01*
X1442500Y15585000D01*
G75*
G02*
X980000Y16047500I0J462500D01*
G01*
G37*
X4445000Y11430000D03*
X4445000Y13970000D03*
X1905000Y21590000D03*
G36*
G01*
X980000Y21127500D02*
X980000Y22052500D01*
G75*
G02*
X1442500Y22515000I462500J0D01*
G01*
X4907500Y22515000D01*
G75*
G02*
X5370000Y22052500I0J-462500D01*
G01*
X5370000Y21127500D01*
G75*
G02*
X4907500Y20665000I-462500J0D01*
G01*
X1442500Y20665000D01*
G75*
G02*
X980000Y21127500I0J462500D01*
G01*
G37*
X4445000Y21590000D03*
G36*
G01*
X74640000Y5887500D02*
X74640000Y6812500D01*
G75*
G02*
X75102500Y7275000I462500J0D01*
G01*
X78567500Y7275000D01*
G75*
G02*
X79030000Y6812500I0J-462500D01*
G01*
X79030000Y5887500D01*
G75*
G02*
X78567500Y5425000I-462500J0D01*
G01*
X75102500Y5425000D01*
G75*
G02*
X74640000Y5887500I0J462500D01*
G01*
G37*
X75565000Y8890000D03*
X75565000Y6350000D03*
G36*
G01*
X74640000Y8427500D02*
X74640000Y9352500D01*
G75*
G02*
X75102500Y9815000I462500J0D01*
G01*
X78567500Y9815000D01*
G75*
G02*
X79030000Y9352500I0J-462500D01*
G01*
X79030000Y8427500D01*
G75*
G02*
X78567500Y7965000I-462500J0D01*
G01*
X75102500Y7965000D01*
G75*
G02*
X74640000Y8427500I0J462500D01*
G01*
G37*
X78105000Y6350000D03*
X78105000Y8890000D03*
X75565000Y11430000D03*
X75565000Y16510000D03*
G36*
G01*
X74640000Y13507500D02*
X74640000Y14432500D01*
G75*
G02*
X75102500Y14895000I462500J0D01*
G01*
X78567500Y14895000D01*
G75*
G02*
X79030000Y14432500I0J-462500D01*
G01*
X79030000Y13507500D01*
G75*
G02*
X78567500Y13045000I-462500J0D01*
G01*
X75102500Y13045000D01*
G75*
G02*
X74640000Y13507500I0J462500D01*
G01*
G37*
G36*
G01*
X74640000Y10967500D02*
X74640000Y11892500D01*
G75*
G02*
X75102500Y12355000I462500J0D01*
G01*
X78567500Y12355000D01*
G75*
G02*
X79030000Y11892500I0J-462500D01*
G01*
X79030000Y10967500D01*
G75*
G02*
X78567500Y10505000I-462500J0D01*
G01*
X75102500Y10505000D01*
G75*
G02*
X74640000Y10967500I0J462500D01*
G01*
G37*
X75565000Y13970000D03*
X78105000Y16510000D03*
X75565000Y19050000D03*
G36*
G01*
X74640000Y16047500D02*
X74640000Y16972500D01*
G75*
G02*
X75102500Y17435000I462500J0D01*
G01*
X78567500Y17435000D01*
G75*
G02*
X79030000Y16972500I0J-462500D01*
G01*
X79030000Y16047500D01*
G75*
G02*
X78567500Y15585000I-462500J0D01*
G01*
X75102500Y15585000D01*
G75*
G02*
X74640000Y16047500I0J462500D01*
G01*
G37*
X78105000Y11430000D03*
X78105000Y13970000D03*
X78105000Y19050000D03*
G36*
G01*
X74640000Y18587500D02*
X74640000Y19512500D01*
G75*
G02*
X75102500Y19975000I462500J0D01*
G01*
X78567500Y19975000D01*
G75*
G02*
X79030000Y19512500I0J-462500D01*
G01*
X79030000Y18587500D01*
G75*
G02*
X78567500Y18125000I-462500J0D01*
G01*
X75102500Y18125000D01*
G75*
G02*
X74640000Y18587500I0J462500D01*
G01*
G37*
G36*
G01*
X74640000Y23667500D02*
X74640000Y24592500D01*
G75*
G02*
X75102500Y25055000I462500J0D01*
G01*
X78567500Y25055000D01*
G75*
G02*
X79030000Y24592500I0J-462500D01*
G01*
X79030000Y23667500D01*
G75*
G02*
X78567500Y23205000I-462500J0D01*
G01*
X75102500Y23205000D01*
G75*
G02*
X74640000Y23667500I0J462500D01*
G01*
G37*
G36*
G01*
X74640000Y21127500D02*
X74640000Y22052500D01*
G75*
G02*
X75102500Y22515000I462500J0D01*
G01*
X78567500Y22515000D01*
G75*
G02*
X79030000Y22052500I0J-462500D01*
G01*
X79030000Y21127500D01*
G75*
G02*
X78567500Y20665000I-462500J0D01*
G01*
X75102500Y20665000D01*
G75*
G02*
X74640000Y21127500I0J462500D01*
G01*
G37*
X78105000Y26670000D03*
G36*
G01*
X74640000Y26207500D02*
X74640000Y27132500D01*
G75*
G02*
X75102500Y27595000I462500J0D01*
G01*
X78567500Y27595000D01*
G75*
G02*
X79030000Y27132500I0J-462500D01*
G01*
X79030000Y26207500D01*
G75*
G02*
X78567500Y25745000I-462500J0D01*
G01*
X75102500Y25745000D01*
G75*
G02*
X74640000Y26207500I0J462500D01*
G01*
G37*
X78105000Y24130000D03*
X75565000Y21590000D03*
X75565000Y24130000D03*
X78105000Y21590000D03*
X75565000Y26670000D03*
X78105000Y36830000D03*
G36*
G01*
X74640000Y33827500D02*
X74640000Y34752500D01*
G75*
G02*
X75102500Y35215000I462500J0D01*
G01*
X78567500Y35215000D01*
G75*
G02*
X79030000Y34752500I0J-462500D01*
G01*
X79030000Y33827500D01*
G75*
G02*
X78567500Y33365000I-462500J0D01*
G01*
X75102500Y33365000D01*
G75*
G02*
X74640000Y33827500I0J462500D01*
G01*
G37*
X75565000Y39370000D03*
G36*
G01*
X74640000Y36367500D02*
X74640000Y37292500D01*
G75*
G02*
X75102500Y37755000I462500J0D01*
G01*
X78567500Y37755000D01*
G75*
G02*
X79030000Y37292500I0J-462500D01*
G01*
X79030000Y36367500D01*
G75*
G02*
X78567500Y35905000I-462500J0D01*
G01*
X75102500Y35905000D01*
G75*
G02*
X74640000Y36367500I0J462500D01*
G01*
G37*
X78105000Y34290000D03*
G36*
G01*
X74640000Y38907500D02*
X74640000Y39832500D01*
G75*
G02*
X75102500Y40295000I462500J0D01*
G01*
X78567500Y40295000D01*
G75*
G02*
X79030000Y39832500I0J-462500D01*
G01*
X79030000Y38907500D01*
G75*
G02*
X78567500Y38445000I-462500J0D01*
G01*
X75102500Y38445000D01*
G75*
G02*
X74640000Y38907500I0J462500D01*
G01*
G37*
G36*
G01*
X74640000Y31287500D02*
X74640000Y32212500D01*
G75*
G02*
X75102500Y32675000I462500J0D01*
G01*
X78567500Y32675000D01*
G75*
G02*
X79030000Y32212500I0J-462500D01*
G01*
X79030000Y31287500D01*
G75*
G02*
X78567500Y30825000I-462500J0D01*
G01*
X75102500Y30825000D01*
G75*
G02*
X74640000Y31287500I0J462500D01*
G01*
G37*
X75565000Y36830000D03*
X78105000Y39370000D03*
X75565000Y31750000D03*
X75565000Y34290000D03*
X78105000Y31750000D03*
X75565000Y41910000D03*
X78105000Y41910000D03*
X78105000Y49530000D03*
X75565000Y49530000D03*
G36*
G01*
X74640000Y46527500D02*
X74640000Y47452500D01*
G75*
G02*
X75102500Y47915000I462500J0D01*
G01*
X78567500Y47915000D01*
G75*
G02*
X79030000Y47452500I0J-462500D01*
G01*
X79030000Y46527500D01*
G75*
G02*
X78567500Y46065000I-462500J0D01*
G01*
X75102500Y46065000D01*
G75*
G02*
X74640000Y46527500I0J462500D01*
G01*
G37*
X75565000Y44450000D03*
X78105000Y44450000D03*
G36*
G01*
X74640000Y43987500D02*
X74640000Y44912500D01*
G75*
G02*
X75102500Y45375000I462500J0D01*
G01*
X78567500Y45375000D01*
G75*
G02*
X79030000Y44912500I0J-462500D01*
G01*
X79030000Y43987500D01*
G75*
G02*
X78567500Y43525000I-462500J0D01*
G01*
X75102500Y43525000D01*
G75*
G02*
X74640000Y43987500I0J462500D01*
G01*
G37*
G36*
G01*
X74640000Y49067500D02*
X74640000Y49992500D01*
G75*
G02*
X75102500Y50455000I462500J0D01*
G01*
X78567500Y50455000D01*
G75*
G02*
X79030000Y49992500I0J-462500D01*
G01*
X79030000Y49067500D01*
G75*
G02*
X78567500Y48605000I-462500J0D01*
G01*
X75102500Y48605000D01*
G75*
G02*
X74640000Y49067500I0J462500D01*
G01*
G37*
X75565000Y46990000D03*
X78105000Y46990000D03*
G36*
G01*
X74640000Y41447500D02*
X74640000Y42372500D01*
G75*
G02*
X75102500Y42835000I462500J0D01*
G01*
X78567500Y42835000D01*
G75*
G02*
X79030000Y42372500I0J-462500D01*
G01*
X79030000Y41447500D01*
G75*
G02*
X78567500Y40985000I-462500J0D01*
G01*
X75102500Y40985000D01*
G75*
G02*
X74640000Y41447500I0J462500D01*
G01*
G37*
X78105000Y54610000D03*
X75565000Y54610000D03*
G36*
G01*
X74640000Y51607500D02*
X74640000Y52532500D01*
G75*
G02*
X75102500Y52995000I462500J0D01*
G01*
X78567500Y52995000D01*
G75*
G02*
X79030000Y52532500I0J-462500D01*
G01*
X79030000Y51607500D01*
G75*
G02*
X78567500Y51145000I-462500J0D01*
G01*
X75102500Y51145000D01*
G75*
G02*
X74640000Y51607500I0J462500D01*
G01*
G37*
X75565000Y52070000D03*
X78105000Y52070000D03*
G36*
G01*
X74640000Y56687500D02*
X74640000Y57612500D01*
G75*
G02*
X75102500Y58075000I462500J0D01*
G01*
X78567500Y58075000D01*
G75*
G02*
X79030000Y57612500I0J-462500D01*
G01*
X79030000Y56687500D01*
G75*
G02*
X78567500Y56225000I-462500J0D01*
G01*
X75102500Y56225000D01*
G75*
G02*
X74640000Y56687500I0J462500D01*
G01*
G37*
G36*
G01*
X74640000Y54147500D02*
X74640000Y55072500D01*
G75*
G02*
X75102500Y55535000I462500J0D01*
G01*
X78567500Y55535000D01*
G75*
G02*
X79030000Y55072500I0J-462500D01*
G01*
X79030000Y54147500D01*
G75*
G02*
X78567500Y53685000I-462500J0D01*
G01*
X75102500Y53685000D01*
G75*
G02*
X74640000Y54147500I0J462500D01*
G01*
G37*
G36*
G01*
X74640000Y59227500D02*
X74640000Y60152500D01*
G75*
G02*
X75102500Y60615000I462500J0D01*
G01*
X78567500Y60615000D01*
G75*
G02*
X79030000Y60152500I0J-462500D01*
G01*
X79030000Y59227500D01*
G75*
G02*
X78567500Y58765000I-462500J0D01*
G01*
X75102500Y58765000D01*
G75*
G02*
X74640000Y59227500I0J462500D01*
G01*
G37*
X78105000Y59690000D03*
X75565000Y57150000D03*
X75565000Y59690000D03*
X78105000Y57150000D03*
G36*
G01*
X74640000Y61767500D02*
X74640000Y62692500D01*
G75*
G02*
X75102500Y63155000I462500J0D01*
G01*
X78567500Y63155000D01*
G75*
G02*
X79030000Y62692500I0J-462500D01*
G01*
X79030000Y61767500D01*
G75*
G02*
X78567500Y61305000I-462500J0D01*
G01*
X75102500Y61305000D01*
G75*
G02*
X74640000Y61767500I0J462500D01*
G01*
G37*
X75565000Y62230000D03*
X78105000Y62230000D03*
X78105000Y64770000D03*
X75565000Y64770000D03*
G36*
G01*
X74640000Y64307500D02*
X74640000Y65232500D01*
G75*
G02*
X75102500Y65695000I462500J0D01*
G01*
X78567500Y65695000D01*
G75*
G02*
X79030000Y65232500I0J-462500D01*
G01*
X79030000Y64307500D01*
G75*
G02*
X78567500Y63845000I-462500J0D01*
G01*
X75102500Y63845000D01*
G75*
G02*
X74640000Y64307500I0J462500D01*
G01*
G37*
X75565000Y69850000D03*
X78105000Y69850000D03*
G36*
G01*
X74640000Y69387500D02*
X74640000Y70312500D01*
G75*
G02*
X75102500Y70775000I462500J0D01*
G01*
X78567500Y70775000D01*
G75*
G02*
X79030000Y70312500I0J-462500D01*
G01*
X79030000Y69387500D01*
G75*
G02*
X78567500Y68925000I-462500J0D01*
G01*
X75102500Y68925000D01*
G75*
G02*
X74640000Y69387500I0J462500D01*
G01*
G37*
G36*
G01*
X67020000Y69387500D02*
X67020000Y70312500D01*
G75*
G02*
X67482500Y70775000I462500J0D01*
G01*
X68407500Y70775000D01*
G75*
G02*
X68870000Y70312500I0J-462500D01*
G01*
X68870000Y69387500D01*
G75*
G02*
X68407500Y68925000I-462500J0D01*
G01*
X67482500Y68925000D01*
G75*
G02*
X67020000Y69387500I0J462500D01*
G01*
G37*
G36*
G01*
X59400000Y69387500D02*
X59400000Y70312500D01*
G75*
G02*
X59862500Y70775000I462500J0D01*
G01*
X60787500Y70775000D01*
G75*
G02*
X61250000Y70312500I0J-462500D01*
G01*
X61250000Y69387500D01*
G75*
G02*
X60787500Y68925000I-462500J0D01*
G01*
X59862500Y68925000D01*
G75*
G02*
X59400000Y69387500I0J462500D01*
G01*
G37*
G36*
G01*
X56860000Y69387500D02*
X56860000Y70312500D01*
G75*
G02*
X57322500Y70775000I462500J0D01*
G01*
X58247500Y70775000D01*
G75*
G02*
X58710000Y70312500I0J-462500D01*
G01*
X58710000Y69387500D01*
G75*
G02*
X58247500Y68925000I-462500J0D01*
G01*
X57322500Y68925000D01*
G75*
G02*
X56860000Y69387500I0J462500D01*
G01*
G37*
G36*
G01*
X56860000Y64307500D02*
X56860000Y65232500D01*
G75*
G02*
X57322500Y65695000I462500J0D01*
G01*
X58247500Y65695000D01*
G75*
G02*
X58710000Y65232500I0J-462500D01*
G01*
X58710000Y64307500D01*
G75*
G02*
X58247500Y63845000I-462500J0D01*
G01*
X57322500Y63845000D01*
G75*
G02*
X56860000Y64307500I0J462500D01*
G01*
G37*
G36*
G01*
X69560000Y64307500D02*
X69560000Y65232500D01*
G75*
G02*
X70022500Y65695000I462500J0D01*
G01*
X70947500Y65695000D01*
G75*
G02*
X71410000Y65232500I0J-462500D01*
G01*
X71410000Y64307500D01*
G75*
G02*
X70947500Y63845000I-462500J0D01*
G01*
X70022500Y63845000D01*
G75*
G02*
X69560000Y64307500I0J462500D01*
G01*
G37*
G36*
G01*
X59400000Y64307500D02*
X59400000Y65232500D01*
G75*
G02*
X59862500Y65695000I462500J0D01*
G01*
X60787500Y65695000D01*
G75*
G02*
X61250000Y65232500I0J-462500D01*
G01*
X61250000Y64307500D01*
G75*
G02*
X60787500Y63845000I-462500J0D01*
G01*
X59862500Y63845000D01*
G75*
G02*
X59400000Y64307500I0J462500D01*
G01*
G37*
G36*
G01*
X67020000Y64307500D02*
X67020000Y65232500D01*
G75*
G02*
X67482500Y65695000I462500J0D01*
G01*
X68407500Y65695000D01*
G75*
G02*
X68870000Y65232500I0J-462500D01*
G01*
X68870000Y64307500D01*
G75*
G02*
X68407500Y63845000I-462500J0D01*
G01*
X67482500Y63845000D01*
G75*
G02*
X67020000Y64307500I0J462500D01*
G01*
G37*
G36*
G01*
X54320000Y69387500D02*
X54320000Y70312500D01*
G75*
G02*
X54782500Y70775000I462500J0D01*
G01*
X55707500Y70775000D01*
G75*
G02*
X56170000Y70312500I0J-462500D01*
G01*
X56170000Y69387500D01*
G75*
G02*
X55707500Y68925000I-462500J0D01*
G01*
X54782500Y68925000D01*
G75*
G02*
X54320000Y69387500I0J462500D01*
G01*
G37*
G36*
G01*
X69560000Y69387500D02*
X69560000Y70312500D01*
G75*
G02*
X70022500Y70775000I462500J0D01*
G01*
X70947500Y70775000D01*
G75*
G02*
X71410000Y70312500I0J-462500D01*
G01*
X71410000Y69387500D01*
G75*
G02*
X70947500Y68925000I-462500J0D01*
G01*
X70022500Y68925000D01*
G75*
G02*
X69560000Y69387500I0J462500D01*
G01*
G37*
G36*
G01*
X72100000Y64307500D02*
X72100000Y65232500D01*
G75*
G02*
X72562500Y65695000I462500J0D01*
G01*
X73487500Y65695000D01*
G75*
G02*
X73950000Y65232500I0J-462500D01*
G01*
X73950000Y64307500D01*
G75*
G02*
X73487500Y63845000I-462500J0D01*
G01*
X72562500Y63845000D01*
G75*
G02*
X72100000Y64307500I0J462500D01*
G01*
G37*
G36*
G01*
X54320000Y64307500D02*
X54320000Y65232500D01*
G75*
G02*
X54782500Y65695000I462500J0D01*
G01*
X55707500Y65695000D01*
G75*
G02*
X56170000Y65232500I0J-462500D01*
G01*
X56170000Y64307500D01*
G75*
G02*
X55707500Y63845000I-462500J0D01*
G01*
X54782500Y63845000D01*
G75*
G02*
X54320000Y64307500I0J462500D01*
G01*
G37*
G36*
G01*
X64480000Y64307500D02*
X64480000Y65232500D01*
G75*
G02*
X64942500Y65695000I462500J0D01*
G01*
X65867500Y65695000D01*
G75*
G02*
X66330000Y65232500I0J-462500D01*
G01*
X66330000Y64307500D01*
G75*
G02*
X65867500Y63845000I-462500J0D01*
G01*
X64942500Y63845000D01*
G75*
G02*
X64480000Y64307500I0J462500D01*
G01*
G37*
G36*
G01*
X64480000Y69387500D02*
X64480000Y70312500D01*
G75*
G02*
X64942500Y70775000I462500J0D01*
G01*
X65867500Y70775000D01*
G75*
G02*
X66330000Y70312500I0J-462500D01*
G01*
X66330000Y69387500D01*
G75*
G02*
X65867500Y68925000I-462500J0D01*
G01*
X64942500Y68925000D01*
G75*
G02*
X64480000Y69387500I0J462500D01*
G01*
G37*
G36*
G01*
X61940000Y64307500D02*
X61940000Y65232500D01*
G75*
G02*
X62402500Y65695000I462500J0D01*
G01*
X63327500Y65695000D01*
G75*
G02*
X63790000Y65232500I0J-462500D01*
G01*
X63790000Y64307500D01*
G75*
G02*
X63327500Y63845000I-462500J0D01*
G01*
X62402500Y63845000D01*
G75*
G02*
X61940000Y64307500I0J462500D01*
G01*
G37*
G36*
G01*
X61940000Y69387500D02*
X61940000Y70312500D01*
G75*
G02*
X62402500Y70775000I462500J0D01*
G01*
X63327500Y70775000D01*
G75*
G02*
X63790000Y70312500I0J-462500D01*
G01*
X63790000Y69387500D01*
G75*
G02*
X63327500Y68925000I-462500J0D01*
G01*
X62402500Y68925000D01*
G75*
G02*
X61940000Y69387500I0J462500D01*
G01*
G37*
G36*
G01*
X72100000Y69387500D02*
X72100000Y70312500D01*
G75*
G02*
X72562500Y70775000I462500J0D01*
G01*
X73487500Y70775000D01*
G75*
G02*
X73950000Y70312500I0J-462500D01*
G01*
X73950000Y69387500D01*
G75*
G02*
X73487500Y68925000I-462500J0D01*
G01*
X72562500Y68925000D01*
G75*
G02*
X72100000Y69387500I0J462500D01*
G01*
G37*
G36*
G01*
X56860000Y51607500D02*
X56860000Y52532500D01*
G75*
G02*
X57322500Y52995000I462500J0D01*
G01*
X58247500Y52995000D01*
G75*
G02*
X58710000Y52532500I0J-462500D01*
G01*
X58710000Y51607500D01*
G75*
G02*
X58247500Y51145000I-462500J0D01*
G01*
X57322500Y51145000D01*
G75*
G02*
X56860000Y51607500I0J462500D01*
G01*
G37*
G36*
G01*
X72100000Y46527500D02*
X72100000Y47452500D01*
G75*
G02*
X72562500Y47915000I462500J0D01*
G01*
X73487500Y47915000D01*
G75*
G02*
X73950000Y47452500I0J-462500D01*
G01*
X73950000Y46527500D01*
G75*
G02*
X73487500Y46065000I-462500J0D01*
G01*
X72562500Y46065000D01*
G75*
G02*
X72100000Y46527500I0J462500D01*
G01*
G37*
G36*
G01*
X56860000Y59227500D02*
X56860000Y60152500D01*
G75*
G02*
X57322500Y60615000I462500J0D01*
G01*
X58247500Y60615000D01*
G75*
G02*
X58710000Y60152500I0J-462500D01*
G01*
X58710000Y59227500D01*
G75*
G02*
X58247500Y58765000I-462500J0D01*
G01*
X57322500Y58765000D01*
G75*
G02*
X56860000Y59227500I0J462500D01*
G01*
G37*
G36*
G01*
X54320000Y61767500D02*
X54320000Y62692500D01*
G75*
G02*
X54782500Y63155000I462500J0D01*
G01*
X55707500Y63155000D01*
G75*
G02*
X56170000Y62692500I0J-462500D01*
G01*
X56170000Y61767500D01*
G75*
G02*
X55707500Y61305000I-462500J0D01*
G01*
X54782500Y61305000D01*
G75*
G02*
X54320000Y61767500I0J462500D01*
G01*
G37*
G36*
G01*
X54320000Y54147500D02*
X54320000Y55072500D01*
G75*
G02*
X54782500Y55535000I462500J0D01*
G01*
X55707500Y55535000D01*
G75*
G02*
X56170000Y55072500I0J-462500D01*
G01*
X56170000Y54147500D01*
G75*
G02*
X55707500Y53685000I-462500J0D01*
G01*
X54782500Y53685000D01*
G75*
G02*
X54320000Y54147500I0J462500D01*
G01*
G37*
G36*
G01*
X54320000Y56687500D02*
X54320000Y57612500D01*
G75*
G02*
X54782500Y58075000I462500J0D01*
G01*
X55707500Y58075000D01*
G75*
G02*
X56170000Y57612500I0J-462500D01*
G01*
X56170000Y56687500D01*
G75*
G02*
X55707500Y56225000I-462500J0D01*
G01*
X54782500Y56225000D01*
G75*
G02*
X54320000Y56687500I0J462500D01*
G01*
G37*
G36*
G01*
X67020000Y46527500D02*
X67020000Y47452500D01*
G75*
G02*
X67482500Y47915000I462500J0D01*
G01*
X68407500Y47915000D01*
G75*
G02*
X68870000Y47452500I0J-462500D01*
G01*
X68870000Y46527500D01*
G75*
G02*
X68407500Y46065000I-462500J0D01*
G01*
X67482500Y46065000D01*
G75*
G02*
X67020000Y46527500I0J462500D01*
G01*
G37*
G36*
G01*
X54320000Y49067500D02*
X54320000Y49992500D01*
G75*
G02*
X54782500Y50455000I462500J0D01*
G01*
X55707500Y50455000D01*
G75*
G02*
X56170000Y49992500I0J-462500D01*
G01*
X56170000Y49067500D01*
G75*
G02*
X55707500Y48605000I-462500J0D01*
G01*
X54782500Y48605000D01*
G75*
G02*
X54320000Y49067500I0J462500D01*
G01*
G37*
G36*
G01*
X56860000Y56687500D02*
X56860000Y57612500D01*
G75*
G02*
X57322500Y58075000I462500J0D01*
G01*
X58247500Y58075000D01*
G75*
G02*
X58710000Y57612500I0J-462500D01*
G01*
X58710000Y56687500D01*
G75*
G02*
X58247500Y56225000I-462500J0D01*
G01*
X57322500Y56225000D01*
G75*
G02*
X56860000Y56687500I0J462500D01*
G01*
G37*
G36*
G01*
X59400000Y56687500D02*
X59400000Y57612500D01*
G75*
G02*
X59862500Y58075000I462500J0D01*
G01*
X60787500Y58075000D01*
G75*
G02*
X61250000Y57612500I0J-462500D01*
G01*
X61250000Y56687500D01*
G75*
G02*
X60787500Y56225000I-462500J0D01*
G01*
X59862500Y56225000D01*
G75*
G02*
X59400000Y56687500I0J462500D01*
G01*
G37*
G36*
G01*
X54320000Y59227500D02*
X54320000Y60152500D01*
G75*
G02*
X54782500Y60615000I462500J0D01*
G01*
X55707500Y60615000D01*
G75*
G02*
X56170000Y60152500I0J-462500D01*
G01*
X56170000Y59227500D01*
G75*
G02*
X55707500Y58765000I-462500J0D01*
G01*
X54782500Y58765000D01*
G75*
G02*
X54320000Y59227500I0J462500D01*
G01*
G37*
G36*
G01*
X69560000Y51607500D02*
X69560000Y52532500D01*
G75*
G02*
X70022500Y52995000I462500J0D01*
G01*
X70947500Y52995000D01*
G75*
G02*
X71410000Y52532500I0J-462500D01*
G01*
X71410000Y51607500D01*
G75*
G02*
X70947500Y51145000I-462500J0D01*
G01*
X70022500Y51145000D01*
G75*
G02*
X69560000Y51607500I0J462500D01*
G01*
G37*
G36*
G01*
X59400000Y46527500D02*
X59400000Y47452500D01*
G75*
G02*
X59862500Y47915000I462500J0D01*
G01*
X60787500Y47915000D01*
G75*
G02*
X61250000Y47452500I0J-462500D01*
G01*
X61250000Y46527500D01*
G75*
G02*
X60787500Y46065000I-462500J0D01*
G01*
X59862500Y46065000D01*
G75*
G02*
X59400000Y46527500I0J462500D01*
G01*
G37*
G36*
G01*
X56860000Y43987500D02*
X56860000Y44912500D01*
G75*
G02*
X57322500Y45375000I462500J0D01*
G01*
X58247500Y45375000D01*
G75*
G02*
X58710000Y44912500I0J-462500D01*
G01*
X58710000Y43987500D01*
G75*
G02*
X58247500Y43525000I-462500J0D01*
G01*
X57322500Y43525000D01*
G75*
G02*
X56860000Y43987500I0J462500D01*
G01*
G37*
G36*
G01*
X59400000Y61767500D02*
X59400000Y62692500D01*
G75*
G02*
X59862500Y63155000I462500J0D01*
G01*
X60787500Y63155000D01*
G75*
G02*
X61250000Y62692500I0J-462500D01*
G01*
X61250000Y61767500D01*
G75*
G02*
X60787500Y61305000I-462500J0D01*
G01*
X59862500Y61305000D01*
G75*
G02*
X59400000Y61767500I0J462500D01*
G01*
G37*
G36*
G01*
X59400000Y54147500D02*
X59400000Y55072500D01*
G75*
G02*
X59862500Y55535000I462500J0D01*
G01*
X60787500Y55535000D01*
G75*
G02*
X61250000Y55072500I0J-462500D01*
G01*
X61250000Y54147500D01*
G75*
G02*
X60787500Y53685000I-462500J0D01*
G01*
X59862500Y53685000D01*
G75*
G02*
X59400000Y54147500I0J462500D01*
G01*
G37*
G36*
G01*
X56860000Y61767500D02*
X56860000Y62692500D01*
G75*
G02*
X57322500Y63155000I462500J0D01*
G01*
X58247500Y63155000D01*
G75*
G02*
X58710000Y62692500I0J-462500D01*
G01*
X58710000Y61767500D01*
G75*
G02*
X58247500Y61305000I-462500J0D01*
G01*
X57322500Y61305000D01*
G75*
G02*
X56860000Y61767500I0J462500D01*
G01*
G37*
G36*
G01*
X59400000Y59227500D02*
X59400000Y60152500D01*
G75*
G02*
X59862500Y60615000I462500J0D01*
G01*
X60787500Y60615000D01*
G75*
G02*
X61250000Y60152500I0J-462500D01*
G01*
X61250000Y59227500D01*
G75*
G02*
X60787500Y58765000I-462500J0D01*
G01*
X59862500Y58765000D01*
G75*
G02*
X59400000Y59227500I0J462500D01*
G01*
G37*
G36*
G01*
X56860000Y54147500D02*
X56860000Y55072500D01*
G75*
G02*
X57322500Y55535000I462500J0D01*
G01*
X58247500Y55535000D01*
G75*
G02*
X58710000Y55072500I0J-462500D01*
G01*
X58710000Y54147500D01*
G75*
G02*
X58247500Y53685000I-462500J0D01*
G01*
X57322500Y53685000D01*
G75*
G02*
X56860000Y54147500I0J462500D01*
G01*
G37*
G36*
G01*
X56860000Y46527500D02*
X56860000Y47452500D01*
G75*
G02*
X57322500Y47915000I462500J0D01*
G01*
X58247500Y47915000D01*
G75*
G02*
X58710000Y47452500I0J-462500D01*
G01*
X58710000Y46527500D01*
G75*
G02*
X58247500Y46065000I-462500J0D01*
G01*
X57322500Y46065000D01*
G75*
G02*
X56860000Y46527500I0J462500D01*
G01*
G37*
G36*
G01*
X59400000Y43987500D02*
X59400000Y44912500D01*
G75*
G02*
X59862500Y45375000I462500J0D01*
G01*
X60787500Y45375000D01*
G75*
G02*
X61250000Y44912500I0J-462500D01*
G01*
X61250000Y43987500D01*
G75*
G02*
X60787500Y43525000I-462500J0D01*
G01*
X59862500Y43525000D01*
G75*
G02*
X59400000Y43987500I0J462500D01*
G01*
G37*
G36*
G01*
X67020000Y43987500D02*
X67020000Y44912500D01*
G75*
G02*
X67482500Y45375000I462500J0D01*
G01*
X68407500Y45375000D01*
G75*
G02*
X68870000Y44912500I0J-462500D01*
G01*
X68870000Y43987500D01*
G75*
G02*
X68407500Y43525000I-462500J0D01*
G01*
X67482500Y43525000D01*
G75*
G02*
X67020000Y43987500I0J462500D01*
G01*
G37*
G36*
G01*
X54320000Y46527500D02*
X54320000Y47452500D01*
G75*
G02*
X54782500Y47915000I462500J0D01*
G01*
X55707500Y47915000D01*
G75*
G02*
X56170000Y47452500I0J-462500D01*
G01*
X56170000Y46527500D01*
G75*
G02*
X55707500Y46065000I-462500J0D01*
G01*
X54782500Y46065000D01*
G75*
G02*
X54320000Y46527500I0J462500D01*
G01*
G37*
G36*
G01*
X54320000Y51607500D02*
X54320000Y52532500D01*
G75*
G02*
X54782500Y52995000I462500J0D01*
G01*
X55707500Y52995000D01*
G75*
G02*
X56170000Y52532500I0J-462500D01*
G01*
X56170000Y51607500D01*
G75*
G02*
X55707500Y51145000I-462500J0D01*
G01*
X54782500Y51145000D01*
G75*
G02*
X54320000Y51607500I0J462500D01*
G01*
G37*
G36*
G01*
X67020000Y49067500D02*
X67020000Y49992500D01*
G75*
G02*
X67482500Y50455000I462500J0D01*
G01*
X68407500Y50455000D01*
G75*
G02*
X68870000Y49992500I0J-462500D01*
G01*
X68870000Y49067500D01*
G75*
G02*
X68407500Y48605000I-462500J0D01*
G01*
X67482500Y48605000D01*
G75*
G02*
X67020000Y49067500I0J462500D01*
G01*
G37*
G36*
G01*
X59400000Y51607500D02*
X59400000Y52532500D01*
G75*
G02*
X59862500Y52995000I462500J0D01*
G01*
X60787500Y52995000D01*
G75*
G02*
X61250000Y52532500I0J-462500D01*
G01*
X61250000Y51607500D01*
G75*
G02*
X60787500Y51145000I-462500J0D01*
G01*
X59862500Y51145000D01*
G75*
G02*
X59400000Y51607500I0J462500D01*
G01*
G37*
G36*
G01*
X61940000Y43987500D02*
X61940000Y44912500D01*
G75*
G02*
X62402500Y45375000I462500J0D01*
G01*
X63327500Y45375000D01*
G75*
G02*
X63790000Y44912500I0J-462500D01*
G01*
X63790000Y43987500D01*
G75*
G02*
X63327500Y43525000I-462500J0D01*
G01*
X62402500Y43525000D01*
G75*
G02*
X61940000Y43987500I0J462500D01*
G01*
G37*
G36*
G01*
X61940000Y56687500D02*
X61940000Y57612500D01*
G75*
G02*
X62402500Y58075000I462500J0D01*
G01*
X63327500Y58075000D01*
G75*
G02*
X63790000Y57612500I0J-462500D01*
G01*
X63790000Y56687500D01*
G75*
G02*
X63327500Y56225000I-462500J0D01*
G01*
X62402500Y56225000D01*
G75*
G02*
X61940000Y56687500I0J462500D01*
G01*
G37*
G36*
G01*
X72100000Y59227500D02*
X72100000Y60152500D01*
G75*
G02*
X72562500Y60615000I462500J0D01*
G01*
X73487500Y60615000D01*
G75*
G02*
X73950000Y60152500I0J-462500D01*
G01*
X73950000Y59227500D01*
G75*
G02*
X73487500Y58765000I-462500J0D01*
G01*
X72562500Y58765000D01*
G75*
G02*
X72100000Y59227500I0J462500D01*
G01*
G37*
G36*
G01*
X67020000Y54147500D02*
X67020000Y55072500D01*
G75*
G02*
X67482500Y55535000I462500J0D01*
G01*
X68407500Y55535000D01*
G75*
G02*
X68870000Y55072500I0J-462500D01*
G01*
X68870000Y54147500D01*
G75*
G02*
X68407500Y53685000I-462500J0D01*
G01*
X67482500Y53685000D01*
G75*
G02*
X67020000Y54147500I0J462500D01*
G01*
G37*
G36*
G01*
X72100000Y56687500D02*
X72100000Y57612500D01*
G75*
G02*
X72562500Y58075000I462500J0D01*
G01*
X73487500Y58075000D01*
G75*
G02*
X73950000Y57612500I0J-462500D01*
G01*
X73950000Y56687500D01*
G75*
G02*
X73487500Y56225000I-462500J0D01*
G01*
X72562500Y56225000D01*
G75*
G02*
X72100000Y56687500I0J462500D01*
G01*
G37*
G36*
G01*
X64480000Y56687500D02*
X64480000Y57612500D01*
G75*
G02*
X64942500Y58075000I462500J0D01*
G01*
X65867500Y58075000D01*
G75*
G02*
X66330000Y57612500I0J-462500D01*
G01*
X66330000Y56687500D01*
G75*
G02*
X65867500Y56225000I-462500J0D01*
G01*
X64942500Y56225000D01*
G75*
G02*
X64480000Y56687500I0J462500D01*
G01*
G37*
G36*
G01*
X72100000Y43987500D02*
X72100000Y44912500D01*
G75*
G02*
X72562500Y45375000I462500J0D01*
G01*
X73487500Y45375000D01*
G75*
G02*
X73950000Y44912500I0J-462500D01*
G01*
X73950000Y43987500D01*
G75*
G02*
X73487500Y43525000I-462500J0D01*
G01*
X72562500Y43525000D01*
G75*
G02*
X72100000Y43987500I0J462500D01*
G01*
G37*
G36*
G01*
X67020000Y56687500D02*
X67020000Y57612500D01*
G75*
G02*
X67482500Y58075000I462500J0D01*
G01*
X68407500Y58075000D01*
G75*
G02*
X68870000Y57612500I0J-462500D01*
G01*
X68870000Y56687500D01*
G75*
G02*
X68407500Y56225000I-462500J0D01*
G01*
X67482500Y56225000D01*
G75*
G02*
X67020000Y56687500I0J462500D01*
G01*
G37*
G36*
G01*
X69560000Y49067500D02*
X69560000Y49992500D01*
G75*
G02*
X70022500Y50455000I462500J0D01*
G01*
X70947500Y50455000D01*
G75*
G02*
X71410000Y49992500I0J-462500D01*
G01*
X71410000Y49067500D01*
G75*
G02*
X70947500Y48605000I-462500J0D01*
G01*
X70022500Y48605000D01*
G75*
G02*
X69560000Y49067500I0J462500D01*
G01*
G37*
G36*
G01*
X59400000Y49067500D02*
X59400000Y49992500D01*
G75*
G02*
X59862500Y50455000I462500J0D01*
G01*
X60787500Y50455000D01*
G75*
G02*
X61250000Y49992500I0J-462500D01*
G01*
X61250000Y49067500D01*
G75*
G02*
X60787500Y48605000I-462500J0D01*
G01*
X59862500Y48605000D01*
G75*
G02*
X59400000Y49067500I0J462500D01*
G01*
G37*
G36*
G01*
X61940000Y49067500D02*
X61940000Y49992500D01*
G75*
G02*
X62402500Y50455000I462500J0D01*
G01*
X63327500Y50455000D01*
G75*
G02*
X63790000Y49992500I0J-462500D01*
G01*
X63790000Y49067500D01*
G75*
G02*
X63327500Y48605000I-462500J0D01*
G01*
X62402500Y48605000D01*
G75*
G02*
X61940000Y49067500I0J462500D01*
G01*
G37*
G36*
G01*
X64480000Y51607500D02*
X64480000Y52532500D01*
G75*
G02*
X64942500Y52995000I462500J0D01*
G01*
X65867500Y52995000D01*
G75*
G02*
X66330000Y52532500I0J-462500D01*
G01*
X66330000Y51607500D01*
G75*
G02*
X65867500Y51145000I-462500J0D01*
G01*
X64942500Y51145000D01*
G75*
G02*
X64480000Y51607500I0J462500D01*
G01*
G37*
G36*
G01*
X72100000Y54147500D02*
X72100000Y55072500D01*
G75*
G02*
X72562500Y55535000I462500J0D01*
G01*
X73487500Y55535000D01*
G75*
G02*
X73950000Y55072500I0J-462500D01*
G01*
X73950000Y54147500D01*
G75*
G02*
X73487500Y53685000I-462500J0D01*
G01*
X72562500Y53685000D01*
G75*
G02*
X72100000Y54147500I0J462500D01*
G01*
G37*
G36*
G01*
X67020000Y59227500D02*
X67020000Y60152500D01*
G75*
G02*
X67482500Y60615000I462500J0D01*
G01*
X68407500Y60615000D01*
G75*
G02*
X68870000Y60152500I0J-462500D01*
G01*
X68870000Y59227500D01*
G75*
G02*
X68407500Y58765000I-462500J0D01*
G01*
X67482500Y58765000D01*
G75*
G02*
X67020000Y59227500I0J462500D01*
G01*
G37*
G36*
G01*
X61940000Y59227500D02*
X61940000Y60152500D01*
G75*
G02*
X62402500Y60615000I462500J0D01*
G01*
X63327500Y60615000D01*
G75*
G02*
X63790000Y60152500I0J-462500D01*
G01*
X63790000Y59227500D01*
G75*
G02*
X63327500Y58765000I-462500J0D01*
G01*
X62402500Y58765000D01*
G75*
G02*
X61940000Y59227500I0J462500D01*
G01*
G37*
G36*
G01*
X64480000Y54147500D02*
X64480000Y55072500D01*
G75*
G02*
X64942500Y55535000I462500J0D01*
G01*
X65867500Y55535000D01*
G75*
G02*
X66330000Y55072500I0J-462500D01*
G01*
X66330000Y54147500D01*
G75*
G02*
X65867500Y53685000I-462500J0D01*
G01*
X64942500Y53685000D01*
G75*
G02*
X64480000Y54147500I0J462500D01*
G01*
G37*
G36*
G01*
X61940000Y51607500D02*
X61940000Y52532500D01*
G75*
G02*
X62402500Y52995000I462500J0D01*
G01*
X63327500Y52995000D01*
G75*
G02*
X63790000Y52532500I0J-462500D01*
G01*
X63790000Y51607500D01*
G75*
G02*
X63327500Y51145000I-462500J0D01*
G01*
X62402500Y51145000D01*
G75*
G02*
X61940000Y51607500I0J462500D01*
G01*
G37*
G36*
G01*
X72100000Y49067500D02*
X72100000Y49992500D01*
G75*
G02*
X72562500Y50455000I462500J0D01*
G01*
X73487500Y50455000D01*
G75*
G02*
X73950000Y49992500I0J-462500D01*
G01*
X73950000Y49067500D01*
G75*
G02*
X73487500Y48605000I-462500J0D01*
G01*
X72562500Y48605000D01*
G75*
G02*
X72100000Y49067500I0J462500D01*
G01*
G37*
G36*
G01*
X69560000Y54147500D02*
X69560000Y55072500D01*
G75*
G02*
X70022500Y55535000I462500J0D01*
G01*
X70947500Y55535000D01*
G75*
G02*
X71410000Y55072500I0J-462500D01*
G01*
X71410000Y54147500D01*
G75*
G02*
X70947500Y53685000I-462500J0D01*
G01*
X70022500Y53685000D01*
G75*
G02*
X69560000Y54147500I0J462500D01*
G01*
G37*
G36*
G01*
X64480000Y59227500D02*
X64480000Y60152500D01*
G75*
G02*
X64942500Y60615000I462500J0D01*
G01*
X65867500Y60615000D01*
G75*
G02*
X66330000Y60152500I0J-462500D01*
G01*
X66330000Y59227500D01*
G75*
G02*
X65867500Y58765000I-462500J0D01*
G01*
X64942500Y58765000D01*
G75*
G02*
X64480000Y59227500I0J462500D01*
G01*
G37*
G36*
G01*
X69560000Y56687500D02*
X69560000Y57612500D01*
G75*
G02*
X70022500Y58075000I462500J0D01*
G01*
X70947500Y58075000D01*
G75*
G02*
X71410000Y57612500I0J-462500D01*
G01*
X71410000Y56687500D01*
G75*
G02*
X70947500Y56225000I-462500J0D01*
G01*
X70022500Y56225000D01*
G75*
G02*
X69560000Y56687500I0J462500D01*
G01*
G37*
G36*
G01*
X64480000Y61767500D02*
X64480000Y62692500D01*
G75*
G02*
X64942500Y63155000I462500J0D01*
G01*
X65867500Y63155000D01*
G75*
G02*
X66330000Y62692500I0J-462500D01*
G01*
X66330000Y61767500D01*
G75*
G02*
X65867500Y61305000I-462500J0D01*
G01*
X64942500Y61305000D01*
G75*
G02*
X64480000Y61767500I0J462500D01*
G01*
G37*
G36*
G01*
X54320000Y43987500D02*
X54320000Y44912500D01*
G75*
G02*
X54782500Y45375000I462500J0D01*
G01*
X55707500Y45375000D01*
G75*
G02*
X56170000Y44912500I0J-462500D01*
G01*
X56170000Y43987500D01*
G75*
G02*
X55707500Y43525000I-462500J0D01*
G01*
X54782500Y43525000D01*
G75*
G02*
X54320000Y43987500I0J462500D01*
G01*
G37*
G36*
G01*
X69560000Y59227500D02*
X69560000Y60152500D01*
G75*
G02*
X70022500Y60615000I462500J0D01*
G01*
X70947500Y60615000D01*
G75*
G02*
X71410000Y60152500I0J-462500D01*
G01*
X71410000Y59227500D01*
G75*
G02*
X70947500Y58765000I-462500J0D01*
G01*
X70022500Y58765000D01*
G75*
G02*
X69560000Y59227500I0J462500D01*
G01*
G37*
G36*
G01*
X56860000Y49067500D02*
X56860000Y49992500D01*
G75*
G02*
X57322500Y50455000I462500J0D01*
G01*
X58247500Y50455000D01*
G75*
G02*
X58710000Y49992500I0J-462500D01*
G01*
X58710000Y49067500D01*
G75*
G02*
X58247500Y48605000I-462500J0D01*
G01*
X57322500Y48605000D01*
G75*
G02*
X56860000Y49067500I0J462500D01*
G01*
G37*
G36*
G01*
X64480000Y49067500D02*
X64480000Y49992500D01*
G75*
G02*
X64942500Y50455000I462500J0D01*
G01*
X65867500Y50455000D01*
G75*
G02*
X66330000Y49992500I0J-462500D01*
G01*
X66330000Y49067500D01*
G75*
G02*
X65867500Y48605000I-462500J0D01*
G01*
X64942500Y48605000D01*
G75*
G02*
X64480000Y49067500I0J462500D01*
G01*
G37*
G36*
G01*
X61940000Y54147500D02*
X61940000Y55072500D01*
G75*
G02*
X62402500Y55535000I462500J0D01*
G01*
X63327500Y55535000D01*
G75*
G02*
X63790000Y55072500I0J-462500D01*
G01*
X63790000Y54147500D01*
G75*
G02*
X63327500Y53685000I-462500J0D01*
G01*
X62402500Y53685000D01*
G75*
G02*
X61940000Y54147500I0J462500D01*
G01*
G37*
G36*
G01*
X69560000Y43987500D02*
X69560000Y44912500D01*
G75*
G02*
X70022500Y45375000I462500J0D01*
G01*
X70947500Y45375000D01*
G75*
G02*
X71410000Y44912500I0J-462500D01*
G01*
X71410000Y43987500D01*
G75*
G02*
X70947500Y43525000I-462500J0D01*
G01*
X70022500Y43525000D01*
G75*
G02*
X69560000Y43987500I0J462500D01*
G01*
G37*
G36*
G01*
X69560000Y46527500D02*
X69560000Y47452500D01*
G75*
G02*
X70022500Y47915000I462500J0D01*
G01*
X70947500Y47915000D01*
G75*
G02*
X71410000Y47452500I0J-462500D01*
G01*
X71410000Y46527500D01*
G75*
G02*
X70947500Y46065000I-462500J0D01*
G01*
X70022500Y46065000D01*
G75*
G02*
X69560000Y46527500I0J462500D01*
G01*
G37*
G36*
G01*
X64480000Y46527500D02*
X64480000Y47452500D01*
G75*
G02*
X64942500Y47915000I462500J0D01*
G01*
X65867500Y47915000D01*
G75*
G02*
X66330000Y47452500I0J-462500D01*
G01*
X66330000Y46527500D01*
G75*
G02*
X65867500Y46065000I-462500J0D01*
G01*
X64942500Y46065000D01*
G75*
G02*
X64480000Y46527500I0J462500D01*
G01*
G37*
G36*
G01*
X72100000Y51607500D02*
X72100000Y52532500D01*
G75*
G02*
X72562500Y52995000I462500J0D01*
G01*
X73487500Y52995000D01*
G75*
G02*
X73950000Y52532500I0J-462500D01*
G01*
X73950000Y51607500D01*
G75*
G02*
X73487500Y51145000I-462500J0D01*
G01*
X72562500Y51145000D01*
G75*
G02*
X72100000Y51607500I0J462500D01*
G01*
G37*
G36*
G01*
X64480000Y43987500D02*
X64480000Y44912500D01*
G75*
G02*
X64942500Y45375000I462500J0D01*
G01*
X65867500Y45375000D01*
G75*
G02*
X66330000Y44912500I0J-462500D01*
G01*
X66330000Y43987500D01*
G75*
G02*
X65867500Y43525000I-462500J0D01*
G01*
X64942500Y43525000D01*
G75*
G02*
X64480000Y43987500I0J462500D01*
G01*
G37*
G36*
G01*
X67020000Y51607500D02*
X67020000Y52532500D01*
G75*
G02*
X67482500Y52995000I462500J0D01*
G01*
X68407500Y52995000D01*
G75*
G02*
X68870000Y52532500I0J-462500D01*
G01*
X68870000Y51607500D01*
G75*
G02*
X68407500Y51145000I-462500J0D01*
G01*
X67482500Y51145000D01*
G75*
G02*
X67020000Y51607500I0J462500D01*
G01*
G37*
G36*
G01*
X72100000Y61767500D02*
X72100000Y62692500D01*
G75*
G02*
X72562500Y63155000I462500J0D01*
G01*
X73487500Y63155000D01*
G75*
G02*
X73950000Y62692500I0J-462500D01*
G01*
X73950000Y61767500D01*
G75*
G02*
X73487500Y61305000I-462500J0D01*
G01*
X72562500Y61305000D01*
G75*
G02*
X72100000Y61767500I0J462500D01*
G01*
G37*
G36*
G01*
X61940000Y46527500D02*
X61940000Y47452500D01*
G75*
G02*
X62402500Y47915000I462500J0D01*
G01*
X63327500Y47915000D01*
G75*
G02*
X63790000Y47452500I0J-462500D01*
G01*
X63790000Y46527500D01*
G75*
G02*
X63327500Y46065000I-462500J0D01*
G01*
X62402500Y46065000D01*
G75*
G02*
X61940000Y46527500I0J462500D01*
G01*
G37*
G36*
G01*
X67020000Y61767500D02*
X67020000Y62692500D01*
G75*
G02*
X67482500Y63155000I462500J0D01*
G01*
X68407500Y63155000D01*
G75*
G02*
X68870000Y62692500I0J-462500D01*
G01*
X68870000Y61767500D01*
G75*
G02*
X68407500Y61305000I-462500J0D01*
G01*
X67482500Y61305000D01*
G75*
G02*
X67020000Y61767500I0J462500D01*
G01*
G37*
G36*
G01*
X61940000Y61767500D02*
X61940000Y62692500D01*
G75*
G02*
X62402500Y63155000I462500J0D01*
G01*
X63327500Y63155000D01*
G75*
G02*
X63790000Y62692500I0J-462500D01*
G01*
X63790000Y61767500D01*
G75*
G02*
X63327500Y61305000I-462500J0D01*
G01*
X62402500Y61305000D01*
G75*
G02*
X61940000Y61767500I0J462500D01*
G01*
G37*
G36*
G01*
X69560000Y61767500D02*
X69560000Y62692500D01*
G75*
G02*
X70022500Y63155000I462500J0D01*
G01*
X70947500Y63155000D01*
G75*
G02*
X71410000Y62692500I0J-462500D01*
G01*
X71410000Y61767500D01*
G75*
G02*
X70947500Y61305000I-462500J0D01*
G01*
X70022500Y61305000D01*
G75*
G02*
X69560000Y61767500I0J462500D01*
G01*
G37*
G36*
G01*
X56860000Y38907500D02*
X56860000Y39832500D01*
G75*
G02*
X57322500Y40295000I462500J0D01*
G01*
X58247500Y40295000D01*
G75*
G02*
X58710000Y39832500I0J-462500D01*
G01*
X58710000Y38907500D01*
G75*
G02*
X58247500Y38445000I-462500J0D01*
G01*
X57322500Y38445000D01*
G75*
G02*
X56860000Y38907500I0J462500D01*
G01*
G37*
G36*
G01*
X59400000Y38907500D02*
X59400000Y39832500D01*
G75*
G02*
X59862500Y40295000I462500J0D01*
G01*
X60787500Y40295000D01*
G75*
G02*
X61250000Y39832500I0J-462500D01*
G01*
X61250000Y38907500D01*
G75*
G02*
X60787500Y38445000I-462500J0D01*
G01*
X59862500Y38445000D01*
G75*
G02*
X59400000Y38907500I0J462500D01*
G01*
G37*
G36*
G01*
X54320000Y36367500D02*
X54320000Y37292500D01*
G75*
G02*
X54782500Y37755000I462500J0D01*
G01*
X55707500Y37755000D01*
G75*
G02*
X56170000Y37292500I0J-462500D01*
G01*
X56170000Y36367500D01*
G75*
G02*
X55707500Y35905000I-462500J0D01*
G01*
X54782500Y35905000D01*
G75*
G02*
X54320000Y36367500I0J462500D01*
G01*
G37*
G36*
G01*
X59400000Y36367500D02*
X59400000Y37292500D01*
G75*
G02*
X59862500Y37755000I462500J0D01*
G01*
X60787500Y37755000D01*
G75*
G02*
X61250000Y37292500I0J-462500D01*
G01*
X61250000Y36367500D01*
G75*
G02*
X60787500Y35905000I-462500J0D01*
G01*
X59862500Y35905000D01*
G75*
G02*
X59400000Y36367500I0J462500D01*
G01*
G37*
G36*
G01*
X59400000Y41447500D02*
X59400000Y42372500D01*
G75*
G02*
X59862500Y42835000I462500J0D01*
G01*
X60787500Y42835000D01*
G75*
G02*
X61250000Y42372500I0J-462500D01*
G01*
X61250000Y41447500D01*
G75*
G02*
X60787500Y40985000I-462500J0D01*
G01*
X59862500Y40985000D01*
G75*
G02*
X59400000Y41447500I0J462500D01*
G01*
G37*
G36*
G01*
X59400000Y33827500D02*
X59400000Y34752500D01*
G75*
G02*
X59862500Y35215000I462500J0D01*
G01*
X60787500Y35215000D01*
G75*
G02*
X61250000Y34752500I0J-462500D01*
G01*
X61250000Y33827500D01*
G75*
G02*
X60787500Y33365000I-462500J0D01*
G01*
X59862500Y33365000D01*
G75*
G02*
X59400000Y33827500I0J462500D01*
G01*
G37*
G36*
G01*
X54320000Y41447500D02*
X54320000Y42372500D01*
G75*
G02*
X54782500Y42835000I462500J0D01*
G01*
X55707500Y42835000D01*
G75*
G02*
X56170000Y42372500I0J-462500D01*
G01*
X56170000Y41447500D01*
G75*
G02*
X55707500Y40985000I-462500J0D01*
G01*
X54782500Y40985000D01*
G75*
G02*
X54320000Y41447500I0J462500D01*
G01*
G37*
G36*
G01*
X54320000Y33827500D02*
X54320000Y34752500D01*
G75*
G02*
X54782500Y35215000I462500J0D01*
G01*
X55707500Y35215000D01*
G75*
G02*
X56170000Y34752500I0J-462500D01*
G01*
X56170000Y33827500D01*
G75*
G02*
X55707500Y33365000I-462500J0D01*
G01*
X54782500Y33365000D01*
G75*
G02*
X54320000Y33827500I0J462500D01*
G01*
G37*
G36*
G01*
X56860000Y41447500D02*
X56860000Y42372500D01*
G75*
G02*
X57322500Y42835000I462500J0D01*
G01*
X58247500Y42835000D01*
G75*
G02*
X58710000Y42372500I0J-462500D01*
G01*
X58710000Y41447500D01*
G75*
G02*
X58247500Y40985000I-462500J0D01*
G01*
X57322500Y40985000D01*
G75*
G02*
X56860000Y41447500I0J462500D01*
G01*
G37*
G36*
G01*
X54320000Y38907500D02*
X54320000Y39832500D01*
G75*
G02*
X54782500Y40295000I462500J0D01*
G01*
X55707500Y40295000D01*
G75*
G02*
X56170000Y39832500I0J-462500D01*
G01*
X56170000Y38907500D01*
G75*
G02*
X55707500Y38445000I-462500J0D01*
G01*
X54782500Y38445000D01*
G75*
G02*
X54320000Y38907500I0J462500D01*
G01*
G37*
G36*
G01*
X56860000Y33827500D02*
X56860000Y34752500D01*
G75*
G02*
X57322500Y35215000I462500J0D01*
G01*
X58247500Y35215000D01*
G75*
G02*
X58710000Y34752500I0J-462500D01*
G01*
X58710000Y33827500D01*
G75*
G02*
X58247500Y33365000I-462500J0D01*
G01*
X57322500Y33365000D01*
G75*
G02*
X56860000Y33827500I0J462500D01*
G01*
G37*
G36*
G01*
X56860000Y36367500D02*
X56860000Y37292500D01*
G75*
G02*
X57322500Y37755000I462500J0D01*
G01*
X58247500Y37755000D01*
G75*
G02*
X58710000Y37292500I0J-462500D01*
G01*
X58710000Y36367500D01*
G75*
G02*
X58247500Y35905000I-462500J0D01*
G01*
X57322500Y35905000D01*
G75*
G02*
X56860000Y36367500I0J462500D01*
G01*
G37*
G36*
G01*
X69560000Y31287500D02*
X69560000Y32212500D01*
G75*
G02*
X70022500Y32675000I462500J0D01*
G01*
X70947500Y32675000D01*
G75*
G02*
X71410000Y32212500I0J-462500D01*
G01*
X71410000Y31287500D01*
G75*
G02*
X70947500Y30825000I-462500J0D01*
G01*
X70022500Y30825000D01*
G75*
G02*
X69560000Y31287500I0J462500D01*
G01*
G37*
G36*
G01*
X54458697Y27015068D02*
X54899932Y27456303D01*
G75*
G02*
X55590068Y27456303I345068J-345068D01*
G01*
X56031303Y27015068D01*
G75*
G02*
X56031303Y26324932I-345068J-345068D01*
G01*
X55590068Y25883697D01*
G75*
G02*
X54899932Y25883697I-345068J345068D01*
G01*
X54458697Y26324932D01*
G75*
G02*
X54458697Y27015068I345068J345068D01*
G01*
G37*
G36*
G01*
X56860000Y31287500D02*
X56860000Y32212500D01*
G75*
G02*
X57322500Y32675000I462500J0D01*
G01*
X58247500Y32675000D01*
G75*
G02*
X58710000Y32212500I0J-462500D01*
G01*
X58710000Y31287500D01*
G75*
G02*
X58247500Y30825000I-462500J0D01*
G01*
X57322500Y30825000D01*
G75*
G02*
X56860000Y31287500I0J462500D01*
G01*
G37*
G36*
G01*
X62078697Y24475068D02*
X62519932Y24916303D01*
G75*
G02*
X63210068Y24916303I345068J-345068D01*
G01*
X63651303Y24475068D01*
G75*
G02*
X63651303Y23784932I-345068J-345068D01*
G01*
X63210068Y23343697D01*
G75*
G02*
X62519932Y23343697I-345068J345068D01*
G01*
X62078697Y23784932D01*
G75*
G02*
X62078697Y24475068I345068J345068D01*
G01*
G37*
G36*
G01*
X62078697Y27015068D02*
X62519932Y27456303D01*
G75*
G02*
X63210068Y27456303I345068J-345068D01*
G01*
X63651303Y27015068D01*
G75*
G02*
X63651303Y26324932I-345068J-345068D01*
G01*
X63210068Y25883697D01*
G75*
G02*
X62519932Y25883697I-345068J345068D01*
G01*
X62078697Y26324932D01*
G75*
G02*
X62078697Y27015068I345068J345068D01*
G01*
G37*
G36*
G01*
X29058697Y27015068D02*
X29499932Y27456303D01*
G75*
G02*
X30190068Y27456303I345068J-345068D01*
G01*
X30631303Y27015068D01*
G75*
G02*
X30631303Y26324932I-345068J-345068D01*
G01*
X30190068Y25883697D01*
G75*
G02*
X29499932Y25883697I-345068J345068D01*
G01*
X29058697Y26324932D01*
G75*
G02*
X29058697Y27015068I345068J345068D01*
G01*
G37*
G36*
G01*
X54320000Y31287500D02*
X54320000Y32212500D01*
G75*
G02*
X54782500Y32675000I462500J0D01*
G01*
X55707500Y32675000D01*
G75*
G02*
X56170000Y32212500I0J-462500D01*
G01*
X56170000Y31287500D01*
G75*
G02*
X55707500Y30825000I-462500J0D01*
G01*
X54782500Y30825000D01*
G75*
G02*
X54320000Y31287500I0J462500D01*
G01*
G37*
G36*
G01*
X51918697Y24475068D02*
X52359932Y24916303D01*
G75*
G02*
X53050068Y24916303I345068J-345068D01*
G01*
X53491303Y24475068D01*
G75*
G02*
X53491303Y23784932I-345068J-345068D01*
G01*
X53050068Y23343697D01*
G75*
G02*
X52359932Y23343697I-345068J345068D01*
G01*
X51918697Y23784932D01*
G75*
G02*
X51918697Y24475068I345068J345068D01*
G01*
G37*
G36*
G01*
X67158697Y27015068D02*
X67599932Y27456303D01*
G75*
G02*
X68290068Y27456303I345068J-345068D01*
G01*
X68731303Y27015068D01*
G75*
G02*
X68731303Y26324932I-345068J-345068D01*
G01*
X68290068Y25883697D01*
G75*
G02*
X67599932Y25883697I-345068J345068D01*
G01*
X67158697Y26324932D01*
G75*
G02*
X67158697Y27015068I345068J345068D01*
G01*
G37*
G36*
G01*
X51918697Y27015068D02*
X52359932Y27456303D01*
G75*
G02*
X53050068Y27456303I345068J-345068D01*
G01*
X53491303Y27015068D01*
G75*
G02*
X53491303Y26324932I-345068J-345068D01*
G01*
X53050068Y25883697D01*
G75*
G02*
X52359932Y25883697I-345068J345068D01*
G01*
X51918697Y26324932D01*
G75*
G02*
X51918697Y27015068I345068J345068D01*
G01*
G37*
G36*
G01*
X26518697Y27015068D02*
X26959932Y27456303D01*
G75*
G02*
X27650068Y27456303I345068J-345068D01*
G01*
X28091303Y27015068D01*
G75*
G02*
X28091303Y26324932I-345068J-345068D01*
G01*
X27650068Y25883697D01*
G75*
G02*
X26959932Y25883697I-345068J345068D01*
G01*
X26518697Y26324932D01*
G75*
G02*
X26518697Y27015068I345068J345068D01*
G01*
G37*
G36*
G01*
X26518697Y24475068D02*
X26959932Y24916303D01*
G75*
G02*
X27650068Y24916303I345068J-345068D01*
G01*
X28091303Y24475068D01*
G75*
G02*
X28091303Y23784932I-345068J-345068D01*
G01*
X27650068Y23343697D01*
G75*
G02*
X26959932Y23343697I-345068J345068D01*
G01*
X26518697Y23784932D01*
G75*
G02*
X26518697Y24475068I345068J345068D01*
G01*
G37*
G36*
G01*
X54458697Y24475068D02*
X54899932Y24916303D01*
G75*
G02*
X55590068Y24916303I345068J-345068D01*
G01*
X56031303Y24475068D01*
G75*
G02*
X56031303Y23784932I-345068J-345068D01*
G01*
X55590068Y23343697D01*
G75*
G02*
X54899932Y23343697I-345068J345068D01*
G01*
X54458697Y23784932D01*
G75*
G02*
X54458697Y24475068I345068J345068D01*
G01*
G37*
G36*
G01*
X67020000Y31287500D02*
X67020000Y32212500D01*
G75*
G02*
X67482500Y32675000I462500J0D01*
G01*
X68407500Y32675000D01*
G75*
G02*
X68870000Y32212500I0J-462500D01*
G01*
X68870000Y31287500D01*
G75*
G02*
X68407500Y30825000I-462500J0D01*
G01*
X67482500Y30825000D01*
G75*
G02*
X67020000Y31287500I0J462500D01*
G01*
G37*
G36*
G01*
X56998697Y27015068D02*
X57439932Y27456303D01*
G75*
G02*
X58130068Y27456303I345068J-345068D01*
G01*
X58571303Y27015068D01*
G75*
G02*
X58571303Y26324932I-345068J-345068D01*
G01*
X58130068Y25883697D01*
G75*
G02*
X57439932Y25883697I-345068J345068D01*
G01*
X56998697Y26324932D01*
G75*
G02*
X56998697Y27015068I345068J345068D01*
G01*
G37*
G36*
G01*
X59400000Y31287500D02*
X59400000Y32212500D01*
G75*
G02*
X59862500Y32675000I462500J0D01*
G01*
X60787500Y32675000D01*
G75*
G02*
X61250000Y32212500I0J-462500D01*
G01*
X61250000Y31287500D01*
G75*
G02*
X60787500Y30825000I-462500J0D01*
G01*
X59862500Y30825000D01*
G75*
G02*
X59400000Y31287500I0J462500D01*
G01*
G37*
G36*
G01*
X29058697Y24475068D02*
X29499932Y24916303D01*
G75*
G02*
X30190068Y24916303I345068J-345068D01*
G01*
X30631303Y24475068D01*
G75*
G02*
X30631303Y23784932I-345068J-345068D01*
G01*
X30190068Y23343697D01*
G75*
G02*
X29499932Y23343697I-345068J345068D01*
G01*
X29058697Y23784932D01*
G75*
G02*
X29058697Y24475068I345068J345068D01*
G01*
G37*
G36*
G01*
X64480000Y31287500D02*
X64480000Y32212500D01*
G75*
G02*
X64942500Y32675000I462500J0D01*
G01*
X65867500Y32675000D01*
G75*
G02*
X66330000Y32212500I0J-462500D01*
G01*
X66330000Y31287500D01*
G75*
G02*
X65867500Y30825000I-462500J0D01*
G01*
X64942500Y30825000D01*
G75*
G02*
X64480000Y31287500I0J462500D01*
G01*
G37*
G36*
G01*
X67158697Y24475068D02*
X67599932Y24916303D01*
G75*
G02*
X68290068Y24916303I345068J-345068D01*
G01*
X68731303Y24475068D01*
G75*
G02*
X68731303Y23784932I-345068J-345068D01*
G01*
X68290068Y23343697D01*
G75*
G02*
X67599932Y23343697I-345068J345068D01*
G01*
X67158697Y23784932D01*
G75*
G02*
X67158697Y24475068I345068J345068D01*
G01*
G37*
G36*
G01*
X61940000Y31287500D02*
X61940000Y32212500D01*
G75*
G02*
X62402500Y32675000I462500J0D01*
G01*
X63327500Y32675000D01*
G75*
G02*
X63790000Y32212500I0J-462500D01*
G01*
X63790000Y31287500D01*
G75*
G02*
X63327500Y30825000I-462500J0D01*
G01*
X62402500Y30825000D01*
G75*
G02*
X61940000Y31287500I0J462500D01*
G01*
G37*
G36*
G01*
X59538697Y24475068D02*
X59979932Y24916303D01*
G75*
G02*
X60670068Y24916303I345068J-345068D01*
G01*
X61111303Y24475068D01*
G75*
G02*
X61111303Y23784932I-345068J-345068D01*
G01*
X60670068Y23343697D01*
G75*
G02*
X59979932Y23343697I-345068J345068D01*
G01*
X59538697Y23784932D01*
G75*
G02*
X59538697Y24475068I345068J345068D01*
G01*
G37*
G36*
G01*
X56998697Y24475068D02*
X57439932Y24916303D01*
G75*
G02*
X58130068Y24916303I345068J-345068D01*
G01*
X58571303Y24475068D01*
G75*
G02*
X58571303Y23784932I-345068J-345068D01*
G01*
X58130068Y23343697D01*
G75*
G02*
X57439932Y23343697I-345068J345068D01*
G01*
X56998697Y23784932D01*
G75*
G02*
X56998697Y24475068I345068J345068D01*
G01*
G37*
G36*
G01*
X64618697Y27015068D02*
X65059932Y27456303D01*
G75*
G02*
X65750068Y27456303I345068J-345068D01*
G01*
X66191303Y27015068D01*
G75*
G02*
X66191303Y26324932I-345068J-345068D01*
G01*
X65750068Y25883697D01*
G75*
G02*
X65059932Y25883697I-345068J345068D01*
G01*
X64618697Y26324932D01*
G75*
G02*
X64618697Y27015068I345068J345068D01*
G01*
G37*
G36*
G01*
X64618697Y24475068D02*
X65059932Y24916303D01*
G75*
G02*
X65750068Y24916303I345068J-345068D01*
G01*
X66191303Y24475068D01*
G75*
G02*
X66191303Y23784932I-345068J-345068D01*
G01*
X65750068Y23343697D01*
G75*
G02*
X65059932Y23343697I-345068J345068D01*
G01*
X64618697Y23784932D01*
G75*
G02*
X64618697Y24475068I345068J345068D01*
G01*
G37*
G36*
G01*
X59538697Y27015068D02*
X59979932Y27456303D01*
G75*
G02*
X60670068Y27456303I345068J-345068D01*
G01*
X61111303Y27015068D01*
G75*
G02*
X61111303Y26324932I-345068J-345068D01*
G01*
X60670068Y25883697D01*
G75*
G02*
X59979932Y25883697I-345068J345068D01*
G01*
X59538697Y26324932D01*
G75*
G02*
X59538697Y27015068I345068J345068D01*
G01*
G37*
G36*
G01*
X72100000Y41447500D02*
X72100000Y42372500D01*
G75*
G02*
X72562500Y42835000I462500J0D01*
G01*
X73487500Y42835000D01*
G75*
G02*
X73950000Y42372500I0J-462500D01*
G01*
X73950000Y41447500D01*
G75*
G02*
X73487500Y40985000I-462500J0D01*
G01*
X72562500Y40985000D01*
G75*
G02*
X72100000Y41447500I0J462500D01*
G01*
G37*
G36*
G01*
X72100000Y31287500D02*
X72100000Y32212500D01*
G75*
G02*
X72562500Y32675000I462500J0D01*
G01*
X73487500Y32675000D01*
G75*
G02*
X73950000Y32212500I0J-462500D01*
G01*
X73950000Y31287500D01*
G75*
G02*
X73487500Y30825000I-462500J0D01*
G01*
X72562500Y30825000D01*
G75*
G02*
X72100000Y31287500I0J462500D01*
G01*
G37*
G36*
G01*
X72100000Y36367500D02*
X72100000Y37292500D01*
G75*
G02*
X72562500Y37755000I462500J0D01*
G01*
X73487500Y37755000D01*
G75*
G02*
X73950000Y37292500I0J-462500D01*
G01*
X73950000Y36367500D01*
G75*
G02*
X73487500Y35905000I-462500J0D01*
G01*
X72562500Y35905000D01*
G75*
G02*
X72100000Y36367500I0J462500D01*
G01*
G37*
G36*
G01*
X72100000Y33827500D02*
X72100000Y34752500D01*
G75*
G02*
X72562500Y35215000I462500J0D01*
G01*
X73487500Y35215000D01*
G75*
G02*
X73950000Y34752500I0J-462500D01*
G01*
X73950000Y33827500D01*
G75*
G02*
X73487500Y33365000I-462500J0D01*
G01*
X72562500Y33365000D01*
G75*
G02*
X72100000Y33827500I0J462500D01*
G01*
G37*
G36*
G01*
X69560000Y33827500D02*
X69560000Y34752500D01*
G75*
G02*
X70022500Y35215000I462500J0D01*
G01*
X70947500Y35215000D01*
G75*
G02*
X71410000Y34752500I0J-462500D01*
G01*
X71410000Y33827500D01*
G75*
G02*
X70947500Y33365000I-462500J0D01*
G01*
X70022500Y33365000D01*
G75*
G02*
X69560000Y33827500I0J462500D01*
G01*
G37*
G36*
G01*
X64480000Y38907500D02*
X64480000Y39832500D01*
G75*
G02*
X64942500Y40295000I462500J0D01*
G01*
X65867500Y40295000D01*
G75*
G02*
X66330000Y39832500I0J-462500D01*
G01*
X66330000Y38907500D01*
G75*
G02*
X65867500Y38445000I-462500J0D01*
G01*
X64942500Y38445000D01*
G75*
G02*
X64480000Y38907500I0J462500D01*
G01*
G37*
G36*
G01*
X61940000Y38907500D02*
X61940000Y39832500D01*
G75*
G02*
X62402500Y40295000I462500J0D01*
G01*
X63327500Y40295000D01*
G75*
G02*
X63790000Y39832500I0J-462500D01*
G01*
X63790000Y38907500D01*
G75*
G02*
X63327500Y38445000I-462500J0D01*
G01*
X62402500Y38445000D01*
G75*
G02*
X61940000Y38907500I0J462500D01*
G01*
G37*
G36*
G01*
X69560000Y38907500D02*
X69560000Y39832500D01*
G75*
G02*
X70022500Y40295000I462500J0D01*
G01*
X70947500Y40295000D01*
G75*
G02*
X71410000Y39832500I0J-462500D01*
G01*
X71410000Y38907500D01*
G75*
G02*
X70947500Y38445000I-462500J0D01*
G01*
X70022500Y38445000D01*
G75*
G02*
X69560000Y38907500I0J462500D01*
G01*
G37*
G36*
G01*
X72100000Y38907500D02*
X72100000Y39832500D01*
G75*
G02*
X72562500Y40295000I462500J0D01*
G01*
X73487500Y40295000D01*
G75*
G02*
X73950000Y39832500I0J-462500D01*
G01*
X73950000Y38907500D01*
G75*
G02*
X73487500Y38445000I-462500J0D01*
G01*
X72562500Y38445000D01*
G75*
G02*
X72100000Y38907500I0J462500D01*
G01*
G37*
G36*
G01*
X69560000Y36367500D02*
X69560000Y37292500D01*
G75*
G02*
X70022500Y37755000I462500J0D01*
G01*
X70947500Y37755000D01*
G75*
G02*
X71410000Y37292500I0J-462500D01*
G01*
X71410000Y36367500D01*
G75*
G02*
X70947500Y35905000I-462500J0D01*
G01*
X70022500Y35905000D01*
G75*
G02*
X69560000Y36367500I0J462500D01*
G01*
G37*
G36*
G01*
X67020000Y38907500D02*
X67020000Y39832500D01*
G75*
G02*
X67482500Y40295000I462500J0D01*
G01*
X68407500Y40295000D01*
G75*
G02*
X68870000Y39832500I0J-462500D01*
G01*
X68870000Y38907500D01*
G75*
G02*
X68407500Y38445000I-462500J0D01*
G01*
X67482500Y38445000D01*
G75*
G02*
X67020000Y38907500I0J462500D01*
G01*
G37*
G36*
G01*
X64480000Y41447500D02*
X64480000Y42372500D01*
G75*
G02*
X64942500Y42835000I462500J0D01*
G01*
X65867500Y42835000D01*
G75*
G02*
X66330000Y42372500I0J-462500D01*
G01*
X66330000Y41447500D01*
G75*
G02*
X65867500Y40985000I-462500J0D01*
G01*
X64942500Y40985000D01*
G75*
G02*
X64480000Y41447500I0J462500D01*
G01*
G37*
G36*
G01*
X64480000Y33827500D02*
X64480000Y34752500D01*
G75*
G02*
X64942500Y35215000I462500J0D01*
G01*
X65867500Y35215000D01*
G75*
G02*
X66330000Y34752500I0J-462500D01*
G01*
X66330000Y33827500D01*
G75*
G02*
X65867500Y33365000I-462500J0D01*
G01*
X64942500Y33365000D01*
G75*
G02*
X64480000Y33827500I0J462500D01*
G01*
G37*
G36*
G01*
X67020000Y33827500D02*
X67020000Y34752500D01*
G75*
G02*
X67482500Y35215000I462500J0D01*
G01*
X68407500Y35215000D01*
G75*
G02*
X68870000Y34752500I0J-462500D01*
G01*
X68870000Y33827500D01*
G75*
G02*
X68407500Y33365000I-462500J0D01*
G01*
X67482500Y33365000D01*
G75*
G02*
X67020000Y33827500I0J462500D01*
G01*
G37*
G36*
G01*
X67020000Y36367500D02*
X67020000Y37292500D01*
G75*
G02*
X67482500Y37755000I462500J0D01*
G01*
X68407500Y37755000D01*
G75*
G02*
X68870000Y37292500I0J-462500D01*
G01*
X68870000Y36367500D01*
G75*
G02*
X68407500Y35905000I-462500J0D01*
G01*
X67482500Y35905000D01*
G75*
G02*
X67020000Y36367500I0J462500D01*
G01*
G37*
G36*
G01*
X61940000Y33827500D02*
X61940000Y34752500D01*
G75*
G02*
X62402500Y35215000I462500J0D01*
G01*
X63327500Y35215000D01*
G75*
G02*
X63790000Y34752500I0J-462500D01*
G01*
X63790000Y33827500D01*
G75*
G02*
X63327500Y33365000I-462500J0D01*
G01*
X62402500Y33365000D01*
G75*
G02*
X61940000Y33827500I0J462500D01*
G01*
G37*
G36*
G01*
X61940000Y36367500D02*
X61940000Y37292500D01*
G75*
G02*
X62402500Y37755000I462500J0D01*
G01*
X63327500Y37755000D01*
G75*
G02*
X63790000Y37292500I0J-462500D01*
G01*
X63790000Y36367500D01*
G75*
G02*
X63327500Y35905000I-462500J0D01*
G01*
X62402500Y35905000D01*
G75*
G02*
X61940000Y36367500I0J462500D01*
G01*
G37*
G36*
G01*
X64480000Y36367500D02*
X64480000Y37292500D01*
G75*
G02*
X64942500Y37755000I462500J0D01*
G01*
X65867500Y37755000D01*
G75*
G02*
X66330000Y37292500I0J-462500D01*
G01*
X66330000Y36367500D01*
G75*
G02*
X65867500Y35905000I-462500J0D01*
G01*
X64942500Y35905000D01*
G75*
G02*
X64480000Y36367500I0J462500D01*
G01*
G37*
G36*
G01*
X67020000Y41447500D02*
X67020000Y42372500D01*
G75*
G02*
X67482500Y42835000I462500J0D01*
G01*
X68407500Y42835000D01*
G75*
G02*
X68870000Y42372500I0J-462500D01*
G01*
X68870000Y41447500D01*
G75*
G02*
X68407500Y40985000I-462500J0D01*
G01*
X67482500Y40985000D01*
G75*
G02*
X67020000Y41447500I0J462500D01*
G01*
G37*
G36*
G01*
X61940000Y41447500D02*
X61940000Y42372500D01*
G75*
G02*
X62402500Y42835000I462500J0D01*
G01*
X63327500Y42835000D01*
G75*
G02*
X63790000Y42372500I0J-462500D01*
G01*
X63790000Y41447500D01*
G75*
G02*
X63327500Y40985000I-462500J0D01*
G01*
X62402500Y40985000D01*
G75*
G02*
X61940000Y41447500I0J462500D01*
G01*
G37*
G36*
G01*
X69560000Y41447500D02*
X69560000Y42372500D01*
G75*
G02*
X70022500Y42835000I462500J0D01*
G01*
X70947500Y42835000D01*
G75*
G02*
X71410000Y42372500I0J-462500D01*
G01*
X71410000Y41447500D01*
G75*
G02*
X70947500Y40985000I-462500J0D01*
G01*
X70022500Y40985000D01*
G75*
G02*
X69560000Y41447500I0J462500D01*
G01*
G37*
G36*
G01*
X46700000Y18587500D02*
X46700000Y19512500D01*
G75*
G02*
X47162500Y19975000I462500J0D01*
G01*
X48087500Y19975000D01*
G75*
G02*
X48550000Y19512500I0J-462500D01*
G01*
X48550000Y18587500D01*
G75*
G02*
X48087500Y18125000I-462500J0D01*
G01*
X47162500Y18125000D01*
G75*
G02*
X46700000Y18587500I0J462500D01*
G01*
G37*
G36*
G01*
X69560000Y18587500D02*
X69560000Y19512500D01*
G75*
G02*
X70022500Y19975000I462500J0D01*
G01*
X70947500Y19975000D01*
G75*
G02*
X71410000Y19512500I0J-462500D01*
G01*
X71410000Y18587500D01*
G75*
G02*
X70947500Y18125000I-462500J0D01*
G01*
X70022500Y18125000D01*
G75*
G02*
X69560000Y18587500I0J462500D01*
G01*
G37*
G36*
G01*
X44160000Y16047500D02*
X44160000Y16972500D01*
G75*
G02*
X44622500Y17435000I462500J0D01*
G01*
X45547500Y17435000D01*
G75*
G02*
X46010000Y16972500I0J-462500D01*
G01*
X46010000Y16047500D01*
G75*
G02*
X45547500Y15585000I-462500J0D01*
G01*
X44622500Y15585000D01*
G75*
G02*
X44160000Y16047500I0J462500D01*
G01*
G37*
G36*
G01*
X69560000Y16047500D02*
X69560000Y16972500D01*
G75*
G02*
X70022500Y17435000I462500J0D01*
G01*
X70947500Y17435000D01*
G75*
G02*
X71410000Y16972500I0J-462500D01*
G01*
X71410000Y16047500D01*
G75*
G02*
X70947500Y15585000I-462500J0D01*
G01*
X70022500Y15585000D01*
G75*
G02*
X69560000Y16047500I0J462500D01*
G01*
G37*
G36*
G01*
X69560000Y21127500D02*
X69560000Y22052500D01*
G75*
G02*
X70022500Y22515000I462500J0D01*
G01*
X70947500Y22515000D01*
G75*
G02*
X71410000Y22052500I0J-462500D01*
G01*
X71410000Y21127500D01*
G75*
G02*
X70947500Y20665000I-462500J0D01*
G01*
X70022500Y20665000D01*
G75*
G02*
X69560000Y21127500I0J462500D01*
G01*
G37*
G36*
G01*
X69560000Y13507500D02*
X69560000Y14432500D01*
G75*
G02*
X70022500Y14895000I462500J0D01*
G01*
X70947500Y14895000D01*
G75*
G02*
X71410000Y14432500I0J-462500D01*
G01*
X71410000Y13507500D01*
G75*
G02*
X70947500Y13045000I-462500J0D01*
G01*
X70022500Y13045000D01*
G75*
G02*
X69560000Y13507500I0J462500D01*
G01*
G37*
G36*
G01*
X44160000Y21127500D02*
X44160000Y22052500D01*
G75*
G02*
X44622500Y22515000I462500J0D01*
G01*
X45547500Y22515000D01*
G75*
G02*
X46010000Y22052500I0J-462500D01*
G01*
X46010000Y21127500D01*
G75*
G02*
X45547500Y20665000I-462500J0D01*
G01*
X44622500Y20665000D01*
G75*
G02*
X44160000Y21127500I0J462500D01*
G01*
G37*
G36*
G01*
X44160000Y13507500D02*
X44160000Y14432500D01*
G75*
G02*
X44622500Y14895000I462500J0D01*
G01*
X45547500Y14895000D01*
G75*
G02*
X46010000Y14432500I0J-462500D01*
G01*
X46010000Y13507500D01*
G75*
G02*
X45547500Y13045000I-462500J0D01*
G01*
X44622500Y13045000D01*
G75*
G02*
X44160000Y13507500I0J462500D01*
G01*
G37*
G36*
G01*
X46700000Y21127500D02*
X46700000Y22052500D01*
G75*
G02*
X47162500Y22515000I462500J0D01*
G01*
X48087500Y22515000D01*
G75*
G02*
X48550000Y22052500I0J-462500D01*
G01*
X48550000Y21127500D01*
G75*
G02*
X48087500Y20665000I-462500J0D01*
G01*
X47162500Y20665000D01*
G75*
G02*
X46700000Y21127500I0J462500D01*
G01*
G37*
G36*
G01*
X44160000Y18587500D02*
X44160000Y19512500D01*
G75*
G02*
X44622500Y19975000I462500J0D01*
G01*
X45547500Y19975000D01*
G75*
G02*
X46010000Y19512500I0J-462500D01*
G01*
X46010000Y18587500D01*
G75*
G02*
X45547500Y18125000I-462500J0D01*
G01*
X44622500Y18125000D01*
G75*
G02*
X44160000Y18587500I0J462500D01*
G01*
G37*
G36*
G01*
X46700000Y13507500D02*
X46700000Y14432500D01*
G75*
G02*
X47162500Y14895000I462500J0D01*
G01*
X48087500Y14895000D01*
G75*
G02*
X48550000Y14432500I0J-462500D01*
G01*
X48550000Y13507500D01*
G75*
G02*
X48087500Y13045000I-462500J0D01*
G01*
X47162500Y13045000D01*
G75*
G02*
X46700000Y13507500I0J462500D01*
G01*
G37*
G36*
G01*
X46700000Y16047500D02*
X46700000Y16972500D01*
G75*
G02*
X47162500Y17435000I462500J0D01*
G01*
X48087500Y17435000D01*
G75*
G02*
X48550000Y16972500I0J-462500D01*
G01*
X48550000Y16047500D01*
G75*
G02*
X48087500Y15585000I-462500J0D01*
G01*
X47162500Y15585000D01*
G75*
G02*
X46700000Y16047500I0J462500D01*
G01*
G37*
G36*
G01*
X51918697Y14315068D02*
X52359932Y14756303D01*
G75*
G02*
X53050068Y14756303I345068J-345068D01*
G01*
X53491303Y14315068D01*
G75*
G02*
X53491303Y13624932I-345068J-345068D01*
G01*
X53050068Y13183697D01*
G75*
G02*
X52359932Y13183697I-345068J345068D01*
G01*
X51918697Y13624932D01*
G75*
G02*
X51918697Y14315068I345068J345068D01*
G01*
G37*
G36*
G01*
X51918697Y21935068D02*
X52359932Y22376303D01*
G75*
G02*
X53050068Y22376303I345068J-345068D01*
G01*
X53491303Y21935068D01*
G75*
G02*
X53491303Y21244932I-345068J-345068D01*
G01*
X53050068Y20803697D01*
G75*
G02*
X52359932Y20803697I-345068J345068D01*
G01*
X51918697Y21244932D01*
G75*
G02*
X51918697Y21935068I345068J345068D01*
G01*
G37*
G36*
G01*
X26518697Y19395068D02*
X26959932Y19836303D01*
G75*
G02*
X27650068Y19836303I345068J-345068D01*
G01*
X28091303Y19395068D01*
G75*
G02*
X28091303Y18704932I-345068J-345068D01*
G01*
X27650068Y18263697D01*
G75*
G02*
X26959932Y18263697I-345068J345068D01*
G01*
X26518697Y18704932D01*
G75*
G02*
X26518697Y19395068I345068J345068D01*
G01*
G37*
G36*
G01*
X51918697Y16855068D02*
X52359932Y17296303D01*
G75*
G02*
X53050068Y17296303I345068J-345068D01*
G01*
X53491303Y16855068D01*
G75*
G02*
X53491303Y16164932I-345068J-345068D01*
G01*
X53050068Y15723697D01*
G75*
G02*
X52359932Y15723697I-345068J345068D01*
G01*
X51918697Y16164932D01*
G75*
G02*
X51918697Y16855068I345068J345068D01*
G01*
G37*
G36*
G01*
X51918697Y19395068D02*
X52359932Y19836303D01*
G75*
G02*
X53050068Y19836303I345068J-345068D01*
G01*
X53491303Y19395068D01*
G75*
G02*
X53491303Y18704932I-345068J-345068D01*
G01*
X53050068Y18263697D01*
G75*
G02*
X52359932Y18263697I-345068J345068D01*
G01*
X51918697Y18704932D01*
G75*
G02*
X51918697Y19395068I345068J345068D01*
G01*
G37*
G36*
G01*
X26518697Y14315068D02*
X26959932Y14756303D01*
G75*
G02*
X27650068Y14756303I345068J-345068D01*
G01*
X28091303Y14315068D01*
G75*
G02*
X28091303Y13624932I-345068J-345068D01*
G01*
X27650068Y13183697D01*
G75*
G02*
X26959932Y13183697I-345068J345068D01*
G01*
X26518697Y13624932D01*
G75*
G02*
X26518697Y14315068I345068J345068D01*
G01*
G37*
G36*
G01*
X26518697Y21935068D02*
X26959932Y22376303D01*
G75*
G02*
X27650068Y22376303I345068J-345068D01*
G01*
X28091303Y21935068D01*
G75*
G02*
X28091303Y21244932I-345068J-345068D01*
G01*
X27650068Y20803697D01*
G75*
G02*
X26959932Y20803697I-345068J345068D01*
G01*
X26518697Y21244932D01*
G75*
G02*
X26518697Y21935068I345068J345068D01*
G01*
G37*
G36*
G01*
X29058697Y21935068D02*
X29499932Y22376303D01*
G75*
G02*
X30190068Y22376303I345068J-345068D01*
G01*
X30631303Y21935068D01*
G75*
G02*
X30631303Y21244932I-345068J-345068D01*
G01*
X30190068Y20803697D01*
G75*
G02*
X29499932Y20803697I-345068J345068D01*
G01*
X29058697Y21244932D01*
G75*
G02*
X29058697Y21935068I345068J345068D01*
G01*
G37*
G36*
G01*
X26518697Y16855068D02*
X26959932Y17296303D01*
G75*
G02*
X27650068Y17296303I345068J-345068D01*
G01*
X28091303Y16855068D01*
G75*
G02*
X28091303Y16164932I-345068J-345068D01*
G01*
X27650068Y15723697D01*
G75*
G02*
X26959932Y15723697I-345068J345068D01*
G01*
X26518697Y16164932D01*
G75*
G02*
X26518697Y16855068I345068J345068D01*
G01*
G37*
G36*
G01*
X29058697Y19395068D02*
X29499932Y19836303D01*
G75*
G02*
X30190068Y19836303I345068J-345068D01*
G01*
X30631303Y19395068D01*
G75*
G02*
X30631303Y18704932I-345068J-345068D01*
G01*
X30190068Y18263697D01*
G75*
G02*
X29499932Y18263697I-345068J345068D01*
G01*
X29058697Y18704932D01*
G75*
G02*
X29058697Y19395068I345068J345068D01*
G01*
G37*
G36*
G01*
X29058697Y14315068D02*
X29499932Y14756303D01*
G75*
G02*
X30190068Y14756303I345068J-345068D01*
G01*
X30631303Y14315068D01*
G75*
G02*
X30631303Y13624932I-345068J-345068D01*
G01*
X30190068Y13183697D01*
G75*
G02*
X29499932Y13183697I-345068J345068D01*
G01*
X29058697Y13624932D01*
G75*
G02*
X29058697Y14315068I345068J345068D01*
G01*
G37*
G36*
G01*
X29058697Y16855068D02*
X29499932Y17296303D01*
G75*
G02*
X30190068Y17296303I345068J-345068D01*
G01*
X30631303Y16855068D01*
G75*
G02*
X30631303Y16164932I-345068J-345068D01*
G01*
X30190068Y15723697D01*
G75*
G02*
X29499932Y15723697I-345068J345068D01*
G01*
X29058697Y16164932D01*
G75*
G02*
X29058697Y16855068I345068J345068D01*
G01*
G37*
G36*
G01*
X67158697Y6695068D02*
X67599932Y7136303D01*
G75*
G02*
X68290068Y7136303I345068J-345068D01*
G01*
X68731303Y6695068D01*
G75*
G02*
X68731303Y6004932I-345068J-345068D01*
G01*
X68290068Y5563697D01*
G75*
G02*
X67599932Y5563697I-345068J345068D01*
G01*
X67158697Y6004932D01*
G75*
G02*
X67158697Y6695068I345068J345068D01*
G01*
G37*
G36*
G01*
X64618697Y6695068D02*
X65059932Y7136303D01*
G75*
G02*
X65750068Y7136303I345068J-345068D01*
G01*
X66191303Y6695068D01*
G75*
G02*
X66191303Y6004932I-345068J-345068D01*
G01*
X65750068Y5563697D01*
G75*
G02*
X65059932Y5563697I-345068J345068D01*
G01*
X64618697Y6004932D01*
G75*
G02*
X64618697Y6695068I345068J345068D01*
G01*
G37*
G36*
G01*
X6060000Y5887500D02*
X6060000Y6812500D01*
G75*
G02*
X6522500Y7275000I462500J0D01*
G01*
X7447500Y7275000D01*
G75*
G02*
X7910000Y6812500I0J-462500D01*
G01*
X7910000Y5887500D01*
G75*
G02*
X7447500Y5425000I-462500J0D01*
G01*
X6522500Y5425000D01*
G75*
G02*
X6060000Y5887500I0J462500D01*
G01*
G37*
G36*
G01*
X51918697Y11775068D02*
X52359932Y12216303D01*
G75*
G02*
X53050068Y12216303I345068J-345068D01*
G01*
X53491303Y11775068D01*
G75*
G02*
X53491303Y11084932I-345068J-345068D01*
G01*
X53050068Y10643697D01*
G75*
G02*
X52359932Y10643697I-345068J345068D01*
G01*
X51918697Y11084932D01*
G75*
G02*
X51918697Y11775068I345068J345068D01*
G01*
G37*
G36*
G01*
X21438697Y6695068D02*
X21879932Y7136303D01*
G75*
G02*
X22570068Y7136303I345068J-345068D01*
G01*
X23011303Y6695068D01*
G75*
G02*
X23011303Y6004932I-345068J-345068D01*
G01*
X22570068Y5563697D01*
G75*
G02*
X21879932Y5563697I-345068J345068D01*
G01*
X21438697Y6004932D01*
G75*
G02*
X21438697Y6695068I345068J345068D01*
G01*
G37*
G36*
G01*
X26518697Y9235068D02*
X26959932Y9676303D01*
G75*
G02*
X27650068Y9676303I345068J-345068D01*
G01*
X28091303Y9235068D01*
G75*
G02*
X28091303Y8544932I-345068J-345068D01*
G01*
X27650068Y8103697D01*
G75*
G02*
X26959932Y8103697I-345068J345068D01*
G01*
X26518697Y8544932D01*
G75*
G02*
X26518697Y9235068I345068J345068D01*
G01*
G37*
G36*
G01*
X29058697Y6695068D02*
X29499932Y7136303D01*
G75*
G02*
X30190068Y7136303I345068J-345068D01*
G01*
X30631303Y6695068D01*
G75*
G02*
X30631303Y6004932I-345068J-345068D01*
G01*
X30190068Y5563697D01*
G75*
G02*
X29499932Y5563697I-345068J345068D01*
G01*
X29058697Y6004932D01*
G75*
G02*
X29058697Y6695068I345068J345068D01*
G01*
G37*
G36*
G01*
X51918697Y9235068D02*
X52359932Y9676303D01*
G75*
G02*
X53050068Y9676303I345068J-345068D01*
G01*
X53491303Y9235068D01*
G75*
G02*
X53491303Y8544932I-345068J-345068D01*
G01*
X53050068Y8103697D01*
G75*
G02*
X52359932Y8103697I-345068J345068D01*
G01*
X51918697Y8544932D01*
G75*
G02*
X51918697Y9235068I345068J345068D01*
G01*
G37*
G36*
G01*
X51918697Y6695068D02*
X52359932Y7136303D01*
G75*
G02*
X53050068Y7136303I345068J-345068D01*
G01*
X53491303Y6695068D01*
G75*
G02*
X53491303Y6004932I-345068J-345068D01*
G01*
X53050068Y5563697D01*
G75*
G02*
X52359932Y5563697I-345068J345068D01*
G01*
X51918697Y6004932D01*
G75*
G02*
X51918697Y6695068I345068J345068D01*
G01*
G37*
G36*
G01*
X29058697Y11775068D02*
X29499932Y12216303D01*
G75*
G02*
X30190068Y12216303I345068J-345068D01*
G01*
X30631303Y11775068D01*
G75*
G02*
X30631303Y11084932I-345068J-345068D01*
G01*
X30190068Y10643697D01*
G75*
G02*
X29499932Y10643697I-345068J345068D01*
G01*
X29058697Y11084932D01*
G75*
G02*
X29058697Y11775068I345068J345068D01*
G01*
G37*
G36*
G01*
X62078697Y6695068D02*
X62519932Y7136303D01*
G75*
G02*
X63210068Y7136303I345068J-345068D01*
G01*
X63651303Y6695068D01*
G75*
G02*
X63651303Y6004932I-345068J-345068D01*
G01*
X63210068Y5563697D01*
G75*
G02*
X62519932Y5563697I-345068J345068D01*
G01*
X62078697Y6004932D01*
G75*
G02*
X62078697Y6695068I345068J345068D01*
G01*
G37*
G36*
G01*
X18898697Y6695068D02*
X19339932Y7136303D01*
G75*
G02*
X20030068Y7136303I345068J-345068D01*
G01*
X20471303Y6695068D01*
G75*
G02*
X20471303Y6004932I-345068J-345068D01*
G01*
X20030068Y5563697D01*
G75*
G02*
X19339932Y5563697I-345068J345068D01*
G01*
X18898697Y6004932D01*
G75*
G02*
X18898697Y6695068I345068J345068D01*
G01*
G37*
G36*
G01*
X59538697Y6695068D02*
X59979932Y7136303D01*
G75*
G02*
X60670068Y7136303I345068J-345068D01*
G01*
X61111303Y6695068D01*
G75*
G02*
X61111303Y6004932I-345068J-345068D01*
G01*
X60670068Y5563697D01*
G75*
G02*
X59979932Y5563697I-345068J345068D01*
G01*
X59538697Y6004932D01*
G75*
G02*
X59538697Y6695068I345068J345068D01*
G01*
G37*
G36*
G01*
X29058697Y9235068D02*
X29499932Y9676303D01*
G75*
G02*
X30190068Y9676303I345068J-345068D01*
G01*
X30631303Y9235068D01*
G75*
G02*
X30631303Y8544932I-345068J-345068D01*
G01*
X30190068Y8103697D01*
G75*
G02*
X29499932Y8103697I-345068J345068D01*
G01*
X29058697Y8544932D01*
G75*
G02*
X29058697Y9235068I345068J345068D01*
G01*
G37*
G36*
G01*
X26518697Y11775068D02*
X26959932Y12216303D01*
G75*
G02*
X27650068Y12216303I345068J-345068D01*
G01*
X28091303Y11775068D01*
G75*
G02*
X28091303Y11084932I-345068J-345068D01*
G01*
X27650068Y10643697D01*
G75*
G02*
X26959932Y10643697I-345068J345068D01*
G01*
X26518697Y11084932D01*
G75*
G02*
X26518697Y11775068I345068J345068D01*
G01*
G37*
G36*
G01*
X26518697Y6695068D02*
X26959932Y7136303D01*
G75*
G02*
X27650068Y7136303I345068J-345068D01*
G01*
X28091303Y6695068D01*
G75*
G02*
X28091303Y6004932I-345068J-345068D01*
G01*
X27650068Y5563697D01*
G75*
G02*
X26959932Y5563697I-345068J345068D01*
G01*
X26518697Y6004932D01*
G75*
G02*
X26518697Y6695068I345068J345068D01*
G01*
G37*
G36*
G01*
X54458697Y6695068D02*
X54899932Y7136303D01*
G75*
G02*
X55590068Y7136303I345068J-345068D01*
G01*
X56031303Y6695068D01*
G75*
G02*
X56031303Y6004932I-345068J-345068D01*
G01*
X55590068Y5563697D01*
G75*
G02*
X54899932Y5563697I-345068J345068D01*
G01*
X54458697Y6004932D01*
G75*
G02*
X54458697Y6695068I345068J345068D01*
G01*
G37*
G36*
G01*
X56998697Y6695068D02*
X57439932Y7136303D01*
G75*
G02*
X58130068Y7136303I345068J-345068D01*
G01*
X58571303Y6695068D01*
G75*
G02*
X58571303Y6004932I-345068J-345068D01*
G01*
X58130068Y5563697D01*
G75*
G02*
X57439932Y5563697I-345068J345068D01*
G01*
X56998697Y6004932D01*
G75*
G02*
X56998697Y6695068I345068J345068D01*
G01*
G37*
G36*
G01*
X8600000Y8427500D02*
X8600000Y9352500D01*
G75*
G02*
X9062500Y9815000I462500J0D01*
G01*
X9987500Y9815000D01*
G75*
G02*
X10450000Y9352500I0J-462500D01*
G01*
X10450000Y8427500D01*
G75*
G02*
X9987500Y7965000I-462500J0D01*
G01*
X9062500Y7965000D01*
G75*
G02*
X8600000Y8427500I0J462500D01*
G01*
G37*
G36*
G01*
X44160000Y8427500D02*
X44160000Y9352500D01*
G75*
G02*
X44622500Y9815000I462500J0D01*
G01*
X45547500Y9815000D01*
G75*
G02*
X46010000Y9352500I0J-462500D01*
G01*
X46010000Y8427500D01*
G75*
G02*
X45547500Y7965000I-462500J0D01*
G01*
X44622500Y7965000D01*
G75*
G02*
X44160000Y8427500I0J462500D01*
G01*
G37*
G36*
G01*
X69560000Y5887500D02*
X69560000Y6812500D01*
G75*
G02*
X70022500Y7275000I462500J0D01*
G01*
X70947500Y7275000D01*
G75*
G02*
X71410000Y6812500I0J-462500D01*
G01*
X71410000Y5887500D01*
G75*
G02*
X70947500Y5425000I-462500J0D01*
G01*
X70022500Y5425000D01*
G75*
G02*
X69560000Y5887500I0J462500D01*
G01*
G37*
G36*
G01*
X69560000Y10967500D02*
X69560000Y11892500D01*
G75*
G02*
X70022500Y12355000I462500J0D01*
G01*
X70947500Y12355000D01*
G75*
G02*
X71410000Y11892500I0J-462500D01*
G01*
X71410000Y10967500D01*
G75*
G02*
X70947500Y10505000I-462500J0D01*
G01*
X70022500Y10505000D01*
G75*
G02*
X69560000Y10967500I0J462500D01*
G01*
G37*
G36*
G01*
X31460000Y5887500D02*
X31460000Y6812500D01*
G75*
G02*
X31922500Y7275000I462500J0D01*
G01*
X32847500Y7275000D01*
G75*
G02*
X33310000Y6812500I0J-462500D01*
G01*
X33310000Y5887500D01*
G75*
G02*
X32847500Y5425000I-462500J0D01*
G01*
X31922500Y5425000D01*
G75*
G02*
X31460000Y5887500I0J462500D01*
G01*
G37*
G36*
G01*
X13818697Y11775068D02*
X14259932Y12216303D01*
G75*
G02*
X14950068Y12216303I345068J-345068D01*
G01*
X15391303Y11775068D01*
G75*
G02*
X15391303Y11084932I-345068J-345068D01*
G01*
X14950068Y10643697D01*
G75*
G02*
X14259932Y10643697I-345068J345068D01*
G01*
X13818697Y11084932D01*
G75*
G02*
X13818697Y11775068I345068J345068D01*
G01*
G37*
G36*
G01*
X69560000Y8427500D02*
X69560000Y9352500D01*
G75*
G02*
X70022500Y9815000I462500J0D01*
G01*
X70947500Y9815000D01*
G75*
G02*
X71410000Y9352500I0J-462500D01*
G01*
X71410000Y8427500D01*
G75*
G02*
X70947500Y7965000I-462500J0D01*
G01*
X70022500Y7965000D01*
G75*
G02*
X69560000Y8427500I0J462500D01*
G01*
G37*
G36*
G01*
X46700000Y5887500D02*
X46700000Y6812500D01*
G75*
G02*
X47162500Y7275000I462500J0D01*
G01*
X48087500Y7275000D01*
G75*
G02*
X48550000Y6812500I0J-462500D01*
G01*
X48550000Y5887500D01*
G75*
G02*
X48087500Y5425000I-462500J0D01*
G01*
X47162500Y5425000D01*
G75*
G02*
X46700000Y5887500I0J462500D01*
G01*
G37*
G36*
G01*
X11278697Y9235068D02*
X11719932Y9676303D01*
G75*
G02*
X12410068Y9676303I345068J-345068D01*
G01*
X12851303Y9235068D01*
G75*
G02*
X12851303Y8544932I-345068J-345068D01*
G01*
X12410068Y8103697D01*
G75*
G02*
X11719932Y8103697I-345068J345068D01*
G01*
X11278697Y8544932D01*
G75*
G02*
X11278697Y9235068I345068J345068D01*
G01*
G37*
G36*
G01*
X13818697Y9235068D02*
X14259932Y9676303D01*
G75*
G02*
X14950068Y9676303I345068J-345068D01*
G01*
X15391303Y9235068D01*
G75*
G02*
X15391303Y8544932I-345068J-345068D01*
G01*
X14950068Y8103697D01*
G75*
G02*
X14259932Y8103697I-345068J345068D01*
G01*
X13818697Y8544932D01*
G75*
G02*
X13818697Y9235068I345068J345068D01*
G01*
G37*
G36*
G01*
X8600000Y5887500D02*
X8600000Y6812500D01*
G75*
G02*
X9062500Y7275000I462500J0D01*
G01*
X9987500Y7275000D01*
G75*
G02*
X10450000Y6812500I0J-462500D01*
G01*
X10450000Y5887500D01*
G75*
G02*
X9987500Y5425000I-462500J0D01*
G01*
X9062500Y5425000D01*
G75*
G02*
X8600000Y5887500I0J462500D01*
G01*
G37*
G36*
G01*
X13818697Y6695068D02*
X14259932Y7136303D01*
G75*
G02*
X14950068Y7136303I345068J-345068D01*
G01*
X15391303Y6695068D01*
G75*
G02*
X15391303Y6004932I-345068J-345068D01*
G01*
X14950068Y5563697D01*
G75*
G02*
X14259932Y5563697I-345068J345068D01*
G01*
X13818697Y6004932D01*
G75*
G02*
X13818697Y6695068I345068J345068D01*
G01*
G37*
G36*
G01*
X11278697Y11775068D02*
X11719932Y12216303D01*
G75*
G02*
X12410068Y12216303I345068J-345068D01*
G01*
X12851303Y11775068D01*
G75*
G02*
X12851303Y11084932I-345068J-345068D01*
G01*
X12410068Y10643697D01*
G75*
G02*
X11719932Y10643697I-345068J345068D01*
G01*
X11278697Y11084932D01*
G75*
G02*
X11278697Y11775068I345068J345068D01*
G01*
G37*
G36*
G01*
X31460000Y10967500D02*
X31460000Y11892500D01*
G75*
G02*
X31922500Y12355000I462500J0D01*
G01*
X32847500Y12355000D01*
G75*
G02*
X33310000Y11892500I0J-462500D01*
G01*
X33310000Y10967500D01*
G75*
G02*
X32847500Y10505000I-462500J0D01*
G01*
X31922500Y10505000D01*
G75*
G02*
X31460000Y10967500I0J462500D01*
G01*
G37*
G36*
G01*
X72100000Y5887500D02*
X72100000Y6812500D01*
G75*
G02*
X72562500Y7275000I462500J0D01*
G01*
X73487500Y7275000D01*
G75*
G02*
X73950000Y6812500I0J-462500D01*
G01*
X73950000Y5887500D01*
G75*
G02*
X73487500Y5425000I-462500J0D01*
G01*
X72562500Y5425000D01*
G75*
G02*
X72100000Y5887500I0J462500D01*
G01*
G37*
G36*
G01*
X44160000Y10967500D02*
X44160000Y11892500D01*
G75*
G02*
X44622500Y12355000I462500J0D01*
G01*
X45547500Y12355000D01*
G75*
G02*
X46010000Y11892500I0J-462500D01*
G01*
X46010000Y10967500D01*
G75*
G02*
X45547500Y10505000I-462500J0D01*
G01*
X44622500Y10505000D01*
G75*
G02*
X44160000Y10967500I0J462500D01*
G01*
G37*
G36*
G01*
X72100000Y8427500D02*
X72100000Y9352500D01*
G75*
G02*
X72562500Y9815000I462500J0D01*
G01*
X73487500Y9815000D01*
G75*
G02*
X73950000Y9352500I0J-462500D01*
G01*
X73950000Y8427500D01*
G75*
G02*
X73487500Y7965000I-462500J0D01*
G01*
X72562500Y7965000D01*
G75*
G02*
X72100000Y8427500I0J462500D01*
G01*
G37*
G36*
G01*
X46700000Y10967500D02*
X46700000Y11892500D01*
G75*
G02*
X47162500Y12355000I462500J0D01*
G01*
X48087500Y12355000D01*
G75*
G02*
X48550000Y11892500I0J-462500D01*
G01*
X48550000Y10967500D01*
G75*
G02*
X48087500Y10505000I-462500J0D01*
G01*
X47162500Y10505000D01*
G75*
G02*
X46700000Y10967500I0J462500D01*
G01*
G37*
G36*
G01*
X11278697Y6695068D02*
X11719932Y7136303D01*
G75*
G02*
X12410068Y7136303I345068J-345068D01*
G01*
X12851303Y6695068D01*
G75*
G02*
X12851303Y6004932I-345068J-345068D01*
G01*
X12410068Y5563697D01*
G75*
G02*
X11719932Y5563697I-345068J345068D01*
G01*
X11278697Y6004932D01*
G75*
G02*
X11278697Y6695068I345068J345068D01*
G01*
G37*
G36*
G01*
X16358697Y6695068D02*
X16799932Y7136303D01*
G75*
G02*
X17490068Y7136303I345068J-345068D01*
G01*
X17931303Y6695068D01*
G75*
G02*
X17931303Y6004932I-345068J-345068D01*
G01*
X17490068Y5563697D01*
G75*
G02*
X16799932Y5563697I-345068J345068D01*
G01*
X16358697Y6004932D01*
G75*
G02*
X16358697Y6695068I345068J345068D01*
G01*
G37*
G36*
G01*
X34000000Y8427500D02*
X34000000Y9352500D01*
G75*
G02*
X34462500Y9815000I462500J0D01*
G01*
X35387500Y9815000D01*
G75*
G02*
X35850000Y9352500I0J-462500D01*
G01*
X35850000Y8427500D01*
G75*
G02*
X35387500Y7965000I-462500J0D01*
G01*
X34462500Y7965000D01*
G75*
G02*
X34000000Y8427500I0J462500D01*
G01*
G37*
G36*
G01*
X44160000Y5887500D02*
X44160000Y6812500D01*
G75*
G02*
X44622500Y7275000I462500J0D01*
G01*
X45547500Y7275000D01*
G75*
G02*
X46010000Y6812500I0J-462500D01*
G01*
X46010000Y5887500D01*
G75*
G02*
X45547500Y5425000I-462500J0D01*
G01*
X44622500Y5425000D01*
G75*
G02*
X44160000Y5887500I0J462500D01*
G01*
G37*
G36*
G01*
X72100000Y10967500D02*
X72100000Y11892500D01*
G75*
G02*
X72562500Y12355000I462500J0D01*
G01*
X73487500Y12355000D01*
G75*
G02*
X73950000Y11892500I0J-462500D01*
G01*
X73950000Y10967500D01*
G75*
G02*
X73487500Y10505000I-462500J0D01*
G01*
X72562500Y10505000D01*
G75*
G02*
X72100000Y10967500I0J462500D01*
G01*
G37*
G36*
G01*
X34000000Y5887500D02*
X34000000Y6812500D01*
G75*
G02*
X34462500Y7275000I462500J0D01*
G01*
X35387500Y7275000D01*
G75*
G02*
X35850000Y6812500I0J-462500D01*
G01*
X35850000Y5887500D01*
G75*
G02*
X35387500Y5425000I-462500J0D01*
G01*
X34462500Y5425000D01*
G75*
G02*
X34000000Y5887500I0J462500D01*
G01*
G37*
G36*
G01*
X46700000Y8427500D02*
X46700000Y9352500D01*
G75*
G02*
X47162500Y9815000I462500J0D01*
G01*
X48087500Y9815000D01*
G75*
G02*
X48550000Y9352500I0J-462500D01*
G01*
X48550000Y8427500D01*
G75*
G02*
X48087500Y7965000I-462500J0D01*
G01*
X47162500Y7965000D01*
G75*
G02*
X46700000Y8427500I0J462500D01*
G01*
G37*
G36*
G01*
X31460000Y8427500D02*
X31460000Y9352500D01*
G75*
G02*
X31922500Y9815000I462500J0D01*
G01*
X32847500Y9815000D01*
G75*
G02*
X33310000Y9352500I0J-462500D01*
G01*
X33310000Y8427500D01*
G75*
G02*
X32847500Y7965000I-462500J0D01*
G01*
X31922500Y7965000D01*
G75*
G02*
X31460000Y8427500I0J462500D01*
G01*
G37*
G36*
G01*
X8600000Y10967500D02*
X8600000Y11892500D01*
G75*
G02*
X9062500Y12355000I462500J0D01*
G01*
X9987500Y12355000D01*
G75*
G02*
X10450000Y11892500I0J-462500D01*
G01*
X10450000Y10967500D01*
G75*
G02*
X9987500Y10505000I-462500J0D01*
G01*
X9062500Y10505000D01*
G75*
G02*
X8600000Y10967500I0J462500D01*
G01*
G37*
G36*
G01*
X34000000Y10967500D02*
X34000000Y11892500D01*
G75*
G02*
X34462500Y12355000I462500J0D01*
G01*
X35387500Y12355000D01*
G75*
G02*
X35850000Y11892500I0J-462500D01*
G01*
X35850000Y10967500D01*
G75*
G02*
X35387500Y10505000I-462500J0D01*
G01*
X34462500Y10505000D01*
G75*
G02*
X34000000Y10967500I0J462500D01*
G01*
G37*
G36*
G01*
X64618697Y16855068D02*
X65059932Y17296303D01*
G75*
G02*
X65750068Y17296303I345068J-345068D01*
G01*
X66191303Y16855068D01*
G75*
G02*
X66191303Y16164932I-345068J-345068D01*
G01*
X65750068Y15723697D01*
G75*
G02*
X65059932Y15723697I-345068J345068D01*
G01*
X64618697Y16164932D01*
G75*
G02*
X64618697Y16855068I345068J345068D01*
G01*
G37*
G36*
G01*
X64618697Y9235068D02*
X65059932Y9676303D01*
G75*
G02*
X65750068Y9676303I345068J-345068D01*
G01*
X66191303Y9235068D01*
G75*
G02*
X66191303Y8544932I-345068J-345068D01*
G01*
X65750068Y8103697D01*
G75*
G02*
X65059932Y8103697I-345068J345068D01*
G01*
X64618697Y8544932D01*
G75*
G02*
X64618697Y9235068I345068J345068D01*
G01*
G37*
G36*
G01*
X6060000Y10967500D02*
X6060000Y11892500D01*
G75*
G02*
X6522500Y12355000I462500J0D01*
G01*
X7447500Y12355000D01*
G75*
G02*
X7910000Y11892500I0J-462500D01*
G01*
X7910000Y10967500D01*
G75*
G02*
X7447500Y10505000I-462500J0D01*
G01*
X6522500Y10505000D01*
G75*
G02*
X6060000Y10967500I0J462500D01*
G01*
G37*
G36*
G01*
X6060000Y8427500D02*
X6060000Y9352500D01*
G75*
G02*
X6522500Y9815000I462500J0D01*
G01*
X7447500Y9815000D01*
G75*
G02*
X7910000Y9352500I0J-462500D01*
G01*
X7910000Y8427500D01*
G75*
G02*
X7447500Y7965000I-462500J0D01*
G01*
X6522500Y7965000D01*
G75*
G02*
X6060000Y8427500I0J462500D01*
G01*
G37*
G36*
G01*
X64618697Y14315068D02*
X65059932Y14756303D01*
G75*
G02*
X65750068Y14756303I345068J-345068D01*
G01*
X66191303Y14315068D01*
G75*
G02*
X66191303Y13624932I-345068J-345068D01*
G01*
X65750068Y13183697D01*
G75*
G02*
X65059932Y13183697I-345068J345068D01*
G01*
X64618697Y13624932D01*
G75*
G02*
X64618697Y14315068I345068J345068D01*
G01*
G37*
G36*
G01*
X67158697Y19395068D02*
X67599932Y19836303D01*
G75*
G02*
X68290068Y19836303I345068J-345068D01*
G01*
X68731303Y19395068D01*
G75*
G02*
X68731303Y18704932I-345068J-345068D01*
G01*
X68290068Y18263697D01*
G75*
G02*
X67599932Y18263697I-345068J345068D01*
G01*
X67158697Y18704932D01*
G75*
G02*
X67158697Y19395068I345068J345068D01*
G01*
G37*
G36*
G01*
X67158697Y14315068D02*
X67599932Y14756303D01*
G75*
G02*
X68290068Y14756303I345068J-345068D01*
G01*
X68731303Y14315068D01*
G75*
G02*
X68731303Y13624932I-345068J-345068D01*
G01*
X68290068Y13183697D01*
G75*
G02*
X67599932Y13183697I-345068J345068D01*
G01*
X67158697Y13624932D01*
G75*
G02*
X67158697Y14315068I345068J345068D01*
G01*
G37*
G36*
G01*
X67158697Y9235068D02*
X67599932Y9676303D01*
G75*
G02*
X68290068Y9676303I345068J-345068D01*
G01*
X68731303Y9235068D01*
G75*
G02*
X68731303Y8544932I-345068J-345068D01*
G01*
X68290068Y8103697D01*
G75*
G02*
X67599932Y8103697I-345068J345068D01*
G01*
X67158697Y8544932D01*
G75*
G02*
X67158697Y9235068I345068J345068D01*
G01*
G37*
G36*
G01*
X64618697Y11775068D02*
X65059932Y12216303D01*
G75*
G02*
X65750068Y12216303I345068J-345068D01*
G01*
X66191303Y11775068D01*
G75*
G02*
X66191303Y11084932I-345068J-345068D01*
G01*
X65750068Y10643697D01*
G75*
G02*
X65059932Y10643697I-345068J345068D01*
G01*
X64618697Y11084932D01*
G75*
G02*
X64618697Y11775068I345068J345068D01*
G01*
G37*
G36*
G01*
X64618697Y21935068D02*
X65059932Y22376303D01*
G75*
G02*
X65750068Y22376303I345068J-345068D01*
G01*
X66191303Y21935068D01*
G75*
G02*
X66191303Y21244932I-345068J-345068D01*
G01*
X65750068Y20803697D01*
G75*
G02*
X65059932Y20803697I-345068J345068D01*
G01*
X64618697Y21244932D01*
G75*
G02*
X64618697Y21935068I345068J345068D01*
G01*
G37*
G36*
G01*
X67158697Y21935068D02*
X67599932Y22376303D01*
G75*
G02*
X68290068Y22376303I345068J-345068D01*
G01*
X68731303Y21935068D01*
G75*
G02*
X68731303Y21244932I-345068J-345068D01*
G01*
X68290068Y20803697D01*
G75*
G02*
X67599932Y20803697I-345068J345068D01*
G01*
X67158697Y21244932D01*
G75*
G02*
X67158697Y21935068I345068J345068D01*
G01*
G37*
G36*
G01*
X67158697Y16855068D02*
X67599932Y17296303D01*
G75*
G02*
X68290068Y17296303I345068J-345068D01*
G01*
X68731303Y16855068D01*
G75*
G02*
X68731303Y16164932I-345068J-345068D01*
G01*
X68290068Y15723697D01*
G75*
G02*
X67599932Y15723697I-345068J345068D01*
G01*
X67158697Y16164932D01*
G75*
G02*
X67158697Y16855068I345068J345068D01*
G01*
G37*
G36*
G01*
X64618697Y19395068D02*
X65059932Y19836303D01*
G75*
G02*
X65750068Y19836303I345068J-345068D01*
G01*
X66191303Y19395068D01*
G75*
G02*
X66191303Y18704932I-345068J-345068D01*
G01*
X65750068Y18263697D01*
G75*
G02*
X65059932Y18263697I-345068J345068D01*
G01*
X64618697Y18704932D01*
G75*
G02*
X64618697Y19395068I345068J345068D01*
G01*
G37*
G36*
G01*
X67158697Y11775068D02*
X67599932Y12216303D01*
G75*
G02*
X68290068Y12216303I345068J-345068D01*
G01*
X68731303Y11775068D01*
G75*
G02*
X68731303Y11084932I-345068J-345068D01*
G01*
X68290068Y10643697D01*
G75*
G02*
X67599932Y10643697I-345068J345068D01*
G01*
X67158697Y11084932D01*
G75*
G02*
X67158697Y11775068I345068J345068D01*
G01*
G37*
G36*
G01*
X11278697Y14315068D02*
X11719932Y14756303D01*
G75*
G02*
X12410068Y14756303I345068J-345068D01*
G01*
X12851303Y14315068D01*
G75*
G02*
X12851303Y13624932I-345068J-345068D01*
G01*
X12410068Y13183697D01*
G75*
G02*
X11719932Y13183697I-345068J345068D01*
G01*
X11278697Y13624932D01*
G75*
G02*
X11278697Y14315068I345068J345068D01*
G01*
G37*
G36*
G01*
X72100000Y13507500D02*
X72100000Y14432500D01*
G75*
G02*
X72562500Y14895000I462500J0D01*
G01*
X73487500Y14895000D01*
G75*
G02*
X73950000Y14432500I0J-462500D01*
G01*
X73950000Y13507500D01*
G75*
G02*
X73487500Y13045000I-462500J0D01*
G01*
X72562500Y13045000D01*
G75*
G02*
X72100000Y13507500I0J462500D01*
G01*
G37*
G36*
G01*
X72100000Y16047500D02*
X72100000Y16972500D01*
G75*
G02*
X72562500Y17435000I462500J0D01*
G01*
X73487500Y17435000D01*
G75*
G02*
X73950000Y16972500I0J-462500D01*
G01*
X73950000Y16047500D01*
G75*
G02*
X73487500Y15585000I-462500J0D01*
G01*
X72562500Y15585000D01*
G75*
G02*
X72100000Y16047500I0J462500D01*
G01*
G37*
G36*
G01*
X11278697Y16855068D02*
X11719932Y17296303D01*
G75*
G02*
X12410068Y17296303I345068J-345068D01*
G01*
X12851303Y16855068D01*
G75*
G02*
X12851303Y16164932I-345068J-345068D01*
G01*
X12410068Y15723697D01*
G75*
G02*
X11719932Y15723697I-345068J345068D01*
G01*
X11278697Y16164932D01*
G75*
G02*
X11278697Y16855068I345068J345068D01*
G01*
G37*
G36*
G01*
X72100000Y21127500D02*
X72100000Y22052500D01*
G75*
G02*
X72562500Y22515000I462500J0D01*
G01*
X73487500Y22515000D01*
G75*
G02*
X73950000Y22052500I0J-462500D01*
G01*
X73950000Y21127500D01*
G75*
G02*
X73487500Y20665000I-462500J0D01*
G01*
X72562500Y20665000D01*
G75*
G02*
X72100000Y21127500I0J462500D01*
G01*
G37*
G36*
G01*
X11278697Y21935068D02*
X11719932Y22376303D01*
G75*
G02*
X12410068Y22376303I345068J-345068D01*
G01*
X12851303Y21935068D01*
G75*
G02*
X12851303Y21244932I-345068J-345068D01*
G01*
X12410068Y20803697D01*
G75*
G02*
X11719932Y20803697I-345068J345068D01*
G01*
X11278697Y21244932D01*
G75*
G02*
X11278697Y21935068I345068J345068D01*
G01*
G37*
G36*
G01*
X11278697Y19395068D02*
X11719932Y19836303D01*
G75*
G02*
X12410068Y19836303I345068J-345068D01*
G01*
X12851303Y19395068D01*
G75*
G02*
X12851303Y18704932I-345068J-345068D01*
G01*
X12410068Y18263697D01*
G75*
G02*
X11719932Y18263697I-345068J345068D01*
G01*
X11278697Y18704932D01*
G75*
G02*
X11278697Y19395068I345068J345068D01*
G01*
G37*
G36*
G01*
X72100000Y18587500D02*
X72100000Y19512500D01*
G75*
G02*
X72562500Y19975000I462500J0D01*
G01*
X73487500Y19975000D01*
G75*
G02*
X73950000Y19512500I0J-462500D01*
G01*
X73950000Y18587500D01*
G75*
G02*
X73487500Y18125000I-462500J0D01*
G01*
X72562500Y18125000D01*
G75*
G02*
X72100000Y18587500I0J462500D01*
G01*
G37*
G36*
G01*
X13818697Y21935068D02*
X14259932Y22376303D01*
G75*
G02*
X14950068Y22376303I345068J-345068D01*
G01*
X15391303Y21935068D01*
G75*
G02*
X15391303Y21244932I-345068J-345068D01*
G01*
X14950068Y20803697D01*
G75*
G02*
X14259932Y20803697I-345068J345068D01*
G01*
X13818697Y21244932D01*
G75*
G02*
X13818697Y21935068I345068J345068D01*
G01*
G37*
G36*
G01*
X13818697Y16855068D02*
X14259932Y17296303D01*
G75*
G02*
X14950068Y17296303I345068J-345068D01*
G01*
X15391303Y16855068D01*
G75*
G02*
X15391303Y16164932I-345068J-345068D01*
G01*
X14950068Y15723697D01*
G75*
G02*
X14259932Y15723697I-345068J345068D01*
G01*
X13818697Y16164932D01*
G75*
G02*
X13818697Y16855068I345068J345068D01*
G01*
G37*
G36*
G01*
X13818697Y14315068D02*
X14259932Y14756303D01*
G75*
G02*
X14950068Y14756303I345068J-345068D01*
G01*
X15391303Y14315068D01*
G75*
G02*
X15391303Y13624932I-345068J-345068D01*
G01*
X14950068Y13183697D01*
G75*
G02*
X14259932Y13183697I-345068J345068D01*
G01*
X13818697Y13624932D01*
G75*
G02*
X13818697Y14315068I345068J345068D01*
G01*
G37*
G36*
G01*
X13818697Y19395068D02*
X14259932Y19836303D01*
G75*
G02*
X14950068Y19836303I345068J-345068D01*
G01*
X15391303Y19395068D01*
G75*
G02*
X15391303Y18704932I-345068J-345068D01*
G01*
X14950068Y18263697D01*
G75*
G02*
X14259932Y18263697I-345068J345068D01*
G01*
X13818697Y18704932D01*
G75*
G02*
X13818697Y19395068I345068J345068D01*
G01*
G37*
G36*
G01*
X31460000Y13507500D02*
X31460000Y14432500D01*
G75*
G02*
X31922500Y14895000I462500J0D01*
G01*
X32847500Y14895000D01*
G75*
G02*
X33310000Y14432500I0J-462500D01*
G01*
X33310000Y13507500D01*
G75*
G02*
X32847500Y13045000I-462500J0D01*
G01*
X31922500Y13045000D01*
G75*
G02*
X31460000Y13507500I0J462500D01*
G01*
G37*
G36*
G01*
X8600000Y13507500D02*
X8600000Y14432500D01*
G75*
G02*
X9062500Y14895000I462500J0D01*
G01*
X9987500Y14895000D01*
G75*
G02*
X10450000Y14432500I0J-462500D01*
G01*
X10450000Y13507500D01*
G75*
G02*
X9987500Y13045000I-462500J0D01*
G01*
X9062500Y13045000D01*
G75*
G02*
X8600000Y13507500I0J462500D01*
G01*
G37*
G36*
G01*
X8600000Y16047500D02*
X8600000Y16972500D01*
G75*
G02*
X9062500Y17435000I462500J0D01*
G01*
X9987500Y17435000D01*
G75*
G02*
X10450000Y16972500I0J-462500D01*
G01*
X10450000Y16047500D01*
G75*
G02*
X9987500Y15585000I-462500J0D01*
G01*
X9062500Y15585000D01*
G75*
G02*
X8600000Y16047500I0J462500D01*
G01*
G37*
G36*
G01*
X31460000Y16047500D02*
X31460000Y16972500D01*
G75*
G02*
X31922500Y17435000I462500J0D01*
G01*
X32847500Y17435000D01*
G75*
G02*
X33310000Y16972500I0J-462500D01*
G01*
X33310000Y16047500D01*
G75*
G02*
X32847500Y15585000I-462500J0D01*
G01*
X31922500Y15585000D01*
G75*
G02*
X31460000Y16047500I0J462500D01*
G01*
G37*
G36*
G01*
X8600000Y21127500D02*
X8600000Y22052500D01*
G75*
G02*
X9062500Y22515000I462500J0D01*
G01*
X9987500Y22515000D01*
G75*
G02*
X10450000Y22052500I0J-462500D01*
G01*
X10450000Y21127500D01*
G75*
G02*
X9987500Y20665000I-462500J0D01*
G01*
X9062500Y20665000D01*
G75*
G02*
X8600000Y21127500I0J462500D01*
G01*
G37*
G36*
G01*
X31460000Y21127500D02*
X31460000Y22052500D01*
G75*
G02*
X31922500Y22515000I462500J0D01*
G01*
X32847500Y22515000D01*
G75*
G02*
X33310000Y22052500I0J-462500D01*
G01*
X33310000Y21127500D01*
G75*
G02*
X32847500Y20665000I-462500J0D01*
G01*
X31922500Y20665000D01*
G75*
G02*
X31460000Y21127500I0J462500D01*
G01*
G37*
G36*
G01*
X31460000Y18587500D02*
X31460000Y19512500D01*
G75*
G02*
X31922500Y19975000I462500J0D01*
G01*
X32847500Y19975000D01*
G75*
G02*
X33310000Y19512500I0J-462500D01*
G01*
X33310000Y18587500D01*
G75*
G02*
X32847500Y18125000I-462500J0D01*
G01*
X31922500Y18125000D01*
G75*
G02*
X31460000Y18587500I0J462500D01*
G01*
G37*
G36*
G01*
X8600000Y18587500D02*
X8600000Y19512500D01*
G75*
G02*
X9062500Y19975000I462500J0D01*
G01*
X9987500Y19975000D01*
G75*
G02*
X10450000Y19512500I0J-462500D01*
G01*
X10450000Y18587500D01*
G75*
G02*
X9987500Y18125000I-462500J0D01*
G01*
X9062500Y18125000D01*
G75*
G02*
X8600000Y18587500I0J462500D01*
G01*
G37*
G36*
G01*
X34000000Y21127500D02*
X34000000Y22052500D01*
G75*
G02*
X34462500Y22515000I462500J0D01*
G01*
X35387500Y22515000D01*
G75*
G02*
X35850000Y22052500I0J-462500D01*
G01*
X35850000Y21127500D01*
G75*
G02*
X35387500Y20665000I-462500J0D01*
G01*
X34462500Y20665000D01*
G75*
G02*
X34000000Y21127500I0J462500D01*
G01*
G37*
G36*
G01*
X34000000Y16047500D02*
X34000000Y16972500D01*
G75*
G02*
X34462500Y17435000I462500J0D01*
G01*
X35387500Y17435000D01*
G75*
G02*
X35850000Y16972500I0J-462500D01*
G01*
X35850000Y16047500D01*
G75*
G02*
X35387500Y15585000I-462500J0D01*
G01*
X34462500Y15585000D01*
G75*
G02*
X34000000Y16047500I0J462500D01*
G01*
G37*
G36*
G01*
X34000000Y13507500D02*
X34000000Y14432500D01*
G75*
G02*
X34462500Y14895000I462500J0D01*
G01*
X35387500Y14895000D01*
G75*
G02*
X35850000Y14432500I0J-462500D01*
G01*
X35850000Y13507500D01*
G75*
G02*
X35387500Y13045000I-462500J0D01*
G01*
X34462500Y13045000D01*
G75*
G02*
X34000000Y13507500I0J462500D01*
G01*
G37*
G36*
G01*
X34000000Y18587500D02*
X34000000Y19512500D01*
G75*
G02*
X34462500Y19975000I462500J0D01*
G01*
X35387500Y19975000D01*
G75*
G02*
X35850000Y19512500I0J-462500D01*
G01*
X35850000Y18587500D01*
G75*
G02*
X35387500Y18125000I-462500J0D01*
G01*
X34462500Y18125000D01*
G75*
G02*
X34000000Y18587500I0J462500D01*
G01*
G37*
G36*
G01*
X6060000Y13507500D02*
X6060000Y14432500D01*
G75*
G02*
X6522500Y14895000I462500J0D01*
G01*
X7447500Y14895000D01*
G75*
G02*
X7910000Y14432500I0J-462500D01*
G01*
X7910000Y13507500D01*
G75*
G02*
X7447500Y13045000I-462500J0D01*
G01*
X6522500Y13045000D01*
G75*
G02*
X6060000Y13507500I0J462500D01*
G01*
G37*
G36*
G01*
X6060000Y16047500D02*
X6060000Y16972500D01*
G75*
G02*
X6522500Y17435000I462500J0D01*
G01*
X7447500Y17435000D01*
G75*
G02*
X7910000Y16972500I0J-462500D01*
G01*
X7910000Y16047500D01*
G75*
G02*
X7447500Y15585000I-462500J0D01*
G01*
X6522500Y15585000D01*
G75*
G02*
X6060000Y16047500I0J462500D01*
G01*
G37*
G36*
G01*
X6060000Y21127500D02*
X6060000Y22052500D01*
G75*
G02*
X6522500Y22515000I462500J0D01*
G01*
X7447500Y22515000D01*
G75*
G02*
X7910000Y22052500I0J-462500D01*
G01*
X7910000Y21127500D01*
G75*
G02*
X7447500Y20665000I-462500J0D01*
G01*
X6522500Y20665000D01*
G75*
G02*
X6060000Y21127500I0J462500D01*
G01*
G37*
G36*
G01*
X6060000Y18587500D02*
X6060000Y19512500D01*
G75*
G02*
X6522500Y19975000I462500J0D01*
G01*
X7447500Y19975000D01*
G75*
G02*
X7910000Y19512500I0J-462500D01*
G01*
X7910000Y18587500D01*
G75*
G02*
X7447500Y18125000I-462500J0D01*
G01*
X6522500Y18125000D01*
G75*
G02*
X6060000Y18587500I0J462500D01*
G01*
G37*
D11*
X6985000Y29210000D03*
X9525000Y29210000D03*
X12065000Y29210000D03*
X14605000Y29210000D03*
X9525000Y1270000D03*
X12065000Y1270000D03*
X19685000Y29210000D03*
X24765000Y29210000D03*
X27305000Y29210000D03*
X17145000Y29210000D03*
X22225000Y29210000D03*
D12*
X80645000Y64770000D03*
X80645000Y62230000D03*
X80645000Y59690000D03*
D11*
X32385000Y29210000D03*
D12*
X80645000Y57150000D03*
D11*
X29845000Y29210000D03*
D12*
X80645000Y49530000D03*
D11*
X40005000Y29210000D03*
D12*
X80645000Y52070000D03*
D11*
X37465000Y29210000D03*
D12*
X80645000Y46990000D03*
X80645000Y54610000D03*
D11*
X34925000Y29210000D03*
D12*
X80645000Y36830000D03*
X80645000Y44450000D03*
D11*
X42545000Y29210000D03*
D12*
X80645000Y34290000D03*
X80645000Y39370000D03*
X80645000Y41910000D03*
X80645000Y29210000D03*
X80645000Y31750000D03*
X80645000Y21590000D03*
X80645000Y24130000D03*
X80645000Y26670000D03*
X80645000Y16510000D03*
X80645000Y19050000D03*
X80645000Y8890000D03*
X80645000Y13970000D03*
X80645000Y11430000D03*
D11*
X19685000Y1270000D03*
X14605000Y1270000D03*
X17145000Y1270000D03*
X27305000Y1270000D03*
X22225000Y1270000D03*
X24765000Y1270000D03*
X34925000Y1270000D03*
X29845000Y1270000D03*
X32385000Y1270000D03*
X42545000Y1270000D03*
X37465000Y1270000D03*
X40005000Y1270000D03*
X50165000Y1270000D03*
X47625000Y1270000D03*
X45085000Y1270000D03*
X65405000Y1270000D03*
X60325000Y1270000D03*
X52705000Y1270000D03*
X57785000Y1270000D03*
X55245000Y1270000D03*
X62865000Y1270000D03*
X67945000Y1270000D03*
G04 #@! TD*
D14*
G04 #@! TO.C,UA4*
X51435000Y15240000D03*
D15*
X56580000Y15875000D03*
D14*
X66675000Y25400000D03*
X51435000Y20320000D03*
D15*
X56580000Y12065000D03*
X56580000Y13335000D03*
D14*
X51435000Y17780000D03*
D15*
X56580000Y18415000D03*
X61530000Y18415000D03*
X56580000Y20955000D03*
X61530000Y19685000D03*
X56580000Y17145000D03*
D14*
X66675000Y10160000D03*
X66675000Y17780000D03*
D15*
X61530000Y10795000D03*
D14*
X51435000Y12700000D03*
X66675000Y15240000D03*
X66675000Y20320000D03*
D15*
X61530000Y14605000D03*
X56580000Y19685000D03*
X61530000Y12065000D03*
X61530000Y13335000D03*
D14*
X66675000Y22860000D03*
D15*
X56580000Y14605000D03*
X61530000Y20955000D03*
X56580000Y10795000D03*
X61530000Y22225000D03*
D14*
X66675000Y12700000D03*
D15*
X61530000Y17145000D03*
X61530000Y15875000D03*
X56580000Y22225000D03*
D14*
X51435000Y7620000D03*
X61595000Y5080000D03*
X56515000Y25400000D03*
X66675000Y5080000D03*
X66675000Y7620000D03*
X53975000Y25400000D03*
X64135000Y25400000D03*
X51435000Y5080000D03*
X53975000Y5080000D03*
D15*
X61530000Y9525000D03*
D14*
X64135000Y5080000D03*
X51435000Y10160000D03*
X51435000Y22860000D03*
D15*
X56580000Y9525000D03*
D14*
X51435000Y25400000D03*
D15*
X56580000Y8255000D03*
X61530000Y8255000D03*
G04 #@! TD*
D14*
G04 #@! TO.C,UA2*
X13335000Y15240000D03*
D15*
X18480000Y15875000D03*
D14*
X28575000Y25400000D03*
X13335000Y20320000D03*
D15*
X18480000Y12065000D03*
X18480000Y13335000D03*
D14*
X13335000Y17780000D03*
D15*
X18480000Y18415000D03*
X23430000Y18415000D03*
X18480000Y20955000D03*
X23430000Y19685000D03*
X18480000Y17145000D03*
D14*
X28575000Y10160000D03*
X28575000Y17780000D03*
D15*
X23430000Y10795000D03*
D14*
X13335000Y12700000D03*
X28575000Y15240000D03*
X28575000Y20320000D03*
D15*
X23430000Y14605000D03*
X18480000Y19685000D03*
X23430000Y12065000D03*
X23430000Y13335000D03*
D14*
X28575000Y22860000D03*
D15*
X18480000Y14605000D03*
X23430000Y20955000D03*
X18480000Y10795000D03*
X23430000Y22225000D03*
D14*
X28575000Y12700000D03*
D15*
X23430000Y17145000D03*
X23430000Y15875000D03*
X18480000Y22225000D03*
D14*
X13335000Y7620000D03*
X23495000Y5080000D03*
X18415000Y25400000D03*
X28575000Y5080000D03*
X28575000Y7620000D03*
X15875000Y25400000D03*
X26035000Y25400000D03*
X13335000Y5080000D03*
X15875000Y5080000D03*
D15*
X23430000Y9525000D03*
D14*
X26035000Y5080000D03*
X13335000Y10160000D03*
X13335000Y22860000D03*
D15*
X18480000Y9525000D03*
D14*
X13335000Y25400000D03*
D15*
X18480000Y8255000D03*
X23430000Y8255000D03*
G04 #@! TD*
D16*
G04 #@! TO.C,TP18*
X-2630000Y84860000D03*
G04 #@! TD*
G04 #@! TO.C,TP17*
X-2630000Y88360000D03*
G04 #@! TD*
D14*
G04 #@! TO.C,TP16*
X20520000Y53320000D03*
G04 #@! TD*
G04 #@! TO.C,TP15*
X20520000Y55120000D03*
G04 #@! TD*
G04 #@! TO.C,TP12*
X40170000Y53470000D03*
G04 #@! TD*
G04 #@! TO.C,TP11*
X28120000Y55520000D03*
G04 #@! TD*
G04 #@! TO.C,TP10*
X28120000Y52920000D03*
G04 #@! TD*
G04 #@! TO.C,TP9*
X40170000Y56390000D03*
G04 #@! TD*
G04 #@! TO.C,TP8*
X40170000Y54930000D03*
G04 #@! TD*
G04 #@! TO.C,TP7*
X17012000Y38720000D03*
G04 #@! TD*
G04 #@! TO.C,TP6*
X17012000Y36720000D03*
G04 #@! TD*
G04 #@! TO.C,TP5*
X21717000Y37920000D03*
G04 #@! TD*
G04 #@! TO.C,TP4*
X17018000Y34720000D03*
G04 #@! TD*
G04 #@! TO.C,TP3*
X21717000Y34720000D03*
G04 #@! TD*
G04 #@! TO.C,TP2*
X17320000Y56720000D03*
G04 #@! TD*
G04 #@! TO.C,TP1*
X17320000Y58520000D03*
G04 #@! TD*
D17*
G04 #@! TO.C,C21*
X15065000Y65160000D03*
X13615000Y65160000D03*
G04 #@! TD*
G04 #@! TO.C,C17*
X6215000Y63650000D03*
X7665000Y63650000D03*
G04 #@! TD*
D18*
G04 #@! TO.C,C26*
X-3305000Y60500000D03*
X-1555000Y60500000D03*
G04 #@! TD*
G04 #@! TO.C,C15*
X14455000Y44510000D03*
X16205000Y44510000D03*
G04 #@! TD*
D17*
G04 #@! TO.C,C2*
X22115000Y43240000D03*
X23565000Y43240000D03*
G04 #@! TD*
D19*
G04 #@! TO.C,C42*
X15272000Y39500000D03*
X14272000Y39500000D03*
G04 #@! TD*
G04 #@! TO.C,C41*
X4746000Y39500000D03*
X3746000Y39500000D03*
G04 #@! TD*
D17*
G04 #@! TO.C,R58*
X-217000Y42926000D03*
X1233000Y42926000D03*
G04 #@! TD*
D20*
G04 #@! TO.C,F1*
X41795000Y73720000D03*
X44545000Y73720000D03*
G04 #@! TD*
G04 #@! TO.C,F2*
X41795000Y71470000D03*
X44545000Y71470000D03*
G04 #@! TD*
D19*
G04 #@! TO.C,R40*
X25290000Y61300000D03*
X24290000Y61300000D03*
G04 #@! TD*
G04 #@! TO.C,R24*
X11860000Y41670000D03*
X10860000Y41670000D03*
G04 #@! TD*
G04 #@! TO.C,R29*
X21748000Y39500000D03*
X22748000Y39500000D03*
G04 #@! TD*
G04 #@! TO.C,R28*
X11202000Y39500000D03*
X12202000Y39500000D03*
G04 #@! TD*
G04 #@! TO.C,R27*
X666000Y39500000D03*
X1666000Y39500000D03*
G04 #@! TD*
D21*
G04 #@! TO.C,M4*
X30690000Y56388000D03*
X30690000Y53848000D03*
X37890000Y52578000D03*
X37890000Y53848000D03*
X30690000Y52578000D03*
X37890000Y56388000D03*
X37890000Y55118000D03*
X30690000Y55118000D03*
G04 #@! TD*
G04 #@! TO.C,M6*
X30690000Y39116000D03*
X30690000Y36576000D03*
X37890000Y35306000D03*
X37890000Y36576000D03*
X30690000Y35306000D03*
X37890000Y39116000D03*
X37890000Y37846000D03*
X30690000Y37846000D03*
G04 #@! TD*
G04 #@! TO.C,M5*
X30690000Y47752000D03*
X30690000Y45212000D03*
X37890000Y43942000D03*
X37890000Y45212000D03*
X30690000Y43942000D03*
X37890000Y47752000D03*
X37890000Y46482000D03*
X30690000Y46482000D03*
G04 #@! TD*
D22*
G04 #@! TO.C,TS7*
X-1310000Y56000000D03*
D23*
X-560000Y57450000D03*
X-1060000Y57450000D03*
X-1560000Y57450000D03*
X-2060000Y57450000D03*
X-2060000Y54550000D03*
X-1560000Y54550000D03*
X-1060000Y54550000D03*
X-560000Y54550000D03*
G04 #@! TD*
D24*
G04 #@! TO.C,TS6*
X34290000Y50165000D03*
D25*
X35740000Y49415000D03*
X35740000Y49915000D03*
X35740000Y50415000D03*
X35740000Y50915000D03*
X32840000Y50915000D03*
X32840000Y50415000D03*
X32840000Y49915000D03*
X32840000Y49415000D03*
G04 #@! TD*
D22*
G04 #@! TO.C,TS5*
X34310000Y60060000D03*
D23*
X33560000Y58610000D03*
X34060000Y58610000D03*
X34560000Y58610000D03*
X35060000Y58610000D03*
X35060000Y61510000D03*
X34560000Y61510000D03*
X34060000Y61510000D03*
X33560000Y61510000D03*
G04 #@! TD*
D24*
G04 #@! TO.C,TS4*
X21590000Y59410000D03*
D25*
X23040000Y58660000D03*
X23040000Y59160000D03*
X23040000Y59660000D03*
X23040000Y60160000D03*
X20140000Y60160000D03*
X20140000Y59660000D03*
X20140000Y59160000D03*
X20140000Y58660000D03*
G04 #@! TD*
D24*
G04 #@! TO.C,TS3*
X34290000Y41529000D03*
D25*
X35740000Y40779000D03*
X35740000Y41279000D03*
X35740000Y41779000D03*
X35740000Y42279000D03*
X32840000Y42279000D03*
X32840000Y41779000D03*
X32840000Y41279000D03*
X32840000Y40779000D03*
G04 #@! TD*
D24*
G04 #@! TO.C,TS2*
X12360000Y51810000D03*
D25*
X13810000Y51060000D03*
X13810000Y51560000D03*
X13810000Y52060000D03*
X13810000Y52560000D03*
X10910000Y52560000D03*
X10910000Y52060000D03*
X10910000Y51560000D03*
X10910000Y51060000D03*
G04 #@! TD*
D24*
G04 #@! TO.C,TS1*
X12827000Y37592000D03*
D25*
X14277000Y36842000D03*
X14277000Y37342000D03*
X14277000Y37842000D03*
X14277000Y38342000D03*
X11377000Y38342000D03*
X11377000Y37842000D03*
X11377000Y37342000D03*
X11377000Y36842000D03*
G04 #@! TD*
D17*
G04 #@! TO.C,C19*
X5020000Y52885000D03*
X5020000Y51435000D03*
G04 #@! TD*
D26*
G04 #@! TO.C,MH1*
X3810000Y85725000D03*
D27*
X6210000Y85725000D03*
X5507056Y84027944D03*
X3810000Y83325000D03*
X2112944Y84027944D03*
X1410000Y85725000D03*
X2112944Y87422056D03*
X3810000Y88125000D03*
X5507056Y87422056D03*
G04 #@! TD*
D26*
G04 #@! TO.C,MH4*
X80010000Y0D03*
D27*
X82410000Y0D03*
X81707056Y-1697056D03*
X80010000Y-2400000D03*
X78312944Y-1697056D03*
X77610000Y0D03*
X78312944Y1697056D03*
X80010000Y2400000D03*
X81707056Y1697056D03*
G04 #@! TD*
D26*
G04 #@! TO.C,MH3*
X0Y0D03*
D27*
X2400000Y0D03*
X1697056Y-1697056D03*
X0Y-2400000D03*
X-1697056Y-1697056D03*
X-2400000Y0D03*
X-1697056Y1697056D03*
X0Y2400000D03*
X1697056Y1697056D03*
G04 #@! TD*
D26*
G04 #@! TO.C,MH2*
X77470000Y85725000D03*
D27*
X79870000Y85725000D03*
X79167056Y84027944D03*
X77470000Y83325000D03*
X75772944Y84027944D03*
X75070000Y85725000D03*
X75772944Y87422056D03*
X77470000Y88125000D03*
X79167056Y87422056D03*
G04 #@! TD*
D19*
G04 #@! TO.C,R9*
X29720000Y59410000D03*
X28720000Y59410000D03*
G04 #@! TD*
G04 #@! TO.C,R8*
X29720000Y58420000D03*
X28720000Y58420000D03*
G04 #@! TD*
G04 #@! TO.C,C13*
X14830000Y43110000D03*
X15830000Y43110000D03*
G04 #@! TD*
G04 #@! TO.C,R42*
X2490000Y48270000D03*
X1490000Y48270000D03*
G04 #@! TD*
G04 #@! TO.C,C20*
X14840000Y63980000D03*
X13840000Y63980000D03*
G04 #@! TD*
G04 #@! TO.C,R13*
X23950000Y63720000D03*
X22950000Y63720000D03*
G04 #@! TD*
D28*
G04 #@! TO.C,R12*
X28780000Y47330000D03*
X28780000Y46330000D03*
G04 #@! TD*
D19*
G04 #@! TO.C,R7*
X19090000Y41670000D03*
X18090000Y41670000D03*
G04 #@! TD*
G04 #@! TO.C,R6*
X8380000Y55410000D03*
X7380000Y55410000D03*
G04 #@! TD*
D28*
G04 #@! TO.C,R5*
X6230000Y45160000D03*
X6230000Y46160000D03*
G04 #@! TD*
D19*
G04 #@! TO.C,C16*
X7800000Y65730000D03*
X8800000Y65730000D03*
G04 #@! TD*
G04 #@! TO.C,C7*
X7800000Y64830000D03*
X8800000Y64830000D03*
G04 #@! TD*
D28*
G04 #@! TO.C,C6*
X5290000Y57660000D03*
X5290000Y56660000D03*
G04 #@! TD*
G04 #@! TO.C,R20*
X23740000Y68318000D03*
X23740000Y67318000D03*
G04 #@! TD*
D19*
G04 #@! TO.C,R18*
X26570000Y67400000D03*
X25570000Y67400000D03*
G04 #@! TD*
D28*
G04 #@! TO.C,R2*
X4200000Y69850000D03*
X4200000Y68850000D03*
G04 #@! TD*
G04 #@! TO.C,R11*
X3420000Y76390000D03*
X3420000Y77390000D03*
G04 #@! TD*
G04 #@! TO.C,R26*
X13580000Y70350000D03*
X13580000Y69350000D03*
G04 #@! TD*
D19*
G04 #@! TO.C,C35*
X12130000Y70900000D03*
X11130000Y70900000D03*
G04 #@! TD*
D29*
G04 #@! TO.C,AS11*
X12648500Y68550000D03*
X12648500Y68950000D03*
X12648500Y69350000D03*
X12648500Y69750000D03*
D30*
X12030000Y69968500D03*
X11630000Y69968500D03*
X11230000Y69968500D03*
X10830000Y69968500D03*
D29*
X10211500Y69750000D03*
X10211500Y69350000D03*
X10211500Y68950000D03*
X10211500Y68550000D03*
D30*
X10830000Y68331500D03*
X11230000Y68331500D03*
X11630000Y68331500D03*
X12030000Y68331500D03*
G04 #@! TD*
D19*
G04 #@! TO.C,C55*
X19690000Y48540000D03*
X18690000Y48540000D03*
G04 #@! TD*
G04 #@! TO.C,C50*
X12836000Y49388000D03*
X13836000Y49388000D03*
G04 #@! TD*
G04 #@! TO.C,R39*
X25290000Y62260000D03*
X24290000Y62260000D03*
G04 #@! TD*
G04 #@! TO.C,R38*
X22340000Y62260000D03*
X23340000Y62260000D03*
G04 #@! TD*
G04 #@! TO.C,R37*
X22340000Y61300000D03*
X23340000Y61300000D03*
G04 #@! TD*
G04 #@! TO.C,R46*
X2490000Y44660000D03*
X1490000Y44660000D03*
G04 #@! TD*
G04 #@! TO.C,R45*
X2490000Y45570000D03*
X1490000Y45570000D03*
G04 #@! TD*
G04 #@! TO.C,R44*
X2490000Y46470000D03*
X1490000Y46470000D03*
G04 #@! TD*
G04 #@! TO.C,R43*
X2490000Y47370000D03*
X1490000Y47370000D03*
G04 #@! TD*
G04 #@! TO.C,R41*
X2490000Y49170000D03*
X1490000Y49170000D03*
G04 #@! TD*
G04 #@! TO.C,FB2*
X8000Y41402000D03*
X1008000Y41402000D03*
G04 #@! TD*
D31*
G04 #@! TO.C,ESD1*
X-415000Y48160000D03*
X-415000Y47660000D03*
X-415000Y47160000D03*
X-415000Y46660000D03*
X-415000Y46160000D03*
X-415000Y45660000D03*
X-415000Y45160000D03*
X-1565000Y45160000D03*
X-1565000Y45660000D03*
X-1565000Y46160000D03*
X-1565000Y46660000D03*
X-1565000Y47160000D03*
X-1565000Y47660000D03*
X-1565000Y48160000D03*
G04 #@! TD*
D19*
G04 #@! TO.C,R36*
X25300000Y47310000D03*
X24300000Y47310000D03*
G04 #@! TD*
G04 #@! TO.C,R35*
X25300000Y48250000D03*
X24300000Y48250000D03*
G04 #@! TD*
D32*
G04 #@! TO.C,Y2*
X19790000Y47140000D03*
X19790000Y45640000D03*
X18590000Y45640000D03*
X18590000Y47140000D03*
G04 #@! TD*
D33*
G04 #@! TO.C,Y1*
X13641000Y47448000D03*
X11091000Y47448000D03*
G04 #@! TD*
D28*
G04 #@! TO.C,R4*
X8500000Y70350000D03*
X8500000Y69350000D03*
G04 #@! TD*
D19*
G04 #@! TO.C,R23*
X12810000Y41670000D03*
X13810000Y41670000D03*
G04 #@! TD*
D28*
G04 #@! TO.C,R49*
X18660000Y70350000D03*
X18660000Y69350000D03*
G04 #@! TD*
G04 #@! TO.C,R34*
X23740000Y70350000D03*
X23740000Y69350000D03*
G04 #@! TD*
D19*
G04 #@! TO.C,R32*
X25300000Y45410000D03*
X24300000Y45410000D03*
G04 #@! TD*
G04 #@! TO.C,R31*
X25300000Y46360000D03*
X24300000Y46360000D03*
G04 #@! TD*
G04 #@! TO.C,R30*
X25300000Y49200000D03*
X24300000Y49200000D03*
G04 #@! TD*
D28*
G04 #@! TO.C,R57*
X21140000Y47140000D03*
X21140000Y46140000D03*
G04 #@! TD*
D19*
G04 #@! TO.C,R47*
X11586000Y45508000D03*
X12586000Y45508000D03*
G04 #@! TD*
D28*
G04 #@! TO.C,R21*
X28820000Y70350000D03*
X28820000Y69350000D03*
G04 #@! TD*
D19*
G04 #@! TO.C,R10*
X1020000Y67080000D03*
X20000Y67080000D03*
G04 #@! TD*
G04 #@! TO.C,C4*
X7050000Y70900000D03*
X6050000Y70900000D03*
G04 #@! TD*
D28*
G04 #@! TO.C,C46*
X-3060000Y57450000D03*
X-3060000Y56450000D03*
G04 #@! TD*
D19*
G04 #@! TO.C,C45*
X37490000Y50210000D03*
X38490000Y50210000D03*
G04 #@! TD*
D28*
G04 #@! TO.C,C38*
X32560000Y58610000D03*
X32560000Y59610000D03*
G04 #@! TD*
D19*
G04 #@! TO.C,C37*
X22040000Y57710000D03*
X23040000Y57710000D03*
G04 #@! TD*
G04 #@! TO.C,C36*
X37490000Y41570000D03*
X38490000Y41570000D03*
G04 #@! TD*
G04 #@! TO.C,C33*
X13810000Y53510000D03*
X12810000Y53510000D03*
G04 #@! TD*
G04 #@! TO.C,C32*
X14452000Y35850000D03*
X13452000Y35850000D03*
G04 #@! TD*
G04 #@! TO.C,C54*
X17210000Y70900000D03*
X16210000Y70900000D03*
G04 #@! TD*
G04 #@! TO.C,C43*
X25828000Y39500000D03*
X24828000Y39500000D03*
G04 #@! TD*
G04 #@! TO.C,C48*
X22290000Y70900000D03*
X21290000Y70900000D03*
G04 #@! TD*
G04 #@! TO.C,C40*
X37900000Y33840000D03*
X36900000Y33840000D03*
G04 #@! TD*
G04 #@! TO.C,C39*
X37900000Y42470000D03*
X36900000Y42470000D03*
G04 #@! TD*
G04 #@! TO.C,C44*
X37890000Y51110000D03*
X36890000Y51110000D03*
G04 #@! TD*
G04 #@! TO.C,C49*
X10886000Y49388000D03*
X11886000Y49388000D03*
G04 #@! TD*
G04 #@! TO.C,C31*
X27370000Y70900000D03*
X26370000Y70900000D03*
G04 #@! TD*
D28*
G04 #@! TO.C,C12*
X27380000Y45660000D03*
X27380000Y46660000D03*
G04 #@! TD*
G04 #@! TO.C,C10*
X26610000Y57160000D03*
X26610000Y58160000D03*
G04 #@! TD*
D19*
G04 #@! TO.C,C8*
X20340000Y64440000D03*
X19340000Y64440000D03*
G04 #@! TD*
G04 #@! TO.C,C23*
X2170000Y78840000D03*
X1170000Y78840000D03*
G04 #@! TD*
G04 #@! TO.C,C22*
X1970000Y70900000D03*
X970000Y70900000D03*
G04 #@! TD*
D29*
G04 #@! TO.C,AS2*
X7568500Y68550000D03*
X7568500Y68950000D03*
X7568500Y69350000D03*
X7568500Y69750000D03*
D30*
X6950000Y69968500D03*
X6550000Y69968500D03*
X6150000Y69968500D03*
X5750000Y69968500D03*
D29*
X5131500Y69750000D03*
X5131500Y69350000D03*
X5131500Y68950000D03*
X5131500Y68550000D03*
D30*
X5750000Y68331500D03*
X6150000Y68331500D03*
X6550000Y68331500D03*
X6950000Y68331500D03*
G04 #@! TD*
D29*
G04 #@! TO.C,AS15*
X17728500Y68550000D03*
X17728500Y68950000D03*
X17728500Y69350000D03*
X17728500Y69750000D03*
D30*
X17110000Y69968500D03*
X16710000Y69968500D03*
X16310000Y69968500D03*
X15910000Y69968500D03*
D29*
X15291500Y69750000D03*
X15291500Y69350000D03*
X15291500Y68950000D03*
X15291500Y68550000D03*
D30*
X15910000Y68331500D03*
X16310000Y68331500D03*
X16710000Y68331500D03*
X17110000Y68331500D03*
G04 #@! TD*
D29*
G04 #@! TO.C,AS13*
X22808500Y68550000D03*
X22808500Y68950000D03*
X22808500Y69350000D03*
X22808500Y69750000D03*
D30*
X22190000Y69968500D03*
X21790000Y69968500D03*
X21390000Y69968500D03*
X20990000Y69968500D03*
D29*
X20371500Y69750000D03*
X20371500Y69350000D03*
X20371500Y68950000D03*
X20371500Y68550000D03*
D30*
X20990000Y68331500D03*
X21390000Y68331500D03*
X21790000Y68331500D03*
X22190000Y68331500D03*
G04 #@! TD*
D29*
G04 #@! TO.C,AS9*
X27888500Y68550000D03*
X27888500Y68950000D03*
X27888500Y69350000D03*
X27888500Y69750000D03*
D30*
X27270000Y69968500D03*
X26870000Y69968500D03*
X26470000Y69968500D03*
X26070000Y69968500D03*
D29*
X25451500Y69750000D03*
X25451500Y69350000D03*
X25451500Y68950000D03*
X25451500Y68550000D03*
D30*
X26070000Y68331500D03*
X26470000Y68331500D03*
X26870000Y68331500D03*
X27270000Y68331500D03*
G04 #@! TD*
D29*
G04 #@! TO.C,AS4*
X2488500Y76490000D03*
X2488500Y76890000D03*
X2488500Y77290000D03*
X2488500Y77690000D03*
D30*
X1870000Y77908500D03*
X1470000Y77908500D03*
X1070000Y77908500D03*
X670000Y77908500D03*
D29*
X51500Y77690000D03*
X51500Y77290000D03*
X51500Y76890000D03*
X51500Y76490000D03*
D30*
X670000Y76271500D03*
X1070000Y76271500D03*
X1470000Y76271500D03*
X1870000Y76271500D03*
G04 #@! TD*
D29*
G04 #@! TO.C,AS3*
X2488500Y68550000D03*
X2488500Y68950000D03*
X2488500Y69350000D03*
X2488500Y69750000D03*
D30*
X1870000Y69968500D03*
X1470000Y69968500D03*
X1070000Y69968500D03*
X670000Y69968500D03*
D29*
X51500Y69750000D03*
X51500Y69350000D03*
X51500Y68950000D03*
X51500Y68550000D03*
D30*
X670000Y68331500D03*
X1070000Y68331500D03*
X1470000Y68331500D03*
X1870000Y68331500D03*
G04 #@! TD*
D34*
G04 #@! TO.C,H2*
X72390000Y85725000D03*
X72390000Y83185000D03*
X69850000Y85725000D03*
X69850000Y83185000D03*
X67310000Y85725000D03*
X67310000Y83185000D03*
X64770000Y85725000D03*
X64770000Y83185000D03*
X62230000Y85725000D03*
X62230000Y83185000D03*
X59690000Y85725000D03*
X59690000Y83185000D03*
X57150000Y85725000D03*
X57150000Y83185000D03*
X54610000Y85725000D03*
X54610000Y83185000D03*
X52070000Y85725000D03*
X52070000Y83185000D03*
X49530000Y85725000D03*
X49530000Y83185000D03*
X46990000Y85725000D03*
X46990000Y83185000D03*
X44450000Y85725000D03*
X44450000Y83185000D03*
X41910000Y85725000D03*
X41910000Y83185000D03*
X39370000Y85725000D03*
X39370000Y83185000D03*
X36830000Y85725000D03*
X36830000Y83185000D03*
X34290000Y85725000D03*
X34290000Y83185000D03*
X31750000Y85725000D03*
X31750000Y83185000D03*
X29210000Y85725000D03*
X29210000Y83185000D03*
X26670000Y85725000D03*
X26670000Y83185000D03*
X24130000Y85725000D03*
X24130000Y83185000D03*
X21590000Y85725000D03*
X21590000Y83185000D03*
X19050000Y85725000D03*
X19050000Y83185000D03*
X16510000Y85725000D03*
X16510000Y83185000D03*
X13970000Y85725000D03*
X13970000Y83185000D03*
X11430000Y85725000D03*
X11430000Y83185000D03*
X8890000Y85725000D03*
X8890000Y83185000D03*
G04 #@! TD*
G04 #@! TO.C,H1*
X72390000Y80645000D03*
X72390000Y78105000D03*
X69850000Y80645000D03*
X69850000Y78105000D03*
X67310000Y80645000D03*
X67310000Y78105000D03*
X64770000Y80645000D03*
X64770000Y78105000D03*
X62230000Y80645000D03*
X62230000Y78105000D03*
X59690000Y80645000D03*
X59690000Y78105000D03*
X57150000Y80645000D03*
X57150000Y78105000D03*
X54610000Y80645000D03*
X54610000Y78105000D03*
X52070000Y80645000D03*
X52070000Y78105000D03*
X49530000Y80645000D03*
X49530000Y78105000D03*
X46990000Y80645000D03*
X46990000Y78105000D03*
X44450000Y80645000D03*
X44450000Y78105000D03*
X41910000Y80645000D03*
X41910000Y78105000D03*
X39370000Y80645000D03*
X39370000Y78105000D03*
X36830000Y80645000D03*
X36830000Y78105000D03*
X34290000Y80645000D03*
X34290000Y78105000D03*
X31750000Y80645000D03*
X31750000Y78105000D03*
X29210000Y80645000D03*
X29210000Y78105000D03*
X26670000Y80645000D03*
X26670000Y78105000D03*
X24130000Y80645000D03*
X24130000Y78105000D03*
X21590000Y80645000D03*
X21590000Y78105000D03*
X19050000Y80645000D03*
X19050000Y78105000D03*
X16510000Y80645000D03*
X16510000Y78105000D03*
X13970000Y80645000D03*
X13970000Y78105000D03*
X11430000Y80645000D03*
X11430000Y78105000D03*
X8890000Y80645000D03*
X8890000Y78105000D03*
G04 #@! TD*
M02*
