G04 #@! TF.GenerationSoftware,KiCad,Pcbnew,(5.1.6)-1*
G04 #@! TF.CreationDate,2020-08-05T20:31:42+02:00*
G04 #@! TF.ProjectId,board_sierra,626f6172-645f-4736-9965-7272612e6b69,rev?*
G04 #@! TF.SameCoordinates,Original*
G04 #@! TF.FileFunction,Legend,Bot*
G04 #@! TF.FilePolarity,Positive*
%FSLAX46Y46*%
G04 Gerber Fmt 4.6, Leading zero omitted, Abs format (unit mm)*
G04 Created by KiCad (PCBNEW (5.1.6)-1) date 2020-08-05 20:31:42*
%MOMM*%
%LPD*%
G01*
G04 APERTURE LIST*
%ADD10C,0.400000*%
G04 #@! TA.AperFunction,Profile*
%ADD11C,0.100000*%
G04 #@! TD*
%ADD12C,0.010000*%
%ADD13C,0.200000*%
%ADD14C,0.160000*%
%ADD15C,0.250000*%
G04 APERTURE END LIST*
D10*
X162669761Y-133524761D02*
X162003095Y-135524761D01*
X161336428Y-133524761D01*
X160765000Y-135429523D02*
X160479285Y-135524761D01*
X160003095Y-135524761D01*
X159812619Y-135429523D01*
X159717380Y-135334285D01*
X159622142Y-135143809D01*
X159622142Y-134953333D01*
X159717380Y-134762857D01*
X159812619Y-134667619D01*
X160003095Y-134572380D01*
X160384047Y-134477142D01*
X160574523Y-134381904D01*
X160669761Y-134286666D01*
X160765000Y-134096190D01*
X160765000Y-133905714D01*
X160669761Y-133715238D01*
X160574523Y-133620000D01*
X160384047Y-133524761D01*
X159907857Y-133524761D01*
X159622142Y-133620000D01*
X159050714Y-133524761D02*
X157907857Y-133524761D01*
X158479285Y-135524761D02*
X158479285Y-133524761D01*
X156193571Y-135524761D02*
X157336428Y-135524761D01*
X156765000Y-135524761D02*
X156765000Y-133524761D01*
X156955476Y-133810476D01*
X157145952Y-134000952D01*
X157336428Y-134096190D01*
X154955476Y-133524761D02*
X154765000Y-133524761D01*
X154574523Y-133620000D01*
X154479285Y-133715238D01*
X154384047Y-133905714D01*
X154288809Y-134286666D01*
X154288809Y-134762857D01*
X154384047Y-135143809D01*
X154479285Y-135334285D01*
X154574523Y-135429523D01*
X154765000Y-135524761D01*
X154955476Y-135524761D01*
X155145952Y-135429523D01*
X155241190Y-135334285D01*
X155336428Y-135143809D01*
X155431666Y-134762857D01*
X155431666Y-134286666D01*
X155336428Y-133905714D01*
X155241190Y-133715238D01*
X155145952Y-133620000D01*
X154955476Y-133524761D01*
X152574523Y-134191428D02*
X152574523Y-135524761D01*
X153050714Y-133429523D02*
X153526904Y-134858095D01*
X152288809Y-134858095D01*
X151526904Y-134762857D02*
X150003095Y-134762857D01*
X149145952Y-135429523D02*
X148860238Y-135524761D01*
X148384047Y-135524761D01*
X148193571Y-135429523D01*
X148098333Y-135334285D01*
X148003095Y-135143809D01*
X148003095Y-134953333D01*
X148098333Y-134762857D01*
X148193571Y-134667619D01*
X148384047Y-134572380D01*
X148765000Y-134477142D01*
X148955476Y-134381904D01*
X149050714Y-134286666D01*
X149145952Y-134096190D01*
X149145952Y-133905714D01*
X149050714Y-133715238D01*
X148955476Y-133620000D01*
X148765000Y-133524761D01*
X148288809Y-133524761D01*
X148003095Y-133620000D01*
X147145952Y-135524761D02*
X147145952Y-134191428D01*
X147145952Y-133524761D02*
X147241190Y-133620000D01*
X147145952Y-133715238D01*
X147050714Y-133620000D01*
X147145952Y-133524761D01*
X147145952Y-133715238D01*
X145431666Y-135429523D02*
X145622142Y-135524761D01*
X146003095Y-135524761D01*
X146193571Y-135429523D01*
X146288809Y-135239047D01*
X146288809Y-134477142D01*
X146193571Y-134286666D01*
X146003095Y-134191428D01*
X145622142Y-134191428D01*
X145431666Y-134286666D01*
X145336428Y-134477142D01*
X145336428Y-134667619D01*
X146288809Y-134858095D01*
X144479285Y-135524761D02*
X144479285Y-134191428D01*
X144479285Y-134572380D02*
X144384047Y-134381904D01*
X144288809Y-134286666D01*
X144098333Y-134191428D01*
X143907857Y-134191428D01*
X143241190Y-135524761D02*
X143241190Y-134191428D01*
X143241190Y-134572380D02*
X143145952Y-134381904D01*
X143050714Y-134286666D01*
X142860238Y-134191428D01*
X142669761Y-134191428D01*
X141145952Y-135524761D02*
X141145952Y-134477142D01*
X141241190Y-134286666D01*
X141431666Y-134191428D01*
X141812619Y-134191428D01*
X142003095Y-134286666D01*
X141145952Y-135429523D02*
X141336428Y-135524761D01*
X141812619Y-135524761D01*
X142003095Y-135429523D01*
X142098333Y-135239047D01*
X142098333Y-135048571D01*
X142003095Y-134858095D01*
X141812619Y-134762857D01*
X141336428Y-134762857D01*
X141145952Y-134667619D01*
X108267142Y-134191428D02*
X107790952Y-135524761D01*
X107314761Y-134191428D01*
X105505238Y-135524761D02*
X106648095Y-135524761D01*
X106076666Y-135524761D02*
X106076666Y-133524761D01*
X106267142Y-133810476D01*
X106457619Y-134000952D01*
X106648095Y-134096190D01*
X104648095Y-135334285D02*
X104552857Y-135429523D01*
X104648095Y-135524761D01*
X104743333Y-135429523D01*
X104648095Y-135334285D01*
X104648095Y-135524761D01*
X103314761Y-133524761D02*
X103124285Y-133524761D01*
X102933809Y-133620000D01*
X102838571Y-133715238D01*
X102743333Y-133905714D01*
X102648095Y-134286666D01*
X102648095Y-134762857D01*
X102743333Y-135143809D01*
X102838571Y-135334285D01*
X102933809Y-135429523D01*
X103124285Y-135524761D01*
X103314761Y-135524761D01*
X103505238Y-135429523D01*
X103600476Y-135334285D01*
X103695714Y-135143809D01*
X103790952Y-134762857D01*
X103790952Y-134286666D01*
X103695714Y-133905714D01*
X103600476Y-133715238D01*
X103505238Y-133620000D01*
X103314761Y-133524761D01*
X126950000Y-80115000D02*
X126950000Y-55300000D01*
X126940000Y-88770000D02*
X126940000Y-83170000D01*
X126940000Y-99060000D02*
X126940000Y-91760000D01*
X119550000Y-99060000D02*
X123350000Y-99060000D01*
X84550000Y-99060000D02*
X117150000Y-99060000D01*
D11*
X137985500Y-43180000D02*
G75*
G03*
X138938000Y-42227500I0J952500D01*
G01*
X119570500Y-43180000D02*
X137985500Y-43180000D01*
X139890500Y-41275000D02*
X171767500Y-41275000D01*
X118618000Y-42227500D02*
G75*
G03*
X117665500Y-41275000I-952500J0D01*
G01*
X118618000Y-42227500D02*
G75*
G03*
X119570500Y-43180000I952500J0D01*
G01*
X83502500Y-41275000D02*
X117665500Y-41275000D01*
X139890500Y-41275000D02*
G75*
G03*
X138938000Y-42227500I0J-952500D01*
G01*
X139890500Y-137160000D02*
X171767500Y-137160000D01*
X119570500Y-135255000D02*
X137985500Y-135255000D01*
X83502500Y-137160000D02*
X117665500Y-137160000D01*
X139890500Y-137160000D02*
G75*
G02*
X138938000Y-136207500I0J952500D01*
G01*
X137985500Y-135255000D02*
G75*
G02*
X138938000Y-136207500I0J-952500D01*
G01*
X118618000Y-136207500D02*
G75*
G02*
X119570500Y-135255000I952500J0D01*
G01*
X118618000Y-136207500D02*
G75*
G02*
X117665500Y-137160000I-952500J0D01*
G01*
X171767500Y-79070200D02*
G75*
G03*
X170815000Y-80022700I0J-952500D01*
G01*
X172720000Y-42227500D02*
X172720000Y-78117700D01*
X170815000Y-80022700D02*
X170815000Y-98412300D01*
X172720000Y-100317300D02*
X172720000Y-136207500D01*
X170815000Y-98412300D02*
G75*
G03*
X171767500Y-99364800I952500J0D01*
G01*
X172720000Y-100317300D02*
G75*
G03*
X171767500Y-99364800I-952500J0D01*
G01*
X171767500Y-79070200D02*
G75*
G03*
X172720000Y-78117700I0J952500D01*
G01*
X172720000Y-136207500D02*
G75*
G02*
X171767500Y-137160000I-952500J0D01*
G01*
X171767500Y-41275000D02*
G75*
G02*
X172720000Y-42227500I0J-952500D01*
G01*
X82550000Y-100317300D02*
X82550000Y-136207500D01*
X82550000Y-42227500D02*
X82550000Y-78117700D01*
X82550000Y-42227500D02*
G75*
G02*
X83502500Y-41275000I952500J0D01*
G01*
X84455000Y-80022700D02*
X84455000Y-98412300D01*
X83502500Y-79070200D02*
G75*
G02*
X82550000Y-78117700I0J952500D01*
G01*
X83502500Y-79070200D02*
G75*
G02*
X84455000Y-80022700I0J-952500D01*
G01*
X84455000Y-98412300D02*
G75*
G02*
X83502500Y-99364800I-952500J0D01*
G01*
X82550000Y-100317300D02*
G75*
G02*
X83502500Y-99364800I952500J0D01*
G01*
X83502500Y-137160000D02*
G75*
G02*
X82550000Y-136207500I0J952500D01*
G01*
D12*
G36*
X167286051Y-52771660D02*
G01*
X167223776Y-52772037D01*
X167173843Y-52772706D01*
X167135167Y-52773701D01*
X167106662Y-52775057D01*
X167087244Y-52776807D01*
X167075827Y-52778986D01*
X167072227Y-52780614D01*
X167068219Y-52787046D01*
X167063218Y-52801579D01*
X167057013Y-52825170D01*
X167049393Y-52858774D01*
X167040147Y-52903350D01*
X167029063Y-52959854D01*
X167015931Y-53029242D01*
X167008527Y-53069085D01*
X166993616Y-53148693D01*
X166980843Y-53214609D01*
X166970068Y-53267474D01*
X166961152Y-53307932D01*
X166953953Y-53336623D01*
X166948330Y-53354191D01*
X166944786Y-53360759D01*
X166935383Y-53366331D01*
X166914612Y-53376342D01*
X166884607Y-53389905D01*
X166847500Y-53406131D01*
X166805426Y-53424136D01*
X166760519Y-53443030D01*
X166714912Y-53461927D01*
X166670739Y-53479941D01*
X166630133Y-53496183D01*
X166595229Y-53509767D01*
X166568159Y-53519806D01*
X166551058Y-53525412D01*
X166546649Y-53526285D01*
X166538557Y-53522302D01*
X166519869Y-53510937D01*
X166491925Y-53493071D01*
X166456064Y-53469582D01*
X166413624Y-53441351D01*
X166365945Y-53409257D01*
X166314366Y-53374179D01*
X166298033Y-53363000D01*
X166245696Y-53327230D01*
X166197024Y-53294168D01*
X166153330Y-53264688D01*
X166115926Y-53239668D01*
X166086122Y-53219982D01*
X166065230Y-53206507D01*
X166054563Y-53200118D01*
X166053530Y-53199714D01*
X166046203Y-53204706D01*
X166030286Y-53218789D01*
X166007094Y-53240625D01*
X165977941Y-53268875D01*
X165944141Y-53302201D01*
X165907009Y-53339264D01*
X165867858Y-53378726D01*
X165828003Y-53419248D01*
X165788759Y-53459493D01*
X165751438Y-53498120D01*
X165717357Y-53533793D01*
X165687827Y-53565171D01*
X165664165Y-53590918D01*
X165647683Y-53609694D01*
X165639697Y-53620161D01*
X165639178Y-53621727D01*
X165644058Y-53629733D01*
X165656251Y-53648321D01*
X165674834Y-53676120D01*
X165698881Y-53711762D01*
X165727468Y-53753878D01*
X165759671Y-53801097D01*
X165794566Y-53852052D01*
X165799886Y-53859803D01*
X165835011Y-53911308D01*
X165867392Y-53959458D01*
X165896126Y-54002859D01*
X165920310Y-54040119D01*
X165939042Y-54069844D01*
X165951420Y-54090643D01*
X165956542Y-54101123D01*
X165956628Y-54101703D01*
X165953790Y-54112515D01*
X165945878Y-54134452D01*
X165933790Y-54165414D01*
X165918429Y-54203297D01*
X165900693Y-54246000D01*
X165881485Y-54291423D01*
X165861703Y-54337462D01*
X165842250Y-54382017D01*
X165824024Y-54422986D01*
X165807927Y-54458267D01*
X165794860Y-54485758D01*
X165785722Y-54503357D01*
X165782352Y-54508459D01*
X165775713Y-54512683D01*
X165762460Y-54517587D01*
X165741457Y-54523426D01*
X165711569Y-54530454D01*
X165671660Y-54538927D01*
X165620594Y-54549101D01*
X165557236Y-54561229D01*
X165498582Y-54572205D01*
X165423439Y-54586319D01*
X165361659Y-54598282D01*
X165312282Y-54608306D01*
X165274351Y-54616607D01*
X165246907Y-54623396D01*
X165228992Y-54628887D01*
X165219647Y-54633294D01*
X165218214Y-54634633D01*
X165215744Y-54641513D01*
X165213725Y-54655702D01*
X165212122Y-54678286D01*
X165210900Y-54710349D01*
X165210027Y-54752976D01*
X165209468Y-54807253D01*
X165209190Y-54874266D01*
X165209142Y-54924154D01*
X165209202Y-54995941D01*
X165209417Y-55054585D01*
X165209840Y-55101457D01*
X165210527Y-55137928D01*
X165211532Y-55165368D01*
X165212907Y-55185149D01*
X165214709Y-55198640D01*
X165216990Y-55207214D01*
X165219805Y-55212241D01*
X165220547Y-55213053D01*
X165231309Y-55222137D01*
X165236177Y-55224457D01*
X165244040Y-55225735D01*
X165264551Y-55229373D01*
X165296086Y-55235075D01*
X165337024Y-55242544D01*
X165385742Y-55251485D01*
X165440619Y-55261602D01*
X165498730Y-55272357D01*
X165575291Y-55286764D01*
X165638154Y-55299064D01*
X165687958Y-55309401D01*
X165725344Y-55317916D01*
X165750952Y-55324752D01*
X165765423Y-55330050D01*
X165768745Y-55332229D01*
X165774333Y-55341889D01*
X165784253Y-55363049D01*
X165797676Y-55393643D01*
X165813773Y-55431605D01*
X165831714Y-55474869D01*
X165850670Y-55521370D01*
X165869812Y-55569043D01*
X165888310Y-55615820D01*
X165905336Y-55659637D01*
X165920060Y-55698427D01*
X165931652Y-55730125D01*
X165939283Y-55752665D01*
X165942125Y-55763982D01*
X165942128Y-55764132D01*
X165938135Y-55773047D01*
X165926778Y-55792450D01*
X165908980Y-55820914D01*
X165885662Y-55857011D01*
X165857747Y-55899311D01*
X165826158Y-55946388D01*
X165792226Y-55996216D01*
X165757845Y-56046534D01*
X165726089Y-56093366D01*
X165697899Y-56135300D01*
X165674212Y-56170925D01*
X165655967Y-56198828D01*
X165644104Y-56217599D01*
X165639567Y-56225798D01*
X165643944Y-56233773D01*
X165658225Y-56251158D01*
X165681827Y-56277331D01*
X165714166Y-56311666D01*
X165754657Y-56353543D01*
X165802718Y-56402337D01*
X165839482Y-56439208D01*
X165891598Y-56491114D01*
X165934528Y-56533525D01*
X165969240Y-56567318D01*
X165996701Y-56593368D01*
X166017881Y-56612552D01*
X166033746Y-56625747D01*
X166045266Y-56633827D01*
X166053408Y-56637670D01*
X166059141Y-56638151D01*
X166059270Y-56638126D01*
X166069168Y-56633290D01*
X166089449Y-56621143D01*
X166118591Y-56602674D01*
X166155070Y-56578875D01*
X166197364Y-56550733D01*
X166243951Y-56519241D01*
X166279287Y-56495054D01*
X166327891Y-56461672D01*
X166373102Y-56430732D01*
X166413426Y-56403248D01*
X166447370Y-56380233D01*
X166473437Y-56362702D01*
X166490135Y-56351670D01*
X166495526Y-56348314D01*
X166501141Y-56346474D01*
X166508875Y-56346836D01*
X166520270Y-56350086D01*
X166536866Y-56356911D01*
X166560202Y-56367997D01*
X166591821Y-56384029D01*
X166633261Y-56405694D01*
X166680248Y-56430585D01*
X166704408Y-56442908D01*
X166719445Y-56448676D01*
X166728749Y-56448688D01*
X166735710Y-56443741D01*
X166735790Y-56443657D01*
X166740471Y-56435021D01*
X166750032Y-56414284D01*
X166763920Y-56382787D01*
X166781581Y-56341872D01*
X166802460Y-56292880D01*
X166826004Y-56237154D01*
X166851657Y-56176035D01*
X166878867Y-56110864D01*
X166907079Y-56042984D01*
X166935738Y-55973736D01*
X166964290Y-55904463D01*
X166992182Y-55836505D01*
X167018859Y-55771204D01*
X167043767Y-55709903D01*
X167066351Y-55653943D01*
X167086058Y-55604666D01*
X167102333Y-55563413D01*
X167114623Y-55531526D01*
X167122372Y-55510348D01*
X167125028Y-55501256D01*
X167118713Y-55488150D01*
X167099383Y-55471707D01*
X167083300Y-55461226D01*
X166999708Y-55402699D01*
X166928225Y-55337043D01*
X166869159Y-55264737D01*
X166822814Y-55186263D01*
X166789499Y-55102101D01*
X166769519Y-55012731D01*
X166764334Y-54961661D01*
X166765664Y-54868370D01*
X166780631Y-54778751D01*
X166808584Y-54693914D01*
X166848876Y-54614965D01*
X166900855Y-54543011D01*
X166963873Y-54479161D01*
X167037281Y-54424522D01*
X167099628Y-54389833D01*
X167167926Y-54360577D01*
X167232846Y-54341621D01*
X167299835Y-54331743D01*
X167368142Y-54329624D01*
X167460714Y-54337747D01*
X167548947Y-54359298D01*
X167631714Y-54393548D01*
X167707890Y-54439770D01*
X167776349Y-54497239D01*
X167835964Y-54565226D01*
X167885609Y-54643004D01*
X167901034Y-54673709D01*
X167923442Y-54725578D01*
X167939014Y-54772733D01*
X167948751Y-54819968D01*
X167953659Y-54872076D01*
X167954759Y-54930543D01*
X167954068Y-54973888D01*
X167952145Y-55007365D01*
X167948414Y-55035604D01*
X167942298Y-55063236D01*
X167935066Y-55088802D01*
X167905825Y-55168766D01*
X167868008Y-55240568D01*
X167820253Y-55305975D01*
X167761200Y-55366752D01*
X167689488Y-55424665D01*
X167660472Y-55445042D01*
X167634031Y-55463591D01*
X167612366Y-55479896D01*
X167598182Y-55491856D01*
X167594118Y-55496601D01*
X167595995Y-55505181D01*
X167602871Y-55525514D01*
X167614121Y-55555970D01*
X167629120Y-55594919D01*
X167647245Y-55640733D01*
X167667871Y-55691783D01*
X167683391Y-55729587D01*
X167710282Y-55794693D01*
X167741042Y-55869213D01*
X167774020Y-55949138D01*
X167807561Y-56030459D01*
X167840013Y-56109169D01*
X167869720Y-56181258D01*
X167876887Y-56198656D01*
X167907217Y-56271575D01*
X167933092Y-56332270D01*
X167954390Y-56380469D01*
X167970988Y-56415903D01*
X167982763Y-56438301D01*
X167989593Y-56447392D01*
X167989912Y-56447533D01*
X168000852Y-56445639D01*
X168022439Y-56437206D01*
X168052813Y-56423063D01*
X168090115Y-56404040D01*
X168103677Y-56396806D01*
X168138633Y-56378173D01*
X168169211Y-56362261D01*
X168193092Y-56350246D01*
X168207962Y-56343301D01*
X168211615Y-56342057D01*
X168218857Y-56346027D01*
X168236664Y-56357324D01*
X168263657Y-56375030D01*
X168298458Y-56398224D01*
X168339687Y-56425990D01*
X168385966Y-56457407D01*
X168434854Y-56490828D01*
X168485121Y-56525030D01*
X168532091Y-56556461D01*
X168574320Y-56584194D01*
X168610362Y-56607300D01*
X168638770Y-56624854D01*
X168658100Y-56635927D01*
X168666767Y-56639600D01*
X168676589Y-56634277D01*
X168696234Y-56618330D01*
X168725667Y-56591790D01*
X168764856Y-56554687D01*
X168813767Y-56507052D01*
X168872368Y-56448916D01*
X168879492Y-56441794D01*
X168937446Y-56383415D01*
X168985592Y-56334064D01*
X169023776Y-56293908D01*
X169051841Y-56263113D01*
X169069632Y-56241849D01*
X169076993Y-56230281D01*
X169077200Y-56229157D01*
X169073206Y-56219927D01*
X169061845Y-56200230D01*
X169044043Y-56171511D01*
X169020727Y-56135215D01*
X168992824Y-56092785D01*
X168961262Y-56045666D01*
X168928428Y-55997431D01*
X168890510Y-55941690D01*
X168856986Y-55891493D01*
X168828573Y-55847962D01*
X168805986Y-55812222D01*
X168789940Y-55785395D01*
X168781150Y-55768605D01*
X168779657Y-55763809D01*
X168782347Y-55752203D01*
X168789861Y-55729368D01*
X168801366Y-55697384D01*
X168816031Y-55658330D01*
X168833022Y-55614287D01*
X168851506Y-55567332D01*
X168870651Y-55519548D01*
X168889624Y-55473012D01*
X168907592Y-55429805D01*
X168923723Y-55392006D01*
X168937183Y-55361696D01*
X168947141Y-55340953D01*
X168952533Y-55332067D01*
X168961389Y-55327546D01*
X168980626Y-55321649D01*
X169010947Y-55314219D01*
X169053053Y-55305104D01*
X169107645Y-55294147D01*
X169175427Y-55281194D01*
X169225971Y-55271801D01*
X169295816Y-55258839D01*
X169352705Y-55248034D01*
X169397985Y-55239075D01*
X169433005Y-55231654D01*
X169459111Y-55225459D01*
X169477651Y-55220180D01*
X169489973Y-55215508D01*
X169497423Y-55211132D01*
X169499928Y-55208744D01*
X169503209Y-55203904D01*
X169505875Y-55196913D01*
X169507989Y-55186342D01*
X169509614Y-55170760D01*
X169510813Y-55148738D01*
X169511650Y-55118848D01*
X169512186Y-55079659D01*
X169512485Y-55029741D01*
X169512611Y-54967666D01*
X169512628Y-54920240D01*
X169512508Y-54845100D01*
X169512125Y-54783381D01*
X169511445Y-54733992D01*
X169510432Y-54695841D01*
X169509052Y-54667836D01*
X169507270Y-54648886D01*
X169505052Y-54637900D01*
X169503557Y-54634753D01*
X169496755Y-54630607D01*
X169481356Y-54625417D01*
X169456422Y-54618977D01*
X169421015Y-54611080D01*
X169374201Y-54601516D01*
X169315040Y-54590079D01*
X169242597Y-54576561D01*
X169233228Y-54574837D01*
X169172738Y-54563617D01*
X169116136Y-54552921D01*
X169065165Y-54543092D01*
X169021566Y-54534474D01*
X168987080Y-54527412D01*
X168963449Y-54522249D01*
X168952549Y-54519383D01*
X168946248Y-54515748D01*
X168939500Y-54508730D01*
X168931577Y-54496895D01*
X168921747Y-54478805D01*
X168909280Y-54453027D01*
X168893447Y-54418124D01*
X168873515Y-54372660D01*
X168849135Y-54316082D01*
X168827703Y-54265521D01*
X168808289Y-54218597D01*
X168791619Y-54177152D01*
X168778415Y-54143028D01*
X168769405Y-54118069D01*
X168765312Y-54104117D01*
X168765142Y-54102597D01*
X168769348Y-54091582D01*
X168781692Y-54069483D01*
X168801760Y-54036945D01*
X168829143Y-53994614D01*
X168863426Y-53943135D01*
X168904199Y-53883153D01*
X168918824Y-53861870D01*
X168953780Y-53810756D01*
X168986094Y-53762794D01*
X169014830Y-53719430D01*
X169039049Y-53682109D01*
X169057815Y-53652277D01*
X169070190Y-53631379D01*
X169075237Y-53620859D01*
X169075281Y-53620628D01*
X169074771Y-53614768D01*
X169071090Y-53606722D01*
X169063350Y-53595512D01*
X169050662Y-53580160D01*
X169032136Y-53559687D01*
X169006885Y-53533115D01*
X168974017Y-53499465D01*
X168932646Y-53457759D01*
X168881882Y-53407018D01*
X168874960Y-53400119D01*
X168815850Y-53341570D01*
X168766503Y-53293457D01*
X168726755Y-53255627D01*
X168696441Y-53227926D01*
X168675397Y-53210204D01*
X168663457Y-53202306D01*
X168661007Y-53201919D01*
X168652780Y-53206843D01*
X168633972Y-53219098D01*
X168605944Y-53237767D01*
X168570055Y-53261934D01*
X168527668Y-53290680D01*
X168480143Y-53323088D01*
X168428841Y-53358241D01*
X168417280Y-53366185D01*
X168365378Y-53401681D01*
X168316944Y-53434444D01*
X168273335Y-53463584D01*
X168235910Y-53488209D01*
X168206026Y-53507427D01*
X168185040Y-53520347D01*
X168174312Y-53526078D01*
X168173451Y-53526285D01*
X168163885Y-53523629D01*
X168142914Y-53516169D01*
X168112536Y-53504672D01*
X168074749Y-53489903D01*
X168031550Y-53472628D01*
X168001174Y-53460277D01*
X167939774Y-53435141D01*
X167890450Y-53414875D01*
X167851840Y-53398857D01*
X167822584Y-53386465D01*
X167801322Y-53377077D01*
X167786695Y-53370070D01*
X167777341Y-53364822D01*
X167771900Y-53360711D01*
X167769013Y-53357114D01*
X167767320Y-53353409D01*
X167767261Y-53353258D01*
X167765148Y-53344269D01*
X167760752Y-53322936D01*
X167754438Y-53291186D01*
X167746572Y-53250947D01*
X167737519Y-53204144D01*
X167727645Y-53152706D01*
X167717315Y-53098559D01*
X167706896Y-53043629D01*
X167696753Y-52989844D01*
X167687252Y-52939130D01*
X167678759Y-52893414D01*
X167671638Y-52854624D01*
X167666257Y-52824686D01*
X167662980Y-52805527D01*
X167662120Y-52799275D01*
X167657509Y-52790782D01*
X167650653Y-52782947D01*
X167646257Y-52779999D01*
X167638636Y-52777598D01*
X167626417Y-52775689D01*
X167608230Y-52774218D01*
X167582704Y-52773132D01*
X167548469Y-52772375D01*
X167504152Y-52771895D01*
X167448384Y-52771636D01*
X167379794Y-52771545D01*
X167361754Y-52771543D01*
X167286051Y-52771660D01*
G37*
X167286051Y-52771660D02*
X167223776Y-52772037D01*
X167173843Y-52772706D01*
X167135167Y-52773701D01*
X167106662Y-52775057D01*
X167087244Y-52776807D01*
X167075827Y-52778986D01*
X167072227Y-52780614D01*
X167068219Y-52787046D01*
X167063218Y-52801579D01*
X167057013Y-52825170D01*
X167049393Y-52858774D01*
X167040147Y-52903350D01*
X167029063Y-52959854D01*
X167015931Y-53029242D01*
X167008527Y-53069085D01*
X166993616Y-53148693D01*
X166980843Y-53214609D01*
X166970068Y-53267474D01*
X166961152Y-53307932D01*
X166953953Y-53336623D01*
X166948330Y-53354191D01*
X166944786Y-53360759D01*
X166935383Y-53366331D01*
X166914612Y-53376342D01*
X166884607Y-53389905D01*
X166847500Y-53406131D01*
X166805426Y-53424136D01*
X166760519Y-53443030D01*
X166714912Y-53461927D01*
X166670739Y-53479941D01*
X166630133Y-53496183D01*
X166595229Y-53509767D01*
X166568159Y-53519806D01*
X166551058Y-53525412D01*
X166546649Y-53526285D01*
X166538557Y-53522302D01*
X166519869Y-53510937D01*
X166491925Y-53493071D01*
X166456064Y-53469582D01*
X166413624Y-53441351D01*
X166365945Y-53409257D01*
X166314366Y-53374179D01*
X166298033Y-53363000D01*
X166245696Y-53327230D01*
X166197024Y-53294168D01*
X166153330Y-53264688D01*
X166115926Y-53239668D01*
X166086122Y-53219982D01*
X166065230Y-53206507D01*
X166054563Y-53200118D01*
X166053530Y-53199714D01*
X166046203Y-53204706D01*
X166030286Y-53218789D01*
X166007094Y-53240625D01*
X165977941Y-53268875D01*
X165944141Y-53302201D01*
X165907009Y-53339264D01*
X165867858Y-53378726D01*
X165828003Y-53419248D01*
X165788759Y-53459493D01*
X165751438Y-53498120D01*
X165717357Y-53533793D01*
X165687827Y-53565171D01*
X165664165Y-53590918D01*
X165647683Y-53609694D01*
X165639697Y-53620161D01*
X165639178Y-53621727D01*
X165644058Y-53629733D01*
X165656251Y-53648321D01*
X165674834Y-53676120D01*
X165698881Y-53711762D01*
X165727468Y-53753878D01*
X165759671Y-53801097D01*
X165794566Y-53852052D01*
X165799886Y-53859803D01*
X165835011Y-53911308D01*
X165867392Y-53959458D01*
X165896126Y-54002859D01*
X165920310Y-54040119D01*
X165939042Y-54069844D01*
X165951420Y-54090643D01*
X165956542Y-54101123D01*
X165956628Y-54101703D01*
X165953790Y-54112515D01*
X165945878Y-54134452D01*
X165933790Y-54165414D01*
X165918429Y-54203297D01*
X165900693Y-54246000D01*
X165881485Y-54291423D01*
X165861703Y-54337462D01*
X165842250Y-54382017D01*
X165824024Y-54422986D01*
X165807927Y-54458267D01*
X165794860Y-54485758D01*
X165785722Y-54503357D01*
X165782352Y-54508459D01*
X165775713Y-54512683D01*
X165762460Y-54517587D01*
X165741457Y-54523426D01*
X165711569Y-54530454D01*
X165671660Y-54538927D01*
X165620594Y-54549101D01*
X165557236Y-54561229D01*
X165498582Y-54572205D01*
X165423439Y-54586319D01*
X165361659Y-54598282D01*
X165312282Y-54608306D01*
X165274351Y-54616607D01*
X165246907Y-54623396D01*
X165228992Y-54628887D01*
X165219647Y-54633294D01*
X165218214Y-54634633D01*
X165215744Y-54641513D01*
X165213725Y-54655702D01*
X165212122Y-54678286D01*
X165210900Y-54710349D01*
X165210027Y-54752976D01*
X165209468Y-54807253D01*
X165209190Y-54874266D01*
X165209142Y-54924154D01*
X165209202Y-54995941D01*
X165209417Y-55054585D01*
X165209840Y-55101457D01*
X165210527Y-55137928D01*
X165211532Y-55165368D01*
X165212907Y-55185149D01*
X165214709Y-55198640D01*
X165216990Y-55207214D01*
X165219805Y-55212241D01*
X165220547Y-55213053D01*
X165231309Y-55222137D01*
X165236177Y-55224457D01*
X165244040Y-55225735D01*
X165264551Y-55229373D01*
X165296086Y-55235075D01*
X165337024Y-55242544D01*
X165385742Y-55251485D01*
X165440619Y-55261602D01*
X165498730Y-55272357D01*
X165575291Y-55286764D01*
X165638154Y-55299064D01*
X165687958Y-55309401D01*
X165725344Y-55317916D01*
X165750952Y-55324752D01*
X165765423Y-55330050D01*
X165768745Y-55332229D01*
X165774333Y-55341889D01*
X165784253Y-55363049D01*
X165797676Y-55393643D01*
X165813773Y-55431605D01*
X165831714Y-55474869D01*
X165850670Y-55521370D01*
X165869812Y-55569043D01*
X165888310Y-55615820D01*
X165905336Y-55659637D01*
X165920060Y-55698427D01*
X165931652Y-55730125D01*
X165939283Y-55752665D01*
X165942125Y-55763982D01*
X165942128Y-55764132D01*
X165938135Y-55773047D01*
X165926778Y-55792450D01*
X165908980Y-55820914D01*
X165885662Y-55857011D01*
X165857747Y-55899311D01*
X165826158Y-55946388D01*
X165792226Y-55996216D01*
X165757845Y-56046534D01*
X165726089Y-56093366D01*
X165697899Y-56135300D01*
X165674212Y-56170925D01*
X165655967Y-56198828D01*
X165644104Y-56217599D01*
X165639567Y-56225798D01*
X165643944Y-56233773D01*
X165658225Y-56251158D01*
X165681827Y-56277331D01*
X165714166Y-56311666D01*
X165754657Y-56353543D01*
X165802718Y-56402337D01*
X165839482Y-56439208D01*
X165891598Y-56491114D01*
X165934528Y-56533525D01*
X165969240Y-56567318D01*
X165996701Y-56593368D01*
X166017881Y-56612552D01*
X166033746Y-56625747D01*
X166045266Y-56633827D01*
X166053408Y-56637670D01*
X166059141Y-56638151D01*
X166059270Y-56638126D01*
X166069168Y-56633290D01*
X166089449Y-56621143D01*
X166118591Y-56602674D01*
X166155070Y-56578875D01*
X166197364Y-56550733D01*
X166243951Y-56519241D01*
X166279287Y-56495054D01*
X166327891Y-56461672D01*
X166373102Y-56430732D01*
X166413426Y-56403248D01*
X166447370Y-56380233D01*
X166473437Y-56362702D01*
X166490135Y-56351670D01*
X166495526Y-56348314D01*
X166501141Y-56346474D01*
X166508875Y-56346836D01*
X166520270Y-56350086D01*
X166536866Y-56356911D01*
X166560202Y-56367997D01*
X166591821Y-56384029D01*
X166633261Y-56405694D01*
X166680248Y-56430585D01*
X166704408Y-56442908D01*
X166719445Y-56448676D01*
X166728749Y-56448688D01*
X166735710Y-56443741D01*
X166735790Y-56443657D01*
X166740471Y-56435021D01*
X166750032Y-56414284D01*
X166763920Y-56382787D01*
X166781581Y-56341872D01*
X166802460Y-56292880D01*
X166826004Y-56237154D01*
X166851657Y-56176035D01*
X166878867Y-56110864D01*
X166907079Y-56042984D01*
X166935738Y-55973736D01*
X166964290Y-55904463D01*
X166992182Y-55836505D01*
X167018859Y-55771204D01*
X167043767Y-55709903D01*
X167066351Y-55653943D01*
X167086058Y-55604666D01*
X167102333Y-55563413D01*
X167114623Y-55531526D01*
X167122372Y-55510348D01*
X167125028Y-55501256D01*
X167118713Y-55488150D01*
X167099383Y-55471707D01*
X167083300Y-55461226D01*
X166999708Y-55402699D01*
X166928225Y-55337043D01*
X166869159Y-55264737D01*
X166822814Y-55186263D01*
X166789499Y-55102101D01*
X166769519Y-55012731D01*
X166764334Y-54961661D01*
X166765664Y-54868370D01*
X166780631Y-54778751D01*
X166808584Y-54693914D01*
X166848876Y-54614965D01*
X166900855Y-54543011D01*
X166963873Y-54479161D01*
X167037281Y-54424522D01*
X167099628Y-54389833D01*
X167167926Y-54360577D01*
X167232846Y-54341621D01*
X167299835Y-54331743D01*
X167368142Y-54329624D01*
X167460714Y-54337747D01*
X167548947Y-54359298D01*
X167631714Y-54393548D01*
X167707890Y-54439770D01*
X167776349Y-54497239D01*
X167835964Y-54565226D01*
X167885609Y-54643004D01*
X167901034Y-54673709D01*
X167923442Y-54725578D01*
X167939014Y-54772733D01*
X167948751Y-54819968D01*
X167953659Y-54872076D01*
X167954759Y-54930543D01*
X167954068Y-54973888D01*
X167952145Y-55007365D01*
X167948414Y-55035604D01*
X167942298Y-55063236D01*
X167935066Y-55088802D01*
X167905825Y-55168766D01*
X167868008Y-55240568D01*
X167820253Y-55305975D01*
X167761200Y-55366752D01*
X167689488Y-55424665D01*
X167660472Y-55445042D01*
X167634031Y-55463591D01*
X167612366Y-55479896D01*
X167598182Y-55491856D01*
X167594118Y-55496601D01*
X167595995Y-55505181D01*
X167602871Y-55525514D01*
X167614121Y-55555970D01*
X167629120Y-55594919D01*
X167647245Y-55640733D01*
X167667871Y-55691783D01*
X167683391Y-55729587D01*
X167710282Y-55794693D01*
X167741042Y-55869213D01*
X167774020Y-55949138D01*
X167807561Y-56030459D01*
X167840013Y-56109169D01*
X167869720Y-56181258D01*
X167876887Y-56198656D01*
X167907217Y-56271575D01*
X167933092Y-56332270D01*
X167954390Y-56380469D01*
X167970988Y-56415903D01*
X167982763Y-56438301D01*
X167989593Y-56447392D01*
X167989912Y-56447533D01*
X168000852Y-56445639D01*
X168022439Y-56437206D01*
X168052813Y-56423063D01*
X168090115Y-56404040D01*
X168103677Y-56396806D01*
X168138633Y-56378173D01*
X168169211Y-56362261D01*
X168193092Y-56350246D01*
X168207962Y-56343301D01*
X168211615Y-56342057D01*
X168218857Y-56346027D01*
X168236664Y-56357324D01*
X168263657Y-56375030D01*
X168298458Y-56398224D01*
X168339687Y-56425990D01*
X168385966Y-56457407D01*
X168434854Y-56490828D01*
X168485121Y-56525030D01*
X168532091Y-56556461D01*
X168574320Y-56584194D01*
X168610362Y-56607300D01*
X168638770Y-56624854D01*
X168658100Y-56635927D01*
X168666767Y-56639600D01*
X168676589Y-56634277D01*
X168696234Y-56618330D01*
X168725667Y-56591790D01*
X168764856Y-56554687D01*
X168813767Y-56507052D01*
X168872368Y-56448916D01*
X168879492Y-56441794D01*
X168937446Y-56383415D01*
X168985592Y-56334064D01*
X169023776Y-56293908D01*
X169051841Y-56263113D01*
X169069632Y-56241849D01*
X169076993Y-56230281D01*
X169077200Y-56229157D01*
X169073206Y-56219927D01*
X169061845Y-56200230D01*
X169044043Y-56171511D01*
X169020727Y-56135215D01*
X168992824Y-56092785D01*
X168961262Y-56045666D01*
X168928428Y-55997431D01*
X168890510Y-55941690D01*
X168856986Y-55891493D01*
X168828573Y-55847962D01*
X168805986Y-55812222D01*
X168789940Y-55785395D01*
X168781150Y-55768605D01*
X168779657Y-55763809D01*
X168782347Y-55752203D01*
X168789861Y-55729368D01*
X168801366Y-55697384D01*
X168816031Y-55658330D01*
X168833022Y-55614287D01*
X168851506Y-55567332D01*
X168870651Y-55519548D01*
X168889624Y-55473012D01*
X168907592Y-55429805D01*
X168923723Y-55392006D01*
X168937183Y-55361696D01*
X168947141Y-55340953D01*
X168952533Y-55332067D01*
X168961389Y-55327546D01*
X168980626Y-55321649D01*
X169010947Y-55314219D01*
X169053053Y-55305104D01*
X169107645Y-55294147D01*
X169175427Y-55281194D01*
X169225971Y-55271801D01*
X169295816Y-55258839D01*
X169352705Y-55248034D01*
X169397985Y-55239075D01*
X169433005Y-55231654D01*
X169459111Y-55225459D01*
X169477651Y-55220180D01*
X169489973Y-55215508D01*
X169497423Y-55211132D01*
X169499928Y-55208744D01*
X169503209Y-55203904D01*
X169505875Y-55196913D01*
X169507989Y-55186342D01*
X169509614Y-55170760D01*
X169510813Y-55148738D01*
X169511650Y-55118848D01*
X169512186Y-55079659D01*
X169512485Y-55029741D01*
X169512611Y-54967666D01*
X169512628Y-54920240D01*
X169512508Y-54845100D01*
X169512125Y-54783381D01*
X169511445Y-54733992D01*
X169510432Y-54695841D01*
X169509052Y-54667836D01*
X169507270Y-54648886D01*
X169505052Y-54637900D01*
X169503557Y-54634753D01*
X169496755Y-54630607D01*
X169481356Y-54625417D01*
X169456422Y-54618977D01*
X169421015Y-54611080D01*
X169374201Y-54601516D01*
X169315040Y-54590079D01*
X169242597Y-54576561D01*
X169233228Y-54574837D01*
X169172738Y-54563617D01*
X169116136Y-54552921D01*
X169065165Y-54543092D01*
X169021566Y-54534474D01*
X168987080Y-54527412D01*
X168963449Y-54522249D01*
X168952549Y-54519383D01*
X168946248Y-54515748D01*
X168939500Y-54508730D01*
X168931577Y-54496895D01*
X168921747Y-54478805D01*
X168909280Y-54453027D01*
X168893447Y-54418124D01*
X168873515Y-54372660D01*
X168849135Y-54316082D01*
X168827703Y-54265521D01*
X168808289Y-54218597D01*
X168791619Y-54177152D01*
X168778415Y-54143028D01*
X168769405Y-54118069D01*
X168765312Y-54104117D01*
X168765142Y-54102597D01*
X168769348Y-54091582D01*
X168781692Y-54069483D01*
X168801760Y-54036945D01*
X168829143Y-53994614D01*
X168863426Y-53943135D01*
X168904199Y-53883153D01*
X168918824Y-53861870D01*
X168953780Y-53810756D01*
X168986094Y-53762794D01*
X169014830Y-53719430D01*
X169039049Y-53682109D01*
X169057815Y-53652277D01*
X169070190Y-53631379D01*
X169075237Y-53620859D01*
X169075281Y-53620628D01*
X169074771Y-53614768D01*
X169071090Y-53606722D01*
X169063350Y-53595512D01*
X169050662Y-53580160D01*
X169032136Y-53559687D01*
X169006885Y-53533115D01*
X168974017Y-53499465D01*
X168932646Y-53457759D01*
X168881882Y-53407018D01*
X168874960Y-53400119D01*
X168815850Y-53341570D01*
X168766503Y-53293457D01*
X168726755Y-53255627D01*
X168696441Y-53227926D01*
X168675397Y-53210204D01*
X168663457Y-53202306D01*
X168661007Y-53201919D01*
X168652780Y-53206843D01*
X168633972Y-53219098D01*
X168605944Y-53237767D01*
X168570055Y-53261934D01*
X168527668Y-53290680D01*
X168480143Y-53323088D01*
X168428841Y-53358241D01*
X168417280Y-53366185D01*
X168365378Y-53401681D01*
X168316944Y-53434444D01*
X168273335Y-53463584D01*
X168235910Y-53488209D01*
X168206026Y-53507427D01*
X168185040Y-53520347D01*
X168174312Y-53526078D01*
X168173451Y-53526285D01*
X168163885Y-53523629D01*
X168142914Y-53516169D01*
X168112536Y-53504672D01*
X168074749Y-53489903D01*
X168031550Y-53472628D01*
X168001174Y-53460277D01*
X167939774Y-53435141D01*
X167890450Y-53414875D01*
X167851840Y-53398857D01*
X167822584Y-53386465D01*
X167801322Y-53377077D01*
X167786695Y-53370070D01*
X167777341Y-53364822D01*
X167771900Y-53360711D01*
X167769013Y-53357114D01*
X167767320Y-53353409D01*
X167767261Y-53353258D01*
X167765148Y-53344269D01*
X167760752Y-53322936D01*
X167754438Y-53291186D01*
X167746572Y-53250947D01*
X167737519Y-53204144D01*
X167727645Y-53152706D01*
X167717315Y-53098559D01*
X167706896Y-53043629D01*
X167696753Y-52989844D01*
X167687252Y-52939130D01*
X167678759Y-52893414D01*
X167671638Y-52854624D01*
X167666257Y-52824686D01*
X167662980Y-52805527D01*
X167662120Y-52799275D01*
X167657509Y-52790782D01*
X167650653Y-52782947D01*
X167646257Y-52779999D01*
X167638636Y-52777598D01*
X167626417Y-52775689D01*
X167608230Y-52774218D01*
X167582704Y-52773132D01*
X167548469Y-52772375D01*
X167504152Y-52771895D01*
X167448384Y-52771636D01*
X167379794Y-52771545D01*
X167361754Y-52771543D01*
X167286051Y-52771660D01*
D13*
X156210000Y-71120000D02*
X157480000Y-71120000D01*
X146050000Y-71120000D02*
X147320000Y-71120000D01*
X167005000Y-101600000D02*
X136525000Y-101600000D01*
X136525000Y-60960000D02*
X167005000Y-60960000D01*
X167005000Y-60960000D02*
X167005000Y-101600000D01*
X151765000Y-65405000D02*
X151765000Y-66675000D01*
X148590000Y-81280000D02*
X149860000Y-81280000D01*
X151130000Y-81280000D02*
X152400000Y-81280000D01*
X148590000Y-71120000D02*
X149860000Y-71120000D01*
X151765000Y-83185000D02*
X151765000Y-84455000D01*
X151765000Y-70485000D02*
X151765000Y-71755000D01*
X146050000Y-91440000D02*
X147320000Y-91440000D01*
X140970000Y-91440000D02*
X142240000Y-91440000D01*
X143510000Y-91440000D02*
X144780000Y-91440000D01*
X161290000Y-71120000D02*
X162560000Y-71120000D01*
X161290000Y-91440000D02*
X162560000Y-91440000D01*
X158750000Y-91440000D02*
X160020000Y-91440000D01*
X151130000Y-91440000D02*
X152400000Y-91440000D01*
X151130000Y-71120000D02*
X152400000Y-71120000D01*
X151765000Y-90805000D02*
X151765000Y-92075000D01*
X148590000Y-91440000D02*
X149860000Y-91440000D01*
X156210000Y-91440000D02*
X157480000Y-91440000D01*
X158750000Y-81280000D02*
X160020000Y-81280000D01*
X151765000Y-73025000D02*
X151765000Y-74295000D01*
X151765000Y-67945000D02*
X151765000Y-69215000D01*
X151765000Y-93345000D02*
X151765000Y-94615000D01*
X151765000Y-98425000D02*
X151765000Y-99695000D01*
X153670000Y-81280000D02*
X154940000Y-81280000D01*
X151765000Y-78105000D02*
X151765000Y-79375000D01*
X153670000Y-71120000D02*
X154940000Y-71120000D01*
X158750000Y-71120000D02*
X160020000Y-71120000D01*
X151765000Y-75565000D02*
X151765000Y-76835000D01*
X136525000Y-101600000D02*
X136525000Y-60960000D01*
X151765000Y-80645000D02*
X151765000Y-81915000D01*
X161290000Y-81280000D02*
X162560000Y-81280000D01*
X156210000Y-81280000D02*
X157480000Y-81280000D01*
X151765000Y-62865000D02*
X151765000Y-64135000D01*
X151765000Y-85725000D02*
X151765000Y-86995000D01*
X146050000Y-81280000D02*
X147320000Y-81280000D01*
X140970000Y-81280000D02*
X142240000Y-81280000D01*
X143510000Y-81280000D02*
X144780000Y-81280000D01*
X151765000Y-95885000D02*
X151765000Y-97155000D01*
X140970000Y-71120000D02*
X142240000Y-71120000D01*
X143510000Y-71120000D02*
X144780000Y-71120000D01*
X151765000Y-88265000D02*
X151765000Y-89535000D01*
X106045000Y-107315000D02*
X106045000Y-106045000D01*
X106045000Y-117475000D02*
X106045000Y-116205000D01*
X118110000Y-116840000D02*
X119380000Y-116840000D01*
X161925000Y-129540000D02*
X93345000Y-129540000D01*
X167005000Y-104140000D02*
X167005000Y-127000000D01*
X88265000Y-127000000D02*
X88265000Y-104140000D01*
X88265000Y-104140000D02*
X167005000Y-104140000D01*
X92710000Y-116840000D02*
X93980000Y-116840000D01*
X106045000Y-112395000D02*
X106045000Y-111125000D01*
X106045000Y-125095000D02*
X106045000Y-123825000D01*
X105410000Y-116840000D02*
X106680000Y-116840000D01*
X110490000Y-116840000D02*
X111760000Y-116840000D01*
X95250000Y-116840000D02*
X96520000Y-116840000D01*
X106045000Y-120015000D02*
X106045000Y-118745000D01*
X106045000Y-127635000D02*
X106045000Y-126365000D01*
X106045000Y-114935000D02*
X106045000Y-113665000D01*
X106045000Y-122555000D02*
X106045000Y-121285000D01*
X115570000Y-116840000D02*
X116840000Y-116840000D01*
X106045000Y-109855000D02*
X106045000Y-108585000D01*
X97790000Y-116840000D02*
X99060000Y-116840000D01*
X113030000Y-116840000D02*
X114300000Y-116840000D01*
X102870000Y-116840000D02*
X104140000Y-116840000D01*
X100330000Y-116840000D02*
X101600000Y-116840000D01*
X107950000Y-116840000D02*
X109220000Y-116840000D01*
X153670000Y-91440000D02*
X154940000Y-91440000D01*
X137795000Y-109220000D02*
X135255000Y-109220000D01*
X155575000Y-109220000D02*
X153035000Y-109220000D01*
D14*
X85200000Y-70880000D02*
X85200000Y-72280000D01*
X94570000Y-68900000D02*
X94570000Y-67960000D01*
X110470000Y-89310000D02*
X110470000Y-88370000D01*
X102960000Y-86870000D02*
X102960000Y-88270000D01*
X101970000Y-66450000D02*
X101970000Y-67390000D01*
X92180000Y-79920000D02*
X93120000Y-79920000D01*
X130800000Y-59710000D02*
X130800000Y-61510000D01*
X130800000Y-57460000D02*
X130800000Y-59260000D01*
X108880000Y-78760000D02*
G75*
G03*
X108880000Y-78760000I-730000J0D01*
G01*
X108880000Y-76960000D02*
G75*
G03*
X108880000Y-76960000I-730000J0D01*
G01*
X128530000Y-78610000D02*
G75*
G03*
X128530000Y-78610000I-730000J0D01*
G01*
X116480000Y-76560000D02*
G75*
G03*
X116480000Y-76560000I-730000J0D01*
G01*
X116480000Y-79160000D02*
G75*
G03*
X116480000Y-79160000I-730000J0D01*
G01*
X128530000Y-75690000D02*
G75*
G03*
X128530000Y-75690000I-730000J0D01*
G01*
X128530000Y-77150000D02*
G75*
G03*
X128530000Y-77150000I-730000J0D01*
G01*
X105880000Y-93360000D02*
G75*
G03*
X105880000Y-93360000I-730000J0D01*
G01*
X105880000Y-95360000D02*
G75*
G03*
X105880000Y-95360000I-730000J0D01*
G01*
X110880000Y-94160000D02*
G75*
G03*
X110880000Y-94160000I-730000J0D01*
G01*
X105880000Y-97360000D02*
G75*
G03*
X105880000Y-97360000I-730000J0D01*
G01*
X110880000Y-97360000D02*
G75*
G03*
X110880000Y-97360000I-730000J0D01*
G01*
X105680000Y-75360000D02*
G75*
G03*
X105680000Y-75360000I-730000J0D01*
G01*
X105680000Y-73560000D02*
G75*
G03*
X105680000Y-73560000I-730000J0D01*
G01*
X116850000Y-72970000D02*
X116850000Y-72370000D01*
X116850000Y-73960000D02*
X116850000Y-73360000D01*
X126330000Y-80507000D02*
X119290000Y-80507000D01*
X117510000Y-74687000D02*
X126320000Y-74687000D01*
X102960000Y-89270000D02*
X102960000Y-88670000D01*
X89620000Y-84110000D02*
X89620000Y-83510000D01*
X101970000Y-67800000D02*
X101970000Y-68400000D01*
X111080000Y-68660000D02*
X111080000Y-68060000D01*
X116710000Y-85250000D02*
X116110000Y-85250000D01*
X106220000Y-90710000D02*
X106220000Y-90110000D01*
X95510000Y-76970000D02*
X95510000Y-76370000D01*
X93560000Y-86420000D02*
X94160000Y-86420000D01*
X95930000Y-66650000D02*
X95930000Y-66050000D01*
X95930000Y-67550000D02*
X95930000Y-66950000D01*
X92620000Y-74920000D02*
X93220000Y-74920000D01*
X111670000Y-64262000D02*
X111070000Y-64262000D01*
X113700000Y-64980000D02*
X113700000Y-64380000D01*
X92130000Y-62730000D02*
X91530000Y-62730000D01*
X90750000Y-55190000D02*
X91350000Y-55190000D01*
X101510000Y-62230000D02*
X100910000Y-62230000D01*
X99260000Y-60880000D02*
X99260000Y-61480000D01*
X97470000Y-64120000D02*
X97470000Y-63870000D01*
X97470000Y-64120000D02*
X98110000Y-64120000D01*
X100650000Y-61740000D02*
X100010000Y-61740000D01*
X100650000Y-61740000D02*
X100650000Y-61990000D01*
X97470000Y-61740000D02*
X98110000Y-61740000D01*
X97470000Y-61740000D02*
X97470000Y-61990000D01*
X106820000Y-83240000D02*
X106820000Y-83840000D01*
X100966000Y-82992000D02*
X100966000Y-82392000D01*
X112420000Y-71080000D02*
X112420000Y-70480000D01*
X112420000Y-70120000D02*
X112420000Y-69520000D01*
X110470000Y-69520000D02*
X110470000Y-70120000D01*
X110470000Y-70480000D02*
X110470000Y-71080000D01*
X89620000Y-87720000D02*
X89620000Y-87120000D01*
X89620000Y-86810000D02*
X89620000Y-86210000D01*
X89620000Y-85910000D02*
X89620000Y-85310000D01*
X89620000Y-85010000D02*
X89620000Y-84410000D01*
X89620000Y-83210000D02*
X89620000Y-82610000D01*
X85820000Y-87470000D02*
X87460000Y-87470000D01*
X86960000Y-83370000D02*
X85820000Y-83370000D01*
X112430000Y-85070000D02*
X112430000Y-84470000D01*
X112430000Y-84130000D02*
X112430000Y-83530000D01*
X106780000Y-84250000D02*
X105580000Y-84250000D01*
X105580000Y-87130000D02*
X105580000Y-84250000D01*
X105580000Y-87130000D02*
X108060000Y-87130000D01*
X108060000Y-85630000D02*
X108060000Y-87130000D01*
X101776000Y-85772000D02*
X98216000Y-85772000D01*
X98216000Y-83492000D02*
X101776000Y-83492000D01*
X87610000Y-77160000D02*
X87610000Y-74260000D01*
X85030000Y-74260000D02*
X85030000Y-77900000D01*
X120840000Y-83205000D02*
X123740000Y-83205000D01*
X123740000Y-80625000D02*
X120100000Y-80625000D01*
X120650000Y-70940000D02*
X120650000Y-73840000D01*
X123230000Y-73840000D02*
X123230000Y-70200000D01*
X108140000Y-73960000D02*
X111040000Y-73960000D01*
X111040000Y-71380000D02*
X107400000Y-71380000D01*
X120840000Y-91841000D02*
X123740000Y-91841000D01*
X123740000Y-89261000D02*
X120100000Y-89261000D01*
X98910000Y-81560000D02*
X101810000Y-81560000D01*
X101810000Y-78980000D02*
X98170000Y-78980000D01*
X99885000Y-95778000D02*
X102785000Y-95778000D01*
X102785000Y-93198000D02*
X99145000Y-93198000D01*
X96430000Y-62230000D02*
X95830000Y-62230000D01*
X98990000Y-90710000D02*
X98990000Y-90110000D01*
X100940000Y-90110000D02*
X100940000Y-90710000D01*
X106590000Y-62230000D02*
X105990000Y-62230000D01*
X110640000Y-92280000D02*
X110640000Y-92880000D01*
X99840000Y-92280000D02*
X99840000Y-92880000D01*
X89050000Y-92280000D02*
X89050000Y-92880000D01*
X111670000Y-62230000D02*
X111070000Y-62230000D01*
X112430000Y-86970000D02*
X112430000Y-86370000D01*
X112430000Y-86020000D02*
X112430000Y-85420000D01*
X112430000Y-83180000D02*
X112430000Y-82580000D01*
X109070000Y-85440000D02*
X108470000Y-85440000D01*
X99716000Y-86272000D02*
X99716000Y-86872000D01*
X116750000Y-62230000D02*
X116150000Y-62230000D01*
X88150000Y-65300000D02*
X88150000Y-64700000D01*
X126330000Y-97779000D02*
X119290000Y-97779000D01*
X117510000Y-91959000D02*
X126320000Y-91959000D01*
X126330000Y-89143000D02*
X119290000Y-89143000D01*
X117510000Y-83323000D02*
X126320000Y-83323000D01*
X94180000Y-60880000D02*
X94180000Y-61480000D01*
X84270000Y-75130000D02*
X84870000Y-75130000D01*
X125620000Y-82170000D02*
X125620000Y-81570000D01*
X120490000Y-72970000D02*
X119890000Y-72970000D01*
X110170000Y-74670000D02*
X110170000Y-74070000D01*
X125620000Y-90810000D02*
X125620000Y-90210000D01*
X100940000Y-78270000D02*
X100940000Y-78870000D01*
X102090000Y-95930000D02*
X102090000Y-96530000D01*
X104340000Y-60880000D02*
X104340000Y-61480000D01*
X113720000Y-92280000D02*
X113720000Y-92880000D01*
X102910000Y-92280000D02*
X102910000Y-92880000D01*
X92130000Y-92280000D02*
X92130000Y-92880000D01*
X109420000Y-60880000D02*
X109420000Y-61480000D01*
X125030000Y-97940000D02*
X125030000Y-98540000D01*
X125030000Y-89310000D02*
X125030000Y-89910000D01*
X125020000Y-80670000D02*
X125020000Y-81270000D01*
X99016000Y-82992000D02*
X99016000Y-82392000D01*
X114500000Y-60880000D02*
X114500000Y-61480000D01*
X115310000Y-85920000D02*
X114710000Y-85920000D01*
X114540000Y-74420000D02*
X113940000Y-74420000D01*
X107470000Y-67340000D02*
X107470000Y-67940000D01*
X89300000Y-52940000D02*
X89300000Y-53540000D01*
X89100000Y-60880000D02*
X89100000Y-61480000D01*
X92390000Y-64120000D02*
X92390000Y-63870000D01*
X92390000Y-64120000D02*
X93030000Y-64120000D01*
X95570000Y-61740000D02*
X94930000Y-61740000D01*
X95570000Y-61740000D02*
X95570000Y-61990000D01*
X92390000Y-61740000D02*
X93030000Y-61740000D01*
X92390000Y-61740000D02*
X92390000Y-61990000D01*
X102550000Y-64120000D02*
X102550000Y-63870000D01*
X102550000Y-64120000D02*
X103190000Y-64120000D01*
X105730000Y-61740000D02*
X105090000Y-61740000D01*
X105730000Y-61740000D02*
X105730000Y-61990000D01*
X102550000Y-61740000D02*
X103190000Y-61740000D01*
X102550000Y-61740000D02*
X102550000Y-61990000D01*
X107630000Y-64120000D02*
X107630000Y-63870000D01*
X107630000Y-64120000D02*
X108270000Y-64120000D01*
X110810000Y-61740000D02*
X110170000Y-61740000D01*
X110810000Y-61740000D02*
X110810000Y-61990000D01*
X107630000Y-61740000D02*
X108270000Y-61740000D01*
X107630000Y-61740000D02*
X107630000Y-61990000D01*
X112710000Y-64120000D02*
X112710000Y-63870000D01*
X112710000Y-64120000D02*
X113350000Y-64120000D01*
X115890000Y-61740000D02*
X115250000Y-61740000D01*
X115890000Y-61740000D02*
X115890000Y-61990000D01*
X112710000Y-61740000D02*
X113350000Y-61740000D01*
X112710000Y-61740000D02*
X112710000Y-61990000D01*
X87310000Y-56180000D02*
X87310000Y-55930000D01*
X87310000Y-56180000D02*
X87950000Y-56180000D01*
X90490000Y-53800000D02*
X89850000Y-53800000D01*
X90490000Y-53800000D02*
X90490000Y-54050000D01*
X87310000Y-53800000D02*
X87950000Y-53800000D01*
X87310000Y-53800000D02*
X87310000Y-54050000D01*
X87310000Y-64120000D02*
X87310000Y-63870000D01*
X87310000Y-64120000D02*
X87950000Y-64120000D01*
X90490000Y-61740000D02*
X89850000Y-61740000D01*
X90490000Y-61740000D02*
X90490000Y-61990000D01*
X87310000Y-61740000D02*
X87950000Y-61740000D01*
X87310000Y-61740000D02*
X87310000Y-61990000D01*
D15*
X83830000Y-115887619D02*
X83770476Y-115768571D01*
X83770476Y-115590000D01*
X83830000Y-115411428D01*
X83949047Y-115292380D01*
X84068095Y-115232857D01*
X84306190Y-115173333D01*
X84484761Y-115173333D01*
X84722857Y-115232857D01*
X84841904Y-115292380D01*
X84960952Y-115411428D01*
X85020476Y-115590000D01*
X85020476Y-115709047D01*
X84960952Y-115887619D01*
X84901428Y-115947142D01*
X84484761Y-115947142D01*
X84484761Y-115709047D01*
X85020476Y-116482857D02*
X83770476Y-116482857D01*
X85020476Y-117197142D01*
X83770476Y-117197142D01*
X85020476Y-117792380D02*
X83770476Y-117792380D01*
X83770476Y-118090000D01*
X83830000Y-118268571D01*
X83949047Y-118387619D01*
X84068095Y-118447142D01*
X84306190Y-118506666D01*
X84484761Y-118506666D01*
X84722857Y-118447142D01*
X84841904Y-118387619D01*
X84960952Y-118268571D01*
X85020476Y-118090000D01*
X85020476Y-117792380D01*
X170190000Y-115887619D02*
X170130476Y-115768571D01*
X170130476Y-115590000D01*
X170190000Y-115411428D01*
X170309047Y-115292380D01*
X170428095Y-115232857D01*
X170666190Y-115173333D01*
X170844761Y-115173333D01*
X171082857Y-115232857D01*
X171201904Y-115292380D01*
X171320952Y-115411428D01*
X171380476Y-115590000D01*
X171380476Y-115709047D01*
X171320952Y-115887619D01*
X171261428Y-115947142D01*
X170844761Y-115947142D01*
X170844761Y-115709047D01*
X171380476Y-116482857D02*
X170130476Y-116482857D01*
X171380476Y-117197142D01*
X170130476Y-117197142D01*
X171380476Y-117792380D02*
X170130476Y-117792380D01*
X170130476Y-118090000D01*
X170190000Y-118268571D01*
X170309047Y-118387619D01*
X170428095Y-118447142D01*
X170666190Y-118506666D01*
X170844761Y-118506666D01*
X171082857Y-118447142D01*
X171201904Y-118387619D01*
X171320952Y-118268571D01*
X171380476Y-118090000D01*
X171380476Y-117792380D01*
X170190000Y-70167619D02*
X170130476Y-70048571D01*
X170130476Y-69870000D01*
X170190000Y-69691428D01*
X170309047Y-69572380D01*
X170428095Y-69512857D01*
X170666190Y-69453333D01*
X170844761Y-69453333D01*
X171082857Y-69512857D01*
X171201904Y-69572380D01*
X171320952Y-69691428D01*
X171380476Y-69870000D01*
X171380476Y-69989047D01*
X171320952Y-70167619D01*
X171261428Y-70227142D01*
X170844761Y-70227142D01*
X170844761Y-69989047D01*
X171380476Y-70762857D02*
X170130476Y-70762857D01*
X171380476Y-71477142D01*
X170130476Y-71477142D01*
X171380476Y-72072380D02*
X170130476Y-72072380D01*
X170130476Y-72370000D01*
X170190000Y-72548571D01*
X170309047Y-72667619D01*
X170428095Y-72727142D01*
X170666190Y-72786666D01*
X170844761Y-72786666D01*
X171082857Y-72727142D01*
X171201904Y-72667619D01*
X171320952Y-72548571D01*
X171380476Y-72370000D01*
X171380476Y-72072380D01*
X107592619Y-99899476D02*
X106818809Y-99899476D01*
X107235476Y-100375666D01*
X107056904Y-100375666D01*
X106937857Y-100435190D01*
X106878333Y-100494714D01*
X106818809Y-100613761D01*
X106818809Y-100911380D01*
X106878333Y-101030428D01*
X106937857Y-101089952D01*
X107056904Y-101149476D01*
X107414047Y-101149476D01*
X107533095Y-101089952D01*
X107592619Y-101030428D01*
X106461666Y-99899476D02*
X106045000Y-101149476D01*
X105628333Y-99899476D01*
X105330714Y-99899476D02*
X104556904Y-99899476D01*
X104973571Y-100375666D01*
X104795000Y-100375666D01*
X104675952Y-100435190D01*
X104616428Y-100494714D01*
X104556904Y-100613761D01*
X104556904Y-100911380D01*
X104616428Y-101030428D01*
X104675952Y-101089952D01*
X104795000Y-101149476D01*
X105152142Y-101149476D01*
X105271190Y-101089952D01*
X105330714Y-101030428D01*
X129143095Y-132665476D02*
X129738333Y-132665476D01*
X129797857Y-133260714D01*
X129738333Y-133201190D01*
X129619285Y-133141666D01*
X129321666Y-133141666D01*
X129202619Y-133201190D01*
X129143095Y-133260714D01*
X129083571Y-133379761D01*
X129083571Y-133677380D01*
X129143095Y-133796428D01*
X129202619Y-133855952D01*
X129321666Y-133915476D01*
X129619285Y-133915476D01*
X129738333Y-133855952D01*
X129797857Y-133796428D01*
X128726428Y-132665476D02*
X128309761Y-133915476D01*
X127893095Y-132665476D01*
X152003095Y-56465476D02*
X152598333Y-56465476D01*
X152657857Y-57060714D01*
X152598333Y-57001190D01*
X152479285Y-56941666D01*
X152181666Y-56941666D01*
X152062619Y-57001190D01*
X152003095Y-57060714D01*
X151943571Y-57179761D01*
X151943571Y-57477380D01*
X152003095Y-57596428D01*
X152062619Y-57655952D01*
X152181666Y-57715476D01*
X152479285Y-57715476D01*
X152598333Y-57655952D01*
X152657857Y-57596428D01*
X151586428Y-56465476D02*
X151169761Y-57715476D01*
X150753095Y-56465476D01*
X132090000Y-70167619D02*
X132030476Y-70048571D01*
X132030476Y-69870000D01*
X132090000Y-69691428D01*
X132209047Y-69572380D01*
X132328095Y-69512857D01*
X132566190Y-69453333D01*
X132744761Y-69453333D01*
X132982857Y-69512857D01*
X133101904Y-69572380D01*
X133220952Y-69691428D01*
X133280476Y-69870000D01*
X133280476Y-69989047D01*
X133220952Y-70167619D01*
X133161428Y-70227142D01*
X132744761Y-70227142D01*
X132744761Y-69989047D01*
X133280476Y-70762857D02*
X132030476Y-70762857D01*
X133280476Y-71477142D01*
X132030476Y-71477142D01*
X133280476Y-72072380D02*
X132030476Y-72072380D01*
X132030476Y-72370000D01*
X132090000Y-72548571D01*
X132209047Y-72667619D01*
X132328095Y-72727142D01*
X132566190Y-72786666D01*
X132744761Y-72786666D01*
X132982857Y-72727142D01*
X133101904Y-72667619D01*
X133220952Y-72548571D01*
X133280476Y-72370000D01*
X133280476Y-72072380D01*
D14*
X85714285Y-70295714D02*
X85752380Y-70333809D01*
X85866666Y-70371904D01*
X85942857Y-70371904D01*
X86057142Y-70333809D01*
X86133333Y-70257619D01*
X86171428Y-70181428D01*
X86209523Y-70029047D01*
X86209523Y-69914761D01*
X86171428Y-69762380D01*
X86133333Y-69686190D01*
X86057142Y-69610000D01*
X85942857Y-69571904D01*
X85866666Y-69571904D01*
X85752380Y-69610000D01*
X85714285Y-69648095D01*
X85409523Y-69648095D02*
X85371428Y-69610000D01*
X85295238Y-69571904D01*
X85104761Y-69571904D01*
X85028571Y-69610000D01*
X84990476Y-69648095D01*
X84952380Y-69724285D01*
X84952380Y-69800476D01*
X84990476Y-69914761D01*
X85447619Y-70371904D01*
X84952380Y-70371904D01*
X84266666Y-69571904D02*
X84419047Y-69571904D01*
X84495238Y-69610000D01*
X84533333Y-69648095D01*
X84609523Y-69762380D01*
X84647619Y-69914761D01*
X84647619Y-70219523D01*
X84609523Y-70295714D01*
X84571428Y-70333809D01*
X84495238Y-70371904D01*
X84342857Y-70371904D01*
X84266666Y-70333809D01*
X84228571Y-70295714D01*
X84190476Y-70219523D01*
X84190476Y-70029047D01*
X84228571Y-69952857D01*
X84266666Y-69914761D01*
X84342857Y-69876666D01*
X84495238Y-69876666D01*
X84571428Y-69914761D01*
X84609523Y-69952857D01*
X84647619Y-70029047D01*
X95084285Y-70045714D02*
X95122380Y-70083809D01*
X95236666Y-70121904D01*
X95312857Y-70121904D01*
X95427142Y-70083809D01*
X95503333Y-70007619D01*
X95541428Y-69931428D01*
X95579523Y-69779047D01*
X95579523Y-69664761D01*
X95541428Y-69512380D01*
X95503333Y-69436190D01*
X95427142Y-69360000D01*
X95312857Y-69321904D01*
X95236666Y-69321904D01*
X95122380Y-69360000D01*
X95084285Y-69398095D01*
X94322380Y-70121904D02*
X94779523Y-70121904D01*
X94550952Y-70121904D02*
X94550952Y-69321904D01*
X94627142Y-69436190D01*
X94703333Y-69512380D01*
X94779523Y-69550476D01*
X94055714Y-69321904D02*
X93522380Y-69321904D01*
X93865238Y-70121904D01*
X110603333Y-90445714D02*
X110641428Y-90483809D01*
X110755714Y-90521904D01*
X110831904Y-90521904D01*
X110946190Y-90483809D01*
X111022380Y-90407619D01*
X111060476Y-90331428D01*
X111098571Y-90179047D01*
X111098571Y-90064761D01*
X111060476Y-89912380D01*
X111022380Y-89836190D01*
X110946190Y-89760000D01*
X110831904Y-89721904D01*
X110755714Y-89721904D01*
X110641428Y-89760000D01*
X110603333Y-89798095D01*
X109917619Y-89988571D02*
X109917619Y-90521904D01*
X110108095Y-89683809D02*
X110298571Y-90255238D01*
X109803333Y-90255238D01*
X100664285Y-88045714D02*
X100702380Y-88083809D01*
X100816666Y-88121904D01*
X100892857Y-88121904D01*
X101007142Y-88083809D01*
X101083333Y-88007619D01*
X101121428Y-87931428D01*
X101159523Y-87779047D01*
X101159523Y-87664761D01*
X101121428Y-87512380D01*
X101083333Y-87436190D01*
X101007142Y-87360000D01*
X100892857Y-87321904D01*
X100816666Y-87321904D01*
X100702380Y-87360000D01*
X100664285Y-87398095D01*
X99902380Y-88121904D02*
X100359523Y-88121904D01*
X100130952Y-88121904D02*
X100130952Y-87321904D01*
X100207142Y-87436190D01*
X100283333Y-87512380D01*
X100359523Y-87550476D01*
X99178571Y-87321904D02*
X99559523Y-87321904D01*
X99597619Y-87702857D01*
X99559523Y-87664761D01*
X99483333Y-87626666D01*
X99292857Y-87626666D01*
X99216666Y-87664761D01*
X99178571Y-87702857D01*
X99140476Y-87779047D01*
X99140476Y-87969523D01*
X99178571Y-88045714D01*
X99216666Y-88083809D01*
X99292857Y-88121904D01*
X99483333Y-88121904D01*
X99559523Y-88083809D01*
X99597619Y-88045714D01*
X105064285Y-67245714D02*
X105102380Y-67283809D01*
X105216666Y-67321904D01*
X105292857Y-67321904D01*
X105407142Y-67283809D01*
X105483333Y-67207619D01*
X105521428Y-67131428D01*
X105559523Y-66979047D01*
X105559523Y-66864761D01*
X105521428Y-66712380D01*
X105483333Y-66636190D01*
X105407142Y-66560000D01*
X105292857Y-66521904D01*
X105216666Y-66521904D01*
X105102380Y-66560000D01*
X105064285Y-66598095D01*
X104759523Y-66598095D02*
X104721428Y-66560000D01*
X104645238Y-66521904D01*
X104454761Y-66521904D01*
X104378571Y-66560000D01*
X104340476Y-66598095D01*
X104302380Y-66674285D01*
X104302380Y-66750476D01*
X104340476Y-66864761D01*
X104797619Y-67321904D01*
X104302380Y-67321904D01*
X103540476Y-67321904D02*
X103997619Y-67321904D01*
X103769047Y-67321904D02*
X103769047Y-66521904D01*
X103845238Y-66636190D01*
X103921428Y-66712380D01*
X103997619Y-66750476D01*
X91935714Y-79405714D02*
X91973809Y-79367619D01*
X92011904Y-79253333D01*
X92011904Y-79177142D01*
X91973809Y-79062857D01*
X91897619Y-78986666D01*
X91821428Y-78948571D01*
X91669047Y-78910476D01*
X91554761Y-78910476D01*
X91402380Y-78948571D01*
X91326190Y-78986666D01*
X91250000Y-79062857D01*
X91211904Y-79177142D01*
X91211904Y-79253333D01*
X91250000Y-79367619D01*
X91288095Y-79405714D01*
X92011904Y-80167619D02*
X92011904Y-79710476D01*
X92011904Y-79939047D02*
X91211904Y-79939047D01*
X91326190Y-79862857D01*
X91402380Y-79786666D01*
X91440476Y-79710476D01*
X92011904Y-80548571D02*
X92011904Y-80700952D01*
X91973809Y-80777142D01*
X91935714Y-80815238D01*
X91821428Y-80891428D01*
X91669047Y-80929523D01*
X91364285Y-80929523D01*
X91288095Y-80891428D01*
X91250000Y-80853333D01*
X91211904Y-80777142D01*
X91211904Y-80624761D01*
X91250000Y-80548571D01*
X91288095Y-80510476D01*
X91364285Y-80472380D01*
X91554761Y-80472380D01*
X91630952Y-80510476D01*
X91669047Y-80548571D01*
X91707142Y-80624761D01*
X91707142Y-80777142D01*
X91669047Y-80853333D01*
X91630952Y-80891428D01*
X91554761Y-80929523D01*
X131314285Y-63121904D02*
X131580952Y-62740952D01*
X131771428Y-63121904D02*
X131771428Y-62321904D01*
X131466666Y-62321904D01*
X131390476Y-62360000D01*
X131352380Y-62398095D01*
X131314285Y-62474285D01*
X131314285Y-62588571D01*
X131352380Y-62664761D01*
X131390476Y-62702857D01*
X131466666Y-62740952D01*
X131771428Y-62740952D01*
X130857142Y-62664761D02*
X130933333Y-62626666D01*
X130971428Y-62588571D01*
X131009523Y-62512380D01*
X131009523Y-62474285D01*
X130971428Y-62398095D01*
X130933333Y-62360000D01*
X130857142Y-62321904D01*
X130704761Y-62321904D01*
X130628571Y-62360000D01*
X130590476Y-62398095D01*
X130552380Y-62474285D01*
X130552380Y-62512380D01*
X130590476Y-62588571D01*
X130628571Y-62626666D01*
X130704761Y-62664761D01*
X130857142Y-62664761D01*
X130933333Y-62702857D01*
X130971428Y-62740952D01*
X131009523Y-62817142D01*
X131009523Y-62969523D01*
X130971428Y-63045714D01*
X130933333Y-63083809D01*
X130857142Y-63121904D01*
X130704761Y-63121904D01*
X130628571Y-63083809D01*
X130590476Y-63045714D01*
X130552380Y-62969523D01*
X130552380Y-62817142D01*
X130590476Y-62740952D01*
X130628571Y-62702857D01*
X130704761Y-62664761D01*
X130285714Y-62321904D02*
X129752380Y-62321904D01*
X130095238Y-63121904D01*
X131314285Y-56721904D02*
X131580952Y-56340952D01*
X131771428Y-56721904D02*
X131771428Y-55921904D01*
X131466666Y-55921904D01*
X131390476Y-55960000D01*
X131352380Y-55998095D01*
X131314285Y-56074285D01*
X131314285Y-56188571D01*
X131352380Y-56264761D01*
X131390476Y-56302857D01*
X131466666Y-56340952D01*
X131771428Y-56340952D01*
X130857142Y-56264761D02*
X130933333Y-56226666D01*
X130971428Y-56188571D01*
X131009523Y-56112380D01*
X131009523Y-56074285D01*
X130971428Y-55998095D01*
X130933333Y-55960000D01*
X130857142Y-55921904D01*
X130704761Y-55921904D01*
X130628571Y-55960000D01*
X130590476Y-55998095D01*
X130552380Y-56074285D01*
X130552380Y-56112380D01*
X130590476Y-56188571D01*
X130628571Y-56226666D01*
X130704761Y-56264761D01*
X130857142Y-56264761D01*
X130933333Y-56302857D01*
X130971428Y-56340952D01*
X131009523Y-56417142D01*
X131009523Y-56569523D01*
X130971428Y-56645714D01*
X130933333Y-56683809D01*
X130857142Y-56721904D01*
X130704761Y-56721904D01*
X130628571Y-56683809D01*
X130590476Y-56645714D01*
X130552380Y-56569523D01*
X130552380Y-56417142D01*
X130590476Y-56340952D01*
X130628571Y-56302857D01*
X130704761Y-56264761D01*
X129866666Y-55921904D02*
X130019047Y-55921904D01*
X130095238Y-55960000D01*
X130133333Y-55998095D01*
X130209523Y-56112380D01*
X130247619Y-56264761D01*
X130247619Y-56569523D01*
X130209523Y-56645714D01*
X130171428Y-56683809D01*
X130095238Y-56721904D01*
X129942857Y-56721904D01*
X129866666Y-56683809D01*
X129828571Y-56645714D01*
X129790476Y-56569523D01*
X129790476Y-56379047D01*
X129828571Y-56302857D01*
X129866666Y-56264761D01*
X129942857Y-56226666D01*
X130095238Y-56226666D01*
X130171428Y-56264761D01*
X130209523Y-56302857D01*
X130247619Y-56379047D01*
X107140476Y-78321904D02*
X106683333Y-78321904D01*
X106911904Y-79121904D02*
X106911904Y-78321904D01*
X106416666Y-79121904D02*
X106416666Y-78321904D01*
X106111904Y-78321904D01*
X106035714Y-78360000D01*
X105997619Y-78398095D01*
X105959523Y-78474285D01*
X105959523Y-78588571D01*
X105997619Y-78664761D01*
X106035714Y-78702857D01*
X106111904Y-78740952D01*
X106416666Y-78740952D01*
X105197619Y-79121904D02*
X105654761Y-79121904D01*
X105426190Y-79121904D02*
X105426190Y-78321904D01*
X105502380Y-78436190D01*
X105578571Y-78512380D01*
X105654761Y-78550476D01*
X104511904Y-78321904D02*
X104664285Y-78321904D01*
X104740476Y-78360000D01*
X104778571Y-78398095D01*
X104854761Y-78512380D01*
X104892857Y-78664761D01*
X104892857Y-78969523D01*
X104854761Y-79045714D01*
X104816666Y-79083809D01*
X104740476Y-79121904D01*
X104588095Y-79121904D01*
X104511904Y-79083809D01*
X104473809Y-79045714D01*
X104435714Y-78969523D01*
X104435714Y-78779047D01*
X104473809Y-78702857D01*
X104511904Y-78664761D01*
X104588095Y-78626666D01*
X104740476Y-78626666D01*
X104816666Y-78664761D01*
X104854761Y-78702857D01*
X104892857Y-78779047D01*
X107140476Y-76521904D02*
X106683333Y-76521904D01*
X106911904Y-77321904D02*
X106911904Y-76521904D01*
X106416666Y-77321904D02*
X106416666Y-76521904D01*
X106111904Y-76521904D01*
X106035714Y-76560000D01*
X105997619Y-76598095D01*
X105959523Y-76674285D01*
X105959523Y-76788571D01*
X105997619Y-76864761D01*
X106035714Y-76902857D01*
X106111904Y-76940952D01*
X106416666Y-76940952D01*
X105197619Y-77321904D02*
X105654761Y-77321904D01*
X105426190Y-77321904D02*
X105426190Y-76521904D01*
X105502380Y-76636190D01*
X105578571Y-76712380D01*
X105654761Y-76750476D01*
X104473809Y-76521904D02*
X104854761Y-76521904D01*
X104892857Y-76902857D01*
X104854761Y-76864761D01*
X104778571Y-76826666D01*
X104588095Y-76826666D01*
X104511904Y-76864761D01*
X104473809Y-76902857D01*
X104435714Y-76979047D01*
X104435714Y-77169523D01*
X104473809Y-77245714D01*
X104511904Y-77283809D01*
X104588095Y-77321904D01*
X104778571Y-77321904D01*
X104854761Y-77283809D01*
X104892857Y-77245714D01*
X131560476Y-78121904D02*
X131103333Y-78121904D01*
X131331904Y-78921904D02*
X131331904Y-78121904D01*
X130836666Y-78921904D02*
X130836666Y-78121904D01*
X130531904Y-78121904D01*
X130455714Y-78160000D01*
X130417619Y-78198095D01*
X130379523Y-78274285D01*
X130379523Y-78388571D01*
X130417619Y-78464761D01*
X130455714Y-78502857D01*
X130531904Y-78540952D01*
X130836666Y-78540952D01*
X129617619Y-78921904D02*
X130074761Y-78921904D01*
X129846190Y-78921904D02*
X129846190Y-78121904D01*
X129922380Y-78236190D01*
X129998571Y-78312380D01*
X130074761Y-78350476D01*
X129312857Y-78198095D02*
X129274761Y-78160000D01*
X129198571Y-78121904D01*
X129008095Y-78121904D01*
X128931904Y-78160000D01*
X128893809Y-78198095D01*
X128855714Y-78274285D01*
X128855714Y-78350476D01*
X128893809Y-78464761D01*
X129350952Y-78921904D01*
X128855714Y-78921904D01*
X114740476Y-76121904D02*
X114283333Y-76121904D01*
X114511904Y-76921904D02*
X114511904Y-76121904D01*
X114016666Y-76921904D02*
X114016666Y-76121904D01*
X113711904Y-76121904D01*
X113635714Y-76160000D01*
X113597619Y-76198095D01*
X113559523Y-76274285D01*
X113559523Y-76388571D01*
X113597619Y-76464761D01*
X113635714Y-76502857D01*
X113711904Y-76540952D01*
X114016666Y-76540952D01*
X112797619Y-76921904D02*
X113254761Y-76921904D01*
X113026190Y-76921904D02*
X113026190Y-76121904D01*
X113102380Y-76236190D01*
X113178571Y-76312380D01*
X113254761Y-76350476D01*
X112035714Y-76921904D02*
X112492857Y-76921904D01*
X112264285Y-76921904D02*
X112264285Y-76121904D01*
X112340476Y-76236190D01*
X112416666Y-76312380D01*
X112492857Y-76350476D01*
X114740476Y-78721904D02*
X114283333Y-78721904D01*
X114511904Y-79521904D02*
X114511904Y-78721904D01*
X114016666Y-79521904D02*
X114016666Y-78721904D01*
X113711904Y-78721904D01*
X113635714Y-78760000D01*
X113597619Y-78798095D01*
X113559523Y-78874285D01*
X113559523Y-78988571D01*
X113597619Y-79064761D01*
X113635714Y-79102857D01*
X113711904Y-79140952D01*
X114016666Y-79140952D01*
X112797619Y-79521904D02*
X113254761Y-79521904D01*
X113026190Y-79521904D02*
X113026190Y-78721904D01*
X113102380Y-78836190D01*
X113178571Y-78912380D01*
X113254761Y-78950476D01*
X112302380Y-78721904D02*
X112226190Y-78721904D01*
X112150000Y-78760000D01*
X112111904Y-78798095D01*
X112073809Y-78874285D01*
X112035714Y-79026666D01*
X112035714Y-79217142D01*
X112073809Y-79369523D01*
X112111904Y-79445714D01*
X112150000Y-79483809D01*
X112226190Y-79521904D01*
X112302380Y-79521904D01*
X112378571Y-79483809D01*
X112416666Y-79445714D01*
X112454761Y-79369523D01*
X112492857Y-79217142D01*
X112492857Y-79026666D01*
X112454761Y-78874285D01*
X112416666Y-78798095D01*
X112378571Y-78760000D01*
X112302380Y-78721904D01*
X131179523Y-75321904D02*
X130722380Y-75321904D01*
X130950952Y-76121904D02*
X130950952Y-75321904D01*
X130455714Y-76121904D02*
X130455714Y-75321904D01*
X130150952Y-75321904D01*
X130074761Y-75360000D01*
X130036666Y-75398095D01*
X129998571Y-75474285D01*
X129998571Y-75588571D01*
X130036666Y-75664761D01*
X130074761Y-75702857D01*
X130150952Y-75740952D01*
X130455714Y-75740952D01*
X129617619Y-76121904D02*
X129465238Y-76121904D01*
X129389047Y-76083809D01*
X129350952Y-76045714D01*
X129274761Y-75931428D01*
X129236666Y-75779047D01*
X129236666Y-75474285D01*
X129274761Y-75398095D01*
X129312857Y-75360000D01*
X129389047Y-75321904D01*
X129541428Y-75321904D01*
X129617619Y-75360000D01*
X129655714Y-75398095D01*
X129693809Y-75474285D01*
X129693809Y-75664761D01*
X129655714Y-75740952D01*
X129617619Y-75779047D01*
X129541428Y-75817142D01*
X129389047Y-75817142D01*
X129312857Y-75779047D01*
X129274761Y-75740952D01*
X129236666Y-75664761D01*
X130779523Y-76721904D02*
X130322380Y-76721904D01*
X130550952Y-77521904D02*
X130550952Y-76721904D01*
X130055714Y-77521904D02*
X130055714Y-76721904D01*
X129750952Y-76721904D01*
X129674761Y-76760000D01*
X129636666Y-76798095D01*
X129598571Y-76874285D01*
X129598571Y-76988571D01*
X129636666Y-77064761D01*
X129674761Y-77102857D01*
X129750952Y-77140952D01*
X130055714Y-77140952D01*
X129141428Y-77064761D02*
X129217619Y-77026666D01*
X129255714Y-76988571D01*
X129293809Y-76912380D01*
X129293809Y-76874285D01*
X129255714Y-76798095D01*
X129217619Y-76760000D01*
X129141428Y-76721904D01*
X128989047Y-76721904D01*
X128912857Y-76760000D01*
X128874761Y-76798095D01*
X128836666Y-76874285D01*
X128836666Y-76912380D01*
X128874761Y-76988571D01*
X128912857Y-77026666D01*
X128989047Y-77064761D01*
X129141428Y-77064761D01*
X129217619Y-77102857D01*
X129255714Y-77140952D01*
X129293809Y-77217142D01*
X129293809Y-77369523D01*
X129255714Y-77445714D01*
X129217619Y-77483809D01*
X129141428Y-77521904D01*
X128989047Y-77521904D01*
X128912857Y-77483809D01*
X128874761Y-77445714D01*
X128836666Y-77369523D01*
X128836666Y-77217142D01*
X128874761Y-77140952D01*
X128912857Y-77102857D01*
X128989047Y-77064761D01*
X108159523Y-92921904D02*
X107702380Y-92921904D01*
X107930952Y-93721904D02*
X107930952Y-92921904D01*
X107435714Y-93721904D02*
X107435714Y-92921904D01*
X107130952Y-92921904D01*
X107054761Y-92960000D01*
X107016666Y-92998095D01*
X106978571Y-93074285D01*
X106978571Y-93188571D01*
X107016666Y-93264761D01*
X107054761Y-93302857D01*
X107130952Y-93340952D01*
X107435714Y-93340952D01*
X106711904Y-92921904D02*
X106178571Y-92921904D01*
X106521428Y-93721904D01*
X108159523Y-94921904D02*
X107702380Y-94921904D01*
X107930952Y-95721904D02*
X107930952Y-94921904D01*
X107435714Y-95721904D02*
X107435714Y-94921904D01*
X107130952Y-94921904D01*
X107054761Y-94960000D01*
X107016666Y-94998095D01*
X106978571Y-95074285D01*
X106978571Y-95188571D01*
X107016666Y-95264761D01*
X107054761Y-95302857D01*
X107130952Y-95340952D01*
X107435714Y-95340952D01*
X106292857Y-94921904D02*
X106445238Y-94921904D01*
X106521428Y-94960000D01*
X106559523Y-94998095D01*
X106635714Y-95112380D01*
X106673809Y-95264761D01*
X106673809Y-95569523D01*
X106635714Y-95645714D01*
X106597619Y-95683809D01*
X106521428Y-95721904D01*
X106369047Y-95721904D01*
X106292857Y-95683809D01*
X106254761Y-95645714D01*
X106216666Y-95569523D01*
X106216666Y-95379047D01*
X106254761Y-95302857D01*
X106292857Y-95264761D01*
X106369047Y-95226666D01*
X106521428Y-95226666D01*
X106597619Y-95264761D01*
X106635714Y-95302857D01*
X106673809Y-95379047D01*
X113159523Y-93721904D02*
X112702380Y-93721904D01*
X112930952Y-94521904D02*
X112930952Y-93721904D01*
X112435714Y-94521904D02*
X112435714Y-93721904D01*
X112130952Y-93721904D01*
X112054761Y-93760000D01*
X112016666Y-93798095D01*
X111978571Y-93874285D01*
X111978571Y-93988571D01*
X112016666Y-94064761D01*
X112054761Y-94102857D01*
X112130952Y-94140952D01*
X112435714Y-94140952D01*
X111254761Y-93721904D02*
X111635714Y-93721904D01*
X111673809Y-94102857D01*
X111635714Y-94064761D01*
X111559523Y-94026666D01*
X111369047Y-94026666D01*
X111292857Y-94064761D01*
X111254761Y-94102857D01*
X111216666Y-94179047D01*
X111216666Y-94369523D01*
X111254761Y-94445714D01*
X111292857Y-94483809D01*
X111369047Y-94521904D01*
X111559523Y-94521904D01*
X111635714Y-94483809D01*
X111673809Y-94445714D01*
X108159523Y-96921904D02*
X107702380Y-96921904D01*
X107930952Y-97721904D02*
X107930952Y-96921904D01*
X107435714Y-97721904D02*
X107435714Y-96921904D01*
X107130952Y-96921904D01*
X107054761Y-96960000D01*
X107016666Y-96998095D01*
X106978571Y-97074285D01*
X106978571Y-97188571D01*
X107016666Y-97264761D01*
X107054761Y-97302857D01*
X107130952Y-97340952D01*
X107435714Y-97340952D01*
X106292857Y-97188571D02*
X106292857Y-97721904D01*
X106483333Y-96883809D02*
X106673809Y-97455238D01*
X106178571Y-97455238D01*
X113159523Y-96921904D02*
X112702380Y-96921904D01*
X112930952Y-97721904D02*
X112930952Y-96921904D01*
X112435714Y-97721904D02*
X112435714Y-96921904D01*
X112130952Y-96921904D01*
X112054761Y-96960000D01*
X112016666Y-96998095D01*
X111978571Y-97074285D01*
X111978571Y-97188571D01*
X112016666Y-97264761D01*
X112054761Y-97302857D01*
X112130952Y-97340952D01*
X112435714Y-97340952D01*
X111711904Y-96921904D02*
X111216666Y-96921904D01*
X111483333Y-97226666D01*
X111369047Y-97226666D01*
X111292857Y-97264761D01*
X111254761Y-97302857D01*
X111216666Y-97379047D01*
X111216666Y-97569523D01*
X111254761Y-97645714D01*
X111292857Y-97683809D01*
X111369047Y-97721904D01*
X111597619Y-97721904D01*
X111673809Y-97683809D01*
X111711904Y-97645714D01*
X103759523Y-74921904D02*
X103302380Y-74921904D01*
X103530952Y-75721904D02*
X103530952Y-74921904D01*
X103035714Y-75721904D02*
X103035714Y-74921904D01*
X102730952Y-74921904D01*
X102654761Y-74960000D01*
X102616666Y-74998095D01*
X102578571Y-75074285D01*
X102578571Y-75188571D01*
X102616666Y-75264761D01*
X102654761Y-75302857D01*
X102730952Y-75340952D01*
X103035714Y-75340952D01*
X102273809Y-74998095D02*
X102235714Y-74960000D01*
X102159523Y-74921904D01*
X101969047Y-74921904D01*
X101892857Y-74960000D01*
X101854761Y-74998095D01*
X101816666Y-75074285D01*
X101816666Y-75150476D01*
X101854761Y-75264761D01*
X102311904Y-75721904D01*
X101816666Y-75721904D01*
X103759523Y-73121904D02*
X103302380Y-73121904D01*
X103530952Y-73921904D02*
X103530952Y-73121904D01*
X103035714Y-73921904D02*
X103035714Y-73121904D01*
X102730952Y-73121904D01*
X102654761Y-73160000D01*
X102616666Y-73198095D01*
X102578571Y-73274285D01*
X102578571Y-73388571D01*
X102616666Y-73464761D01*
X102654761Y-73502857D01*
X102730952Y-73540952D01*
X103035714Y-73540952D01*
X101816666Y-73921904D02*
X102273809Y-73921904D01*
X102045238Y-73921904D02*
X102045238Y-73121904D01*
X102121428Y-73236190D01*
X102197619Y-73312380D01*
X102273809Y-73350476D01*
X116983333Y-71921904D02*
X117250000Y-71540952D01*
X117440476Y-71921904D02*
X117440476Y-71121904D01*
X117135714Y-71121904D01*
X117059523Y-71160000D01*
X117021428Y-71198095D01*
X116983333Y-71274285D01*
X116983333Y-71388571D01*
X117021428Y-71464761D01*
X117059523Y-71502857D01*
X117135714Y-71540952D01*
X117440476Y-71540952D01*
X116602380Y-71921904D02*
X116450000Y-71921904D01*
X116373809Y-71883809D01*
X116335714Y-71845714D01*
X116259523Y-71731428D01*
X116221428Y-71579047D01*
X116221428Y-71274285D01*
X116259523Y-71198095D01*
X116297619Y-71160000D01*
X116373809Y-71121904D01*
X116526190Y-71121904D01*
X116602380Y-71160000D01*
X116640476Y-71198095D01*
X116678571Y-71274285D01*
X116678571Y-71464761D01*
X116640476Y-71540952D01*
X116602380Y-71579047D01*
X116526190Y-71617142D01*
X116373809Y-71617142D01*
X116297619Y-71579047D01*
X116259523Y-71540952D01*
X116221428Y-71464761D01*
X118883333Y-74121904D02*
X119150000Y-73740952D01*
X119340476Y-74121904D02*
X119340476Y-73321904D01*
X119035714Y-73321904D01*
X118959523Y-73360000D01*
X118921428Y-73398095D01*
X118883333Y-73474285D01*
X118883333Y-73588571D01*
X118921428Y-73664761D01*
X118959523Y-73702857D01*
X119035714Y-73740952D01*
X119340476Y-73740952D01*
X118426190Y-73664761D02*
X118502380Y-73626666D01*
X118540476Y-73588571D01*
X118578571Y-73512380D01*
X118578571Y-73474285D01*
X118540476Y-73398095D01*
X118502380Y-73360000D01*
X118426190Y-73321904D01*
X118273809Y-73321904D01*
X118197619Y-73360000D01*
X118159523Y-73398095D01*
X118121428Y-73474285D01*
X118121428Y-73512380D01*
X118159523Y-73588571D01*
X118197619Y-73626666D01*
X118273809Y-73664761D01*
X118426190Y-73664761D01*
X118502380Y-73702857D01*
X118540476Y-73740952D01*
X118578571Y-73817142D01*
X118578571Y-73969523D01*
X118540476Y-74045714D01*
X118502380Y-74083809D01*
X118426190Y-74121904D01*
X118273809Y-74121904D01*
X118197619Y-74083809D01*
X118159523Y-74045714D01*
X118121428Y-73969523D01*
X118121428Y-73817142D01*
X118159523Y-73740952D01*
X118197619Y-73702857D01*
X118273809Y-73664761D01*
X118997619Y-81721904D02*
X118997619Y-80921904D01*
X118730952Y-81493333D01*
X118464285Y-80921904D01*
X118464285Y-81721904D01*
X117740476Y-81188571D02*
X117740476Y-81721904D01*
X117930952Y-80883809D02*
X118121428Y-81455238D01*
X117626190Y-81455238D01*
X101064285Y-89245714D02*
X101102380Y-89283809D01*
X101216666Y-89321904D01*
X101292857Y-89321904D01*
X101407142Y-89283809D01*
X101483333Y-89207619D01*
X101521428Y-89131428D01*
X101559523Y-88979047D01*
X101559523Y-88864761D01*
X101521428Y-88712380D01*
X101483333Y-88636190D01*
X101407142Y-88560000D01*
X101292857Y-88521904D01*
X101216666Y-88521904D01*
X101102380Y-88560000D01*
X101064285Y-88598095D01*
X100302380Y-89321904D02*
X100759523Y-89321904D01*
X100530952Y-89321904D02*
X100530952Y-88521904D01*
X100607142Y-88636190D01*
X100683333Y-88712380D01*
X100759523Y-88750476D01*
X100035714Y-88521904D02*
X99540476Y-88521904D01*
X99807142Y-88826666D01*
X99692857Y-88826666D01*
X99616666Y-88864761D01*
X99578571Y-88902857D01*
X99540476Y-88979047D01*
X99540476Y-89169523D01*
X99578571Y-89245714D01*
X99616666Y-89283809D01*
X99692857Y-89321904D01*
X99921428Y-89321904D01*
X99997619Y-89283809D01*
X100035714Y-89245714D01*
X92364285Y-83721904D02*
X92630952Y-83340952D01*
X92821428Y-83721904D02*
X92821428Y-82921904D01*
X92516666Y-82921904D01*
X92440476Y-82960000D01*
X92402380Y-82998095D01*
X92364285Y-83074285D01*
X92364285Y-83188571D01*
X92402380Y-83264761D01*
X92440476Y-83302857D01*
X92516666Y-83340952D01*
X92821428Y-83340952D01*
X91678571Y-83188571D02*
X91678571Y-83721904D01*
X91869047Y-82883809D02*
X92059523Y-83455238D01*
X91564285Y-83455238D01*
X90916666Y-83188571D02*
X90916666Y-83721904D01*
X91107142Y-82883809D02*
X91297619Y-83455238D01*
X90802380Y-83455238D01*
X104664285Y-68445714D02*
X104702380Y-68483809D01*
X104816666Y-68521904D01*
X104892857Y-68521904D01*
X105007142Y-68483809D01*
X105083333Y-68407619D01*
X105121428Y-68331428D01*
X105159523Y-68179047D01*
X105159523Y-68064761D01*
X105121428Y-67912380D01*
X105083333Y-67836190D01*
X105007142Y-67760000D01*
X104892857Y-67721904D01*
X104816666Y-67721904D01*
X104702380Y-67760000D01*
X104664285Y-67798095D01*
X104359523Y-67798095D02*
X104321428Y-67760000D01*
X104245238Y-67721904D01*
X104054761Y-67721904D01*
X103978571Y-67760000D01*
X103940476Y-67798095D01*
X103902380Y-67874285D01*
X103902380Y-67950476D01*
X103940476Y-68064761D01*
X104397619Y-68521904D01*
X103902380Y-68521904D01*
X103407142Y-67721904D02*
X103330952Y-67721904D01*
X103254761Y-67760000D01*
X103216666Y-67798095D01*
X103178571Y-67874285D01*
X103140476Y-68026666D01*
X103140476Y-68217142D01*
X103178571Y-68369523D01*
X103216666Y-68445714D01*
X103254761Y-68483809D01*
X103330952Y-68521904D01*
X103407142Y-68521904D01*
X103483333Y-68483809D01*
X103521428Y-68445714D01*
X103559523Y-68369523D01*
X103597619Y-68217142D01*
X103597619Y-68026666D01*
X103559523Y-67874285D01*
X103521428Y-67798095D01*
X103483333Y-67760000D01*
X103407142Y-67721904D01*
X111594285Y-67721904D02*
X111860952Y-67340952D01*
X112051428Y-67721904D02*
X112051428Y-66921904D01*
X111746666Y-66921904D01*
X111670476Y-66960000D01*
X111632380Y-66998095D01*
X111594285Y-67074285D01*
X111594285Y-67188571D01*
X111632380Y-67264761D01*
X111670476Y-67302857D01*
X111746666Y-67340952D01*
X112051428Y-67340952D01*
X110832380Y-67721904D02*
X111289523Y-67721904D01*
X111060952Y-67721904D02*
X111060952Y-66921904D01*
X111137142Y-67036190D01*
X111213333Y-67112380D01*
X111289523Y-67150476D01*
X110565714Y-66921904D02*
X110070476Y-66921904D01*
X110337142Y-67226666D01*
X110222857Y-67226666D01*
X110146666Y-67264761D01*
X110108571Y-67302857D01*
X110070476Y-67379047D01*
X110070476Y-67569523D01*
X110108571Y-67645714D01*
X110146666Y-67683809D01*
X110222857Y-67721904D01*
X110451428Y-67721904D01*
X110527619Y-67683809D01*
X110565714Y-67645714D01*
X116711904Y-87045714D02*
X116330952Y-86779047D01*
X116711904Y-86588571D02*
X115911904Y-86588571D01*
X115911904Y-86893333D01*
X115950000Y-86969523D01*
X115988095Y-87007619D01*
X116064285Y-87045714D01*
X116178571Y-87045714D01*
X116254761Y-87007619D01*
X116292857Y-86969523D01*
X116330952Y-86893333D01*
X116330952Y-86588571D01*
X116711904Y-87807619D02*
X116711904Y-87350476D01*
X116711904Y-87579047D02*
X115911904Y-87579047D01*
X116026190Y-87502857D01*
X116102380Y-87426666D01*
X116140476Y-87350476D01*
X115988095Y-88112380D02*
X115950000Y-88150476D01*
X115911904Y-88226666D01*
X115911904Y-88417142D01*
X115950000Y-88493333D01*
X115988095Y-88531428D01*
X116064285Y-88569523D01*
X116140476Y-88569523D01*
X116254761Y-88531428D01*
X116711904Y-88074285D01*
X116711904Y-88569523D01*
X108283333Y-90821904D02*
X108550000Y-90440952D01*
X108740476Y-90821904D02*
X108740476Y-90021904D01*
X108435714Y-90021904D01*
X108359523Y-90060000D01*
X108321428Y-90098095D01*
X108283333Y-90174285D01*
X108283333Y-90288571D01*
X108321428Y-90364761D01*
X108359523Y-90402857D01*
X108435714Y-90440952D01*
X108740476Y-90440952D01*
X108016666Y-90021904D02*
X107483333Y-90021904D01*
X107826190Y-90821904D01*
X95643333Y-75921904D02*
X95910000Y-75540952D01*
X96100476Y-75921904D02*
X96100476Y-75121904D01*
X95795714Y-75121904D01*
X95719523Y-75160000D01*
X95681428Y-75198095D01*
X95643333Y-75274285D01*
X95643333Y-75388571D01*
X95681428Y-75464761D01*
X95719523Y-75502857D01*
X95795714Y-75540952D01*
X96100476Y-75540952D01*
X94957619Y-75121904D02*
X95110000Y-75121904D01*
X95186190Y-75160000D01*
X95224285Y-75198095D01*
X95300476Y-75312380D01*
X95338571Y-75464761D01*
X95338571Y-75769523D01*
X95300476Y-75845714D01*
X95262380Y-75883809D01*
X95186190Y-75921904D01*
X95033809Y-75921904D01*
X94957619Y-75883809D01*
X94919523Y-75845714D01*
X94881428Y-75769523D01*
X94881428Y-75579047D01*
X94919523Y-75502857D01*
X94957619Y-75464761D01*
X95033809Y-75426666D01*
X95186190Y-75426666D01*
X95262380Y-75464761D01*
X95300476Y-75502857D01*
X95338571Y-75579047D01*
X95311904Y-86286666D02*
X94930952Y-86020000D01*
X95311904Y-85829523D02*
X94511904Y-85829523D01*
X94511904Y-86134285D01*
X94550000Y-86210476D01*
X94588095Y-86248571D01*
X94664285Y-86286666D01*
X94778571Y-86286666D01*
X94854761Y-86248571D01*
X94892857Y-86210476D01*
X94930952Y-86134285D01*
X94930952Y-85829523D01*
X94511904Y-87010476D02*
X94511904Y-86629523D01*
X94892857Y-86591428D01*
X94854761Y-86629523D01*
X94816666Y-86705714D01*
X94816666Y-86896190D01*
X94854761Y-86972380D01*
X94892857Y-87010476D01*
X94969047Y-87048571D01*
X95159523Y-87048571D01*
X95235714Y-87010476D01*
X95273809Y-86972380D01*
X95311904Y-86896190D01*
X95311904Y-86705714D01*
X95273809Y-86629523D01*
X95235714Y-86591428D01*
X98634285Y-66645714D02*
X98672380Y-66683809D01*
X98786666Y-66721904D01*
X98862857Y-66721904D01*
X98977142Y-66683809D01*
X99053333Y-66607619D01*
X99091428Y-66531428D01*
X99129523Y-66379047D01*
X99129523Y-66264761D01*
X99091428Y-66112380D01*
X99053333Y-66036190D01*
X98977142Y-65960000D01*
X98862857Y-65921904D01*
X98786666Y-65921904D01*
X98672380Y-65960000D01*
X98634285Y-65998095D01*
X97872380Y-66721904D02*
X98329523Y-66721904D01*
X98100952Y-66721904D02*
X98100952Y-65921904D01*
X98177142Y-66036190D01*
X98253333Y-66112380D01*
X98329523Y-66150476D01*
X97186666Y-65921904D02*
X97339047Y-65921904D01*
X97415238Y-65960000D01*
X97453333Y-65998095D01*
X97529523Y-66112380D01*
X97567619Y-66264761D01*
X97567619Y-66569523D01*
X97529523Y-66645714D01*
X97491428Y-66683809D01*
X97415238Y-66721904D01*
X97262857Y-66721904D01*
X97186666Y-66683809D01*
X97148571Y-66645714D01*
X97110476Y-66569523D01*
X97110476Y-66379047D01*
X97148571Y-66302857D01*
X97186666Y-66264761D01*
X97262857Y-66226666D01*
X97415238Y-66226666D01*
X97491428Y-66264761D01*
X97529523Y-66302857D01*
X97567619Y-66379047D01*
X97883333Y-67845714D02*
X97921428Y-67883809D01*
X98035714Y-67921904D01*
X98111904Y-67921904D01*
X98226190Y-67883809D01*
X98302380Y-67807619D01*
X98340476Y-67731428D01*
X98378571Y-67579047D01*
X98378571Y-67464761D01*
X98340476Y-67312380D01*
X98302380Y-67236190D01*
X98226190Y-67160000D01*
X98111904Y-67121904D01*
X98035714Y-67121904D01*
X97921428Y-67160000D01*
X97883333Y-67198095D01*
X97616666Y-67121904D02*
X97083333Y-67121904D01*
X97426190Y-67921904D01*
X92035714Y-74786666D02*
X92073809Y-74748571D01*
X92111904Y-74634285D01*
X92111904Y-74558095D01*
X92073809Y-74443809D01*
X91997619Y-74367619D01*
X91921428Y-74329523D01*
X91769047Y-74291428D01*
X91654761Y-74291428D01*
X91502380Y-74329523D01*
X91426190Y-74367619D01*
X91350000Y-74443809D01*
X91311904Y-74558095D01*
X91311904Y-74634285D01*
X91350000Y-74748571D01*
X91388095Y-74786666D01*
X91311904Y-75472380D02*
X91311904Y-75320000D01*
X91350000Y-75243809D01*
X91388095Y-75205714D01*
X91502380Y-75129523D01*
X91654761Y-75091428D01*
X91959523Y-75091428D01*
X92035714Y-75129523D01*
X92073809Y-75167619D01*
X92111904Y-75243809D01*
X92111904Y-75396190D01*
X92073809Y-75472380D01*
X92035714Y-75510476D01*
X91959523Y-75548571D01*
X91769047Y-75548571D01*
X91692857Y-75510476D01*
X91654761Y-75472380D01*
X91616666Y-75396190D01*
X91616666Y-75243809D01*
X91654761Y-75167619D01*
X91692857Y-75129523D01*
X91769047Y-75091428D01*
X110064285Y-65321904D02*
X110330952Y-64940952D01*
X110521428Y-65321904D02*
X110521428Y-64521904D01*
X110216666Y-64521904D01*
X110140476Y-64560000D01*
X110102380Y-64598095D01*
X110064285Y-64674285D01*
X110064285Y-64788571D01*
X110102380Y-64864761D01*
X110140476Y-64902857D01*
X110216666Y-64940952D01*
X110521428Y-64940952D01*
X109759523Y-64598095D02*
X109721428Y-64560000D01*
X109645238Y-64521904D01*
X109454761Y-64521904D01*
X109378571Y-64560000D01*
X109340476Y-64598095D01*
X109302380Y-64674285D01*
X109302380Y-64750476D01*
X109340476Y-64864761D01*
X109797619Y-65321904D01*
X109302380Y-65321904D01*
X108807142Y-64521904D02*
X108730952Y-64521904D01*
X108654761Y-64560000D01*
X108616666Y-64598095D01*
X108578571Y-64674285D01*
X108540476Y-64826666D01*
X108540476Y-65017142D01*
X108578571Y-65169523D01*
X108616666Y-65245714D01*
X108654761Y-65283809D01*
X108730952Y-65321904D01*
X108807142Y-65321904D01*
X108883333Y-65283809D01*
X108921428Y-65245714D01*
X108959523Y-65169523D01*
X108997619Y-65017142D01*
X108997619Y-64826666D01*
X108959523Y-64674285D01*
X108921428Y-64598095D01*
X108883333Y-64560000D01*
X108807142Y-64521904D01*
X114214285Y-66121904D02*
X114480952Y-65740952D01*
X114671428Y-66121904D02*
X114671428Y-65321904D01*
X114366666Y-65321904D01*
X114290476Y-65360000D01*
X114252380Y-65398095D01*
X114214285Y-65474285D01*
X114214285Y-65588571D01*
X114252380Y-65664761D01*
X114290476Y-65702857D01*
X114366666Y-65740952D01*
X114671428Y-65740952D01*
X113452380Y-66121904D02*
X113909523Y-66121904D01*
X113680952Y-66121904D02*
X113680952Y-65321904D01*
X113757142Y-65436190D01*
X113833333Y-65512380D01*
X113909523Y-65550476D01*
X112995238Y-65664761D02*
X113071428Y-65626666D01*
X113109523Y-65588571D01*
X113147619Y-65512380D01*
X113147619Y-65474285D01*
X113109523Y-65398095D01*
X113071428Y-65360000D01*
X112995238Y-65321904D01*
X112842857Y-65321904D01*
X112766666Y-65360000D01*
X112728571Y-65398095D01*
X112690476Y-65474285D01*
X112690476Y-65512380D01*
X112728571Y-65588571D01*
X112766666Y-65626666D01*
X112842857Y-65664761D01*
X112995238Y-65664761D01*
X113071428Y-65702857D01*
X113109523Y-65740952D01*
X113147619Y-65817142D01*
X113147619Y-65969523D01*
X113109523Y-66045714D01*
X113071428Y-66083809D01*
X112995238Y-66121904D01*
X112842857Y-66121904D01*
X112766666Y-66083809D01*
X112728571Y-66045714D01*
X112690476Y-65969523D01*
X112690476Y-65817142D01*
X112728571Y-65740952D01*
X112766666Y-65702857D01*
X112842857Y-65664761D01*
X91911904Y-64426666D02*
X91530952Y-64160000D01*
X91911904Y-63969523D02*
X91111904Y-63969523D01*
X91111904Y-64274285D01*
X91150000Y-64350476D01*
X91188095Y-64388571D01*
X91264285Y-64426666D01*
X91378571Y-64426666D01*
X91454761Y-64388571D01*
X91492857Y-64350476D01*
X91530952Y-64274285D01*
X91530952Y-63969523D01*
X91188095Y-64731428D02*
X91150000Y-64769523D01*
X91111904Y-64845714D01*
X91111904Y-65036190D01*
X91150000Y-65112380D01*
X91188095Y-65150476D01*
X91264285Y-65188571D01*
X91340476Y-65188571D01*
X91454761Y-65150476D01*
X91911904Y-64693333D01*
X91911904Y-65188571D01*
X92511904Y-54675714D02*
X92130952Y-54409047D01*
X92511904Y-54218571D02*
X91711904Y-54218571D01*
X91711904Y-54523333D01*
X91750000Y-54599523D01*
X91788095Y-54637619D01*
X91864285Y-54675714D01*
X91978571Y-54675714D01*
X92054761Y-54637619D01*
X92092857Y-54599523D01*
X92130952Y-54523333D01*
X92130952Y-54218571D01*
X92511904Y-55437619D02*
X92511904Y-54980476D01*
X92511904Y-55209047D02*
X91711904Y-55209047D01*
X91826190Y-55132857D01*
X91902380Y-55056666D01*
X91940476Y-54980476D01*
X92511904Y-56199523D02*
X92511904Y-55742380D01*
X92511904Y-55970952D02*
X91711904Y-55970952D01*
X91826190Y-55894761D01*
X91902380Y-55818571D01*
X91940476Y-55742380D01*
X101711904Y-64045714D02*
X101330952Y-63779047D01*
X101711904Y-63588571D02*
X100911904Y-63588571D01*
X100911904Y-63893333D01*
X100950000Y-63969523D01*
X100988095Y-64007619D01*
X101064285Y-64045714D01*
X101178571Y-64045714D01*
X101254761Y-64007619D01*
X101292857Y-63969523D01*
X101330952Y-63893333D01*
X101330952Y-63588571D01*
X100988095Y-64350476D02*
X100950000Y-64388571D01*
X100911904Y-64464761D01*
X100911904Y-64655238D01*
X100950000Y-64731428D01*
X100988095Y-64769523D01*
X101064285Y-64807619D01*
X101140476Y-64807619D01*
X101254761Y-64769523D01*
X101711904Y-64312380D01*
X101711904Y-64807619D01*
X101254761Y-65264761D02*
X101216666Y-65188571D01*
X101178571Y-65150476D01*
X101102380Y-65112380D01*
X101064285Y-65112380D01*
X100988095Y-65150476D01*
X100950000Y-65188571D01*
X100911904Y-65264761D01*
X100911904Y-65417142D01*
X100950000Y-65493333D01*
X100988095Y-65531428D01*
X101064285Y-65569523D01*
X101102380Y-65569523D01*
X101178571Y-65531428D01*
X101216666Y-65493333D01*
X101254761Y-65417142D01*
X101254761Y-65264761D01*
X101292857Y-65188571D01*
X101330952Y-65150476D01*
X101407142Y-65112380D01*
X101559523Y-65112380D01*
X101635714Y-65150476D01*
X101673809Y-65188571D01*
X101711904Y-65264761D01*
X101711904Y-65417142D01*
X101673809Y-65493333D01*
X101635714Y-65531428D01*
X101559523Y-65569523D01*
X101407142Y-65569523D01*
X101330952Y-65531428D01*
X101292857Y-65493333D01*
X101254761Y-65417142D01*
X99814285Y-60366714D02*
X99852380Y-60404809D01*
X99966666Y-60442904D01*
X100042857Y-60442904D01*
X100157142Y-60404809D01*
X100233333Y-60328619D01*
X100271428Y-60252428D01*
X100309523Y-60100047D01*
X100309523Y-59985761D01*
X100271428Y-59833380D01*
X100233333Y-59757190D01*
X100157142Y-59681000D01*
X100042857Y-59642904D01*
X99966666Y-59642904D01*
X99852380Y-59681000D01*
X99814285Y-59719095D01*
X99547619Y-59642904D02*
X99052380Y-59642904D01*
X99319047Y-59947666D01*
X99204761Y-59947666D01*
X99128571Y-59985761D01*
X99090476Y-60023857D01*
X99052380Y-60100047D01*
X99052380Y-60290523D01*
X99090476Y-60366714D01*
X99128571Y-60404809D01*
X99204761Y-60442904D01*
X99433333Y-60442904D01*
X99509523Y-60404809D01*
X99547619Y-60366714D01*
X98328571Y-59642904D02*
X98709523Y-59642904D01*
X98747619Y-60023857D01*
X98709523Y-59985761D01*
X98633333Y-59947666D01*
X98442857Y-59947666D01*
X98366666Y-59985761D01*
X98328571Y-60023857D01*
X98290476Y-60100047D01*
X98290476Y-60290523D01*
X98328571Y-60366714D01*
X98366666Y-60404809D01*
X98442857Y-60442904D01*
X98633333Y-60442904D01*
X98709523Y-60404809D01*
X98747619Y-60366714D01*
X100483333Y-58553333D02*
X100102380Y-58553333D01*
X100559523Y-58781904D02*
X100292857Y-57981904D01*
X100026190Y-58781904D01*
X99797619Y-58743809D02*
X99683333Y-58781904D01*
X99492857Y-58781904D01*
X99416666Y-58743809D01*
X99378571Y-58705714D01*
X99340476Y-58629523D01*
X99340476Y-58553333D01*
X99378571Y-58477142D01*
X99416666Y-58439047D01*
X99492857Y-58400952D01*
X99645238Y-58362857D01*
X99721428Y-58324761D01*
X99759523Y-58286666D01*
X99797619Y-58210476D01*
X99797619Y-58134285D01*
X99759523Y-58058095D01*
X99721428Y-58020000D01*
X99645238Y-57981904D01*
X99454761Y-57981904D01*
X99340476Y-58020000D01*
X98578571Y-58781904D02*
X99035714Y-58781904D01*
X98807142Y-58781904D02*
X98807142Y-57981904D01*
X98883333Y-58096190D01*
X98959523Y-58172380D01*
X99035714Y-58210476D01*
X97816666Y-58781904D02*
X98273809Y-58781904D01*
X98045238Y-58781904D02*
X98045238Y-57981904D01*
X98121428Y-58096190D01*
X98197619Y-58172380D01*
X98273809Y-58210476D01*
X107334285Y-82645714D02*
X107372380Y-82683809D01*
X107486666Y-82721904D01*
X107562857Y-82721904D01*
X107677142Y-82683809D01*
X107753333Y-82607619D01*
X107791428Y-82531428D01*
X107829523Y-82379047D01*
X107829523Y-82264761D01*
X107791428Y-82112380D01*
X107753333Y-82036190D01*
X107677142Y-81960000D01*
X107562857Y-81921904D01*
X107486666Y-81921904D01*
X107372380Y-81960000D01*
X107334285Y-81998095D01*
X106610476Y-81921904D02*
X106991428Y-81921904D01*
X107029523Y-82302857D01*
X106991428Y-82264761D01*
X106915238Y-82226666D01*
X106724761Y-82226666D01*
X106648571Y-82264761D01*
X106610476Y-82302857D01*
X106572380Y-82379047D01*
X106572380Y-82569523D01*
X106610476Y-82645714D01*
X106648571Y-82683809D01*
X106724761Y-82721904D01*
X106915238Y-82721904D01*
X106991428Y-82683809D01*
X107029523Y-82645714D01*
X105848571Y-81921904D02*
X106229523Y-81921904D01*
X106267619Y-82302857D01*
X106229523Y-82264761D01*
X106153333Y-82226666D01*
X105962857Y-82226666D01*
X105886666Y-82264761D01*
X105848571Y-82302857D01*
X105810476Y-82379047D01*
X105810476Y-82569523D01*
X105848571Y-82645714D01*
X105886666Y-82683809D01*
X105962857Y-82721904D01*
X106153333Y-82721904D01*
X106229523Y-82683809D01*
X106267619Y-82645714D01*
X103864285Y-83045714D02*
X103902380Y-83083809D01*
X104016666Y-83121904D01*
X104092857Y-83121904D01*
X104207142Y-83083809D01*
X104283333Y-83007619D01*
X104321428Y-82931428D01*
X104359523Y-82779047D01*
X104359523Y-82664761D01*
X104321428Y-82512380D01*
X104283333Y-82436190D01*
X104207142Y-82360000D01*
X104092857Y-82321904D01*
X104016666Y-82321904D01*
X103902380Y-82360000D01*
X103864285Y-82398095D01*
X103140476Y-82321904D02*
X103521428Y-82321904D01*
X103559523Y-82702857D01*
X103521428Y-82664761D01*
X103445238Y-82626666D01*
X103254761Y-82626666D01*
X103178571Y-82664761D01*
X103140476Y-82702857D01*
X103102380Y-82779047D01*
X103102380Y-82969523D01*
X103140476Y-83045714D01*
X103178571Y-83083809D01*
X103254761Y-83121904D01*
X103445238Y-83121904D01*
X103521428Y-83083809D01*
X103559523Y-83045714D01*
X102607142Y-82321904D02*
X102530952Y-82321904D01*
X102454761Y-82360000D01*
X102416666Y-82398095D01*
X102378571Y-82474285D01*
X102340476Y-82626666D01*
X102340476Y-82817142D01*
X102378571Y-82969523D01*
X102416666Y-83045714D01*
X102454761Y-83083809D01*
X102530952Y-83121904D01*
X102607142Y-83121904D01*
X102683333Y-83083809D01*
X102721428Y-83045714D01*
X102759523Y-82969523D01*
X102797619Y-82817142D01*
X102797619Y-82626666D01*
X102759523Y-82474285D01*
X102721428Y-82398095D01*
X102683333Y-82360000D01*
X102607142Y-82321904D01*
X115264285Y-70921904D02*
X115530952Y-70540952D01*
X115721428Y-70921904D02*
X115721428Y-70121904D01*
X115416666Y-70121904D01*
X115340476Y-70160000D01*
X115302380Y-70198095D01*
X115264285Y-70274285D01*
X115264285Y-70388571D01*
X115302380Y-70464761D01*
X115340476Y-70502857D01*
X115416666Y-70540952D01*
X115721428Y-70540952D01*
X114578571Y-70388571D02*
X114578571Y-70921904D01*
X114769047Y-70083809D02*
X114959523Y-70655238D01*
X114464285Y-70655238D01*
X114197619Y-70198095D02*
X114159523Y-70160000D01*
X114083333Y-70121904D01*
X113892857Y-70121904D01*
X113816666Y-70160000D01*
X113778571Y-70198095D01*
X113740476Y-70274285D01*
X113740476Y-70350476D01*
X113778571Y-70464761D01*
X114235714Y-70921904D01*
X113740476Y-70921904D01*
X115164285Y-69721904D02*
X115430952Y-69340952D01*
X115621428Y-69721904D02*
X115621428Y-68921904D01*
X115316666Y-68921904D01*
X115240476Y-68960000D01*
X115202380Y-68998095D01*
X115164285Y-69074285D01*
X115164285Y-69188571D01*
X115202380Y-69264761D01*
X115240476Y-69302857D01*
X115316666Y-69340952D01*
X115621428Y-69340952D01*
X114478571Y-69188571D02*
X114478571Y-69721904D01*
X114669047Y-68883809D02*
X114859523Y-69455238D01*
X114364285Y-69455238D01*
X113640476Y-69721904D02*
X114097619Y-69721904D01*
X113869047Y-69721904D02*
X113869047Y-68921904D01*
X113945238Y-69036190D01*
X114021428Y-69112380D01*
X114097619Y-69150476D01*
X108664285Y-69721904D02*
X108930952Y-69340952D01*
X109121428Y-69721904D02*
X109121428Y-68921904D01*
X108816666Y-68921904D01*
X108740476Y-68960000D01*
X108702380Y-68998095D01*
X108664285Y-69074285D01*
X108664285Y-69188571D01*
X108702380Y-69264761D01*
X108740476Y-69302857D01*
X108816666Y-69340952D01*
X109121428Y-69340952D01*
X107978571Y-69188571D02*
X107978571Y-69721904D01*
X108169047Y-68883809D02*
X108359523Y-69455238D01*
X107864285Y-69455238D01*
X107407142Y-68921904D02*
X107330952Y-68921904D01*
X107254761Y-68960000D01*
X107216666Y-68998095D01*
X107178571Y-69074285D01*
X107140476Y-69226666D01*
X107140476Y-69417142D01*
X107178571Y-69569523D01*
X107216666Y-69645714D01*
X107254761Y-69683809D01*
X107330952Y-69721904D01*
X107407142Y-69721904D01*
X107483333Y-69683809D01*
X107521428Y-69645714D01*
X107559523Y-69569523D01*
X107597619Y-69417142D01*
X107597619Y-69226666D01*
X107559523Y-69074285D01*
X107521428Y-68998095D01*
X107483333Y-68960000D01*
X107407142Y-68921904D01*
X108664285Y-70921904D02*
X108930952Y-70540952D01*
X109121428Y-70921904D02*
X109121428Y-70121904D01*
X108816666Y-70121904D01*
X108740476Y-70160000D01*
X108702380Y-70198095D01*
X108664285Y-70274285D01*
X108664285Y-70388571D01*
X108702380Y-70464761D01*
X108740476Y-70502857D01*
X108816666Y-70540952D01*
X109121428Y-70540952D01*
X108397619Y-70121904D02*
X107902380Y-70121904D01*
X108169047Y-70426666D01*
X108054761Y-70426666D01*
X107978571Y-70464761D01*
X107940476Y-70502857D01*
X107902380Y-70579047D01*
X107902380Y-70769523D01*
X107940476Y-70845714D01*
X107978571Y-70883809D01*
X108054761Y-70921904D01*
X108283333Y-70921904D01*
X108359523Y-70883809D01*
X108397619Y-70845714D01*
X107521428Y-70921904D02*
X107369047Y-70921904D01*
X107292857Y-70883809D01*
X107254761Y-70845714D01*
X107178571Y-70731428D01*
X107140476Y-70579047D01*
X107140476Y-70274285D01*
X107178571Y-70198095D01*
X107216666Y-70160000D01*
X107292857Y-70121904D01*
X107445238Y-70121904D01*
X107521428Y-70160000D01*
X107559523Y-70198095D01*
X107597619Y-70274285D01*
X107597619Y-70464761D01*
X107559523Y-70540952D01*
X107521428Y-70579047D01*
X107445238Y-70617142D01*
X107292857Y-70617142D01*
X107216666Y-70579047D01*
X107178571Y-70540952D01*
X107140476Y-70464761D01*
X92364285Y-88531904D02*
X92630952Y-88150952D01*
X92821428Y-88531904D02*
X92821428Y-87731904D01*
X92516666Y-87731904D01*
X92440476Y-87770000D01*
X92402380Y-87808095D01*
X92364285Y-87884285D01*
X92364285Y-87998571D01*
X92402380Y-88074761D01*
X92440476Y-88112857D01*
X92516666Y-88150952D01*
X92821428Y-88150952D01*
X91678571Y-87998571D02*
X91678571Y-88531904D01*
X91869047Y-87693809D02*
X92059523Y-88265238D01*
X91564285Y-88265238D01*
X91145238Y-88074761D02*
X91221428Y-88036666D01*
X91259523Y-87998571D01*
X91297619Y-87922380D01*
X91297619Y-87884285D01*
X91259523Y-87808095D01*
X91221428Y-87770000D01*
X91145238Y-87731904D01*
X90992857Y-87731904D01*
X90916666Y-87770000D01*
X90878571Y-87808095D01*
X90840476Y-87884285D01*
X90840476Y-87922380D01*
X90878571Y-87998571D01*
X90916666Y-88036666D01*
X90992857Y-88074761D01*
X91145238Y-88074761D01*
X91221428Y-88112857D01*
X91259523Y-88150952D01*
X91297619Y-88227142D01*
X91297619Y-88379523D01*
X91259523Y-88455714D01*
X91221428Y-88493809D01*
X91145238Y-88531904D01*
X90992857Y-88531904D01*
X90916666Y-88493809D01*
X90878571Y-88455714D01*
X90840476Y-88379523D01*
X90840476Y-88227142D01*
X90878571Y-88150952D01*
X90916666Y-88112857D01*
X90992857Y-88074761D01*
X92364285Y-87321904D02*
X92630952Y-86940952D01*
X92821428Y-87321904D02*
X92821428Y-86521904D01*
X92516666Y-86521904D01*
X92440476Y-86560000D01*
X92402380Y-86598095D01*
X92364285Y-86674285D01*
X92364285Y-86788571D01*
X92402380Y-86864761D01*
X92440476Y-86902857D01*
X92516666Y-86940952D01*
X92821428Y-86940952D01*
X91678571Y-86788571D02*
X91678571Y-87321904D01*
X91869047Y-86483809D02*
X92059523Y-87055238D01*
X91564285Y-87055238D01*
X91335714Y-86521904D02*
X90802380Y-86521904D01*
X91145238Y-87321904D01*
X92364285Y-86121904D02*
X92630952Y-85740952D01*
X92821428Y-86121904D02*
X92821428Y-85321904D01*
X92516666Y-85321904D01*
X92440476Y-85360000D01*
X92402380Y-85398095D01*
X92364285Y-85474285D01*
X92364285Y-85588571D01*
X92402380Y-85664761D01*
X92440476Y-85702857D01*
X92516666Y-85740952D01*
X92821428Y-85740952D01*
X91678571Y-85588571D02*
X91678571Y-86121904D01*
X91869047Y-85283809D02*
X92059523Y-85855238D01*
X91564285Y-85855238D01*
X90916666Y-85321904D02*
X91069047Y-85321904D01*
X91145238Y-85360000D01*
X91183333Y-85398095D01*
X91259523Y-85512380D01*
X91297619Y-85664761D01*
X91297619Y-85969523D01*
X91259523Y-86045714D01*
X91221428Y-86083809D01*
X91145238Y-86121904D01*
X90992857Y-86121904D01*
X90916666Y-86083809D01*
X90878571Y-86045714D01*
X90840476Y-85969523D01*
X90840476Y-85779047D01*
X90878571Y-85702857D01*
X90916666Y-85664761D01*
X90992857Y-85626666D01*
X91145238Y-85626666D01*
X91221428Y-85664761D01*
X91259523Y-85702857D01*
X91297619Y-85779047D01*
X92364285Y-84921904D02*
X92630952Y-84540952D01*
X92821428Y-84921904D02*
X92821428Y-84121904D01*
X92516666Y-84121904D01*
X92440476Y-84160000D01*
X92402380Y-84198095D01*
X92364285Y-84274285D01*
X92364285Y-84388571D01*
X92402380Y-84464761D01*
X92440476Y-84502857D01*
X92516666Y-84540952D01*
X92821428Y-84540952D01*
X91678571Y-84388571D02*
X91678571Y-84921904D01*
X91869047Y-84083809D02*
X92059523Y-84655238D01*
X91564285Y-84655238D01*
X90878571Y-84121904D02*
X91259523Y-84121904D01*
X91297619Y-84502857D01*
X91259523Y-84464761D01*
X91183333Y-84426666D01*
X90992857Y-84426666D01*
X90916666Y-84464761D01*
X90878571Y-84502857D01*
X90840476Y-84579047D01*
X90840476Y-84769523D01*
X90878571Y-84845714D01*
X90916666Y-84883809D01*
X90992857Y-84921904D01*
X91183333Y-84921904D01*
X91259523Y-84883809D01*
X91297619Y-84845714D01*
X92364285Y-82521904D02*
X92630952Y-82140952D01*
X92821428Y-82521904D02*
X92821428Y-81721904D01*
X92516666Y-81721904D01*
X92440476Y-81760000D01*
X92402380Y-81798095D01*
X92364285Y-81874285D01*
X92364285Y-81988571D01*
X92402380Y-82064761D01*
X92440476Y-82102857D01*
X92516666Y-82140952D01*
X92821428Y-82140952D01*
X91678571Y-81988571D02*
X91678571Y-82521904D01*
X91869047Y-81683809D02*
X92059523Y-82255238D01*
X91564285Y-82255238D01*
X91335714Y-81721904D02*
X90840476Y-81721904D01*
X91107142Y-82026666D01*
X90992857Y-82026666D01*
X90916666Y-82064761D01*
X90878571Y-82102857D01*
X90840476Y-82179047D01*
X90840476Y-82369523D01*
X90878571Y-82445714D01*
X90916666Y-82483809D01*
X90992857Y-82521904D01*
X91221428Y-82521904D01*
X91297619Y-82483809D01*
X91335714Y-82445714D01*
X87783333Y-82502857D02*
X87516666Y-82502857D01*
X87402380Y-82921904D02*
X87783333Y-82921904D01*
X87783333Y-82121904D01*
X87402380Y-82121904D01*
X87097619Y-82883809D02*
X86983333Y-82921904D01*
X86792857Y-82921904D01*
X86716666Y-82883809D01*
X86678571Y-82845714D01*
X86640476Y-82769523D01*
X86640476Y-82693333D01*
X86678571Y-82617142D01*
X86716666Y-82579047D01*
X86792857Y-82540952D01*
X86945238Y-82502857D01*
X87021428Y-82464761D01*
X87059523Y-82426666D01*
X87097619Y-82350476D01*
X87097619Y-82274285D01*
X87059523Y-82198095D01*
X87021428Y-82160000D01*
X86945238Y-82121904D01*
X86754761Y-82121904D01*
X86640476Y-82160000D01*
X86297619Y-82921904D02*
X86297619Y-82121904D01*
X86107142Y-82121904D01*
X85992857Y-82160000D01*
X85916666Y-82236190D01*
X85878571Y-82312380D01*
X85840476Y-82464761D01*
X85840476Y-82579047D01*
X85878571Y-82731428D01*
X85916666Y-82807619D01*
X85992857Y-82883809D01*
X86107142Y-82921904D01*
X86297619Y-82921904D01*
X85078571Y-82921904D02*
X85535714Y-82921904D01*
X85307142Y-82921904D02*
X85307142Y-82121904D01*
X85383333Y-82236190D01*
X85459523Y-82312380D01*
X85535714Y-82350476D01*
X115264285Y-84721904D02*
X115530952Y-84340952D01*
X115721428Y-84721904D02*
X115721428Y-83921904D01*
X115416666Y-83921904D01*
X115340476Y-83960000D01*
X115302380Y-83998095D01*
X115264285Y-84074285D01*
X115264285Y-84188571D01*
X115302380Y-84264761D01*
X115340476Y-84302857D01*
X115416666Y-84340952D01*
X115721428Y-84340952D01*
X114997619Y-83921904D02*
X114502380Y-83921904D01*
X114769047Y-84226666D01*
X114654761Y-84226666D01*
X114578571Y-84264761D01*
X114540476Y-84302857D01*
X114502380Y-84379047D01*
X114502380Y-84569523D01*
X114540476Y-84645714D01*
X114578571Y-84683809D01*
X114654761Y-84721904D01*
X114883333Y-84721904D01*
X114959523Y-84683809D01*
X114997619Y-84645714D01*
X114045238Y-84264761D02*
X114121428Y-84226666D01*
X114159523Y-84188571D01*
X114197619Y-84112380D01*
X114197619Y-84074285D01*
X114159523Y-83998095D01*
X114121428Y-83960000D01*
X114045238Y-83921904D01*
X113892857Y-83921904D01*
X113816666Y-83960000D01*
X113778571Y-83998095D01*
X113740476Y-84074285D01*
X113740476Y-84112380D01*
X113778571Y-84188571D01*
X113816666Y-84226666D01*
X113892857Y-84264761D01*
X114045238Y-84264761D01*
X114121428Y-84302857D01*
X114159523Y-84340952D01*
X114197619Y-84417142D01*
X114197619Y-84569523D01*
X114159523Y-84645714D01*
X114121428Y-84683809D01*
X114045238Y-84721904D01*
X113892857Y-84721904D01*
X113816666Y-84683809D01*
X113778571Y-84645714D01*
X113740476Y-84569523D01*
X113740476Y-84417142D01*
X113778571Y-84340952D01*
X113816666Y-84302857D01*
X113892857Y-84264761D01*
X115264285Y-83521904D02*
X115530952Y-83140952D01*
X115721428Y-83521904D02*
X115721428Y-82721904D01*
X115416666Y-82721904D01*
X115340476Y-82760000D01*
X115302380Y-82798095D01*
X115264285Y-82874285D01*
X115264285Y-82988571D01*
X115302380Y-83064761D01*
X115340476Y-83102857D01*
X115416666Y-83140952D01*
X115721428Y-83140952D01*
X114997619Y-82721904D02*
X114502380Y-82721904D01*
X114769047Y-83026666D01*
X114654761Y-83026666D01*
X114578571Y-83064761D01*
X114540476Y-83102857D01*
X114502380Y-83179047D01*
X114502380Y-83369523D01*
X114540476Y-83445714D01*
X114578571Y-83483809D01*
X114654761Y-83521904D01*
X114883333Y-83521904D01*
X114959523Y-83483809D01*
X114997619Y-83445714D01*
X114235714Y-82721904D02*
X113702380Y-82721904D01*
X114045238Y-83521904D01*
X104730952Y-85740952D02*
X104730952Y-86121904D01*
X104997619Y-85321904D02*
X104730952Y-85740952D01*
X104464285Y-85321904D01*
X104235714Y-85398095D02*
X104197619Y-85360000D01*
X104121428Y-85321904D01*
X103930952Y-85321904D01*
X103854761Y-85360000D01*
X103816666Y-85398095D01*
X103778571Y-85474285D01*
X103778571Y-85550476D01*
X103816666Y-85664761D01*
X104273809Y-86121904D01*
X103778571Y-86121904D01*
X97330952Y-84540952D02*
X97330952Y-84921904D01*
X97597619Y-84121904D02*
X97330952Y-84540952D01*
X97064285Y-84121904D01*
X96378571Y-84921904D02*
X96835714Y-84921904D01*
X96607142Y-84921904D02*
X96607142Y-84121904D01*
X96683333Y-84236190D01*
X96759523Y-84312380D01*
X96835714Y-84350476D01*
X87340476Y-78321904D02*
X86883333Y-78321904D01*
X87111904Y-79121904D02*
X87111904Y-78321904D01*
X86654761Y-79083809D02*
X86540476Y-79121904D01*
X86350000Y-79121904D01*
X86273809Y-79083809D01*
X86235714Y-79045714D01*
X86197619Y-78969523D01*
X86197619Y-78893333D01*
X86235714Y-78817142D01*
X86273809Y-78779047D01*
X86350000Y-78740952D01*
X86502380Y-78702857D01*
X86578571Y-78664761D01*
X86616666Y-78626666D01*
X86654761Y-78550476D01*
X86654761Y-78474285D01*
X86616666Y-78398095D01*
X86578571Y-78360000D01*
X86502380Y-78321904D01*
X86311904Y-78321904D01*
X86197619Y-78360000D01*
X85930952Y-78321904D02*
X85397619Y-78321904D01*
X85740476Y-79121904D01*
X119540476Y-82121904D02*
X119083333Y-82121904D01*
X119311904Y-82921904D02*
X119311904Y-82121904D01*
X118854761Y-82883809D02*
X118740476Y-82921904D01*
X118550000Y-82921904D01*
X118473809Y-82883809D01*
X118435714Y-82845714D01*
X118397619Y-82769523D01*
X118397619Y-82693333D01*
X118435714Y-82617142D01*
X118473809Y-82579047D01*
X118550000Y-82540952D01*
X118702380Y-82502857D01*
X118778571Y-82464761D01*
X118816666Y-82426666D01*
X118854761Y-82350476D01*
X118854761Y-82274285D01*
X118816666Y-82198095D01*
X118778571Y-82160000D01*
X118702380Y-82121904D01*
X118511904Y-82121904D01*
X118397619Y-82160000D01*
X117711904Y-82121904D02*
X117864285Y-82121904D01*
X117940476Y-82160000D01*
X117978571Y-82198095D01*
X118054761Y-82312380D01*
X118092857Y-82464761D01*
X118092857Y-82769523D01*
X118054761Y-82845714D01*
X118016666Y-82883809D01*
X117940476Y-82921904D01*
X117788095Y-82921904D01*
X117711904Y-82883809D01*
X117673809Y-82845714D01*
X117635714Y-82769523D01*
X117635714Y-82579047D01*
X117673809Y-82502857D01*
X117711904Y-82464761D01*
X117788095Y-82426666D01*
X117940476Y-82426666D01*
X118016666Y-82464761D01*
X118054761Y-82502857D01*
X118092857Y-82579047D01*
X123711904Y-70169523D02*
X123711904Y-70626666D01*
X124511904Y-70398095D02*
X123711904Y-70398095D01*
X124473809Y-70855238D02*
X124511904Y-70969523D01*
X124511904Y-71160000D01*
X124473809Y-71236190D01*
X124435714Y-71274285D01*
X124359523Y-71312380D01*
X124283333Y-71312380D01*
X124207142Y-71274285D01*
X124169047Y-71236190D01*
X124130952Y-71160000D01*
X124092857Y-71007619D01*
X124054761Y-70931428D01*
X124016666Y-70893333D01*
X123940476Y-70855238D01*
X123864285Y-70855238D01*
X123788095Y-70893333D01*
X123750000Y-70931428D01*
X123711904Y-71007619D01*
X123711904Y-71198095D01*
X123750000Y-71312380D01*
X123711904Y-72036190D02*
X123711904Y-71655238D01*
X124092857Y-71617142D01*
X124054761Y-71655238D01*
X124016666Y-71731428D01*
X124016666Y-71921904D01*
X124054761Y-71998095D01*
X124092857Y-72036190D01*
X124169047Y-72074285D01*
X124359523Y-72074285D01*
X124435714Y-72036190D01*
X124473809Y-71998095D01*
X124511904Y-71921904D01*
X124511904Y-71731428D01*
X124473809Y-71655238D01*
X124435714Y-71617142D01*
X108740476Y-74321904D02*
X108283333Y-74321904D01*
X108511904Y-75121904D02*
X108511904Y-74321904D01*
X108054761Y-75083809D02*
X107940476Y-75121904D01*
X107750000Y-75121904D01*
X107673809Y-75083809D01*
X107635714Y-75045714D01*
X107597619Y-74969523D01*
X107597619Y-74893333D01*
X107635714Y-74817142D01*
X107673809Y-74779047D01*
X107750000Y-74740952D01*
X107902380Y-74702857D01*
X107978571Y-74664761D01*
X108016666Y-74626666D01*
X108054761Y-74550476D01*
X108054761Y-74474285D01*
X108016666Y-74398095D01*
X107978571Y-74360000D01*
X107902380Y-74321904D01*
X107711904Y-74321904D01*
X107597619Y-74360000D01*
X106911904Y-74588571D02*
X106911904Y-75121904D01*
X107102380Y-74283809D02*
X107292857Y-74855238D01*
X106797619Y-74855238D01*
X119340476Y-90721904D02*
X118883333Y-90721904D01*
X119111904Y-91521904D02*
X119111904Y-90721904D01*
X118654761Y-91483809D02*
X118540476Y-91521904D01*
X118350000Y-91521904D01*
X118273809Y-91483809D01*
X118235714Y-91445714D01*
X118197619Y-91369523D01*
X118197619Y-91293333D01*
X118235714Y-91217142D01*
X118273809Y-91179047D01*
X118350000Y-91140952D01*
X118502380Y-91102857D01*
X118578571Y-91064761D01*
X118616666Y-91026666D01*
X118654761Y-90950476D01*
X118654761Y-90874285D01*
X118616666Y-90798095D01*
X118578571Y-90760000D01*
X118502380Y-90721904D01*
X118311904Y-90721904D01*
X118197619Y-90760000D01*
X117930952Y-90721904D02*
X117435714Y-90721904D01*
X117702380Y-91026666D01*
X117588095Y-91026666D01*
X117511904Y-91064761D01*
X117473809Y-91102857D01*
X117435714Y-91179047D01*
X117435714Y-91369523D01*
X117473809Y-91445714D01*
X117511904Y-91483809D01*
X117588095Y-91521904D01*
X117816666Y-91521904D01*
X117892857Y-91483809D01*
X117930952Y-91445714D01*
X99340476Y-77721904D02*
X98883333Y-77721904D01*
X99111904Y-78521904D02*
X99111904Y-77721904D01*
X98654761Y-78483809D02*
X98540476Y-78521904D01*
X98350000Y-78521904D01*
X98273809Y-78483809D01*
X98235714Y-78445714D01*
X98197619Y-78369523D01*
X98197619Y-78293333D01*
X98235714Y-78217142D01*
X98273809Y-78179047D01*
X98350000Y-78140952D01*
X98502380Y-78102857D01*
X98578571Y-78064761D01*
X98616666Y-78026666D01*
X98654761Y-77950476D01*
X98654761Y-77874285D01*
X98616666Y-77798095D01*
X98578571Y-77760000D01*
X98502380Y-77721904D01*
X98311904Y-77721904D01*
X98197619Y-77760000D01*
X97892857Y-77798095D02*
X97854761Y-77760000D01*
X97778571Y-77721904D01*
X97588095Y-77721904D01*
X97511904Y-77760000D01*
X97473809Y-77798095D01*
X97435714Y-77874285D01*
X97435714Y-77950476D01*
X97473809Y-78064761D01*
X97930952Y-78521904D01*
X97435714Y-78521904D01*
X97711904Y-93569523D02*
X97711904Y-94026666D01*
X98511904Y-93798095D02*
X97711904Y-93798095D01*
X98473809Y-94255238D02*
X98511904Y-94369523D01*
X98511904Y-94560000D01*
X98473809Y-94636190D01*
X98435714Y-94674285D01*
X98359523Y-94712380D01*
X98283333Y-94712380D01*
X98207142Y-94674285D01*
X98169047Y-94636190D01*
X98130952Y-94560000D01*
X98092857Y-94407619D01*
X98054761Y-94331428D01*
X98016666Y-94293333D01*
X97940476Y-94255238D01*
X97864285Y-94255238D01*
X97788095Y-94293333D01*
X97750000Y-94331428D01*
X97711904Y-94407619D01*
X97711904Y-94598095D01*
X97750000Y-94712380D01*
X98511904Y-95474285D02*
X98511904Y-95017142D01*
X98511904Y-95245714D02*
X97711904Y-95245714D01*
X97826190Y-95169523D01*
X97902380Y-95093333D01*
X97940476Y-95017142D01*
X96711904Y-64026666D02*
X96330952Y-63760000D01*
X96711904Y-63569523D02*
X95911904Y-63569523D01*
X95911904Y-63874285D01*
X95950000Y-63950476D01*
X95988095Y-63988571D01*
X96064285Y-64026666D01*
X96178571Y-64026666D01*
X96254761Y-63988571D01*
X96292857Y-63950476D01*
X96330952Y-63874285D01*
X96330952Y-63569523D01*
X96178571Y-64712380D02*
X96711904Y-64712380D01*
X95873809Y-64521904D02*
X96445238Y-64331428D01*
X96445238Y-64826666D01*
X97264285Y-90721904D02*
X97530952Y-90340952D01*
X97721428Y-90721904D02*
X97721428Y-89921904D01*
X97416666Y-89921904D01*
X97340476Y-89960000D01*
X97302380Y-89998095D01*
X97264285Y-90074285D01*
X97264285Y-90188571D01*
X97302380Y-90264761D01*
X97340476Y-90302857D01*
X97416666Y-90340952D01*
X97721428Y-90340952D01*
X96959523Y-89998095D02*
X96921428Y-89960000D01*
X96845238Y-89921904D01*
X96654761Y-89921904D01*
X96578571Y-89960000D01*
X96540476Y-89998095D01*
X96502380Y-90074285D01*
X96502380Y-90150476D01*
X96540476Y-90264761D01*
X96997619Y-90721904D01*
X96502380Y-90721904D01*
X95816666Y-89921904D02*
X95969047Y-89921904D01*
X96045238Y-89960000D01*
X96083333Y-89998095D01*
X96159523Y-90112380D01*
X96197619Y-90264761D01*
X96197619Y-90569523D01*
X96159523Y-90645714D01*
X96121428Y-90683809D01*
X96045238Y-90721904D01*
X95892857Y-90721904D01*
X95816666Y-90683809D01*
X95778571Y-90645714D01*
X95740476Y-90569523D01*
X95740476Y-90379047D01*
X95778571Y-90302857D01*
X95816666Y-90264761D01*
X95892857Y-90226666D01*
X96045238Y-90226666D01*
X96121428Y-90264761D01*
X96159523Y-90302857D01*
X96197619Y-90379047D01*
X103664285Y-90721904D02*
X103930952Y-90340952D01*
X104121428Y-90721904D02*
X104121428Y-89921904D01*
X103816666Y-89921904D01*
X103740476Y-89960000D01*
X103702380Y-89998095D01*
X103664285Y-90074285D01*
X103664285Y-90188571D01*
X103702380Y-90264761D01*
X103740476Y-90302857D01*
X103816666Y-90340952D01*
X104121428Y-90340952D01*
X103359523Y-89998095D02*
X103321428Y-89960000D01*
X103245238Y-89921904D01*
X103054761Y-89921904D01*
X102978571Y-89960000D01*
X102940476Y-89998095D01*
X102902380Y-90074285D01*
X102902380Y-90150476D01*
X102940476Y-90264761D01*
X103397619Y-90721904D01*
X102902380Y-90721904D01*
X102635714Y-89921904D02*
X102140476Y-89921904D01*
X102407142Y-90226666D01*
X102292857Y-90226666D01*
X102216666Y-90264761D01*
X102178571Y-90302857D01*
X102140476Y-90379047D01*
X102140476Y-90569523D01*
X102178571Y-90645714D01*
X102216666Y-90683809D01*
X102292857Y-90721904D01*
X102521428Y-90721904D01*
X102597619Y-90683809D01*
X102635714Y-90645714D01*
X106911904Y-64045714D02*
X106530952Y-63779047D01*
X106911904Y-63588571D02*
X106111904Y-63588571D01*
X106111904Y-63893333D01*
X106150000Y-63969523D01*
X106188095Y-64007619D01*
X106264285Y-64045714D01*
X106378571Y-64045714D01*
X106454761Y-64007619D01*
X106492857Y-63969523D01*
X106530952Y-63893333D01*
X106530952Y-63588571D01*
X106111904Y-64769523D02*
X106111904Y-64388571D01*
X106492857Y-64350476D01*
X106454761Y-64388571D01*
X106416666Y-64464761D01*
X106416666Y-64655238D01*
X106454761Y-64731428D01*
X106492857Y-64769523D01*
X106569047Y-64807619D01*
X106759523Y-64807619D01*
X106835714Y-64769523D01*
X106873809Y-64731428D01*
X106911904Y-64655238D01*
X106911904Y-64464761D01*
X106873809Y-64388571D01*
X106835714Y-64350476D01*
X106911904Y-65569523D02*
X106911904Y-65112380D01*
X106911904Y-65340952D02*
X106111904Y-65340952D01*
X106226190Y-65264761D01*
X106302380Y-65188571D01*
X106340476Y-65112380D01*
X111154285Y-91921904D02*
X111420952Y-91540952D01*
X111611428Y-91921904D02*
X111611428Y-91121904D01*
X111306666Y-91121904D01*
X111230476Y-91160000D01*
X111192380Y-91198095D01*
X111154285Y-91274285D01*
X111154285Y-91388571D01*
X111192380Y-91464761D01*
X111230476Y-91502857D01*
X111306666Y-91540952D01*
X111611428Y-91540952D01*
X110887619Y-91121904D02*
X110392380Y-91121904D01*
X110659047Y-91426666D01*
X110544761Y-91426666D01*
X110468571Y-91464761D01*
X110430476Y-91502857D01*
X110392380Y-91579047D01*
X110392380Y-91769523D01*
X110430476Y-91845714D01*
X110468571Y-91883809D01*
X110544761Y-91921904D01*
X110773333Y-91921904D01*
X110849523Y-91883809D01*
X110887619Y-91845714D01*
X109630476Y-91921904D02*
X110087619Y-91921904D01*
X109859047Y-91921904D02*
X109859047Y-91121904D01*
X109935238Y-91236190D01*
X110011428Y-91312380D01*
X110087619Y-91350476D01*
X100354285Y-91921904D02*
X100620952Y-91540952D01*
X100811428Y-91921904D02*
X100811428Y-91121904D01*
X100506666Y-91121904D01*
X100430476Y-91160000D01*
X100392380Y-91198095D01*
X100354285Y-91274285D01*
X100354285Y-91388571D01*
X100392380Y-91464761D01*
X100430476Y-91502857D01*
X100506666Y-91540952D01*
X100811428Y-91540952D01*
X100087619Y-91121904D02*
X99592380Y-91121904D01*
X99859047Y-91426666D01*
X99744761Y-91426666D01*
X99668571Y-91464761D01*
X99630476Y-91502857D01*
X99592380Y-91579047D01*
X99592380Y-91769523D01*
X99630476Y-91845714D01*
X99668571Y-91883809D01*
X99744761Y-91921904D01*
X99973333Y-91921904D01*
X100049523Y-91883809D01*
X100087619Y-91845714D01*
X99097142Y-91121904D02*
X99020952Y-91121904D01*
X98944761Y-91160000D01*
X98906666Y-91198095D01*
X98868571Y-91274285D01*
X98830476Y-91426666D01*
X98830476Y-91617142D01*
X98868571Y-91769523D01*
X98906666Y-91845714D01*
X98944761Y-91883809D01*
X99020952Y-91921904D01*
X99097142Y-91921904D01*
X99173333Y-91883809D01*
X99211428Y-91845714D01*
X99249523Y-91769523D01*
X99287619Y-91617142D01*
X99287619Y-91426666D01*
X99249523Y-91274285D01*
X99211428Y-91198095D01*
X99173333Y-91160000D01*
X99097142Y-91121904D01*
X89264285Y-91721904D02*
X89530952Y-91340952D01*
X89721428Y-91721904D02*
X89721428Y-90921904D01*
X89416666Y-90921904D01*
X89340476Y-90960000D01*
X89302380Y-90998095D01*
X89264285Y-91074285D01*
X89264285Y-91188571D01*
X89302380Y-91264761D01*
X89340476Y-91302857D01*
X89416666Y-91340952D01*
X89721428Y-91340952D01*
X88959523Y-90998095D02*
X88921428Y-90960000D01*
X88845238Y-90921904D01*
X88654761Y-90921904D01*
X88578571Y-90960000D01*
X88540476Y-90998095D01*
X88502380Y-91074285D01*
X88502380Y-91150476D01*
X88540476Y-91264761D01*
X88997619Y-91721904D01*
X88502380Y-91721904D01*
X88121428Y-91721904D02*
X87969047Y-91721904D01*
X87892857Y-91683809D01*
X87854761Y-91645714D01*
X87778571Y-91531428D01*
X87740476Y-91379047D01*
X87740476Y-91074285D01*
X87778571Y-90998095D01*
X87816666Y-90960000D01*
X87892857Y-90921904D01*
X88045238Y-90921904D01*
X88121428Y-90960000D01*
X88159523Y-90998095D01*
X88197619Y-91074285D01*
X88197619Y-91264761D01*
X88159523Y-91340952D01*
X88121428Y-91379047D01*
X88045238Y-91417142D01*
X87892857Y-91417142D01*
X87816666Y-91379047D01*
X87778571Y-91340952D01*
X87740476Y-91264761D01*
X111711904Y-59445714D02*
X111330952Y-59179047D01*
X111711904Y-58988571D02*
X110911904Y-58988571D01*
X110911904Y-59293333D01*
X110950000Y-59369523D01*
X110988095Y-59407619D01*
X111064285Y-59445714D01*
X111178571Y-59445714D01*
X111254761Y-59407619D01*
X111292857Y-59369523D01*
X111330952Y-59293333D01*
X111330952Y-58988571D01*
X110911904Y-59712380D02*
X110911904Y-60207619D01*
X111216666Y-59940952D01*
X111216666Y-60055238D01*
X111254761Y-60131428D01*
X111292857Y-60169523D01*
X111369047Y-60207619D01*
X111559523Y-60207619D01*
X111635714Y-60169523D01*
X111673809Y-60131428D01*
X111711904Y-60055238D01*
X111711904Y-59826666D01*
X111673809Y-59750476D01*
X111635714Y-59712380D01*
X110911904Y-60893333D02*
X110911904Y-60740952D01*
X110950000Y-60664761D01*
X110988095Y-60626666D01*
X111102380Y-60550476D01*
X111254761Y-60512380D01*
X111559523Y-60512380D01*
X111635714Y-60550476D01*
X111673809Y-60588571D01*
X111711904Y-60664761D01*
X111711904Y-60817142D01*
X111673809Y-60893333D01*
X111635714Y-60931428D01*
X111559523Y-60969523D01*
X111369047Y-60969523D01*
X111292857Y-60931428D01*
X111254761Y-60893333D01*
X111216666Y-60817142D01*
X111216666Y-60664761D01*
X111254761Y-60588571D01*
X111292857Y-60550476D01*
X111369047Y-60512380D01*
X110864285Y-87121904D02*
X111130952Y-86740952D01*
X111321428Y-87121904D02*
X111321428Y-86321904D01*
X111016666Y-86321904D01*
X110940476Y-86360000D01*
X110902380Y-86398095D01*
X110864285Y-86474285D01*
X110864285Y-86588571D01*
X110902380Y-86664761D01*
X110940476Y-86702857D01*
X111016666Y-86740952D01*
X111321428Y-86740952D01*
X110597619Y-86321904D02*
X110102380Y-86321904D01*
X110369047Y-86626666D01*
X110254761Y-86626666D01*
X110178571Y-86664761D01*
X110140476Y-86702857D01*
X110102380Y-86779047D01*
X110102380Y-86969523D01*
X110140476Y-87045714D01*
X110178571Y-87083809D01*
X110254761Y-87121904D01*
X110483333Y-87121904D01*
X110559523Y-87083809D01*
X110597619Y-87045714D01*
X109416666Y-86588571D02*
X109416666Y-87121904D01*
X109607142Y-86283809D02*
X109797619Y-86855238D01*
X109302380Y-86855238D01*
X110864285Y-85921904D02*
X111130952Y-85540952D01*
X111321428Y-85921904D02*
X111321428Y-85121904D01*
X111016666Y-85121904D01*
X110940476Y-85160000D01*
X110902380Y-85198095D01*
X110864285Y-85274285D01*
X110864285Y-85388571D01*
X110902380Y-85464761D01*
X110940476Y-85502857D01*
X111016666Y-85540952D01*
X111321428Y-85540952D01*
X110597619Y-85121904D02*
X110102380Y-85121904D01*
X110369047Y-85426666D01*
X110254761Y-85426666D01*
X110178571Y-85464761D01*
X110140476Y-85502857D01*
X110102380Y-85579047D01*
X110102380Y-85769523D01*
X110140476Y-85845714D01*
X110178571Y-85883809D01*
X110254761Y-85921904D01*
X110483333Y-85921904D01*
X110559523Y-85883809D01*
X110597619Y-85845714D01*
X109835714Y-85121904D02*
X109340476Y-85121904D01*
X109607142Y-85426666D01*
X109492857Y-85426666D01*
X109416666Y-85464761D01*
X109378571Y-85502857D01*
X109340476Y-85579047D01*
X109340476Y-85769523D01*
X109378571Y-85845714D01*
X109416666Y-85883809D01*
X109492857Y-85921904D01*
X109721428Y-85921904D01*
X109797619Y-85883809D01*
X109835714Y-85845714D01*
X112864285Y-82121904D02*
X113130952Y-81740952D01*
X113321428Y-82121904D02*
X113321428Y-81321904D01*
X113016666Y-81321904D01*
X112940476Y-81360000D01*
X112902380Y-81398095D01*
X112864285Y-81474285D01*
X112864285Y-81588571D01*
X112902380Y-81664761D01*
X112940476Y-81702857D01*
X113016666Y-81740952D01*
X113321428Y-81740952D01*
X112597619Y-81321904D02*
X112102380Y-81321904D01*
X112369047Y-81626666D01*
X112254761Y-81626666D01*
X112178571Y-81664761D01*
X112140476Y-81702857D01*
X112102380Y-81779047D01*
X112102380Y-81969523D01*
X112140476Y-82045714D01*
X112178571Y-82083809D01*
X112254761Y-82121904D01*
X112483333Y-82121904D01*
X112559523Y-82083809D01*
X112597619Y-82045714D01*
X111797619Y-81398095D02*
X111759523Y-81360000D01*
X111683333Y-81321904D01*
X111492857Y-81321904D01*
X111416666Y-81360000D01*
X111378571Y-81398095D01*
X111340476Y-81474285D01*
X111340476Y-81550476D01*
X111378571Y-81664761D01*
X111835714Y-82121904D01*
X111340476Y-82121904D01*
X109311904Y-82645714D02*
X108930952Y-82379047D01*
X109311904Y-82188571D02*
X108511904Y-82188571D01*
X108511904Y-82493333D01*
X108550000Y-82569523D01*
X108588095Y-82607619D01*
X108664285Y-82645714D01*
X108778571Y-82645714D01*
X108854761Y-82607619D01*
X108892857Y-82569523D01*
X108930952Y-82493333D01*
X108930952Y-82188571D01*
X108511904Y-83369523D02*
X108511904Y-82988571D01*
X108892857Y-82950476D01*
X108854761Y-82988571D01*
X108816666Y-83064761D01*
X108816666Y-83255238D01*
X108854761Y-83331428D01*
X108892857Y-83369523D01*
X108969047Y-83407619D01*
X109159523Y-83407619D01*
X109235714Y-83369523D01*
X109273809Y-83331428D01*
X109311904Y-83255238D01*
X109311904Y-83064761D01*
X109273809Y-82988571D01*
X109235714Y-82950476D01*
X108854761Y-83864761D02*
X108816666Y-83788571D01*
X108778571Y-83750476D01*
X108702380Y-83712380D01*
X108664285Y-83712380D01*
X108588095Y-83750476D01*
X108550000Y-83788571D01*
X108511904Y-83864761D01*
X108511904Y-84017142D01*
X108550000Y-84093333D01*
X108588095Y-84131428D01*
X108664285Y-84169523D01*
X108702380Y-84169523D01*
X108778571Y-84131428D01*
X108816666Y-84093333D01*
X108854761Y-84017142D01*
X108854761Y-83864761D01*
X108892857Y-83788571D01*
X108930952Y-83750476D01*
X109007142Y-83712380D01*
X109159523Y-83712380D01*
X109235714Y-83750476D01*
X109273809Y-83788571D01*
X109311904Y-83864761D01*
X109311904Y-84017142D01*
X109273809Y-84093333D01*
X109235714Y-84131428D01*
X109159523Y-84169523D01*
X109007142Y-84169523D01*
X108930952Y-84131428D01*
X108892857Y-84093333D01*
X108854761Y-84017142D01*
X97864285Y-86921904D02*
X98130952Y-86540952D01*
X98321428Y-86921904D02*
X98321428Y-86121904D01*
X98016666Y-86121904D01*
X97940476Y-86160000D01*
X97902380Y-86198095D01*
X97864285Y-86274285D01*
X97864285Y-86388571D01*
X97902380Y-86464761D01*
X97940476Y-86502857D01*
X98016666Y-86540952D01*
X98321428Y-86540952D01*
X97178571Y-86388571D02*
X97178571Y-86921904D01*
X97369047Y-86083809D02*
X97559523Y-86655238D01*
X97064285Y-86655238D01*
X96721428Y-86921904D02*
X96569047Y-86921904D01*
X96492857Y-86883809D01*
X96454761Y-86845714D01*
X96378571Y-86731428D01*
X96340476Y-86579047D01*
X96340476Y-86274285D01*
X96378571Y-86198095D01*
X96416666Y-86160000D01*
X96492857Y-86121904D01*
X96645238Y-86121904D01*
X96721428Y-86160000D01*
X96759523Y-86198095D01*
X96797619Y-86274285D01*
X96797619Y-86464761D01*
X96759523Y-86540952D01*
X96721428Y-86579047D01*
X96645238Y-86617142D01*
X96492857Y-86617142D01*
X96416666Y-86579047D01*
X96378571Y-86540952D01*
X96340476Y-86464761D01*
X117911904Y-61715714D02*
X117530952Y-61449047D01*
X117911904Y-61258571D02*
X117111904Y-61258571D01*
X117111904Y-61563333D01*
X117150000Y-61639523D01*
X117188095Y-61677619D01*
X117264285Y-61715714D01*
X117378571Y-61715714D01*
X117454761Y-61677619D01*
X117492857Y-61639523D01*
X117530952Y-61563333D01*
X117530952Y-61258571D01*
X117188095Y-62020476D02*
X117150000Y-62058571D01*
X117111904Y-62134761D01*
X117111904Y-62325238D01*
X117150000Y-62401428D01*
X117188095Y-62439523D01*
X117264285Y-62477619D01*
X117340476Y-62477619D01*
X117454761Y-62439523D01*
X117911904Y-61982380D01*
X117911904Y-62477619D01*
X117911904Y-63239523D02*
X117911904Y-62782380D01*
X117911904Y-63010952D02*
X117111904Y-63010952D01*
X117226190Y-62934761D01*
X117302380Y-62858571D01*
X117340476Y-62782380D01*
X88664285Y-66521904D02*
X88930952Y-66140952D01*
X89121428Y-66521904D02*
X89121428Y-65721904D01*
X88816666Y-65721904D01*
X88740476Y-65760000D01*
X88702380Y-65798095D01*
X88664285Y-65874285D01*
X88664285Y-65988571D01*
X88702380Y-66064761D01*
X88740476Y-66102857D01*
X88816666Y-66140952D01*
X89121428Y-66140952D01*
X87902380Y-66521904D02*
X88359523Y-66521904D01*
X88130952Y-66521904D02*
X88130952Y-65721904D01*
X88207142Y-65836190D01*
X88283333Y-65912380D01*
X88359523Y-65950476D01*
X87407142Y-65721904D02*
X87330952Y-65721904D01*
X87254761Y-65760000D01*
X87216666Y-65798095D01*
X87178571Y-65874285D01*
X87140476Y-66026666D01*
X87140476Y-66217142D01*
X87178571Y-66369523D01*
X87216666Y-66445714D01*
X87254761Y-66483809D01*
X87330952Y-66521904D01*
X87407142Y-66521904D01*
X87483333Y-66483809D01*
X87521428Y-66445714D01*
X87559523Y-66369523D01*
X87597619Y-66217142D01*
X87597619Y-66026666D01*
X87559523Y-65874285D01*
X87521428Y-65798095D01*
X87483333Y-65760000D01*
X87407142Y-65721904D01*
X118997619Y-98921904D02*
X118997619Y-98121904D01*
X118730952Y-98693333D01*
X118464285Y-98121904D01*
X118464285Y-98921904D01*
X117740476Y-98121904D02*
X117892857Y-98121904D01*
X117969047Y-98160000D01*
X118007142Y-98198095D01*
X118083333Y-98312380D01*
X118121428Y-98464761D01*
X118121428Y-98769523D01*
X118083333Y-98845714D01*
X118045238Y-98883809D01*
X117969047Y-98921904D01*
X117816666Y-98921904D01*
X117740476Y-98883809D01*
X117702380Y-98845714D01*
X117664285Y-98769523D01*
X117664285Y-98579047D01*
X117702380Y-98502857D01*
X117740476Y-98464761D01*
X117816666Y-98426666D01*
X117969047Y-98426666D01*
X118045238Y-98464761D01*
X118083333Y-98502857D01*
X118121428Y-98579047D01*
X118997619Y-90321904D02*
X118997619Y-89521904D01*
X118730952Y-90093333D01*
X118464285Y-89521904D01*
X118464285Y-90321904D01*
X117702380Y-89521904D02*
X118083333Y-89521904D01*
X118121428Y-89902857D01*
X118083333Y-89864761D01*
X118007142Y-89826666D01*
X117816666Y-89826666D01*
X117740476Y-89864761D01*
X117702380Y-89902857D01*
X117664285Y-89979047D01*
X117664285Y-90169523D01*
X117702380Y-90245714D01*
X117740476Y-90283809D01*
X117816666Y-90321904D01*
X118007142Y-90321904D01*
X118083333Y-90283809D01*
X118121428Y-90245714D01*
X94313333Y-60356714D02*
X94351428Y-60394809D01*
X94465714Y-60432904D01*
X94541904Y-60432904D01*
X94656190Y-60394809D01*
X94732380Y-60318619D01*
X94770476Y-60242428D01*
X94808571Y-60090047D01*
X94808571Y-59975761D01*
X94770476Y-59823380D01*
X94732380Y-59747190D01*
X94656190Y-59671000D01*
X94541904Y-59632904D01*
X94465714Y-59632904D01*
X94351428Y-59671000D01*
X94313333Y-59709095D01*
X94046666Y-59632904D02*
X93551428Y-59632904D01*
X93818095Y-59937666D01*
X93703809Y-59937666D01*
X93627619Y-59975761D01*
X93589523Y-60013857D01*
X93551428Y-60090047D01*
X93551428Y-60280523D01*
X93589523Y-60356714D01*
X93627619Y-60394809D01*
X93703809Y-60432904D01*
X93932380Y-60432904D01*
X94008571Y-60394809D01*
X94046666Y-60356714D01*
X83835714Y-74615714D02*
X83873809Y-74577619D01*
X83911904Y-74463333D01*
X83911904Y-74387142D01*
X83873809Y-74272857D01*
X83797619Y-74196666D01*
X83721428Y-74158571D01*
X83569047Y-74120476D01*
X83454761Y-74120476D01*
X83302380Y-74158571D01*
X83226190Y-74196666D01*
X83150000Y-74272857D01*
X83111904Y-74387142D01*
X83111904Y-74463333D01*
X83150000Y-74577619D01*
X83188095Y-74615714D01*
X83378571Y-75301428D02*
X83911904Y-75301428D01*
X83073809Y-75110952D02*
X83645238Y-74920476D01*
X83645238Y-75415714D01*
X83111904Y-76063333D02*
X83111904Y-75910952D01*
X83150000Y-75834761D01*
X83188095Y-75796666D01*
X83302380Y-75720476D01*
X83454761Y-75682380D01*
X83759523Y-75682380D01*
X83835714Y-75720476D01*
X83873809Y-75758571D01*
X83911904Y-75834761D01*
X83911904Y-75987142D01*
X83873809Y-76063333D01*
X83835714Y-76101428D01*
X83759523Y-76139523D01*
X83569047Y-76139523D01*
X83492857Y-76101428D01*
X83454761Y-76063333D01*
X83416666Y-75987142D01*
X83416666Y-75834761D01*
X83454761Y-75758571D01*
X83492857Y-75720476D01*
X83569047Y-75682380D01*
X128864285Y-82645714D02*
X128902380Y-82683809D01*
X129016666Y-82721904D01*
X129092857Y-82721904D01*
X129207142Y-82683809D01*
X129283333Y-82607619D01*
X129321428Y-82531428D01*
X129359523Y-82379047D01*
X129359523Y-82264761D01*
X129321428Y-82112380D01*
X129283333Y-82036190D01*
X129207142Y-81960000D01*
X129092857Y-81921904D01*
X129016666Y-81921904D01*
X128902380Y-81960000D01*
X128864285Y-81998095D01*
X128178571Y-82188571D02*
X128178571Y-82721904D01*
X128369047Y-81883809D02*
X128559523Y-82455238D01*
X128064285Y-82455238D01*
X127378571Y-81921904D02*
X127759523Y-81921904D01*
X127797619Y-82302857D01*
X127759523Y-82264761D01*
X127683333Y-82226666D01*
X127492857Y-82226666D01*
X127416666Y-82264761D01*
X127378571Y-82302857D01*
X127340476Y-82379047D01*
X127340476Y-82569523D01*
X127378571Y-82645714D01*
X127416666Y-82683809D01*
X127492857Y-82721904D01*
X127683333Y-82721904D01*
X127759523Y-82683809D01*
X127797619Y-82645714D01*
X120235714Y-70245714D02*
X120273809Y-70207619D01*
X120311904Y-70093333D01*
X120311904Y-70017142D01*
X120273809Y-69902857D01*
X120197619Y-69826666D01*
X120121428Y-69788571D01*
X119969047Y-69750476D01*
X119854761Y-69750476D01*
X119702380Y-69788571D01*
X119626190Y-69826666D01*
X119550000Y-69902857D01*
X119511904Y-70017142D01*
X119511904Y-70093333D01*
X119550000Y-70207619D01*
X119588095Y-70245714D01*
X119511904Y-70512380D02*
X119511904Y-71007619D01*
X119816666Y-70740952D01*
X119816666Y-70855238D01*
X119854761Y-70931428D01*
X119892857Y-70969523D01*
X119969047Y-71007619D01*
X120159523Y-71007619D01*
X120235714Y-70969523D01*
X120273809Y-70931428D01*
X120311904Y-70855238D01*
X120311904Y-70626666D01*
X120273809Y-70550476D01*
X120235714Y-70512380D01*
X119854761Y-71464761D02*
X119816666Y-71388571D01*
X119778571Y-71350476D01*
X119702380Y-71312380D01*
X119664285Y-71312380D01*
X119588095Y-71350476D01*
X119550000Y-71388571D01*
X119511904Y-71464761D01*
X119511904Y-71617142D01*
X119550000Y-71693333D01*
X119588095Y-71731428D01*
X119664285Y-71769523D01*
X119702380Y-71769523D01*
X119778571Y-71731428D01*
X119816666Y-71693333D01*
X119854761Y-71617142D01*
X119854761Y-71464761D01*
X119892857Y-71388571D01*
X119930952Y-71350476D01*
X120007142Y-71312380D01*
X120159523Y-71312380D01*
X120235714Y-71350476D01*
X120273809Y-71388571D01*
X120311904Y-71464761D01*
X120311904Y-71617142D01*
X120273809Y-71693333D01*
X120235714Y-71731428D01*
X120159523Y-71769523D01*
X120007142Y-71769523D01*
X119930952Y-71731428D01*
X119892857Y-71693333D01*
X119854761Y-71617142D01*
X110684285Y-75845714D02*
X110722380Y-75883809D01*
X110836666Y-75921904D01*
X110912857Y-75921904D01*
X111027142Y-75883809D01*
X111103333Y-75807619D01*
X111141428Y-75731428D01*
X111179523Y-75579047D01*
X111179523Y-75464761D01*
X111141428Y-75312380D01*
X111103333Y-75236190D01*
X111027142Y-75160000D01*
X110912857Y-75121904D01*
X110836666Y-75121904D01*
X110722380Y-75160000D01*
X110684285Y-75198095D01*
X110417619Y-75121904D02*
X109922380Y-75121904D01*
X110189047Y-75426666D01*
X110074761Y-75426666D01*
X109998571Y-75464761D01*
X109960476Y-75502857D01*
X109922380Y-75579047D01*
X109922380Y-75769523D01*
X109960476Y-75845714D01*
X109998571Y-75883809D01*
X110074761Y-75921904D01*
X110303333Y-75921904D01*
X110379523Y-75883809D01*
X110417619Y-75845714D01*
X109655714Y-75121904D02*
X109122380Y-75121904D01*
X109465238Y-75921904D01*
X128864285Y-91245714D02*
X128902380Y-91283809D01*
X129016666Y-91321904D01*
X129092857Y-91321904D01*
X129207142Y-91283809D01*
X129283333Y-91207619D01*
X129321428Y-91131428D01*
X129359523Y-90979047D01*
X129359523Y-90864761D01*
X129321428Y-90712380D01*
X129283333Y-90636190D01*
X129207142Y-90560000D01*
X129092857Y-90521904D01*
X129016666Y-90521904D01*
X128902380Y-90560000D01*
X128864285Y-90598095D01*
X128597619Y-90521904D02*
X128102380Y-90521904D01*
X128369047Y-90826666D01*
X128254761Y-90826666D01*
X128178571Y-90864761D01*
X128140476Y-90902857D01*
X128102380Y-90979047D01*
X128102380Y-91169523D01*
X128140476Y-91245714D01*
X128178571Y-91283809D01*
X128254761Y-91321904D01*
X128483333Y-91321904D01*
X128559523Y-91283809D01*
X128597619Y-91245714D01*
X127416666Y-90521904D02*
X127569047Y-90521904D01*
X127645238Y-90560000D01*
X127683333Y-90598095D01*
X127759523Y-90712380D01*
X127797619Y-90864761D01*
X127797619Y-91169523D01*
X127759523Y-91245714D01*
X127721428Y-91283809D01*
X127645238Y-91321904D01*
X127492857Y-91321904D01*
X127416666Y-91283809D01*
X127378571Y-91245714D01*
X127340476Y-91169523D01*
X127340476Y-90979047D01*
X127378571Y-90902857D01*
X127416666Y-90864761D01*
X127492857Y-90826666D01*
X127645238Y-90826666D01*
X127721428Y-90864761D01*
X127759523Y-90902857D01*
X127797619Y-90979047D01*
X101454285Y-77645714D02*
X101492380Y-77683809D01*
X101606666Y-77721904D01*
X101682857Y-77721904D01*
X101797142Y-77683809D01*
X101873333Y-77607619D01*
X101911428Y-77531428D01*
X101949523Y-77379047D01*
X101949523Y-77264761D01*
X101911428Y-77112380D01*
X101873333Y-77036190D01*
X101797142Y-76960000D01*
X101682857Y-76921904D01*
X101606666Y-76921904D01*
X101492380Y-76960000D01*
X101454285Y-76998095D01*
X101187619Y-76921904D02*
X100692380Y-76921904D01*
X100959047Y-77226666D01*
X100844761Y-77226666D01*
X100768571Y-77264761D01*
X100730476Y-77302857D01*
X100692380Y-77379047D01*
X100692380Y-77569523D01*
X100730476Y-77645714D01*
X100768571Y-77683809D01*
X100844761Y-77721904D01*
X101073333Y-77721904D01*
X101149523Y-77683809D01*
X101187619Y-77645714D01*
X100425714Y-76921904D02*
X99930476Y-76921904D01*
X100197142Y-77226666D01*
X100082857Y-77226666D01*
X100006666Y-77264761D01*
X99968571Y-77302857D01*
X99930476Y-77379047D01*
X99930476Y-77569523D01*
X99968571Y-77645714D01*
X100006666Y-77683809D01*
X100082857Y-77721904D01*
X100311428Y-77721904D01*
X100387619Y-77683809D01*
X100425714Y-77645714D01*
X102604285Y-97645714D02*
X102642380Y-97683809D01*
X102756666Y-97721904D01*
X102832857Y-97721904D01*
X102947142Y-97683809D01*
X103023333Y-97607619D01*
X103061428Y-97531428D01*
X103099523Y-97379047D01*
X103099523Y-97264761D01*
X103061428Y-97112380D01*
X103023333Y-97036190D01*
X102947142Y-96960000D01*
X102832857Y-96921904D01*
X102756666Y-96921904D01*
X102642380Y-96960000D01*
X102604285Y-96998095D01*
X102337619Y-96921904D02*
X101842380Y-96921904D01*
X102109047Y-97226666D01*
X101994761Y-97226666D01*
X101918571Y-97264761D01*
X101880476Y-97302857D01*
X101842380Y-97379047D01*
X101842380Y-97569523D01*
X101880476Y-97645714D01*
X101918571Y-97683809D01*
X101994761Y-97721904D01*
X102223333Y-97721904D01*
X102299523Y-97683809D01*
X102337619Y-97645714D01*
X101537619Y-96998095D02*
X101499523Y-96960000D01*
X101423333Y-96921904D01*
X101232857Y-96921904D01*
X101156666Y-96960000D01*
X101118571Y-96998095D01*
X101080476Y-97074285D01*
X101080476Y-97150476D01*
X101118571Y-97264761D01*
X101575714Y-97721904D01*
X101080476Y-97721904D01*
X104854285Y-60356714D02*
X104892380Y-60394809D01*
X105006666Y-60432904D01*
X105082857Y-60432904D01*
X105197142Y-60394809D01*
X105273333Y-60318619D01*
X105311428Y-60242428D01*
X105349523Y-60090047D01*
X105349523Y-59975761D01*
X105311428Y-59823380D01*
X105273333Y-59747190D01*
X105197142Y-59671000D01*
X105082857Y-59632904D01*
X105006666Y-59632904D01*
X104892380Y-59671000D01*
X104854285Y-59709095D01*
X104130476Y-59632904D02*
X104511428Y-59632904D01*
X104549523Y-60013857D01*
X104511428Y-59975761D01*
X104435238Y-59937666D01*
X104244761Y-59937666D01*
X104168571Y-59975761D01*
X104130476Y-60013857D01*
X104092380Y-60090047D01*
X104092380Y-60280523D01*
X104130476Y-60356714D01*
X104168571Y-60394809D01*
X104244761Y-60432904D01*
X104435238Y-60432904D01*
X104511428Y-60394809D01*
X104549523Y-60356714D01*
X103406666Y-59899571D02*
X103406666Y-60432904D01*
X103597142Y-59594809D02*
X103787619Y-60166238D01*
X103292380Y-60166238D01*
X114234285Y-91845714D02*
X114272380Y-91883809D01*
X114386666Y-91921904D01*
X114462857Y-91921904D01*
X114577142Y-91883809D01*
X114653333Y-91807619D01*
X114691428Y-91731428D01*
X114729523Y-91579047D01*
X114729523Y-91464761D01*
X114691428Y-91312380D01*
X114653333Y-91236190D01*
X114577142Y-91160000D01*
X114462857Y-91121904D01*
X114386666Y-91121904D01*
X114272380Y-91160000D01*
X114234285Y-91198095D01*
X113548571Y-91388571D02*
X113548571Y-91921904D01*
X113739047Y-91083809D02*
X113929523Y-91655238D01*
X113434285Y-91655238D01*
X113205714Y-91121904D02*
X112710476Y-91121904D01*
X112977142Y-91426666D01*
X112862857Y-91426666D01*
X112786666Y-91464761D01*
X112748571Y-91502857D01*
X112710476Y-91579047D01*
X112710476Y-91769523D01*
X112748571Y-91845714D01*
X112786666Y-91883809D01*
X112862857Y-91921904D01*
X113091428Y-91921904D01*
X113167619Y-91883809D01*
X113205714Y-91845714D01*
X103424285Y-91845714D02*
X103462380Y-91883809D01*
X103576666Y-91921904D01*
X103652857Y-91921904D01*
X103767142Y-91883809D01*
X103843333Y-91807619D01*
X103881428Y-91731428D01*
X103919523Y-91579047D01*
X103919523Y-91464761D01*
X103881428Y-91312380D01*
X103843333Y-91236190D01*
X103767142Y-91160000D01*
X103652857Y-91121904D01*
X103576666Y-91121904D01*
X103462380Y-91160000D01*
X103424285Y-91198095D01*
X102738571Y-91388571D02*
X102738571Y-91921904D01*
X102929047Y-91083809D02*
X103119523Y-91655238D01*
X102624285Y-91655238D01*
X102357619Y-91198095D02*
X102319523Y-91160000D01*
X102243333Y-91121904D01*
X102052857Y-91121904D01*
X101976666Y-91160000D01*
X101938571Y-91198095D01*
X101900476Y-91274285D01*
X101900476Y-91350476D01*
X101938571Y-91464761D01*
X102395714Y-91921904D01*
X101900476Y-91921904D01*
X92894285Y-91645714D02*
X92932380Y-91683809D01*
X93046666Y-91721904D01*
X93122857Y-91721904D01*
X93237142Y-91683809D01*
X93313333Y-91607619D01*
X93351428Y-91531428D01*
X93389523Y-91379047D01*
X93389523Y-91264761D01*
X93351428Y-91112380D01*
X93313333Y-91036190D01*
X93237142Y-90960000D01*
X93122857Y-90921904D01*
X93046666Y-90921904D01*
X92932380Y-90960000D01*
X92894285Y-90998095D01*
X92208571Y-91188571D02*
X92208571Y-91721904D01*
X92399047Y-90883809D02*
X92589523Y-91455238D01*
X92094285Y-91455238D01*
X91370476Y-91721904D02*
X91827619Y-91721904D01*
X91599047Y-91721904D02*
X91599047Y-90921904D01*
X91675238Y-91036190D01*
X91751428Y-91112380D01*
X91827619Y-91150476D01*
X109934285Y-60356714D02*
X109972380Y-60394809D01*
X110086666Y-60432904D01*
X110162857Y-60432904D01*
X110277142Y-60394809D01*
X110353333Y-60318619D01*
X110391428Y-60242428D01*
X110429523Y-60090047D01*
X110429523Y-59975761D01*
X110391428Y-59823380D01*
X110353333Y-59747190D01*
X110277142Y-59671000D01*
X110162857Y-59632904D01*
X110086666Y-59632904D01*
X109972380Y-59671000D01*
X109934285Y-59709095D01*
X109248571Y-59899571D02*
X109248571Y-60432904D01*
X109439047Y-59594809D02*
X109629523Y-60166238D01*
X109134285Y-60166238D01*
X108715238Y-59975761D02*
X108791428Y-59937666D01*
X108829523Y-59899571D01*
X108867619Y-59823380D01*
X108867619Y-59785285D01*
X108829523Y-59709095D01*
X108791428Y-59671000D01*
X108715238Y-59632904D01*
X108562857Y-59632904D01*
X108486666Y-59671000D01*
X108448571Y-59709095D01*
X108410476Y-59785285D01*
X108410476Y-59823380D01*
X108448571Y-59899571D01*
X108486666Y-59937666D01*
X108562857Y-59975761D01*
X108715238Y-59975761D01*
X108791428Y-60013857D01*
X108829523Y-60051952D01*
X108867619Y-60128142D01*
X108867619Y-60280523D01*
X108829523Y-60356714D01*
X108791428Y-60394809D01*
X108715238Y-60432904D01*
X108562857Y-60432904D01*
X108486666Y-60394809D01*
X108448571Y-60356714D01*
X108410476Y-60280523D01*
X108410476Y-60128142D01*
X108448571Y-60051952D01*
X108486666Y-60013857D01*
X108562857Y-59975761D01*
X125544285Y-99645714D02*
X125582380Y-99683809D01*
X125696666Y-99721904D01*
X125772857Y-99721904D01*
X125887142Y-99683809D01*
X125963333Y-99607619D01*
X126001428Y-99531428D01*
X126039523Y-99379047D01*
X126039523Y-99264761D01*
X126001428Y-99112380D01*
X125963333Y-99036190D01*
X125887142Y-98960000D01*
X125772857Y-98921904D01*
X125696666Y-98921904D01*
X125582380Y-98960000D01*
X125544285Y-98998095D01*
X124858571Y-99188571D02*
X124858571Y-99721904D01*
X125049047Y-98883809D02*
X125239523Y-99455238D01*
X124744285Y-99455238D01*
X124287142Y-98921904D02*
X124210952Y-98921904D01*
X124134761Y-98960000D01*
X124096666Y-98998095D01*
X124058571Y-99074285D01*
X124020476Y-99226666D01*
X124020476Y-99417142D01*
X124058571Y-99569523D01*
X124096666Y-99645714D01*
X124134761Y-99683809D01*
X124210952Y-99721904D01*
X124287142Y-99721904D01*
X124363333Y-99683809D01*
X124401428Y-99645714D01*
X124439523Y-99569523D01*
X124477619Y-99417142D01*
X124477619Y-99226666D01*
X124439523Y-99074285D01*
X124401428Y-98998095D01*
X124363333Y-98960000D01*
X124287142Y-98921904D01*
X128264285Y-90045714D02*
X128302380Y-90083809D01*
X128416666Y-90121904D01*
X128492857Y-90121904D01*
X128607142Y-90083809D01*
X128683333Y-90007619D01*
X128721428Y-89931428D01*
X128759523Y-89779047D01*
X128759523Y-89664761D01*
X128721428Y-89512380D01*
X128683333Y-89436190D01*
X128607142Y-89360000D01*
X128492857Y-89321904D01*
X128416666Y-89321904D01*
X128302380Y-89360000D01*
X128264285Y-89398095D01*
X127997619Y-89321904D02*
X127502380Y-89321904D01*
X127769047Y-89626666D01*
X127654761Y-89626666D01*
X127578571Y-89664761D01*
X127540476Y-89702857D01*
X127502380Y-89779047D01*
X127502380Y-89969523D01*
X127540476Y-90045714D01*
X127578571Y-90083809D01*
X127654761Y-90121904D01*
X127883333Y-90121904D01*
X127959523Y-90083809D01*
X127997619Y-90045714D01*
X127121428Y-90121904D02*
X126969047Y-90121904D01*
X126892857Y-90083809D01*
X126854761Y-90045714D01*
X126778571Y-89931428D01*
X126740476Y-89779047D01*
X126740476Y-89474285D01*
X126778571Y-89398095D01*
X126816666Y-89360000D01*
X126892857Y-89321904D01*
X127045238Y-89321904D01*
X127121428Y-89360000D01*
X127159523Y-89398095D01*
X127197619Y-89474285D01*
X127197619Y-89664761D01*
X127159523Y-89740952D01*
X127121428Y-89779047D01*
X127045238Y-89817142D01*
X126892857Y-89817142D01*
X126816666Y-89779047D01*
X126778571Y-89740952D01*
X126740476Y-89664761D01*
X128264285Y-81445714D02*
X128302380Y-81483809D01*
X128416666Y-81521904D01*
X128492857Y-81521904D01*
X128607142Y-81483809D01*
X128683333Y-81407619D01*
X128721428Y-81331428D01*
X128759523Y-81179047D01*
X128759523Y-81064761D01*
X128721428Y-80912380D01*
X128683333Y-80836190D01*
X128607142Y-80760000D01*
X128492857Y-80721904D01*
X128416666Y-80721904D01*
X128302380Y-80760000D01*
X128264285Y-80798095D01*
X127578571Y-80988571D02*
X127578571Y-81521904D01*
X127769047Y-80683809D02*
X127959523Y-81255238D01*
X127464285Y-81255238D01*
X126816666Y-80988571D02*
X126816666Y-81521904D01*
X127007142Y-80683809D02*
X127197619Y-81255238D01*
X126702380Y-81255238D01*
X97064285Y-83045714D02*
X97102380Y-83083809D01*
X97216666Y-83121904D01*
X97292857Y-83121904D01*
X97407142Y-83083809D01*
X97483333Y-83007619D01*
X97521428Y-82931428D01*
X97559523Y-82779047D01*
X97559523Y-82664761D01*
X97521428Y-82512380D01*
X97483333Y-82436190D01*
X97407142Y-82360000D01*
X97292857Y-82321904D01*
X97216666Y-82321904D01*
X97102380Y-82360000D01*
X97064285Y-82398095D01*
X96378571Y-82588571D02*
X96378571Y-83121904D01*
X96569047Y-82283809D02*
X96759523Y-82855238D01*
X96264285Y-82855238D01*
X95921428Y-83121904D02*
X95769047Y-83121904D01*
X95692857Y-83083809D01*
X95654761Y-83045714D01*
X95578571Y-82931428D01*
X95540476Y-82779047D01*
X95540476Y-82474285D01*
X95578571Y-82398095D01*
X95616666Y-82360000D01*
X95692857Y-82321904D01*
X95845238Y-82321904D01*
X95921428Y-82360000D01*
X95959523Y-82398095D01*
X95997619Y-82474285D01*
X95997619Y-82664761D01*
X95959523Y-82740952D01*
X95921428Y-82779047D01*
X95845238Y-82817142D01*
X95692857Y-82817142D01*
X95616666Y-82779047D01*
X95578571Y-82740952D01*
X95540476Y-82664761D01*
X115014285Y-60356714D02*
X115052380Y-60394809D01*
X115166666Y-60432904D01*
X115242857Y-60432904D01*
X115357142Y-60394809D01*
X115433333Y-60318619D01*
X115471428Y-60242428D01*
X115509523Y-60090047D01*
X115509523Y-59975761D01*
X115471428Y-59823380D01*
X115433333Y-59747190D01*
X115357142Y-59671000D01*
X115242857Y-59632904D01*
X115166666Y-59632904D01*
X115052380Y-59671000D01*
X115014285Y-59709095D01*
X114747619Y-59632904D02*
X114252380Y-59632904D01*
X114519047Y-59937666D01*
X114404761Y-59937666D01*
X114328571Y-59975761D01*
X114290476Y-60013857D01*
X114252380Y-60090047D01*
X114252380Y-60280523D01*
X114290476Y-60356714D01*
X114328571Y-60394809D01*
X114404761Y-60432904D01*
X114633333Y-60432904D01*
X114709523Y-60394809D01*
X114747619Y-60356714D01*
X113490476Y-60432904D02*
X113947619Y-60432904D01*
X113719047Y-60432904D02*
X113719047Y-59632904D01*
X113795238Y-59747190D01*
X113871428Y-59823380D01*
X113947619Y-59861476D01*
X114235714Y-85645714D02*
X114273809Y-85607619D01*
X114311904Y-85493333D01*
X114311904Y-85417142D01*
X114273809Y-85302857D01*
X114197619Y-85226666D01*
X114121428Y-85188571D01*
X113969047Y-85150476D01*
X113854761Y-85150476D01*
X113702380Y-85188571D01*
X113626190Y-85226666D01*
X113550000Y-85302857D01*
X113511904Y-85417142D01*
X113511904Y-85493333D01*
X113550000Y-85607619D01*
X113588095Y-85645714D01*
X114311904Y-86407619D02*
X114311904Y-85950476D01*
X114311904Y-86179047D02*
X113511904Y-86179047D01*
X113626190Y-86102857D01*
X113702380Y-86026666D01*
X113740476Y-85950476D01*
X113588095Y-86712380D02*
X113550000Y-86750476D01*
X113511904Y-86826666D01*
X113511904Y-87017142D01*
X113550000Y-87093333D01*
X113588095Y-87131428D01*
X113664285Y-87169523D01*
X113740476Y-87169523D01*
X113854761Y-87131428D01*
X114311904Y-86674285D01*
X114311904Y-87169523D01*
X113435714Y-73905714D02*
X113473809Y-73867619D01*
X113511904Y-73753333D01*
X113511904Y-73677142D01*
X113473809Y-73562857D01*
X113397619Y-73486666D01*
X113321428Y-73448571D01*
X113169047Y-73410476D01*
X113054761Y-73410476D01*
X112902380Y-73448571D01*
X112826190Y-73486666D01*
X112750000Y-73562857D01*
X112711904Y-73677142D01*
X112711904Y-73753333D01*
X112750000Y-73867619D01*
X112788095Y-73905714D01*
X113511904Y-74667619D02*
X113511904Y-74210476D01*
X113511904Y-74439047D02*
X112711904Y-74439047D01*
X112826190Y-74362857D01*
X112902380Y-74286666D01*
X112940476Y-74210476D01*
X112711904Y-75162857D02*
X112711904Y-75239047D01*
X112750000Y-75315238D01*
X112788095Y-75353333D01*
X112864285Y-75391428D01*
X113016666Y-75429523D01*
X113207142Y-75429523D01*
X113359523Y-75391428D01*
X113435714Y-75353333D01*
X113473809Y-75315238D01*
X113511904Y-75239047D01*
X113511904Y-75162857D01*
X113473809Y-75086666D01*
X113435714Y-75048571D01*
X113359523Y-75010476D01*
X113207142Y-74972380D01*
X113016666Y-74972380D01*
X112864285Y-75010476D01*
X112788095Y-75048571D01*
X112750000Y-75086666D01*
X112711904Y-75162857D01*
X107603333Y-66845714D02*
X107641428Y-66883809D01*
X107755714Y-66921904D01*
X107831904Y-66921904D01*
X107946190Y-66883809D01*
X108022380Y-66807619D01*
X108060476Y-66731428D01*
X108098571Y-66579047D01*
X108098571Y-66464761D01*
X108060476Y-66312380D01*
X108022380Y-66236190D01*
X107946190Y-66160000D01*
X107831904Y-66121904D01*
X107755714Y-66121904D01*
X107641428Y-66160000D01*
X107603333Y-66198095D01*
X107146190Y-66464761D02*
X107222380Y-66426666D01*
X107260476Y-66388571D01*
X107298571Y-66312380D01*
X107298571Y-66274285D01*
X107260476Y-66198095D01*
X107222380Y-66160000D01*
X107146190Y-66121904D01*
X106993809Y-66121904D01*
X106917619Y-66160000D01*
X106879523Y-66198095D01*
X106841428Y-66274285D01*
X106841428Y-66312380D01*
X106879523Y-66388571D01*
X106917619Y-66426666D01*
X106993809Y-66464761D01*
X107146190Y-66464761D01*
X107222380Y-66502857D01*
X107260476Y-66540952D01*
X107298571Y-66617142D01*
X107298571Y-66769523D01*
X107260476Y-66845714D01*
X107222380Y-66883809D01*
X107146190Y-66921904D01*
X106993809Y-66921904D01*
X106917619Y-66883809D01*
X106879523Y-66845714D01*
X106841428Y-66769523D01*
X106841428Y-66617142D01*
X106879523Y-66540952D01*
X106917619Y-66502857D01*
X106993809Y-66464761D01*
X89795285Y-52482714D02*
X89833380Y-52520809D01*
X89947666Y-52558904D01*
X90023857Y-52558904D01*
X90138142Y-52520809D01*
X90214333Y-52444619D01*
X90252428Y-52368428D01*
X90290523Y-52216047D01*
X90290523Y-52101761D01*
X90252428Y-51949380D01*
X90214333Y-51873190D01*
X90138142Y-51797000D01*
X90023857Y-51758904D01*
X89947666Y-51758904D01*
X89833380Y-51797000D01*
X89795285Y-51835095D01*
X89490523Y-51835095D02*
X89452428Y-51797000D01*
X89376238Y-51758904D01*
X89185761Y-51758904D01*
X89109571Y-51797000D01*
X89071476Y-51835095D01*
X89033380Y-51911285D01*
X89033380Y-51987476D01*
X89071476Y-52101761D01*
X89528619Y-52558904D01*
X89033380Y-52558904D01*
X88766714Y-51758904D02*
X88271476Y-51758904D01*
X88538142Y-52063666D01*
X88423857Y-52063666D01*
X88347666Y-52101761D01*
X88309571Y-52139857D01*
X88271476Y-52216047D01*
X88271476Y-52406523D01*
X88309571Y-52482714D01*
X88347666Y-52520809D01*
X88423857Y-52558904D01*
X88652428Y-52558904D01*
X88728619Y-52520809D01*
X88766714Y-52482714D01*
X89584285Y-60465714D02*
X89622380Y-60503809D01*
X89736666Y-60541904D01*
X89812857Y-60541904D01*
X89927142Y-60503809D01*
X90003333Y-60427619D01*
X90041428Y-60351428D01*
X90079523Y-60199047D01*
X90079523Y-60084761D01*
X90041428Y-59932380D01*
X90003333Y-59856190D01*
X89927142Y-59780000D01*
X89812857Y-59741904D01*
X89736666Y-59741904D01*
X89622380Y-59780000D01*
X89584285Y-59818095D01*
X89279523Y-59818095D02*
X89241428Y-59780000D01*
X89165238Y-59741904D01*
X88974761Y-59741904D01*
X88898571Y-59780000D01*
X88860476Y-59818095D01*
X88822380Y-59894285D01*
X88822380Y-59970476D01*
X88860476Y-60084761D01*
X89317619Y-60541904D01*
X88822380Y-60541904D01*
X88517619Y-59818095D02*
X88479523Y-59780000D01*
X88403333Y-59741904D01*
X88212857Y-59741904D01*
X88136666Y-59780000D01*
X88098571Y-59818095D01*
X88060476Y-59894285D01*
X88060476Y-59970476D01*
X88098571Y-60084761D01*
X88555714Y-60541904D01*
X88060476Y-60541904D01*
X94932380Y-58553333D02*
X94551428Y-58553333D01*
X95008571Y-58781904D02*
X94741904Y-57981904D01*
X94475238Y-58781904D01*
X94246666Y-58743809D02*
X94132380Y-58781904D01*
X93941904Y-58781904D01*
X93865714Y-58743809D01*
X93827619Y-58705714D01*
X93789523Y-58629523D01*
X93789523Y-58553333D01*
X93827619Y-58477142D01*
X93865714Y-58439047D01*
X93941904Y-58400952D01*
X94094285Y-58362857D01*
X94170476Y-58324761D01*
X94208571Y-58286666D01*
X94246666Y-58210476D01*
X94246666Y-58134285D01*
X94208571Y-58058095D01*
X94170476Y-58020000D01*
X94094285Y-57981904D01*
X93903809Y-57981904D01*
X93789523Y-58020000D01*
X93484761Y-58058095D02*
X93446666Y-58020000D01*
X93370476Y-57981904D01*
X93180000Y-57981904D01*
X93103809Y-58020000D01*
X93065714Y-58058095D01*
X93027619Y-58134285D01*
X93027619Y-58210476D01*
X93065714Y-58324761D01*
X93522857Y-58781904D01*
X93027619Y-58781904D01*
X105483333Y-58553333D02*
X105102380Y-58553333D01*
X105559523Y-58781904D02*
X105292857Y-57981904D01*
X105026190Y-58781904D01*
X104797619Y-58743809D02*
X104683333Y-58781904D01*
X104492857Y-58781904D01*
X104416666Y-58743809D01*
X104378571Y-58705714D01*
X104340476Y-58629523D01*
X104340476Y-58553333D01*
X104378571Y-58477142D01*
X104416666Y-58439047D01*
X104492857Y-58400952D01*
X104645238Y-58362857D01*
X104721428Y-58324761D01*
X104759523Y-58286666D01*
X104797619Y-58210476D01*
X104797619Y-58134285D01*
X104759523Y-58058095D01*
X104721428Y-58020000D01*
X104645238Y-57981904D01*
X104454761Y-57981904D01*
X104340476Y-58020000D01*
X103578571Y-58781904D02*
X104035714Y-58781904D01*
X103807142Y-58781904D02*
X103807142Y-57981904D01*
X103883333Y-58096190D01*
X103959523Y-58172380D01*
X104035714Y-58210476D01*
X102854761Y-57981904D02*
X103235714Y-57981904D01*
X103273809Y-58362857D01*
X103235714Y-58324761D01*
X103159523Y-58286666D01*
X102969047Y-58286666D01*
X102892857Y-58324761D01*
X102854761Y-58362857D01*
X102816666Y-58439047D01*
X102816666Y-58629523D01*
X102854761Y-58705714D01*
X102892857Y-58743809D01*
X102969047Y-58781904D01*
X103159523Y-58781904D01*
X103235714Y-58743809D01*
X103273809Y-58705714D01*
X110553333Y-58553333D02*
X110172380Y-58553333D01*
X110629523Y-58781904D02*
X110362857Y-57981904D01*
X110096190Y-58781904D01*
X109867619Y-58743809D02*
X109753333Y-58781904D01*
X109562857Y-58781904D01*
X109486666Y-58743809D01*
X109448571Y-58705714D01*
X109410476Y-58629523D01*
X109410476Y-58553333D01*
X109448571Y-58477142D01*
X109486666Y-58439047D01*
X109562857Y-58400952D01*
X109715238Y-58362857D01*
X109791428Y-58324761D01*
X109829523Y-58286666D01*
X109867619Y-58210476D01*
X109867619Y-58134285D01*
X109829523Y-58058095D01*
X109791428Y-58020000D01*
X109715238Y-57981904D01*
X109524761Y-57981904D01*
X109410476Y-58020000D01*
X108648571Y-58781904D02*
X109105714Y-58781904D01*
X108877142Y-58781904D02*
X108877142Y-57981904D01*
X108953333Y-58096190D01*
X109029523Y-58172380D01*
X109105714Y-58210476D01*
X108381904Y-57981904D02*
X107886666Y-57981904D01*
X108153333Y-58286666D01*
X108039047Y-58286666D01*
X107962857Y-58324761D01*
X107924761Y-58362857D01*
X107886666Y-58439047D01*
X107886666Y-58629523D01*
X107924761Y-58705714D01*
X107962857Y-58743809D01*
X108039047Y-58781904D01*
X108267619Y-58781904D01*
X108343809Y-58743809D01*
X108381904Y-58705714D01*
X115252380Y-58553333D02*
X114871428Y-58553333D01*
X115328571Y-58781904D02*
X115061904Y-57981904D01*
X114795238Y-58781904D01*
X114566666Y-58743809D02*
X114452380Y-58781904D01*
X114261904Y-58781904D01*
X114185714Y-58743809D01*
X114147619Y-58705714D01*
X114109523Y-58629523D01*
X114109523Y-58553333D01*
X114147619Y-58477142D01*
X114185714Y-58439047D01*
X114261904Y-58400952D01*
X114414285Y-58362857D01*
X114490476Y-58324761D01*
X114528571Y-58286666D01*
X114566666Y-58210476D01*
X114566666Y-58134285D01*
X114528571Y-58058095D01*
X114490476Y-58020000D01*
X114414285Y-57981904D01*
X114223809Y-57981904D01*
X114109523Y-58020000D01*
X113728571Y-58781904D02*
X113576190Y-58781904D01*
X113500000Y-58743809D01*
X113461904Y-58705714D01*
X113385714Y-58591428D01*
X113347619Y-58439047D01*
X113347619Y-58134285D01*
X113385714Y-58058095D01*
X113423809Y-58020000D01*
X113500000Y-57981904D01*
X113652380Y-57981904D01*
X113728571Y-58020000D01*
X113766666Y-58058095D01*
X113804761Y-58134285D01*
X113804761Y-58324761D01*
X113766666Y-58400952D01*
X113728571Y-58439047D01*
X113652380Y-58477142D01*
X113500000Y-58477142D01*
X113423809Y-58439047D01*
X113385714Y-58400952D01*
X113347619Y-58324761D01*
X89852380Y-50933333D02*
X89471428Y-50933333D01*
X89928571Y-51161904D02*
X89661904Y-50361904D01*
X89395238Y-51161904D01*
X89166666Y-51123809D02*
X89052380Y-51161904D01*
X88861904Y-51161904D01*
X88785714Y-51123809D01*
X88747619Y-51085714D01*
X88709523Y-51009523D01*
X88709523Y-50933333D01*
X88747619Y-50857142D01*
X88785714Y-50819047D01*
X88861904Y-50780952D01*
X89014285Y-50742857D01*
X89090476Y-50704761D01*
X89128571Y-50666666D01*
X89166666Y-50590476D01*
X89166666Y-50514285D01*
X89128571Y-50438095D01*
X89090476Y-50400000D01*
X89014285Y-50361904D01*
X88823809Y-50361904D01*
X88709523Y-50400000D01*
X88023809Y-50628571D02*
X88023809Y-51161904D01*
X88214285Y-50323809D02*
X88404761Y-50895238D01*
X87909523Y-50895238D01*
X89852380Y-58553333D02*
X89471428Y-58553333D01*
X89928571Y-58781904D02*
X89661904Y-57981904D01*
X89395238Y-58781904D01*
X89166666Y-58743809D02*
X89052380Y-58781904D01*
X88861904Y-58781904D01*
X88785714Y-58743809D01*
X88747619Y-58705714D01*
X88709523Y-58629523D01*
X88709523Y-58553333D01*
X88747619Y-58477142D01*
X88785714Y-58439047D01*
X88861904Y-58400952D01*
X89014285Y-58362857D01*
X89090476Y-58324761D01*
X89128571Y-58286666D01*
X89166666Y-58210476D01*
X89166666Y-58134285D01*
X89128571Y-58058095D01*
X89090476Y-58020000D01*
X89014285Y-57981904D01*
X88823809Y-57981904D01*
X88709523Y-58020000D01*
X88442857Y-57981904D02*
X87947619Y-57981904D01*
X88214285Y-58286666D01*
X88100000Y-58286666D01*
X88023809Y-58324761D01*
X87985714Y-58362857D01*
X87947619Y-58439047D01*
X87947619Y-58629523D01*
X87985714Y-58705714D01*
X88023809Y-58743809D01*
X88100000Y-58781904D01*
X88328571Y-58781904D01*
X88404761Y-58743809D01*
X88442857Y-58705714D01*
M02*
