M48
; DRILL file {KiCad (5.1.6)-1} date 09/14/20 11:10:19
; FORMAT={-:-/ absolute / metric / decimal}
; #@! TF.CreationDate,2020-09-14T11:10:19+02:00
; #@! TF.GenerationSoftware,Kicad,Pcbnew,(5.1.6)-1
FMAT,2
METRIC
T1C0.200
T2C0.450
T3C0.500
T4C0.800
T5C0.850
T6C1.250
T7C3.200
%
G90
G05
T1
X-4.12Y58.95
X-4.08Y72.96
X-3.62Y78.26
X-3.38Y61.68
X-3.07Y76.95
X-3.032Y58.932
X-2.762Y63.07
X-2.76Y64.06
X-2.609Y77.53
X-2.5Y81.09
X-2.49Y74.74
X-2.167Y46.16
X-1.87Y79.81
X-1.87Y73.46
X-1.614Y34.98
X-1.273Y72.233
X-1.271Y73.906
X-1.269Y80.256
X-1.07Y75.07
X-1.06Y52.88
X-0.87Y78.6
X-0.67Y81.42
X-0.67Y79.81
X-0.67Y73.46
X-0.634Y39.5
X-0.634Y38.23
X-0.634Y36.96
X-0.63Y60.84
X-0.63Y60.1
X-0.6Y41.4
X-0.59Y52.3
X-0.532Y76.49
X-0.22Y43.76
X-0.17Y53.55
X-0.06Y75.49
X-0.06Y74.75
X0.02Y67.87
X0.05Y70.22
X0.07Y81.42
X0.25Y49.56
X0.25Y46.02
X0.27Y56.95
X0.36Y70.9
X0.39Y57.92
X0.405Y58.938
X0.41Y59.98
X0.57Y80.87
X0.67Y76.9
X0.67Y68.96
X0.88Y49.17
X0.88Y48.28
X0.88Y47.37
X0.88Y46.48
X0.88Y45.57
X0.88Y44.67
X0.939Y60.789
X1.07Y67.74
X1.1Y65.91
X1.17Y79.51
X1.23Y52.59
X1.271Y69.396
X1.281Y77.333
X1.433Y71.91
X1.47Y75.68
X1.778Y52.088
X1.78Y51.34
X1.84Y65.91
X1.846Y38.036
X1.87Y76.88
X1.87Y68.95
X2.03Y67.75
X2.302Y67.0
X2.416Y37.15
X2.49Y70.23
X2.59Y75.05
X2.604Y63.284
X2.74Y65.91
X2.78Y78.84
X2.801Y51.524
X2.95Y68.16
X2.99Y38.036
X3.08Y46.91
X3.136Y39.5
X3.179Y67.0
X3.21Y73.46
X3.25Y71.24
X3.353Y63.155
X3.41Y79.4
X3.42Y78.0
X3.617Y58.757
X3.617Y65.91
X3.64Y60.47
X3.81Y73.9
X4.01Y75.07
X4.056Y67.0
X4.12Y49.41
X4.174Y60.986
X4.18Y53.14
X4.18Y51.05
X4.18Y44.55
X4.2Y70.46
X4.2Y46.78
X4.39Y60.26
X4.42Y73.47
X4.494Y65.91
X4.57Y55.91
X4.57Y55.17
X4.57Y48.4
X4.598Y57.659
X4.599Y56.66
X4.8Y75.07
X4.933Y67.0
X4.946Y81.024
X5.09Y70.23
X5.196Y38.23
X5.196Y36.96
X5.196Y35.69
X5.356Y39.5
X5.372Y65.91
X5.44Y70.9
X5.56Y75.06
X5.56Y72.65
X5.81Y67.0
X6.205Y81.015
X6.23Y44.55
X6.347Y69.395
X6.496Y75.19
X6.55Y67.74
X6.57Y71.91
X6.62Y66.65
X6.77Y55.41
X6.77Y54.41
X6.86Y50.67
X6.86Y49.93
X6.86Y49.19
X6.86Y48.45
X6.95Y68.95
X7.04Y47.04
X7.04Y46.27
X7.084Y65.2
X7.1Y51.38
X7.373Y75.19
X7.43Y56.2
X7.43Y54.75
X7.456Y39.251
X7.57Y70.22
X7.57Y67.81
X7.59Y51.98
X8.078Y39.698
X8.086Y52.536
X8.1Y54.42
X8.25Y75.19
X8.29Y73.46
X8.316Y68.434
X8.5Y63.649
X8.59Y53.179
X8.69Y71.36
X8.712Y40.145
X8.891Y73.906
X8.932Y34.97
X8.95Y67.1
X9.08Y54.41
X9.09Y42.39
X9.094Y72.248
X9.16Y75.19
X9.452Y40.145
X9.474Y66.574
X9.49Y73.46
X9.59Y55.3
X9.74Y67.74
X9.9Y75.19
X9.912Y39.5
X9.912Y38.22
X9.912Y36.96
X10.086Y42.394
X10.09Y65.92
X10.17Y51.71
X10.17Y50.97
X10.21Y70.22
X10.23Y50.05
X10.23Y49.29
X10.23Y48.52
X10.23Y47.75
X10.23Y46.98
X10.23Y46.2
X10.23Y45.42
X10.48Y67.74
X10.52Y70.9
X10.59Y63.73
X10.59Y62.87
X10.634Y44.72
X10.643Y75.19
X10.83Y68.95
X10.86Y66.47
X11.08Y50.05
X11.09Y46.14
X11.2Y63.31
X11.22Y67.74
X11.431Y69.396
X11.52Y55.28
X11.53Y75.19
X11.59Y44.72
X11.637Y71.947
X11.784Y52.256
X11.93Y50.05
X11.96Y42.4
X12.03Y68.95
X12.03Y67.74
X12.07Y63.31
X12.17Y55.95
X12.255Y38.036
X12.26Y55.21
X12.33Y44.72
X12.35Y66.47
X12.36Y51.37
X12.41Y75.19
X12.65Y70.215
X12.71Y42.4
X12.8Y50.05
X12.832Y37.15
X12.85Y56.61
X12.91Y55.87
X12.926Y52.256
X13.09Y66.47
X13.19Y45.64
X13.19Y44.72
X13.293Y75.19
X13.31Y67.31
X13.37Y73.46
X13.398Y38.036
X13.5Y57.24
X13.6Y56.5
X13.65Y50.05
X13.662Y39.5
X13.74Y46.19
X13.84Y63.32
X13.84Y42.4
X13.86Y71.91
X13.88Y68.34
X13.971Y73.906
X14.14Y57.91
X14.18Y75.19
X14.24Y57.17
X14.42Y41.67
X14.452Y34.772
X14.5Y50.05
X14.5Y49.29
X14.5Y48.52
X14.5Y47.75
X14.5Y46.98
X14.5Y46.2
X14.57Y73.46
X14.78Y58.56
X14.83Y42.4
X14.84Y66.0
X14.84Y63.32
X14.841Y71.41
X14.88Y57.82
X14.92Y75.19
X15.23Y50.91
X15.23Y49.86
X15.29Y72.17
X15.29Y70.22
X15.43Y59.21
X15.52Y58.47
X15.57Y63.72
X15.58Y66.0
X15.59Y42.4
X15.6Y70.9
X15.666Y75.19
X15.682Y40.6
X15.732Y38.22
X15.732Y36.96
X15.732Y35.69
X15.762Y50.382
X15.807Y48.52
X15.892Y39.5
X15.91Y68.95
X16.064Y59.846
X16.08Y63.17
X16.17Y59.11
X16.348Y67.748
X16.467Y72.44
X16.509Y69.396
X16.522Y40.16
X16.543Y75.19
X16.58Y63.72
X16.59Y45.72
X16.734Y60.516
X16.82Y59.78
X17.08Y63.17
X17.11Y68.95
X17.42Y75.19
X17.58Y67.4
X17.58Y66.66
X17.58Y63.72
X17.722Y38.15
X17.73Y70.22
X17.83Y49.2
X17.83Y48.46
X17.83Y47.72
X17.83Y46.96
X17.83Y46.2
X17.83Y45.46
X17.83Y44.72
X17.882Y35.235
X18.08Y63.17
X18.086Y42.404
X18.16Y75.19
X18.222Y36.957
X18.45Y73.46
X18.46Y68.05
X18.462Y34.77
X18.49Y60.32
X18.58Y63.72
X18.58Y44.72
X18.65Y49.2
X18.902Y40.16
X18.95Y71.91
X19.049Y75.19
X19.051Y73.906
X19.09Y68.44
X19.09Y66.66
X19.19Y47.94
X19.23Y60.32
X19.32Y44.72
X19.341Y63.747
X19.4Y59.25
X19.4Y58.51
X19.468Y36.27
X19.48Y49.2
X19.488Y40.612
X19.58Y42.4
X19.65Y73.46
X19.79Y75.19
X19.83Y66.66
X20.08Y41.85
X20.27Y71.91
X20.3Y49.2
X20.3Y48.46
X20.34Y63.74
X20.37Y70.22
X20.445Y36.957
X20.448Y39.5
X20.448Y38.23
X20.45Y46.35
X20.53Y75.19
X20.57Y66.66
X20.58Y65.92
X20.59Y42.4
X20.86Y44.72
X20.99Y68.95
X21.01Y47.75
X21.014Y59.856
X21.04Y49.2
X21.06Y45.46
X21.09Y41.85
X21.29Y71.56
X21.59Y58.97
X21.59Y44.59
X21.591Y69.396
X21.707Y75.19
X21.707Y72.55
X21.73Y62.26
X21.73Y61.3
X21.8Y47.75
X21.8Y46.96
X21.8Y46.2
X21.8Y45.46
X22.103Y67.73
X22.156Y59.856
X22.19Y68.95
X22.33Y63.281
X22.33Y42.4
X22.524Y65.92
X22.61Y75.18
X22.81Y70.215
X22.928Y38.026
X22.98Y67.74
X23.12Y62.93
X23.27Y65.92
X23.33Y42.4
X23.41Y71.25
X23.49Y75.18
X23.498Y37.14
X23.53Y73.46
X23.65Y57.71
X23.69Y45.41
X24.02Y58.36
X24.072Y38.026
X24.129Y73.906
X24.13Y71.91
X24.218Y39.5
X24.29Y62.92
X24.39Y57.71
X24.4Y67.32
X24.48Y75.18
X24.58Y63.72
X24.73Y73.46
X25.09Y65.92
X25.229Y75.182
X25.47Y70.23
X25.68Y42.4
X25.68Y41.45
X25.77Y71.73
X25.77Y70.99
X25.8Y44.67
X25.9Y62.15
X25.9Y61.41
X25.9Y60.65
X25.9Y59.91
X25.908Y48.284
X25.909Y47.31
X25.909Y46.36
X25.91Y49.03
X25.91Y45.41
X25.92Y58.16
X25.92Y57.41
X26.278Y35.69
X26.288Y38.23
X26.288Y36.96
X26.33Y44.14
X26.41Y75.18
X26.438Y39.5
X26.621Y66.61
X26.621Y65.869
X26.671Y69.396
X26.765Y71.985
X27.18Y67.4
X27.27Y68.95
X27.67Y75.18
X27.89Y70.215
X28.075Y45.651
X28.076Y46.666
X28.09Y60.41
X28.09Y59.41
X28.09Y58.42
X28.09Y47.41
X28.187Y54.037
X28.19Y61.45
X28.49Y63.77
X28.5Y71.25
X28.53Y45.06
X28.61Y73.46
X28.63Y44.092
X28.667Y56.243
X28.78Y54.49
X28.79Y41.67
X28.98Y60.07
X29.12Y67.32
X29.135Y52.435
X29.14Y53.18
X29.2Y55.71
X29.21Y73.9
X29.326Y41.14
X29.42Y36.29
X29.69Y39.71
X29.72Y60.07
X29.81Y75.18
X29.81Y73.46
X30.0Y48.9
X30.23Y51.05
X30.23Y42.48
X30.23Y41.42
X30.535Y57.06
X30.54Y58.61
X30.54Y57.87
X30.672Y66.51
X30.672Y65.77
X30.7Y61.05
X30.7Y60.31
X30.93Y75.18
X30.988Y33.539
X31.35Y57.87
X31.36Y71.85
X31.38Y63.51
X31.731Y33.539
X32.004Y36.91
X32.23Y46.54
X32.37Y34.63
X32.78Y53.84
X32.8Y52.66
X32.84Y48.77
X33.103Y43.332
X33.11Y34.318
X34.05Y55.06
X34.56Y56.94
X34.79Y43.664
X34.9Y63.008
X35.35Y47.77
X35.35Y47.03
X35.35Y38.13
X35.35Y37.39
X35.42Y57.6
X35.61Y39.07
X35.73Y48.7
X35.85Y55.81
X35.85Y55.05
X35.89Y61.01
X36.09Y47.77
X36.09Y47.03
X36.09Y38.13
X36.09Y37.39
X36.138Y52.35
X36.177Y42.942
X36.29Y33.84
X36.35Y39.81
X36.35Y39.07
X36.47Y49.44
X36.47Y48.7
X36.55Y56.94
X36.61Y53.85
X36.69Y45.32
X36.69Y35.71
X36.738Y47.4
X36.738Y37.76
X37.09Y39.81
X37.21Y49.44
X37.21Y48.7
X37.23Y63.51
X38.12Y48.94
X38.18Y62.72
X38.2Y57.88
X38.51Y43.24
X38.51Y42.47
X38.51Y33.84
X39.05Y56.39
X39.05Y55.12
X39.05Y51.44
X39.05Y50.7
X39.05Y46.48
X39.05Y40.13
X39.05Y39.12
X39.05Y37.85
X39.05Y49.63
X39.05Y47.75
X39.05Y40.875
X-2.21Y56.0
X-1.31Y56.5
X-1.31Y55.5
X-0.41Y56.0
X33.79Y51.67
X33.79Y50.67
X33.79Y49.67
X34.79Y51.67
X34.79Y50.67
X34.79Y49.67
X33.79Y47.34
X33.79Y46.24
X33.79Y37.7
X33.79Y36.6
X33.79Y42.03
X33.79Y41.03
X33.79Y40.03
X34.79Y42.03
X34.79Y41.03
X34.79Y40.03
X33.41Y60.06
X34.31Y60.56
X34.31Y59.56
X35.21Y60.06
X-2.16Y62.63
X-1.06Y62.63
T2
X40.26Y70.02
X41.79Y70.02
X41.82Y75.12
X43.17Y76.47
X43.17Y72.62
X43.17Y70.72
X43.17Y39.2
X43.17Y37.72
X43.17Y33.51
X43.17Y32.03
X44.97Y70.17
X45.745Y71.495
T3
X77.61Y0.0
X78.313Y1.697
X78.313Y-1.697
X80.01Y2.4
X80.01Y-2.4
X81.707Y1.697
X81.707Y-1.697
X82.41Y0.0
X-2.4Y0.0
X-1.697Y1.697
X-1.697Y-1.697
X0.0Y2.4
X0.0Y-2.4
X1.697Y1.697
X1.697Y-1.697
X2.4Y0.0
X75.07Y85.725
X75.773Y87.422
X75.773Y84.028
X77.47Y88.125
X77.47Y83.325
X79.167Y87.422
X79.167Y84.028
X79.87Y85.725
X1.41Y85.725
X2.113Y87.422
X2.113Y84.028
X3.81Y88.125
X3.81Y83.325
X5.507Y87.422
X5.507Y84.028
X6.21Y85.725
T4
X8.89Y80.645
X8.89Y78.105
X11.43Y80.645
X11.43Y78.105
X13.97Y80.645
X13.97Y78.105
X16.51Y80.645
X16.51Y78.105
X19.05Y80.645
X19.05Y78.105
X21.59Y80.645
X21.59Y78.105
X24.13Y80.645
X24.13Y78.105
X26.67Y80.645
X26.67Y78.105
X29.21Y80.645
X29.21Y78.105
X31.75Y80.645
X31.75Y78.105
X34.29Y80.645
X34.29Y78.105
X36.83Y80.645
X36.83Y78.105
X39.37Y80.645
X39.37Y78.105
X41.91Y80.645
X41.91Y78.105
X44.45Y80.645
X44.45Y78.105
X46.99Y80.645
X46.99Y78.105
X49.53Y80.645
X49.53Y78.105
X52.07Y80.645
X52.07Y78.105
X54.61Y80.645
X54.61Y78.105
X57.15Y80.645
X57.15Y78.105
X59.69Y80.645
X59.69Y78.105
X62.23Y80.645
X62.23Y78.105
X64.77Y80.645
X64.77Y78.105
X67.31Y80.645
X67.31Y78.105
X69.85Y80.645
X69.85Y78.105
X72.39Y80.645
X72.39Y78.105
X8.89Y85.725
X8.89Y83.185
X11.43Y85.725
X11.43Y83.185
X13.97Y85.725
X13.97Y83.185
X16.51Y85.725
X16.51Y83.185
X19.05Y85.725
X19.05Y83.185
X21.59Y85.725
X21.59Y83.185
X24.13Y85.725
X24.13Y83.185
X26.67Y85.725
X26.67Y83.185
X29.21Y85.725
X29.21Y83.185
X31.75Y85.725
X31.75Y83.185
X34.29Y85.725
X34.29Y83.185
X36.83Y85.725
X36.83Y83.185
X39.37Y85.725
X39.37Y83.185
X41.91Y85.725
X41.91Y83.185
X44.45Y85.725
X44.45Y83.185
X46.99Y85.725
X46.99Y83.185
X49.53Y85.725
X49.53Y83.185
X52.07Y85.725
X52.07Y83.185
X54.61Y85.725
X54.61Y83.185
X57.15Y85.725
X57.15Y83.185
X59.69Y85.725
X59.69Y83.185
X62.23Y85.725
X62.23Y83.185
X64.77Y85.725
X64.77Y83.185
X67.31Y85.725
X67.31Y83.185
X69.85Y85.725
X69.85Y83.185
X72.39Y85.725
X72.39Y83.185
T5
X-0.635Y26.67
X-0.635Y24.13
X-0.635Y21.59
X-0.635Y19.05
X-0.635Y16.51
X-0.635Y13.97
X-0.635Y11.43
X-0.635Y8.89
X-0.635Y6.35
X1.905Y29.21
X1.905Y26.67
X1.905Y24.13
X1.905Y21.59
X1.905Y19.05
X1.905Y16.51
X1.905Y13.97
X1.905Y11.43
X1.905Y8.89
X1.905Y6.35
X3.175Y26.67
X3.175Y24.13
X3.175Y21.59
X3.175Y19.05
X3.175Y16.51
X3.175Y13.97
X3.175Y11.43
X3.175Y8.89
X3.175Y6.35
X4.445Y29.21
X4.445Y26.67
X4.445Y24.13
X4.445Y21.59
X4.445Y19.05
X4.445Y16.51
X4.445Y13.97
X4.445Y11.43
X4.445Y8.89
X4.445Y6.35
X6.985Y29.21
X6.985Y26.67
X6.985Y24.13
X6.985Y21.59
X6.985Y19.05
X6.985Y16.51
X6.985Y13.97
X6.985Y11.43
X6.985Y8.89
X6.985Y6.35
X6.985Y3.81
X6.985Y1.27
X9.525Y29.21
X9.525Y26.67
X9.525Y24.13
X9.525Y21.59
X9.525Y19.05
X9.525Y16.51
X9.525Y13.97
X9.525Y11.43
X9.525Y8.89
X9.525Y6.35
X9.525Y3.81
X9.525Y1.27
X12.065Y29.21
X12.065Y26.67
X12.065Y24.13
X12.065Y21.59
X12.065Y19.05
X12.065Y16.51
X12.065Y13.97
X12.065Y11.43
X12.065Y8.89
X12.065Y6.35
X12.065Y3.81
X12.065Y1.27
X14.605Y29.21
X14.605Y26.67
X14.605Y24.13
X14.605Y21.59
X14.605Y19.05
X14.605Y16.51
X14.605Y13.97
X14.605Y11.43
X14.605Y8.89
X14.605Y6.35
X14.605Y3.81
X14.605Y1.27
X17.145Y29.21
X17.145Y26.67
X17.145Y24.13
X17.145Y6.35
X17.145Y3.81
X17.145Y1.27
X19.685Y29.21
X19.685Y26.67
X19.685Y24.13
X19.685Y6.35
X19.685Y3.81
X19.685Y1.27
X22.225Y29.21
X22.225Y26.67
X22.225Y24.13
X22.225Y6.35
X22.225Y3.81
X22.225Y1.27
X24.765Y29.21
X24.765Y26.67
X24.765Y24.13
X24.765Y6.35
X24.765Y3.81
X24.765Y1.27
X27.305Y29.21
X27.305Y26.67
X27.305Y24.13
X27.305Y21.59
X27.305Y19.05
X27.305Y16.51
X27.305Y13.97
X27.305Y11.43
X27.305Y8.89
X27.305Y6.35
X27.305Y3.81
X27.305Y1.27
X29.845Y29.21
X29.845Y26.67
X29.845Y24.13
X29.845Y21.59
X29.845Y19.05
X29.845Y16.51
X29.845Y13.97
X29.845Y11.43
X29.845Y8.89
X29.845Y6.35
X29.845Y3.81
X29.845Y1.27
X32.385Y29.21
X32.385Y26.67
X32.385Y24.13
X32.385Y21.59
X32.385Y19.05
X32.385Y16.51
X32.385Y13.97
X32.385Y11.43
X32.385Y8.89
X32.385Y6.35
X32.385Y3.81
X32.385Y1.27
X34.925Y29.21
X34.925Y26.67
X34.925Y24.13
X34.925Y21.59
X34.925Y19.05
X34.925Y16.51
X34.925Y13.97
X34.925Y11.43
X34.925Y8.89
X34.925Y6.35
X34.925Y3.81
X34.925Y1.27
X37.465Y29.21
X37.465Y26.67
X37.465Y24.13
X37.465Y21.59
X37.465Y19.05
X37.465Y16.51
X37.465Y13.97
X37.465Y11.43
X37.465Y8.89
X37.465Y6.35
X37.465Y3.81
X37.465Y1.27
X40.005Y29.21
X40.005Y26.67
X40.005Y24.13
X40.005Y21.59
X40.005Y19.05
X40.005Y16.51
X40.005Y13.97
X40.005Y11.43
X40.005Y8.89
X40.005Y6.35
X40.005Y3.81
X40.005Y1.27
X42.545Y29.21
X42.545Y26.67
X42.545Y24.13
X42.545Y21.59
X42.545Y19.05
X42.545Y16.51
X42.545Y13.97
X42.545Y11.43
X42.545Y8.89
X42.545Y6.35
X42.545Y3.81
X42.545Y1.27
X45.085Y29.21
X45.085Y26.67
X45.085Y24.13
X45.085Y21.59
X45.085Y19.05
X45.085Y16.51
X45.085Y13.97
X45.085Y11.43
X45.085Y8.89
X45.085Y6.35
X45.085Y3.81
X45.085Y1.27
X47.625Y69.85
X47.625Y67.31
X47.625Y64.77
X47.625Y62.23
X47.625Y59.69
X47.625Y57.15
X47.625Y54.61
X47.625Y52.07
X47.625Y49.53
X47.625Y46.99
X47.625Y44.45
X47.625Y41.91
X47.625Y39.37
X47.625Y36.83
X47.625Y34.29
X47.625Y31.75
X47.625Y29.21
X47.625Y26.67
X47.625Y24.13
X47.625Y21.59
X47.625Y19.05
X47.625Y16.51
X47.625Y13.97
X47.625Y11.43
X47.625Y8.89
X47.625Y6.35
X47.625Y3.81
X47.625Y1.27
X50.165Y72.39
X50.165Y69.85
X50.165Y67.31
X50.165Y64.77
X50.165Y62.23
X50.165Y59.69
X50.165Y57.15
X50.165Y54.61
X50.165Y52.07
X50.165Y49.53
X50.165Y46.99
X50.165Y44.45
X50.165Y41.91
X50.165Y39.37
X50.165Y36.83
X50.165Y34.29
X50.165Y31.75
X50.165Y29.21
X50.165Y26.67
X50.165Y24.13
X50.165Y21.59
X50.165Y19.05
X50.165Y16.51
X50.165Y13.97
X50.165Y11.43
X50.165Y8.89
X50.165Y6.35
X50.165Y3.81
X50.165Y1.27
X51.435Y69.85
X51.435Y67.31
X51.435Y64.77
X51.435Y62.23
X51.435Y59.69
X51.435Y57.15
X51.435Y54.61
X51.435Y52.07
X51.435Y49.53
X51.435Y46.99
X51.435Y44.45
X51.435Y41.91
X51.435Y39.37
X51.435Y36.83
X51.435Y34.29
X51.435Y31.75
X52.705Y72.39
X52.705Y69.85
X52.705Y67.31
X52.705Y64.77
X52.705Y62.23
X52.705Y59.69
X52.705Y57.15
X52.705Y54.61
X52.705Y52.07
X52.705Y49.53
X52.705Y46.99
X52.705Y44.45
X52.705Y41.91
X52.705Y39.37
X52.705Y36.83
X52.705Y34.29
X52.705Y31.75
X52.705Y29.21
X52.705Y26.67
X52.705Y24.13
X52.705Y21.59
X52.705Y19.05
X52.705Y16.51
X52.705Y13.97
X52.705Y11.43
X52.705Y8.89
X52.705Y6.35
X52.705Y3.81
X52.705Y1.27
X55.245Y72.39
X55.245Y69.85
X55.245Y67.31
X55.245Y64.77
X55.245Y62.23
X55.245Y59.69
X55.245Y57.15
X55.245Y54.61
X55.245Y52.07
X55.245Y49.53
X55.245Y46.99
X55.245Y44.45
X55.245Y41.91
X55.245Y39.37
X55.245Y36.83
X55.245Y34.29
X55.245Y31.75
X55.245Y29.21
X55.245Y26.67
X55.245Y24.13
X55.245Y6.35
X55.245Y3.81
X55.245Y1.27
X57.785Y72.39
X57.785Y69.85
X57.785Y67.31
X57.785Y64.77
X57.785Y62.23
X57.785Y59.69
X57.785Y57.15
X57.785Y54.61
X57.785Y52.07
X57.785Y49.53
X57.785Y46.99
X57.785Y44.45
X57.785Y41.91
X57.785Y39.37
X57.785Y36.83
X57.785Y34.29
X57.785Y31.75
X57.785Y29.21
X57.785Y26.67
X57.785Y24.13
X57.785Y6.35
X57.785Y3.81
X57.785Y1.27
X60.325Y72.39
X60.325Y69.85
X60.325Y67.31
X60.325Y64.77
X60.325Y62.23
X60.325Y59.69
X60.325Y57.15
X60.325Y54.61
X60.325Y52.07
X60.325Y49.53
X60.325Y46.99
X60.325Y44.45
X60.325Y41.91
X60.325Y39.37
X60.325Y36.83
X60.325Y34.29
X60.325Y31.75
X60.325Y29.21
X60.325Y26.67
X60.325Y24.13
X60.325Y6.35
X60.325Y3.81
X60.325Y1.27
X62.865Y72.39
X62.865Y69.85
X62.865Y67.31
X62.865Y64.77
X62.865Y62.23
X62.865Y59.69
X62.865Y57.15
X62.865Y54.61
X62.865Y52.07
X62.865Y49.53
X62.865Y46.99
X62.865Y44.45
X62.865Y41.91
X62.865Y39.37
X62.865Y36.83
X62.865Y34.29
X62.865Y31.75
X62.865Y29.21
X62.865Y26.67
X62.865Y24.13
X62.865Y6.35
X62.865Y3.81
X62.865Y1.27
X65.405Y72.39
X65.405Y69.85
X65.405Y67.31
X65.405Y64.77
X65.405Y62.23
X65.405Y59.69
X65.405Y57.15
X65.405Y54.61
X65.405Y52.07
X65.405Y49.53
X65.405Y46.99
X65.405Y44.45
X65.405Y41.91
X65.405Y39.37
X65.405Y36.83
X65.405Y34.29
X65.405Y31.75
X65.405Y29.21
X65.405Y26.67
X65.405Y24.13
X65.405Y21.59
X65.405Y19.05
X65.405Y16.51
X65.405Y13.97
X65.405Y11.43
X65.405Y8.89
X65.405Y6.35
X65.405Y3.81
X65.405Y1.27
X67.945Y72.39
X67.945Y69.85
X67.945Y67.31
X67.945Y64.77
X67.945Y62.23
X67.945Y59.69
X67.945Y57.15
X67.945Y54.61
X67.945Y52.07
X67.945Y49.53
X67.945Y46.99
X67.945Y44.45
X67.945Y41.91
X67.945Y39.37
X67.945Y36.83
X67.945Y34.29
X67.945Y31.75
X67.945Y29.21
X67.945Y26.67
X67.945Y24.13
X67.945Y21.59
X67.945Y19.05
X67.945Y16.51
X67.945Y13.97
X67.945Y11.43
X67.945Y8.89
X67.945Y6.35
X67.945Y3.81
X67.945Y1.27
X70.485Y72.39
X70.485Y69.85
X70.485Y67.31
X70.485Y64.77
X70.485Y62.23
X70.485Y59.69
X70.485Y57.15
X70.485Y54.61
X70.485Y52.07
X70.485Y49.53
X70.485Y46.99
X70.485Y44.45
X70.485Y41.91
X70.485Y39.37
X70.485Y36.83
X70.485Y34.29
X70.485Y31.75
X70.485Y29.21
X70.485Y26.67
X70.485Y24.13
X70.485Y21.59
X70.485Y19.05
X70.485Y16.51
X70.485Y13.97
X70.485Y11.43
X70.485Y8.89
X70.485Y6.35
X70.485Y3.81
X70.485Y1.27
X73.025Y72.39
X73.025Y69.85
X73.025Y67.31
X73.025Y64.77
X73.025Y62.23
X73.025Y59.69
X73.025Y57.15
X73.025Y54.61
X73.025Y52.07
X73.025Y49.53
X73.025Y46.99
X73.025Y44.45
X73.025Y41.91
X73.025Y39.37
X73.025Y36.83
X73.025Y34.29
X73.025Y31.75
X73.025Y29.21
X73.025Y26.67
X73.025Y24.13
X73.025Y21.59
X73.025Y19.05
X73.025Y16.51
X73.025Y13.97
X73.025Y11.43
X73.025Y8.89
X73.025Y6.35
X73.025Y3.81
X73.025Y1.27
X75.565Y72.39
X75.565Y69.85
X75.565Y67.31
X75.565Y64.77
X75.565Y62.23
X75.565Y59.69
X75.565Y57.15
X75.565Y54.61
X75.565Y52.07
X75.565Y49.53
X75.565Y46.99
X75.565Y44.45
X75.565Y41.91
X75.565Y39.37
X75.565Y36.83
X75.565Y34.29
X75.565Y31.75
X75.565Y29.21
X75.565Y26.67
X75.565Y24.13
X75.565Y21.59
X75.565Y19.05
X75.565Y16.51
X75.565Y13.97
X75.565Y11.43
X75.565Y8.89
X75.565Y6.35
X76.835Y69.85
X76.835Y67.31
X76.835Y64.77
X76.835Y62.23
X76.835Y59.69
X76.835Y57.15
X76.835Y54.61
X76.835Y52.07
X76.835Y49.53
X76.835Y46.99
X76.835Y44.45
X76.835Y41.91
X76.835Y39.37
X76.835Y36.83
X76.835Y34.29
X76.835Y31.75
X76.835Y26.67
X76.835Y24.13
X76.835Y21.59
X76.835Y19.05
X76.835Y16.51
X76.835Y13.97
X76.835Y11.43
X76.835Y8.89
X76.835Y6.35
X78.105Y72.39
X78.105Y69.85
X78.105Y67.31
X78.105Y64.77
X78.105Y62.23
X78.105Y59.69
X78.105Y57.15
X78.105Y54.61
X78.105Y52.07
X78.105Y49.53
X78.105Y46.99
X78.105Y44.45
X78.105Y41.91
X78.105Y39.37
X78.105Y36.83
X78.105Y34.29
X78.105Y31.75
X78.105Y29.21
X78.105Y26.67
X78.105Y24.13
X78.105Y21.59
X78.105Y19.05
X78.105Y16.51
X78.105Y13.97
X78.105Y11.43
X78.105Y8.89
X78.105Y6.35
X80.645Y69.85
X80.645Y67.31
X80.645Y64.77
X80.645Y62.23
X80.645Y59.69
X80.645Y57.15
X80.645Y54.61
X80.645Y52.07
X80.645Y49.53
X80.645Y46.99
X80.645Y44.45
X80.645Y41.91
X80.645Y39.37
X80.645Y36.83
X80.645Y34.29
X80.645Y31.75
X80.645Y29.21
X80.645Y26.67
X80.645Y24.13
X80.645Y21.59
X80.645Y19.05
X80.645Y16.51
X80.645Y13.97
X80.645Y11.43
X80.645Y8.89
X80.645Y6.35
T6
X-2.63Y84.86
X-2.63Y88.36
T7
X3.81Y85.725
X80.01Y0.0
X0.0Y0.0
X77.47Y85.725
T0
M30
