G04 #@! TF.GenerationSoftware,KiCad,Pcbnew,(5.1.6)-1*
G04 #@! TF.CreationDate,2020-09-14T11:10:16+02:00*
G04 #@! TF.ProjectId,board_sierra,626f6172-645f-4736-9965-7272612e6b69,v1.1*
G04 #@! TF.SameCoordinates,PX1903cf0PY6c69e80*
G04 #@! TF.FileFunction,Legend,Top*
G04 #@! TF.FilePolarity,Positive*
%FSLAX46Y46*%
G04 Gerber Fmt 4.6, Leading zero omitted, Abs format (unit mm)*
G04 Created by KiCad (PCBNEW (5.1.6)-1) date 2020-09-14 11:10:16*
%MOMM*%
%LPD*%
G01*
G04 APERTURE LIST*
%ADD10C,0.160000*%
%ADD11C,0.450000*%
%ADD12C,0.400000*%
G04 #@! TA.AperFunction,Profile*
%ADD13C,0.100000*%
G04 #@! TD*
%ADD14C,0.200000*%
%ADD15C,0.010000*%
%ADD16C,0.250000*%
G04 APERTURE END LIST*
D10*
X-1100000Y85990477D02*
X-1138096Y85914286D01*
X-1138096Y85800000D01*
X-1100000Y85685715D01*
X-1023810Y85609524D01*
X-947620Y85571429D01*
X-795239Y85533334D01*
X-680953Y85533334D01*
X-528572Y85571429D01*
X-452381Y85609524D01*
X-376191Y85685715D01*
X-338096Y85800000D01*
X-338096Y85876191D01*
X-376191Y85990477D01*
X-414286Y86028572D01*
X-680953Y86028572D01*
X-680953Y85876191D01*
X-338096Y86371429D02*
X-1138096Y86371429D01*
X-338096Y86828572D01*
X-1138096Y86828572D01*
X-338096Y87209524D02*
X-1138096Y87209524D01*
X-1138096Y87400000D01*
X-1100000Y87514286D01*
X-1023810Y87590477D01*
X-947620Y87628572D01*
X-795239Y87666667D01*
X-680953Y87666667D01*
X-528572Y87628572D01*
X-452381Y87590477D01*
X-376191Y87514286D01*
X-338096Y87400000D01*
X-338096Y87209524D01*
X1610000Y51120000D02*
X3810000Y50038000D01*
D11*
X33427142Y73264643D02*
X34177142Y71014643D01*
X34927142Y73264643D01*
X35570000Y71121786D02*
X35891428Y71014643D01*
X36427142Y71014643D01*
X36641428Y71121786D01*
X36748571Y71228929D01*
X36855714Y71443215D01*
X36855714Y71657500D01*
X36748571Y71871786D01*
X36641428Y71978929D01*
X36427142Y72086072D01*
X35998571Y72193215D01*
X35784285Y72300358D01*
X35677142Y72407500D01*
X35570000Y72621786D01*
X35570000Y72836072D01*
X35677142Y73050358D01*
X35784285Y73157500D01*
X35998571Y73264643D01*
X36534285Y73264643D01*
X36855714Y73157500D01*
X37498571Y73264643D02*
X38784285Y73264643D01*
X38141428Y71014643D02*
X38141428Y73264643D01*
X40712857Y71014643D02*
X39427142Y71014643D01*
X40070000Y71014643D02*
X40070000Y73264643D01*
X39855714Y72943215D01*
X39641428Y72728929D01*
X39427142Y72621786D01*
X42105714Y73264643D02*
X42320000Y73264643D01*
X42534285Y73157500D01*
X42641428Y73050358D01*
X42748571Y72836072D01*
X42855714Y72407500D01*
X42855714Y71871786D01*
X42748571Y71443215D01*
X42641428Y71228929D01*
X42534285Y71121786D01*
X42320000Y71014643D01*
X42105714Y71014643D01*
X41891428Y71121786D01*
X41784285Y71228929D01*
X41677142Y71443215D01*
X41570000Y71871786D01*
X41570000Y72407500D01*
X41677142Y72836072D01*
X41784285Y73050358D01*
X41891428Y73157500D01*
X42105714Y73264643D01*
X44784285Y72514643D02*
X44784285Y71014643D01*
X44248571Y73371786D02*
X43712857Y71764643D01*
X45105714Y71764643D01*
X34766428Y67296786D02*
X35087857Y67189643D01*
X35623571Y67189643D01*
X35837857Y67296786D01*
X35945000Y67403929D01*
X36052142Y67618215D01*
X36052142Y67832500D01*
X35945000Y68046786D01*
X35837857Y68153929D01*
X35623571Y68261072D01*
X35195000Y68368215D01*
X34980714Y68475358D01*
X34873571Y68582500D01*
X34766428Y68796786D01*
X34766428Y69011072D01*
X34873571Y69225358D01*
X34980714Y69332500D01*
X35195000Y69439643D01*
X35730714Y69439643D01*
X36052142Y69332500D01*
X37016428Y67189643D02*
X37016428Y68689643D01*
X37016428Y69439643D02*
X36909285Y69332500D01*
X37016428Y69225358D01*
X37123571Y69332500D01*
X37016428Y69439643D01*
X37016428Y69225358D01*
X38945000Y67296786D02*
X38730714Y67189643D01*
X38302142Y67189643D01*
X38087857Y67296786D01*
X37980714Y67511072D01*
X37980714Y68368215D01*
X38087857Y68582500D01*
X38302142Y68689643D01*
X38730714Y68689643D01*
X38945000Y68582500D01*
X39052142Y68368215D01*
X39052142Y68153929D01*
X37980714Y67939643D01*
X40016428Y67189643D02*
X40016428Y68689643D01*
X40016428Y68261072D02*
X40123571Y68475358D01*
X40230714Y68582500D01*
X40445000Y68689643D01*
X40659285Y68689643D01*
X41409285Y67189643D02*
X41409285Y68689643D01*
X41409285Y68261072D02*
X41516428Y68475358D01*
X41623571Y68582500D01*
X41837857Y68689643D01*
X42052142Y68689643D01*
X43766428Y67189643D02*
X43766428Y68368215D01*
X43659285Y68582500D01*
X43445000Y68689643D01*
X43016428Y68689643D01*
X42802142Y68582500D01*
X43766428Y67296786D02*
X43552142Y67189643D01*
X43016428Y67189643D01*
X42802142Y67296786D01*
X42695000Y67511072D01*
X42695000Y67725358D01*
X42802142Y67939643D01*
X43016428Y68046786D01*
X43552142Y68046786D01*
X43766428Y68153929D01*
D12*
X39320000Y54320000D02*
X39320000Y55750000D01*
X39320000Y33020000D02*
X39320000Y35320000D01*
D10*
X42720000Y43120000D02*
X42720000Y36120000D01*
X42720000Y36320000D02*
X40720000Y36320000D01*
X40720000Y36320000D02*
X41120000Y36520000D01*
X40720000Y36320000D02*
X41120000Y36120000D01*
X40720000Y46520000D02*
X41120000Y46720000D01*
X40720000Y46520000D02*
X41120000Y46320000D01*
X42720000Y46520000D02*
X40720000Y46520000D01*
X42720000Y53320000D02*
X42720000Y46320000D01*
X39320000Y60120000D02*
X41520000Y60120000D01*
X40520000Y62520000D02*
X40520000Y57720000D01*
X28520000Y66120000D02*
X21920000Y66120000D01*
X1920000Y56520000D02*
X4120000Y56520000D01*
X3120000Y58720000D02*
X3120000Y53920000D01*
X10120000Y66120000D02*
X3520000Y66120000D01*
D13*
X50355500Y88900000D02*
G75*
G03*
X51308000Y89852500I0J952500D01*
G01*
X31940500Y88900000D02*
X50355500Y88900000D01*
X52260500Y90805000D02*
X84137500Y90805000D01*
X30988000Y89852500D02*
G75*
G03*
X30035500Y90805000I-952500J0D01*
G01*
X30988000Y89852500D02*
G75*
G03*
X31940500Y88900000I952500J0D01*
G01*
X-4127500Y90805000D02*
X30035500Y90805000D01*
X52260500Y90805000D02*
G75*
G03*
X51308000Y89852500I0J-952500D01*
G01*
D12*
X-3280000Y33020000D02*
X39320000Y33020000D01*
D13*
X52260500Y-5080000D02*
X84137500Y-5080000D01*
X31940500Y-3175000D02*
X50355500Y-3175000D01*
X-4127500Y-5080000D02*
X30035500Y-5080000D01*
X52260500Y-5080000D02*
G75*
G02*
X51308000Y-4127500I0J952500D01*
G01*
X50355500Y-3175000D02*
G75*
G02*
X51308000Y-4127500I0J-952500D01*
G01*
X30988000Y-4127500D02*
G75*
G02*
X31940500Y-3175000I952500J0D01*
G01*
X30988000Y-4127500D02*
G75*
G02*
X30035500Y-5080000I-952500J0D01*
G01*
X84137500Y53009800D02*
G75*
G03*
X83185000Y52057300I0J-952500D01*
G01*
X85090000Y89852500D02*
X85090000Y53962300D01*
X83185000Y52057300D02*
X83185000Y33667700D01*
X85090000Y31762700D02*
X85090000Y-4127500D01*
X83185000Y33667700D02*
G75*
G03*
X84137500Y32715200I952500J0D01*
G01*
X85090000Y31762700D02*
G75*
G03*
X84137500Y32715200I-952500J0D01*
G01*
X84137500Y53009800D02*
G75*
G03*
X85090000Y53962300I0J952500D01*
G01*
X85090000Y-4127500D02*
G75*
G02*
X84137500Y-5080000I-952500J0D01*
G01*
X84137500Y90805000D02*
G75*
G02*
X85090000Y89852500I0J-952500D01*
G01*
X-5080000Y31762700D02*
X-5080000Y-4127500D01*
X-5080000Y89852500D02*
X-5080000Y53962300D01*
X-5080000Y89852500D02*
G75*
G02*
X-4127500Y90805000I952500J0D01*
G01*
X-3175000Y52057300D02*
X-3175000Y33667700D01*
X-4127500Y53009800D02*
G75*
G02*
X-5080000Y53962300I0J952500D01*
G01*
X-4127500Y53009800D02*
G75*
G02*
X-3175000Y52057300I0J-952500D01*
G01*
X-3175000Y33667700D02*
G75*
G02*
X-4127500Y32715200I-952500J0D01*
G01*
X-5080000Y31762700D02*
G75*
G02*
X-4127500Y32715200I952500J0D01*
G01*
X-4127500Y-5080000D02*
G75*
G02*
X-5080000Y-4127500I0J952500D01*
G01*
D14*
G04 #@! TO.C,UA5*
X5080000Y15240000D02*
X6350000Y15240000D01*
X43180000Y15240000D02*
X44450000Y15240000D01*
X40640000Y15240000D02*
X41910000Y15240000D01*
X38100000Y15240000D02*
X39370000Y15240000D01*
X635000Y5080000D02*
X635000Y27940000D01*
X74295000Y2540000D02*
X5715000Y2540000D01*
X79375000Y27940000D02*
X79375000Y5080000D01*
X635000Y27940000D02*
X79375000Y27940000D01*
X73660000Y15240000D02*
X74930000Y15240000D01*
X71120000Y15240000D02*
X72390000Y15240000D01*
X45720000Y15240000D02*
X46990000Y15240000D01*
X7620000Y15240000D02*
X8890000Y15240000D01*
X35560000Y15240000D02*
X36830000Y15240000D01*
X33020000Y15240000D02*
X34290000Y15240000D01*
X66040000Y40640000D02*
X67310000Y40640000D01*
X58420000Y40640000D02*
X59690000Y40640000D01*
X53340000Y40640000D02*
X54610000Y40640000D01*
X73660000Y40640000D02*
X74930000Y40640000D01*
X71120000Y40640000D02*
X72390000Y40640000D01*
X55880000Y40640000D02*
X57150000Y40640000D01*
X63500000Y40640000D02*
X64770000Y40640000D01*
X60960000Y40640000D02*
X62230000Y40640000D01*
X68580000Y40640000D02*
X69850000Y40640000D01*
X66040000Y50800000D02*
X67310000Y50800000D01*
X58420000Y50800000D02*
X59690000Y50800000D01*
X53340000Y50800000D02*
X54610000Y50800000D01*
X73660000Y50800000D02*
X74930000Y50800000D01*
X71120000Y50800000D02*
X72390000Y50800000D01*
X55880000Y50800000D02*
X57150000Y50800000D01*
X63500000Y50800000D02*
X64770000Y50800000D01*
X60960000Y50800000D02*
X62230000Y50800000D01*
X68580000Y50800000D02*
X69850000Y50800000D01*
X53340000Y60960000D02*
X54610000Y60960000D01*
X73660000Y60960000D02*
X74930000Y60960000D01*
X68580000Y60960000D02*
X69850000Y60960000D01*
X66040000Y60960000D02*
X67310000Y60960000D01*
X63500000Y60960000D02*
X64770000Y60960000D01*
X60960000Y60960000D02*
X62230000Y60960000D01*
X58420000Y60960000D02*
X59690000Y60960000D01*
X71120000Y60960000D02*
X72390000Y60960000D01*
X55880000Y60960000D02*
X57150000Y60960000D01*
X64135000Y33655000D02*
X64135000Y32385000D01*
X64135000Y38735000D02*
X64135000Y37465000D01*
X64135000Y36195000D02*
X64135000Y34925000D01*
X64135000Y41275000D02*
X64135000Y40005000D01*
X64135000Y43815000D02*
X64135000Y42545000D01*
X64135000Y46355000D02*
X64135000Y45085000D01*
X64135000Y48895000D02*
X64135000Y47625000D01*
X64135000Y51435000D02*
X64135000Y50165000D01*
X64135000Y53975000D02*
X64135000Y52705000D01*
X64135000Y56515000D02*
X64135000Y55245000D01*
X64135000Y59055000D02*
X64135000Y57785000D01*
X64135000Y61595000D02*
X64135000Y60325000D01*
X64135000Y64135000D02*
X64135000Y62865000D01*
X64135000Y66675000D02*
X64135000Y65405000D01*
X64135000Y69215000D02*
X64135000Y67945000D01*
X48895000Y30480000D02*
X48895000Y71120000D01*
X79375000Y30480000D02*
X48895000Y30480000D01*
X79375000Y71120000D02*
X79375000Y30480000D01*
X48895000Y71120000D02*
X79375000Y71120000D01*
G04 #@! TO.C,UA3*
X54737000Y25400000D02*
X55245000Y25400000D01*
X52705000Y25400000D02*
X53213000Y25400000D01*
X53975000Y26670000D02*
X53975000Y26162000D01*
X55245000Y22860000D02*
X57785000Y22860000D01*
G04 #@! TO.C,UA1*
X16637000Y25400000D02*
X17145000Y25400000D01*
X14605000Y25400000D02*
X15113000Y25400000D01*
X15875000Y26670000D02*
X15875000Y26162000D01*
X17145000Y22860000D02*
X19685000Y22860000D01*
D10*
G04 #@! TO.C,TP20*
X38930000Y57020000D02*
G75*
G03*
X38930000Y57020000I-730000J0D01*
G01*
G04 #@! TO.C,TP19*
X38910000Y63580000D02*
G75*
G03*
X38910000Y63580000I-730000J0D01*
G01*
G04 #@! TO.C,TP14*
X-1150000Y51120000D02*
G75*
G03*
X-1150000Y51120000I-730000J0D01*
G01*
G04 #@! TO.C,TP13*
X1610000Y51120000D02*
G75*
G03*
X1610000Y51120000I-730000J0D01*
G01*
G04 #@! TO.C,C57*
X31786000Y37553000D02*
X31786000Y38653000D01*
X28976000Y36703000D02*
X31476000Y36703000D01*
G04 #@! TO.C,C56*
X31786000Y47205000D02*
X31786000Y48305000D01*
X28976000Y46355000D02*
X31476000Y46355000D01*
G04 #@! TO.C,R75*
X31750000Y55199000D02*
X31750000Y55799000D01*
G04 #@! TO.C,R53*
X36876000Y55753000D02*
X36276000Y55753000D01*
G04 #@! TO.C,U1*
X26536000Y63318000D02*
X26536000Y64358000D01*
X26536000Y64358000D02*
X25496000Y64358000D01*
X26536000Y44998000D02*
X26536000Y43958000D01*
X26536000Y43958000D02*
X25496000Y43958000D01*
X6136000Y63358000D02*
X6136000Y64358000D01*
X6136000Y64358000D02*
X7186000Y64358000D01*
G04 #@! TO.C,C34*
X7680000Y72210000D02*
X7680000Y71610000D01*
G04 #@! TO.C,C59*
X36260000Y60960000D02*
X36860000Y60960000D01*
G04 #@! TO.C,C68*
X-3260000Y58950000D02*
X-3860000Y58950000D01*
G04 #@! TO.C,C63*
X34310000Y57900000D02*
X34310000Y57300000D01*
G04 #@! TO.C,C62*
X-1310000Y53850000D02*
X-1310000Y53250000D01*
G04 #@! TO.C,C66*
X36190000Y46560000D02*
X36190000Y45960000D01*
G04 #@! TO.C,C70*
X37400000Y46670000D02*
X38340000Y46670000D01*
G04 #@! TO.C,C71*
X37400000Y36905000D02*
X38340000Y36905000D01*
G04 #@! TO.C,R70*
X-3260000Y54950000D02*
X-3860000Y54950000D01*
G04 #@! TO.C,R69*
X1240000Y54950000D02*
X640000Y54950000D01*
G04 #@! TO.C,U3*
X32610000Y58950000D02*
X32610000Y61850000D01*
X36010000Y61840000D02*
X36010000Y58270000D01*
X36010000Y58270000D02*
X35810000Y58270000D01*
X36010000Y61840000D02*
X35810000Y61840000D01*
X32810000Y61850000D02*
X32610000Y61850000D01*
D15*
G04 #@! TO.C,LOGO3*
G36*
X79235370Y81307210D02*
G01*
X79347723Y81306531D01*
X79437808Y81305324D01*
X79507585Y81303529D01*
X79559011Y81301083D01*
X79594043Y81297925D01*
X79614641Y81293994D01*
X79621136Y81291057D01*
X79628368Y81279452D01*
X79637390Y81253232D01*
X79648585Y81210672D01*
X79662332Y81150045D01*
X79679013Y81069625D01*
X79699009Y80967686D01*
X79722702Y80842501D01*
X79736059Y80770618D01*
X79762961Y80626996D01*
X79786004Y80508076D01*
X79805443Y80412700D01*
X79821530Y80339710D01*
X79834518Y80287947D01*
X79844661Y80256253D01*
X79851055Y80244404D01*
X79868019Y80234350D01*
X79905493Y80216289D01*
X79959627Y80191821D01*
X80026571Y80162545D01*
X80102478Y80130064D01*
X80183496Y80095976D01*
X80265777Y80061883D01*
X80345471Y80029385D01*
X80418728Y80000082D01*
X80481700Y79975574D01*
X80530537Y79957463D01*
X80561389Y79947348D01*
X80569344Y79945773D01*
X80583944Y79952960D01*
X80617658Y79973463D01*
X80668073Y80005696D01*
X80732771Y80048072D01*
X80809337Y80099004D01*
X80895356Y80156907D01*
X80988411Y80220192D01*
X81017879Y80240361D01*
X81112301Y80304893D01*
X81200110Y80364541D01*
X81278939Y80417726D01*
X81346422Y80462867D01*
X81400192Y80498382D01*
X81437883Y80522693D01*
X81457128Y80534218D01*
X81458991Y80534948D01*
X81472211Y80525942D01*
X81500927Y80500535D01*
X81542769Y80461140D01*
X81595364Y80410173D01*
X81656343Y80350049D01*
X81723334Y80283183D01*
X81793967Y80211988D01*
X81865869Y80138881D01*
X81936672Y80066275D01*
X82004002Y79996586D01*
X82065490Y79932229D01*
X82118765Y79875618D01*
X82161455Y79829168D01*
X82191189Y79795293D01*
X82205597Y79776410D01*
X82206534Y79773585D01*
X82197730Y79759141D01*
X82175731Y79725607D01*
X82142207Y79675453D01*
X82098823Y79611150D01*
X82047248Y79535169D01*
X81989150Y79449978D01*
X81926194Y79358049D01*
X81916597Y79344066D01*
X81853226Y79251144D01*
X81794808Y79164276D01*
X81742969Y79085975D01*
X81699338Y79018754D01*
X81665542Y78965125D01*
X81643210Y78927602D01*
X81633971Y78908695D01*
X81633814Y78907648D01*
X81638934Y78888142D01*
X81653210Y78848565D01*
X81675017Y78792707D01*
X81702731Y78724361D01*
X81734728Y78647318D01*
X81769383Y78565370D01*
X81805071Y78482309D01*
X81840168Y78401927D01*
X81873049Y78328014D01*
X81902089Y78264364D01*
X81925665Y78214767D01*
X81942151Y78183015D01*
X81948230Y78173810D01*
X81960208Y78166189D01*
X81984118Y78157342D01*
X82022010Y78146809D01*
X82075932Y78134129D01*
X82147933Y78118842D01*
X82240062Y78100488D01*
X82354367Y78078607D01*
X82460187Y78058804D01*
X82595754Y78033341D01*
X82707213Y78011759D01*
X82796295Y77993673D01*
X82864727Y77978699D01*
X82914240Y77966450D01*
X82946561Y77956543D01*
X82963420Y77948592D01*
X82966005Y77946176D01*
X82970461Y77933764D01*
X82974104Y77908165D01*
X82976997Y77867422D01*
X82979200Y77809576D01*
X82980775Y77732671D01*
X82981783Y77634748D01*
X82982286Y77513849D01*
X82982371Y77423845D01*
X82982264Y77294332D01*
X82981877Y77188531D01*
X82981112Y77103968D01*
X82979873Y77038171D01*
X82978061Y76988665D01*
X82975579Y76952979D01*
X82972329Y76928638D01*
X82968213Y76913169D01*
X82963134Y76904100D01*
X82961797Y76902636D01*
X82942379Y76886247D01*
X82933598Y76882062D01*
X82919411Y76879755D01*
X82882408Y76873192D01*
X82825514Y76862905D01*
X82751657Y76849430D01*
X82663763Y76833299D01*
X82564759Y76815047D01*
X82459920Y76795643D01*
X82321794Y76769653D01*
X82208382Y76747461D01*
X82118529Y76728812D01*
X82051080Y76713450D01*
X82004879Y76701117D01*
X81978772Y76691559D01*
X81972780Y76687627D01*
X81962698Y76670199D01*
X81944801Y76632024D01*
X81920584Y76576829D01*
X81891544Y76508341D01*
X81859176Y76430287D01*
X81824976Y76346393D01*
X81790442Y76260386D01*
X81757068Y76175994D01*
X81726352Y76096943D01*
X81699789Y76026961D01*
X81678875Y75969773D01*
X81665107Y75929108D01*
X81659980Y75908691D01*
X81659975Y75908422D01*
X81667178Y75892338D01*
X81687667Y75857331D01*
X81719778Y75805979D01*
X81761846Y75740856D01*
X81812208Y75664541D01*
X81869199Y75579608D01*
X81930416Y75489713D01*
X81992445Y75398933D01*
X82049736Y75314442D01*
X82100595Y75238787D01*
X82143329Y75174516D01*
X82176244Y75124175D01*
X82197647Y75090311D01*
X82205832Y75075518D01*
X82197935Y75061130D01*
X82172170Y75029765D01*
X82129589Y74982547D01*
X82071247Y74920601D01*
X81998195Y74845051D01*
X81911488Y74757021D01*
X81845161Y74690501D01*
X81751137Y74596856D01*
X81673686Y74520341D01*
X81611062Y74459374D01*
X81561518Y74412376D01*
X81523307Y74377765D01*
X81494684Y74353961D01*
X81473901Y74339383D01*
X81459211Y74332450D01*
X81448870Y74331582D01*
X81448636Y74331627D01*
X81430778Y74340352D01*
X81394189Y74362267D01*
X81341614Y74395586D01*
X81275801Y74438525D01*
X81199497Y74489295D01*
X81115449Y74546110D01*
X81051697Y74589747D01*
X80964011Y74649972D01*
X80882444Y74705791D01*
X80809694Y74755377D01*
X80748456Y74796898D01*
X80701427Y74828526D01*
X80671303Y74848430D01*
X80661577Y74854485D01*
X80651447Y74857805D01*
X80637493Y74857151D01*
X80616935Y74851287D01*
X80586994Y74838974D01*
X80544892Y74818974D01*
X80487849Y74790050D01*
X80413085Y74750964D01*
X80328316Y74706057D01*
X80284727Y74683825D01*
X80257598Y74673418D01*
X80240813Y74673397D01*
X80228255Y74682323D01*
X80228110Y74682474D01*
X80219666Y74698053D01*
X80202416Y74735466D01*
X80177360Y74792290D01*
X80145498Y74866106D01*
X80107829Y74954494D01*
X80065354Y75055031D01*
X80019071Y75165298D01*
X79969981Y75282873D01*
X79919084Y75405337D01*
X79867380Y75530269D01*
X79815867Y75655247D01*
X79765547Y75777852D01*
X79717419Y75895662D01*
X79672482Y76006256D01*
X79631737Y76107215D01*
X79596183Y76196118D01*
X79566821Y76270543D01*
X79544649Y76328070D01*
X79530668Y76366279D01*
X79525876Y76382682D01*
X79537271Y76406326D01*
X79572143Y76435992D01*
X79601160Y76454900D01*
X79751970Y76560490D01*
X79880933Y76678943D01*
X79987497Y76809390D01*
X80071108Y76950967D01*
X80131213Y77102807D01*
X80167259Y77264042D01*
X80176614Y77356178D01*
X80174214Y77524487D01*
X80147212Y77686169D01*
X80096780Y77839226D01*
X80024090Y77981661D01*
X79930312Y78111473D01*
X79816620Y78226667D01*
X79684184Y78325244D01*
X79571701Y78387827D01*
X79448483Y78440607D01*
X79331360Y78474806D01*
X79210504Y78492628D01*
X79087268Y78496450D01*
X78920258Y78481795D01*
X78761075Y78442916D01*
X78611752Y78381125D01*
X78474321Y78297733D01*
X78350813Y78194053D01*
X78243260Y78071396D01*
X78153694Y77931075D01*
X78125865Y77875679D01*
X78085439Y77782101D01*
X78057346Y77697027D01*
X78039778Y77611810D01*
X78030924Y77517801D01*
X78028939Y77412319D01*
X78030186Y77334119D01*
X78033655Y77273723D01*
X78040386Y77222776D01*
X78051420Y77172924D01*
X78064468Y77126799D01*
X78117222Y76982535D01*
X78185449Y76852994D01*
X78271605Y76734992D01*
X78378144Y76625343D01*
X78507520Y76520862D01*
X78559869Y76484098D01*
X78607573Y76450633D01*
X78646659Y76421217D01*
X78672249Y76399641D01*
X78679581Y76391080D01*
X78676193Y76375600D01*
X78663789Y76338917D01*
X78643493Y76283972D01*
X78616432Y76213702D01*
X78583732Y76131047D01*
X78546520Y76038947D01*
X78518520Y75970745D01*
X78470007Y75853285D01*
X78414511Y75718842D01*
X78355015Y75574647D01*
X78294502Y75427934D01*
X78235956Y75285932D01*
X78182360Y75155874D01*
X78169430Y75124486D01*
X78114711Y74992930D01*
X78068030Y74883429D01*
X78029606Y74796472D01*
X77999661Y74732546D01*
X77978417Y74692137D01*
X77966095Y74675735D01*
X77965520Y74675480D01*
X77945782Y74678897D01*
X77906836Y74694111D01*
X77852038Y74719627D01*
X77784740Y74753948D01*
X77760274Y74766999D01*
X77697207Y74800615D01*
X77642042Y74829321D01*
X77598957Y74850999D01*
X77572129Y74863528D01*
X77565539Y74865773D01*
X77552474Y74858611D01*
X77520348Y74838229D01*
X77471648Y74806286D01*
X77408863Y74764440D01*
X77334481Y74714347D01*
X77250989Y74657668D01*
X77162788Y74597371D01*
X77072101Y74535666D01*
X76987360Y74478961D01*
X76911174Y74428928D01*
X76846151Y74387241D01*
X76794899Y74355572D01*
X76760025Y74335595D01*
X76744388Y74328969D01*
X76726668Y74338571D01*
X76691227Y74367342D01*
X76638126Y74415224D01*
X76567424Y74482162D01*
X76479182Y74568102D01*
X76373458Y74672986D01*
X76360607Y74685835D01*
X76256051Y74791157D01*
X76169189Y74880193D01*
X76100301Y74952640D01*
X76049668Y75008197D01*
X76017571Y75046561D01*
X76004291Y75067430D01*
X76003918Y75069457D01*
X76011122Y75086111D01*
X76031619Y75121647D01*
X76063736Y75173459D01*
X76105802Y75238942D01*
X76156141Y75315490D01*
X76213083Y75400499D01*
X76272320Y75487521D01*
X76340729Y75588084D01*
X76401210Y75678646D01*
X76452470Y75757180D01*
X76493220Y75821660D01*
X76522169Y75870059D01*
X76538027Y75900351D01*
X76540722Y75909003D01*
X76535869Y75929942D01*
X76522313Y75971138D01*
X76501555Y76028842D01*
X76475098Y76099300D01*
X76444444Y76178761D01*
X76411096Y76263472D01*
X76376557Y76349681D01*
X76342327Y76433637D01*
X76309910Y76511588D01*
X76280808Y76579781D01*
X76256524Y76634465D01*
X76238560Y76671888D01*
X76228832Y76687920D01*
X76212855Y76696075D01*
X76178148Y76706716D01*
X76123446Y76720119D01*
X76047482Y76736565D01*
X75948990Y76756332D01*
X75826704Y76779700D01*
X75735516Y76796647D01*
X75609507Y76820032D01*
X75506873Y76839526D01*
X75425181Y76855688D01*
X75362001Y76869078D01*
X75314902Y76880254D01*
X75281453Y76889777D01*
X75259224Y76898206D01*
X75245783Y76906101D01*
X75241263Y76910409D01*
X75235344Y76919141D01*
X75230535Y76931754D01*
X75226721Y76950826D01*
X75223788Y76978938D01*
X75221625Y77018667D01*
X75220116Y77072593D01*
X75219148Y77143296D01*
X75218608Y77233353D01*
X75218382Y77345343D01*
X75218351Y77430907D01*
X75218567Y77566468D01*
X75219258Y77677816D01*
X75220486Y77766921D01*
X75222313Y77835751D01*
X75224803Y77886275D01*
X75228017Y77920463D01*
X75232019Y77940283D01*
X75234717Y77945960D01*
X75246987Y77953441D01*
X75274770Y77962803D01*
X75319754Y77974421D01*
X75383631Y77988670D01*
X75468091Y78005924D01*
X75574824Y78026558D01*
X75705520Y78050946D01*
X75722423Y78054056D01*
X75831555Y78074298D01*
X75933672Y78093595D01*
X76025630Y78111328D01*
X76104288Y78126875D01*
X76166504Y78139616D01*
X76209138Y78148931D01*
X76228803Y78154101D01*
X76240171Y78160660D01*
X76252344Y78173321D01*
X76266639Y78194674D01*
X76284373Y78227309D01*
X76306865Y78273816D01*
X76335431Y78336786D01*
X76371389Y78418809D01*
X76415375Y78520882D01*
X76454040Y78612100D01*
X76489065Y78696757D01*
X76519141Y78771529D01*
X76542961Y78833092D01*
X76559217Y78878122D01*
X76566601Y78903294D01*
X76566907Y78906036D01*
X76559319Y78925909D01*
X76537050Y78965778D01*
X76500844Y79024480D01*
X76451443Y79100850D01*
X76389592Y79193725D01*
X76316032Y79301940D01*
X76289646Y79340337D01*
X76226582Y79432553D01*
X76168283Y79519082D01*
X76116441Y79597316D01*
X76072746Y79664647D01*
X76038890Y79718468D01*
X76016564Y79756172D01*
X76007459Y79775150D01*
X76007380Y79775567D01*
X76008300Y79786140D01*
X76014940Y79800656D01*
X76028903Y79820880D01*
X76051795Y79848576D01*
X76085217Y79885512D01*
X76130775Y79933451D01*
X76190071Y79994160D01*
X76264710Y80069403D01*
X76356295Y80160946D01*
X76368783Y80173393D01*
X76475425Y80279022D01*
X76564453Y80365824D01*
X76636163Y80434075D01*
X76690853Y80484050D01*
X76728820Y80516024D01*
X76750360Y80530271D01*
X76754781Y80530970D01*
X76769622Y80522087D01*
X76803554Y80499977D01*
X76854122Y80466295D01*
X76918869Y80422696D01*
X76995341Y80370835D01*
X77081082Y80312366D01*
X77173637Y80248945D01*
X77194494Y80234613D01*
X77288131Y80170575D01*
X77375513Y80111466D01*
X77454188Y80058894D01*
X77521708Y80014468D01*
X77575623Y79979796D01*
X77613483Y79956486D01*
X77632839Y79946147D01*
X77634392Y79945773D01*
X77651649Y79950566D01*
X77689484Y79964024D01*
X77744290Y79984766D01*
X77812463Y80011411D01*
X77890398Y80042578D01*
X77945202Y80064860D01*
X78055973Y80110209D01*
X78144961Y80146772D01*
X78214618Y80175670D01*
X78267399Y80198026D01*
X78305758Y80214964D01*
X78332148Y80227605D01*
X78349024Y80237073D01*
X78358839Y80244490D01*
X78364047Y80250980D01*
X78367103Y80257663D01*
X78367210Y80257936D01*
X78371020Y80274154D01*
X78378951Y80312641D01*
X78390343Y80369921D01*
X78404535Y80442518D01*
X78420868Y80526955D01*
X78438682Y80619756D01*
X78457317Y80717445D01*
X78476115Y80816545D01*
X78494414Y80913580D01*
X78511555Y81005074D01*
X78526878Y81087550D01*
X78539724Y81157533D01*
X78549432Y81211545D01*
X78555344Y81246110D01*
X78556896Y81257389D01*
X78565216Y81272713D01*
X78577585Y81286848D01*
X78585514Y81292166D01*
X78599265Y81296498D01*
X78621309Y81299942D01*
X78654120Y81302595D01*
X78700172Y81304555D01*
X78761938Y81305920D01*
X78841890Y81306787D01*
X78942502Y81307253D01*
X79066248Y81307417D01*
X79098794Y81307422D01*
X79235370Y81307210D01*
G37*
X79235370Y81307210D02*
X79347723Y81306531D01*
X79437808Y81305324D01*
X79507585Y81303529D01*
X79559011Y81301083D01*
X79594043Y81297925D01*
X79614641Y81293994D01*
X79621136Y81291057D01*
X79628368Y81279452D01*
X79637390Y81253232D01*
X79648585Y81210672D01*
X79662332Y81150045D01*
X79679013Y81069625D01*
X79699009Y80967686D01*
X79722702Y80842501D01*
X79736059Y80770618D01*
X79762961Y80626996D01*
X79786004Y80508076D01*
X79805443Y80412700D01*
X79821530Y80339710D01*
X79834518Y80287947D01*
X79844661Y80256253D01*
X79851055Y80244404D01*
X79868019Y80234350D01*
X79905493Y80216289D01*
X79959627Y80191821D01*
X80026571Y80162545D01*
X80102478Y80130064D01*
X80183496Y80095976D01*
X80265777Y80061883D01*
X80345471Y80029385D01*
X80418728Y80000082D01*
X80481700Y79975574D01*
X80530537Y79957463D01*
X80561389Y79947348D01*
X80569344Y79945773D01*
X80583944Y79952960D01*
X80617658Y79973463D01*
X80668073Y80005696D01*
X80732771Y80048072D01*
X80809337Y80099004D01*
X80895356Y80156907D01*
X80988411Y80220192D01*
X81017879Y80240361D01*
X81112301Y80304893D01*
X81200110Y80364541D01*
X81278939Y80417726D01*
X81346422Y80462867D01*
X81400192Y80498382D01*
X81437883Y80522693D01*
X81457128Y80534218D01*
X81458991Y80534948D01*
X81472211Y80525942D01*
X81500927Y80500535D01*
X81542769Y80461140D01*
X81595364Y80410173D01*
X81656343Y80350049D01*
X81723334Y80283183D01*
X81793967Y80211988D01*
X81865869Y80138881D01*
X81936672Y80066275D01*
X82004002Y79996586D01*
X82065490Y79932229D01*
X82118765Y79875618D01*
X82161455Y79829168D01*
X82191189Y79795293D01*
X82205597Y79776410D01*
X82206534Y79773585D01*
X82197730Y79759141D01*
X82175731Y79725607D01*
X82142207Y79675453D01*
X82098823Y79611150D01*
X82047248Y79535169D01*
X81989150Y79449978D01*
X81926194Y79358049D01*
X81916597Y79344066D01*
X81853226Y79251144D01*
X81794808Y79164276D01*
X81742969Y79085975D01*
X81699338Y79018754D01*
X81665542Y78965125D01*
X81643210Y78927602D01*
X81633971Y78908695D01*
X81633814Y78907648D01*
X81638934Y78888142D01*
X81653210Y78848565D01*
X81675017Y78792707D01*
X81702731Y78724361D01*
X81734728Y78647318D01*
X81769383Y78565370D01*
X81805071Y78482309D01*
X81840168Y78401927D01*
X81873049Y78328014D01*
X81902089Y78264364D01*
X81925665Y78214767D01*
X81942151Y78183015D01*
X81948230Y78173810D01*
X81960208Y78166189D01*
X81984118Y78157342D01*
X82022010Y78146809D01*
X82075932Y78134129D01*
X82147933Y78118842D01*
X82240062Y78100488D01*
X82354367Y78078607D01*
X82460187Y78058804D01*
X82595754Y78033341D01*
X82707213Y78011759D01*
X82796295Y77993673D01*
X82864727Y77978699D01*
X82914240Y77966450D01*
X82946561Y77956543D01*
X82963420Y77948592D01*
X82966005Y77946176D01*
X82970461Y77933764D01*
X82974104Y77908165D01*
X82976997Y77867422D01*
X82979200Y77809576D01*
X82980775Y77732671D01*
X82981783Y77634748D01*
X82982286Y77513849D01*
X82982371Y77423845D01*
X82982264Y77294332D01*
X82981877Y77188531D01*
X82981112Y77103968D01*
X82979873Y77038171D01*
X82978061Y76988665D01*
X82975579Y76952979D01*
X82972329Y76928638D01*
X82968213Y76913169D01*
X82963134Y76904100D01*
X82961797Y76902636D01*
X82942379Y76886247D01*
X82933598Y76882062D01*
X82919411Y76879755D01*
X82882408Y76873192D01*
X82825514Y76862905D01*
X82751657Y76849430D01*
X82663763Y76833299D01*
X82564759Y76815047D01*
X82459920Y76795643D01*
X82321794Y76769653D01*
X82208382Y76747461D01*
X82118529Y76728812D01*
X82051080Y76713450D01*
X82004879Y76701117D01*
X81978772Y76691559D01*
X81972780Y76687627D01*
X81962698Y76670199D01*
X81944801Y76632024D01*
X81920584Y76576829D01*
X81891544Y76508341D01*
X81859176Y76430287D01*
X81824976Y76346393D01*
X81790442Y76260386D01*
X81757068Y76175994D01*
X81726352Y76096943D01*
X81699789Y76026961D01*
X81678875Y75969773D01*
X81665107Y75929108D01*
X81659980Y75908691D01*
X81659975Y75908422D01*
X81667178Y75892338D01*
X81687667Y75857331D01*
X81719778Y75805979D01*
X81761846Y75740856D01*
X81812208Y75664541D01*
X81869199Y75579608D01*
X81930416Y75489713D01*
X81992445Y75398933D01*
X82049736Y75314442D01*
X82100595Y75238787D01*
X82143329Y75174516D01*
X82176244Y75124175D01*
X82197647Y75090311D01*
X82205832Y75075518D01*
X82197935Y75061130D01*
X82172170Y75029765D01*
X82129589Y74982547D01*
X82071247Y74920601D01*
X81998195Y74845051D01*
X81911488Y74757021D01*
X81845161Y74690501D01*
X81751137Y74596856D01*
X81673686Y74520341D01*
X81611062Y74459374D01*
X81561518Y74412376D01*
X81523307Y74377765D01*
X81494684Y74353961D01*
X81473901Y74339383D01*
X81459211Y74332450D01*
X81448870Y74331582D01*
X81448636Y74331627D01*
X81430778Y74340352D01*
X81394189Y74362267D01*
X81341614Y74395586D01*
X81275801Y74438525D01*
X81199497Y74489295D01*
X81115449Y74546110D01*
X81051697Y74589747D01*
X80964011Y74649972D01*
X80882444Y74705791D01*
X80809694Y74755377D01*
X80748456Y74796898D01*
X80701427Y74828526D01*
X80671303Y74848430D01*
X80661577Y74854485D01*
X80651447Y74857805D01*
X80637493Y74857151D01*
X80616935Y74851287D01*
X80586994Y74838974D01*
X80544892Y74818974D01*
X80487849Y74790050D01*
X80413085Y74750964D01*
X80328316Y74706057D01*
X80284727Y74683825D01*
X80257598Y74673418D01*
X80240813Y74673397D01*
X80228255Y74682323D01*
X80228110Y74682474D01*
X80219666Y74698053D01*
X80202416Y74735466D01*
X80177360Y74792290D01*
X80145498Y74866106D01*
X80107829Y74954494D01*
X80065354Y75055031D01*
X80019071Y75165298D01*
X79969981Y75282873D01*
X79919084Y75405337D01*
X79867380Y75530269D01*
X79815867Y75655247D01*
X79765547Y75777852D01*
X79717419Y75895662D01*
X79672482Y76006256D01*
X79631737Y76107215D01*
X79596183Y76196118D01*
X79566821Y76270543D01*
X79544649Y76328070D01*
X79530668Y76366279D01*
X79525876Y76382682D01*
X79537271Y76406326D01*
X79572143Y76435992D01*
X79601160Y76454900D01*
X79751970Y76560490D01*
X79880933Y76678943D01*
X79987497Y76809390D01*
X80071108Y76950967D01*
X80131213Y77102807D01*
X80167259Y77264042D01*
X80176614Y77356178D01*
X80174214Y77524487D01*
X80147212Y77686169D01*
X80096780Y77839226D01*
X80024090Y77981661D01*
X79930312Y78111473D01*
X79816620Y78226667D01*
X79684184Y78325244D01*
X79571701Y78387827D01*
X79448483Y78440607D01*
X79331360Y78474806D01*
X79210504Y78492628D01*
X79087268Y78496450D01*
X78920258Y78481795D01*
X78761075Y78442916D01*
X78611752Y78381125D01*
X78474321Y78297733D01*
X78350813Y78194053D01*
X78243260Y78071396D01*
X78153694Y77931075D01*
X78125865Y77875679D01*
X78085439Y77782101D01*
X78057346Y77697027D01*
X78039778Y77611810D01*
X78030924Y77517801D01*
X78028939Y77412319D01*
X78030186Y77334119D01*
X78033655Y77273723D01*
X78040386Y77222776D01*
X78051420Y77172924D01*
X78064468Y77126799D01*
X78117222Y76982535D01*
X78185449Y76852994D01*
X78271605Y76734992D01*
X78378144Y76625343D01*
X78507520Y76520862D01*
X78559869Y76484098D01*
X78607573Y76450633D01*
X78646659Y76421217D01*
X78672249Y76399641D01*
X78679581Y76391080D01*
X78676193Y76375600D01*
X78663789Y76338917D01*
X78643493Y76283972D01*
X78616432Y76213702D01*
X78583732Y76131047D01*
X78546520Y76038947D01*
X78518520Y75970745D01*
X78470007Y75853285D01*
X78414511Y75718842D01*
X78355015Y75574647D01*
X78294502Y75427934D01*
X78235956Y75285932D01*
X78182360Y75155874D01*
X78169430Y75124486D01*
X78114711Y74992930D01*
X78068030Y74883429D01*
X78029606Y74796472D01*
X77999661Y74732546D01*
X77978417Y74692137D01*
X77966095Y74675735D01*
X77965520Y74675480D01*
X77945782Y74678897D01*
X77906836Y74694111D01*
X77852038Y74719627D01*
X77784740Y74753948D01*
X77760274Y74766999D01*
X77697207Y74800615D01*
X77642042Y74829321D01*
X77598957Y74850999D01*
X77572129Y74863528D01*
X77565539Y74865773D01*
X77552474Y74858611D01*
X77520348Y74838229D01*
X77471648Y74806286D01*
X77408863Y74764440D01*
X77334481Y74714347D01*
X77250989Y74657668D01*
X77162788Y74597371D01*
X77072101Y74535666D01*
X76987360Y74478961D01*
X76911174Y74428928D01*
X76846151Y74387241D01*
X76794899Y74355572D01*
X76760025Y74335595D01*
X76744388Y74328969D01*
X76726668Y74338571D01*
X76691227Y74367342D01*
X76638126Y74415224D01*
X76567424Y74482162D01*
X76479182Y74568102D01*
X76373458Y74672986D01*
X76360607Y74685835D01*
X76256051Y74791157D01*
X76169189Y74880193D01*
X76100301Y74952640D01*
X76049668Y75008197D01*
X76017571Y75046561D01*
X76004291Y75067430D01*
X76003918Y75069457D01*
X76011122Y75086111D01*
X76031619Y75121647D01*
X76063736Y75173459D01*
X76105802Y75238942D01*
X76156141Y75315490D01*
X76213083Y75400499D01*
X76272320Y75487521D01*
X76340729Y75588084D01*
X76401210Y75678646D01*
X76452470Y75757180D01*
X76493220Y75821660D01*
X76522169Y75870059D01*
X76538027Y75900351D01*
X76540722Y75909003D01*
X76535869Y75929942D01*
X76522313Y75971138D01*
X76501555Y76028842D01*
X76475098Y76099300D01*
X76444444Y76178761D01*
X76411096Y76263472D01*
X76376557Y76349681D01*
X76342327Y76433637D01*
X76309910Y76511588D01*
X76280808Y76579781D01*
X76256524Y76634465D01*
X76238560Y76671888D01*
X76228832Y76687920D01*
X76212855Y76696075D01*
X76178148Y76706716D01*
X76123446Y76720119D01*
X76047482Y76736565D01*
X75948990Y76756332D01*
X75826704Y76779700D01*
X75735516Y76796647D01*
X75609507Y76820032D01*
X75506873Y76839526D01*
X75425181Y76855688D01*
X75362001Y76869078D01*
X75314902Y76880254D01*
X75281453Y76889777D01*
X75259224Y76898206D01*
X75245783Y76906101D01*
X75241263Y76910409D01*
X75235344Y76919141D01*
X75230535Y76931754D01*
X75226721Y76950826D01*
X75223788Y76978938D01*
X75221625Y77018667D01*
X75220116Y77072593D01*
X75219148Y77143296D01*
X75218608Y77233353D01*
X75218382Y77345343D01*
X75218351Y77430907D01*
X75218567Y77566468D01*
X75219258Y77677816D01*
X75220486Y77766921D01*
X75222313Y77835751D01*
X75224803Y77886275D01*
X75228017Y77920463D01*
X75232019Y77940283D01*
X75234717Y77945960D01*
X75246987Y77953441D01*
X75274770Y77962803D01*
X75319754Y77974421D01*
X75383631Y77988670D01*
X75468091Y78005924D01*
X75574824Y78026558D01*
X75705520Y78050946D01*
X75722423Y78054056D01*
X75831555Y78074298D01*
X75933672Y78093595D01*
X76025630Y78111328D01*
X76104288Y78126875D01*
X76166504Y78139616D01*
X76209138Y78148931D01*
X76228803Y78154101D01*
X76240171Y78160660D01*
X76252344Y78173321D01*
X76266639Y78194674D01*
X76284373Y78227309D01*
X76306865Y78273816D01*
X76335431Y78336786D01*
X76371389Y78418809D01*
X76415375Y78520882D01*
X76454040Y78612100D01*
X76489065Y78696757D01*
X76519141Y78771529D01*
X76542961Y78833092D01*
X76559217Y78878122D01*
X76566601Y78903294D01*
X76566907Y78906036D01*
X76559319Y78925909D01*
X76537050Y78965778D01*
X76500844Y79024480D01*
X76451443Y79100850D01*
X76389592Y79193725D01*
X76316032Y79301940D01*
X76289646Y79340337D01*
X76226582Y79432553D01*
X76168283Y79519082D01*
X76116441Y79597316D01*
X76072746Y79664647D01*
X76038890Y79718468D01*
X76016564Y79756172D01*
X76007459Y79775150D01*
X76007380Y79775567D01*
X76008300Y79786140D01*
X76014940Y79800656D01*
X76028903Y79820880D01*
X76051795Y79848576D01*
X76085217Y79885512D01*
X76130775Y79933451D01*
X76190071Y79994160D01*
X76264710Y80069403D01*
X76356295Y80160946D01*
X76368783Y80173393D01*
X76475425Y80279022D01*
X76564453Y80365824D01*
X76636163Y80434075D01*
X76690853Y80484050D01*
X76728820Y80516024D01*
X76750360Y80530271D01*
X76754781Y80530970D01*
X76769622Y80522087D01*
X76803554Y80499977D01*
X76854122Y80466295D01*
X76918869Y80422696D01*
X76995341Y80370835D01*
X77081082Y80312366D01*
X77173637Y80248945D01*
X77194494Y80234613D01*
X77288131Y80170575D01*
X77375513Y80111466D01*
X77454188Y80058894D01*
X77521708Y80014468D01*
X77575623Y79979796D01*
X77613483Y79956486D01*
X77632839Y79946147D01*
X77634392Y79945773D01*
X77651649Y79950566D01*
X77689484Y79964024D01*
X77744290Y79984766D01*
X77812463Y80011411D01*
X77890398Y80042578D01*
X77945202Y80064860D01*
X78055973Y80110209D01*
X78144961Y80146772D01*
X78214618Y80175670D01*
X78267399Y80198026D01*
X78305758Y80214964D01*
X78332148Y80227605D01*
X78349024Y80237073D01*
X78358839Y80244490D01*
X78364047Y80250980D01*
X78367103Y80257663D01*
X78367210Y80257936D01*
X78371020Y80274154D01*
X78378951Y80312641D01*
X78390343Y80369921D01*
X78404535Y80442518D01*
X78420868Y80526955D01*
X78438682Y80619756D01*
X78457317Y80717445D01*
X78476115Y80816545D01*
X78494414Y80913580D01*
X78511555Y81005074D01*
X78526878Y81087550D01*
X78539724Y81157533D01*
X78549432Y81211545D01*
X78555344Y81246110D01*
X78556896Y81257389D01*
X78565216Y81272713D01*
X78577585Y81286848D01*
X78585514Y81292166D01*
X78599265Y81296498D01*
X78621309Y81299942D01*
X78654120Y81302595D01*
X78700172Y81304555D01*
X78761938Y81305920D01*
X78841890Y81306787D01*
X78942502Y81307253D01*
X79066248Y81307417D01*
X79098794Y81307422D01*
X79235370Y81307210D01*
D10*
G04 #@! TO.C,M1*
X6566000Y35092000D02*
X6566000Y34392000D01*
X-1994000Y34392000D02*
X6566000Y34392000D01*
X-1994000Y35092000D02*
X-1994000Y34392000D01*
X6566000Y40792000D02*
X-1144000Y40792000D01*
X6566000Y40792000D02*
X6566000Y40092000D01*
G04 #@! TO.C,M3*
X27648000Y35092000D02*
X27648000Y34392000D01*
X19088000Y34392000D02*
X27648000Y34392000D01*
X19088000Y35092000D02*
X19088000Y34392000D01*
X27648000Y40792000D02*
X19938000Y40792000D01*
X27648000Y40792000D02*
X27648000Y40092000D01*
G04 #@! TO.C,M2*
X17107000Y35092000D02*
X17107000Y34392000D01*
X8547000Y34392000D02*
X17107000Y34392000D01*
X8547000Y35092000D02*
X8547000Y34392000D01*
X17107000Y40792000D02*
X9397000Y40792000D01*
X17107000Y40792000D02*
X17107000Y40092000D01*
G04 #@! TO.C,U2*
X-3010000Y54890000D02*
X-3010000Y57790000D01*
X390000Y57780000D02*
X390000Y54210000D01*
X390000Y54210000D02*
X190000Y54210000D01*
X390000Y57780000D02*
X190000Y57780000D01*
X-2810000Y57790000D02*
X-3010000Y57790000D01*
D15*
G04 #@! TO.C,LOGO1*
G36*
X5584143Y-1891556D02*
G01*
X5662961Y-2090079D01*
X5734827Y-2267435D01*
X5796341Y-2415533D01*
X5844105Y-2526281D01*
X5874722Y-2591587D01*
X5884143Y-2605931D01*
X5901009Y-2578101D01*
X5937954Y-2499356D01*
X5991483Y-2377743D01*
X6058100Y-2221307D01*
X6134310Y-2038097D01*
X6190545Y-1900562D01*
X6477429Y-1194125D01*
X6896299Y-1185245D01*
X7074341Y-1183670D01*
X7205288Y-1187213D01*
X7283548Y-1195575D01*
X7304272Y-1207097D01*
X7289495Y-1241677D01*
X7251594Y-1328270D01*
X7193228Y-1460858D01*
X7117055Y-1633422D01*
X7025733Y-1839944D01*
X6921921Y-2074407D01*
X6808277Y-2330792D01*
X6721875Y-2525548D01*
X6150375Y-3813268D01*
X5890311Y-3813384D01*
X5768219Y-3810452D01*
X5672531Y-3802553D01*
X5619349Y-3791206D01*
X5614068Y-3787321D01*
X5597494Y-3752227D01*
X5559112Y-3666701D01*
X5502050Y-3537921D01*
X5429435Y-3373067D01*
X5344396Y-3179316D01*
X5250063Y-2963847D01*
X5149562Y-2733838D01*
X5046022Y-2496468D01*
X4942571Y-2258915D01*
X4842339Y-2028357D01*
X4748452Y-1811973D01*
X4664040Y-1616942D01*
X4592231Y-1450441D01*
X4536152Y-1319649D01*
X4498933Y-1231745D01*
X4483702Y-1193906D01*
X4483500Y-1193050D01*
X4513277Y-1187528D01*
X4594726Y-1182941D01*
X4716018Y-1179718D01*
X4865327Y-1178285D01*
X4893580Y-1178250D01*
X5303661Y-1178250D01*
X5584143Y-1891556D01*
G37*
X5584143Y-1891556D02*
X5662961Y-2090079D01*
X5734827Y-2267435D01*
X5796341Y-2415533D01*
X5844105Y-2526281D01*
X5874722Y-2591587D01*
X5884143Y-2605931D01*
X5901009Y-2578101D01*
X5937954Y-2499356D01*
X5991483Y-2377743D01*
X6058100Y-2221307D01*
X6134310Y-2038097D01*
X6190545Y-1900562D01*
X6477429Y-1194125D01*
X6896299Y-1185245D01*
X7074341Y-1183670D01*
X7205288Y-1187213D01*
X7283548Y-1195575D01*
X7304272Y-1207097D01*
X7289495Y-1241677D01*
X7251594Y-1328270D01*
X7193228Y-1460858D01*
X7117055Y-1633422D01*
X7025733Y-1839944D01*
X6921921Y-2074407D01*
X6808277Y-2330792D01*
X6721875Y-2525548D01*
X6150375Y-3813268D01*
X5890311Y-3813384D01*
X5768219Y-3810452D01*
X5672531Y-3802553D01*
X5619349Y-3791206D01*
X5614068Y-3787321D01*
X5597494Y-3752227D01*
X5559112Y-3666701D01*
X5502050Y-3537921D01*
X5429435Y-3373067D01*
X5344396Y-3179316D01*
X5250063Y-2963847D01*
X5149562Y-2733838D01*
X5046022Y-2496468D01*
X4942571Y-2258915D01*
X4842339Y-2028357D01*
X4748452Y-1811973D01*
X4664040Y-1616942D01*
X4592231Y-1450441D01*
X4536152Y-1319649D01*
X4498933Y-1231745D01*
X4483702Y-1193906D01*
X4483500Y-1193050D01*
X4513277Y-1187528D01*
X4594726Y-1182941D01*
X4716018Y-1179718D01*
X4865327Y-1178285D01*
X4893580Y-1178250D01*
X5303661Y-1178250D01*
X5584143Y-1891556D01*
G36*
X9743465Y-1174081D02*
G01*
X10044104Y-1253050D01*
X10142937Y-1293199D01*
X10262000Y-1346644D01*
X10262000Y-1965177D01*
X10015548Y-1839262D01*
X9833726Y-1756881D01*
X9675173Y-1710285D01*
X9573768Y-1695635D01*
X9462448Y-1688158D01*
X9392331Y-1694307D01*
X9341706Y-1719099D01*
X9296702Y-1759661D01*
X9247406Y-1819237D01*
X9230678Y-1873766D01*
X9251263Y-1928945D01*
X9313907Y-1990469D01*
X9423358Y-2064032D01*
X9584361Y-2155331D01*
X9660369Y-2196031D01*
X9903115Y-2332963D01*
X10090010Y-2459429D01*
X10226328Y-2582165D01*
X10317344Y-2707911D01*
X10368332Y-2843404D01*
X10384566Y-2995385D01*
X10378274Y-3113268D01*
X10328770Y-3309261D01*
X10227115Y-3476835D01*
X10079255Y-3613199D01*
X9891138Y-3715561D01*
X9668709Y-3781131D01*
X9417916Y-3807116D01*
X9144706Y-3790728D01*
X8992260Y-3763779D01*
X8854891Y-3730473D01*
X8716220Y-3691303D01*
X8635073Y-3664781D01*
X8484000Y-3610455D01*
X8484000Y-2958534D01*
X8738135Y-3081431D01*
X8958874Y-3173063D01*
X9156035Y-3224774D01*
X9323617Y-3236231D01*
X9455621Y-3207100D01*
X9546046Y-3137045D01*
X9553204Y-3126815D01*
X9585380Y-3057304D01*
X9580764Y-2993862D01*
X9534104Y-2930591D01*
X9440152Y-2861591D01*
X9293657Y-2780962D01*
X9207742Y-2738615D01*
X9063613Y-2666537D01*
X8929518Y-2594754D01*
X8822720Y-2532764D01*
X8770372Y-2497999D01*
X8619262Y-2349519D01*
X8517831Y-2175823D01*
X8466799Y-1987681D01*
X8466884Y-1795864D01*
X8518804Y-1611140D01*
X8623280Y-1444280D01*
X8695149Y-1371179D01*
X8850018Y-1261431D01*
X9026922Y-1190342D01*
X9238784Y-1153906D01*
X9418450Y-1146876D01*
X9743465Y-1174081D01*
G37*
X9743465Y-1174081D02*
X10044104Y-1253050D01*
X10142937Y-1293199D01*
X10262000Y-1346644D01*
X10262000Y-1965177D01*
X10015548Y-1839262D01*
X9833726Y-1756881D01*
X9675173Y-1710285D01*
X9573768Y-1695635D01*
X9462448Y-1688158D01*
X9392331Y-1694307D01*
X9341706Y-1719099D01*
X9296702Y-1759661D01*
X9247406Y-1819237D01*
X9230678Y-1873766D01*
X9251263Y-1928945D01*
X9313907Y-1990469D01*
X9423358Y-2064032D01*
X9584361Y-2155331D01*
X9660369Y-2196031D01*
X9903115Y-2332963D01*
X10090010Y-2459429D01*
X10226328Y-2582165D01*
X10317344Y-2707911D01*
X10368332Y-2843404D01*
X10384566Y-2995385D01*
X10378274Y-3113268D01*
X10328770Y-3309261D01*
X10227115Y-3476835D01*
X10079255Y-3613199D01*
X9891138Y-3715561D01*
X9668709Y-3781131D01*
X9417916Y-3807116D01*
X9144706Y-3790728D01*
X8992260Y-3763779D01*
X8854891Y-3730473D01*
X8716220Y-3691303D01*
X8635073Y-3664781D01*
X8484000Y-3610455D01*
X8484000Y-2958534D01*
X8738135Y-3081431D01*
X8958874Y-3173063D01*
X9156035Y-3224774D01*
X9323617Y-3236231D01*
X9455621Y-3207100D01*
X9546046Y-3137045D01*
X9553204Y-3126815D01*
X9585380Y-3057304D01*
X9580764Y-2993862D01*
X9534104Y-2930591D01*
X9440152Y-2861591D01*
X9293657Y-2780962D01*
X9207742Y-2738615D01*
X9063613Y-2666537D01*
X8929518Y-2594754D01*
X8822720Y-2532764D01*
X8770372Y-2497999D01*
X8619262Y-2349519D01*
X8517831Y-2175823D01*
X8466799Y-1987681D01*
X8466884Y-1795864D01*
X8518804Y-1611140D01*
X8623280Y-1444280D01*
X8695149Y-1371179D01*
X8850018Y-1261431D01*
X9026922Y-1190342D01*
X9238784Y-1153906D01*
X9418450Y-1146876D01*
X9743465Y-1174081D01*
G36*
X8230000Y-3781750D02*
G01*
X7436250Y-3781750D01*
X7436250Y-1178250D01*
X8230000Y-1178250D01*
X8230000Y-3781750D01*
G37*
X8230000Y-3781750D02*
X7436250Y-3781750D01*
X7436250Y-1178250D01*
X8230000Y-1178250D01*
X8230000Y-3781750D01*
G36*
X11373233Y-1456062D02*
G01*
X11367712Y-1628989D01*
X11348616Y-1763914D01*
X11312114Y-1885583D01*
X11303194Y-1908500D01*
X11259236Y-2067783D01*
X11233456Y-2267443D01*
X11225874Y-2487006D01*
X11236511Y-2705998D01*
X11265388Y-2903947D01*
X11302057Y-3034524D01*
X11343778Y-3169630D01*
X11366148Y-3312067D01*
X11373222Y-3488510D01*
X11373250Y-3502837D01*
X11373250Y-3781750D01*
X10579500Y-3781750D01*
X10579500Y-1178250D01*
X11373250Y-1178250D01*
X11373233Y-1456062D01*
G37*
X11373233Y-1456062D02*
X11367712Y-1628989D01*
X11348616Y-1763914D01*
X11312114Y-1885583D01*
X11303194Y-1908500D01*
X11259236Y-2067783D01*
X11233456Y-2267443D01*
X11225874Y-2487006D01*
X11236511Y-2705998D01*
X11265388Y-2903947D01*
X11302057Y-3034524D01*
X11343778Y-3169630D01*
X11366148Y-3312067D01*
X11373222Y-3488510D01*
X11373250Y-3502837D01*
X11373250Y-3781750D01*
X10579500Y-3781750D01*
X10579500Y-1178250D01*
X11373250Y-1178250D01*
X11373233Y-1456062D01*
G36*
X17405750Y-1178250D02*
G01*
X17405750Y-3781750D01*
X17048562Y-3780779D01*
X16691375Y-3779808D01*
X16040500Y-3078329D01*
X15389625Y-2376851D01*
X15381080Y-3079300D01*
X15372535Y-3781750D01*
X14575164Y-3781750D01*
X14588347Y-3535687D01*
X14626728Y-3264102D01*
X14689475Y-3067375D01*
X14764177Y-2806494D01*
X14795263Y-2524519D01*
X14783351Y-2239222D01*
X14729056Y-1968370D01*
X14643799Y-1750337D01*
X14601536Y-1635405D01*
X14582261Y-1492055D01*
X14580000Y-1401764D01*
X14580000Y-1178250D01*
X14937187Y-1178722D01*
X15294375Y-1179194D01*
X15945250Y-1880421D01*
X16596125Y-2581649D01*
X16604669Y-1879949D01*
X16613214Y-1178249D01*
X17009482Y-1178249D01*
X17405750Y-1178250D01*
G37*
X17405750Y-1178250D02*
X17405750Y-3781750D01*
X17048562Y-3780779D01*
X16691375Y-3779808D01*
X16040500Y-3078329D01*
X15389625Y-2376851D01*
X15381080Y-3079300D01*
X15372535Y-3781750D01*
X14575164Y-3781750D01*
X14588347Y-3535687D01*
X14626728Y-3264102D01*
X14689475Y-3067375D01*
X14764177Y-2806494D01*
X14795263Y-2524519D01*
X14783351Y-2239222D01*
X14729056Y-1968370D01*
X14643799Y-1750337D01*
X14601536Y-1635405D01*
X14582261Y-1492055D01*
X14580000Y-1401764D01*
X14580000Y-1178250D01*
X14937187Y-1178722D01*
X15294375Y-1179194D01*
X15945250Y-1880421D01*
X16596125Y-2581649D01*
X16604669Y-1879949D01*
X16613214Y-1178249D01*
X17009482Y-1178249D01*
X17405750Y-1178250D01*
G36*
X18797610Y-1325188D02*
G01*
X18973797Y-1359339D01*
X19032937Y-1379313D01*
X19122824Y-1417991D01*
X19167552Y-1454403D01*
X19182562Y-1505252D01*
X19183750Y-1542456D01*
X19183750Y-1647411D01*
X19001187Y-1572334D01*
X18793416Y-1510242D01*
X18608991Y-1502754D01*
X18451765Y-1548899D01*
X18325590Y-1647707D01*
X18250966Y-1761207D01*
X18213911Y-1853694D01*
X18210189Y-1931445D01*
X18226879Y-2001682D01*
X18254001Y-2075656D01*
X18292056Y-2135924D01*
X18350981Y-2190012D01*
X18440713Y-2245443D01*
X18571191Y-2309745D01*
X18723740Y-2377953D01*
X18921593Y-2471129D01*
X19066098Y-2557565D01*
X19165509Y-2645935D01*
X19228078Y-2744912D01*
X19262058Y-2863171D01*
X19272759Y-2954969D01*
X19258535Y-3156920D01*
X19189117Y-3334158D01*
X19070319Y-3478761D01*
X18907954Y-3582806D01*
X18781021Y-3625116D01*
X18684517Y-3644424D01*
X18606289Y-3648399D01*
X18514486Y-3637075D01*
X18452297Y-3625441D01*
X18355087Y-3597760D01*
X18239212Y-3553229D01*
X18190360Y-3531010D01*
X18101767Y-3483849D01*
X18057270Y-3442151D01*
X18042034Y-3387735D01*
X18040750Y-3347646D01*
X18046615Y-3277844D01*
X18061076Y-3248000D01*
X18064562Y-3248537D01*
X18257794Y-3342555D01*
X18406227Y-3408344D01*
X18520718Y-3448257D01*
X18612119Y-3464646D01*
X18691285Y-3459860D01*
X18769071Y-3436253D01*
X18822389Y-3412710D01*
X18949614Y-3322488D01*
X19035455Y-3200044D01*
X19073603Y-3060128D01*
X19057749Y-2917492D01*
X19046767Y-2888101D01*
X18999268Y-2799530D01*
X18932987Y-2724614D01*
X18836849Y-2655017D01*
X18699779Y-2582405D01*
X18552854Y-2516390D01*
X18346554Y-2419177D01*
X18196096Y-2325329D01*
X18094836Y-2226916D01*
X18036129Y-2116007D01*
X18013330Y-1984671D01*
X18015291Y-1874763D01*
X18054546Y-1691119D01*
X18145974Y-1538771D01*
X18293791Y-1411037D01*
X18317882Y-1395572D01*
X18448650Y-1343782D01*
X18615561Y-1320162D01*
X18797610Y-1325188D01*
G37*
X18797610Y-1325188D02*
X18973797Y-1359339D01*
X19032937Y-1379313D01*
X19122824Y-1417991D01*
X19167552Y-1454403D01*
X19182562Y-1505252D01*
X19183750Y-1542456D01*
X19183750Y-1647411D01*
X19001187Y-1572334D01*
X18793416Y-1510242D01*
X18608991Y-1502754D01*
X18451765Y-1548899D01*
X18325590Y-1647707D01*
X18250966Y-1761207D01*
X18213911Y-1853694D01*
X18210189Y-1931445D01*
X18226879Y-2001682D01*
X18254001Y-2075656D01*
X18292056Y-2135924D01*
X18350981Y-2190012D01*
X18440713Y-2245443D01*
X18571191Y-2309745D01*
X18723740Y-2377953D01*
X18921593Y-2471129D01*
X19066098Y-2557565D01*
X19165509Y-2645935D01*
X19228078Y-2744912D01*
X19262058Y-2863171D01*
X19272759Y-2954969D01*
X19258535Y-3156920D01*
X19189117Y-3334158D01*
X19070319Y-3478761D01*
X18907954Y-3582806D01*
X18781021Y-3625116D01*
X18684517Y-3644424D01*
X18606289Y-3648399D01*
X18514486Y-3637075D01*
X18452297Y-3625441D01*
X18355087Y-3597760D01*
X18239212Y-3553229D01*
X18190360Y-3531010D01*
X18101767Y-3483849D01*
X18057270Y-3442151D01*
X18042034Y-3387735D01*
X18040750Y-3347646D01*
X18046615Y-3277844D01*
X18061076Y-3248000D01*
X18064562Y-3248537D01*
X18257794Y-3342555D01*
X18406227Y-3408344D01*
X18520718Y-3448257D01*
X18612119Y-3464646D01*
X18691285Y-3459860D01*
X18769071Y-3436253D01*
X18822389Y-3412710D01*
X18949614Y-3322488D01*
X19035455Y-3200044D01*
X19073603Y-3060128D01*
X19057749Y-2917492D01*
X19046767Y-2888101D01*
X18999268Y-2799530D01*
X18932987Y-2724614D01*
X18836849Y-2655017D01*
X18699779Y-2582405D01*
X18552854Y-2516390D01*
X18346554Y-2419177D01*
X18196096Y-2325329D01*
X18094836Y-2226916D01*
X18036129Y-2116007D01*
X18013330Y-1984671D01*
X18015291Y-1874763D01*
X18054546Y-1691119D01*
X18145974Y-1538771D01*
X18293791Y-1411037D01*
X18317882Y-1395572D01*
X18448650Y-1343782D01*
X18615561Y-1320162D01*
X18797610Y-1325188D01*
G36*
X26780526Y-1329744D02*
G01*
X26926698Y-1346750D01*
X27060763Y-1378510D01*
X27137125Y-1403122D01*
X27251696Y-1444585D01*
X27319153Y-1477424D01*
X27352955Y-1512069D01*
X27366560Y-1558950D01*
X27369324Y-1583062D01*
X27373418Y-1653031D01*
X27370087Y-1685530D01*
X27369324Y-1685825D01*
X27336989Y-1675864D01*
X27258781Y-1649552D01*
X27148721Y-1611641D01*
X27089500Y-1590999D01*
X26817257Y-1519054D01*
X26555864Y-1495112D01*
X26317198Y-1519794D01*
X26223792Y-1545759D01*
X26060417Y-1628062D01*
X25901198Y-1755244D01*
X25764997Y-1910408D01*
X25699087Y-2015708D01*
X25657610Y-2101948D01*
X25632052Y-2181621D01*
X25618700Y-2274862D01*
X25613838Y-2401803D01*
X25613430Y-2480000D01*
X25615566Y-2630207D01*
X25624435Y-2737081D01*
X25643730Y-2820714D01*
X25677142Y-2901199D01*
X25698551Y-2943233D01*
X25837715Y-3140893D01*
X26023981Y-3301105D01*
X26167136Y-3381520D01*
X26259273Y-3416821D01*
X26359933Y-3437085D01*
X26489819Y-3445410D01*
X26597375Y-3445907D01*
X26740528Y-3441034D01*
X26865256Y-3426201D01*
X26989378Y-3396990D01*
X27130716Y-3348981D01*
X27307092Y-3277757D01*
X27351437Y-3258929D01*
X27390101Y-3252854D01*
X27405244Y-3289083D01*
X27407000Y-3334981D01*
X27399707Y-3399124D01*
X27367450Y-3442469D01*
X27294661Y-3482608D01*
X27264723Y-3495743D01*
X26998804Y-3585258D01*
X26724408Y-3633352D01*
X26461656Y-3637231D01*
X26348152Y-3623029D01*
X26122271Y-3555641D01*
X25906688Y-3441181D01*
X25716184Y-3290412D01*
X25565539Y-3114094D01*
X25504263Y-3008551D01*
X25420898Y-2768102D01*
X25389058Y-2509080D01*
X25408786Y-2248773D01*
X25480124Y-2004466D01*
X25501715Y-1956712D01*
X25610534Y-1789473D01*
X25766036Y-1628733D01*
X25952009Y-1489729D01*
X26067236Y-1425175D01*
X26169757Y-1376962D01*
X26253403Y-1346657D01*
X26338764Y-1330316D01*
X26446433Y-1323995D01*
X26596760Y-1323747D01*
X26780526Y-1329744D01*
G37*
X26780526Y-1329744D02*
X26926698Y-1346750D01*
X27060763Y-1378510D01*
X27137125Y-1403122D01*
X27251696Y-1444585D01*
X27319153Y-1477424D01*
X27352955Y-1512069D01*
X27366560Y-1558950D01*
X27369324Y-1583062D01*
X27373418Y-1653031D01*
X27370087Y-1685530D01*
X27369324Y-1685825D01*
X27336989Y-1675864D01*
X27258781Y-1649552D01*
X27148721Y-1611641D01*
X27089500Y-1590999D01*
X26817257Y-1519054D01*
X26555864Y-1495112D01*
X26317198Y-1519794D01*
X26223792Y-1545759D01*
X26060417Y-1628062D01*
X25901198Y-1755244D01*
X25764997Y-1910408D01*
X25699087Y-2015708D01*
X25657610Y-2101948D01*
X25632052Y-2181621D01*
X25618700Y-2274862D01*
X25613838Y-2401803D01*
X25613430Y-2480000D01*
X25615566Y-2630207D01*
X25624435Y-2737081D01*
X25643730Y-2820714D01*
X25677142Y-2901199D01*
X25698551Y-2943233D01*
X25837715Y-3140893D01*
X26023981Y-3301105D01*
X26167136Y-3381520D01*
X26259273Y-3416821D01*
X26359933Y-3437085D01*
X26489819Y-3445410D01*
X26597375Y-3445907D01*
X26740528Y-3441034D01*
X26865256Y-3426201D01*
X26989378Y-3396990D01*
X27130716Y-3348981D01*
X27307092Y-3277757D01*
X27351437Y-3258929D01*
X27390101Y-3252854D01*
X27405244Y-3289083D01*
X27407000Y-3334981D01*
X27399707Y-3399124D01*
X27367450Y-3442469D01*
X27294661Y-3482608D01*
X27264723Y-3495743D01*
X26998804Y-3585258D01*
X26724408Y-3633352D01*
X26461656Y-3637231D01*
X26348152Y-3623029D01*
X26122271Y-3555641D01*
X25906688Y-3441181D01*
X25716184Y-3290412D01*
X25565539Y-3114094D01*
X25504263Y-3008551D01*
X25420898Y-2768102D01*
X25389058Y-2509080D01*
X25408786Y-2248773D01*
X25480124Y-2004466D01*
X25501715Y-1956712D01*
X25610534Y-1789473D01*
X25766036Y-1628733D01*
X25952009Y-1489729D01*
X26067236Y-1425175D01*
X26169757Y-1376962D01*
X26253403Y-1346657D01*
X26338764Y-1330316D01*
X26446433Y-1323995D01*
X26596760Y-1323747D01*
X26780526Y-1329744D01*
G36*
X20922062Y-1342649D02*
G01*
X21111011Y-1348311D01*
X21249169Y-1355746D01*
X21349242Y-1366692D01*
X21423941Y-1382888D01*
X21485972Y-1406072D01*
X21524231Y-1425030D01*
X21673597Y-1531944D01*
X21769111Y-1668663D01*
X21814222Y-1841136D01*
X21819000Y-1933321D01*
X21805144Y-2108665D01*
X21759152Y-2243729D01*
X21674387Y-2356387D01*
X21654895Y-2375297D01*
X21561591Y-2447166D01*
X21453393Y-2496540D01*
X21317249Y-2526741D01*
X21140109Y-2541094D01*
X20994519Y-2543500D01*
X20644250Y-2543500D01*
X20644250Y-3623000D01*
X20453750Y-3623000D01*
X20453750Y-2384750D01*
X20644250Y-2384750D01*
X20953812Y-2384052D01*
X21128935Y-2379545D01*
X21257579Y-2365443D01*
X21356337Y-2339498D01*
X21392783Y-2324580D01*
X21514115Y-2237549D01*
X21593566Y-2114595D01*
X21626664Y-1971107D01*
X21608938Y-1822472D01*
X21566285Y-1727478D01*
X21498544Y-1640018D01*
X21411522Y-1577886D01*
X21293713Y-1536730D01*
X21133613Y-1512194D01*
X20969687Y-1501702D01*
X20644250Y-1488547D01*
X20644250Y-2384750D01*
X20453750Y-2384750D01*
X20453750Y-1331175D01*
X20922062Y-1342649D01*
G37*
X20922062Y-1342649D02*
X21111011Y-1348311D01*
X21249169Y-1355746D01*
X21349242Y-1366692D01*
X21423941Y-1382888D01*
X21485972Y-1406072D01*
X21524231Y-1425030D01*
X21673597Y-1531944D01*
X21769111Y-1668663D01*
X21814222Y-1841136D01*
X21819000Y-1933321D01*
X21805144Y-2108665D01*
X21759152Y-2243729D01*
X21674387Y-2356387D01*
X21654895Y-2375297D01*
X21561591Y-2447166D01*
X21453393Y-2496540D01*
X21317249Y-2526741D01*
X21140109Y-2541094D01*
X20994519Y-2543500D01*
X20644250Y-2543500D01*
X20644250Y-3623000D01*
X20453750Y-3623000D01*
X20453750Y-2384750D01*
X20644250Y-2384750D01*
X20953812Y-2384052D01*
X21128935Y-2379545D01*
X21257579Y-2365443D01*
X21356337Y-2339498D01*
X21392783Y-2324580D01*
X21514115Y-2237549D01*
X21593566Y-2114595D01*
X21626664Y-1971107D01*
X21608938Y-1822472D01*
X21566285Y-1727478D01*
X21498544Y-1640018D01*
X21411522Y-1577886D01*
X21293713Y-1536730D01*
X21133613Y-1512194D01*
X20969687Y-1501702D01*
X20644250Y-1488547D01*
X20644250Y-2384750D01*
X20453750Y-2384750D01*
X20453750Y-1331175D01*
X20922062Y-1342649D01*
G36*
X23518249Y-1358865D02*
G01*
X23542712Y-1380298D01*
X23573659Y-1422362D01*
X23613799Y-1490247D01*
X23665844Y-1589145D01*
X23732502Y-1724244D01*
X23816484Y-1900735D01*
X23920499Y-2123808D01*
X24047258Y-2398653D01*
X24074123Y-2457124D01*
X24187391Y-2704542D01*
X24291851Y-2934222D01*
X24384611Y-3139694D01*
X24462783Y-3314493D01*
X24523476Y-3452148D01*
X24563802Y-3546194D01*
X24580869Y-3590161D01*
X24581250Y-3592187D01*
X24553794Y-3614347D01*
X24491795Y-3623000D01*
X24453975Y-3619294D01*
X24421304Y-3602104D01*
X24387541Y-3562318D01*
X24346446Y-3490828D01*
X24291778Y-3378523D01*
X24225378Y-3234062D01*
X24048415Y-2845125D01*
X22959509Y-2827739D01*
X22771856Y-3225369D01*
X22695376Y-3385136D01*
X22638748Y-3495714D01*
X22596008Y-3565932D01*
X22561192Y-3604617D01*
X22528338Y-3620596D01*
X22503226Y-3623000D01*
X22441889Y-3608922D01*
X22422250Y-3581346D01*
X22435125Y-3543999D01*
X22471807Y-3455629D01*
X22529380Y-3322816D01*
X22604928Y-3152139D01*
X22695537Y-2950180D01*
X22798289Y-2723517D01*
X22822542Y-2670500D01*
X23027103Y-2670500D01*
X23486676Y-2670500D01*
X23649293Y-2668869D01*
X23786629Y-2664384D01*
X23887512Y-2657654D01*
X23940770Y-2649289D01*
X23946250Y-2645428D01*
X23933594Y-2608924D01*
X23899287Y-2527035D01*
X23848814Y-2411782D01*
X23787663Y-2275187D01*
X23721322Y-2129273D01*
X23655277Y-1986062D01*
X23595015Y-1857576D01*
X23546025Y-1755838D01*
X23513793Y-1692869D01*
X23505210Y-1679133D01*
X23484227Y-1695649D01*
X23445398Y-1759102D01*
X23395418Y-1857862D01*
X23368155Y-1917258D01*
X23296776Y-2076822D01*
X23217177Y-2253464D01*
X23145510Y-2411354D01*
X23139536Y-2424437D01*
X23027103Y-2670500D01*
X22822542Y-2670500D01*
X22910271Y-2478731D01*
X22925188Y-2446283D01*
X23056075Y-2162559D01*
X23163695Y-1931559D01*
X23250778Y-1748069D01*
X23320051Y-1606878D01*
X23374242Y-1502774D01*
X23416081Y-1430544D01*
X23448296Y-1384976D01*
X23473614Y-1360858D01*
X23494766Y-1352979D01*
X23497561Y-1352875D01*
X23518249Y-1358865D01*
G37*
X23518249Y-1358865D02*
X23542712Y-1380298D01*
X23573659Y-1422362D01*
X23613799Y-1490247D01*
X23665844Y-1589145D01*
X23732502Y-1724244D01*
X23816484Y-1900735D01*
X23920499Y-2123808D01*
X24047258Y-2398653D01*
X24074123Y-2457124D01*
X24187391Y-2704542D01*
X24291851Y-2934222D01*
X24384611Y-3139694D01*
X24462783Y-3314493D01*
X24523476Y-3452148D01*
X24563802Y-3546194D01*
X24580869Y-3590161D01*
X24581250Y-3592187D01*
X24553794Y-3614347D01*
X24491795Y-3623000D01*
X24453975Y-3619294D01*
X24421304Y-3602104D01*
X24387541Y-3562318D01*
X24346446Y-3490828D01*
X24291778Y-3378523D01*
X24225378Y-3234062D01*
X24048415Y-2845125D01*
X22959509Y-2827739D01*
X22771856Y-3225369D01*
X22695376Y-3385136D01*
X22638748Y-3495714D01*
X22596008Y-3565932D01*
X22561192Y-3604617D01*
X22528338Y-3620596D01*
X22503226Y-3623000D01*
X22441889Y-3608922D01*
X22422250Y-3581346D01*
X22435125Y-3543999D01*
X22471807Y-3455629D01*
X22529380Y-3322816D01*
X22604928Y-3152139D01*
X22695537Y-2950180D01*
X22798289Y-2723517D01*
X22822542Y-2670500D01*
X23027103Y-2670500D01*
X23486676Y-2670500D01*
X23649293Y-2668869D01*
X23786629Y-2664384D01*
X23887512Y-2657654D01*
X23940770Y-2649289D01*
X23946250Y-2645428D01*
X23933594Y-2608924D01*
X23899287Y-2527035D01*
X23848814Y-2411782D01*
X23787663Y-2275187D01*
X23721322Y-2129273D01*
X23655277Y-1986062D01*
X23595015Y-1857576D01*
X23546025Y-1755838D01*
X23513793Y-1692869D01*
X23505210Y-1679133D01*
X23484227Y-1695649D01*
X23445398Y-1759102D01*
X23395418Y-1857862D01*
X23368155Y-1917258D01*
X23296776Y-2076822D01*
X23217177Y-2253464D01*
X23145510Y-2411354D01*
X23139536Y-2424437D01*
X23027103Y-2670500D01*
X22822542Y-2670500D01*
X22910271Y-2478731D01*
X22925188Y-2446283D01*
X23056075Y-2162559D01*
X23163695Y-1931559D01*
X23250778Y-1748069D01*
X23320051Y-1606878D01*
X23374242Y-1502774D01*
X23416081Y-1430544D01*
X23448296Y-1384976D01*
X23473614Y-1360858D01*
X23494766Y-1352979D01*
X23497561Y-1352875D01*
X23518249Y-1358865D01*
G36*
X29756500Y-1495750D02*
G01*
X28708750Y-1495750D01*
X28708750Y-2384750D01*
X29756500Y-2384750D01*
X29756500Y-2543500D01*
X28708750Y-2543500D01*
X28708750Y-3464250D01*
X29788250Y-3464250D01*
X29788250Y-3623000D01*
X28518250Y-3623000D01*
X28518250Y-1337000D01*
X29756500Y-1337000D01*
X29756500Y-1495750D01*
G37*
X29756500Y-1495750D02*
X28708750Y-1495750D01*
X28708750Y-2384750D01*
X29756500Y-2384750D01*
X29756500Y-2543500D01*
X28708750Y-2543500D01*
X28708750Y-3464250D01*
X29788250Y-3464250D01*
X29788250Y-3623000D01*
X28518250Y-3623000D01*
X28518250Y-1337000D01*
X29756500Y-1337000D01*
X29756500Y-1495750D01*
G36*
X13130878Y-1660333D02*
G01*
X13251823Y-1674301D01*
X13282846Y-1682527D01*
X13353615Y-1711802D01*
X13381154Y-1751737D01*
X13381061Y-1827119D01*
X13380168Y-1837178D01*
X13386637Y-1959950D01*
X13436062Y-2038308D01*
X13533270Y-2077424D01*
X13610739Y-2084122D01*
X13708417Y-2092251D01*
X13769806Y-2120735D01*
X13806216Y-2182469D01*
X13828958Y-2290347D01*
X13835677Y-2340557D01*
X13837760Y-2569770D01*
X13788793Y-2783142D01*
X13693553Y-2970384D01*
X13556817Y-3121209D01*
X13436115Y-3201087D01*
X13298262Y-3251000D01*
X13127204Y-3283500D01*
X12951683Y-3295128D01*
X12800443Y-3282425D01*
X12786125Y-3279300D01*
X12725281Y-3259142D01*
X12700420Y-3223569D01*
X12699255Y-3151047D01*
X12700816Y-3129795D01*
X12686553Y-3003892D01*
X12626905Y-2916672D01*
X12530316Y-2873134D01*
X12405230Y-2878275D01*
X12322350Y-2905790D01*
X12276244Y-2897606D01*
X12237729Y-2838544D01*
X12208050Y-2740910D01*
X12188455Y-2617007D01*
X12180191Y-2479142D01*
X12184505Y-2339619D01*
X12202644Y-2210742D01*
X12235856Y-2104817D01*
X12240240Y-2095584D01*
X12333279Y-1953237D01*
X12458185Y-1822284D01*
X12591237Y-1727514D01*
X12593694Y-1726222D01*
X12690432Y-1694375D01*
X12827398Y-1671815D01*
X12981808Y-1659986D01*
X13130878Y-1660333D01*
G37*
X13130878Y-1660333D02*
X13251823Y-1674301D01*
X13282846Y-1682527D01*
X13353615Y-1711802D01*
X13381154Y-1751737D01*
X13381061Y-1827119D01*
X13380168Y-1837178D01*
X13386637Y-1959950D01*
X13436062Y-2038308D01*
X13533270Y-2077424D01*
X13610739Y-2084122D01*
X13708417Y-2092251D01*
X13769806Y-2120735D01*
X13806216Y-2182469D01*
X13828958Y-2290347D01*
X13835677Y-2340557D01*
X13837760Y-2569770D01*
X13788793Y-2783142D01*
X13693553Y-2970384D01*
X13556817Y-3121209D01*
X13436115Y-3201087D01*
X13298262Y-3251000D01*
X13127204Y-3283500D01*
X12951683Y-3295128D01*
X12800443Y-3282425D01*
X12786125Y-3279300D01*
X12725281Y-3259142D01*
X12700420Y-3223569D01*
X12699255Y-3151047D01*
X12700816Y-3129795D01*
X12686553Y-3003892D01*
X12626905Y-2916672D01*
X12530316Y-2873134D01*
X12405230Y-2878275D01*
X12322350Y-2905790D01*
X12276244Y-2897606D01*
X12237729Y-2838544D01*
X12208050Y-2740910D01*
X12188455Y-2617007D01*
X12180191Y-2479142D01*
X12184505Y-2339619D01*
X12202644Y-2210742D01*
X12235856Y-2104817D01*
X12240240Y-2095584D01*
X12333279Y-1953237D01*
X12458185Y-1822284D01*
X12591237Y-1727514D01*
X12593694Y-1726222D01*
X12690432Y-1694375D01*
X12827398Y-1671815D01*
X12981808Y-1659986D01*
X13130878Y-1660333D01*
G04 #@! TO.C,LOGO2*
G36*
X64740061Y-530637D02*
G01*
X64864449Y-590871D01*
X65040718Y-683370D01*
X65255742Y-801219D01*
X65496397Y-937502D01*
X65533399Y-958820D01*
X65811112Y-1121119D01*
X66015954Y-1245764D01*
X66155121Y-1337744D01*
X66235808Y-1402048D01*
X66265212Y-1443666D01*
X66259113Y-1461989D01*
X66203230Y-1499929D01*
X66081845Y-1574682D01*
X65908337Y-1678264D01*
X65696083Y-1802689D01*
X65458463Y-1939973D01*
X65453928Y-1942574D01*
X64705536Y-2371846D01*
X63934464Y-1924792D01*
X63693729Y-1785179D01*
X63478118Y-1660062D01*
X63300615Y-1556981D01*
X63174202Y-1483476D01*
X63111863Y-1447088D01*
X63109472Y-1445673D01*
X63130993Y-1415671D01*
X63218162Y-1350039D01*
X63357208Y-1256982D01*
X63534359Y-1144705D01*
X63735842Y-1021412D01*
X63947887Y-895309D01*
X64156721Y-774600D01*
X64348573Y-667491D01*
X64509671Y-582186D01*
X64626242Y-526890D01*
X64680679Y-509581D01*
X64740061Y-530637D01*
G37*
X64740061Y-530637D02*
X64864449Y-590871D01*
X65040718Y-683370D01*
X65255742Y-801219D01*
X65496397Y-937502D01*
X65533399Y-958820D01*
X65811112Y-1121119D01*
X66015954Y-1245764D01*
X66155121Y-1337744D01*
X66235808Y-1402048D01*
X66265212Y-1443666D01*
X66259113Y-1461989D01*
X66203230Y-1499929D01*
X66081845Y-1574682D01*
X65908337Y-1678264D01*
X65696083Y-1802689D01*
X65458463Y-1939973D01*
X65453928Y-1942574D01*
X64705536Y-2371846D01*
X63934464Y-1924792D01*
X63693729Y-1785179D01*
X63478118Y-1660062D01*
X63300615Y-1556981D01*
X63174202Y-1483476D01*
X63111863Y-1447088D01*
X63109472Y-1445673D01*
X63130993Y-1415671D01*
X63218162Y-1350039D01*
X63357208Y-1256982D01*
X63534359Y-1144705D01*
X63735842Y-1021412D01*
X63947887Y-895309D01*
X64156721Y-774600D01*
X64348573Y-667491D01*
X64509671Y-582186D01*
X64626242Y-526890D01*
X64680679Y-509581D01*
X64740061Y-530637D01*
G36*
X74326380Y-1489636D02*
G01*
X74575347Y-1492522D01*
X75500536Y-1504821D01*
X75500536Y-1913036D01*
X74788266Y-1935714D01*
X74481523Y-1948115D01*
X74256468Y-1964665D01*
X74104089Y-1987870D01*
X74015374Y-2020240D01*
X73981313Y-2064281D01*
X73992894Y-2122501D01*
X74009591Y-2152409D01*
X74048512Y-2189580D01*
X74121009Y-2214671D01*
X74244177Y-2230737D01*
X74435111Y-2240835D01*
X74518840Y-2243462D01*
X74978928Y-2256388D01*
X74978928Y-2703612D01*
X74518840Y-2716538D01*
X74300865Y-2725300D01*
X74156491Y-2738985D01*
X74068622Y-2760652D01*
X74020163Y-2793357D01*
X74009591Y-2807591D01*
X73981212Y-2872655D01*
X73994613Y-2922465D01*
X74058806Y-2959528D01*
X74182802Y-2986353D01*
X74375613Y-3005448D01*
X74646251Y-3019319D01*
X74788266Y-3024286D01*
X75500536Y-3046964D01*
X75500536Y-3455179D01*
X74567216Y-3467414D01*
X74251445Y-3470987D01*
X74013901Y-3471702D01*
X73842118Y-3468675D01*
X73723631Y-3461021D01*
X73645973Y-3447856D01*
X73596678Y-3428295D01*
X73563280Y-3401453D01*
X73558019Y-3395807D01*
X73530753Y-3354615D01*
X73510770Y-3291421D01*
X73496997Y-3193149D01*
X73488361Y-3046725D01*
X73483786Y-2839072D01*
X73482198Y-2557115D01*
X73482143Y-2472119D01*
X73482884Y-2173518D01*
X73485917Y-1952399D01*
X73492455Y-1795536D01*
X73503710Y-1689702D01*
X73520897Y-1621671D01*
X73545227Y-1578217D01*
X73566150Y-1556248D01*
X73604176Y-1530347D01*
X73661044Y-1511415D01*
X73749227Y-1498666D01*
X73881196Y-1491311D01*
X74069423Y-1488564D01*
X74326380Y-1489636D01*
G37*
X74326380Y-1489636D02*
X74575347Y-1492522D01*
X75500536Y-1504821D01*
X75500536Y-1913036D01*
X74788266Y-1935714D01*
X74481523Y-1948115D01*
X74256468Y-1964665D01*
X74104089Y-1987870D01*
X74015374Y-2020240D01*
X73981313Y-2064281D01*
X73992894Y-2122501D01*
X74009591Y-2152409D01*
X74048512Y-2189580D01*
X74121009Y-2214671D01*
X74244177Y-2230737D01*
X74435111Y-2240835D01*
X74518840Y-2243462D01*
X74978928Y-2256388D01*
X74978928Y-2703612D01*
X74518840Y-2716538D01*
X74300865Y-2725300D01*
X74156491Y-2738985D01*
X74068622Y-2760652D01*
X74020163Y-2793357D01*
X74009591Y-2807591D01*
X73981212Y-2872655D01*
X73994613Y-2922465D01*
X74058806Y-2959528D01*
X74182802Y-2986353D01*
X74375613Y-3005448D01*
X74646251Y-3019319D01*
X74788266Y-3024286D01*
X75500536Y-3046964D01*
X75500536Y-3455179D01*
X74567216Y-3467414D01*
X74251445Y-3470987D01*
X74013901Y-3471702D01*
X73842118Y-3468675D01*
X73723631Y-3461021D01*
X73645973Y-3447856D01*
X73596678Y-3428295D01*
X73563280Y-3401453D01*
X73558019Y-3395807D01*
X73530753Y-3354615D01*
X73510770Y-3291421D01*
X73496997Y-3193149D01*
X73488361Y-3046725D01*
X73483786Y-2839072D01*
X73482198Y-2557115D01*
X73482143Y-2472119D01*
X73482884Y-2173518D01*
X73485917Y-1952399D01*
X73492455Y-1795536D01*
X73503710Y-1689702D01*
X73520897Y-1621671D01*
X73545227Y-1578217D01*
X73566150Y-1556248D01*
X73604176Y-1530347D01*
X73661044Y-1511415D01*
X73749227Y-1498666D01*
X73881196Y-1491311D01*
X74069423Y-1488564D01*
X74326380Y-1489636D01*
G36*
X72428628Y-1482913D02*
G01*
X72639930Y-1486224D01*
X72789752Y-1493579D01*
X72892705Y-1506481D01*
X72963404Y-1526432D01*
X73016462Y-1554935D01*
X73043571Y-1574920D01*
X73156672Y-1712589D01*
X73218490Y-1888230D01*
X73217743Y-2064330D01*
X73204388Y-2109664D01*
X73136304Y-2237284D01*
X73043729Y-2350278D01*
X72950856Y-2422184D01*
X72907272Y-2434643D01*
X72852172Y-2461892D01*
X72847143Y-2480000D01*
X72883266Y-2521564D01*
X72907272Y-2525357D01*
X72989571Y-2562222D01*
X73085285Y-2655175D01*
X73170222Y-2777754D01*
X73204388Y-2850336D01*
X73225172Y-3019640D01*
X73180152Y-3199251D01*
X73080611Y-3351653D01*
X73043571Y-3385080D01*
X72993994Y-3418957D01*
X72934858Y-3443452D01*
X72851549Y-3460067D01*
X72729455Y-3470304D01*
X72553962Y-3475666D01*
X72310456Y-3477656D01*
X72141230Y-3477857D01*
X71846973Y-3476609D01*
X71630370Y-3472141D01*
X71478385Y-3463367D01*
X71377980Y-3449201D01*
X71316122Y-3428557D01*
X71285561Y-3406582D01*
X71259995Y-3368050D01*
X71241182Y-3302675D01*
X71228164Y-3198002D01*
X71219984Y-3041574D01*
X71217248Y-2901214D01*
X71720805Y-2901214D01*
X71786347Y-2966329D01*
X71938079Y-3007105D01*
X72176619Y-3023810D01*
X72234821Y-3024286D01*
X72475538Y-3015068D01*
X72632522Y-2986924D01*
X72691063Y-2958906D01*
X72750518Y-2893513D01*
X72734502Y-2821109D01*
X72728806Y-2811496D01*
X72692945Y-2772945D01*
X72630396Y-2748527D01*
X72522947Y-2735217D01*
X72352385Y-2729991D01*
X72234821Y-2729464D01*
X72024926Y-2731724D01*
X71887462Y-2740520D01*
X71804218Y-2758877D01*
X71756978Y-2789820D01*
X71740836Y-2811496D01*
X71720805Y-2901214D01*
X71217248Y-2901214D01*
X71215682Y-2820935D01*
X71214301Y-2523630D01*
X71214286Y-2480000D01*
X71215366Y-2172126D01*
X71216190Y-2123341D01*
X71722732Y-2123341D01*
X71755416Y-2181377D01*
X71810359Y-2219199D01*
X71909998Y-2241734D01*
X72072142Y-2251873D01*
X72198000Y-2253214D01*
X72385778Y-2247819D01*
X72546449Y-2233479D01*
X72652251Y-2212965D01*
X72668696Y-2206261D01*
X72739380Y-2141884D01*
X72756428Y-2094464D01*
X72721619Y-2018630D01*
X72613819Y-1969508D01*
X72427967Y-1945783D01*
X72182608Y-1945292D01*
X71978944Y-1956049D01*
X71848368Y-1974226D01*
X71773335Y-2003364D01*
X71743316Y-2033966D01*
X71722732Y-2123341D01*
X71216190Y-2123341D01*
X71219246Y-1942492D01*
X71226884Y-1778641D01*
X71239238Y-1668118D01*
X71257266Y-1598468D01*
X71281926Y-1557233D01*
X71285561Y-1553418D01*
X71325921Y-1526793D01*
X71394370Y-1507517D01*
X71503942Y-1494504D01*
X71667676Y-1486668D01*
X71898605Y-1482923D01*
X72141230Y-1482143D01*
X72428628Y-1482913D01*
G37*
X72428628Y-1482913D02*
X72639930Y-1486224D01*
X72789752Y-1493579D01*
X72892705Y-1506481D01*
X72963404Y-1526432D01*
X73016462Y-1554935D01*
X73043571Y-1574920D01*
X73156672Y-1712589D01*
X73218490Y-1888230D01*
X73217743Y-2064330D01*
X73204388Y-2109664D01*
X73136304Y-2237284D01*
X73043729Y-2350278D01*
X72950856Y-2422184D01*
X72907272Y-2434643D01*
X72852172Y-2461892D01*
X72847143Y-2480000D01*
X72883266Y-2521564D01*
X72907272Y-2525357D01*
X72989571Y-2562222D01*
X73085285Y-2655175D01*
X73170222Y-2777754D01*
X73204388Y-2850336D01*
X73225172Y-3019640D01*
X73180152Y-3199251D01*
X73080611Y-3351653D01*
X73043571Y-3385080D01*
X72993994Y-3418957D01*
X72934858Y-3443452D01*
X72851549Y-3460067D01*
X72729455Y-3470304D01*
X72553962Y-3475666D01*
X72310456Y-3477656D01*
X72141230Y-3477857D01*
X71846973Y-3476609D01*
X71630370Y-3472141D01*
X71478385Y-3463367D01*
X71377980Y-3449201D01*
X71316122Y-3428557D01*
X71285561Y-3406582D01*
X71259995Y-3368050D01*
X71241182Y-3302675D01*
X71228164Y-3198002D01*
X71219984Y-3041574D01*
X71217248Y-2901214D01*
X71720805Y-2901214D01*
X71786347Y-2966329D01*
X71938079Y-3007105D01*
X72176619Y-3023810D01*
X72234821Y-3024286D01*
X72475538Y-3015068D01*
X72632522Y-2986924D01*
X72691063Y-2958906D01*
X72750518Y-2893513D01*
X72734502Y-2821109D01*
X72728806Y-2811496D01*
X72692945Y-2772945D01*
X72630396Y-2748527D01*
X72522947Y-2735217D01*
X72352385Y-2729991D01*
X72234821Y-2729464D01*
X72024926Y-2731724D01*
X71887462Y-2740520D01*
X71804218Y-2758877D01*
X71756978Y-2789820D01*
X71740836Y-2811496D01*
X71720805Y-2901214D01*
X71217248Y-2901214D01*
X71215682Y-2820935D01*
X71214301Y-2523630D01*
X71214286Y-2480000D01*
X71215366Y-2172126D01*
X71216190Y-2123341D01*
X71722732Y-2123341D01*
X71755416Y-2181377D01*
X71810359Y-2219199D01*
X71909998Y-2241734D01*
X72072142Y-2251873D01*
X72198000Y-2253214D01*
X72385778Y-2247819D01*
X72546449Y-2233479D01*
X72652251Y-2212965D01*
X72668696Y-2206261D01*
X72739380Y-2141884D01*
X72756428Y-2094464D01*
X72721619Y-2018630D01*
X72613819Y-1969508D01*
X72427967Y-1945783D01*
X72182608Y-1945292D01*
X71978944Y-1956049D01*
X71848368Y-1974226D01*
X71773335Y-2003364D01*
X71743316Y-2033966D01*
X71722732Y-2123341D01*
X71216190Y-2123341D01*
X71219246Y-1942492D01*
X71226884Y-1778641D01*
X71239238Y-1668118D01*
X71257266Y-1598468D01*
X71281926Y-1557233D01*
X71285561Y-1553418D01*
X71325921Y-1526793D01*
X71394370Y-1507517D01*
X71503942Y-1494504D01*
X71667676Y-1486668D01*
X71898605Y-1482923D01*
X72141230Y-1482143D01*
X72428628Y-1482913D01*
G36*
X70942143Y-2425571D02*
G01*
X70940261Y-2780112D01*
X70934381Y-3050508D01*
X70924148Y-3243258D01*
X70909207Y-3364857D01*
X70889203Y-3421805D01*
X70887714Y-3423428D01*
X70833238Y-3444332D01*
X70712982Y-3459859D01*
X70520559Y-3470375D01*
X70249584Y-3476244D01*
X69936810Y-3477857D01*
X69629626Y-3477373D01*
X69400753Y-3475139D01*
X69237790Y-3469977D01*
X69128337Y-3460713D01*
X69059991Y-3446171D01*
X69020352Y-3425176D01*
X68997018Y-3396551D01*
X68992419Y-3388326D01*
X68974825Y-3306458D01*
X68962559Y-3140718D01*
X68955861Y-2897807D01*
X68954973Y-2584423D01*
X68956805Y-2401808D01*
X68969107Y-1504821D01*
X69422678Y-1504821D01*
X69445357Y-2206617D01*
X69454404Y-2472818D01*
X69463289Y-2662757D01*
X69474594Y-2790845D01*
X69490902Y-2871490D01*
X69514798Y-2919105D01*
X69548863Y-2948098D01*
X69581428Y-2965680D01*
X69687451Y-2996570D01*
X69845314Y-3017632D01*
X69980365Y-3023617D01*
X70148845Y-3018511D01*
X70257845Y-2996481D01*
X70338216Y-2948926D01*
X70377240Y-2912954D01*
X70420655Y-2865784D01*
X70451011Y-2814944D01*
X70470643Y-2744279D01*
X70481881Y-2637632D01*
X70487060Y-2478849D01*
X70488512Y-2251774D01*
X70488571Y-2141883D01*
X70488571Y-1482143D01*
X70942143Y-1482143D01*
X70942143Y-2425571D01*
G37*
X70942143Y-2425571D02*
X70940261Y-2780112D01*
X70934381Y-3050508D01*
X70924148Y-3243258D01*
X70909207Y-3364857D01*
X70889203Y-3421805D01*
X70887714Y-3423428D01*
X70833238Y-3444332D01*
X70712982Y-3459859D01*
X70520559Y-3470375D01*
X70249584Y-3476244D01*
X69936810Y-3477857D01*
X69629626Y-3477373D01*
X69400753Y-3475139D01*
X69237790Y-3469977D01*
X69128337Y-3460713D01*
X69059991Y-3446171D01*
X69020352Y-3425176D01*
X68997018Y-3396551D01*
X68992419Y-3388326D01*
X68974825Y-3306458D01*
X68962559Y-3140718D01*
X68955861Y-2897807D01*
X68954973Y-2584423D01*
X68956805Y-2401808D01*
X68969107Y-1504821D01*
X69422678Y-1504821D01*
X69445357Y-2206617D01*
X69454404Y-2472818D01*
X69463289Y-2662757D01*
X69474594Y-2790845D01*
X69490902Y-2871490D01*
X69514798Y-2919105D01*
X69548863Y-2948098D01*
X69581428Y-2965680D01*
X69687451Y-2996570D01*
X69845314Y-3017632D01*
X69980365Y-3023617D01*
X70148845Y-3018511D01*
X70257845Y-2996481D01*
X70338216Y-2948926D01*
X70377240Y-2912954D01*
X70420655Y-2865784D01*
X70451011Y-2814944D01*
X70470643Y-2744279D01*
X70481881Y-2637632D01*
X70487060Y-2478849D01*
X70488512Y-2251774D01*
X70488571Y-2141883D01*
X70488571Y-1482143D01*
X70942143Y-1482143D01*
X70942143Y-2425571D01*
G36*
X68674286Y-1935714D02*
G01*
X68050625Y-1936383D01*
X67731179Y-1941692D01*
X67496557Y-1956728D01*
X67348994Y-1981314D01*
X67313571Y-1994419D01*
X67260736Y-2025972D01*
X67227520Y-2068678D01*
X67209383Y-2141978D01*
X67201784Y-2265315D01*
X67200183Y-2458132D01*
X67200178Y-2480000D01*
X67201456Y-2680172D01*
X67208314Y-2809078D01*
X67225294Y-2886162D01*
X67256937Y-2930866D01*
X67307781Y-2962633D01*
X67313571Y-2965581D01*
X67423973Y-2994118D01*
X67622373Y-3013179D01*
X67906534Y-3022587D01*
X68050625Y-3023617D01*
X68674286Y-3024286D01*
X68674286Y-3477857D01*
X67723381Y-3477857D01*
X67405686Y-3477394D01*
X67166720Y-3475304D01*
X66994500Y-3470532D01*
X66877044Y-3462026D01*
X66802368Y-3448731D01*
X66758490Y-3429594D01*
X66733427Y-3403562D01*
X66725524Y-3390125D01*
X66709063Y-3314011D01*
X66695476Y-3160658D01*
X66685456Y-2943517D01*
X66679699Y-2676036D01*
X66678571Y-2480000D01*
X66681161Y-2186836D01*
X66688467Y-1935202D01*
X66699795Y-1738548D01*
X66714452Y-1610322D01*
X66725524Y-1569875D01*
X66746214Y-1540587D01*
X66780615Y-1518642D01*
X66840711Y-1502989D01*
X66938485Y-1492572D01*
X67085920Y-1486339D01*
X67294999Y-1483235D01*
X67577704Y-1482208D01*
X67723381Y-1482143D01*
X68674286Y-1482143D01*
X68674286Y-1935714D01*
G37*
X68674286Y-1935714D02*
X68050625Y-1936383D01*
X67731179Y-1941692D01*
X67496557Y-1956728D01*
X67348994Y-1981314D01*
X67313571Y-1994419D01*
X67260736Y-2025972D01*
X67227520Y-2068678D01*
X67209383Y-2141978D01*
X67201784Y-2265315D01*
X67200183Y-2458132D01*
X67200178Y-2480000D01*
X67201456Y-2680172D01*
X67208314Y-2809078D01*
X67225294Y-2886162D01*
X67256937Y-2930866D01*
X67307781Y-2962633D01*
X67313571Y-2965581D01*
X67423973Y-2994118D01*
X67622373Y-3013179D01*
X67906534Y-3022587D01*
X68050625Y-3023617D01*
X68674286Y-3024286D01*
X68674286Y-3477857D01*
X67723381Y-3477857D01*
X67405686Y-3477394D01*
X67166720Y-3475304D01*
X66994500Y-3470532D01*
X66877044Y-3462026D01*
X66802368Y-3448731D01*
X66758490Y-3429594D01*
X66733427Y-3403562D01*
X66725524Y-3390125D01*
X66709063Y-3314011D01*
X66695476Y-3160658D01*
X66685456Y-2943517D01*
X66679699Y-2676036D01*
X66678571Y-2480000D01*
X66681161Y-2186836D01*
X66688467Y-1935202D01*
X66699795Y-1738548D01*
X66714452Y-1610322D01*
X66725524Y-1569875D01*
X66746214Y-1540587D01*
X66780615Y-1518642D01*
X66840711Y-1502989D01*
X66938485Y-1492572D01*
X67085920Y-1486339D01*
X67294999Y-1483235D01*
X67577704Y-1482208D01*
X67723381Y-1482143D01*
X68674286Y-1482143D01*
X68674286Y-1935714D01*
G36*
X62687143Y-1935714D02*
G01*
X61993178Y-1935714D01*
X61703390Y-1937700D01*
X61492187Y-1945520D01*
X61347490Y-1961967D01*
X61257220Y-1989834D01*
X61209299Y-2031914D01*
X61191649Y-2091000D01*
X61190357Y-2121362D01*
X61203316Y-2176965D01*
X61251299Y-2214795D01*
X61347962Y-2238007D01*
X61506962Y-2249758D01*
X61741957Y-2253203D01*
X61761031Y-2253214D01*
X62188214Y-2253214D01*
X62188214Y-2706786D01*
X61761031Y-2706786D01*
X61520375Y-2709780D01*
X61356641Y-2720866D01*
X61256173Y-2743200D01*
X61205314Y-2779936D01*
X61190407Y-2834231D01*
X61190357Y-2838638D01*
X61198945Y-2905650D01*
X61232761Y-2954489D01*
X61303884Y-2987950D01*
X61424393Y-3008824D01*
X61606366Y-3019905D01*
X61861882Y-3023987D01*
X61993178Y-3024286D01*
X62687143Y-3024286D01*
X62687143Y-3477857D01*
X61736238Y-3477857D01*
X61418543Y-3477394D01*
X61179577Y-3475304D01*
X61007357Y-3470532D01*
X60889901Y-3462026D01*
X60815225Y-3448731D01*
X60771347Y-3429594D01*
X60746284Y-3403562D01*
X60738381Y-3390125D01*
X60721369Y-3312498D01*
X60708193Y-3162605D01*
X60698854Y-2958815D01*
X60693351Y-2719494D01*
X60691685Y-2463011D01*
X60693854Y-2207732D01*
X60699861Y-1972027D01*
X60709703Y-1774261D01*
X60723383Y-1632803D01*
X60738381Y-1569875D01*
X60759071Y-1540587D01*
X60793472Y-1518642D01*
X60853568Y-1502989D01*
X60951342Y-1492572D01*
X61098777Y-1486339D01*
X61307856Y-1483235D01*
X61590561Y-1482208D01*
X61736238Y-1482143D01*
X62687143Y-1482143D01*
X62687143Y-1935714D01*
G37*
X62687143Y-1935714D02*
X61993178Y-1935714D01*
X61703390Y-1937700D01*
X61492187Y-1945520D01*
X61347490Y-1961967D01*
X61257220Y-1989834D01*
X61209299Y-2031914D01*
X61191649Y-2091000D01*
X61190357Y-2121362D01*
X61203316Y-2176965D01*
X61251299Y-2214795D01*
X61347962Y-2238007D01*
X61506962Y-2249758D01*
X61741957Y-2253203D01*
X61761031Y-2253214D01*
X62188214Y-2253214D01*
X62188214Y-2706786D01*
X61761031Y-2706786D01*
X61520375Y-2709780D01*
X61356641Y-2720866D01*
X61256173Y-2743200D01*
X61205314Y-2779936D01*
X61190407Y-2834231D01*
X61190357Y-2838638D01*
X61198945Y-2905650D01*
X61232761Y-2954489D01*
X61303884Y-2987950D01*
X61424393Y-3008824D01*
X61606366Y-3019905D01*
X61861882Y-3023987D01*
X61993178Y-3024286D01*
X62687143Y-3024286D01*
X62687143Y-3477857D01*
X61736238Y-3477857D01*
X61418543Y-3477394D01*
X61179577Y-3475304D01*
X61007357Y-3470532D01*
X60889901Y-3462026D01*
X60815225Y-3448731D01*
X60771347Y-3429594D01*
X60746284Y-3403562D01*
X60738381Y-3390125D01*
X60721369Y-3312498D01*
X60708193Y-3162605D01*
X60698854Y-2958815D01*
X60693351Y-2719494D01*
X60691685Y-2463011D01*
X60693854Y-2207732D01*
X60699861Y-1972027D01*
X60709703Y-1774261D01*
X60723383Y-1632803D01*
X60738381Y-1569875D01*
X60759071Y-1540587D01*
X60793472Y-1518642D01*
X60853568Y-1502989D01*
X60951342Y-1492572D01*
X61098777Y-1486339D01*
X61307856Y-1483235D01*
X61590561Y-1482208D01*
X61736238Y-1482143D01*
X62687143Y-1482143D01*
X62687143Y-1935714D01*
G36*
X60279725Y-1621703D02*
G01*
X60390594Y-1788294D01*
X60425853Y-1973244D01*
X60389600Y-2154439D01*
X60285935Y-2309768D01*
X60133358Y-2411317D01*
X59995142Y-2469433D01*
X60136425Y-2542493D01*
X60273229Y-2631704D01*
X60359264Y-2742438D01*
X60404554Y-2896149D01*
X60419125Y-3114288D01*
X60419286Y-3147771D01*
X60419286Y-3477857D01*
X59965714Y-3477857D01*
X59965714Y-3203653D01*
X59959465Y-3037277D01*
X59934552Y-2929104D01*
X59881728Y-2847109D01*
X59854383Y-2818117D01*
X59780976Y-2757068D01*
X59696011Y-2723260D01*
X59570762Y-2709093D01*
X59433582Y-2706786D01*
X59208971Y-2716972D01*
X59059550Y-2754523D01*
X58971375Y-2829923D01*
X58930506Y-2953659D01*
X58922500Y-3091184D01*
X58917361Y-3279147D01*
X58894480Y-3394178D01*
X58842660Y-3453825D01*
X58750702Y-3475632D01*
X58675742Y-3477857D01*
X58550022Y-3471266D01*
X58466401Y-3454766D01*
X58453809Y-3447619D01*
X58441251Y-3390817D01*
X58432086Y-3260323D01*
X58426162Y-3073087D01*
X58423329Y-2846062D01*
X58423436Y-2596200D01*
X58426331Y-2340452D01*
X58431865Y-2095771D01*
X58431873Y-2095537D01*
X58922500Y-2095537D01*
X58929471Y-2160726D01*
X58960686Y-2203952D01*
X59031597Y-2229910D01*
X59157657Y-2243298D01*
X59354319Y-2248812D01*
X59429528Y-2249633D01*
X59640499Y-2247093D01*
X59779225Y-2233116D01*
X59863746Y-2205076D01*
X59894439Y-2181939D01*
X59954146Y-2114832D01*
X59949784Y-2067097D01*
X59894439Y-2006990D01*
X59828340Y-1968385D01*
X59713448Y-1945774D01*
X59532293Y-1936389D01*
X59444577Y-1935714D01*
X59217725Y-1939058D01*
X59066765Y-1952085D01*
X58977024Y-1979287D01*
X58933827Y-2025156D01*
X58922502Y-2094184D01*
X58922500Y-2095537D01*
X58431873Y-2095537D01*
X58439885Y-1879108D01*
X58450242Y-1707417D01*
X58462784Y-1597647D01*
X58470524Y-1569875D01*
X58493010Y-1538471D01*
X58530532Y-1515584D01*
X58596162Y-1499880D01*
X58702971Y-1490021D01*
X58864029Y-1484672D01*
X59092409Y-1482496D01*
X59328821Y-1482143D01*
X60140165Y-1482143D01*
X60279725Y-1621703D01*
G37*
X60279725Y-1621703D02*
X60390594Y-1788294D01*
X60425853Y-1973244D01*
X60389600Y-2154439D01*
X60285935Y-2309768D01*
X60133358Y-2411317D01*
X59995142Y-2469433D01*
X60136425Y-2542493D01*
X60273229Y-2631704D01*
X60359264Y-2742438D01*
X60404554Y-2896149D01*
X60419125Y-3114288D01*
X60419286Y-3147771D01*
X60419286Y-3477857D01*
X59965714Y-3477857D01*
X59965714Y-3203653D01*
X59959465Y-3037277D01*
X59934552Y-2929104D01*
X59881728Y-2847109D01*
X59854383Y-2818117D01*
X59780976Y-2757068D01*
X59696011Y-2723260D01*
X59570762Y-2709093D01*
X59433582Y-2706786D01*
X59208971Y-2716972D01*
X59059550Y-2754523D01*
X58971375Y-2829923D01*
X58930506Y-2953659D01*
X58922500Y-3091184D01*
X58917361Y-3279147D01*
X58894480Y-3394178D01*
X58842660Y-3453825D01*
X58750702Y-3475632D01*
X58675742Y-3477857D01*
X58550022Y-3471266D01*
X58466401Y-3454766D01*
X58453809Y-3447619D01*
X58441251Y-3390817D01*
X58432086Y-3260323D01*
X58426162Y-3073087D01*
X58423329Y-2846062D01*
X58423436Y-2596200D01*
X58426331Y-2340452D01*
X58431865Y-2095771D01*
X58431873Y-2095537D01*
X58922500Y-2095537D01*
X58929471Y-2160726D01*
X58960686Y-2203952D01*
X59031597Y-2229910D01*
X59157657Y-2243298D01*
X59354319Y-2248812D01*
X59429528Y-2249633D01*
X59640499Y-2247093D01*
X59779225Y-2233116D01*
X59863746Y-2205076D01*
X59894439Y-2181939D01*
X59954146Y-2114832D01*
X59949784Y-2067097D01*
X59894439Y-2006990D01*
X59828340Y-1968385D01*
X59713448Y-1945774D01*
X59532293Y-1936389D01*
X59444577Y-1935714D01*
X59217725Y-1939058D01*
X59066765Y-1952085D01*
X58977024Y-1979287D01*
X58933827Y-2025156D01*
X58922502Y-2094184D01*
X58922500Y-2095537D01*
X58431873Y-2095537D01*
X58439885Y-1879108D01*
X58450242Y-1707417D01*
X58462784Y-1597647D01*
X58470524Y-1569875D01*
X58493010Y-1538471D01*
X58530532Y-1515584D01*
X58596162Y-1499880D01*
X58702971Y-1490021D01*
X58864029Y-1484672D01*
X59092409Y-1482496D01*
X59328821Y-1482143D01*
X60140165Y-1482143D01*
X60279725Y-1621703D01*
G36*
X57997214Y-1636357D02*
G01*
X58121333Y-1811692D01*
X58160102Y-1995723D01*
X58113099Y-2175445D01*
X58018846Y-2302060D01*
X57918558Y-2386057D01*
X57832229Y-2431821D01*
X57814739Y-2434643D01*
X57752173Y-2458088D01*
X57743214Y-2480000D01*
X57780186Y-2519676D01*
X57814739Y-2525357D01*
X57890251Y-2555555D01*
X57990134Y-2630750D01*
X58018846Y-2657939D01*
X58118514Y-2790381D01*
X58151118Y-2937256D01*
X58151428Y-2957102D01*
X58118130Y-3150422D01*
X58028976Y-3316150D01*
X57900078Y-3424965D01*
X57892334Y-3428635D01*
X57804317Y-3448290D01*
X57649513Y-3463091D01*
X57446274Y-3473094D01*
X57212953Y-3478358D01*
X56967902Y-3478939D01*
X56729475Y-3474892D01*
X56516024Y-3466277D01*
X56345901Y-3453148D01*
X56237460Y-3435563D01*
X56210143Y-3423428D01*
X56190225Y-3358984D01*
X56174513Y-3221230D01*
X56163007Y-3027471D01*
X56157921Y-2865536D01*
X56609286Y-2865536D01*
X56637192Y-2906275D01*
X56680561Y-2953010D01*
X56746659Y-2991615D01*
X56861551Y-3014226D01*
X57042706Y-3023611D01*
X57130423Y-3024286D01*
X57314553Y-3021114D01*
X57468923Y-3012687D01*
X57566869Y-3000634D01*
X57580754Y-2996754D01*
X57638081Y-2934396D01*
X57648815Y-2839184D01*
X57612956Y-2756101D01*
X57580754Y-2734317D01*
X57503818Y-2721528D01*
X57362842Y-2711899D01*
X57184492Y-2707060D01*
X57130423Y-2706786D01*
X56920195Y-2711962D01*
X56782721Y-2729335D01*
X56700531Y-2761674D01*
X56680561Y-2778061D01*
X56624097Y-2840868D01*
X56609286Y-2865536D01*
X56157921Y-2865536D01*
X56155706Y-2795014D01*
X56152611Y-2541166D01*
X56153720Y-2283231D01*
X56157820Y-2094464D01*
X56609286Y-2094464D01*
X56637192Y-2135203D01*
X56680561Y-2181939D01*
X56746659Y-2220543D01*
X56861551Y-2243154D01*
X57042706Y-2252540D01*
X57130423Y-2253214D01*
X57314553Y-2250043D01*
X57468923Y-2241616D01*
X57566869Y-2229563D01*
X57580754Y-2225683D01*
X57638081Y-2163325D01*
X57648815Y-2068113D01*
X57612956Y-1985029D01*
X57580754Y-1963245D01*
X57503818Y-1950456D01*
X57362842Y-1940827D01*
X57184492Y-1935989D01*
X57130423Y-1935714D01*
X56920195Y-1940890D01*
X56782721Y-1958264D01*
X56700531Y-1990603D01*
X56680561Y-2006990D01*
X56624097Y-2069797D01*
X56609286Y-2094464D01*
X56157820Y-2094464D01*
X56159036Y-2038518D01*
X56168557Y-1824332D01*
X56182283Y-1657978D01*
X56200215Y-1556765D01*
X56210143Y-1536571D01*
X56268922Y-1514170D01*
X56397914Y-1497974D01*
X56602996Y-1487605D01*
X56890042Y-1482682D01*
X57053786Y-1482143D01*
X57843000Y-1482143D01*
X57997214Y-1636357D01*
G37*
X57997214Y-1636357D02*
X58121333Y-1811692D01*
X58160102Y-1995723D01*
X58113099Y-2175445D01*
X58018846Y-2302060D01*
X57918558Y-2386057D01*
X57832229Y-2431821D01*
X57814739Y-2434643D01*
X57752173Y-2458088D01*
X57743214Y-2480000D01*
X57780186Y-2519676D01*
X57814739Y-2525357D01*
X57890251Y-2555555D01*
X57990134Y-2630750D01*
X58018846Y-2657939D01*
X58118514Y-2790381D01*
X58151118Y-2937256D01*
X58151428Y-2957102D01*
X58118130Y-3150422D01*
X58028976Y-3316150D01*
X57900078Y-3424965D01*
X57892334Y-3428635D01*
X57804317Y-3448290D01*
X57649513Y-3463091D01*
X57446274Y-3473094D01*
X57212953Y-3478358D01*
X56967902Y-3478939D01*
X56729475Y-3474892D01*
X56516024Y-3466277D01*
X56345901Y-3453148D01*
X56237460Y-3435563D01*
X56210143Y-3423428D01*
X56190225Y-3358984D01*
X56174513Y-3221230D01*
X56163007Y-3027471D01*
X56157921Y-2865536D01*
X56609286Y-2865536D01*
X56637192Y-2906275D01*
X56680561Y-2953010D01*
X56746659Y-2991615D01*
X56861551Y-3014226D01*
X57042706Y-3023611D01*
X57130423Y-3024286D01*
X57314553Y-3021114D01*
X57468923Y-3012687D01*
X57566869Y-3000634D01*
X57580754Y-2996754D01*
X57638081Y-2934396D01*
X57648815Y-2839184D01*
X57612956Y-2756101D01*
X57580754Y-2734317D01*
X57503818Y-2721528D01*
X57362842Y-2711899D01*
X57184492Y-2707060D01*
X57130423Y-2706786D01*
X56920195Y-2711962D01*
X56782721Y-2729335D01*
X56700531Y-2761674D01*
X56680561Y-2778061D01*
X56624097Y-2840868D01*
X56609286Y-2865536D01*
X56157921Y-2865536D01*
X56155706Y-2795014D01*
X56152611Y-2541166D01*
X56153720Y-2283231D01*
X56157820Y-2094464D01*
X56609286Y-2094464D01*
X56637192Y-2135203D01*
X56680561Y-2181939D01*
X56746659Y-2220543D01*
X56861551Y-2243154D01*
X57042706Y-2252540D01*
X57130423Y-2253214D01*
X57314553Y-2250043D01*
X57468923Y-2241616D01*
X57566869Y-2229563D01*
X57580754Y-2225683D01*
X57638081Y-2163325D01*
X57648815Y-2068113D01*
X57612956Y-1985029D01*
X57580754Y-1963245D01*
X57503818Y-1950456D01*
X57362842Y-1940827D01*
X57184492Y-1935989D01*
X57130423Y-1935714D01*
X56920195Y-1940890D01*
X56782721Y-1958264D01*
X56700531Y-1990603D01*
X56680561Y-2006990D01*
X56624097Y-2069797D01*
X56609286Y-2094464D01*
X56157820Y-2094464D01*
X56159036Y-2038518D01*
X56168557Y-1824332D01*
X56182283Y-1657978D01*
X56200215Y-1556765D01*
X56210143Y-1536571D01*
X56268922Y-1514170D01*
X56397914Y-1497974D01*
X56602996Y-1487605D01*
X56890042Y-1482682D01*
X57053786Y-1482143D01*
X57843000Y-1482143D01*
X57997214Y-1636357D01*
G36*
X55661281Y-1490540D02*
G01*
X55860893Y-1504821D01*
X55860893Y-3455179D01*
X55651163Y-3468769D01*
X55511049Y-3469180D01*
X55436905Y-3443232D01*
X55413038Y-3408363D01*
X55402151Y-3334935D01*
X55394091Y-3190443D01*
X55388756Y-2992160D01*
X55386048Y-2757362D01*
X55385867Y-2503320D01*
X55388113Y-2247309D01*
X55392686Y-2006602D01*
X55399487Y-1798473D01*
X55408416Y-1640196D01*
X55419372Y-1549043D01*
X55423850Y-1535897D01*
X55500325Y-1495901D01*
X55651551Y-1489886D01*
X55661281Y-1490540D01*
G37*
X55661281Y-1490540D02*
X55860893Y-1504821D01*
X55860893Y-3455179D01*
X55651163Y-3468769D01*
X55511049Y-3469180D01*
X55436905Y-3443232D01*
X55413038Y-3408363D01*
X55402151Y-3334935D01*
X55394091Y-3190443D01*
X55388756Y-2992160D01*
X55386048Y-2757362D01*
X55385867Y-2503320D01*
X55388113Y-2247309D01*
X55392686Y-2006602D01*
X55399487Y-1798473D01*
X55408416Y-1640196D01*
X55419372Y-1549043D01*
X55423850Y-1535897D01*
X55500325Y-1495901D01*
X55651551Y-1489886D01*
X55661281Y-1490540D01*
G36*
X53604090Y-2117143D02*
G01*
X53610524Y-2404944D01*
X53619314Y-2615412D01*
X53632613Y-2761927D01*
X53652578Y-2857867D01*
X53681360Y-2916615D01*
X53721116Y-2951550D01*
X53740055Y-2961606D01*
X53812448Y-2976804D01*
X53956909Y-2992598D01*
X54154816Y-3007431D01*
X54387547Y-3019745D01*
X54477500Y-3023306D01*
X55135178Y-3046964D01*
X55135178Y-3455179D01*
X54195663Y-3467433D01*
X53256148Y-3479688D01*
X53185465Y-3371812D01*
X53160469Y-3319994D01*
X53142547Y-3243827D01*
X53130938Y-3130445D01*
X53124882Y-2966980D01*
X53123619Y-2740566D01*
X53126389Y-2438336D01*
X53127123Y-2384379D01*
X53139464Y-1504821D01*
X53593036Y-1504821D01*
X53604090Y-2117143D01*
G37*
X53604090Y-2117143D02*
X53610524Y-2404944D01*
X53619314Y-2615412D01*
X53632613Y-2761927D01*
X53652578Y-2857867D01*
X53681360Y-2916615D01*
X53721116Y-2951550D01*
X53740055Y-2961606D01*
X53812448Y-2976804D01*
X53956909Y-2992598D01*
X54154816Y-3007431D01*
X54387547Y-3019745D01*
X54477500Y-3023306D01*
X55135178Y-3046964D01*
X55135178Y-3455179D01*
X54195663Y-3467433D01*
X53256148Y-3479688D01*
X53185465Y-3371812D01*
X53160469Y-3319994D01*
X53142547Y-3243827D01*
X53130938Y-3130445D01*
X53124882Y-2966980D01*
X53123619Y-2740566D01*
X53126389Y-2438336D01*
X53127123Y-2384379D01*
X53139464Y-1504821D01*
X53593036Y-1504821D01*
X53604090Y-2117143D01*
G36*
X73058809Y-3583690D02*
G01*
X73064238Y-3637519D01*
X73058809Y-3644167D01*
X73031845Y-3637940D01*
X73028571Y-3613929D01*
X73045167Y-3576594D01*
X73058809Y-3583690D01*
G37*
X73058809Y-3583690D02*
X73064238Y-3637519D01*
X73058809Y-3644167D01*
X73031845Y-3637940D01*
X73028571Y-3613929D01*
X73045167Y-3576594D01*
X73058809Y-3583690D01*
G36*
X66405728Y-2581132D02*
G01*
X66405029Y-3500536D01*
X65637132Y-3942768D01*
X65399226Y-4079043D01*
X65188619Y-4198286D01*
X65017724Y-4293581D01*
X64898956Y-4358013D01*
X64844731Y-4384668D01*
X64843142Y-4385000D01*
X64835818Y-4341906D01*
X64830494Y-4221642D01*
X64827372Y-4037734D01*
X64826659Y-3803708D01*
X64828559Y-3533091D01*
X64829329Y-3471387D01*
X64841607Y-2557773D01*
X65453928Y-2199579D01*
X65679952Y-2067980D01*
X65892016Y-1945633D01*
X66071532Y-1843181D01*
X66199914Y-1771270D01*
X66236339Y-1751556D01*
X66406428Y-1661728D01*
X66405728Y-2581132D01*
G37*
X66405728Y-2581132D02*
X66405029Y-3500536D01*
X65637132Y-3942768D01*
X65399226Y-4079043D01*
X65188619Y-4198286D01*
X65017724Y-4293581D01*
X64898956Y-4358013D01*
X64844731Y-4384668D01*
X64843142Y-4385000D01*
X64835818Y-4341906D01*
X64830494Y-4221642D01*
X64827372Y-4037734D01*
X64826659Y-3803708D01*
X64828559Y-3533091D01*
X64829329Y-3471387D01*
X64841607Y-2557773D01*
X65453928Y-2199579D01*
X65679952Y-2067980D01*
X65892016Y-1945633D01*
X66071532Y-1843181D01*
X66199914Y-1771270D01*
X66236339Y-1751556D01*
X66406428Y-1661728D01*
X66405728Y-2581132D01*
G36*
X63677689Y-2040378D02*
G01*
X63914175Y-2178179D01*
X64129197Y-2304501D01*
X64308082Y-2410642D01*
X64436155Y-2487901D01*
X64495569Y-2525357D01*
X64529227Y-2551239D01*
X64554075Y-2584685D01*
X64571221Y-2638256D01*
X64581776Y-2724513D01*
X64586849Y-2856016D01*
X64587550Y-3045326D01*
X64584989Y-3305004D01*
X64582255Y-3506465D01*
X64569464Y-4419537D01*
X63766025Y-3960036D01*
X62962587Y-3500536D01*
X62960936Y-2561985D01*
X62959286Y-1623434D01*
X63677689Y-2040378D01*
G37*
X63677689Y-2040378D02*
X63914175Y-2178179D01*
X64129197Y-2304501D01*
X64308082Y-2410642D01*
X64436155Y-2487901D01*
X64495569Y-2525357D01*
X64529227Y-2551239D01*
X64554075Y-2584685D01*
X64571221Y-2638256D01*
X64581776Y-2724513D01*
X64586849Y-2856016D01*
X64587550Y-3045326D01*
X64584989Y-3305004D01*
X64582255Y-3506465D01*
X64569464Y-4419537D01*
X63766025Y-3960036D01*
X62962587Y-3500536D01*
X62960936Y-2561985D01*
X62959286Y-1623434D01*
X63677689Y-2040378D01*
D10*
G04 #@! TO.C,EF2*
X33200000Y38740000D02*
X32500000Y38740000D01*
X32500000Y38740000D02*
X32500000Y39440000D01*
X36080000Y39440000D02*
X36080000Y38740000D01*
X36080000Y38740000D02*
X35380000Y38740000D01*
X36080000Y43320000D02*
X36080000Y42620000D01*
X35380000Y43320000D02*
X36080000Y43320000D01*
D14*
G04 #@! TO.C,JC1*
X-30000Y49945000D02*
X2085000Y49945000D01*
X2085000Y43875000D02*
X-965000Y43875000D01*
D10*
G04 #@! TO.C,L1*
X26790000Y41750000D02*
X26790000Y41150000D01*
G04 #@! TO.C,C64*
X-1010000Y58950000D02*
X-1610000Y58950000D01*
G04 #@! TO.C,C18*
X4480000Y52160000D02*
X3880000Y52160000D01*
G04 #@! TO.C,C5*
X4480000Y45660000D02*
X3880000Y45660000D01*
G04 #@! TO.C,C1*
X22830000Y42040000D02*
X22830000Y41440000D01*
G04 #@! TO.C,R68*
X31340000Y39320000D02*
X31340000Y39920000D01*
G04 #@! TO.C,R15*
X-3120000Y79810000D02*
X-3720000Y79810000D01*
G04 #@! TO.C,C25*
X-2490000Y78560000D02*
X-2490000Y77960000D01*
G04 #@! TO.C,AS6*
X-2860000Y78820000D02*
X-2860000Y79070000D01*
X-2860000Y78820000D02*
X-2220000Y78820000D01*
X320000Y78820000D02*
X320000Y79070000D01*
X320000Y78820000D02*
X-320000Y78820000D01*
X-2860000Y81200000D02*
X-2220000Y81200000D01*
X-2860000Y81200000D02*
X-2860000Y80950000D01*
G04 #@! TO.C,AS12*
X17460000Y72470000D02*
X17460000Y72720000D01*
X17460000Y72470000D02*
X18100000Y72470000D01*
X20640000Y72470000D02*
X20640000Y72720000D01*
X20640000Y72470000D02*
X20000000Y72470000D01*
X17460000Y74850000D02*
X18100000Y74850000D01*
X17460000Y74850000D02*
X17460000Y74600000D01*
G04 #@! TO.C,R16*
X27360000Y73660000D02*
X26760000Y73660000D01*
G04 #@! TO.C,R3*
X4490000Y72210000D02*
X4490000Y71610000D01*
G04 #@! TO.C,C3*
X2590000Y72210000D02*
X2590000Y71610000D01*
G04 #@! TO.C,C30*
X22910000Y72210000D02*
X22910000Y71610000D01*
G04 #@! TO.C,AS10*
X7300000Y72470000D02*
X7300000Y72720000D01*
X7300000Y72470000D02*
X7940000Y72470000D01*
X10480000Y72470000D02*
X10480000Y72720000D01*
X10480000Y72470000D02*
X9840000Y72470000D01*
X7300000Y74850000D02*
X7940000Y74850000D01*
X7300000Y74850000D02*
X7300000Y74600000D01*
G04 #@! TO.C,R25*
X7040000Y73660000D02*
X6440000Y73660000D01*
G04 #@! TO.C,R48*
X12120000Y73660000D02*
X11520000Y73660000D01*
G04 #@! TO.C,C53*
X12750000Y72210000D02*
X12750000Y71610000D01*
G04 #@! TO.C,R72*
X32360000Y59010000D02*
X31760000Y59010000D01*
G04 #@! TO.C,R71*
X36860000Y59010000D02*
X36260000Y59010000D01*
G04 #@! TO.C,EF1*
X33200000Y48380000D02*
X32500000Y48380000D01*
X32500000Y48380000D02*
X32500000Y49080000D01*
X36080000Y49080000D02*
X36080000Y48380000D01*
X36080000Y48380000D02*
X35380000Y48380000D01*
X36080000Y52960000D02*
X36080000Y52260000D01*
X35380000Y52960000D02*
X36080000Y52960000D01*
G04 #@! TO.C,Q2*
X32500000Y45590000D02*
X35080000Y45590000D01*
X35080000Y45680000D02*
X35080000Y45590000D01*
X32500000Y45680000D02*
X32500000Y45590000D01*
X35080000Y47990000D02*
X33170000Y47990000D01*
X35080000Y47900000D02*
X35080000Y47990000D01*
G04 #@! TO.C,R81*
X37890000Y59010000D02*
X38490000Y59010000D01*
G04 #@! TO.C,R67*
X31340000Y48950000D02*
X31340000Y49550000D01*
G04 #@! TO.C,R62*
X31340000Y42780000D02*
X31340000Y42180000D01*
G04 #@! TO.C,R60*
X37240000Y43130000D02*
X37240000Y43730000D01*
G04 #@! TO.C,D1*
X-80000Y63320000D02*
X520000Y63320000D01*
X-80000Y62320000D02*
X520000Y62320000D01*
G04 #@! TO.C,D3*
X33274000Y35030000D02*
X33274000Y35630000D01*
X34274000Y35030000D02*
X34274000Y35630000D01*
G04 #@! TO.C,D2*
X33274000Y44670700D02*
X33274000Y45270700D01*
X34274000Y44670700D02*
X34274000Y45270700D01*
G04 #@! TO.C,C28*
X-1610000Y65070000D02*
X-1610000Y64470000D01*
G04 #@! TO.C,C27*
X520000Y61230000D02*
X-80000Y61230000D01*
G04 #@! TO.C,C67*
X36190000Y36930000D02*
X36190000Y36330000D01*
G04 #@! TO.C,C61*
X35306000Y35630000D02*
X35306000Y35030000D01*
G04 #@! TO.C,C60*
X35306000Y45270700D02*
X35306000Y44670700D01*
G04 #@! TO.C,C52*
X31340000Y43130000D02*
X31340000Y43730000D01*
G04 #@! TO.C,C51*
X31340000Y52760000D02*
X31340000Y53360000D01*
G04 #@! TO.C,R80*
X35190000Y63010000D02*
X35790000Y63010000D01*
G04 #@! TO.C,R79*
X-430000Y58950000D02*
X170000Y58950000D01*
G04 #@! TO.C,R78*
X32820000Y63010000D02*
X33420000Y63010000D01*
G04 #@! TO.C,R77*
X-2800000Y58950000D02*
X-2200000Y58950000D01*
G04 #@! TO.C,R74*
X32360000Y60960000D02*
X31760000Y60960000D01*
G04 #@! TO.C,R73*
X-3260000Y56900000D02*
X-3860000Y56900000D01*
G04 #@! TO.C,R22*
X-1740000Y60920000D02*
X-1740000Y60320000D01*
G04 #@! TO.C,R33*
X17200000Y73660000D02*
X16600000Y73660000D01*
G04 #@! TO.C,R76*
X31750000Y54656000D02*
X31750000Y54056000D01*
G04 #@! TO.C,R17*
X22280000Y73660000D02*
X21680000Y73660000D01*
G04 #@! TO.C,R1*
X1360000Y73460000D02*
X1960000Y73460000D01*
G04 #@! TO.C,R66*
X31340000Y41120000D02*
X31340000Y41720000D01*
G04 #@! TO.C,R65*
X31340000Y40220000D02*
X31340000Y40820000D01*
G04 #@! TO.C,R64*
X31340000Y50750000D02*
X31340000Y51350000D01*
G04 #@! TO.C,R63*
X31340000Y49850000D02*
X31340000Y50450000D01*
G04 #@! TO.C,R61*
X31340000Y52410000D02*
X31340000Y51810000D01*
G04 #@! TO.C,R59*
X37240000Y52760000D02*
X37240000Y53360000D01*
G04 #@! TO.C,R56*
X37240000Y42780000D02*
X37240000Y42180000D01*
G04 #@! TO.C,R55*
X37240000Y41230000D02*
X37240000Y41830000D01*
G04 #@! TO.C,R54*
X37240000Y40770000D02*
X37240000Y40170000D01*
G04 #@! TO.C,R52*
X37240000Y52410000D02*
X37240000Y51810000D01*
G04 #@! TO.C,R51*
X37240000Y50860000D02*
X37240000Y51460000D01*
G04 #@! TO.C,R50*
X37240000Y50400000D02*
X37240000Y49800000D01*
G04 #@! TO.C,R14*
X-3120000Y73460000D02*
X-3720000Y73460000D01*
G04 #@! TO.C,R19*
X31660000Y72960000D02*
X31060000Y72960000D01*
G04 #@! TO.C,Q1*
X-410000Y61340000D02*
X-410000Y63920000D01*
X-500000Y63920000D02*
X-410000Y63920000D01*
X-500000Y61340000D02*
X-410000Y61340000D01*
X-2810000Y63920000D02*
X-2810000Y62010000D01*
X-2720000Y63920000D02*
X-2810000Y63920000D01*
G04 #@! TO.C,Q3*
X32500000Y35950000D02*
X35080000Y35950000D01*
X35080000Y36040000D02*
X35080000Y35950000D01*
X32500000Y36040000D02*
X32500000Y35950000D01*
X35080000Y38350000D02*
X33170000Y38350000D01*
X35080000Y38260000D02*
X35080000Y38350000D01*
G04 #@! TO.C,LG1*
X35340000Y56340000D02*
X33230000Y56340000D01*
X33240000Y53780000D02*
X34580000Y53780000D01*
G04 #@! TO.C,FB1*
X26790000Y42100000D02*
X26790000Y42700000D01*
G04 #@! TO.C,C73*
X36860000Y63010000D02*
X36260000Y63010000D01*
G04 #@! TO.C,C72*
X1240000Y58960000D02*
X640000Y58960000D01*
G04 #@! TO.C,C69*
X32360000Y63010000D02*
X31760000Y63010000D01*
G04 #@! TO.C,C65*
X34010000Y63010000D02*
X34610000Y63010000D01*
G04 #@! TO.C,C58*
X640000Y56900000D02*
X1240000Y56900000D01*
G04 #@! TO.C,C47*
X17840000Y72210000D02*
X17840000Y71610000D01*
G04 #@! TO.C,C24*
X-2490000Y72210000D02*
X-2490000Y71610000D01*
G04 #@! TO.C,C29*
X28000000Y72210000D02*
X28000000Y71610000D01*
G04 #@! TO.C,C14*
X9590000Y42040000D02*
X9590000Y41440000D01*
G04 #@! TO.C,C11*
X28180000Y52660000D02*
X28780000Y52660000D01*
G04 #@! TO.C,C9*
X28190000Y62660000D02*
X28790000Y62660000D01*
G04 #@! TO.C,AS8*
X22540000Y72470000D02*
X22540000Y72720000D01*
X22540000Y72470000D02*
X23180000Y72470000D01*
X25720000Y72470000D02*
X25720000Y72720000D01*
X25720000Y72470000D02*
X25080000Y72470000D01*
X22540000Y74850000D02*
X23180000Y74850000D01*
X22540000Y74850000D02*
X22540000Y74600000D01*
G04 #@! TO.C,AS1*
X2220000Y72470000D02*
X2220000Y72720000D01*
X2220000Y72470000D02*
X2860000Y72470000D01*
X5400000Y72470000D02*
X5400000Y72720000D01*
X5400000Y72470000D02*
X4760000Y72470000D01*
X2220000Y74850000D02*
X2860000Y74850000D01*
X2220000Y74850000D02*
X2220000Y74600000D01*
G04 #@! TO.C,AS14*
X12380000Y72470000D02*
X12380000Y72720000D01*
X12380000Y72470000D02*
X13020000Y72470000D01*
X15560000Y72470000D02*
X15560000Y72720000D01*
X15560000Y72470000D02*
X14920000Y72470000D01*
X12380000Y74850000D02*
X13020000Y74850000D01*
X12380000Y74850000D02*
X12380000Y74600000D01*
G04 #@! TO.C,AS5*
X-2860000Y72470000D02*
X-2860000Y72720000D01*
X-2860000Y72470000D02*
X-2220000Y72470000D01*
X320000Y72470000D02*
X320000Y72720000D01*
X320000Y72470000D02*
X-320000Y72470000D01*
X-2860000Y74850000D02*
X-2220000Y74850000D01*
X-2860000Y74850000D02*
X-2860000Y74600000D01*
G04 #@! TO.C,AS7*
X27620000Y72470000D02*
X27620000Y72720000D01*
X27620000Y72470000D02*
X28260000Y72470000D01*
X30800000Y72470000D02*
X30800000Y72720000D01*
X30800000Y72470000D02*
X30160000Y72470000D01*
X27620000Y74850000D02*
X28260000Y74850000D01*
X27620000Y74850000D02*
X27620000Y74600000D01*
G04 #@! TO.C,D4*
X37780000Y61320000D02*
X38580000Y61320000D01*
X37780000Y60070000D02*
X38580000Y60070000D01*
G04 #@! TO.C,H2*
X7365000Y86930000D02*
X73915000Y86930000D01*
X7365000Y81980000D02*
X73915000Y81980000D01*
X7365000Y86930000D02*
X7365000Y81980000D01*
X73915000Y86930000D02*
X73915000Y81980000D01*
G04 #@! TO.C,H1*
X7365000Y81850000D02*
X73915000Y81850000D01*
X7365000Y76900000D02*
X73915000Y76900000D01*
X7365000Y81850000D02*
X7365000Y76900000D01*
X73915000Y81850000D02*
X73915000Y76900000D01*
G04 #@! TD*
G04 #@! TO.C,UA5*
D16*
X16867380Y32180524D02*
X17641190Y32180524D01*
X17224523Y31704334D01*
X17403095Y31704334D01*
X17522142Y31644810D01*
X17581666Y31585286D01*
X17641190Y31466239D01*
X17641190Y31168620D01*
X17581666Y31049572D01*
X17522142Y30990048D01*
X17403095Y30930524D01*
X17045952Y30930524D01*
X16926904Y30990048D01*
X16867380Y31049572D01*
X17998333Y32180524D02*
X18415000Y30930524D01*
X18831666Y32180524D01*
X19129285Y32180524D02*
X19903095Y32180524D01*
X19486428Y31704334D01*
X19665000Y31704334D01*
X19784047Y31644810D01*
X19843571Y31585286D01*
X19903095Y31466239D01*
X19903095Y31168620D01*
X19843571Y31049572D01*
X19784047Y30990048D01*
X19665000Y30930524D01*
X19307857Y30930524D01*
X19188809Y30990048D01*
X19129285Y31049572D01*
X41036904Y-585476D02*
X40441666Y-585476D01*
X40382142Y-1180714D01*
X40441666Y-1121190D01*
X40560714Y-1061666D01*
X40858333Y-1061666D01*
X40977380Y-1121190D01*
X41036904Y-1180714D01*
X41096428Y-1299761D01*
X41096428Y-1597380D01*
X41036904Y-1716428D01*
X40977380Y-1775952D01*
X40858333Y-1835476D01*
X40560714Y-1835476D01*
X40441666Y-1775952D01*
X40382142Y-1716428D01*
X41453571Y-585476D02*
X41870238Y-1835476D01*
X42286904Y-585476D01*
X63896904Y75614524D02*
X63301666Y75614524D01*
X63242142Y75019286D01*
X63301666Y75078810D01*
X63420714Y75138334D01*
X63718333Y75138334D01*
X63837380Y75078810D01*
X63896904Y75019286D01*
X63956428Y74900239D01*
X63956428Y74602620D01*
X63896904Y74483572D01*
X63837380Y74424048D01*
X63718333Y74364524D01*
X63420714Y74364524D01*
X63301666Y74424048D01*
X63242142Y74483572D01*
X64313571Y75614524D02*
X64730238Y74364524D01*
X65146904Y75614524D01*
X44460000Y60007620D02*
X44400476Y59888572D01*
X44400476Y59710000D01*
X44460000Y59531429D01*
X44579047Y59412381D01*
X44698095Y59352858D01*
X44936190Y59293334D01*
X45114761Y59293334D01*
X45352857Y59352858D01*
X45471904Y59412381D01*
X45590952Y59531429D01*
X45650476Y59710000D01*
X45650476Y59829048D01*
X45590952Y60007620D01*
X45531428Y60067143D01*
X45114761Y60067143D01*
X45114761Y59829048D01*
X45650476Y60602858D02*
X44400476Y60602858D01*
X45650476Y61317143D01*
X44400476Y61317143D01*
X45650476Y61912381D02*
X44400476Y61912381D01*
X44400476Y62210000D01*
X44460000Y62388572D01*
X44579047Y62507620D01*
X44698095Y62567143D01*
X44936190Y62626667D01*
X45114761Y62626667D01*
X45352857Y62567143D01*
X45471904Y62507620D01*
X45590952Y62388572D01*
X45650476Y62210000D01*
X45650476Y61912381D01*
X82560000Y60007620D02*
X82500476Y59888572D01*
X82500476Y59710000D01*
X82560000Y59531429D01*
X82679047Y59412381D01*
X82798095Y59352858D01*
X83036190Y59293334D01*
X83214761Y59293334D01*
X83452857Y59352858D01*
X83571904Y59412381D01*
X83690952Y59531429D01*
X83750476Y59710000D01*
X83750476Y59829048D01*
X83690952Y60007620D01*
X83631428Y60067143D01*
X83214761Y60067143D01*
X83214761Y59829048D01*
X83750476Y60602858D02*
X82500476Y60602858D01*
X83750476Y61317143D01*
X82500476Y61317143D01*
X83750476Y61912381D02*
X82500476Y61912381D01*
X82500476Y62210000D01*
X82560000Y62388572D01*
X82679047Y62507620D01*
X82798095Y62567143D01*
X83036190Y62626667D01*
X83214761Y62626667D01*
X83452857Y62567143D01*
X83571904Y62507620D01*
X83690952Y62388572D01*
X83750476Y62210000D01*
X83750476Y61912381D01*
X82560000Y14287620D02*
X82500476Y14168572D01*
X82500476Y13990000D01*
X82560000Y13811429D01*
X82679047Y13692381D01*
X82798095Y13632858D01*
X83036190Y13573334D01*
X83214761Y13573334D01*
X83452857Y13632858D01*
X83571904Y13692381D01*
X83690952Y13811429D01*
X83750476Y13990000D01*
X83750476Y14109048D01*
X83690952Y14287620D01*
X83631428Y14347143D01*
X83214761Y14347143D01*
X83214761Y14109048D01*
X83750476Y14882858D02*
X82500476Y14882858D01*
X83750476Y15597143D01*
X82500476Y15597143D01*
X83750476Y16192381D02*
X82500476Y16192381D01*
X82500476Y16490000D01*
X82560000Y16668572D01*
X82679047Y16787620D01*
X82798095Y16847143D01*
X83036190Y16906667D01*
X83214761Y16906667D01*
X83452857Y16847143D01*
X83571904Y16787620D01*
X83690952Y16668572D01*
X83750476Y16490000D01*
X83750476Y16192381D01*
X-3800000Y14287620D02*
X-3859524Y14168572D01*
X-3859524Y13990000D01*
X-3800000Y13811429D01*
X-3680953Y13692381D01*
X-3561905Y13632858D01*
X-3323810Y13573334D01*
X-3145239Y13573334D01*
X-2907143Y13632858D01*
X-2788096Y13692381D01*
X-2669048Y13811429D01*
X-2609524Y13990000D01*
X-2609524Y14109048D01*
X-2669048Y14287620D01*
X-2728572Y14347143D01*
X-3145239Y14347143D01*
X-3145239Y14109048D01*
X-2609524Y14882858D02*
X-3859524Y14882858D01*
X-2609524Y15597143D01*
X-3859524Y15597143D01*
X-2609524Y16192381D02*
X-3859524Y16192381D01*
X-3859524Y16490000D01*
X-3800000Y16668572D01*
X-3680953Y16787620D01*
X-3561905Y16847143D01*
X-3323810Y16906667D01*
X-3145239Y16906667D01*
X-2907143Y16847143D01*
X-2788096Y16787620D01*
X-2669048Y16668572D01*
X-2609524Y16490000D01*
X-2609524Y16192381D01*
G04 #@! TO.C,TP20*
D10*
X39359523Y57188096D02*
X39816666Y57188096D01*
X39588095Y56388096D02*
X39588095Y57188096D01*
X40083333Y56388096D02*
X40083333Y57188096D01*
X40388095Y57188096D01*
X40464285Y57150000D01*
X40502380Y57111905D01*
X40540476Y57035715D01*
X40540476Y56921429D01*
X40502380Y56845239D01*
X40464285Y56807143D01*
X40388095Y56769048D01*
X40083333Y56769048D01*
X40845238Y57111905D02*
X40883333Y57150000D01*
X40959523Y57188096D01*
X41150000Y57188096D01*
X41226190Y57150000D01*
X41264285Y57111905D01*
X41302380Y57035715D01*
X41302380Y56959524D01*
X41264285Y56845239D01*
X40807142Y56388096D01*
X41302380Y56388096D01*
X41797619Y57188096D02*
X41873809Y57188096D01*
X41950000Y57150000D01*
X41988095Y57111905D01*
X42026190Y57035715D01*
X42064285Y56883334D01*
X42064285Y56692858D01*
X42026190Y56540477D01*
X41988095Y56464286D01*
X41950000Y56426191D01*
X41873809Y56388096D01*
X41797619Y56388096D01*
X41721428Y56426191D01*
X41683333Y56464286D01*
X41645238Y56540477D01*
X41607142Y56692858D01*
X41607142Y56883334D01*
X41645238Y57035715D01*
X41683333Y57111905D01*
X41721428Y57150000D01*
X41797619Y57188096D01*
G04 #@! TO.C,TP19*
X39359523Y63938096D02*
X39816666Y63938096D01*
X39588095Y63138096D02*
X39588095Y63938096D01*
X40083333Y63138096D02*
X40083333Y63938096D01*
X40388095Y63938096D01*
X40464285Y63900000D01*
X40502380Y63861905D01*
X40540476Y63785715D01*
X40540476Y63671429D01*
X40502380Y63595239D01*
X40464285Y63557143D01*
X40388095Y63519048D01*
X40083333Y63519048D01*
X41302380Y63138096D02*
X40845238Y63138096D01*
X41073809Y63138096D02*
X41073809Y63938096D01*
X40997619Y63823810D01*
X40921428Y63747620D01*
X40845238Y63709524D01*
X41683333Y63138096D02*
X41835714Y63138096D01*
X41911904Y63176191D01*
X41950000Y63214286D01*
X42026190Y63328572D01*
X42064285Y63480953D01*
X42064285Y63785715D01*
X42026190Y63861905D01*
X41988095Y63900000D01*
X41911904Y63938096D01*
X41759523Y63938096D01*
X41683333Y63900000D01*
X41645238Y63861905D01*
X41607142Y63785715D01*
X41607142Y63595239D01*
X41645238Y63519048D01*
X41683333Y63480953D01*
X41759523Y63442858D01*
X41911904Y63442858D01*
X41988095Y63480953D01*
X42026190Y63519048D01*
X42064285Y63595239D01*
G04 #@! TO.C,TP14*
X-2914477Y52889096D02*
X-2457334Y52889096D01*
X-2685905Y52089096D02*
X-2685905Y52889096D01*
X-2190667Y52089096D02*
X-2190667Y52889096D01*
X-1885905Y52889096D01*
X-1809715Y52851000D01*
X-1771620Y52812905D01*
X-1733524Y52736715D01*
X-1733524Y52622429D01*
X-1771620Y52546239D01*
X-1809715Y52508143D01*
X-1885905Y52470048D01*
X-2190667Y52470048D01*
X-971620Y52089096D02*
X-1428762Y52089096D01*
X-1200191Y52089096D02*
X-1200191Y52889096D01*
X-1276381Y52774810D01*
X-1352572Y52698620D01*
X-1428762Y52660524D01*
X-285905Y52622429D02*
X-285905Y52089096D01*
X-476381Y52927191D02*
X-666858Y52355762D01*
X-171620Y52355762D01*
G04 #@! TO.C,TP13*
X3498904Y46996524D02*
X3498904Y47453667D01*
X4298904Y47225096D02*
X3498904Y47225096D01*
X4298904Y47720334D02*
X3498904Y47720334D01*
X3498904Y48025096D01*
X3537000Y48101286D01*
X3575095Y48139381D01*
X3651285Y48177477D01*
X3765571Y48177477D01*
X3841761Y48139381D01*
X3879857Y48101286D01*
X3917952Y48025096D01*
X3917952Y47720334D01*
X4298904Y48939381D02*
X4298904Y48482239D01*
X4298904Y48710810D02*
X3498904Y48710810D01*
X3613190Y48634620D01*
X3689380Y48558429D01*
X3727476Y48482239D01*
X3498904Y49206048D02*
X3498904Y49701286D01*
X3803666Y49434620D01*
X3803666Y49548905D01*
X3841761Y49625096D01*
X3879857Y49663191D01*
X3956047Y49701286D01*
X4146523Y49701286D01*
X4222714Y49663191D01*
X4260809Y49625096D01*
X4298904Y49548905D01*
X4298904Y49320334D01*
X4260809Y49244143D01*
X4222714Y49206048D01*
G04 #@! TO.C,C57*
X44535714Y35735715D02*
X44573809Y35697620D01*
X44611904Y35583334D01*
X44611904Y35507143D01*
X44573809Y35392858D01*
X44497619Y35316667D01*
X44421428Y35278572D01*
X44269047Y35240477D01*
X44154761Y35240477D01*
X44002380Y35278572D01*
X43926190Y35316667D01*
X43850000Y35392858D01*
X43811904Y35507143D01*
X43811904Y35583334D01*
X43850000Y35697620D01*
X43888095Y35735715D01*
X43811904Y36459524D02*
X43811904Y36078572D01*
X44192857Y36040477D01*
X44154761Y36078572D01*
X44116666Y36154762D01*
X44116666Y36345239D01*
X44154761Y36421429D01*
X44192857Y36459524D01*
X44269047Y36497620D01*
X44459523Y36497620D01*
X44535714Y36459524D01*
X44573809Y36421429D01*
X44611904Y36345239D01*
X44611904Y36154762D01*
X44573809Y36078572D01*
X44535714Y36040477D01*
X43811904Y36764286D02*
X43811904Y37297620D01*
X44611904Y36954762D01*
G04 #@! TO.C,C56*
X44481714Y45967715D02*
X44519809Y45929620D01*
X44557904Y45815334D01*
X44557904Y45739143D01*
X44519809Y45624858D01*
X44443619Y45548667D01*
X44367428Y45510572D01*
X44215047Y45472477D01*
X44100761Y45472477D01*
X43948380Y45510572D01*
X43872190Y45548667D01*
X43796000Y45624858D01*
X43757904Y45739143D01*
X43757904Y45815334D01*
X43796000Y45929620D01*
X43834095Y45967715D01*
X43757904Y46691524D02*
X43757904Y46310572D01*
X44138857Y46272477D01*
X44100761Y46310572D01*
X44062666Y46386762D01*
X44062666Y46577239D01*
X44100761Y46653429D01*
X44138857Y46691524D01*
X44215047Y46729620D01*
X44405523Y46729620D01*
X44481714Y46691524D01*
X44519809Y46653429D01*
X44557904Y46577239D01*
X44557904Y46386762D01*
X44519809Y46310572D01*
X44481714Y46272477D01*
X43757904Y47415334D02*
X43757904Y47262953D01*
X43796000Y47186762D01*
X43834095Y47148667D01*
X43948380Y47072477D01*
X44100761Y47034381D01*
X44405523Y47034381D01*
X44481714Y47072477D01*
X44519809Y47110572D01*
X44557904Y47186762D01*
X44557904Y47339143D01*
X44519809Y47415334D01*
X44481714Y47453429D01*
X44405523Y47491524D01*
X44215047Y47491524D01*
X44138857Y47453429D01*
X44100761Y47415334D01*
X44062666Y47339143D01*
X44062666Y47186762D01*
X44100761Y47110572D01*
X44138857Y47072477D01*
X44215047Y47034381D01*
G04 #@! TO.C,R75*
X28985714Y55388096D02*
X28719047Y55769048D01*
X28528571Y55388096D02*
X28528571Y56188096D01*
X28833333Y56188096D01*
X28909523Y56150000D01*
X28947619Y56111905D01*
X28985714Y56035715D01*
X28985714Y55921429D01*
X28947619Y55845239D01*
X28909523Y55807143D01*
X28833333Y55769048D01*
X28528571Y55769048D01*
X29252380Y56188096D02*
X29785714Y56188096D01*
X29442857Y55388096D01*
X30471428Y56188096D02*
X30090476Y56188096D01*
X30052380Y55807143D01*
X30090476Y55845239D01*
X30166666Y55883334D01*
X30357142Y55883334D01*
X30433333Y55845239D01*
X30471428Y55807143D01*
X30509523Y55730953D01*
X30509523Y55540477D01*
X30471428Y55464286D01*
X30433333Y55426191D01*
X30357142Y55388096D01*
X30166666Y55388096D01*
X30090476Y55426191D01*
X30052380Y55464286D01*
G04 #@! TO.C,R53*
X38111904Y54485715D02*
X37730952Y54219048D01*
X38111904Y54028572D02*
X37311904Y54028572D01*
X37311904Y54333334D01*
X37350000Y54409524D01*
X37388095Y54447620D01*
X37464285Y54485715D01*
X37578571Y54485715D01*
X37654761Y54447620D01*
X37692857Y54409524D01*
X37730952Y54333334D01*
X37730952Y54028572D01*
X37311904Y55209524D02*
X37311904Y54828572D01*
X37692857Y54790477D01*
X37654761Y54828572D01*
X37616666Y54904762D01*
X37616666Y55095239D01*
X37654761Y55171429D01*
X37692857Y55209524D01*
X37769047Y55247620D01*
X37959523Y55247620D01*
X38035714Y55209524D01*
X38073809Y55171429D01*
X38111904Y55095239D01*
X38111904Y54904762D01*
X38073809Y54828572D01*
X38035714Y54790477D01*
X37311904Y55514286D02*
X37311904Y56009524D01*
X37616666Y55742858D01*
X37616666Y55857143D01*
X37654761Y55933334D01*
X37692857Y55971429D01*
X37769047Y56009524D01*
X37959523Y56009524D01*
X38035714Y55971429D01*
X38073809Y55933334D01*
X38111904Y55857143D01*
X38111904Y55628572D01*
X38073809Y55552381D01*
X38035714Y55514286D01*
G04 #@! TO.C,C34*
X7155714Y70434286D02*
X7117619Y70396191D01*
X7003333Y70358096D01*
X6927142Y70358096D01*
X6812857Y70396191D01*
X6736666Y70472381D01*
X6698571Y70548572D01*
X6660476Y70700953D01*
X6660476Y70815239D01*
X6698571Y70967620D01*
X6736666Y71043810D01*
X6812857Y71120000D01*
X6927142Y71158096D01*
X7003333Y71158096D01*
X7117619Y71120000D01*
X7155714Y71081905D01*
X7422380Y71158096D02*
X7917619Y71158096D01*
X7650952Y70853334D01*
X7765238Y70853334D01*
X7841428Y70815239D01*
X7879523Y70777143D01*
X7917619Y70700953D01*
X7917619Y70510477D01*
X7879523Y70434286D01*
X7841428Y70396191D01*
X7765238Y70358096D01*
X7536666Y70358096D01*
X7460476Y70396191D01*
X7422380Y70434286D01*
X8603333Y70891429D02*
X8603333Y70358096D01*
X8412857Y71196191D02*
X8222380Y70624762D01*
X8717619Y70624762D01*
G04 #@! TO.C,C59*
X40005714Y61005715D02*
X40043809Y60967620D01*
X40081904Y60853334D01*
X40081904Y60777143D01*
X40043809Y60662858D01*
X39967619Y60586667D01*
X39891428Y60548572D01*
X39739047Y60510477D01*
X39624761Y60510477D01*
X39472380Y60548572D01*
X39396190Y60586667D01*
X39320000Y60662858D01*
X39281904Y60777143D01*
X39281904Y60853334D01*
X39320000Y60967620D01*
X39358095Y61005715D01*
X39281904Y61729524D02*
X39281904Y61348572D01*
X39662857Y61310477D01*
X39624761Y61348572D01*
X39586666Y61424762D01*
X39586666Y61615239D01*
X39624761Y61691429D01*
X39662857Y61729524D01*
X39739047Y61767620D01*
X39929523Y61767620D01*
X40005714Y61729524D01*
X40043809Y61691429D01*
X40081904Y61615239D01*
X40081904Y61424762D01*
X40043809Y61348572D01*
X40005714Y61310477D01*
X40081904Y62148572D02*
X40081904Y62300953D01*
X40043809Y62377143D01*
X40005714Y62415239D01*
X39891428Y62491429D01*
X39739047Y62529524D01*
X39434285Y62529524D01*
X39358095Y62491429D01*
X39320000Y62453334D01*
X39281904Y62377143D01*
X39281904Y62224762D01*
X39320000Y62148572D01*
X39358095Y62110477D01*
X39434285Y62072381D01*
X39624761Y62072381D01*
X39700952Y62110477D01*
X39739047Y62148572D01*
X39777142Y62224762D01*
X39777142Y62377143D01*
X39739047Y62453334D01*
X39700952Y62491429D01*
X39624761Y62529524D01*
G04 #@! TO.C,C68*
X4405714Y67005715D02*
X4443809Y66967620D01*
X4481904Y66853334D01*
X4481904Y66777143D01*
X4443809Y66662858D01*
X4367619Y66586667D01*
X4291428Y66548572D01*
X4139047Y66510477D01*
X4024761Y66510477D01*
X3872380Y66548572D01*
X3796190Y66586667D01*
X3720000Y66662858D01*
X3681904Y66777143D01*
X3681904Y66853334D01*
X3720000Y66967620D01*
X3758095Y67005715D01*
X3681904Y67691429D02*
X3681904Y67539048D01*
X3720000Y67462858D01*
X3758095Y67424762D01*
X3872380Y67348572D01*
X4024761Y67310477D01*
X4329523Y67310477D01*
X4405714Y67348572D01*
X4443809Y67386667D01*
X4481904Y67462858D01*
X4481904Y67615239D01*
X4443809Y67691429D01*
X4405714Y67729524D01*
X4329523Y67767620D01*
X4139047Y67767620D01*
X4062857Y67729524D01*
X4024761Y67691429D01*
X3986666Y67615239D01*
X3986666Y67462858D01*
X4024761Y67386667D01*
X4062857Y67348572D01*
X4139047Y67310477D01*
X4024761Y68224762D02*
X3986666Y68148572D01*
X3948571Y68110477D01*
X3872380Y68072381D01*
X3834285Y68072381D01*
X3758095Y68110477D01*
X3720000Y68148572D01*
X3681904Y68224762D01*
X3681904Y68377143D01*
X3720000Y68453334D01*
X3758095Y68491429D01*
X3834285Y68529524D01*
X3872380Y68529524D01*
X3948571Y68491429D01*
X3986666Y68453334D01*
X4024761Y68377143D01*
X4024761Y68224762D01*
X4062857Y68148572D01*
X4100952Y68110477D01*
X4177142Y68072381D01*
X4329523Y68072381D01*
X4405714Y68110477D01*
X4443809Y68148572D01*
X4481904Y68224762D01*
X4481904Y68377143D01*
X4443809Y68453334D01*
X4405714Y68491429D01*
X4329523Y68529524D01*
X4177142Y68529524D01*
X4100952Y68491429D01*
X4062857Y68453334D01*
X4024761Y68377143D01*
G04 #@! TO.C,C63*
X31735714Y57034286D02*
X31697619Y56996191D01*
X31583333Y56958096D01*
X31507142Y56958096D01*
X31392857Y56996191D01*
X31316666Y57072381D01*
X31278571Y57148572D01*
X31240476Y57300953D01*
X31240476Y57415239D01*
X31278571Y57567620D01*
X31316666Y57643810D01*
X31392857Y57720000D01*
X31507142Y57758096D01*
X31583333Y57758096D01*
X31697619Y57720000D01*
X31735714Y57681905D01*
X32421428Y57758096D02*
X32269047Y57758096D01*
X32192857Y57720000D01*
X32154761Y57681905D01*
X32078571Y57567620D01*
X32040476Y57415239D01*
X32040476Y57110477D01*
X32078571Y57034286D01*
X32116666Y56996191D01*
X32192857Y56958096D01*
X32345238Y56958096D01*
X32421428Y56996191D01*
X32459523Y57034286D01*
X32497619Y57110477D01*
X32497619Y57300953D01*
X32459523Y57377143D01*
X32421428Y57415239D01*
X32345238Y57453334D01*
X32192857Y57453334D01*
X32116666Y57415239D01*
X32078571Y57377143D01*
X32040476Y57300953D01*
X32764285Y57758096D02*
X33259523Y57758096D01*
X32992857Y57453334D01*
X33107142Y57453334D01*
X33183333Y57415239D01*
X33221428Y57377143D01*
X33259523Y57300953D01*
X33259523Y57110477D01*
X33221428Y57034286D01*
X33183333Y56996191D01*
X33107142Y56958096D01*
X32878571Y56958096D01*
X32802380Y56996191D01*
X32764285Y57034286D01*
G04 #@! TO.C,C62*
X405714Y53054286D02*
X367619Y53016191D01*
X253333Y52978096D01*
X177142Y52978096D01*
X62857Y53016191D01*
X-13334Y53092381D01*
X-51429Y53168572D01*
X-89524Y53320953D01*
X-89524Y53435239D01*
X-51429Y53587620D01*
X-13334Y53663810D01*
X62857Y53740000D01*
X177142Y53778096D01*
X253333Y53778096D01*
X367619Y53740000D01*
X405714Y53701905D01*
X1091428Y53778096D02*
X939047Y53778096D01*
X862857Y53740000D01*
X824761Y53701905D01*
X748571Y53587620D01*
X710476Y53435239D01*
X710476Y53130477D01*
X748571Y53054286D01*
X786666Y53016191D01*
X862857Y52978096D01*
X1015238Y52978096D01*
X1091428Y53016191D01*
X1129523Y53054286D01*
X1167619Y53130477D01*
X1167619Y53320953D01*
X1129523Y53397143D01*
X1091428Y53435239D01*
X1015238Y53473334D01*
X862857Y53473334D01*
X786666Y53435239D01*
X748571Y53397143D01*
X710476Y53320953D01*
X1472380Y53701905D02*
X1510476Y53740000D01*
X1586666Y53778096D01*
X1777142Y53778096D01*
X1853333Y53740000D01*
X1891428Y53701905D01*
X1929523Y53625715D01*
X1929523Y53549524D01*
X1891428Y53435239D01*
X1434285Y52978096D01*
X1929523Y52978096D01*
G04 #@! TO.C,C66*
X37077714Y44164286D02*
X37039619Y44126191D01*
X36925333Y44088096D01*
X36849142Y44088096D01*
X36734857Y44126191D01*
X36658666Y44202381D01*
X36620571Y44278572D01*
X36582476Y44430953D01*
X36582476Y44545239D01*
X36620571Y44697620D01*
X36658666Y44773810D01*
X36734857Y44850000D01*
X36849142Y44888096D01*
X36925333Y44888096D01*
X37039619Y44850000D01*
X37077714Y44811905D01*
X37763428Y44888096D02*
X37611047Y44888096D01*
X37534857Y44850000D01*
X37496761Y44811905D01*
X37420571Y44697620D01*
X37382476Y44545239D01*
X37382476Y44240477D01*
X37420571Y44164286D01*
X37458666Y44126191D01*
X37534857Y44088096D01*
X37687238Y44088096D01*
X37763428Y44126191D01*
X37801523Y44164286D01*
X37839619Y44240477D01*
X37839619Y44430953D01*
X37801523Y44507143D01*
X37763428Y44545239D01*
X37687238Y44583334D01*
X37534857Y44583334D01*
X37458666Y44545239D01*
X37420571Y44507143D01*
X37382476Y44430953D01*
X38525333Y44888096D02*
X38372952Y44888096D01*
X38296761Y44850000D01*
X38258666Y44811905D01*
X38182476Y44697620D01*
X38144380Y44545239D01*
X38144380Y44240477D01*
X38182476Y44164286D01*
X38220571Y44126191D01*
X38296761Y44088096D01*
X38449142Y44088096D01*
X38525333Y44126191D01*
X38563428Y44164286D01*
X38601523Y44240477D01*
X38601523Y44430953D01*
X38563428Y44507143D01*
X38525333Y44545239D01*
X38449142Y44583334D01*
X38296761Y44583334D01*
X38220571Y44545239D01*
X38182476Y44507143D01*
X38144380Y44430953D01*
G04 #@! TO.C,C70*
X39505714Y46155715D02*
X39543809Y46117620D01*
X39581904Y46003334D01*
X39581904Y45927143D01*
X39543809Y45812858D01*
X39467619Y45736667D01*
X39391428Y45698572D01*
X39239047Y45660477D01*
X39124761Y45660477D01*
X38972380Y45698572D01*
X38896190Y45736667D01*
X38820000Y45812858D01*
X38781904Y45927143D01*
X38781904Y46003334D01*
X38820000Y46117620D01*
X38858095Y46155715D01*
X38781904Y46422381D02*
X38781904Y46955715D01*
X39581904Y46612858D01*
X38781904Y47412858D02*
X38781904Y47489048D01*
X38820000Y47565239D01*
X38858095Y47603334D01*
X38934285Y47641429D01*
X39086666Y47679524D01*
X39277142Y47679524D01*
X39429523Y47641429D01*
X39505714Y47603334D01*
X39543809Y47565239D01*
X39581904Y47489048D01*
X39581904Y47412858D01*
X39543809Y47336667D01*
X39505714Y47298572D01*
X39429523Y47260477D01*
X39277142Y47222381D01*
X39086666Y47222381D01*
X38934285Y47260477D01*
X38858095Y47298572D01*
X38820000Y47336667D01*
X38781904Y47412858D01*
G04 #@! TO.C,C71*
X39505714Y36405715D02*
X39543809Y36367620D01*
X39581904Y36253334D01*
X39581904Y36177143D01*
X39543809Y36062858D01*
X39467619Y35986667D01*
X39391428Y35948572D01*
X39239047Y35910477D01*
X39124761Y35910477D01*
X38972380Y35948572D01*
X38896190Y35986667D01*
X38820000Y36062858D01*
X38781904Y36177143D01*
X38781904Y36253334D01*
X38820000Y36367620D01*
X38858095Y36405715D01*
X38781904Y36672381D02*
X38781904Y37205715D01*
X39581904Y36862858D01*
X39581904Y37929524D02*
X39581904Y37472381D01*
X39581904Y37700953D02*
X38781904Y37700953D01*
X38896190Y37624762D01*
X38972380Y37548572D01*
X39010476Y37472381D01*
G04 #@! TO.C,R70*
X2681904Y54605715D02*
X2300952Y54339048D01*
X2681904Y54148572D02*
X1881904Y54148572D01*
X1881904Y54453334D01*
X1920000Y54529524D01*
X1958095Y54567620D01*
X2034285Y54605715D01*
X2148571Y54605715D01*
X2224761Y54567620D01*
X2262857Y54529524D01*
X2300952Y54453334D01*
X2300952Y54148572D01*
X1881904Y54872381D02*
X1881904Y55405715D01*
X2681904Y55062858D01*
X1881904Y55862858D02*
X1881904Y55939048D01*
X1920000Y56015239D01*
X1958095Y56053334D01*
X2034285Y56091429D01*
X2186666Y56129524D01*
X2377142Y56129524D01*
X2529523Y56091429D01*
X2605714Y56053334D01*
X2643809Y56015239D01*
X2681904Y55939048D01*
X2681904Y55862858D01*
X2643809Y55786667D01*
X2605714Y55748572D01*
X2529523Y55710477D01*
X2377142Y55672381D01*
X2186666Y55672381D01*
X2034285Y55710477D01*
X1958095Y55748572D01*
X1920000Y55786667D01*
X1881904Y55862858D01*
G04 #@! TO.C,R69*
X4281904Y54605715D02*
X3900952Y54339048D01*
X4281904Y54148572D02*
X3481904Y54148572D01*
X3481904Y54453334D01*
X3520000Y54529524D01*
X3558095Y54567620D01*
X3634285Y54605715D01*
X3748571Y54605715D01*
X3824761Y54567620D01*
X3862857Y54529524D01*
X3900952Y54453334D01*
X3900952Y54148572D01*
X3481904Y55291429D02*
X3481904Y55139048D01*
X3520000Y55062858D01*
X3558095Y55024762D01*
X3672380Y54948572D01*
X3824761Y54910477D01*
X4129523Y54910477D01*
X4205714Y54948572D01*
X4243809Y54986667D01*
X4281904Y55062858D01*
X4281904Y55215239D01*
X4243809Y55291429D01*
X4205714Y55329524D01*
X4129523Y55367620D01*
X3939047Y55367620D01*
X3862857Y55329524D01*
X3824761Y55291429D01*
X3786666Y55215239D01*
X3786666Y55062858D01*
X3824761Y54986667D01*
X3862857Y54948572D01*
X3939047Y54910477D01*
X4281904Y55748572D02*
X4281904Y55900953D01*
X4243809Y55977143D01*
X4205714Y56015239D01*
X4091428Y56091429D01*
X3939047Y56129524D01*
X3634285Y56129524D01*
X3558095Y56091429D01*
X3520000Y56053334D01*
X3481904Y55977143D01*
X3481904Y55824762D01*
X3520000Y55748572D01*
X3558095Y55710477D01*
X3634285Y55672381D01*
X3824761Y55672381D01*
X3900952Y55710477D01*
X3939047Y55748572D01*
X3977142Y55824762D01*
X3977142Y55977143D01*
X3939047Y56053334D01*
X3900952Y56091429D01*
X3824761Y56129524D01*
G04 #@! TO.C,M1*
X5102380Y41388096D02*
X5102380Y42188096D01*
X5369047Y41616667D01*
X5635714Y42188096D01*
X5635714Y41388096D01*
X6435714Y41388096D02*
X5978571Y41388096D01*
X6207142Y41388096D02*
X6207142Y42188096D01*
X6130952Y42073810D01*
X6054761Y41997620D01*
X5978571Y41959524D01*
G04 #@! TO.C,M3*
X24102380Y41358096D02*
X24102380Y42158096D01*
X24369047Y41586667D01*
X24635714Y42158096D01*
X24635714Y41358096D01*
X24940476Y42158096D02*
X25435714Y42158096D01*
X25169047Y41853334D01*
X25283333Y41853334D01*
X25359523Y41815239D01*
X25397619Y41777143D01*
X25435714Y41700953D01*
X25435714Y41510477D01*
X25397619Y41434286D01*
X25359523Y41396191D01*
X25283333Y41358096D01*
X25054761Y41358096D01*
X24978571Y41396191D01*
X24940476Y41434286D01*
G04 #@! TO.C,M2*
X15564380Y41358096D02*
X15564380Y42158096D01*
X15831047Y41586667D01*
X16097714Y42158096D01*
X16097714Y41358096D01*
X16440571Y42081905D02*
X16478666Y42120000D01*
X16554857Y42158096D01*
X16745333Y42158096D01*
X16821523Y42120000D01*
X16859619Y42081905D01*
X16897714Y42005715D01*
X16897714Y41929524D01*
X16859619Y41815239D01*
X16402476Y41358096D01*
X16897714Y41358096D01*
G04 #@! TO.C,JC1*
X-31667Y43237096D02*
X-31667Y42665667D01*
X-69762Y42551381D01*
X-145953Y42475191D01*
X-260239Y42437096D01*
X-336429Y42437096D01*
X806428Y42513286D02*
X768333Y42475191D01*
X654047Y42437096D01*
X577857Y42437096D01*
X463571Y42475191D01*
X387380Y42551381D01*
X349285Y42627572D01*
X311190Y42779953D01*
X311190Y42894239D01*
X349285Y43046620D01*
X387380Y43122810D01*
X463571Y43199000D01*
X577857Y43237096D01*
X654047Y43237096D01*
X768333Y43199000D01*
X806428Y43160905D01*
X1568333Y42437096D02*
X1111190Y42437096D01*
X1339761Y42437096D02*
X1339761Y43237096D01*
X1263571Y43122810D01*
X1187380Y43046620D01*
X1111190Y43008524D01*
G04 #@! TO.C,L1*
X28386666Y41358096D02*
X28005714Y41358096D01*
X28005714Y42158096D01*
X29072380Y41358096D02*
X28615238Y41358096D01*
X28843809Y41358096D02*
X28843809Y42158096D01*
X28767619Y42043810D01*
X28691428Y41967620D01*
X28615238Y41929524D01*
G04 #@! TO.C,C64*
X7205714Y67005715D02*
X7243809Y66967620D01*
X7281904Y66853334D01*
X7281904Y66777143D01*
X7243809Y66662858D01*
X7167619Y66586667D01*
X7091428Y66548572D01*
X6939047Y66510477D01*
X6824761Y66510477D01*
X6672380Y66548572D01*
X6596190Y66586667D01*
X6520000Y66662858D01*
X6481904Y66777143D01*
X6481904Y66853334D01*
X6520000Y66967620D01*
X6558095Y67005715D01*
X6481904Y67691429D02*
X6481904Y67539048D01*
X6520000Y67462858D01*
X6558095Y67424762D01*
X6672380Y67348572D01*
X6824761Y67310477D01*
X7129523Y67310477D01*
X7205714Y67348572D01*
X7243809Y67386667D01*
X7281904Y67462858D01*
X7281904Y67615239D01*
X7243809Y67691429D01*
X7205714Y67729524D01*
X7129523Y67767620D01*
X6939047Y67767620D01*
X6862857Y67729524D01*
X6824761Y67691429D01*
X6786666Y67615239D01*
X6786666Y67462858D01*
X6824761Y67386667D01*
X6862857Y67348572D01*
X6939047Y67310477D01*
X6748571Y68453334D02*
X7281904Y68453334D01*
X6443809Y68262858D02*
X7015238Y68072381D01*
X7015238Y68567620D01*
G04 #@! TO.C,C18*
X3405714Y51645715D02*
X3443809Y51607620D01*
X3481904Y51493334D01*
X3481904Y51417143D01*
X3443809Y51302858D01*
X3367619Y51226667D01*
X3291428Y51188572D01*
X3139047Y51150477D01*
X3024761Y51150477D01*
X2872380Y51188572D01*
X2796190Y51226667D01*
X2720000Y51302858D01*
X2681904Y51417143D01*
X2681904Y51493334D01*
X2720000Y51607620D01*
X2758095Y51645715D01*
X3481904Y52407620D02*
X3481904Y51950477D01*
X3481904Y52179048D02*
X2681904Y52179048D01*
X2796190Y52102858D01*
X2872380Y52026667D01*
X2910476Y51950477D01*
X3024761Y52864762D02*
X2986666Y52788572D01*
X2948571Y52750477D01*
X2872380Y52712381D01*
X2834285Y52712381D01*
X2758095Y52750477D01*
X2720000Y52788572D01*
X2681904Y52864762D01*
X2681904Y53017143D01*
X2720000Y53093334D01*
X2758095Y53131429D01*
X2834285Y53169524D01*
X2872380Y53169524D01*
X2948571Y53131429D01*
X2986666Y53093334D01*
X3024761Y53017143D01*
X3024761Y52864762D01*
X3062857Y52788572D01*
X3100952Y52750477D01*
X3177142Y52712381D01*
X3329523Y52712381D01*
X3405714Y52750477D01*
X3443809Y52788572D01*
X3481904Y52864762D01*
X3481904Y53017143D01*
X3443809Y53093334D01*
X3405714Y53131429D01*
X3329523Y53169524D01*
X3177142Y53169524D01*
X3100952Y53131429D01*
X3062857Y53093334D01*
X3024761Y53017143D01*
G04 #@! TO.C,C5*
X4476714Y43366667D02*
X4514809Y43328572D01*
X4552904Y43214286D01*
X4552904Y43138096D01*
X4514809Y43023810D01*
X4438619Y42947620D01*
X4362428Y42909524D01*
X4210047Y42871429D01*
X4095761Y42871429D01*
X3943380Y42909524D01*
X3867190Y42947620D01*
X3791000Y43023810D01*
X3752904Y43138096D01*
X3752904Y43214286D01*
X3791000Y43328572D01*
X3829095Y43366667D01*
X3752904Y44090477D02*
X3752904Y43709524D01*
X4133857Y43671429D01*
X4095761Y43709524D01*
X4057666Y43785715D01*
X4057666Y43976191D01*
X4095761Y44052381D01*
X4133857Y44090477D01*
X4210047Y44128572D01*
X4400523Y44128572D01*
X4476714Y44090477D01*
X4514809Y44052381D01*
X4552904Y43976191D01*
X4552904Y43785715D01*
X4514809Y43709524D01*
X4476714Y43671429D01*
G04 #@! TO.C,C1*
X20866666Y41434286D02*
X20828571Y41396191D01*
X20714285Y41358096D01*
X20638095Y41358096D01*
X20523809Y41396191D01*
X20447619Y41472381D01*
X20409523Y41548572D01*
X20371428Y41700953D01*
X20371428Y41815239D01*
X20409523Y41967620D01*
X20447619Y42043810D01*
X20523809Y42120000D01*
X20638095Y42158096D01*
X20714285Y42158096D01*
X20828571Y42120000D01*
X20866666Y42081905D01*
X21628571Y41358096D02*
X21171428Y41358096D01*
X21400000Y41358096D02*
X21400000Y42158096D01*
X21323809Y42043810D01*
X21247619Y41967620D01*
X21171428Y41929524D01*
G04 #@! TO.C,R68*
X43605714Y37758096D02*
X43339047Y38139048D01*
X43148571Y37758096D02*
X43148571Y38558096D01*
X43453333Y38558096D01*
X43529523Y38520000D01*
X43567619Y38481905D01*
X43605714Y38405715D01*
X43605714Y38291429D01*
X43567619Y38215239D01*
X43529523Y38177143D01*
X43453333Y38139048D01*
X43148571Y38139048D01*
X44291428Y38558096D02*
X44139047Y38558096D01*
X44062857Y38520000D01*
X44024761Y38481905D01*
X43948571Y38367620D01*
X43910476Y38215239D01*
X43910476Y37910477D01*
X43948571Y37834286D01*
X43986666Y37796191D01*
X44062857Y37758096D01*
X44215238Y37758096D01*
X44291428Y37796191D01*
X44329523Y37834286D01*
X44367619Y37910477D01*
X44367619Y38100953D01*
X44329523Y38177143D01*
X44291428Y38215239D01*
X44215238Y38253334D01*
X44062857Y38253334D01*
X43986666Y38215239D01*
X43948571Y38177143D01*
X43910476Y38100953D01*
X44824761Y38215239D02*
X44748571Y38253334D01*
X44710476Y38291429D01*
X44672380Y38367620D01*
X44672380Y38405715D01*
X44710476Y38481905D01*
X44748571Y38520000D01*
X44824761Y38558096D01*
X44977142Y38558096D01*
X45053333Y38520000D01*
X45091428Y38481905D01*
X45129523Y38405715D01*
X45129523Y38367620D01*
X45091428Y38291429D01*
X45053333Y38253334D01*
X44977142Y38215239D01*
X44824761Y38215239D01*
X44748571Y38177143D01*
X44710476Y38139048D01*
X44672380Y38062858D01*
X44672380Y37910477D01*
X44710476Y37834286D01*
X44748571Y37796191D01*
X44824761Y37758096D01*
X44977142Y37758096D01*
X45053333Y37796191D01*
X45091428Y37834286D01*
X45129523Y37910477D01*
X45129523Y38062858D01*
X45091428Y38139048D01*
X45053333Y38177143D01*
X44977142Y38215239D01*
G04 #@! TO.C,R15*
X-3358096Y81405715D02*
X-3739048Y81139048D01*
X-3358096Y80948572D02*
X-4158096Y80948572D01*
X-4158096Y81253334D01*
X-4120000Y81329524D01*
X-4081905Y81367620D01*
X-4005715Y81405715D01*
X-3891429Y81405715D01*
X-3815239Y81367620D01*
X-3777143Y81329524D01*
X-3739048Y81253334D01*
X-3739048Y80948572D01*
X-3358096Y82167620D02*
X-3358096Y81710477D01*
X-3358096Y81939048D02*
X-4158096Y81939048D01*
X-4043810Y81862858D01*
X-3967620Y81786667D01*
X-3929524Y81710477D01*
X-4158096Y82891429D02*
X-4158096Y82510477D01*
X-3777143Y82472381D01*
X-3815239Y82510477D01*
X-3853334Y82586667D01*
X-3853334Y82777143D01*
X-3815239Y82853334D01*
X-3777143Y82891429D01*
X-3700953Y82929524D01*
X-3510477Y82929524D01*
X-3434286Y82891429D01*
X-3396191Y82853334D01*
X-3358096Y82777143D01*
X-3358096Y82586667D01*
X-3396191Y82510477D01*
X-3434286Y82472381D01*
G04 #@! TO.C,C25*
X-3004286Y76834286D02*
X-3042381Y76796191D01*
X-3156667Y76758096D01*
X-3232858Y76758096D01*
X-3347143Y76796191D01*
X-3423334Y76872381D01*
X-3461429Y76948572D01*
X-3499524Y77100953D01*
X-3499524Y77215239D01*
X-3461429Y77367620D01*
X-3423334Y77443810D01*
X-3347143Y77520000D01*
X-3232858Y77558096D01*
X-3156667Y77558096D01*
X-3042381Y77520000D01*
X-3004286Y77481905D01*
X-2699524Y77481905D02*
X-2661429Y77520000D01*
X-2585239Y77558096D01*
X-2394762Y77558096D01*
X-2318572Y77520000D01*
X-2280477Y77481905D01*
X-2242381Y77405715D01*
X-2242381Y77329524D01*
X-2280477Y77215239D01*
X-2737620Y76758096D01*
X-2242381Y76758096D01*
X-1518572Y77558096D02*
X-1899524Y77558096D01*
X-1937620Y77177143D01*
X-1899524Y77215239D01*
X-1823334Y77253334D01*
X-1632858Y77253334D01*
X-1556667Y77215239D01*
X-1518572Y77177143D01*
X-1480477Y77100953D01*
X-1480477Y76910477D01*
X-1518572Y76834286D01*
X-1556667Y76796191D01*
X-1632858Y76758096D01*
X-1823334Y76758096D01*
X-1899524Y76796191D01*
X-1937620Y76834286D01*
G04 #@! TO.C,AS6*
X-2222381Y81908667D02*
X-1841429Y81908667D01*
X-2298572Y81680096D02*
X-2031905Y82480096D01*
X-1765239Y81680096D01*
X-1536667Y81718191D02*
X-1422381Y81680096D01*
X-1231905Y81680096D01*
X-1155715Y81718191D01*
X-1117620Y81756286D01*
X-1079524Y81832477D01*
X-1079524Y81908667D01*
X-1117620Y81984858D01*
X-1155715Y82022953D01*
X-1231905Y82061048D01*
X-1384286Y82099143D01*
X-1460477Y82137239D01*
X-1498572Y82175334D01*
X-1536667Y82251524D01*
X-1536667Y82327715D01*
X-1498572Y82403905D01*
X-1460477Y82442000D01*
X-1384286Y82480096D01*
X-1193810Y82480096D01*
X-1079524Y82442000D01*
X-393810Y82480096D02*
X-546191Y82480096D01*
X-622381Y82442000D01*
X-660477Y82403905D01*
X-736667Y82289620D01*
X-774762Y82137239D01*
X-774762Y81832477D01*
X-736667Y81756286D01*
X-698572Y81718191D01*
X-622381Y81680096D01*
X-470000Y81680096D01*
X-393810Y81718191D01*
X-355715Y81756286D01*
X-317620Y81832477D01*
X-317620Y82022953D01*
X-355715Y82099143D01*
X-393810Y82137239D01*
X-470000Y82175334D01*
X-622381Y82175334D01*
X-698572Y82137239D01*
X-736667Y82099143D01*
X-774762Y82022953D01*
G04 #@! TO.C,AS12*
X17716666Y75558667D02*
X18097619Y75558667D01*
X17640476Y75330096D02*
X17907142Y76130096D01*
X18173809Y75330096D01*
X18402380Y75368191D02*
X18516666Y75330096D01*
X18707142Y75330096D01*
X18783333Y75368191D01*
X18821428Y75406286D01*
X18859523Y75482477D01*
X18859523Y75558667D01*
X18821428Y75634858D01*
X18783333Y75672953D01*
X18707142Y75711048D01*
X18554761Y75749143D01*
X18478571Y75787239D01*
X18440476Y75825334D01*
X18402380Y75901524D01*
X18402380Y75977715D01*
X18440476Y76053905D01*
X18478571Y76092000D01*
X18554761Y76130096D01*
X18745238Y76130096D01*
X18859523Y76092000D01*
X19621428Y75330096D02*
X19164285Y75330096D01*
X19392857Y75330096D02*
X19392857Y76130096D01*
X19316666Y76015810D01*
X19240476Y75939620D01*
X19164285Y75901524D01*
X19926190Y76053905D02*
X19964285Y76092000D01*
X20040476Y76130096D01*
X20230952Y76130096D01*
X20307142Y76092000D01*
X20345238Y76053905D01*
X20383333Y75977715D01*
X20383333Y75901524D01*
X20345238Y75787239D01*
X19888095Y75330096D01*
X20383333Y75330096D01*
G04 #@! TO.C,R16*
X27121904Y75005715D02*
X26740952Y74739048D01*
X27121904Y74548572D02*
X26321904Y74548572D01*
X26321904Y74853334D01*
X26360000Y74929524D01*
X26398095Y74967620D01*
X26474285Y75005715D01*
X26588571Y75005715D01*
X26664761Y74967620D01*
X26702857Y74929524D01*
X26740952Y74853334D01*
X26740952Y74548572D01*
X27121904Y75767620D02*
X27121904Y75310477D01*
X27121904Y75539048D02*
X26321904Y75539048D01*
X26436190Y75462858D01*
X26512380Y75386667D01*
X26550476Y75310477D01*
X26321904Y76453334D02*
X26321904Y76300953D01*
X26360000Y76224762D01*
X26398095Y76186667D01*
X26512380Y76110477D01*
X26664761Y76072381D01*
X26969523Y76072381D01*
X27045714Y76110477D01*
X27083809Y76148572D01*
X27121904Y76224762D01*
X27121904Y76377143D01*
X27083809Y76453334D01*
X27045714Y76491429D01*
X26969523Y76529524D01*
X26779047Y76529524D01*
X26702857Y76491429D01*
X26664761Y76453334D01*
X26626666Y76377143D01*
X26626666Y76224762D01*
X26664761Y76148572D01*
X26702857Y76110477D01*
X26779047Y76072381D01*
G04 #@! TO.C,R3*
X4586666Y70358096D02*
X4320000Y70739048D01*
X4129523Y70358096D02*
X4129523Y71158096D01*
X4434285Y71158096D01*
X4510476Y71120000D01*
X4548571Y71081905D01*
X4586666Y71005715D01*
X4586666Y70891429D01*
X4548571Y70815239D01*
X4510476Y70777143D01*
X4434285Y70739048D01*
X4129523Y70739048D01*
X4853333Y71158096D02*
X5348571Y71158096D01*
X5081904Y70853334D01*
X5196190Y70853334D01*
X5272380Y70815239D01*
X5310476Y70777143D01*
X5348571Y70700953D01*
X5348571Y70510477D01*
X5310476Y70434286D01*
X5272380Y70396191D01*
X5196190Y70358096D01*
X4967619Y70358096D01*
X4891428Y70396191D01*
X4853333Y70434286D01*
G04 #@! TO.C,C3*
X2386666Y70434286D02*
X2348571Y70396191D01*
X2234285Y70358096D01*
X2158095Y70358096D01*
X2043809Y70396191D01*
X1967619Y70472381D01*
X1929523Y70548572D01*
X1891428Y70700953D01*
X1891428Y70815239D01*
X1929523Y70967620D01*
X1967619Y71043810D01*
X2043809Y71120000D01*
X2158095Y71158096D01*
X2234285Y71158096D01*
X2348571Y71120000D01*
X2386666Y71081905D01*
X2653333Y71158096D02*
X3148571Y71158096D01*
X2881904Y70853334D01*
X2996190Y70853334D01*
X3072380Y70815239D01*
X3110476Y70777143D01*
X3148571Y70700953D01*
X3148571Y70510477D01*
X3110476Y70434286D01*
X3072380Y70396191D01*
X2996190Y70358096D01*
X2767619Y70358096D01*
X2691428Y70396191D01*
X2653333Y70434286D01*
G04 #@! TO.C,C30*
X22405714Y70434286D02*
X22367619Y70396191D01*
X22253333Y70358096D01*
X22177142Y70358096D01*
X22062857Y70396191D01*
X21986666Y70472381D01*
X21948571Y70548572D01*
X21910476Y70700953D01*
X21910476Y70815239D01*
X21948571Y70967620D01*
X21986666Y71043810D01*
X22062857Y71120000D01*
X22177142Y71158096D01*
X22253333Y71158096D01*
X22367619Y71120000D01*
X22405714Y71081905D01*
X22672380Y71158096D02*
X23167619Y71158096D01*
X22900952Y70853334D01*
X23015238Y70853334D01*
X23091428Y70815239D01*
X23129523Y70777143D01*
X23167619Y70700953D01*
X23167619Y70510477D01*
X23129523Y70434286D01*
X23091428Y70396191D01*
X23015238Y70358096D01*
X22786666Y70358096D01*
X22710476Y70396191D01*
X22672380Y70434286D01*
X23662857Y71158096D02*
X23739047Y71158096D01*
X23815238Y71120000D01*
X23853333Y71081905D01*
X23891428Y71005715D01*
X23929523Y70853334D01*
X23929523Y70662858D01*
X23891428Y70510477D01*
X23853333Y70434286D01*
X23815238Y70396191D01*
X23739047Y70358096D01*
X23662857Y70358096D01*
X23586666Y70396191D01*
X23548571Y70434286D01*
X23510476Y70510477D01*
X23472380Y70662858D01*
X23472380Y70853334D01*
X23510476Y71005715D01*
X23548571Y71081905D01*
X23586666Y71120000D01*
X23662857Y71158096D01*
G04 #@! TO.C,AS10*
X7556666Y75558667D02*
X7937619Y75558667D01*
X7480476Y75330096D02*
X7747142Y76130096D01*
X8013809Y75330096D01*
X8242380Y75368191D02*
X8356666Y75330096D01*
X8547142Y75330096D01*
X8623333Y75368191D01*
X8661428Y75406286D01*
X8699523Y75482477D01*
X8699523Y75558667D01*
X8661428Y75634858D01*
X8623333Y75672953D01*
X8547142Y75711048D01*
X8394761Y75749143D01*
X8318571Y75787239D01*
X8280476Y75825334D01*
X8242380Y75901524D01*
X8242380Y75977715D01*
X8280476Y76053905D01*
X8318571Y76092000D01*
X8394761Y76130096D01*
X8585238Y76130096D01*
X8699523Y76092000D01*
X9461428Y75330096D02*
X9004285Y75330096D01*
X9232857Y75330096D02*
X9232857Y76130096D01*
X9156666Y76015810D01*
X9080476Y75939620D01*
X9004285Y75901524D01*
X9956666Y76130096D02*
X10032857Y76130096D01*
X10109047Y76092000D01*
X10147142Y76053905D01*
X10185238Y75977715D01*
X10223333Y75825334D01*
X10223333Y75634858D01*
X10185238Y75482477D01*
X10147142Y75406286D01*
X10109047Y75368191D01*
X10032857Y75330096D01*
X9956666Y75330096D01*
X9880476Y75368191D01*
X9842380Y75406286D01*
X9804285Y75482477D01*
X9766190Y75634858D01*
X9766190Y75825334D01*
X9804285Y75977715D01*
X9842380Y76053905D01*
X9880476Y76092000D01*
X9956666Y76130096D01*
G04 #@! TO.C,R25*
X6801904Y75005715D02*
X6420952Y74739048D01*
X6801904Y74548572D02*
X6001904Y74548572D01*
X6001904Y74853334D01*
X6040000Y74929524D01*
X6078095Y74967620D01*
X6154285Y75005715D01*
X6268571Y75005715D01*
X6344761Y74967620D01*
X6382857Y74929524D01*
X6420952Y74853334D01*
X6420952Y74548572D01*
X6078095Y75310477D02*
X6040000Y75348572D01*
X6001904Y75424762D01*
X6001904Y75615239D01*
X6040000Y75691429D01*
X6078095Y75729524D01*
X6154285Y75767620D01*
X6230476Y75767620D01*
X6344761Y75729524D01*
X6801904Y75272381D01*
X6801904Y75767620D01*
X6001904Y76491429D02*
X6001904Y76110477D01*
X6382857Y76072381D01*
X6344761Y76110477D01*
X6306666Y76186667D01*
X6306666Y76377143D01*
X6344761Y76453334D01*
X6382857Y76491429D01*
X6459047Y76529524D01*
X6649523Y76529524D01*
X6725714Y76491429D01*
X6763809Y76453334D01*
X6801904Y76377143D01*
X6801904Y76186667D01*
X6763809Y76110477D01*
X6725714Y76072381D01*
G04 #@! TO.C,R48*
X11881904Y75005715D02*
X11500952Y74739048D01*
X11881904Y74548572D02*
X11081904Y74548572D01*
X11081904Y74853334D01*
X11120000Y74929524D01*
X11158095Y74967620D01*
X11234285Y75005715D01*
X11348571Y75005715D01*
X11424761Y74967620D01*
X11462857Y74929524D01*
X11500952Y74853334D01*
X11500952Y74548572D01*
X11348571Y75691429D02*
X11881904Y75691429D01*
X11043809Y75500953D02*
X11615238Y75310477D01*
X11615238Y75805715D01*
X11424761Y76224762D02*
X11386666Y76148572D01*
X11348571Y76110477D01*
X11272380Y76072381D01*
X11234285Y76072381D01*
X11158095Y76110477D01*
X11120000Y76148572D01*
X11081904Y76224762D01*
X11081904Y76377143D01*
X11120000Y76453334D01*
X11158095Y76491429D01*
X11234285Y76529524D01*
X11272380Y76529524D01*
X11348571Y76491429D01*
X11386666Y76453334D01*
X11424761Y76377143D01*
X11424761Y76224762D01*
X11462857Y76148572D01*
X11500952Y76110477D01*
X11577142Y76072381D01*
X11729523Y76072381D01*
X11805714Y76110477D01*
X11843809Y76148572D01*
X11881904Y76224762D01*
X11881904Y76377143D01*
X11843809Y76453334D01*
X11805714Y76491429D01*
X11729523Y76529524D01*
X11577142Y76529524D01*
X11500952Y76491429D01*
X11462857Y76453334D01*
X11424761Y76377143D01*
G04 #@! TO.C,C53*
X12235714Y70434286D02*
X12197619Y70396191D01*
X12083333Y70358096D01*
X12007142Y70358096D01*
X11892857Y70396191D01*
X11816666Y70472381D01*
X11778571Y70548572D01*
X11740476Y70700953D01*
X11740476Y70815239D01*
X11778571Y70967620D01*
X11816666Y71043810D01*
X11892857Y71120000D01*
X12007142Y71158096D01*
X12083333Y71158096D01*
X12197619Y71120000D01*
X12235714Y71081905D01*
X12959523Y71158096D02*
X12578571Y71158096D01*
X12540476Y70777143D01*
X12578571Y70815239D01*
X12654761Y70853334D01*
X12845238Y70853334D01*
X12921428Y70815239D01*
X12959523Y70777143D01*
X12997619Y70700953D01*
X12997619Y70510477D01*
X12959523Y70434286D01*
X12921428Y70396191D01*
X12845238Y70358096D01*
X12654761Y70358096D01*
X12578571Y70396191D01*
X12540476Y70434286D01*
X13264285Y71158096D02*
X13759523Y71158096D01*
X13492857Y70853334D01*
X13607142Y70853334D01*
X13683333Y70815239D01*
X13721428Y70777143D01*
X13759523Y70700953D01*
X13759523Y70510477D01*
X13721428Y70434286D01*
X13683333Y70396191D01*
X13607142Y70358096D01*
X13378571Y70358096D01*
X13302380Y70396191D01*
X13264285Y70434286D01*
G04 #@! TO.C,R72*
X31361904Y58735715D02*
X30980952Y58469048D01*
X31361904Y58278572D02*
X30561904Y58278572D01*
X30561904Y58583334D01*
X30600000Y58659524D01*
X30638095Y58697620D01*
X30714285Y58735715D01*
X30828571Y58735715D01*
X30904761Y58697620D01*
X30942857Y58659524D01*
X30980952Y58583334D01*
X30980952Y58278572D01*
X30561904Y59002381D02*
X30561904Y59535715D01*
X31361904Y59192858D01*
X30638095Y59802381D02*
X30600000Y59840477D01*
X30561904Y59916667D01*
X30561904Y60107143D01*
X30600000Y60183334D01*
X30638095Y60221429D01*
X30714285Y60259524D01*
X30790476Y60259524D01*
X30904761Y60221429D01*
X31361904Y59764286D01*
X31361904Y60259524D01*
G04 #@! TO.C,R71*
X40081904Y58205715D02*
X39700952Y57939048D01*
X40081904Y57748572D02*
X39281904Y57748572D01*
X39281904Y58053334D01*
X39320000Y58129524D01*
X39358095Y58167620D01*
X39434285Y58205715D01*
X39548571Y58205715D01*
X39624761Y58167620D01*
X39662857Y58129524D01*
X39700952Y58053334D01*
X39700952Y57748572D01*
X39281904Y58472381D02*
X39281904Y59005715D01*
X40081904Y58662858D01*
X40081904Y59729524D02*
X40081904Y59272381D01*
X40081904Y59500953D02*
X39281904Y59500953D01*
X39396190Y59424762D01*
X39472380Y59348572D01*
X39510476Y59272381D01*
G04 #@! TO.C,R81*
X41681904Y58205715D02*
X41300952Y57939048D01*
X41681904Y57748572D02*
X40881904Y57748572D01*
X40881904Y58053334D01*
X40920000Y58129524D01*
X40958095Y58167620D01*
X41034285Y58205715D01*
X41148571Y58205715D01*
X41224761Y58167620D01*
X41262857Y58129524D01*
X41300952Y58053334D01*
X41300952Y57748572D01*
X41224761Y58662858D02*
X41186666Y58586667D01*
X41148571Y58548572D01*
X41072380Y58510477D01*
X41034285Y58510477D01*
X40958095Y58548572D01*
X40920000Y58586667D01*
X40881904Y58662858D01*
X40881904Y58815239D01*
X40920000Y58891429D01*
X40958095Y58929524D01*
X41034285Y58967620D01*
X41072380Y58967620D01*
X41148571Y58929524D01*
X41186666Y58891429D01*
X41224761Y58815239D01*
X41224761Y58662858D01*
X41262857Y58586667D01*
X41300952Y58548572D01*
X41377142Y58510477D01*
X41529523Y58510477D01*
X41605714Y58548572D01*
X41643809Y58586667D01*
X41681904Y58662858D01*
X41681904Y58815239D01*
X41643809Y58891429D01*
X41605714Y58929524D01*
X41529523Y58967620D01*
X41377142Y58967620D01*
X41300952Y58929524D01*
X41262857Y58891429D01*
X41224761Y58815239D01*
X41681904Y59729524D02*
X41681904Y59272381D01*
X41681904Y59500953D02*
X40881904Y59500953D01*
X40996190Y59424762D01*
X41072380Y59348572D01*
X41110476Y59272381D01*
G04 #@! TO.C,R67*
X43605714Y47958096D02*
X43339047Y48339048D01*
X43148571Y47958096D02*
X43148571Y48758096D01*
X43453333Y48758096D01*
X43529523Y48720000D01*
X43567619Y48681905D01*
X43605714Y48605715D01*
X43605714Y48491429D01*
X43567619Y48415239D01*
X43529523Y48377143D01*
X43453333Y48339048D01*
X43148571Y48339048D01*
X44291428Y48758096D02*
X44139047Y48758096D01*
X44062857Y48720000D01*
X44024761Y48681905D01*
X43948571Y48567620D01*
X43910476Y48415239D01*
X43910476Y48110477D01*
X43948571Y48034286D01*
X43986666Y47996191D01*
X44062857Y47958096D01*
X44215238Y47958096D01*
X44291428Y47996191D01*
X44329523Y48034286D01*
X44367619Y48110477D01*
X44367619Y48300953D01*
X44329523Y48377143D01*
X44291428Y48415239D01*
X44215238Y48453334D01*
X44062857Y48453334D01*
X43986666Y48415239D01*
X43948571Y48377143D01*
X43910476Y48300953D01*
X44634285Y48758096D02*
X45167619Y48758096D01*
X44824761Y47958096D01*
G04 #@! TO.C,R62*
X43605714Y41358096D02*
X43339047Y41739048D01*
X43148571Y41358096D02*
X43148571Y42158096D01*
X43453333Y42158096D01*
X43529523Y42120000D01*
X43567619Y42081905D01*
X43605714Y42005715D01*
X43605714Y41891429D01*
X43567619Y41815239D01*
X43529523Y41777143D01*
X43453333Y41739048D01*
X43148571Y41739048D01*
X44291428Y42158096D02*
X44139047Y42158096D01*
X44062857Y42120000D01*
X44024761Y42081905D01*
X43948571Y41967620D01*
X43910476Y41815239D01*
X43910476Y41510477D01*
X43948571Y41434286D01*
X43986666Y41396191D01*
X44062857Y41358096D01*
X44215238Y41358096D01*
X44291428Y41396191D01*
X44329523Y41434286D01*
X44367619Y41510477D01*
X44367619Y41700953D01*
X44329523Y41777143D01*
X44291428Y41815239D01*
X44215238Y41853334D01*
X44062857Y41853334D01*
X43986666Y41815239D01*
X43948571Y41777143D01*
X43910476Y41700953D01*
X44672380Y42081905D02*
X44710476Y42120000D01*
X44786666Y42158096D01*
X44977142Y42158096D01*
X45053333Y42120000D01*
X45091428Y42081905D01*
X45129523Y42005715D01*
X45129523Y41929524D01*
X45091428Y41815239D01*
X44634285Y41358096D01*
X45129523Y41358096D01*
G04 #@! TO.C,R60*
X38985714Y42888096D02*
X38719047Y43269048D01*
X38528571Y42888096D02*
X38528571Y43688096D01*
X38833333Y43688096D01*
X38909523Y43650000D01*
X38947619Y43611905D01*
X38985714Y43535715D01*
X38985714Y43421429D01*
X38947619Y43345239D01*
X38909523Y43307143D01*
X38833333Y43269048D01*
X38528571Y43269048D01*
X39671428Y43688096D02*
X39519047Y43688096D01*
X39442857Y43650000D01*
X39404761Y43611905D01*
X39328571Y43497620D01*
X39290476Y43345239D01*
X39290476Y43040477D01*
X39328571Y42964286D01*
X39366666Y42926191D01*
X39442857Y42888096D01*
X39595238Y42888096D01*
X39671428Y42926191D01*
X39709523Y42964286D01*
X39747619Y43040477D01*
X39747619Y43230953D01*
X39709523Y43307143D01*
X39671428Y43345239D01*
X39595238Y43383334D01*
X39442857Y43383334D01*
X39366666Y43345239D01*
X39328571Y43307143D01*
X39290476Y43230953D01*
X40242857Y43688096D02*
X40319047Y43688096D01*
X40395238Y43650000D01*
X40433333Y43611905D01*
X40471428Y43535715D01*
X40509523Y43383334D01*
X40509523Y43192858D01*
X40471428Y43040477D01*
X40433333Y42964286D01*
X40395238Y42926191D01*
X40319047Y42888096D01*
X40242857Y42888096D01*
X40166666Y42926191D01*
X40128571Y42964286D01*
X40090476Y43040477D01*
X40052380Y43192858D01*
X40052380Y43383334D01*
X40090476Y43535715D01*
X40128571Y43611905D01*
X40166666Y43650000D01*
X40242857Y43688096D01*
G04 #@! TO.C,D1*
X2111904Y63129524D02*
X1311904Y63129524D01*
X1311904Y63320000D01*
X1350000Y63434286D01*
X1426190Y63510477D01*
X1502380Y63548572D01*
X1654761Y63586667D01*
X1769047Y63586667D01*
X1921428Y63548572D01*
X1997619Y63510477D01*
X2073809Y63434286D01*
X2111904Y63320000D01*
X2111904Y63129524D01*
X2111904Y64348572D02*
X2111904Y63891429D01*
X2111904Y64120000D02*
X1311904Y64120000D01*
X1426190Y64043810D01*
X1502380Y63967620D01*
X1540476Y63891429D01*
G04 #@! TO.C,D3*
X32409523Y33758096D02*
X32409523Y34558096D01*
X32600000Y34558096D01*
X32714285Y34520000D01*
X32790476Y34443810D01*
X32828571Y34367620D01*
X32866666Y34215239D01*
X32866666Y34100953D01*
X32828571Y33948572D01*
X32790476Y33872381D01*
X32714285Y33796191D01*
X32600000Y33758096D01*
X32409523Y33758096D01*
X33133333Y34558096D02*
X33628571Y34558096D01*
X33361904Y34253334D01*
X33476190Y34253334D01*
X33552380Y34215239D01*
X33590476Y34177143D01*
X33628571Y34100953D01*
X33628571Y33910477D01*
X33590476Y33834286D01*
X33552380Y33796191D01*
X33476190Y33758096D01*
X33247619Y33758096D01*
X33171428Y33796191D01*
X33133333Y33834286D01*
G04 #@! TO.C,D2*
X32409523Y43558796D02*
X32409523Y44358796D01*
X32600000Y44358796D01*
X32714285Y44320700D01*
X32790476Y44244510D01*
X32828571Y44168320D01*
X32866666Y44015939D01*
X32866666Y43901653D01*
X32828571Y43749272D01*
X32790476Y43673081D01*
X32714285Y43596891D01*
X32600000Y43558796D01*
X32409523Y43558796D01*
X33171428Y44282605D02*
X33209523Y44320700D01*
X33285714Y44358796D01*
X33476190Y44358796D01*
X33552380Y44320700D01*
X33590476Y44282605D01*
X33628571Y44206415D01*
X33628571Y44130224D01*
X33590476Y44015939D01*
X33133333Y43558796D01*
X33628571Y43558796D01*
G04 #@! TO.C,C28*
X-2124286Y65464286D02*
X-2162381Y65426191D01*
X-2276667Y65388096D01*
X-2352858Y65388096D01*
X-2467143Y65426191D01*
X-2543334Y65502381D01*
X-2581429Y65578572D01*
X-2619524Y65730953D01*
X-2619524Y65845239D01*
X-2581429Y65997620D01*
X-2543334Y66073810D01*
X-2467143Y66150000D01*
X-2352858Y66188096D01*
X-2276667Y66188096D01*
X-2162381Y66150000D01*
X-2124286Y66111905D01*
X-1819524Y66111905D02*
X-1781429Y66150000D01*
X-1705239Y66188096D01*
X-1514762Y66188096D01*
X-1438572Y66150000D01*
X-1400477Y66111905D01*
X-1362381Y66035715D01*
X-1362381Y65959524D01*
X-1400477Y65845239D01*
X-1857620Y65388096D01*
X-1362381Y65388096D01*
X-905239Y65845239D02*
X-981429Y65883334D01*
X-1019524Y65921429D01*
X-1057620Y65997620D01*
X-1057620Y66035715D01*
X-1019524Y66111905D01*
X-981429Y66150000D01*
X-905239Y66188096D01*
X-752858Y66188096D01*
X-676667Y66150000D01*
X-638572Y66111905D01*
X-600477Y66035715D01*
X-600477Y65997620D01*
X-638572Y65921429D01*
X-676667Y65883334D01*
X-752858Y65845239D01*
X-905239Y65845239D01*
X-981429Y65807143D01*
X-1019524Y65769048D01*
X-1057620Y65692858D01*
X-1057620Y65540477D01*
X-1019524Y65464286D01*
X-981429Y65426191D01*
X-905239Y65388096D01*
X-752858Y65388096D01*
X-676667Y65426191D01*
X-638572Y65464286D01*
X-600477Y65540477D01*
X-600477Y65692858D01*
X-638572Y65769048D01*
X-676667Y65807143D01*
X-752858Y65845239D01*
G04 #@! TO.C,C27*
X2035714Y60735715D02*
X2073809Y60697620D01*
X2111904Y60583334D01*
X2111904Y60507143D01*
X2073809Y60392858D01*
X1997619Y60316667D01*
X1921428Y60278572D01*
X1769047Y60240477D01*
X1654761Y60240477D01*
X1502380Y60278572D01*
X1426190Y60316667D01*
X1350000Y60392858D01*
X1311904Y60507143D01*
X1311904Y60583334D01*
X1350000Y60697620D01*
X1388095Y60735715D01*
X1388095Y61040477D02*
X1350000Y61078572D01*
X1311904Y61154762D01*
X1311904Y61345239D01*
X1350000Y61421429D01*
X1388095Y61459524D01*
X1464285Y61497620D01*
X1540476Y61497620D01*
X1654761Y61459524D01*
X2111904Y61002381D01*
X2111904Y61497620D01*
X1311904Y61764286D02*
X1311904Y62297620D01*
X2111904Y61954762D01*
G04 #@! TO.C,C67*
X37077714Y34434286D02*
X37039619Y34396191D01*
X36925333Y34358096D01*
X36849142Y34358096D01*
X36734857Y34396191D01*
X36658666Y34472381D01*
X36620571Y34548572D01*
X36582476Y34700953D01*
X36582476Y34815239D01*
X36620571Y34967620D01*
X36658666Y35043810D01*
X36734857Y35120000D01*
X36849142Y35158096D01*
X36925333Y35158096D01*
X37039619Y35120000D01*
X37077714Y35081905D01*
X37763428Y35158096D02*
X37611047Y35158096D01*
X37534857Y35120000D01*
X37496761Y35081905D01*
X37420571Y34967620D01*
X37382476Y34815239D01*
X37382476Y34510477D01*
X37420571Y34434286D01*
X37458666Y34396191D01*
X37534857Y34358096D01*
X37687238Y34358096D01*
X37763428Y34396191D01*
X37801523Y34434286D01*
X37839619Y34510477D01*
X37839619Y34700953D01*
X37801523Y34777143D01*
X37763428Y34815239D01*
X37687238Y34853334D01*
X37534857Y34853334D01*
X37458666Y34815239D01*
X37420571Y34777143D01*
X37382476Y34700953D01*
X38106285Y35158096D02*
X38639619Y35158096D01*
X38296761Y34358096D01*
G04 #@! TO.C,C61*
X34735714Y33834286D02*
X34697619Y33796191D01*
X34583333Y33758096D01*
X34507142Y33758096D01*
X34392857Y33796191D01*
X34316666Y33872381D01*
X34278571Y33948572D01*
X34240476Y34100953D01*
X34240476Y34215239D01*
X34278571Y34367620D01*
X34316666Y34443810D01*
X34392857Y34520000D01*
X34507142Y34558096D01*
X34583333Y34558096D01*
X34697619Y34520000D01*
X34735714Y34481905D01*
X35421428Y34558096D02*
X35269047Y34558096D01*
X35192857Y34520000D01*
X35154761Y34481905D01*
X35078571Y34367620D01*
X35040476Y34215239D01*
X35040476Y33910477D01*
X35078571Y33834286D01*
X35116666Y33796191D01*
X35192857Y33758096D01*
X35345238Y33758096D01*
X35421428Y33796191D01*
X35459523Y33834286D01*
X35497619Y33910477D01*
X35497619Y34100953D01*
X35459523Y34177143D01*
X35421428Y34215239D01*
X35345238Y34253334D01*
X35192857Y34253334D01*
X35116666Y34215239D01*
X35078571Y34177143D01*
X35040476Y34100953D01*
X36259523Y33758096D02*
X35802380Y33758096D01*
X36030952Y33758096D02*
X36030952Y34558096D01*
X35954761Y34443810D01*
X35878571Y34367620D01*
X35802380Y34329524D01*
G04 #@! TO.C,C60*
X34735714Y43634986D02*
X34697619Y43596891D01*
X34583333Y43558796D01*
X34507142Y43558796D01*
X34392857Y43596891D01*
X34316666Y43673081D01*
X34278571Y43749272D01*
X34240476Y43901653D01*
X34240476Y44015939D01*
X34278571Y44168320D01*
X34316666Y44244510D01*
X34392857Y44320700D01*
X34507142Y44358796D01*
X34583333Y44358796D01*
X34697619Y44320700D01*
X34735714Y44282605D01*
X35421428Y44358796D02*
X35269047Y44358796D01*
X35192857Y44320700D01*
X35154761Y44282605D01*
X35078571Y44168320D01*
X35040476Y44015939D01*
X35040476Y43711177D01*
X35078571Y43634986D01*
X35116666Y43596891D01*
X35192857Y43558796D01*
X35345238Y43558796D01*
X35421428Y43596891D01*
X35459523Y43634986D01*
X35497619Y43711177D01*
X35497619Y43901653D01*
X35459523Y43977843D01*
X35421428Y44015939D01*
X35345238Y44054034D01*
X35192857Y44054034D01*
X35116666Y44015939D01*
X35078571Y43977843D01*
X35040476Y43901653D01*
X35992857Y44358796D02*
X36069047Y44358796D01*
X36145238Y44320700D01*
X36183333Y44282605D01*
X36221428Y44206415D01*
X36259523Y44054034D01*
X36259523Y43863558D01*
X36221428Y43711177D01*
X36183333Y43634986D01*
X36145238Y43596891D01*
X36069047Y43558796D01*
X35992857Y43558796D01*
X35916666Y43596891D01*
X35878571Y43634986D01*
X35840476Y43711177D01*
X35802380Y43863558D01*
X35802380Y44054034D01*
X35840476Y44206415D01*
X35878571Y44282605D01*
X35916666Y44320700D01*
X35992857Y44358796D01*
G04 #@! TO.C,C52*
X43605714Y42634286D02*
X43567619Y42596191D01*
X43453333Y42558096D01*
X43377142Y42558096D01*
X43262857Y42596191D01*
X43186666Y42672381D01*
X43148571Y42748572D01*
X43110476Y42900953D01*
X43110476Y43015239D01*
X43148571Y43167620D01*
X43186666Y43243810D01*
X43262857Y43320000D01*
X43377142Y43358096D01*
X43453333Y43358096D01*
X43567619Y43320000D01*
X43605714Y43281905D01*
X44329523Y43358096D02*
X43948571Y43358096D01*
X43910476Y42977143D01*
X43948571Y43015239D01*
X44024761Y43053334D01*
X44215238Y43053334D01*
X44291428Y43015239D01*
X44329523Y42977143D01*
X44367619Y42900953D01*
X44367619Y42710477D01*
X44329523Y42634286D01*
X44291428Y42596191D01*
X44215238Y42558096D01*
X44024761Y42558096D01*
X43948571Y42596191D01*
X43910476Y42634286D01*
X44672380Y43281905D02*
X44710476Y43320000D01*
X44786666Y43358096D01*
X44977142Y43358096D01*
X45053333Y43320000D01*
X45091428Y43281905D01*
X45129523Y43205715D01*
X45129523Y43129524D01*
X45091428Y43015239D01*
X44634285Y42558096D01*
X45129523Y42558096D01*
G04 #@! TO.C,C51*
X43605714Y52834286D02*
X43567619Y52796191D01*
X43453333Y52758096D01*
X43377142Y52758096D01*
X43262857Y52796191D01*
X43186666Y52872381D01*
X43148571Y52948572D01*
X43110476Y53100953D01*
X43110476Y53215239D01*
X43148571Y53367620D01*
X43186666Y53443810D01*
X43262857Y53520000D01*
X43377142Y53558096D01*
X43453333Y53558096D01*
X43567619Y53520000D01*
X43605714Y53481905D01*
X44329523Y53558096D02*
X43948571Y53558096D01*
X43910476Y53177143D01*
X43948571Y53215239D01*
X44024761Y53253334D01*
X44215238Y53253334D01*
X44291428Y53215239D01*
X44329523Y53177143D01*
X44367619Y53100953D01*
X44367619Y52910477D01*
X44329523Y52834286D01*
X44291428Y52796191D01*
X44215238Y52758096D01*
X44024761Y52758096D01*
X43948571Y52796191D01*
X43910476Y52834286D01*
X45129523Y52758096D02*
X44672380Y52758096D01*
X44900952Y52758096D02*
X44900952Y53558096D01*
X44824761Y53443810D01*
X44748571Y53367620D01*
X44672380Y53329524D01*
G04 #@! TO.C,R80*
X26881904Y67005715D02*
X26500952Y66739048D01*
X26881904Y66548572D02*
X26081904Y66548572D01*
X26081904Y66853334D01*
X26120000Y66929524D01*
X26158095Y66967620D01*
X26234285Y67005715D01*
X26348571Y67005715D01*
X26424761Y66967620D01*
X26462857Y66929524D01*
X26500952Y66853334D01*
X26500952Y66548572D01*
X26424761Y67462858D02*
X26386666Y67386667D01*
X26348571Y67348572D01*
X26272380Y67310477D01*
X26234285Y67310477D01*
X26158095Y67348572D01*
X26120000Y67386667D01*
X26081904Y67462858D01*
X26081904Y67615239D01*
X26120000Y67691429D01*
X26158095Y67729524D01*
X26234285Y67767620D01*
X26272380Y67767620D01*
X26348571Y67729524D01*
X26386666Y67691429D01*
X26424761Y67615239D01*
X26424761Y67462858D01*
X26462857Y67386667D01*
X26500952Y67348572D01*
X26577142Y67310477D01*
X26729523Y67310477D01*
X26805714Y67348572D01*
X26843809Y67386667D01*
X26881904Y67462858D01*
X26881904Y67615239D01*
X26843809Y67691429D01*
X26805714Y67729524D01*
X26729523Y67767620D01*
X26577142Y67767620D01*
X26500952Y67729524D01*
X26462857Y67691429D01*
X26424761Y67615239D01*
X26081904Y68262858D02*
X26081904Y68339048D01*
X26120000Y68415239D01*
X26158095Y68453334D01*
X26234285Y68491429D01*
X26386666Y68529524D01*
X26577142Y68529524D01*
X26729523Y68491429D01*
X26805714Y68453334D01*
X26843809Y68415239D01*
X26881904Y68339048D01*
X26881904Y68262858D01*
X26843809Y68186667D01*
X26805714Y68148572D01*
X26729523Y68110477D01*
X26577142Y68072381D01*
X26386666Y68072381D01*
X26234285Y68110477D01*
X26158095Y68148572D01*
X26120000Y68186667D01*
X26081904Y68262858D01*
G04 #@! TO.C,R79*
X8681904Y67005715D02*
X8300952Y66739048D01*
X8681904Y66548572D02*
X7881904Y66548572D01*
X7881904Y66853334D01*
X7920000Y66929524D01*
X7958095Y66967620D01*
X8034285Y67005715D01*
X8148571Y67005715D01*
X8224761Y66967620D01*
X8262857Y66929524D01*
X8300952Y66853334D01*
X8300952Y66548572D01*
X7881904Y67272381D02*
X7881904Y67805715D01*
X8681904Y67462858D01*
X8681904Y68148572D02*
X8681904Y68300953D01*
X8643809Y68377143D01*
X8605714Y68415239D01*
X8491428Y68491429D01*
X8339047Y68529524D01*
X8034285Y68529524D01*
X7958095Y68491429D01*
X7920000Y68453334D01*
X7881904Y68377143D01*
X7881904Y68224762D01*
X7920000Y68148572D01*
X7958095Y68110477D01*
X8034285Y68072381D01*
X8224761Y68072381D01*
X8300952Y68110477D01*
X8339047Y68148572D01*
X8377142Y68224762D01*
X8377142Y68377143D01*
X8339047Y68453334D01*
X8300952Y68491429D01*
X8224761Y68529524D01*
G04 #@! TO.C,R78*
X24081904Y67005715D02*
X23700952Y66739048D01*
X24081904Y66548572D02*
X23281904Y66548572D01*
X23281904Y66853334D01*
X23320000Y66929524D01*
X23358095Y66967620D01*
X23434285Y67005715D01*
X23548571Y67005715D01*
X23624761Y66967620D01*
X23662857Y66929524D01*
X23700952Y66853334D01*
X23700952Y66548572D01*
X23281904Y67272381D02*
X23281904Y67805715D01*
X24081904Y67462858D01*
X23624761Y68224762D02*
X23586666Y68148572D01*
X23548571Y68110477D01*
X23472380Y68072381D01*
X23434285Y68072381D01*
X23358095Y68110477D01*
X23320000Y68148572D01*
X23281904Y68224762D01*
X23281904Y68377143D01*
X23320000Y68453334D01*
X23358095Y68491429D01*
X23434285Y68529524D01*
X23472380Y68529524D01*
X23548571Y68491429D01*
X23586666Y68453334D01*
X23624761Y68377143D01*
X23624761Y68224762D01*
X23662857Y68148572D01*
X23700952Y68110477D01*
X23777142Y68072381D01*
X23929523Y68072381D01*
X24005714Y68110477D01*
X24043809Y68148572D01*
X24081904Y68224762D01*
X24081904Y68377143D01*
X24043809Y68453334D01*
X24005714Y68491429D01*
X23929523Y68529524D01*
X23777142Y68529524D01*
X23700952Y68491429D01*
X23662857Y68453334D01*
X23624761Y68377143D01*
G04 #@! TO.C,R77*
X5881904Y67005715D02*
X5500952Y66739048D01*
X5881904Y66548572D02*
X5081904Y66548572D01*
X5081904Y66853334D01*
X5120000Y66929524D01*
X5158095Y66967620D01*
X5234285Y67005715D01*
X5348571Y67005715D01*
X5424761Y66967620D01*
X5462857Y66929524D01*
X5500952Y66853334D01*
X5500952Y66548572D01*
X5081904Y67272381D02*
X5081904Y67805715D01*
X5881904Y67462858D01*
X5081904Y68034286D02*
X5081904Y68567620D01*
X5881904Y68224762D01*
G04 #@! TO.C,R74*
X31361904Y61485715D02*
X30980952Y61219048D01*
X31361904Y61028572D02*
X30561904Y61028572D01*
X30561904Y61333334D01*
X30600000Y61409524D01*
X30638095Y61447620D01*
X30714285Y61485715D01*
X30828571Y61485715D01*
X30904761Y61447620D01*
X30942857Y61409524D01*
X30980952Y61333334D01*
X30980952Y61028572D01*
X30561904Y61752381D02*
X30561904Y62285715D01*
X31361904Y61942858D01*
X30828571Y62933334D02*
X31361904Y62933334D01*
X30523809Y62742858D02*
X31095238Y62552381D01*
X31095238Y63047620D01*
G04 #@! TO.C,R73*
X2681904Y57405715D02*
X2300952Y57139048D01*
X2681904Y56948572D02*
X1881904Y56948572D01*
X1881904Y57253334D01*
X1920000Y57329524D01*
X1958095Y57367620D01*
X2034285Y57405715D01*
X2148571Y57405715D01*
X2224761Y57367620D01*
X2262857Y57329524D01*
X2300952Y57253334D01*
X2300952Y56948572D01*
X1881904Y57672381D02*
X1881904Y58205715D01*
X2681904Y57862858D01*
X1881904Y58434286D02*
X1881904Y58929524D01*
X2186666Y58662858D01*
X2186666Y58777143D01*
X2224761Y58853334D01*
X2262857Y58891429D01*
X2339047Y58929524D01*
X2529523Y58929524D01*
X2605714Y58891429D01*
X2643809Y58853334D01*
X2681904Y58777143D01*
X2681904Y58548572D01*
X2643809Y58472381D01*
X2605714Y58434286D01*
G04 #@! TO.C,R22*
X-3318096Y60735715D02*
X-3699048Y60469048D01*
X-3318096Y60278572D02*
X-4118096Y60278572D01*
X-4118096Y60583334D01*
X-4080000Y60659524D01*
X-4041905Y60697620D01*
X-3965715Y60735715D01*
X-3851429Y60735715D01*
X-3775239Y60697620D01*
X-3737143Y60659524D01*
X-3699048Y60583334D01*
X-3699048Y60278572D01*
X-4041905Y61040477D02*
X-4080000Y61078572D01*
X-4118096Y61154762D01*
X-4118096Y61345239D01*
X-4080000Y61421429D01*
X-4041905Y61459524D01*
X-3965715Y61497620D01*
X-3889524Y61497620D01*
X-3775239Y61459524D01*
X-3318096Y61002381D01*
X-3318096Y61497620D01*
X-4041905Y61802381D02*
X-4080000Y61840477D01*
X-4118096Y61916667D01*
X-4118096Y62107143D01*
X-4080000Y62183334D01*
X-4041905Y62221429D01*
X-3965715Y62259524D01*
X-3889524Y62259524D01*
X-3775239Y62221429D01*
X-3318096Y61764286D01*
X-3318096Y62259524D01*
G04 #@! TO.C,R33*
X16961904Y75005715D02*
X16580952Y74739048D01*
X16961904Y74548572D02*
X16161904Y74548572D01*
X16161904Y74853334D01*
X16200000Y74929524D01*
X16238095Y74967620D01*
X16314285Y75005715D01*
X16428571Y75005715D01*
X16504761Y74967620D01*
X16542857Y74929524D01*
X16580952Y74853334D01*
X16580952Y74548572D01*
X16161904Y75272381D02*
X16161904Y75767620D01*
X16466666Y75500953D01*
X16466666Y75615239D01*
X16504761Y75691429D01*
X16542857Y75729524D01*
X16619047Y75767620D01*
X16809523Y75767620D01*
X16885714Y75729524D01*
X16923809Y75691429D01*
X16961904Y75615239D01*
X16961904Y75386667D01*
X16923809Y75310477D01*
X16885714Y75272381D01*
X16161904Y76034286D02*
X16161904Y76529524D01*
X16466666Y76262858D01*
X16466666Y76377143D01*
X16504761Y76453334D01*
X16542857Y76491429D01*
X16619047Y76529524D01*
X16809523Y76529524D01*
X16885714Y76491429D01*
X16923809Y76453334D01*
X16961904Y76377143D01*
X16961904Y76148572D01*
X16923809Y76072381D01*
X16885714Y76034286D01*
G04 #@! TO.C,R76*
X28985714Y54138096D02*
X28719047Y54519048D01*
X28528571Y54138096D02*
X28528571Y54938096D01*
X28833333Y54938096D01*
X28909523Y54900000D01*
X28947619Y54861905D01*
X28985714Y54785715D01*
X28985714Y54671429D01*
X28947619Y54595239D01*
X28909523Y54557143D01*
X28833333Y54519048D01*
X28528571Y54519048D01*
X29252380Y54938096D02*
X29785714Y54938096D01*
X29442857Y54138096D01*
X30433333Y54938096D02*
X30280952Y54938096D01*
X30204761Y54900000D01*
X30166666Y54861905D01*
X30090476Y54747620D01*
X30052380Y54595239D01*
X30052380Y54290477D01*
X30090476Y54214286D01*
X30128571Y54176191D01*
X30204761Y54138096D01*
X30357142Y54138096D01*
X30433333Y54176191D01*
X30471428Y54214286D01*
X30509523Y54290477D01*
X30509523Y54480953D01*
X30471428Y54557143D01*
X30433333Y54595239D01*
X30357142Y54633334D01*
X30204761Y54633334D01*
X30128571Y54595239D01*
X30090476Y54557143D01*
X30052380Y54480953D01*
G04 #@! TO.C,R17*
X22041904Y75005715D02*
X21660952Y74739048D01*
X22041904Y74548572D02*
X21241904Y74548572D01*
X21241904Y74853334D01*
X21280000Y74929524D01*
X21318095Y74967620D01*
X21394285Y75005715D01*
X21508571Y75005715D01*
X21584761Y74967620D01*
X21622857Y74929524D01*
X21660952Y74853334D01*
X21660952Y74548572D01*
X22041904Y75767620D02*
X22041904Y75310477D01*
X22041904Y75539048D02*
X21241904Y75539048D01*
X21356190Y75462858D01*
X21432380Y75386667D01*
X21470476Y75310477D01*
X21241904Y76034286D02*
X21241904Y76567620D01*
X22041904Y76224762D01*
G04 #@! TO.C,R1*
X1721904Y75386667D02*
X1340952Y75120000D01*
X1721904Y74929524D02*
X921904Y74929524D01*
X921904Y75234286D01*
X960000Y75310477D01*
X998095Y75348572D01*
X1074285Y75386667D01*
X1188571Y75386667D01*
X1264761Y75348572D01*
X1302857Y75310477D01*
X1340952Y75234286D01*
X1340952Y74929524D01*
X1721904Y76148572D02*
X1721904Y75691429D01*
X1721904Y75920000D02*
X921904Y75920000D01*
X1036190Y75843810D01*
X1112380Y75767620D01*
X1150476Y75691429D01*
G04 #@! TO.C,R66*
X43605714Y40158096D02*
X43339047Y40539048D01*
X43148571Y40158096D02*
X43148571Y40958096D01*
X43453333Y40958096D01*
X43529523Y40920000D01*
X43567619Y40881905D01*
X43605714Y40805715D01*
X43605714Y40691429D01*
X43567619Y40615239D01*
X43529523Y40577143D01*
X43453333Y40539048D01*
X43148571Y40539048D01*
X44291428Y40958096D02*
X44139047Y40958096D01*
X44062857Y40920000D01*
X44024761Y40881905D01*
X43948571Y40767620D01*
X43910476Y40615239D01*
X43910476Y40310477D01*
X43948571Y40234286D01*
X43986666Y40196191D01*
X44062857Y40158096D01*
X44215238Y40158096D01*
X44291428Y40196191D01*
X44329523Y40234286D01*
X44367619Y40310477D01*
X44367619Y40500953D01*
X44329523Y40577143D01*
X44291428Y40615239D01*
X44215238Y40653334D01*
X44062857Y40653334D01*
X43986666Y40615239D01*
X43948571Y40577143D01*
X43910476Y40500953D01*
X45053333Y40958096D02*
X44900952Y40958096D01*
X44824761Y40920000D01*
X44786666Y40881905D01*
X44710476Y40767620D01*
X44672380Y40615239D01*
X44672380Y40310477D01*
X44710476Y40234286D01*
X44748571Y40196191D01*
X44824761Y40158096D01*
X44977142Y40158096D01*
X45053333Y40196191D01*
X45091428Y40234286D01*
X45129523Y40310477D01*
X45129523Y40500953D01*
X45091428Y40577143D01*
X45053333Y40615239D01*
X44977142Y40653334D01*
X44824761Y40653334D01*
X44748571Y40615239D01*
X44710476Y40577143D01*
X44672380Y40500953D01*
G04 #@! TO.C,R65*
X43605714Y38958096D02*
X43339047Y39339048D01*
X43148571Y38958096D02*
X43148571Y39758096D01*
X43453333Y39758096D01*
X43529523Y39720000D01*
X43567619Y39681905D01*
X43605714Y39605715D01*
X43605714Y39491429D01*
X43567619Y39415239D01*
X43529523Y39377143D01*
X43453333Y39339048D01*
X43148571Y39339048D01*
X44291428Y39758096D02*
X44139047Y39758096D01*
X44062857Y39720000D01*
X44024761Y39681905D01*
X43948571Y39567620D01*
X43910476Y39415239D01*
X43910476Y39110477D01*
X43948571Y39034286D01*
X43986666Y38996191D01*
X44062857Y38958096D01*
X44215238Y38958096D01*
X44291428Y38996191D01*
X44329523Y39034286D01*
X44367619Y39110477D01*
X44367619Y39300953D01*
X44329523Y39377143D01*
X44291428Y39415239D01*
X44215238Y39453334D01*
X44062857Y39453334D01*
X43986666Y39415239D01*
X43948571Y39377143D01*
X43910476Y39300953D01*
X45091428Y39758096D02*
X44710476Y39758096D01*
X44672380Y39377143D01*
X44710476Y39415239D01*
X44786666Y39453334D01*
X44977142Y39453334D01*
X45053333Y39415239D01*
X45091428Y39377143D01*
X45129523Y39300953D01*
X45129523Y39110477D01*
X45091428Y39034286D01*
X45053333Y38996191D01*
X44977142Y38958096D01*
X44786666Y38958096D01*
X44710476Y38996191D01*
X44672380Y39034286D01*
G04 #@! TO.C,R64*
X43605714Y50358096D02*
X43339047Y50739048D01*
X43148571Y50358096D02*
X43148571Y51158096D01*
X43453333Y51158096D01*
X43529523Y51120000D01*
X43567619Y51081905D01*
X43605714Y51005715D01*
X43605714Y50891429D01*
X43567619Y50815239D01*
X43529523Y50777143D01*
X43453333Y50739048D01*
X43148571Y50739048D01*
X44291428Y51158096D02*
X44139047Y51158096D01*
X44062857Y51120000D01*
X44024761Y51081905D01*
X43948571Y50967620D01*
X43910476Y50815239D01*
X43910476Y50510477D01*
X43948571Y50434286D01*
X43986666Y50396191D01*
X44062857Y50358096D01*
X44215238Y50358096D01*
X44291428Y50396191D01*
X44329523Y50434286D01*
X44367619Y50510477D01*
X44367619Y50700953D01*
X44329523Y50777143D01*
X44291428Y50815239D01*
X44215238Y50853334D01*
X44062857Y50853334D01*
X43986666Y50815239D01*
X43948571Y50777143D01*
X43910476Y50700953D01*
X45053333Y50891429D02*
X45053333Y50358096D01*
X44862857Y51196191D02*
X44672380Y50624762D01*
X45167619Y50624762D01*
G04 #@! TO.C,R63*
X43605714Y49158096D02*
X43339047Y49539048D01*
X43148571Y49158096D02*
X43148571Y49958096D01*
X43453333Y49958096D01*
X43529523Y49920000D01*
X43567619Y49881905D01*
X43605714Y49805715D01*
X43605714Y49691429D01*
X43567619Y49615239D01*
X43529523Y49577143D01*
X43453333Y49539048D01*
X43148571Y49539048D01*
X44291428Y49958096D02*
X44139047Y49958096D01*
X44062857Y49920000D01*
X44024761Y49881905D01*
X43948571Y49767620D01*
X43910476Y49615239D01*
X43910476Y49310477D01*
X43948571Y49234286D01*
X43986666Y49196191D01*
X44062857Y49158096D01*
X44215238Y49158096D01*
X44291428Y49196191D01*
X44329523Y49234286D01*
X44367619Y49310477D01*
X44367619Y49500953D01*
X44329523Y49577143D01*
X44291428Y49615239D01*
X44215238Y49653334D01*
X44062857Y49653334D01*
X43986666Y49615239D01*
X43948571Y49577143D01*
X43910476Y49500953D01*
X44634285Y49958096D02*
X45129523Y49958096D01*
X44862857Y49653334D01*
X44977142Y49653334D01*
X45053333Y49615239D01*
X45091428Y49577143D01*
X45129523Y49500953D01*
X45129523Y49310477D01*
X45091428Y49234286D01*
X45053333Y49196191D01*
X44977142Y49158096D01*
X44748571Y49158096D01*
X44672380Y49196191D01*
X44634285Y49234286D01*
G04 #@! TO.C,R61*
X43605714Y51558096D02*
X43339047Y51939048D01*
X43148571Y51558096D02*
X43148571Y52358096D01*
X43453333Y52358096D01*
X43529523Y52320000D01*
X43567619Y52281905D01*
X43605714Y52205715D01*
X43605714Y52091429D01*
X43567619Y52015239D01*
X43529523Y51977143D01*
X43453333Y51939048D01*
X43148571Y51939048D01*
X44291428Y52358096D02*
X44139047Y52358096D01*
X44062857Y52320000D01*
X44024761Y52281905D01*
X43948571Y52167620D01*
X43910476Y52015239D01*
X43910476Y51710477D01*
X43948571Y51634286D01*
X43986666Y51596191D01*
X44062857Y51558096D01*
X44215238Y51558096D01*
X44291428Y51596191D01*
X44329523Y51634286D01*
X44367619Y51710477D01*
X44367619Y51900953D01*
X44329523Y51977143D01*
X44291428Y52015239D01*
X44215238Y52053334D01*
X44062857Y52053334D01*
X43986666Y52015239D01*
X43948571Y51977143D01*
X43910476Y51900953D01*
X45129523Y51558096D02*
X44672380Y51558096D01*
X44900952Y51558096D02*
X44900952Y52358096D01*
X44824761Y52243810D01*
X44748571Y52167620D01*
X44672380Y52129524D01*
G04 #@! TO.C,R59*
X38985714Y52638096D02*
X38719047Y53019048D01*
X38528571Y52638096D02*
X38528571Y53438096D01*
X38833333Y53438096D01*
X38909523Y53400000D01*
X38947619Y53361905D01*
X38985714Y53285715D01*
X38985714Y53171429D01*
X38947619Y53095239D01*
X38909523Y53057143D01*
X38833333Y53019048D01*
X38528571Y53019048D01*
X39709523Y53438096D02*
X39328571Y53438096D01*
X39290476Y53057143D01*
X39328571Y53095239D01*
X39404761Y53133334D01*
X39595238Y53133334D01*
X39671428Y53095239D01*
X39709523Y53057143D01*
X39747619Y52980953D01*
X39747619Y52790477D01*
X39709523Y52714286D01*
X39671428Y52676191D01*
X39595238Y52638096D01*
X39404761Y52638096D01*
X39328571Y52676191D01*
X39290476Y52714286D01*
X40128571Y52638096D02*
X40280952Y52638096D01*
X40357142Y52676191D01*
X40395238Y52714286D01*
X40471428Y52828572D01*
X40509523Y52980953D01*
X40509523Y53285715D01*
X40471428Y53361905D01*
X40433333Y53400000D01*
X40357142Y53438096D01*
X40204761Y53438096D01*
X40128571Y53400000D01*
X40090476Y53361905D01*
X40052380Y53285715D01*
X40052380Y53095239D01*
X40090476Y53019048D01*
X40128571Y52980953D01*
X40204761Y52942858D01*
X40357142Y52942858D01*
X40433333Y52980953D01*
X40471428Y53019048D01*
X40509523Y53095239D01*
G04 #@! TO.C,R56*
X38985714Y41638096D02*
X38719047Y42019048D01*
X38528571Y41638096D02*
X38528571Y42438096D01*
X38833333Y42438096D01*
X38909523Y42400000D01*
X38947619Y42361905D01*
X38985714Y42285715D01*
X38985714Y42171429D01*
X38947619Y42095239D01*
X38909523Y42057143D01*
X38833333Y42019048D01*
X38528571Y42019048D01*
X39709523Y42438096D02*
X39328571Y42438096D01*
X39290476Y42057143D01*
X39328571Y42095239D01*
X39404761Y42133334D01*
X39595238Y42133334D01*
X39671428Y42095239D01*
X39709523Y42057143D01*
X39747619Y41980953D01*
X39747619Y41790477D01*
X39709523Y41714286D01*
X39671428Y41676191D01*
X39595238Y41638096D01*
X39404761Y41638096D01*
X39328571Y41676191D01*
X39290476Y41714286D01*
X40433333Y42438096D02*
X40280952Y42438096D01*
X40204761Y42400000D01*
X40166666Y42361905D01*
X40090476Y42247620D01*
X40052380Y42095239D01*
X40052380Y41790477D01*
X40090476Y41714286D01*
X40128571Y41676191D01*
X40204761Y41638096D01*
X40357142Y41638096D01*
X40433333Y41676191D01*
X40471428Y41714286D01*
X40509523Y41790477D01*
X40509523Y41980953D01*
X40471428Y42057143D01*
X40433333Y42095239D01*
X40357142Y42133334D01*
X40204761Y42133334D01*
X40128571Y42095239D01*
X40090476Y42057143D01*
X40052380Y41980953D01*
G04 #@! TO.C,R55*
X38985714Y40388096D02*
X38719047Y40769048D01*
X38528571Y40388096D02*
X38528571Y41188096D01*
X38833333Y41188096D01*
X38909523Y41150000D01*
X38947619Y41111905D01*
X38985714Y41035715D01*
X38985714Y40921429D01*
X38947619Y40845239D01*
X38909523Y40807143D01*
X38833333Y40769048D01*
X38528571Y40769048D01*
X39709523Y41188096D02*
X39328571Y41188096D01*
X39290476Y40807143D01*
X39328571Y40845239D01*
X39404761Y40883334D01*
X39595238Y40883334D01*
X39671428Y40845239D01*
X39709523Y40807143D01*
X39747619Y40730953D01*
X39747619Y40540477D01*
X39709523Y40464286D01*
X39671428Y40426191D01*
X39595238Y40388096D01*
X39404761Y40388096D01*
X39328571Y40426191D01*
X39290476Y40464286D01*
X40471428Y41188096D02*
X40090476Y41188096D01*
X40052380Y40807143D01*
X40090476Y40845239D01*
X40166666Y40883334D01*
X40357142Y40883334D01*
X40433333Y40845239D01*
X40471428Y40807143D01*
X40509523Y40730953D01*
X40509523Y40540477D01*
X40471428Y40464286D01*
X40433333Y40426191D01*
X40357142Y40388096D01*
X40166666Y40388096D01*
X40090476Y40426191D01*
X40052380Y40464286D01*
G04 #@! TO.C,R54*
X38985714Y39138096D02*
X38719047Y39519048D01*
X38528571Y39138096D02*
X38528571Y39938096D01*
X38833333Y39938096D01*
X38909523Y39900000D01*
X38947619Y39861905D01*
X38985714Y39785715D01*
X38985714Y39671429D01*
X38947619Y39595239D01*
X38909523Y39557143D01*
X38833333Y39519048D01*
X38528571Y39519048D01*
X39709523Y39938096D02*
X39328571Y39938096D01*
X39290476Y39557143D01*
X39328571Y39595239D01*
X39404761Y39633334D01*
X39595238Y39633334D01*
X39671428Y39595239D01*
X39709523Y39557143D01*
X39747619Y39480953D01*
X39747619Y39290477D01*
X39709523Y39214286D01*
X39671428Y39176191D01*
X39595238Y39138096D01*
X39404761Y39138096D01*
X39328571Y39176191D01*
X39290476Y39214286D01*
X40433333Y39671429D02*
X40433333Y39138096D01*
X40242857Y39976191D02*
X40052380Y39404762D01*
X40547619Y39404762D01*
G04 #@! TO.C,R52*
X38985714Y51388096D02*
X38719047Y51769048D01*
X38528571Y51388096D02*
X38528571Y52188096D01*
X38833333Y52188096D01*
X38909523Y52150000D01*
X38947619Y52111905D01*
X38985714Y52035715D01*
X38985714Y51921429D01*
X38947619Y51845239D01*
X38909523Y51807143D01*
X38833333Y51769048D01*
X38528571Y51769048D01*
X39709523Y52188096D02*
X39328571Y52188096D01*
X39290476Y51807143D01*
X39328571Y51845239D01*
X39404761Y51883334D01*
X39595238Y51883334D01*
X39671428Y51845239D01*
X39709523Y51807143D01*
X39747619Y51730953D01*
X39747619Y51540477D01*
X39709523Y51464286D01*
X39671428Y51426191D01*
X39595238Y51388096D01*
X39404761Y51388096D01*
X39328571Y51426191D01*
X39290476Y51464286D01*
X40052380Y52111905D02*
X40090476Y52150000D01*
X40166666Y52188096D01*
X40357142Y52188096D01*
X40433333Y52150000D01*
X40471428Y52111905D01*
X40509523Y52035715D01*
X40509523Y51959524D01*
X40471428Y51845239D01*
X40014285Y51388096D01*
X40509523Y51388096D01*
G04 #@! TO.C,R51*
X38985714Y50138096D02*
X38719047Y50519048D01*
X38528571Y50138096D02*
X38528571Y50938096D01*
X38833333Y50938096D01*
X38909523Y50900000D01*
X38947619Y50861905D01*
X38985714Y50785715D01*
X38985714Y50671429D01*
X38947619Y50595239D01*
X38909523Y50557143D01*
X38833333Y50519048D01*
X38528571Y50519048D01*
X39709523Y50938096D02*
X39328571Y50938096D01*
X39290476Y50557143D01*
X39328571Y50595239D01*
X39404761Y50633334D01*
X39595238Y50633334D01*
X39671428Y50595239D01*
X39709523Y50557143D01*
X39747619Y50480953D01*
X39747619Y50290477D01*
X39709523Y50214286D01*
X39671428Y50176191D01*
X39595238Y50138096D01*
X39404761Y50138096D01*
X39328571Y50176191D01*
X39290476Y50214286D01*
X40509523Y50138096D02*
X40052380Y50138096D01*
X40280952Y50138096D02*
X40280952Y50938096D01*
X40204761Y50823810D01*
X40128571Y50747620D01*
X40052380Y50709524D01*
G04 #@! TO.C,R50*
X38985714Y48888096D02*
X38719047Y49269048D01*
X38528571Y48888096D02*
X38528571Y49688096D01*
X38833333Y49688096D01*
X38909523Y49650000D01*
X38947619Y49611905D01*
X38985714Y49535715D01*
X38985714Y49421429D01*
X38947619Y49345239D01*
X38909523Y49307143D01*
X38833333Y49269048D01*
X38528571Y49269048D01*
X39709523Y49688096D02*
X39328571Y49688096D01*
X39290476Y49307143D01*
X39328571Y49345239D01*
X39404761Y49383334D01*
X39595238Y49383334D01*
X39671428Y49345239D01*
X39709523Y49307143D01*
X39747619Y49230953D01*
X39747619Y49040477D01*
X39709523Y48964286D01*
X39671428Y48926191D01*
X39595238Y48888096D01*
X39404761Y48888096D01*
X39328571Y48926191D01*
X39290476Y48964286D01*
X40242857Y49688096D02*
X40319047Y49688096D01*
X40395238Y49650000D01*
X40433333Y49611905D01*
X40471428Y49535715D01*
X40509523Y49383334D01*
X40509523Y49192858D01*
X40471428Y49040477D01*
X40433333Y48964286D01*
X40395238Y48926191D01*
X40319047Y48888096D01*
X40242857Y48888096D01*
X40166666Y48926191D01*
X40128571Y48964286D01*
X40090476Y49040477D01*
X40052380Y49192858D01*
X40052380Y49383334D01*
X40090476Y49535715D01*
X40128571Y49611905D01*
X40166666Y49650000D01*
X40242857Y49688096D01*
G04 #@! TO.C,R14*
X-3358096Y75005715D02*
X-3739048Y74739048D01*
X-3358096Y74548572D02*
X-4158096Y74548572D01*
X-4158096Y74853334D01*
X-4120000Y74929524D01*
X-4081905Y74967620D01*
X-4005715Y75005715D01*
X-3891429Y75005715D01*
X-3815239Y74967620D01*
X-3777143Y74929524D01*
X-3739048Y74853334D01*
X-3739048Y74548572D01*
X-3358096Y75767620D02*
X-3358096Y75310477D01*
X-3358096Y75539048D02*
X-4158096Y75539048D01*
X-4043810Y75462858D01*
X-3967620Y75386667D01*
X-3929524Y75310477D01*
X-3891429Y76453334D02*
X-3358096Y76453334D01*
X-4196191Y76262858D02*
X-3624762Y76072381D01*
X-3624762Y76567620D01*
G04 #@! TO.C,R19*
X32021904Y75005715D02*
X31640952Y74739048D01*
X32021904Y74548572D02*
X31221904Y74548572D01*
X31221904Y74853334D01*
X31260000Y74929524D01*
X31298095Y74967620D01*
X31374285Y75005715D01*
X31488571Y75005715D01*
X31564761Y74967620D01*
X31602857Y74929524D01*
X31640952Y74853334D01*
X31640952Y74548572D01*
X32021904Y75767620D02*
X32021904Y75310477D01*
X32021904Y75539048D02*
X31221904Y75539048D01*
X31336190Y75462858D01*
X31412380Y75386667D01*
X31450476Y75310477D01*
X32021904Y76148572D02*
X32021904Y76300953D01*
X31983809Y76377143D01*
X31945714Y76415239D01*
X31831428Y76491429D01*
X31679047Y76529524D01*
X31374285Y76529524D01*
X31298095Y76491429D01*
X31260000Y76453334D01*
X31221904Y76377143D01*
X31221904Y76224762D01*
X31260000Y76148572D01*
X31298095Y76110477D01*
X31374285Y76072381D01*
X31564761Y76072381D01*
X31640952Y76110477D01*
X31679047Y76148572D01*
X31717142Y76224762D01*
X31717142Y76377143D01*
X31679047Y76453334D01*
X31640952Y76491429D01*
X31564761Y76529524D01*
G04 #@! TO.C,FB1*
X28253333Y42977143D02*
X27986666Y42977143D01*
X27986666Y42558096D02*
X27986666Y43358096D01*
X28367619Y43358096D01*
X28939047Y42977143D02*
X29053333Y42939048D01*
X29091428Y42900953D01*
X29129523Y42824762D01*
X29129523Y42710477D01*
X29091428Y42634286D01*
X29053333Y42596191D01*
X28977142Y42558096D01*
X28672380Y42558096D01*
X28672380Y43358096D01*
X28939047Y43358096D01*
X29015238Y43320000D01*
X29053333Y43281905D01*
X29091428Y43205715D01*
X29091428Y43129524D01*
X29053333Y43053334D01*
X29015238Y43015239D01*
X28939047Y42977143D01*
X28672380Y42977143D01*
X29891428Y42558096D02*
X29434285Y42558096D01*
X29662857Y42558096D02*
X29662857Y43358096D01*
X29586666Y43243810D01*
X29510476Y43167620D01*
X29434285Y43129524D01*
G04 #@! TO.C,C73*
X28225714Y67005715D02*
X28263809Y66967620D01*
X28301904Y66853334D01*
X28301904Y66777143D01*
X28263809Y66662858D01*
X28187619Y66586667D01*
X28111428Y66548572D01*
X27959047Y66510477D01*
X27844761Y66510477D01*
X27692380Y66548572D01*
X27616190Y66586667D01*
X27540000Y66662858D01*
X27501904Y66777143D01*
X27501904Y66853334D01*
X27540000Y66967620D01*
X27578095Y67005715D01*
X27501904Y67272381D02*
X27501904Y67805715D01*
X28301904Y67462858D01*
X27501904Y68034286D02*
X27501904Y68529524D01*
X27806666Y68262858D01*
X27806666Y68377143D01*
X27844761Y68453334D01*
X27882857Y68491429D01*
X27959047Y68529524D01*
X28149523Y68529524D01*
X28225714Y68491429D01*
X28263809Y68453334D01*
X28301904Y68377143D01*
X28301904Y68148572D01*
X28263809Y68072381D01*
X28225714Y68034286D01*
G04 #@! TO.C,C72*
X10005714Y67005715D02*
X10043809Y66967620D01*
X10081904Y66853334D01*
X10081904Y66777143D01*
X10043809Y66662858D01*
X9967619Y66586667D01*
X9891428Y66548572D01*
X9739047Y66510477D01*
X9624761Y66510477D01*
X9472380Y66548572D01*
X9396190Y66586667D01*
X9320000Y66662858D01*
X9281904Y66777143D01*
X9281904Y66853334D01*
X9320000Y66967620D01*
X9358095Y67005715D01*
X9281904Y67272381D02*
X9281904Y67805715D01*
X10081904Y67462858D01*
X9358095Y68072381D02*
X9320000Y68110477D01*
X9281904Y68186667D01*
X9281904Y68377143D01*
X9320000Y68453334D01*
X9358095Y68491429D01*
X9434285Y68529524D01*
X9510476Y68529524D01*
X9624761Y68491429D01*
X10081904Y68034286D01*
X10081904Y68529524D01*
G04 #@! TO.C,C69*
X22605714Y67005715D02*
X22643809Y66967620D01*
X22681904Y66853334D01*
X22681904Y66777143D01*
X22643809Y66662858D01*
X22567619Y66586667D01*
X22491428Y66548572D01*
X22339047Y66510477D01*
X22224761Y66510477D01*
X22072380Y66548572D01*
X21996190Y66586667D01*
X21920000Y66662858D01*
X21881904Y66777143D01*
X21881904Y66853334D01*
X21920000Y66967620D01*
X21958095Y67005715D01*
X21881904Y67691429D02*
X21881904Y67539048D01*
X21920000Y67462858D01*
X21958095Y67424762D01*
X22072380Y67348572D01*
X22224761Y67310477D01*
X22529523Y67310477D01*
X22605714Y67348572D01*
X22643809Y67386667D01*
X22681904Y67462858D01*
X22681904Y67615239D01*
X22643809Y67691429D01*
X22605714Y67729524D01*
X22529523Y67767620D01*
X22339047Y67767620D01*
X22262857Y67729524D01*
X22224761Y67691429D01*
X22186666Y67615239D01*
X22186666Y67462858D01*
X22224761Y67386667D01*
X22262857Y67348572D01*
X22339047Y67310477D01*
X22681904Y68148572D02*
X22681904Y68300953D01*
X22643809Y68377143D01*
X22605714Y68415239D01*
X22491428Y68491429D01*
X22339047Y68529524D01*
X22034285Y68529524D01*
X21958095Y68491429D01*
X21920000Y68453334D01*
X21881904Y68377143D01*
X21881904Y68224762D01*
X21920000Y68148572D01*
X21958095Y68110477D01*
X22034285Y68072381D01*
X22224761Y68072381D01*
X22300952Y68110477D01*
X22339047Y68148572D01*
X22377142Y68224762D01*
X22377142Y68377143D01*
X22339047Y68453334D01*
X22300952Y68491429D01*
X22224761Y68529524D01*
G04 #@! TO.C,C65*
X25405714Y67005715D02*
X25443809Y66967620D01*
X25481904Y66853334D01*
X25481904Y66777143D01*
X25443809Y66662858D01*
X25367619Y66586667D01*
X25291428Y66548572D01*
X25139047Y66510477D01*
X25024761Y66510477D01*
X24872380Y66548572D01*
X24796190Y66586667D01*
X24720000Y66662858D01*
X24681904Y66777143D01*
X24681904Y66853334D01*
X24720000Y66967620D01*
X24758095Y67005715D01*
X24681904Y67691429D02*
X24681904Y67539048D01*
X24720000Y67462858D01*
X24758095Y67424762D01*
X24872380Y67348572D01*
X25024761Y67310477D01*
X25329523Y67310477D01*
X25405714Y67348572D01*
X25443809Y67386667D01*
X25481904Y67462858D01*
X25481904Y67615239D01*
X25443809Y67691429D01*
X25405714Y67729524D01*
X25329523Y67767620D01*
X25139047Y67767620D01*
X25062857Y67729524D01*
X25024761Y67691429D01*
X24986666Y67615239D01*
X24986666Y67462858D01*
X25024761Y67386667D01*
X25062857Y67348572D01*
X25139047Y67310477D01*
X24681904Y68491429D02*
X24681904Y68110477D01*
X25062857Y68072381D01*
X25024761Y68110477D01*
X24986666Y68186667D01*
X24986666Y68377143D01*
X25024761Y68453334D01*
X25062857Y68491429D01*
X25139047Y68529524D01*
X25329523Y68529524D01*
X25405714Y68491429D01*
X25443809Y68453334D01*
X25481904Y68377143D01*
X25481904Y68186667D01*
X25443809Y68110477D01*
X25405714Y68072381D01*
G04 #@! TO.C,C58*
X4205714Y57405715D02*
X4243809Y57367620D01*
X4281904Y57253334D01*
X4281904Y57177143D01*
X4243809Y57062858D01*
X4167619Y56986667D01*
X4091428Y56948572D01*
X3939047Y56910477D01*
X3824761Y56910477D01*
X3672380Y56948572D01*
X3596190Y56986667D01*
X3520000Y57062858D01*
X3481904Y57177143D01*
X3481904Y57253334D01*
X3520000Y57367620D01*
X3558095Y57405715D01*
X3481904Y58129524D02*
X3481904Y57748572D01*
X3862857Y57710477D01*
X3824761Y57748572D01*
X3786666Y57824762D01*
X3786666Y58015239D01*
X3824761Y58091429D01*
X3862857Y58129524D01*
X3939047Y58167620D01*
X4129523Y58167620D01*
X4205714Y58129524D01*
X4243809Y58091429D01*
X4281904Y58015239D01*
X4281904Y57824762D01*
X4243809Y57748572D01*
X4205714Y57710477D01*
X3824761Y58624762D02*
X3786666Y58548572D01*
X3748571Y58510477D01*
X3672380Y58472381D01*
X3634285Y58472381D01*
X3558095Y58510477D01*
X3520000Y58548572D01*
X3481904Y58624762D01*
X3481904Y58777143D01*
X3520000Y58853334D01*
X3558095Y58891429D01*
X3634285Y58929524D01*
X3672380Y58929524D01*
X3748571Y58891429D01*
X3786666Y58853334D01*
X3824761Y58777143D01*
X3824761Y58624762D01*
X3862857Y58548572D01*
X3900952Y58510477D01*
X3977142Y58472381D01*
X4129523Y58472381D01*
X4205714Y58510477D01*
X4243809Y58548572D01*
X4281904Y58624762D01*
X4281904Y58777143D01*
X4243809Y58853334D01*
X4205714Y58891429D01*
X4129523Y58929524D01*
X3977142Y58929524D01*
X3900952Y58891429D01*
X3862857Y58853334D01*
X3824761Y58777143D01*
G04 #@! TO.C,C47*
X17325714Y70434286D02*
X17287619Y70396191D01*
X17173333Y70358096D01*
X17097142Y70358096D01*
X16982857Y70396191D01*
X16906666Y70472381D01*
X16868571Y70548572D01*
X16830476Y70700953D01*
X16830476Y70815239D01*
X16868571Y70967620D01*
X16906666Y71043810D01*
X16982857Y71120000D01*
X17097142Y71158096D01*
X17173333Y71158096D01*
X17287619Y71120000D01*
X17325714Y71081905D01*
X18011428Y70891429D02*
X18011428Y70358096D01*
X17820952Y71196191D02*
X17630476Y70624762D01*
X18125714Y70624762D01*
X18354285Y71158096D02*
X18887619Y71158096D01*
X18544761Y70358096D01*
G04 #@! TO.C,C24*
X-3004286Y70453286D02*
X-3042381Y70415191D01*
X-3156667Y70377096D01*
X-3232858Y70377096D01*
X-3347143Y70415191D01*
X-3423334Y70491381D01*
X-3461429Y70567572D01*
X-3499524Y70719953D01*
X-3499524Y70834239D01*
X-3461429Y70986620D01*
X-3423334Y71062810D01*
X-3347143Y71139000D01*
X-3232858Y71177096D01*
X-3156667Y71177096D01*
X-3042381Y71139000D01*
X-3004286Y71100905D01*
X-2699524Y71100905D02*
X-2661429Y71139000D01*
X-2585239Y71177096D01*
X-2394762Y71177096D01*
X-2318572Y71139000D01*
X-2280477Y71100905D01*
X-2242381Y71024715D01*
X-2242381Y70948524D01*
X-2280477Y70834239D01*
X-2737620Y70377096D01*
X-2242381Y70377096D01*
X-1556667Y70910429D02*
X-1556667Y70377096D01*
X-1747143Y71215191D02*
X-1937620Y70643762D01*
X-1442381Y70643762D01*
G04 #@! TO.C,C29*
X27485714Y70434286D02*
X27447619Y70396191D01*
X27333333Y70358096D01*
X27257142Y70358096D01*
X27142857Y70396191D01*
X27066666Y70472381D01*
X27028571Y70548572D01*
X26990476Y70700953D01*
X26990476Y70815239D01*
X27028571Y70967620D01*
X27066666Y71043810D01*
X27142857Y71120000D01*
X27257142Y71158096D01*
X27333333Y71158096D01*
X27447619Y71120000D01*
X27485714Y71081905D01*
X27790476Y71081905D02*
X27828571Y71120000D01*
X27904761Y71158096D01*
X28095238Y71158096D01*
X28171428Y71120000D01*
X28209523Y71081905D01*
X28247619Y71005715D01*
X28247619Y70929524D01*
X28209523Y70815239D01*
X27752380Y70358096D01*
X28247619Y70358096D01*
X28628571Y70358096D02*
X28780952Y70358096D01*
X28857142Y70396191D01*
X28895238Y70434286D01*
X28971428Y70548572D01*
X29009523Y70700953D01*
X29009523Y71005715D01*
X28971428Y71081905D01*
X28933333Y71120000D01*
X28857142Y71158096D01*
X28704761Y71158096D01*
X28628571Y71120000D01*
X28590476Y71081905D01*
X28552380Y71005715D01*
X28552380Y70815239D01*
X28590476Y70739048D01*
X28628571Y70700953D01*
X28704761Y70662858D01*
X28857142Y70662858D01*
X28933333Y70700953D01*
X28971428Y70739048D01*
X29009523Y70815239D01*
G04 #@! TO.C,C14*
X11405714Y41434286D02*
X11367619Y41396191D01*
X11253333Y41358096D01*
X11177142Y41358096D01*
X11062857Y41396191D01*
X10986666Y41472381D01*
X10948571Y41548572D01*
X10910476Y41700953D01*
X10910476Y41815239D01*
X10948571Y41967620D01*
X10986666Y42043810D01*
X11062857Y42120000D01*
X11177142Y42158096D01*
X11253333Y42158096D01*
X11367619Y42120000D01*
X11405714Y42081905D01*
X12167619Y41358096D02*
X11710476Y41358096D01*
X11939047Y41358096D02*
X11939047Y42158096D01*
X11862857Y42043810D01*
X11786666Y41967620D01*
X11710476Y41929524D01*
X12853333Y41891429D02*
X12853333Y41358096D01*
X12662857Y42196191D02*
X12472380Y41624762D01*
X12967619Y41624762D01*
G04 #@! TO.C,C11*
X29825714Y52145715D02*
X29863809Y52107620D01*
X29901904Y51993334D01*
X29901904Y51917143D01*
X29863809Y51802858D01*
X29787619Y51726667D01*
X29711428Y51688572D01*
X29559047Y51650477D01*
X29444761Y51650477D01*
X29292380Y51688572D01*
X29216190Y51726667D01*
X29140000Y51802858D01*
X29101904Y51917143D01*
X29101904Y51993334D01*
X29140000Y52107620D01*
X29178095Y52145715D01*
X29901904Y52907620D02*
X29901904Y52450477D01*
X29901904Y52679048D02*
X29101904Y52679048D01*
X29216190Y52602858D01*
X29292380Y52526667D01*
X29330476Y52450477D01*
X29901904Y53669524D02*
X29901904Y53212381D01*
X29901904Y53440953D02*
X29101904Y53440953D01*
X29216190Y53364762D01*
X29292380Y53288572D01*
X29330476Y53212381D01*
G04 #@! TO.C,C9*
X29234285Y62793334D02*
X29196190Y62831429D01*
X29158095Y62945715D01*
X29158095Y63021905D01*
X29196190Y63136191D01*
X29272380Y63212381D01*
X29348571Y63250477D01*
X29500952Y63288572D01*
X29615238Y63288572D01*
X29767619Y63250477D01*
X29843809Y63212381D01*
X29920000Y63136191D01*
X29958095Y63021905D01*
X29958095Y62945715D01*
X29920000Y62831429D01*
X29881904Y62793334D01*
X29158095Y62412381D02*
X29158095Y62260000D01*
X29196190Y62183810D01*
X29234285Y62145715D01*
X29348571Y62069524D01*
X29500952Y62031429D01*
X29805714Y62031429D01*
X29881904Y62069524D01*
X29920000Y62107620D01*
X29958095Y62183810D01*
X29958095Y62336191D01*
X29920000Y62412381D01*
X29881904Y62450477D01*
X29805714Y62488572D01*
X29615238Y62488572D01*
X29539047Y62450477D01*
X29500952Y62412381D01*
X29462857Y62336191D01*
X29462857Y62183810D01*
X29500952Y62107620D01*
X29539047Y62069524D01*
X29615238Y62031429D01*
G04 #@! TO.C,AS8*
X23177619Y75558667D02*
X23558571Y75558667D01*
X23101428Y75330096D02*
X23368095Y76130096D01*
X23634761Y75330096D01*
X23863333Y75368191D02*
X23977619Y75330096D01*
X24168095Y75330096D01*
X24244285Y75368191D01*
X24282380Y75406286D01*
X24320476Y75482477D01*
X24320476Y75558667D01*
X24282380Y75634858D01*
X24244285Y75672953D01*
X24168095Y75711048D01*
X24015714Y75749143D01*
X23939523Y75787239D01*
X23901428Y75825334D01*
X23863333Y75901524D01*
X23863333Y75977715D01*
X23901428Y76053905D01*
X23939523Y76092000D01*
X24015714Y76130096D01*
X24206190Y76130096D01*
X24320476Y76092000D01*
X24777619Y75787239D02*
X24701428Y75825334D01*
X24663333Y75863429D01*
X24625238Y75939620D01*
X24625238Y75977715D01*
X24663333Y76053905D01*
X24701428Y76092000D01*
X24777619Y76130096D01*
X24930000Y76130096D01*
X25006190Y76092000D01*
X25044285Y76053905D01*
X25082380Y75977715D01*
X25082380Y75939620D01*
X25044285Y75863429D01*
X25006190Y75825334D01*
X24930000Y75787239D01*
X24777619Y75787239D01*
X24701428Y75749143D01*
X24663333Y75711048D01*
X24625238Y75634858D01*
X24625238Y75482477D01*
X24663333Y75406286D01*
X24701428Y75368191D01*
X24777619Y75330096D01*
X24930000Y75330096D01*
X25006190Y75368191D01*
X25044285Y75406286D01*
X25082380Y75482477D01*
X25082380Y75634858D01*
X25044285Y75711048D01*
X25006190Y75749143D01*
X24930000Y75787239D01*
G04 #@! TO.C,AS1*
X2857619Y75586667D02*
X3238571Y75586667D01*
X2781428Y75358096D02*
X3048095Y76158096D01*
X3314761Y75358096D01*
X3543333Y75396191D02*
X3657619Y75358096D01*
X3848095Y75358096D01*
X3924285Y75396191D01*
X3962380Y75434286D01*
X4000476Y75510477D01*
X4000476Y75586667D01*
X3962380Y75662858D01*
X3924285Y75700953D01*
X3848095Y75739048D01*
X3695714Y75777143D01*
X3619523Y75815239D01*
X3581428Y75853334D01*
X3543333Y75929524D01*
X3543333Y76005715D01*
X3581428Y76081905D01*
X3619523Y76120000D01*
X3695714Y76158096D01*
X3886190Y76158096D01*
X4000476Y76120000D01*
X4762380Y75358096D02*
X4305238Y75358096D01*
X4533809Y75358096D02*
X4533809Y76158096D01*
X4457619Y76043810D01*
X4381428Y75967620D01*
X4305238Y75929524D01*
G04 #@! TO.C,AS14*
X12636666Y75536667D02*
X13017619Y75536667D01*
X12560476Y75308096D02*
X12827142Y76108096D01*
X13093809Y75308096D01*
X13322380Y75346191D02*
X13436666Y75308096D01*
X13627142Y75308096D01*
X13703333Y75346191D01*
X13741428Y75384286D01*
X13779523Y75460477D01*
X13779523Y75536667D01*
X13741428Y75612858D01*
X13703333Y75650953D01*
X13627142Y75689048D01*
X13474761Y75727143D01*
X13398571Y75765239D01*
X13360476Y75803334D01*
X13322380Y75879524D01*
X13322380Y75955715D01*
X13360476Y76031905D01*
X13398571Y76070000D01*
X13474761Y76108096D01*
X13665238Y76108096D01*
X13779523Y76070000D01*
X14541428Y75308096D02*
X14084285Y75308096D01*
X14312857Y75308096D02*
X14312857Y76108096D01*
X14236666Y75993810D01*
X14160476Y75917620D01*
X14084285Y75879524D01*
X15227142Y75841429D02*
X15227142Y75308096D01*
X15036666Y76146191D02*
X14846190Y75574762D01*
X15341428Y75574762D01*
G04 #@! TO.C,AS5*
X-2222381Y75686667D02*
X-1841429Y75686667D01*
X-2298572Y75458096D02*
X-2031905Y76258096D01*
X-1765239Y75458096D01*
X-1536667Y75496191D02*
X-1422381Y75458096D01*
X-1231905Y75458096D01*
X-1155715Y75496191D01*
X-1117620Y75534286D01*
X-1079524Y75610477D01*
X-1079524Y75686667D01*
X-1117620Y75762858D01*
X-1155715Y75800953D01*
X-1231905Y75839048D01*
X-1384286Y75877143D01*
X-1460477Y75915239D01*
X-1498572Y75953334D01*
X-1536667Y76029524D01*
X-1536667Y76105715D01*
X-1498572Y76181905D01*
X-1460477Y76220000D01*
X-1384286Y76258096D01*
X-1193810Y76258096D01*
X-1079524Y76220000D01*
X-355715Y76258096D02*
X-736667Y76258096D01*
X-774762Y75877143D01*
X-736667Y75915239D01*
X-660477Y75953334D01*
X-470000Y75953334D01*
X-393810Y75915239D01*
X-355715Y75877143D01*
X-317620Y75800953D01*
X-317620Y75610477D01*
X-355715Y75534286D01*
X-393810Y75496191D01*
X-470000Y75458096D01*
X-660477Y75458096D01*
X-736667Y75496191D01*
X-774762Y75534286D01*
G04 #@! TO.C,AS7*
X28257619Y75558667D02*
X28638571Y75558667D01*
X28181428Y75330096D02*
X28448095Y76130096D01*
X28714761Y75330096D01*
X28943333Y75368191D02*
X29057619Y75330096D01*
X29248095Y75330096D01*
X29324285Y75368191D01*
X29362380Y75406286D01*
X29400476Y75482477D01*
X29400476Y75558667D01*
X29362380Y75634858D01*
X29324285Y75672953D01*
X29248095Y75711048D01*
X29095714Y75749143D01*
X29019523Y75787239D01*
X28981428Y75825334D01*
X28943333Y75901524D01*
X28943333Y75977715D01*
X28981428Y76053905D01*
X29019523Y76092000D01*
X29095714Y76130096D01*
X29286190Y76130096D01*
X29400476Y76092000D01*
X29667142Y76130096D02*
X30200476Y76130096D01*
X29857619Y75330096D01*
G04 #@! TO.C,D4*
X41681904Y60529524D02*
X40881904Y60529524D01*
X40881904Y60720000D01*
X40920000Y60834286D01*
X40996190Y60910477D01*
X41072380Y60948572D01*
X41224761Y60986667D01*
X41339047Y60986667D01*
X41491428Y60948572D01*
X41567619Y60910477D01*
X41643809Y60834286D01*
X41681904Y60720000D01*
X41681904Y60529524D01*
X41148571Y61672381D02*
X41681904Y61672381D01*
X40843809Y61481905D02*
X41415238Y61291429D01*
X41415238Y61786667D01*
G04 #@! TO.C,H2*
X9550476Y87522096D02*
X9550476Y88322096D01*
X9550476Y87941143D02*
X10007619Y87941143D01*
X10007619Y87522096D02*
X10007619Y88322096D01*
X10350476Y88245905D02*
X10388571Y88284000D01*
X10464761Y88322096D01*
X10655238Y88322096D01*
X10731428Y88284000D01*
X10769523Y88245905D01*
X10807619Y88169715D01*
X10807619Y88093524D01*
X10769523Y87979239D01*
X10312380Y87522096D01*
X10807619Y87522096D01*
G04 #@! TO.C,H1*
X6771904Y78765477D02*
X5971904Y78765477D01*
X6352857Y78765477D02*
X6352857Y79222620D01*
X6771904Y79222620D02*
X5971904Y79222620D01*
X6771904Y80022620D02*
X6771904Y79565477D01*
X6771904Y79794048D02*
X5971904Y79794048D01*
X6086190Y79717858D01*
X6162380Y79641667D01*
X6200476Y79565477D01*
G04 #@! TD*
M02*
