G04 #@! TF.GenerationSoftware,KiCad,Pcbnew,(5.1.6)-1*
G04 #@! TF.CreationDate,2020-09-14T11:10:16+02:00*
G04 #@! TF.ProjectId,board_sierra,626f6172-645f-4736-9965-7272612e6b69,v1.1*
G04 #@! TF.SameCoordinates,PX1903cf0PY6c69e80*
G04 #@! TF.FileFunction,Profile,NP*
%FSLAX46Y46*%
G04 Gerber Fmt 4.6, Leading zero omitted, Abs format (unit mm)*
G04 Created by KiCad (PCBNEW (5.1.6)-1) date 2020-09-14 11:10:16*
%MOMM*%
%LPD*%
G01*
G04 APERTURE LIST*
G04 #@! TA.AperFunction,Profile*
%ADD10C,0.100000*%
G04 #@! TD*
G04 APERTURE END LIST*
D10*
X50355500Y88900000D02*
G75*
G03*
X51308000Y89852500I0J952500D01*
G01*
X31940500Y88900000D02*
X50355500Y88900000D01*
X52260500Y90805000D02*
X84137500Y90805000D01*
X30988000Y89852500D02*
G75*
G03*
X30035500Y90805000I-952500J0D01*
G01*
X30988000Y89852500D02*
G75*
G03*
X31940500Y88900000I952500J0D01*
G01*
X-4127500Y90805000D02*
X30035500Y90805000D01*
X52260500Y90805000D02*
G75*
G03*
X51308000Y89852500I0J-952500D01*
G01*
X52260500Y-5080000D02*
X84137500Y-5080000D01*
X31940500Y-3175000D02*
X50355500Y-3175000D01*
X-4127500Y-5080000D02*
X30035500Y-5080000D01*
X52260500Y-5080000D02*
G75*
G02*
X51308000Y-4127500I0J952500D01*
G01*
X50355500Y-3175000D02*
G75*
G02*
X51308000Y-4127500I0J-952500D01*
G01*
X30988000Y-4127500D02*
G75*
G02*
X31940500Y-3175000I952500J0D01*
G01*
X30988000Y-4127500D02*
G75*
G02*
X30035500Y-5080000I-952500J0D01*
G01*
X84137500Y53009800D02*
G75*
G03*
X83185000Y52057300I0J-952500D01*
G01*
X85090000Y89852500D02*
X85090000Y53962300D01*
X83185000Y52057300D02*
X83185000Y33667700D01*
X85090000Y31762700D02*
X85090000Y-4127500D01*
X83185000Y33667700D02*
G75*
G03*
X84137500Y32715200I952500J0D01*
G01*
X85090000Y31762700D02*
G75*
G03*
X84137500Y32715200I-952500J0D01*
G01*
X84137500Y53009800D02*
G75*
G03*
X85090000Y53962300I0J952500D01*
G01*
X85090000Y-4127500D02*
G75*
G02*
X84137500Y-5080000I-952500J0D01*
G01*
X84137500Y90805000D02*
G75*
G02*
X85090000Y89852500I0J-952500D01*
G01*
X-5080000Y31762700D02*
X-5080000Y-4127500D01*
X-5080000Y89852500D02*
X-5080000Y53962300D01*
X-5080000Y89852500D02*
G75*
G02*
X-4127500Y90805000I952500J0D01*
G01*
X-3175000Y52057300D02*
X-3175000Y33667700D01*
X-4127500Y53009800D02*
G75*
G02*
X-5080000Y53962300I0J952500D01*
G01*
X-4127500Y53009800D02*
G75*
G02*
X-3175000Y52057300I0J-952500D01*
G01*
X-3175000Y33667700D02*
G75*
G02*
X-4127500Y32715200I-952500J0D01*
G01*
X-5080000Y31762700D02*
G75*
G02*
X-4127500Y32715200I952500J0D01*
G01*
X-4127500Y-5080000D02*
G75*
G02*
X-5080000Y-4127500I0J952500D01*
G01*
M02*
