G04 #@! TF.GenerationSoftware,KiCad,Pcbnew,(5.1.6)-1*
G04 #@! TF.CreationDate,2020-09-14T11:10:16+02:00*
G04 #@! TF.ProjectId,board_sierra,626f6172-645f-4736-9965-7272612e6b69,v1.1*
G04 #@! TF.SameCoordinates,PX1903cf0PY6c69e80*
G04 #@! TF.FileFunction,Paste,Top*
G04 #@! TF.FilePolarity,Positive*
%FSLAX46Y46*%
G04 Gerber Fmt 4.6, Leading zero omitted, Abs format (unit mm)*
G04 Created by KiCad (PCBNEW (5.1.6)-1) date 2020-09-14 11:10:16*
%MOMM*%
%LPD*%
G01*
G04 APERTURE LIST*
G04 #@! TA.AperFunction,Profile*
%ADD10C,0.100000*%
G04 #@! TD*
%ADD11R,2.650000X1.250000*%
%ADD12R,0.500000X0.600000*%
%ADD13R,0.600000X0.500000*%
%ADD14R,0.300000X1.475000*%
%ADD15R,1.475000X0.300000*%
%ADD16R,0.950000X0.950000*%
%ADD17R,0.300000X0.600000*%
%ADD18R,1.070000X1.470000*%
%ADD19R,1.450000X1.075000*%
%ADD20R,0.950000X0.450000*%
%ADD21R,1.470000X1.150000*%
%ADD22R,0.200000X0.600000*%
%ADD23R,0.600000X0.200000*%
%ADD24R,1.700000X0.600000*%
%ADD25R,0.463000X0.225000*%
%ADD26R,0.225000X0.463000*%
%ADD27R,0.500000X0.250000*%
%ADD28R,0.900000X0.700000*%
%ADD29R,0.250000X0.500000*%
%ADD30R,0.700000X0.900000*%
%ADD31R,0.600000X0.600000*%
%ADD32R,0.600000X0.400000*%
%ADD33R,0.700000X0.600000*%
G04 APERTURE END LIST*
D10*
X50355500Y88900000D02*
G75*
G03*
X51308000Y89852500I0J952500D01*
G01*
X31940500Y88900000D02*
X50355500Y88900000D01*
X52260500Y90805000D02*
X84137500Y90805000D01*
X30988000Y89852500D02*
G75*
G03*
X30035500Y90805000I-952500J0D01*
G01*
X30988000Y89852500D02*
G75*
G03*
X31940500Y88900000I952500J0D01*
G01*
X-4127500Y90805000D02*
X30035500Y90805000D01*
X52260500Y90805000D02*
G75*
G03*
X51308000Y89852500I0J-952500D01*
G01*
X52260500Y-5080000D02*
X84137500Y-5080000D01*
X31940500Y-3175000D02*
X50355500Y-3175000D01*
X-4127500Y-5080000D02*
X30035500Y-5080000D01*
X52260500Y-5080000D02*
G75*
G02*
X51308000Y-4127500I0J952500D01*
G01*
X50355500Y-3175000D02*
G75*
G02*
X51308000Y-4127500I0J-952500D01*
G01*
X30988000Y-4127500D02*
G75*
G02*
X31940500Y-3175000I952500J0D01*
G01*
X30988000Y-4127500D02*
G75*
G02*
X30035500Y-5080000I-952500J0D01*
G01*
X84137500Y53009800D02*
G75*
G03*
X83185000Y52057300I0J-952500D01*
G01*
X85090000Y89852500D02*
X85090000Y53962300D01*
X83185000Y52057300D02*
X83185000Y33667700D01*
X85090000Y31762700D02*
X85090000Y-4127500D01*
X83185000Y33667700D02*
G75*
G03*
X84137500Y32715200I952500J0D01*
G01*
X85090000Y31762700D02*
G75*
G03*
X84137500Y32715200I-952500J0D01*
G01*
X84137500Y53009800D02*
G75*
G03*
X85090000Y53962300I0J952500D01*
G01*
X85090000Y-4127500D02*
G75*
G02*
X84137500Y-5080000I-952500J0D01*
G01*
X84137500Y90805000D02*
G75*
G02*
X85090000Y89852500I0J-952500D01*
G01*
X-5080000Y31762700D02*
X-5080000Y-4127500D01*
X-5080000Y89852500D02*
X-5080000Y53962300D01*
X-5080000Y89852500D02*
G75*
G02*
X-4127500Y90805000I952500J0D01*
G01*
X-3175000Y52057300D02*
X-3175000Y33667700D01*
X-4127500Y53009800D02*
G75*
G02*
X-5080000Y53962300I0J952500D01*
G01*
X-4127500Y53009800D02*
G75*
G02*
X-3175000Y52057300I0J-952500D01*
G01*
X-3175000Y33667700D02*
G75*
G02*
X-4127500Y32715200I-952500J0D01*
G01*
X-5080000Y31762700D02*
G75*
G02*
X-4127500Y32715200I952500J0D01*
G01*
X-4127500Y-5080000D02*
G75*
G02*
X-5080000Y-4127500I0J952500D01*
G01*
D11*
G04 #@! TO.C,C57*
X30226000Y38103000D03*
X30226000Y35303000D03*
G04 #@! TD*
G04 #@! TO.C,C56*
X30226000Y47755000D03*
X30226000Y44955000D03*
G04 #@! TD*
D12*
G04 #@! TO.C,R75*
X31250000Y55499000D03*
X32250000Y55499000D03*
G04 #@! TD*
D13*
G04 #@! TO.C,R53*
X36576000Y55253000D03*
X36576000Y56253000D03*
G04 #@! TD*
D14*
G04 #@! TO.C,U1*
X7586000Y43495500D03*
X8086000Y43495500D03*
X8586000Y43495500D03*
X9086000Y43495500D03*
X9586000Y43495500D03*
X10086000Y43495500D03*
X10586000Y43495500D03*
X11086000Y43495500D03*
X11586000Y43495500D03*
X12086000Y43495500D03*
X12586000Y43495500D03*
X13086000Y43495500D03*
X13586000Y43495500D03*
X14086000Y43495500D03*
X14586000Y43495500D03*
X15086000Y43495500D03*
X15586000Y43495500D03*
X16086000Y43495500D03*
X16586000Y43495500D03*
X17086000Y43495500D03*
X17586000Y43495500D03*
X18086000Y43495500D03*
X18586000Y43495500D03*
X19086000Y43495500D03*
X19586000Y43495500D03*
X20086000Y43495500D03*
X20586000Y43495500D03*
X21086000Y43495500D03*
X21586000Y43495500D03*
X22086000Y43495500D03*
X22586000Y43495500D03*
X23086000Y43495500D03*
X23586000Y43495500D03*
X24086000Y43495500D03*
X24586000Y43495500D03*
X25086000Y43495500D03*
D15*
X26998500Y45408000D03*
X26998500Y45908000D03*
X26998500Y46408000D03*
X26998500Y46908000D03*
X26998500Y47408000D03*
X26998500Y47908000D03*
X26998500Y48408000D03*
X26998500Y48908000D03*
X26998500Y49408000D03*
X26998500Y49908000D03*
X26998500Y50408000D03*
X26998500Y50908000D03*
X26998500Y51408000D03*
X26998500Y51908000D03*
X26998500Y52408000D03*
X26998500Y52908000D03*
X26998500Y53408000D03*
X26998500Y53908000D03*
X26998500Y54408000D03*
X26998500Y54908000D03*
X26998500Y55408000D03*
X26998500Y55908000D03*
X26998500Y56408000D03*
X26998500Y56908000D03*
X26998500Y57408000D03*
X26998500Y57908000D03*
X26998500Y58408000D03*
X26998500Y58908000D03*
X26998500Y59408000D03*
X26998500Y59908000D03*
X26998500Y60408000D03*
X26998500Y60908000D03*
X26998500Y61408000D03*
X26998500Y61908000D03*
X26998500Y62408000D03*
X26998500Y62908000D03*
D14*
X25086000Y64820500D03*
X24586000Y64820500D03*
X24086000Y64820500D03*
X23586000Y64820500D03*
X23086000Y64820500D03*
X22586000Y64820500D03*
X22086000Y64820500D03*
X21586000Y64820500D03*
X21086000Y64820500D03*
X20586000Y64820500D03*
X20086000Y64820500D03*
X19586000Y64820500D03*
X19086000Y64820500D03*
X18586000Y64820500D03*
X18086000Y64820500D03*
X17586000Y64820500D03*
X17086000Y64820500D03*
X16586000Y64820500D03*
X16086000Y64820500D03*
X15586000Y64820500D03*
X15086000Y64820500D03*
X14586000Y64820500D03*
X14086000Y64820500D03*
X13586000Y64820500D03*
X13086000Y64820500D03*
X12586000Y64820500D03*
X12086000Y64820500D03*
X11586000Y64820500D03*
X11086000Y64820500D03*
X10586000Y64820500D03*
X10086000Y64820500D03*
X9586000Y64820500D03*
X9086000Y64820500D03*
X8586000Y64820500D03*
X8086000Y64820500D03*
X7586000Y64820500D03*
D15*
X5673500Y62908000D03*
X5673500Y62408000D03*
X5673500Y61908000D03*
X5673500Y61408000D03*
X5673500Y60908000D03*
X5673500Y60408000D03*
X5673500Y59908000D03*
X5673500Y59408000D03*
X5673500Y58908000D03*
X5673500Y58408000D03*
X5673500Y57908000D03*
X5673500Y57408000D03*
X5673500Y56908000D03*
X5673500Y56408000D03*
X5673500Y55908000D03*
X5673500Y55408000D03*
X5673500Y54908000D03*
X5673500Y54408000D03*
X5673500Y53908000D03*
X5673500Y53408000D03*
X5673500Y52908000D03*
X5673500Y52408000D03*
X5673500Y51908000D03*
X5673500Y51408000D03*
X5673500Y50908000D03*
X5673500Y50408000D03*
X5673500Y49908000D03*
X5673500Y49408000D03*
X5673500Y48908000D03*
X5673500Y48408000D03*
X5673500Y47908000D03*
X5673500Y47408000D03*
X5673500Y46908000D03*
X5673500Y46408000D03*
X5673500Y45908000D03*
X5673500Y45408000D03*
G04 #@! TD*
D12*
G04 #@! TO.C,C34*
X7180000Y71910000D03*
X8180000Y71910000D03*
G04 #@! TD*
D13*
G04 #@! TO.C,C59*
X36560000Y60460000D03*
X36560000Y61460000D03*
G04 #@! TD*
G04 #@! TO.C,C68*
X-3560000Y59450000D03*
X-3560000Y58450000D03*
G04 #@! TD*
D12*
G04 #@! TO.C,C63*
X33810000Y57600000D03*
X34810000Y57600000D03*
G04 #@! TD*
G04 #@! TO.C,C62*
X-1810000Y53550000D03*
X-810000Y53550000D03*
G04 #@! TD*
G04 #@! TO.C,C66*
X35690000Y46260000D03*
X36690000Y46260000D03*
G04 #@! TD*
D16*
G04 #@! TO.C,C70*
X37870000Y45945000D03*
X37870000Y47395000D03*
G04 #@! TD*
G04 #@! TO.C,C71*
X37870000Y36180000D03*
X37870000Y37630000D03*
G04 #@! TD*
D13*
G04 #@! TO.C,R70*
X-3560000Y54450000D03*
X-3560000Y55450000D03*
G04 #@! TD*
G04 #@! TO.C,R69*
X940000Y54450000D03*
X940000Y55450000D03*
G04 #@! TD*
D17*
G04 #@! TO.C,U3*
X33335000Y58660000D03*
X33985000Y58660000D03*
X34635000Y58660000D03*
X35285000Y58660000D03*
X35285000Y61460000D03*
X34635000Y61460000D03*
X33985000Y61460000D03*
X33335000Y61460000D03*
D18*
X33675000Y60060000D03*
X34945000Y60060000D03*
G04 #@! TD*
D19*
G04 #@! TO.C,M1*
X3936000Y35679500D03*
X2286000Y35679500D03*
X636000Y35679500D03*
X3936000Y36954500D03*
X2286000Y36954500D03*
X636000Y36954500D03*
X3936000Y38229500D03*
X2286000Y38229500D03*
X636000Y38229500D03*
X3936000Y39504500D03*
X2286000Y39504500D03*
D20*
X-1614000Y39497000D03*
X-1614000Y38227000D03*
X-1614000Y36957000D03*
X-1614000Y35687000D03*
X6186000Y35687000D03*
X6186000Y36957000D03*
X6186000Y38227000D03*
X6186000Y39497000D03*
D19*
X636000Y39504500D03*
G04 #@! TD*
G04 #@! TO.C,M3*
X25018000Y35679500D03*
X23368000Y35679500D03*
X21718000Y35679500D03*
X25018000Y36954500D03*
X23368000Y36954500D03*
X21718000Y36954500D03*
X25018000Y38229500D03*
X23368000Y38229500D03*
X21718000Y38229500D03*
X25018000Y39504500D03*
X23368000Y39504500D03*
D20*
X19468000Y39497000D03*
X19468000Y38227000D03*
X19468000Y36957000D03*
X19468000Y35687000D03*
X27268000Y35687000D03*
X27268000Y36957000D03*
X27268000Y38227000D03*
X27268000Y39497000D03*
D19*
X21718000Y39504500D03*
G04 #@! TD*
G04 #@! TO.C,M2*
X14477000Y35679500D03*
X12827000Y35679500D03*
X11177000Y35679500D03*
X14477000Y36954500D03*
X12827000Y36954500D03*
X11177000Y36954500D03*
X14477000Y38229500D03*
X12827000Y38229500D03*
X11177000Y38229500D03*
X14477000Y39504500D03*
X12827000Y39504500D03*
D20*
X8927000Y39497000D03*
X8927000Y38227000D03*
X8927000Y36957000D03*
X8927000Y35687000D03*
X16727000Y35687000D03*
X16727000Y36957000D03*
X16727000Y38227000D03*
X16727000Y39497000D03*
D19*
X11177000Y39504500D03*
G04 #@! TD*
D17*
G04 #@! TO.C,U2*
X-2285000Y54600000D03*
X-1635000Y54600000D03*
X-985000Y54600000D03*
X-335000Y54600000D03*
X-335000Y57400000D03*
X-985000Y57400000D03*
X-1635000Y57400000D03*
X-2285000Y57400000D03*
D18*
X-1945000Y56000000D03*
X-675000Y56000000D03*
G04 #@! TD*
D21*
G04 #@! TO.C,EF2*
X34290000Y40355000D03*
X34290000Y41705000D03*
D22*
X33540000Y42930000D03*
X34040000Y42930000D03*
X34540000Y42930000D03*
X35040000Y42930000D03*
D23*
X35690000Y42280000D03*
X35690000Y41780000D03*
X35690000Y41280000D03*
X35690000Y40780000D03*
X35690000Y40280000D03*
X35690000Y39780000D03*
D22*
X35040000Y39130000D03*
X34540000Y39130000D03*
X34040000Y39130000D03*
X33540000Y39130000D03*
D23*
X32890000Y39780000D03*
X32890000Y40280000D03*
X32890000Y40780000D03*
X32890000Y41280000D03*
X32890000Y41780000D03*
X32890000Y42280000D03*
G04 #@! TD*
D24*
G04 #@! TO.C,JC1*
X2085000Y45005000D03*
X-965000Y45005000D03*
X2085000Y46275000D03*
X-965000Y46275000D03*
X2085000Y47545000D03*
X-965000Y47545000D03*
X2085000Y48815000D03*
X-965000Y48815000D03*
G04 #@! TD*
D12*
G04 #@! TO.C,L1*
X26290000Y41450000D03*
X27290000Y41450000D03*
G04 #@! TD*
D13*
G04 #@! TO.C,C64*
X-1310000Y59450000D03*
X-1310000Y58450000D03*
G04 #@! TD*
G04 #@! TO.C,C18*
X4180000Y52660000D03*
X4180000Y51660000D03*
G04 #@! TD*
G04 #@! TO.C,C5*
X4180000Y46160000D03*
X4180000Y45160000D03*
G04 #@! TD*
D12*
G04 #@! TO.C,C1*
X22330000Y41740000D03*
X23330000Y41740000D03*
G04 #@! TD*
G04 #@! TO.C,R68*
X30840000Y39620000D03*
X31840000Y39620000D03*
G04 #@! TD*
D13*
G04 #@! TO.C,R15*
X-3420000Y79310000D03*
X-3420000Y80310000D03*
G04 #@! TD*
D12*
G04 #@! TO.C,C25*
X-2990000Y78260000D03*
X-1990000Y78260000D03*
G04 #@! TD*
D25*
G04 #@! TO.C,AS6*
X-51500Y80610000D03*
X-51500Y80210000D03*
X-51500Y79810000D03*
X-51500Y79410000D03*
D26*
X-670000Y79191500D03*
X-1070000Y79191500D03*
X-1470000Y79191500D03*
X-1870000Y79191500D03*
D25*
X-2488500Y79410000D03*
X-2488500Y79810000D03*
X-2488500Y80210000D03*
X-2488500Y80610000D03*
D26*
X-1870000Y80828500D03*
X-1470000Y80828500D03*
X-1070000Y80828500D03*
X-670000Y80828500D03*
G04 #@! TD*
D25*
G04 #@! TO.C,AS12*
X20268500Y74260000D03*
X20268500Y73860000D03*
X20268500Y73460000D03*
X20268500Y73060000D03*
D26*
X19650000Y72841500D03*
X19250000Y72841500D03*
X18850000Y72841500D03*
X18450000Y72841500D03*
D25*
X17831500Y73060000D03*
X17831500Y73460000D03*
X17831500Y73860000D03*
X17831500Y74260000D03*
D26*
X18450000Y74478500D03*
X18850000Y74478500D03*
X19250000Y74478500D03*
X19650000Y74478500D03*
G04 #@! TD*
D13*
G04 #@! TO.C,R16*
X27060000Y73160000D03*
X27060000Y74160000D03*
G04 #@! TD*
D12*
G04 #@! TO.C,R3*
X4990000Y71910000D03*
X3990000Y71910000D03*
G04 #@! TD*
G04 #@! TO.C,C3*
X2090000Y71910000D03*
X3090000Y71910000D03*
G04 #@! TD*
G04 #@! TO.C,C30*
X22410000Y71910000D03*
X23410000Y71910000D03*
G04 #@! TD*
D25*
G04 #@! TO.C,AS10*
X10108500Y74260000D03*
X10108500Y73860000D03*
X10108500Y73460000D03*
X10108500Y73060000D03*
D26*
X9490000Y72841500D03*
X9090000Y72841500D03*
X8690000Y72841500D03*
X8290000Y72841500D03*
D25*
X7671500Y73060000D03*
X7671500Y73460000D03*
X7671500Y73860000D03*
X7671500Y74260000D03*
D26*
X8290000Y74478500D03*
X8690000Y74478500D03*
X9090000Y74478500D03*
X9490000Y74478500D03*
G04 #@! TD*
D13*
G04 #@! TO.C,R25*
X6740000Y73160000D03*
X6740000Y74160000D03*
G04 #@! TD*
G04 #@! TO.C,R48*
X11820000Y73160000D03*
X11820000Y74160000D03*
G04 #@! TD*
D12*
G04 #@! TO.C,C53*
X12250000Y71910000D03*
X13250000Y71910000D03*
G04 #@! TD*
D13*
G04 #@! TO.C,R72*
X32060000Y58510000D03*
X32060000Y59510000D03*
G04 #@! TD*
G04 #@! TO.C,R71*
X36560000Y58510000D03*
X36560000Y59510000D03*
G04 #@! TD*
D21*
G04 #@! TO.C,EF1*
X34290000Y49995000D03*
X34290000Y51345000D03*
D22*
X33540000Y52570000D03*
X34040000Y52570000D03*
X34540000Y52570000D03*
X35040000Y52570000D03*
D23*
X35690000Y51920000D03*
X35690000Y51420000D03*
X35690000Y50920000D03*
X35690000Y50420000D03*
X35690000Y49920000D03*
X35690000Y49420000D03*
D22*
X35040000Y48770000D03*
X34540000Y48770000D03*
X34040000Y48770000D03*
X33540000Y48770000D03*
D23*
X32890000Y49420000D03*
X32890000Y49920000D03*
X32890000Y50420000D03*
X32890000Y50920000D03*
X32890000Y51420000D03*
X32890000Y51920000D03*
G04 #@! TD*
D27*
G04 #@! TO.C,Q2*
X34740000Y47540000D03*
X34740000Y47040000D03*
X34740000Y46540000D03*
X34740000Y46040000D03*
X32840000Y46040000D03*
X32840000Y46540000D03*
X32840000Y47040000D03*
X32840000Y47540000D03*
D28*
X33790000Y46340000D03*
X33790000Y47240000D03*
G04 #@! TD*
D13*
G04 #@! TO.C,R81*
X38190000Y59510000D03*
X38190000Y58510000D03*
G04 #@! TD*
D12*
G04 #@! TO.C,R67*
X30840000Y49250000D03*
X31840000Y49250000D03*
G04 #@! TD*
G04 #@! TO.C,R62*
X31840000Y42480000D03*
X30840000Y42480000D03*
G04 #@! TD*
G04 #@! TO.C,R60*
X36740000Y43430000D03*
X37740000Y43430000D03*
G04 #@! TD*
D13*
G04 #@! TO.C,D1*
X220000Y63820000D03*
X220000Y62820000D03*
G04 #@! TD*
D12*
G04 #@! TO.C,D3*
X32774000Y35330000D03*
X33774000Y35330000D03*
G04 #@! TD*
G04 #@! TO.C,D2*
X32774000Y44970700D03*
X33774000Y44970700D03*
G04 #@! TD*
G04 #@! TO.C,C28*
X-2110000Y64770000D03*
X-1110000Y64770000D03*
G04 #@! TD*
D13*
G04 #@! TO.C,C27*
X220000Y61730000D03*
X220000Y60730000D03*
G04 #@! TD*
D12*
G04 #@! TO.C,C67*
X35690000Y36630000D03*
X36690000Y36630000D03*
G04 #@! TD*
G04 #@! TO.C,C61*
X34806000Y35330000D03*
X35806000Y35330000D03*
G04 #@! TD*
G04 #@! TO.C,C60*
X34806000Y44970700D03*
X35806000Y44970700D03*
G04 #@! TD*
G04 #@! TO.C,C52*
X31840000Y43430000D03*
X30840000Y43430000D03*
G04 #@! TD*
G04 #@! TO.C,C51*
X31840000Y53060000D03*
X30840000Y53060000D03*
G04 #@! TD*
D13*
G04 #@! TO.C,R80*
X35490000Y63510000D03*
X35490000Y62510000D03*
G04 #@! TD*
G04 #@! TO.C,R79*
X-130000Y59450000D03*
X-130000Y58450000D03*
G04 #@! TD*
G04 #@! TO.C,R78*
X33120000Y63510000D03*
X33120000Y62510000D03*
G04 #@! TD*
G04 #@! TO.C,R77*
X-2500000Y59450000D03*
X-2500000Y58450000D03*
G04 #@! TD*
G04 #@! TO.C,R74*
X32060000Y60460000D03*
X32060000Y61460000D03*
G04 #@! TD*
G04 #@! TO.C,R73*
X-3560000Y56400000D03*
X-3560000Y57400000D03*
G04 #@! TD*
D12*
G04 #@! TO.C,R22*
X-1240000Y60620000D03*
X-2240000Y60620000D03*
G04 #@! TD*
D13*
G04 #@! TO.C,R33*
X16900000Y73160000D03*
X16900000Y74160000D03*
G04 #@! TD*
D12*
G04 #@! TO.C,R76*
X32250000Y54356000D03*
X31250000Y54356000D03*
G04 #@! TD*
D13*
G04 #@! TO.C,R17*
X21980000Y73160000D03*
X21980000Y74160000D03*
G04 #@! TD*
G04 #@! TO.C,R1*
X1660000Y73960000D03*
X1660000Y72960000D03*
G04 #@! TD*
D12*
G04 #@! TO.C,R66*
X30840000Y41420000D03*
X31840000Y41420000D03*
G04 #@! TD*
G04 #@! TO.C,R65*
X30840000Y40520000D03*
X31840000Y40520000D03*
G04 #@! TD*
G04 #@! TO.C,R64*
X30840000Y51050000D03*
X31840000Y51050000D03*
G04 #@! TD*
G04 #@! TO.C,R63*
X30840000Y50150000D03*
X31840000Y50150000D03*
G04 #@! TD*
G04 #@! TO.C,R61*
X31840000Y52110000D03*
X30840000Y52110000D03*
G04 #@! TD*
G04 #@! TO.C,R59*
X36740000Y53060000D03*
X37740000Y53060000D03*
G04 #@! TD*
G04 #@! TO.C,R56*
X37740000Y42480000D03*
X36740000Y42480000D03*
G04 #@! TD*
G04 #@! TO.C,R55*
X36740000Y41530000D03*
X37740000Y41530000D03*
G04 #@! TD*
G04 #@! TO.C,R54*
X37740000Y40470000D03*
X36740000Y40470000D03*
G04 #@! TD*
G04 #@! TO.C,R52*
X37740000Y52110000D03*
X36740000Y52110000D03*
G04 #@! TD*
G04 #@! TO.C,R51*
X36740000Y51160000D03*
X37740000Y51160000D03*
G04 #@! TD*
G04 #@! TO.C,R50*
X37740000Y50100000D03*
X36740000Y50100000D03*
G04 #@! TD*
D13*
G04 #@! TO.C,R14*
X-3420000Y72960000D03*
X-3420000Y73960000D03*
G04 #@! TD*
G04 #@! TO.C,R19*
X31360000Y72460000D03*
X31360000Y73460000D03*
G04 #@! TD*
D29*
G04 #@! TO.C,Q1*
X-2360000Y63580000D03*
X-1860000Y63580000D03*
X-1360000Y63580000D03*
X-860000Y63580000D03*
X-860000Y61680000D03*
X-1360000Y61680000D03*
X-1860000Y61680000D03*
X-2360000Y61680000D03*
D30*
X-1160000Y62630000D03*
X-2060000Y62630000D03*
G04 #@! TD*
D27*
G04 #@! TO.C,Q3*
X34740000Y37900000D03*
X34740000Y37400000D03*
X34740000Y36900000D03*
X34740000Y36400000D03*
X32840000Y36400000D03*
X32840000Y36900000D03*
X32840000Y37400000D03*
X32840000Y37900000D03*
D28*
X33790000Y36700000D03*
X33790000Y37600000D03*
G04 #@! TD*
D31*
G04 #@! TO.C,LG1*
X33390000Y54310000D03*
D32*
X33390000Y55060000D03*
D31*
X33390000Y55810000D03*
X35190000Y55810000D03*
D32*
X35190000Y55060000D03*
D31*
X35190000Y54310000D03*
G04 #@! TD*
D12*
G04 #@! TO.C,FB1*
X26290000Y42400000D03*
X27290000Y42400000D03*
G04 #@! TD*
D13*
G04 #@! TO.C,C73*
X36560000Y63510000D03*
X36560000Y62510000D03*
G04 #@! TD*
G04 #@! TO.C,C72*
X940000Y59460000D03*
X940000Y58460000D03*
G04 #@! TD*
G04 #@! TO.C,C69*
X32060000Y63510000D03*
X32060000Y62510000D03*
G04 #@! TD*
G04 #@! TO.C,C65*
X34310000Y62510000D03*
X34310000Y63510000D03*
G04 #@! TD*
G04 #@! TO.C,C58*
X940000Y56400000D03*
X940000Y57400000D03*
G04 #@! TD*
D12*
G04 #@! TO.C,C47*
X17340000Y71910000D03*
X18340000Y71910000D03*
G04 #@! TD*
G04 #@! TO.C,C24*
X-2990000Y71910000D03*
X-1990000Y71910000D03*
G04 #@! TD*
G04 #@! TO.C,C29*
X27500000Y71910000D03*
X28500000Y71910000D03*
G04 #@! TD*
G04 #@! TO.C,C14*
X9090000Y41740000D03*
X10090000Y41740000D03*
G04 #@! TD*
D13*
G04 #@! TO.C,C11*
X28480000Y52160000D03*
X28480000Y53160000D03*
G04 #@! TD*
G04 #@! TO.C,C9*
X28490000Y62160000D03*
X28490000Y63160000D03*
G04 #@! TD*
D25*
G04 #@! TO.C,AS8*
X25348500Y74260000D03*
X25348500Y73860000D03*
X25348500Y73460000D03*
X25348500Y73060000D03*
D26*
X24730000Y72841500D03*
X24330000Y72841500D03*
X23930000Y72841500D03*
X23530000Y72841500D03*
D25*
X22911500Y73060000D03*
X22911500Y73460000D03*
X22911500Y73860000D03*
X22911500Y74260000D03*
D26*
X23530000Y74478500D03*
X23930000Y74478500D03*
X24330000Y74478500D03*
X24730000Y74478500D03*
G04 #@! TD*
D25*
G04 #@! TO.C,AS1*
X5028500Y74260000D03*
X5028500Y73860000D03*
X5028500Y73460000D03*
X5028500Y73060000D03*
D26*
X4410000Y72841500D03*
X4010000Y72841500D03*
X3610000Y72841500D03*
X3210000Y72841500D03*
D25*
X2591500Y73060000D03*
X2591500Y73460000D03*
X2591500Y73860000D03*
X2591500Y74260000D03*
D26*
X3210000Y74478500D03*
X3610000Y74478500D03*
X4010000Y74478500D03*
X4410000Y74478500D03*
G04 #@! TD*
D25*
G04 #@! TO.C,AS14*
X15188500Y74260000D03*
X15188500Y73860000D03*
X15188500Y73460000D03*
X15188500Y73060000D03*
D26*
X14570000Y72841500D03*
X14170000Y72841500D03*
X13770000Y72841500D03*
X13370000Y72841500D03*
D25*
X12751500Y73060000D03*
X12751500Y73460000D03*
X12751500Y73860000D03*
X12751500Y74260000D03*
D26*
X13370000Y74478500D03*
X13770000Y74478500D03*
X14170000Y74478500D03*
X14570000Y74478500D03*
G04 #@! TD*
D25*
G04 #@! TO.C,AS5*
X-51500Y74260000D03*
X-51500Y73860000D03*
X-51500Y73460000D03*
X-51500Y73060000D03*
D26*
X-670000Y72841500D03*
X-1070000Y72841500D03*
X-1470000Y72841500D03*
X-1870000Y72841500D03*
D25*
X-2488500Y73060000D03*
X-2488500Y73460000D03*
X-2488500Y73860000D03*
X-2488500Y74260000D03*
D26*
X-1870000Y74478500D03*
X-1470000Y74478500D03*
X-1070000Y74478500D03*
X-670000Y74478500D03*
G04 #@! TD*
D25*
G04 #@! TO.C,AS7*
X30428500Y74260000D03*
X30428500Y73860000D03*
X30428500Y73460000D03*
X30428500Y73060000D03*
D26*
X29810000Y72841500D03*
X29410000Y72841500D03*
X29010000Y72841500D03*
X28610000Y72841500D03*
D25*
X27991500Y73060000D03*
X27991500Y73460000D03*
X27991500Y73860000D03*
X27991500Y74260000D03*
D26*
X28610000Y74478500D03*
X29010000Y74478500D03*
X29410000Y74478500D03*
X29810000Y74478500D03*
G04 #@! TD*
D33*
G04 #@! TO.C,D4*
X38180000Y62020000D03*
X38180000Y60620000D03*
G04 #@! TD*
M02*
