G04 #@! TF.GenerationSoftware,KiCad,Pcbnew,(5.1.6)-1*
G04 #@! TF.CreationDate,2020-08-05T20:31:42+02:00*
G04 #@! TF.ProjectId,board_sierra,626f6172-645f-4736-9965-7272612e6b69,rev?*
G04 #@! TF.SameCoordinates,Original*
G04 #@! TF.FileFunction,Copper,L6,Bot*
G04 #@! TF.FilePolarity,Positive*
%FSLAX46Y46*%
G04 Gerber Fmt 4.6, Leading zero omitted, Abs format (unit mm)*
G04 Created by KiCad (PCBNEW (5.1.6)-1) date 2020-08-05 20:31:42*
%MOMM*%
%LPD*%
G01*
G04 APERTURE LIST*
G04 #@! TA.AperFunction,Profile*
%ADD10C,0.100000*%
G04 #@! TD*
G04 #@! TA.AperFunction,SMDPad,CuDef*
%ADD11R,3.500000X0.650000*%
G04 #@! TD*
G04 #@! TA.AperFunction,ComponentPad*
%ADD12R,2.540000X1.750000*%
G04 #@! TD*
G04 #@! TA.AperFunction,ComponentPad*
%ADD13R,1.750000X2.540000*%
G04 #@! TD*
G04 #@! TA.AperFunction,ComponentPad*
%ADD14C,1.500000*%
G04 #@! TD*
G04 #@! TA.AperFunction,ComponentPad*
%ADD15O,4.290000X1.750000*%
G04 #@! TD*
G04 #@! TA.AperFunction,ComponentPad*
%ADD16C,1.750000*%
G04 #@! TD*
G04 #@! TA.AperFunction,SMDPad,CuDef*
%ADD17R,1.100000X1.400000*%
G04 #@! TD*
G04 #@! TA.AperFunction,SMDPad,CuDef*
%ADD18R,0.950000X0.950000*%
G04 #@! TD*
G04 #@! TA.AperFunction,ViaPad*
%ADD19C,0.450000*%
G04 #@! TD*
G04 #@! TA.AperFunction,SMDPad,CuDef*
%ADD20R,1.250000X1.750000*%
G04 #@! TD*
G04 #@! TA.AperFunction,ComponentPad*
%ADD21C,6.400000*%
G04 #@! TD*
G04 #@! TA.AperFunction,ComponentPad*
%ADD22C,0.800000*%
G04 #@! TD*
G04 #@! TA.AperFunction,SMDPad,CuDef*
%ADD23C,1.000000*%
G04 #@! TD*
G04 #@! TA.AperFunction,ComponentPad*
%ADD24R,2.000000X2.000000*%
G04 #@! TD*
G04 #@! TA.AperFunction,SMDPad,CuDef*
%ADD25R,0.500000X0.600000*%
G04 #@! TD*
G04 #@! TA.AperFunction,SMDPad,CuDef*
%ADD26R,1.600000X0.600000*%
G04 #@! TD*
G04 #@! TA.AperFunction,SMDPad,CuDef*
%ADD27R,0.600000X0.500000*%
G04 #@! TD*
G04 #@! TA.AperFunction,SMDPad,CuDef*
%ADD28R,0.463000X0.225000*%
G04 #@! TD*
G04 #@! TA.AperFunction,SMDPad,CuDef*
%ADD29R,0.225000X0.463000*%
G04 #@! TD*
G04 #@! TA.AperFunction,ComponentPad*
%ADD30C,1.365000*%
G04 #@! TD*
G04 #@! TA.AperFunction,SMDPad,CuDef*
%ADD31R,0.500000X0.300000*%
G04 #@! TD*
G04 #@! TA.AperFunction,SMDPad,CuDef*
%ADD32R,0.800000X0.900000*%
G04 #@! TD*
G04 #@! TA.AperFunction,SMDPad,CuDef*
%ADD33R,1.000000X1.800000*%
G04 #@! TD*
G04 #@! TA.AperFunction,SMDPad,CuDef*
%ADD34R,1.450000X1.750000*%
G04 #@! TD*
G04 #@! TA.AperFunction,SMDPad,CuDef*
%ADD35R,0.300000X0.750000*%
G04 #@! TD*
G04 #@! TA.AperFunction,SMDPad,CuDef*
%ADD36R,1.750000X1.450000*%
G04 #@! TD*
G04 #@! TA.AperFunction,SMDPad,CuDef*
%ADD37R,0.750000X0.300000*%
G04 #@! TD*
G04 #@! TA.AperFunction,Conductor*
%ADD38C,0.300000*%
G04 #@! TD*
G04 #@! TA.AperFunction,Conductor*
%ADD39C,0.200000*%
G04 #@! TD*
G04 #@! TA.AperFunction,Conductor*
%ADD40C,0.450000*%
G04 #@! TD*
G04 #@! TA.AperFunction,Conductor*
%ADD41C,0.225000*%
G04 #@! TD*
G04 #@! TA.AperFunction,Conductor*
%ADD42C,0.500000*%
G04 #@! TD*
G04 #@! TA.AperFunction,Conductor*
%ADD43C,0.173000*%
G04 #@! TD*
G04 #@! TA.AperFunction,Conductor*
%ADD44C,1.000000*%
G04 #@! TD*
G04 #@! TA.AperFunction,Conductor*
%ADD45C,0.770000*%
G04 #@! TD*
G04 #@! TA.AperFunction,Conductor*
%ADD46C,0.190000*%
G04 #@! TD*
G04 #@! TA.AperFunction,Conductor*
%ADD47C,0.170000*%
G04 #@! TD*
G04 APERTURE END LIST*
D10*
X137985500Y-43180000D02*
G75*
G03*
X138938000Y-42227500I0J952500D01*
G01*
X119570500Y-43180000D02*
X137985500Y-43180000D01*
X139890500Y-41275000D02*
X171767500Y-41275000D01*
X118618000Y-42227500D02*
G75*
G03*
X117665500Y-41275000I-952500J0D01*
G01*
X118618000Y-42227500D02*
G75*
G03*
X119570500Y-43180000I952500J0D01*
G01*
X83502500Y-41275000D02*
X117665500Y-41275000D01*
X139890500Y-41275000D02*
G75*
G03*
X138938000Y-42227500I0J-952500D01*
G01*
X139890500Y-137160000D02*
X171767500Y-137160000D01*
X119570500Y-135255000D02*
X137985500Y-135255000D01*
X83502500Y-137160000D02*
X117665500Y-137160000D01*
X139890500Y-137160000D02*
G75*
G02*
X138938000Y-136207500I0J952500D01*
G01*
X137985500Y-135255000D02*
G75*
G02*
X138938000Y-136207500I0J-952500D01*
G01*
X118618000Y-136207500D02*
G75*
G02*
X119570500Y-135255000I952500J0D01*
G01*
X118618000Y-136207500D02*
G75*
G02*
X117665500Y-137160000I-952500J0D01*
G01*
X171767500Y-79070200D02*
G75*
G03*
X170815000Y-80022700I0J-952500D01*
G01*
X172720000Y-42227500D02*
X172720000Y-78117700D01*
X170815000Y-80022700D02*
X170815000Y-98412300D01*
X172720000Y-100317300D02*
X172720000Y-136207500D01*
X170815000Y-98412300D02*
G75*
G03*
X171767500Y-99364800I952500J0D01*
G01*
X172720000Y-100317300D02*
G75*
G03*
X171767500Y-99364800I-952500J0D01*
G01*
X171767500Y-79070200D02*
G75*
G03*
X172720000Y-78117700I0J952500D01*
G01*
X172720000Y-136207500D02*
G75*
G02*
X171767500Y-137160000I-952500J0D01*
G01*
X171767500Y-41275000D02*
G75*
G02*
X172720000Y-42227500I0J-952500D01*
G01*
X82550000Y-100317300D02*
X82550000Y-136207500D01*
X82550000Y-42227500D02*
X82550000Y-78117700D01*
X82550000Y-42227500D02*
G75*
G02*
X83502500Y-41275000I952500J0D01*
G01*
X84455000Y-80022700D02*
X84455000Y-98412300D01*
X83502500Y-79070200D02*
G75*
G02*
X82550000Y-78117700I0J952500D01*
G01*
X83502500Y-79070200D02*
G75*
G02*
X84455000Y-80022700I0J-952500D01*
G01*
X84455000Y-98412300D02*
G75*
G02*
X83502500Y-99364800I-952500J0D01*
G01*
X82550000Y-100317300D02*
G75*
G02*
X83502500Y-99364800I952500J0D01*
G01*
X83502500Y-137160000D02*
G75*
G02*
X82550000Y-136207500I0J952500D01*
G01*
D11*
X136460000Y-118110000D03*
X136460000Y-116840000D03*
X131510000Y-114300000D03*
X131510000Y-119380000D03*
X136460000Y-121920000D03*
X136460000Y-123190000D03*
X136460000Y-114300000D03*
X136460000Y-119380000D03*
X131510000Y-118110000D03*
X136460000Y-120650000D03*
X131510000Y-123190000D03*
X136460000Y-115570000D03*
X131510000Y-116840000D03*
X136460000Y-110490000D03*
X131510000Y-121920000D03*
X131510000Y-113030000D03*
X136460000Y-111760000D03*
X131510000Y-120650000D03*
X131510000Y-115570000D03*
X136460000Y-113030000D03*
X131510000Y-111760000D03*
X131510000Y-110490000D03*
X149290000Y-119380000D03*
X154240000Y-123190000D03*
X149290000Y-114300000D03*
X154240000Y-118110000D03*
X154240000Y-121920000D03*
X154240000Y-116840000D03*
X154240000Y-119380000D03*
X154240000Y-114300000D03*
X154240000Y-120650000D03*
X149290000Y-123190000D03*
X154240000Y-115570000D03*
X149290000Y-116840000D03*
X154240000Y-110490000D03*
X149290000Y-113030000D03*
X149290000Y-115570000D03*
X154240000Y-113030000D03*
X149290000Y-111760000D03*
X149290000Y-121920000D03*
X154240000Y-111760000D03*
X149290000Y-110490000D03*
X149290000Y-120650000D03*
X149290000Y-118110000D03*
D12*
X163195000Y-59690000D03*
X140335000Y-59690000D03*
X158115000Y-59690000D03*
X160655000Y-59690000D03*
X145415000Y-59690000D03*
X147955000Y-59690000D03*
X150495000Y-59690000D03*
X153035000Y-59690000D03*
X155575000Y-59690000D03*
X142875000Y-59690000D03*
D13*
X168275000Y-64770000D03*
X135255000Y-64770000D03*
D14*
X140335000Y-64770000D03*
X137795000Y-64770000D03*
D15*
X139065000Y-64770000D03*
D16*
X150495000Y-64770000D03*
X142875000Y-64770000D03*
D14*
X163195000Y-64770000D03*
D16*
X155575000Y-64770000D03*
X160655000Y-64770000D03*
X147955000Y-64770000D03*
D14*
X165735000Y-64770000D03*
D16*
X153035000Y-64770000D03*
X145415000Y-64770000D03*
D15*
X164465000Y-64770000D03*
D16*
X158115000Y-64770000D03*
X137795000Y-128270000D03*
X137795000Y-107950000D03*
X137795000Y-105410000D03*
X137795000Y-125730000D03*
D14*
X120015000Y-125730000D03*
D15*
X121285000Y-125730000D03*
D14*
X122555000Y-125730000D03*
D16*
X150495000Y-128270000D03*
X145415000Y-128270000D03*
X160655000Y-128270000D03*
X94615000Y-128270000D03*
X155575000Y-128270000D03*
X147955000Y-128270000D03*
X158115000Y-128270000D03*
X135255000Y-128270000D03*
X140335000Y-128270000D03*
X142875000Y-128270000D03*
X153035000Y-128270000D03*
X132715000Y-128270000D03*
X107315000Y-128270000D03*
X104775000Y-128270000D03*
X112395000Y-128270000D03*
X127635000Y-128270000D03*
X97155000Y-128270000D03*
X130175000Y-128270000D03*
X117475000Y-128270000D03*
X102235000Y-128270000D03*
X109855000Y-128270000D03*
X99695000Y-128270000D03*
X125095000Y-128270000D03*
X114935000Y-128270000D03*
D12*
X92075000Y-102870000D03*
X163195000Y-102870000D03*
X158115000Y-102870000D03*
X160655000Y-102870000D03*
X142875000Y-102870000D03*
X155575000Y-102870000D03*
X135255000Y-102870000D03*
X132715000Y-102870000D03*
X137795000Y-102870000D03*
X145415000Y-102870000D03*
X150495000Y-102870000D03*
X153035000Y-102870000D03*
X147955000Y-102870000D03*
X140335000Y-102870000D03*
D14*
X122555000Y-118110000D03*
D15*
X121285000Y-118110000D03*
D14*
X120015000Y-118110000D03*
D15*
X121285000Y-107950000D03*
D14*
X122555000Y-107950000D03*
X122555000Y-105410000D03*
X120015000Y-107950000D03*
X122555000Y-115570000D03*
X122555000Y-113030000D03*
X120015000Y-120650000D03*
D15*
X121285000Y-123190000D03*
D14*
X122555000Y-120650000D03*
X120015000Y-113030000D03*
X120015000Y-123190000D03*
D15*
X121285000Y-115570000D03*
D14*
X120015000Y-115570000D03*
D15*
X121285000Y-105410000D03*
D14*
X120015000Y-110490000D03*
D15*
X121285000Y-120650000D03*
X121285000Y-113030000D03*
D14*
X122555000Y-110490000D03*
D15*
X121285000Y-110490000D03*
D14*
X120015000Y-105410000D03*
X122555000Y-123190000D03*
D15*
X121285000Y-128270000D03*
D14*
X120015000Y-128270000D03*
X122555000Y-128270000D03*
D13*
X86995000Y-107950000D03*
D15*
X90805000Y-107950000D03*
X90805000Y-105410000D03*
D14*
X92075000Y-105410000D03*
X89535000Y-105410000D03*
X89535000Y-107950000D03*
X92075000Y-107950000D03*
D16*
X117475000Y-107950000D03*
X132715000Y-105410000D03*
X135255000Y-107950000D03*
X125095000Y-105410000D03*
X117475000Y-105410000D03*
X125095000Y-107950000D03*
X132715000Y-107950000D03*
X135255000Y-105410000D03*
X102235000Y-105410000D03*
X97155000Y-107950000D03*
X104775000Y-107950000D03*
X102235000Y-107950000D03*
X130175000Y-107950000D03*
X127635000Y-107950000D03*
X104775000Y-105410000D03*
X94615000Y-105410000D03*
X94615000Y-107950000D03*
X97155000Y-105410000D03*
X127635000Y-105410000D03*
X99695000Y-107950000D03*
X130175000Y-105410000D03*
X99695000Y-105410000D03*
X114935000Y-105410000D03*
X112395000Y-107950000D03*
X107315000Y-107950000D03*
X114935000Y-107950000D03*
X109855000Y-107950000D03*
X112395000Y-105410000D03*
X109855000Y-105410000D03*
X107315000Y-105410000D03*
D13*
X86995000Y-105410000D03*
D14*
X140335000Y-95250000D03*
D15*
X139065000Y-95250000D03*
D14*
X137795000Y-95250000D03*
D15*
X139065000Y-97790000D03*
D14*
X140335000Y-97790000D03*
X137795000Y-97790000D03*
X137795000Y-100330000D03*
X140335000Y-100330000D03*
D15*
X139065000Y-100330000D03*
D14*
X137795000Y-87630000D03*
X140335000Y-87630000D03*
D15*
X139065000Y-85090000D03*
D14*
X140335000Y-85090000D03*
X137795000Y-85090000D03*
D15*
X139065000Y-90170000D03*
X139065000Y-87630000D03*
X139065000Y-92710000D03*
D14*
X137795000Y-92710000D03*
X140335000Y-90170000D03*
X140335000Y-92710000D03*
X137795000Y-90170000D03*
D13*
X135255000Y-97790000D03*
X135255000Y-95250000D03*
X135255000Y-72390000D03*
X135255000Y-90170000D03*
X135255000Y-82550000D03*
X135255000Y-69850000D03*
X135255000Y-77470000D03*
X135255000Y-74930000D03*
X135255000Y-62230000D03*
X135255000Y-67310000D03*
X135255000Y-87630000D03*
X135255000Y-85090000D03*
X135255000Y-92710000D03*
X135255000Y-80010000D03*
D14*
X140335000Y-74930000D03*
X137795000Y-74930000D03*
X137795000Y-82550000D03*
X140335000Y-82550000D03*
D15*
X139065000Y-80010000D03*
D14*
X140335000Y-77470000D03*
X137795000Y-77470000D03*
D15*
X139065000Y-77470000D03*
X139065000Y-82550000D03*
D14*
X140335000Y-80010000D03*
X137795000Y-80010000D03*
D15*
X139065000Y-74930000D03*
D14*
X137795000Y-69850000D03*
D15*
X139065000Y-67310000D03*
D14*
X140335000Y-72390000D03*
D15*
X139065000Y-69850000D03*
D14*
X137795000Y-67310000D03*
D15*
X139065000Y-72390000D03*
X139065000Y-62230000D03*
D14*
X140335000Y-69850000D03*
X137795000Y-72390000D03*
X140335000Y-62230000D03*
X140335000Y-67310000D03*
X137795000Y-62230000D03*
D12*
X158115000Y-130810000D03*
X160655000Y-130810000D03*
X94615000Y-130810000D03*
D13*
X86995000Y-123190000D03*
X86995000Y-118110000D03*
X86995000Y-115570000D03*
X86995000Y-125730000D03*
X86995000Y-110490000D03*
X86995000Y-120650000D03*
X86995000Y-113030000D03*
D15*
X90805000Y-123190000D03*
D14*
X89535000Y-125730000D03*
X92075000Y-123190000D03*
X89535000Y-123190000D03*
X92075000Y-125730000D03*
D15*
X90805000Y-125730000D03*
X90805000Y-113030000D03*
D14*
X89535000Y-120650000D03*
X89535000Y-113030000D03*
D15*
X90805000Y-120650000D03*
D14*
X89535000Y-115570000D03*
D15*
X90805000Y-118110000D03*
D14*
X89535000Y-118110000D03*
X92075000Y-113030000D03*
X92075000Y-115570000D03*
D15*
X90805000Y-115570000D03*
D14*
X92075000Y-120650000D03*
X92075000Y-118110000D03*
X89535000Y-110490000D03*
D15*
X90805000Y-110490000D03*
D14*
X92075000Y-110490000D03*
D15*
X164465000Y-125730000D03*
D14*
X163195000Y-123190000D03*
X163195000Y-125730000D03*
D15*
X164465000Y-123190000D03*
D14*
X165735000Y-125730000D03*
X165735000Y-123190000D03*
X163195000Y-120650000D03*
X163195000Y-115570000D03*
D15*
X164465000Y-118110000D03*
X164465000Y-120650000D03*
D14*
X163195000Y-118110000D03*
X165735000Y-115570000D03*
X163195000Y-113030000D03*
D15*
X164465000Y-115570000D03*
D14*
X165735000Y-120650000D03*
X165735000Y-118110000D03*
X165735000Y-113030000D03*
D15*
X164465000Y-113030000D03*
X164465000Y-107950000D03*
X164465000Y-110490000D03*
D14*
X165735000Y-105410000D03*
D15*
X164465000Y-105410000D03*
D14*
X165735000Y-107950000D03*
X163195000Y-110490000D03*
X163195000Y-107950000D03*
X165735000Y-110490000D03*
X163195000Y-105410000D03*
X165735000Y-95250000D03*
D15*
X164465000Y-97790000D03*
D14*
X163195000Y-92710000D03*
D15*
X164465000Y-95250000D03*
D14*
X165735000Y-97790000D03*
D15*
X164465000Y-92710000D03*
X164465000Y-100330000D03*
D14*
X163195000Y-95250000D03*
X165735000Y-92710000D03*
X163195000Y-100330000D03*
X163195000Y-97790000D03*
X165735000Y-100330000D03*
X163195000Y-90170000D03*
X165735000Y-90170000D03*
X165735000Y-82550000D03*
X163195000Y-82550000D03*
D15*
X164465000Y-85090000D03*
D14*
X163195000Y-87630000D03*
X165735000Y-87630000D03*
D15*
X164465000Y-87630000D03*
X164465000Y-82550000D03*
D14*
X163195000Y-85090000D03*
X165735000Y-85090000D03*
D15*
X164465000Y-90170000D03*
D14*
X165735000Y-77470000D03*
X163195000Y-77470000D03*
D15*
X164465000Y-80010000D03*
D14*
X163195000Y-80010000D03*
X165735000Y-80010000D03*
D15*
X164465000Y-74930000D03*
X164465000Y-77470000D03*
X164465000Y-72390000D03*
D14*
X165735000Y-72390000D03*
X163195000Y-74930000D03*
X163195000Y-72390000D03*
X165735000Y-74930000D03*
D15*
X164465000Y-69850000D03*
D14*
X163195000Y-69850000D03*
X165735000Y-69850000D03*
X165735000Y-67310000D03*
X163195000Y-67310000D03*
D15*
X164465000Y-67310000D03*
D14*
X163195000Y-62230000D03*
X165735000Y-62230000D03*
D15*
X164465000Y-62230000D03*
D16*
X155575000Y-62230000D03*
X147955000Y-62230000D03*
X145415000Y-62230000D03*
X145415000Y-67310000D03*
X158115000Y-67310000D03*
X147955000Y-67310000D03*
X155575000Y-67310000D03*
X142875000Y-62230000D03*
X158115000Y-62230000D03*
X160655000Y-67310000D03*
X142875000Y-67310000D03*
X153035000Y-67310000D03*
X153035000Y-62230000D03*
X150495000Y-67310000D03*
X150495000Y-62230000D03*
X160655000Y-62230000D03*
X145415000Y-80010000D03*
X160655000Y-85090000D03*
X145415000Y-72390000D03*
X142875000Y-69850000D03*
X142875000Y-77470000D03*
X142875000Y-74930000D03*
X155575000Y-85090000D03*
X142875000Y-82550000D03*
X145415000Y-74930000D03*
X147955000Y-74930000D03*
X142875000Y-72390000D03*
X158115000Y-80010000D03*
X147955000Y-85090000D03*
X145415000Y-87630000D03*
X147955000Y-69850000D03*
X147955000Y-77470000D03*
X145415000Y-69850000D03*
X147955000Y-72390000D03*
X145415000Y-77470000D03*
X145415000Y-85090000D03*
X147955000Y-87630000D03*
X155575000Y-87630000D03*
X142875000Y-85090000D03*
X142875000Y-80010000D03*
X155575000Y-82550000D03*
X147955000Y-80010000D03*
X150495000Y-87630000D03*
X150495000Y-74930000D03*
X160655000Y-72390000D03*
X155575000Y-77470000D03*
X160655000Y-74930000D03*
X153035000Y-74930000D03*
X160655000Y-87630000D03*
X155575000Y-74930000D03*
X158115000Y-82550000D03*
X147955000Y-82550000D03*
X150495000Y-82550000D03*
X153035000Y-80010000D03*
X160655000Y-77470000D03*
X155575000Y-72390000D03*
X150495000Y-72390000D03*
X153035000Y-77470000D03*
X150495000Y-80010000D03*
X160655000Y-82550000D03*
X158115000Y-77470000D03*
X153035000Y-72390000D03*
X158115000Y-74930000D03*
X153035000Y-69850000D03*
X142875000Y-87630000D03*
X158115000Y-72390000D03*
X145415000Y-82550000D03*
X153035000Y-82550000D03*
X150495000Y-77470000D03*
X158115000Y-87630000D03*
X158115000Y-85090000D03*
X153035000Y-85090000D03*
X160655000Y-80010000D03*
X153035000Y-87630000D03*
X155575000Y-80010000D03*
X160655000Y-69850000D03*
X150495000Y-85090000D03*
X155575000Y-69850000D03*
X150495000Y-69850000D03*
X158115000Y-69850000D03*
X145415000Y-92710000D03*
X147955000Y-92710000D03*
X142875000Y-95250000D03*
X147955000Y-95250000D03*
X147955000Y-90170000D03*
X147955000Y-97790000D03*
X142875000Y-90170000D03*
X142875000Y-97790000D03*
X145415000Y-90170000D03*
X142875000Y-92710000D03*
X145415000Y-97790000D03*
X145415000Y-95250000D03*
X158115000Y-100330000D03*
X147955000Y-105410000D03*
X145415000Y-100330000D03*
X155575000Y-107950000D03*
X155575000Y-105410000D03*
X142875000Y-105410000D03*
X142875000Y-100330000D03*
X145415000Y-107950000D03*
X160655000Y-105410000D03*
X145415000Y-105410000D03*
X140335000Y-105410000D03*
X140335000Y-107950000D03*
X147955000Y-107950000D03*
X155575000Y-100330000D03*
X150495000Y-105410000D03*
X147955000Y-100330000D03*
X142875000Y-107950000D03*
X153035000Y-100330000D03*
X160655000Y-107950000D03*
X150495000Y-100330000D03*
X153035000Y-107950000D03*
X150495000Y-107950000D03*
X158115000Y-105410000D03*
X158115000Y-107950000D03*
X153035000Y-105410000D03*
X160655000Y-90170000D03*
X160655000Y-100330000D03*
X160655000Y-95250000D03*
X160655000Y-97790000D03*
X158115000Y-97790000D03*
X153035000Y-92710000D03*
X150495000Y-92710000D03*
X158115000Y-92710000D03*
X160655000Y-92710000D03*
X158115000Y-95250000D03*
X155575000Y-92710000D03*
X153035000Y-90170000D03*
X153035000Y-97790000D03*
X155575000Y-97790000D03*
X155575000Y-95250000D03*
X150495000Y-97790000D03*
X150495000Y-95250000D03*
X153035000Y-95250000D03*
X155575000Y-90170000D03*
X150495000Y-90170000D03*
X158115000Y-90170000D03*
X112395000Y-113030000D03*
X114935000Y-113030000D03*
X109855000Y-115570000D03*
X107315000Y-115570000D03*
X114935000Y-115570000D03*
X107315000Y-113030000D03*
X114935000Y-110490000D03*
X114935000Y-118110000D03*
X109855000Y-110490000D03*
X107315000Y-118110000D03*
X109855000Y-118110000D03*
X112395000Y-110490000D03*
X109855000Y-113030000D03*
X107315000Y-110490000D03*
X112395000Y-118110000D03*
X112395000Y-115570000D03*
X145415000Y-118110000D03*
X145415000Y-110490000D03*
X140335000Y-113030000D03*
X145415000Y-115570000D03*
X145415000Y-113030000D03*
X140335000Y-118110000D03*
X140335000Y-110490000D03*
X142875000Y-110490000D03*
X140335000Y-115570000D03*
X142875000Y-113030000D03*
X142875000Y-118110000D03*
X142875000Y-115570000D03*
X160655000Y-125730000D03*
X158115000Y-125730000D03*
X94615000Y-125730000D03*
X145415000Y-120650000D03*
X135255000Y-125730000D03*
X140335000Y-123190000D03*
X142875000Y-125730000D03*
X145415000Y-123190000D03*
X145415000Y-125730000D03*
X142875000Y-120650000D03*
X155575000Y-125730000D03*
X132715000Y-125730000D03*
X153035000Y-125730000D03*
X142875000Y-123190000D03*
X140335000Y-120650000D03*
X140335000Y-125730000D03*
X147955000Y-125730000D03*
X150495000Y-125730000D03*
X97155000Y-123190000D03*
X109855000Y-123190000D03*
X114935000Y-125730000D03*
X114935000Y-120650000D03*
X99695000Y-125730000D03*
X127635000Y-120650000D03*
X114935000Y-123190000D03*
X112395000Y-125730000D03*
X125095000Y-123190000D03*
X127635000Y-123190000D03*
X97155000Y-125730000D03*
X127635000Y-125730000D03*
X107315000Y-125730000D03*
X125095000Y-120650000D03*
X99695000Y-120650000D03*
X117475000Y-125730000D03*
X107315000Y-120650000D03*
X109855000Y-120650000D03*
X117475000Y-123190000D03*
X112395000Y-120650000D03*
X125095000Y-125730000D03*
X130175000Y-125730000D03*
X102235000Y-123190000D03*
X109855000Y-125730000D03*
X107315000Y-123190000D03*
X104775000Y-125730000D03*
X117475000Y-120650000D03*
X104775000Y-120650000D03*
X102235000Y-125730000D03*
X112395000Y-123190000D03*
X99695000Y-123190000D03*
X97155000Y-120650000D03*
X102235000Y-120650000D03*
X104775000Y-123190000D03*
X158115000Y-115570000D03*
X158115000Y-123190000D03*
X94615000Y-120650000D03*
X94615000Y-123190000D03*
X158115000Y-118110000D03*
X160655000Y-113030000D03*
X160655000Y-118110000D03*
X160655000Y-123190000D03*
X158115000Y-120650000D03*
X158115000Y-110490000D03*
X160655000Y-110490000D03*
X160655000Y-115570000D03*
X158115000Y-113030000D03*
X160655000Y-120650000D03*
X125095000Y-118110000D03*
X117475000Y-118110000D03*
X117475000Y-115570000D03*
X125095000Y-115570000D03*
X117475000Y-110490000D03*
X125095000Y-110490000D03*
X125095000Y-113030000D03*
X117475000Y-113030000D03*
X127635000Y-110490000D03*
X127635000Y-115570000D03*
X127635000Y-118110000D03*
X127635000Y-113030000D03*
X99695000Y-118110000D03*
X97155000Y-118110000D03*
X97155000Y-115570000D03*
X99695000Y-115570000D03*
X97155000Y-110490000D03*
X99695000Y-110490000D03*
X99695000Y-113030000D03*
X97155000Y-113030000D03*
X104775000Y-110490000D03*
X104775000Y-118110000D03*
X102235000Y-110490000D03*
X104775000Y-115570000D03*
X102235000Y-115570000D03*
X104775000Y-113030000D03*
X102235000Y-118110000D03*
X102235000Y-113030000D03*
X94615000Y-118110000D03*
X94615000Y-115570000D03*
X94615000Y-110490000D03*
X94615000Y-113030000D03*
D12*
X94615000Y-102870000D03*
X97155000Y-102870000D03*
X99695000Y-102870000D03*
X102235000Y-102870000D03*
X97155000Y-130810000D03*
X99695000Y-130810000D03*
X107315000Y-102870000D03*
X112395000Y-102870000D03*
X114935000Y-102870000D03*
X104775000Y-102870000D03*
X109855000Y-102870000D03*
D13*
X168275000Y-62230000D03*
X168275000Y-67310000D03*
X168275000Y-69850000D03*
X168275000Y-72390000D03*
D12*
X120015000Y-102870000D03*
D13*
X168275000Y-74930000D03*
D12*
X117475000Y-102870000D03*
D13*
X168275000Y-82550000D03*
D12*
X127635000Y-102870000D03*
D13*
X168275000Y-80010000D03*
D12*
X125095000Y-102870000D03*
D13*
X168275000Y-85090000D03*
X168275000Y-77470000D03*
D12*
X122555000Y-102870000D03*
D13*
X168275000Y-95250000D03*
X168275000Y-87630000D03*
D12*
X130175000Y-102870000D03*
D13*
X168275000Y-97790000D03*
X168275000Y-92710000D03*
X168275000Y-90170000D03*
X168275000Y-102870000D03*
X168275000Y-100330000D03*
X168275000Y-110490000D03*
X168275000Y-107950000D03*
X168275000Y-105410000D03*
X168275000Y-115570000D03*
X168275000Y-113030000D03*
X168275000Y-123190000D03*
X168275000Y-118110000D03*
X168275000Y-120650000D03*
X168275000Y-125730000D03*
D12*
X107315000Y-130810000D03*
X102235000Y-130810000D03*
X104775000Y-130810000D03*
X114935000Y-130810000D03*
X109855000Y-130810000D03*
X112395000Y-130810000D03*
X122555000Y-130810000D03*
X117475000Y-130810000D03*
X120015000Y-130810000D03*
X130175000Y-130810000D03*
X125095000Y-130810000D03*
X127635000Y-130810000D03*
X137795000Y-130810000D03*
X135255000Y-130810000D03*
X132715000Y-130810000D03*
X153035000Y-130810000D03*
X147955000Y-130810000D03*
X140335000Y-130810000D03*
X145415000Y-130810000D03*
X142875000Y-130810000D03*
X150495000Y-130810000D03*
X155575000Y-130810000D03*
D17*
X84325000Y-71580000D03*
X86075000Y-71580000D03*
D18*
X93845000Y-68430000D03*
X95295000Y-68430000D03*
X109745000Y-88840000D03*
X111195000Y-88840000D03*
D17*
X102085000Y-87570000D03*
X103835000Y-87570000D03*
D18*
X102695000Y-66920000D03*
X101245000Y-66920000D03*
X92650000Y-79195000D03*
X92650000Y-80645000D03*
D19*
X121420000Y-92050000D03*
X122420000Y-92050000D03*
X122420000Y-90050000D03*
X121420000Y-90050000D03*
X121420000Y-91050000D03*
X122420000Y-91050000D03*
D20*
X129425000Y-60610000D03*
X132175000Y-60610000D03*
X129425000Y-58360000D03*
X132175000Y-58360000D03*
D21*
X91440000Y-46355000D03*
D22*
X93840000Y-46355000D03*
X93137056Y-48052056D03*
X91440000Y-48755000D03*
X89742944Y-48052056D03*
X89040000Y-46355000D03*
X89742944Y-44657944D03*
X91440000Y-43955000D03*
X93137056Y-44657944D03*
D21*
X167640000Y-132080000D03*
D22*
X170040000Y-132080000D03*
X169337056Y-133777056D03*
X167640000Y-134480000D03*
X165942944Y-133777056D03*
X165240000Y-132080000D03*
X165942944Y-130382944D03*
X167640000Y-129680000D03*
X169337056Y-130382944D03*
D21*
X87630000Y-132080000D03*
D22*
X90030000Y-132080000D03*
X89327056Y-133777056D03*
X87630000Y-134480000D03*
X85932944Y-133777056D03*
X85230000Y-132080000D03*
X85932944Y-130382944D03*
X87630000Y-129680000D03*
X89327056Y-130382944D03*
D21*
X165100000Y-46355000D03*
D22*
X167500000Y-46355000D03*
X166797056Y-48052056D03*
X165100000Y-48755000D03*
X163402944Y-48052056D03*
X162700000Y-46355000D03*
X163402944Y-44657944D03*
X165100000Y-43955000D03*
X166797056Y-44657944D03*
D23*
X108150000Y-78760000D03*
X108150000Y-76960000D03*
X127800000Y-78610000D03*
X115750000Y-76560000D03*
X115750000Y-79160000D03*
X127800000Y-75690000D03*
X127800000Y-77150000D03*
X105150000Y-93360000D03*
X105150000Y-95360000D03*
X110150000Y-94160000D03*
X105150000Y-97360000D03*
X110150000Y-97360000D03*
X104950000Y-75360000D03*
X104950000Y-73560000D03*
D24*
X85000000Y-47220000D03*
X85000000Y-43720000D03*
D25*
X117350000Y-72670000D03*
X116350000Y-72670000D03*
X117350000Y-73660000D03*
X116350000Y-73660000D03*
D26*
X118320000Y-75692000D03*
X118320000Y-78232000D03*
X125520000Y-79502000D03*
X125520000Y-78232000D03*
X118320000Y-79502000D03*
X125520000Y-75692000D03*
X125520000Y-76962000D03*
X118320000Y-76962000D03*
D25*
X102460000Y-88970000D03*
X103460000Y-88970000D03*
X90120000Y-83810000D03*
X89120000Y-83810000D03*
X102470000Y-68100000D03*
X101470000Y-68100000D03*
X111580000Y-68360000D03*
X110580000Y-68360000D03*
D27*
X116410000Y-84750000D03*
X116410000Y-85750000D03*
D25*
X106720000Y-90410000D03*
X105720000Y-90410000D03*
X96010000Y-76670000D03*
X95010000Y-76670000D03*
D27*
X93860000Y-86920000D03*
X93860000Y-85920000D03*
D25*
X95430000Y-66350000D03*
X96430000Y-66350000D03*
X95430000Y-67250000D03*
X96430000Y-67250000D03*
D27*
X92920000Y-74420000D03*
X92920000Y-75420000D03*
X111370000Y-63762000D03*
X111370000Y-64762000D03*
D25*
X114200000Y-64680000D03*
X113200000Y-64680000D03*
D27*
X91830000Y-62230000D03*
X91830000Y-63230000D03*
X91050000Y-55690000D03*
X91050000Y-54690000D03*
X101210000Y-61730000D03*
X101210000Y-62730000D03*
D25*
X99760000Y-61180000D03*
X98760000Y-61180000D03*
D28*
X100278500Y-63530000D03*
X100278500Y-63130000D03*
X100278500Y-62730000D03*
X100278500Y-62330000D03*
D29*
X99660000Y-62111500D03*
X99260000Y-62111500D03*
X98860000Y-62111500D03*
X98460000Y-62111500D03*
D28*
X97841500Y-62330000D03*
X97841500Y-62730000D03*
X97841500Y-63130000D03*
X97841500Y-63530000D03*
D29*
X98460000Y-63748500D03*
X98860000Y-63748500D03*
X99260000Y-63748500D03*
X99660000Y-63748500D03*
D30*
X160020000Y-46355000D03*
X160020000Y-48895000D03*
X157480000Y-46355000D03*
X157480000Y-48895000D03*
X154940000Y-46355000D03*
X154940000Y-48895000D03*
X152400000Y-46355000D03*
X152400000Y-48895000D03*
X149860000Y-46355000D03*
X149860000Y-48895000D03*
X147320000Y-46355000D03*
X147320000Y-48895000D03*
X144780000Y-46355000D03*
X144780000Y-48895000D03*
X142240000Y-46355000D03*
X142240000Y-48895000D03*
X139700000Y-46355000D03*
X139700000Y-48895000D03*
X137160000Y-46355000D03*
X137160000Y-48895000D03*
X134620000Y-46355000D03*
X134620000Y-48895000D03*
X132080000Y-46355000D03*
X132080000Y-48895000D03*
X129540000Y-46355000D03*
X129540000Y-48895000D03*
X127000000Y-46355000D03*
X127000000Y-48895000D03*
X124460000Y-46355000D03*
X124460000Y-48895000D03*
X121920000Y-46355000D03*
X121920000Y-48895000D03*
X119380000Y-46355000D03*
X119380000Y-48895000D03*
X116840000Y-46355000D03*
X116840000Y-48895000D03*
X114300000Y-46355000D03*
X114300000Y-48895000D03*
X111760000Y-46355000D03*
X111760000Y-48895000D03*
X109220000Y-46355000D03*
X109220000Y-48895000D03*
X106680000Y-46355000D03*
X106680000Y-48895000D03*
X104140000Y-46355000D03*
X104140000Y-48895000D03*
X101600000Y-46355000D03*
X101600000Y-48895000D03*
X99060000Y-46355000D03*
X99060000Y-48895000D03*
X96520000Y-46355000D03*
X96520000Y-48895000D03*
X160020000Y-51435000D03*
X160020000Y-53975000D03*
X157480000Y-51435000D03*
X157480000Y-53975000D03*
X154940000Y-51435000D03*
X154940000Y-53975000D03*
X152400000Y-51435000D03*
X152400000Y-53975000D03*
X149860000Y-51435000D03*
X149860000Y-53975000D03*
X147320000Y-51435000D03*
X147320000Y-53975000D03*
X144780000Y-51435000D03*
X144780000Y-53975000D03*
X142240000Y-51435000D03*
X142240000Y-53975000D03*
X139700000Y-51435000D03*
X139700000Y-53975000D03*
X137160000Y-51435000D03*
X137160000Y-53975000D03*
X134620000Y-51435000D03*
X134620000Y-53975000D03*
X132080000Y-51435000D03*
X132080000Y-53975000D03*
X129540000Y-51435000D03*
X129540000Y-53975000D03*
X127000000Y-51435000D03*
X127000000Y-53975000D03*
X124460000Y-51435000D03*
X124460000Y-53975000D03*
X121920000Y-51435000D03*
X121920000Y-53975000D03*
X119380000Y-51435000D03*
X119380000Y-53975000D03*
X116840000Y-51435000D03*
X116840000Y-53975000D03*
X114300000Y-51435000D03*
X114300000Y-53975000D03*
X111760000Y-51435000D03*
X111760000Y-53975000D03*
X109220000Y-51435000D03*
X109220000Y-53975000D03*
X106680000Y-51435000D03*
X106680000Y-53975000D03*
X104140000Y-51435000D03*
X104140000Y-53975000D03*
X101600000Y-51435000D03*
X101600000Y-53975000D03*
X99060000Y-51435000D03*
X99060000Y-53975000D03*
X96520000Y-51435000D03*
X96520000Y-53975000D03*
D19*
X121420000Y-82410000D03*
X122420000Y-82410000D03*
X122420000Y-80410000D03*
X121420000Y-80410000D03*
X121420000Y-81410000D03*
X122420000Y-81410000D03*
X121420000Y-85840000D03*
X121420000Y-84740000D03*
D25*
X107320000Y-83540000D03*
X106320000Y-83540000D03*
X100466000Y-82692000D03*
X101466000Y-82692000D03*
X112920000Y-70780000D03*
X111920000Y-70780000D03*
X112920000Y-69820000D03*
X111920000Y-69820000D03*
X109970000Y-69820000D03*
X110970000Y-69820000D03*
X109970000Y-70780000D03*
X110970000Y-70780000D03*
X90120000Y-87420000D03*
X89120000Y-87420000D03*
X90120000Y-86510000D03*
X89120000Y-86510000D03*
X90120000Y-85610000D03*
X89120000Y-85610000D03*
X90120000Y-84710000D03*
X89120000Y-84710000D03*
X90120000Y-82910000D03*
X89120000Y-82910000D03*
D31*
X87215000Y-83920000D03*
X87215000Y-84420000D03*
X87215000Y-84920000D03*
X87215000Y-85420000D03*
X87215000Y-85920000D03*
X87215000Y-86420000D03*
X87215000Y-86920000D03*
X86065000Y-86920000D03*
X86065000Y-86420000D03*
X86065000Y-85920000D03*
X86065000Y-85420000D03*
X86065000Y-84920000D03*
X86065000Y-84420000D03*
X86065000Y-83920000D03*
D25*
X112930000Y-84770000D03*
X111930000Y-84770000D03*
X112930000Y-83830000D03*
X111930000Y-83830000D03*
D32*
X107420000Y-84940000D03*
X107420000Y-86440000D03*
X106220000Y-86440000D03*
X106220000Y-84940000D03*
D33*
X101271000Y-84632000D03*
X98721000Y-84632000D03*
D19*
X122840000Y-72020000D03*
X121040000Y-72020000D03*
X121940000Y-72520000D03*
X121940000Y-71520000D03*
X87220000Y-76080000D03*
X85420000Y-76080000D03*
X86320000Y-76580000D03*
X86320000Y-75580000D03*
D34*
X86320000Y-76080000D03*
D35*
X87070000Y-74630000D03*
X86570000Y-74630000D03*
X86070000Y-74630000D03*
X85570000Y-74630000D03*
X85570000Y-77530000D03*
X86070000Y-77530000D03*
X86570000Y-77530000D03*
X87070000Y-77530000D03*
D36*
X121920000Y-81915000D03*
D37*
X123370000Y-82665000D03*
X123370000Y-82165000D03*
X123370000Y-81665000D03*
X123370000Y-81165000D03*
X120470000Y-81165000D03*
X120470000Y-81665000D03*
X120470000Y-82165000D03*
X120470000Y-82665000D03*
D34*
X121940000Y-72020000D03*
D35*
X121190000Y-73470000D03*
X121690000Y-73470000D03*
X122190000Y-73470000D03*
X122690000Y-73470000D03*
X122690000Y-70570000D03*
X122190000Y-70570000D03*
X121690000Y-70570000D03*
X121190000Y-70570000D03*
D36*
X109220000Y-72670000D03*
D37*
X110670000Y-73420000D03*
X110670000Y-72920000D03*
X110670000Y-72420000D03*
X110670000Y-71920000D03*
X107770000Y-71920000D03*
X107770000Y-72420000D03*
X107770000Y-72920000D03*
X107770000Y-73420000D03*
D36*
X121920000Y-90551000D03*
D37*
X123370000Y-91301000D03*
X123370000Y-90801000D03*
X123370000Y-90301000D03*
X123370000Y-89801000D03*
X120470000Y-89801000D03*
X120470000Y-90301000D03*
X120470000Y-90801000D03*
X120470000Y-91301000D03*
D36*
X99990000Y-80270000D03*
D37*
X101440000Y-81020000D03*
X101440000Y-80520000D03*
X101440000Y-80020000D03*
X101440000Y-79520000D03*
X98540000Y-79520000D03*
X98540000Y-80020000D03*
X98540000Y-80520000D03*
X98540000Y-81020000D03*
D36*
X100965000Y-94488000D03*
D37*
X102415000Y-95238000D03*
X102415000Y-94738000D03*
X102415000Y-94238000D03*
X102415000Y-93738000D03*
X99515000Y-93738000D03*
X99515000Y-94238000D03*
X99515000Y-94738000D03*
X99515000Y-95238000D03*
D27*
X96130000Y-61730000D03*
X96130000Y-62730000D03*
D25*
X99490000Y-90410000D03*
X98490000Y-90410000D03*
X100440000Y-90410000D03*
X101440000Y-90410000D03*
D27*
X106290000Y-61730000D03*
X106290000Y-62730000D03*
D25*
X110140000Y-92580000D03*
X111140000Y-92580000D03*
X99340000Y-92580000D03*
X100340000Y-92580000D03*
X88550000Y-92580000D03*
X89550000Y-92580000D03*
D27*
X111370000Y-61730000D03*
X111370000Y-62730000D03*
D25*
X112930000Y-86670000D03*
X111930000Y-86670000D03*
X112930000Y-85720000D03*
X111930000Y-85720000D03*
X112930000Y-82880000D03*
X111930000Y-82880000D03*
D27*
X108770000Y-84940000D03*
X108770000Y-85940000D03*
D25*
X99216000Y-86572000D03*
X100216000Y-86572000D03*
D27*
X116450000Y-61730000D03*
X116450000Y-62730000D03*
D25*
X88650000Y-65000000D03*
X87650000Y-65000000D03*
D19*
X85470000Y-69450000D03*
X86570000Y-69450000D03*
X121420000Y-95480000D03*
X121420000Y-94380000D03*
D26*
X118320000Y-92964000D03*
X118320000Y-95504000D03*
X125520000Y-96774000D03*
X125520000Y-95504000D03*
X118320000Y-96774000D03*
X125520000Y-92964000D03*
X125520000Y-94234000D03*
X118320000Y-94234000D03*
X118320000Y-84328000D03*
X118320000Y-86868000D03*
X125520000Y-88138000D03*
X125520000Y-86868000D03*
X118320000Y-88138000D03*
X125520000Y-84328000D03*
X125520000Y-85598000D03*
X118320000Y-85598000D03*
D25*
X94680000Y-61180000D03*
X93680000Y-61180000D03*
D27*
X84570000Y-74630000D03*
X84570000Y-75630000D03*
D25*
X125120000Y-81870000D03*
X126120000Y-81870000D03*
D27*
X120190000Y-73470000D03*
X120190000Y-72470000D03*
D25*
X109670000Y-74370000D03*
X110670000Y-74370000D03*
X125120000Y-90510000D03*
X126120000Y-90510000D03*
X101440000Y-78570000D03*
X100440000Y-78570000D03*
X102590000Y-96230000D03*
X101590000Y-96230000D03*
X104840000Y-61180000D03*
X103840000Y-61180000D03*
X114220000Y-92580000D03*
X113220000Y-92580000D03*
X103410000Y-92580000D03*
X102410000Y-92580000D03*
X92630000Y-92580000D03*
X91630000Y-92580000D03*
X109920000Y-61180000D03*
X108920000Y-61180000D03*
X125530000Y-98240000D03*
X124530000Y-98240000D03*
X125530000Y-89610000D03*
X124530000Y-89610000D03*
X125520000Y-80970000D03*
X124520000Y-80970000D03*
X98516000Y-82692000D03*
X99516000Y-82692000D03*
X115000000Y-61180000D03*
X114000000Y-61180000D03*
D27*
X115010000Y-86420000D03*
X115010000Y-85420000D03*
X114240000Y-74920000D03*
X114240000Y-73920000D03*
D25*
X107970000Y-67640000D03*
X106970000Y-67640000D03*
X89800000Y-53240000D03*
X88800000Y-53240000D03*
X89600000Y-61180000D03*
X88600000Y-61180000D03*
D28*
X95198500Y-63530000D03*
X95198500Y-63130000D03*
X95198500Y-62730000D03*
X95198500Y-62330000D03*
D29*
X94580000Y-62111500D03*
X94180000Y-62111500D03*
X93780000Y-62111500D03*
X93380000Y-62111500D03*
D28*
X92761500Y-62330000D03*
X92761500Y-62730000D03*
X92761500Y-63130000D03*
X92761500Y-63530000D03*
D29*
X93380000Y-63748500D03*
X93780000Y-63748500D03*
X94180000Y-63748500D03*
X94580000Y-63748500D03*
D28*
X105358500Y-63530000D03*
X105358500Y-63130000D03*
X105358500Y-62730000D03*
X105358500Y-62330000D03*
D29*
X104740000Y-62111500D03*
X104340000Y-62111500D03*
X103940000Y-62111500D03*
X103540000Y-62111500D03*
D28*
X102921500Y-62330000D03*
X102921500Y-62730000D03*
X102921500Y-63130000D03*
X102921500Y-63530000D03*
D29*
X103540000Y-63748500D03*
X103940000Y-63748500D03*
X104340000Y-63748500D03*
X104740000Y-63748500D03*
D28*
X110438500Y-63530000D03*
X110438500Y-63130000D03*
X110438500Y-62730000D03*
X110438500Y-62330000D03*
D29*
X109820000Y-62111500D03*
X109420000Y-62111500D03*
X109020000Y-62111500D03*
X108620000Y-62111500D03*
D28*
X108001500Y-62330000D03*
X108001500Y-62730000D03*
X108001500Y-63130000D03*
X108001500Y-63530000D03*
D29*
X108620000Y-63748500D03*
X109020000Y-63748500D03*
X109420000Y-63748500D03*
X109820000Y-63748500D03*
D28*
X115518500Y-63530000D03*
X115518500Y-63130000D03*
X115518500Y-62730000D03*
X115518500Y-62330000D03*
D29*
X114900000Y-62111500D03*
X114500000Y-62111500D03*
X114100000Y-62111500D03*
X113700000Y-62111500D03*
D28*
X113081500Y-62330000D03*
X113081500Y-62730000D03*
X113081500Y-63130000D03*
X113081500Y-63530000D03*
D29*
X113700000Y-63748500D03*
X114100000Y-63748500D03*
X114500000Y-63748500D03*
X114900000Y-63748500D03*
D28*
X90118500Y-55590000D03*
X90118500Y-55190000D03*
X90118500Y-54790000D03*
X90118500Y-54390000D03*
D29*
X89500000Y-54171500D03*
X89100000Y-54171500D03*
X88700000Y-54171500D03*
X88300000Y-54171500D03*
D28*
X87681500Y-54390000D03*
X87681500Y-54790000D03*
X87681500Y-55190000D03*
X87681500Y-55590000D03*
D29*
X88300000Y-55808500D03*
X88700000Y-55808500D03*
X89100000Y-55808500D03*
X89500000Y-55808500D03*
D28*
X90118500Y-63530000D03*
X90118500Y-63130000D03*
X90118500Y-62730000D03*
X90118500Y-62330000D03*
D29*
X89500000Y-62111500D03*
X89100000Y-62111500D03*
X88700000Y-62111500D03*
X88300000Y-62111500D03*
D28*
X87681500Y-62330000D03*
X87681500Y-62730000D03*
X87681500Y-63130000D03*
X87681500Y-63530000D03*
D29*
X88300000Y-63748500D03*
X88700000Y-63748500D03*
X89100000Y-63748500D03*
X89500000Y-63748500D03*
D19*
X112610000Y-92580000D03*
X101800000Y-92580000D03*
X91020000Y-92580000D03*
X100556500Y-79823500D03*
X99990000Y-80710000D03*
X99413500Y-79823500D03*
X109786500Y-72223500D03*
X109220000Y-73110000D03*
X108643500Y-72223500D03*
X109430000Y-84330000D03*
X111890000Y-94940000D03*
X111320500Y-94053500D03*
X112463500Y-94053500D03*
X100970000Y-94930000D03*
X101536500Y-94043500D03*
X100393500Y-94043500D03*
X91640000Y-57010000D03*
X86560000Y-57010000D03*
X89100000Y-56400000D03*
X123920000Y-96400000D03*
X88570000Y-72020000D03*
X86270000Y-97100000D03*
X97070000Y-97110000D03*
X122530000Y-69072000D03*
X92228079Y-74420560D03*
X107970000Y-68340000D03*
X117860000Y-89600000D03*
X123920000Y-98240000D03*
X124240000Y-78230000D03*
X117860000Y-90660000D03*
X115705363Y-86428523D03*
X108080000Y-85730000D03*
X105460000Y-87360000D03*
X105460000Y-82880000D03*
X105460000Y-86620000D03*
X105460000Y-83620000D03*
X105460000Y-84360000D03*
X105460000Y-85880000D03*
X105460000Y-85120000D03*
X107930000Y-82880000D03*
X106280000Y-82880000D03*
X107110000Y-82880000D03*
X107930000Y-83620000D03*
X108640000Y-84330000D03*
X109430000Y-86620000D03*
X109430000Y-85120000D03*
X109430000Y-85880000D03*
X108690000Y-86620000D03*
X108490000Y-87360000D03*
X102130000Y-82030000D03*
X99960000Y-87360000D03*
X100820000Y-87360000D03*
X102130000Y-85880000D03*
X102130000Y-85100000D03*
X102130000Y-84330000D03*
X102130000Y-83560000D03*
X102130000Y-82790000D03*
X97860000Y-82030000D03*
X101280000Y-82030000D03*
X98710000Y-82030000D03*
X99560000Y-82030000D03*
X100430000Y-82030000D03*
X97860000Y-83560000D03*
X97860000Y-82790000D03*
X97860000Y-84330000D03*
X97860000Y-85100000D03*
X97860000Y-85880000D03*
X97860000Y-86660000D03*
X98264000Y-87360000D03*
X100820000Y-86440000D03*
X101370000Y-85890000D03*
X118990000Y-60230000D03*
X109732999Y-64350000D03*
X114395067Y-60094933D03*
X114810000Y-64680000D03*
X116840000Y-58180000D03*
X112030000Y-64760000D03*
X103978500Y-64332002D03*
X99660000Y-64340000D03*
X106678500Y-56889933D03*
X112110000Y-56900000D03*
X109337011Y-59530000D03*
X104097011Y-59640000D03*
X99267218Y-60132782D03*
X101810000Y-56890000D03*
X96790000Y-56890000D03*
X94200000Y-60170000D03*
X120126011Y-77876979D03*
X123480000Y-77030000D03*
X119010000Y-68570000D03*
X124860000Y-68570000D03*
X118320000Y-75020000D03*
X113550000Y-74670000D03*
X91830000Y-61620000D03*
X94180000Y-64340000D03*
X89062969Y-60170000D03*
X90410000Y-53240000D03*
X84010000Y-53820000D03*
X108670000Y-82880000D03*
X115820000Y-70630000D03*
X93860000Y-87530000D03*
X109960000Y-89680000D03*
X90300000Y-94930000D03*
X89730500Y-94043500D03*
X90873500Y-94043500D03*
X123807320Y-89138333D03*
X123767998Y-79730000D03*
X126680000Y-81380000D03*
X123920000Y-86760000D03*
X96720000Y-89690000D03*
X86960000Y-50660000D03*
X91830000Y-85300000D03*
X85462998Y-85920000D03*
X83550000Y-59120000D03*
X126140000Y-88840000D03*
X91810000Y-78940000D03*
X102470000Y-68760000D03*
X117860000Y-81030000D03*
X126680001Y-91204854D03*
X102460000Y-89680000D03*
X94713998Y-66880000D03*
X116764538Y-79644538D03*
X116462998Y-83765999D03*
X116400000Y-94480000D03*
X89660000Y-64330000D03*
X87000000Y-71240000D03*
X83510000Y-73130000D03*
X116460000Y-92960000D03*
X107860000Y-95810000D03*
X103437000Y-83560000D03*
X123720000Y-94690000D03*
X122980000Y-93950000D03*
X122980000Y-94690000D03*
X123720000Y-93950000D03*
X123050000Y-74480000D03*
X125830000Y-74200000D03*
X87460000Y-78530000D03*
X124367998Y-94320000D03*
X116830000Y-76370000D03*
X117120000Y-90660000D03*
X116484328Y-90017208D03*
X114130000Y-87300000D03*
X114660000Y-87830000D03*
X124367998Y-84680000D03*
X123520000Y-71070000D03*
X87900000Y-75130000D03*
X113550000Y-73920000D03*
X92229176Y-75419750D03*
X106970936Y-68332997D03*
X126140000Y-98240000D03*
X115705696Y-85414263D03*
X111320000Y-86670000D03*
X103220000Y-89680000D03*
X106820000Y-84140000D03*
X102050000Y-90410000D03*
X116130000Y-60830000D03*
X111040000Y-60830000D03*
X108920000Y-60520000D03*
X106580000Y-60170000D03*
X103230000Y-61180000D03*
X101490000Y-60170000D03*
X98150000Y-61180000D03*
X96320000Y-60720000D03*
X93070000Y-61180000D03*
X111920000Y-69160000D03*
X125810000Y-69550000D03*
X90880000Y-60840000D03*
X87990000Y-61180000D03*
X88800000Y-52570000D03*
X86356886Y-59846886D03*
X113400000Y-61090000D03*
X116120000Y-68310000D03*
X113310000Y-90630000D03*
X93240000Y-92580000D03*
X104030000Y-92580000D03*
X114830000Y-92580000D03*
X122980000Y-85050000D03*
X122980000Y-84310000D03*
X123720000Y-85050000D03*
X123720000Y-84310000D03*
X126680000Y-80640000D03*
X126140000Y-89610000D03*
X97716000Y-89686000D03*
X91810000Y-87530000D03*
X84560000Y-55130000D03*
X91810000Y-81030000D03*
X101470000Y-68760000D03*
X96130000Y-68430990D03*
X117120000Y-81030000D03*
X116770000Y-78900000D03*
X84130000Y-69780000D03*
X88570000Y-71020000D03*
X84130000Y-70520000D03*
X85990000Y-90990000D03*
X107210000Y-89680000D03*
X110960000Y-89680000D03*
X113310000Y-89680000D03*
X129385000Y-62035000D03*
X128640000Y-62060000D03*
X127890000Y-62060000D03*
X123980000Y-92270000D03*
X123980000Y-93010000D03*
X123240000Y-93010000D03*
X124720000Y-92270000D03*
X125460000Y-92270000D03*
X130800000Y-55610000D03*
X129450000Y-56960000D03*
X130125000Y-56285000D03*
X124100000Y-82640000D03*
X124840000Y-82640000D03*
X124100000Y-83380000D03*
X124840000Y-83380000D03*
X123360000Y-83380000D03*
X106950000Y-87360000D03*
X98720000Y-85940000D03*
X106210000Y-87360000D03*
X124155000Y-87505000D03*
X126500000Y-87500000D03*
X103295998Y-56890000D03*
X104740000Y-63130000D03*
X104172999Y-56890000D03*
X123480000Y-76270000D03*
X102200000Y-58620000D03*
X102920000Y-59910000D03*
X100040000Y-56890000D03*
X107280000Y-58620000D03*
X106720000Y-63640000D03*
X105050000Y-56890000D03*
X98460000Y-63130000D03*
X100280000Y-61865498D03*
X101510000Y-63740000D03*
X112720000Y-66160000D03*
X108160000Y-56890000D03*
X109820000Y-63130000D03*
X109337011Y-56890000D03*
X99660000Y-63130000D03*
X99160000Y-56890000D03*
X93190000Y-57020000D03*
X111759155Y-58174169D03*
X111120000Y-56900000D03*
X114900000Y-63130000D03*
X114040000Y-56900000D03*
X99590000Y-89680000D03*
X96850000Y-91934990D03*
X97800000Y-81110000D03*
X107030000Y-73570000D03*
X118170000Y-74210000D03*
X120740000Y-97762000D03*
X95340000Y-92828991D03*
X87040000Y-79780000D03*
X100340000Y-89680000D03*
X97590000Y-91934990D03*
X97800000Y-80370000D03*
X118170000Y-73470000D03*
X118980000Y-74210000D03*
X120000000Y-97450000D03*
X95961991Y-92381991D03*
X107030000Y-72830000D03*
X86570000Y-79200000D03*
X90710000Y-85170000D03*
X94730000Y-80700000D03*
X88860000Y-79490000D03*
X89410000Y-80740000D03*
X92200000Y-83680000D03*
X98272990Y-56890000D03*
X112360000Y-58620000D03*
X110610000Y-64340000D03*
X107460000Y-65420000D03*
X108210000Y-66160000D03*
X115520000Y-61865498D03*
X126680000Y-85600000D03*
X126680000Y-76960000D03*
X126680000Y-94230000D03*
X116160000Y-87020000D03*
X88510000Y-82910000D03*
X88510000Y-83800000D03*
X88510000Y-84710000D03*
X88510000Y-85600000D03*
X87880000Y-86060000D03*
X87880000Y-82520000D03*
X86720000Y-88320000D03*
X88510000Y-86510000D03*
X88510000Y-87410000D03*
X120470000Y-83310000D03*
X121680000Y-77020000D03*
X96520845Y-58174169D03*
X95880000Y-56890000D03*
X97720000Y-66160000D03*
X97104094Y-65505906D03*
X101000000Y-58620000D03*
X99980000Y-65610000D03*
X98490000Y-65610000D03*
X102550000Y-56890000D03*
X104710000Y-68910000D03*
X105210000Y-64680000D03*
X105210000Y-68360000D03*
X105210000Y-65420000D03*
X106080000Y-58620000D03*
X105710000Y-68910000D03*
X106210000Y-68360000D03*
X106720000Y-65420000D03*
X107900000Y-60170000D03*
X107420000Y-56890000D03*
X98830000Y-68770000D03*
X90840000Y-58620000D03*
X90220000Y-57030000D03*
X92050000Y-58610000D03*
X99700000Y-68770000D03*
X93190000Y-59430000D03*
X92020000Y-71820000D03*
X94580000Y-63130000D03*
X94125998Y-56890000D03*
X98220000Y-68350000D03*
X95200000Y-61860000D03*
X117440000Y-58620000D03*
X117440000Y-56900000D03*
X90580000Y-63920000D03*
X88700000Y-64340000D03*
X88900962Y-62683705D03*
X88300000Y-63120000D03*
X86359155Y-58174169D03*
X92575913Y-51055913D03*
X89500000Y-55200000D03*
X91040000Y-52680000D03*
X87097998Y-55590000D03*
X93835471Y-51065471D03*
X86360845Y-51824169D03*
X87700000Y-50660000D03*
X99220000Y-87360000D03*
X92200000Y-76170000D03*
X87000000Y-71980000D03*
X116749981Y-64760000D03*
X118302031Y-66310000D03*
X114300845Y-62684169D03*
X118302031Y-65570000D03*
X112858629Y-56897616D03*
X84598455Y-73147793D03*
X106860000Y-71760000D03*
X113400000Y-60350000D03*
X88034713Y-73142327D03*
X106120000Y-71760000D03*
X113530000Y-71430000D03*
X115300000Y-56900000D03*
X89500000Y-63130000D03*
X87650000Y-64210000D03*
X95730000Y-77660000D03*
X88300000Y-55180000D03*
X91050000Y-54080000D03*
X92200000Y-76910000D03*
X91247061Y-73323000D03*
X85140000Y-57340000D03*
X86960000Y-58620000D03*
X101600845Y-58174169D03*
X100922999Y-56890000D03*
X106680845Y-58174169D03*
X105790000Y-56890000D03*
X85130000Y-50990000D03*
X86960000Y-52270000D03*
X94490000Y-81410000D03*
X99060845Y-62684169D03*
X98110000Y-64340000D03*
X110750000Y-69150000D03*
X97840000Y-61860000D03*
X98850000Y-64340000D03*
X109960000Y-68798500D03*
X97120000Y-58620000D03*
X102471192Y-60669692D03*
X95002999Y-56890000D03*
X97530000Y-56890000D03*
X95060000Y-77330000D03*
X96580000Y-64980000D03*
X94400000Y-77670000D03*
X95060000Y-75880000D03*
X95946164Y-63646164D03*
X110900000Y-66160000D03*
X108620000Y-63130000D03*
X110440000Y-61865498D03*
X110154500Y-66160000D03*
X109220845Y-62684169D03*
X108000000Y-61860000D03*
X103710000Y-68910000D03*
X103540000Y-63130000D03*
X105360000Y-61860000D03*
X106090000Y-64030000D03*
X104210000Y-68360000D03*
X104139155Y-62684169D03*
X103200000Y-68360000D03*
X102920000Y-61860000D03*
X94490000Y-83630000D03*
X89408193Y-79991807D03*
X98220000Y-69210000D03*
X113540000Y-83050000D03*
X113538998Y-85720000D03*
X113540000Y-86670000D03*
X87250000Y-92580000D03*
X103820000Y-91480000D03*
X107880000Y-91468000D03*
X93080000Y-95120000D03*
X103870000Y-95120000D03*
X114680000Y-95120000D03*
X105860000Y-93930000D03*
X98050000Y-92580000D03*
X104660000Y-91920000D03*
X107040000Y-91920000D03*
X108840000Y-92580000D03*
X94400000Y-76670000D03*
X105716000Y-89676000D03*
X90431490Y-80555576D03*
X91750000Y-82670000D03*
X94490000Y-82150000D03*
X116410000Y-77590000D03*
X94490000Y-82890000D03*
X115817001Y-78042999D03*
X113538998Y-84770000D03*
X107710000Y-90230000D03*
X126680000Y-75690000D03*
X126680000Y-92960000D03*
X113537841Y-83795536D03*
X126680001Y-84330000D03*
X108220000Y-89680000D03*
X98050000Y-93860000D03*
X87250000Y-93850000D03*
X108840000Y-93850000D03*
X108837000Y-95123000D03*
X98050000Y-95120000D03*
X106360000Y-95122999D03*
X87250000Y-95120000D03*
X103870000Y-96390000D03*
X93080000Y-96390000D03*
X114670000Y-96390000D03*
X93080000Y-93850000D03*
X103870000Y-93860000D03*
X114680000Y-93850000D03*
X116240000Y-58620000D03*
X115720000Y-71670000D03*
X116610000Y-72010000D03*
X117350000Y-72010000D03*
X113530000Y-72170000D03*
X118560067Y-56900067D03*
X113530000Y-70670000D03*
X113530000Y-69930000D03*
X113099999Y-61850000D03*
X97370000Y-64340000D03*
X100940000Y-64770000D03*
X95920000Y-58620000D03*
X100720000Y-65610000D03*
X96723566Y-59831515D03*
X115720000Y-73660000D03*
X115720000Y-72670000D03*
X115720000Y-84670000D03*
X112210000Y-68360000D03*
X120430000Y-79420000D03*
X109220000Y-87490000D03*
X108720000Y-90230000D03*
X120733104Y-88747989D03*
X111160000Y-58620000D03*
X103210000Y-66080000D03*
X109360000Y-69820000D03*
X108200000Y-65420000D03*
X110240000Y-56900000D03*
X109360000Y-70780000D03*
X111760000Y-60170000D03*
X102470000Y-66080000D03*
X92430000Y-57010000D03*
X102410000Y-73520000D03*
X92124500Y-66170000D03*
X93001500Y-66170000D03*
X103060000Y-72870000D03*
X103150000Y-73610000D03*
X92563000Y-65080000D03*
X102510000Y-74260000D03*
X91440000Y-58180000D03*
X91686000Y-65080000D03*
X104364094Y-71564094D03*
X95200000Y-64270000D03*
X93976928Y-62684727D03*
X104450000Y-72300000D03*
X103800000Y-72970000D03*
X92720000Y-61850000D03*
X93440000Y-65080000D03*
X103694094Y-72234094D03*
X94250000Y-65430000D03*
X91247500Y-66170000D03*
X101770000Y-74170000D03*
X90120000Y-61850000D03*
X90809000Y-65080000D03*
X101870000Y-74910000D03*
X101130000Y-74840000D03*
X90370500Y-66170000D03*
X87680000Y-61860000D03*
X101230000Y-75580000D03*
X89932000Y-65080000D03*
X100540000Y-76210000D03*
X88730000Y-66170000D03*
X88910853Y-54746556D03*
X100480000Y-75470000D03*
X89470000Y-66170000D03*
X91270000Y-71610000D03*
X97220000Y-76780000D03*
X99150000Y-76800000D03*
X91804387Y-71094387D03*
X87570000Y-57330000D03*
X96220000Y-78901011D03*
X99800000Y-76130000D03*
X90983056Y-68925258D03*
X99890000Y-76870000D03*
X90233832Y-68796168D03*
X85760000Y-58620000D03*
X95716000Y-79544000D03*
X95220000Y-80100000D03*
X88200000Y-51210000D03*
X86760000Y-53480000D03*
X87570000Y-56590000D03*
X96710000Y-77670001D03*
X85020957Y-54550000D03*
X94670000Y-85810000D03*
X85760000Y-52270000D03*
X94670000Y-85040000D03*
X133375000Y-60585000D03*
X132600000Y-61910000D03*
X133900000Y-60060000D03*
X130800000Y-59460000D03*
X130800000Y-60410000D03*
X130800000Y-61360000D03*
X130150000Y-99060000D03*
X130150000Y-99800000D03*
X130150000Y-100540000D03*
X130150000Y-95070000D03*
X130150000Y-94330000D03*
X130150000Y-93590000D03*
X88020000Y-74160000D03*
X111280000Y-74370000D03*
X122190000Y-75140000D03*
X126680001Y-82450000D03*
X126680000Y-91950000D03*
X102590000Y-97308000D03*
X118618000Y-98541011D03*
X112020000Y-74370000D03*
X124180000Y-75140000D03*
X111650000Y-73720000D03*
X84867998Y-69010000D03*
X84870000Y-68020000D03*
X103391981Y-81698019D03*
X102860000Y-81170000D03*
X102860000Y-82220000D03*
X106020000Y-96845000D03*
X106600000Y-97310000D03*
D38*
X122665000Y-81165000D02*
X122420000Y-81410000D01*
X121175000Y-81165000D02*
X121420000Y-81410000D01*
X120470000Y-81165000D02*
X121175000Y-81165000D01*
X122669000Y-89801000D02*
X122420000Y-90050000D01*
X123370000Y-89801000D02*
X122669000Y-89801000D01*
X121171000Y-89801000D02*
X121420000Y-90050000D01*
X120470000Y-89801000D02*
X121171000Y-89801000D01*
X101286500Y-94738000D02*
X101092000Y-94932500D01*
X101842000Y-93738000D02*
X101536500Y-94043500D01*
X102415000Y-93738000D02*
X101842000Y-93738000D01*
X101731000Y-94238000D02*
X101536500Y-94043500D01*
X102415000Y-94238000D02*
X101731000Y-94238000D01*
X100088000Y-93738000D02*
X100393500Y-94043500D01*
X99515000Y-93738000D02*
X100088000Y-93738000D01*
X100965000Y-95605000D02*
X101590000Y-96230000D01*
X100965000Y-94488000D02*
X100965000Y-95605000D01*
X120590000Y-72470000D02*
X121040000Y-72020000D01*
X120190000Y-72470000D02*
X120590000Y-72470000D01*
X122690000Y-71270000D02*
X121940000Y-72020000D01*
X122690000Y-70570000D02*
X122690000Y-71270000D01*
X121690000Y-72270000D02*
X121940000Y-72020000D01*
X121690000Y-73470000D02*
X121690000Y-72270000D01*
X122690000Y-72770000D02*
X121940000Y-72020000D01*
X122690000Y-73470000D02*
X122690000Y-72770000D01*
X84970000Y-75630000D02*
X85420000Y-76080000D01*
X84570000Y-75630000D02*
X84970000Y-75630000D01*
X85845000Y-76580000D02*
X86320000Y-76580000D01*
X85570000Y-76855000D02*
X85845000Y-76580000D01*
X85570000Y-77530000D02*
X85570000Y-76855000D01*
D39*
X93860000Y-86920000D02*
X93860000Y-86860000D01*
D38*
X107970000Y-67640000D02*
X107970000Y-68340000D01*
X122845000Y-81165000D02*
X122665000Y-81165000D01*
X123370000Y-81165000D02*
X122845000Y-81165000D01*
D40*
X118320000Y-84328000D02*
X117792000Y-84328000D01*
D38*
X115010000Y-86420000D02*
X115696840Y-86420000D01*
X115696840Y-86420000D02*
X115705363Y-86428523D01*
D39*
X107420000Y-86440000D02*
X107420000Y-86390000D01*
X107420000Y-86390000D02*
X108080000Y-85730000D01*
X107320000Y-83540000D02*
X107320000Y-83590000D01*
X108640000Y-84330000D02*
X108640000Y-84330000D01*
X107400000Y-83620000D02*
X107320000Y-83540000D01*
X107930000Y-83620000D02*
X107400000Y-83620000D01*
X100430000Y-82656000D02*
X100466000Y-82692000D01*
X100430000Y-82030000D02*
X100430000Y-82656000D01*
X99560000Y-82648000D02*
X99516000Y-82692000D01*
X99560000Y-82030000D02*
X99560000Y-82648000D01*
X97860000Y-84280000D02*
X97860000Y-84330000D01*
X101380000Y-85880000D02*
X101370000Y-85890000D01*
D38*
X101215000Y-94738000D02*
X100965000Y-94488000D01*
X102415000Y-94738000D02*
X101215000Y-94738000D01*
X122170000Y-90301000D02*
X121920000Y-90551000D01*
X123370000Y-90301000D02*
X122170000Y-90301000D01*
X101440000Y-80520000D02*
X100240000Y-80520000D01*
X100240000Y-80020000D02*
X99990000Y-80270000D01*
X101440000Y-80020000D02*
X100240000Y-80020000D01*
X100440000Y-79820000D02*
X99990000Y-80270000D01*
X100440000Y-78570000D02*
X100440000Y-79820000D01*
X99240000Y-79520000D02*
X99990000Y-80270000D01*
X98540000Y-79520000D02*
X99240000Y-79520000D01*
X108470000Y-71920000D02*
X109220000Y-72670000D01*
X107770000Y-71920000D02*
X108470000Y-71920000D01*
X110670000Y-72920000D02*
X109470000Y-72920000D01*
X109670000Y-73120000D02*
X109220000Y-72670000D01*
X109670000Y-74370000D02*
X109670000Y-73120000D01*
X118320000Y-75692000D02*
X118320000Y-75020000D01*
D39*
X108640000Y-84330000D02*
X108690000Y-84330000D01*
D38*
X113990000Y-74670000D02*
X114240000Y-74920000D01*
X113550000Y-74670000D02*
X113990000Y-74670000D01*
X93860000Y-86920000D02*
X93860000Y-87530000D01*
X124530000Y-89610000D02*
X124278987Y-89610000D01*
X124278987Y-89610000D02*
X123807320Y-89138333D01*
X124520000Y-80970000D02*
X124520000Y-80482002D01*
X124520000Y-80482002D02*
X123767998Y-79730000D01*
X126190000Y-81870000D02*
X126680000Y-81380000D01*
X126120000Y-81870000D02*
X126190000Y-81870000D01*
X89062969Y-60170000D02*
X89558506Y-60665537D01*
X89600000Y-61180000D02*
X89600000Y-60707031D01*
X89600000Y-60707031D02*
X89558506Y-60665537D01*
X85462998Y-85920000D02*
X86065000Y-85920000D01*
X95580000Y-61180000D02*
X94680000Y-61180000D01*
X96130000Y-61730000D02*
X95580000Y-61180000D01*
X94680000Y-60650000D02*
X94200000Y-60170000D01*
X94680000Y-61180000D02*
X94680000Y-60650000D01*
X91830000Y-62230000D02*
X91830000Y-61620000D01*
X89800000Y-53240000D02*
X90410000Y-53240000D01*
X110470000Y-61180000D02*
X111020000Y-61730000D01*
X111020000Y-61730000D02*
X111370000Y-61730000D01*
X109920000Y-61180000D02*
X110470000Y-61180000D01*
X109920000Y-60112989D02*
X109337011Y-59530000D01*
X109920000Y-61180000D02*
X109920000Y-60112989D01*
X115000000Y-60699866D02*
X114395067Y-60094933D01*
X115000000Y-61180000D02*
X115000000Y-60699866D01*
X115640000Y-61180000D02*
X115000000Y-61180000D01*
X116450000Y-61730000D02*
X116190000Y-61730000D01*
X116190000Y-61730000D02*
X115640000Y-61180000D01*
X112028000Y-64762000D02*
X112030000Y-64760000D01*
X111370000Y-64762000D02*
X112028000Y-64762000D01*
X114200000Y-64680000D02*
X114810000Y-64680000D01*
X105740000Y-61180000D02*
X106290000Y-61730000D01*
X104840000Y-61180000D02*
X105740000Y-61180000D01*
X104840000Y-60382989D02*
X104097011Y-59640000D01*
X104840000Y-61180000D02*
X104840000Y-60382989D01*
X91050000Y-56420000D02*
X91640000Y-57010000D01*
X91050000Y-55690000D02*
X91050000Y-56420000D01*
X92228639Y-74420000D02*
X92228079Y-74420560D01*
X92920000Y-74420000D02*
X92228639Y-74420000D01*
X124530000Y-98240000D02*
X123920000Y-98240000D01*
D41*
X89100000Y-55808500D02*
X89100000Y-56400000D01*
X94180000Y-64340000D02*
X94180000Y-63748500D01*
X104131600Y-64332002D02*
X103978500Y-64332002D01*
X104340000Y-64123602D02*
X104131600Y-64332002D01*
X104340000Y-63748500D02*
X104340000Y-64123602D01*
D38*
X99760000Y-60625564D02*
X99267218Y-60132782D01*
X99760000Y-61180000D02*
X99760000Y-60625564D01*
X99760000Y-61180000D02*
X100660000Y-61180000D01*
X100660000Y-61180000D02*
X101210000Y-61730000D01*
D41*
X99260000Y-64070000D02*
X99260000Y-63748500D01*
X99530000Y-64340000D02*
X99260000Y-64070000D01*
X99660000Y-64340000D02*
X99530000Y-64340000D01*
X109420000Y-64037001D02*
X109732999Y-64350000D01*
X109420000Y-63748500D02*
X109420000Y-64037001D01*
X114500000Y-64380000D02*
X114200000Y-64680000D01*
X114500000Y-63748500D02*
X114500000Y-64380000D01*
D42*
X102470000Y-67145000D02*
X102695000Y-66920000D01*
X102470000Y-68100000D02*
X102470000Y-67145000D01*
D40*
X102470000Y-68100000D02*
X102470000Y-68760000D01*
X92065000Y-79195000D02*
X91810000Y-78940000D01*
X92650000Y-79195000D02*
X92065000Y-79195000D01*
X113220000Y-92580000D02*
X112610000Y-92580000D01*
X102410000Y-92580000D02*
X101800000Y-92580000D01*
X91630000Y-92580000D02*
X91020000Y-92580000D01*
D38*
X126200001Y-90510000D02*
X126120000Y-90510000D01*
X126120000Y-90510000D02*
X126120000Y-90644853D01*
X126120000Y-90644853D02*
X126680001Y-91204854D01*
D40*
X102460000Y-89680000D02*
X102460000Y-88970000D01*
X102460000Y-87945000D02*
X102085000Y-87570000D01*
X102460000Y-88970000D02*
X102460000Y-87945000D01*
X109960000Y-89055000D02*
X109745000Y-88840000D01*
X109960000Y-89680000D02*
X109960000Y-89055000D01*
X95243998Y-66350000D02*
X94713998Y-66880000D01*
X95430000Y-66350000D02*
X95243998Y-66350000D01*
X95083998Y-67250000D02*
X94713998Y-66880000D01*
X95430000Y-67250000D02*
X95083998Y-67250000D01*
X93845000Y-67748998D02*
X94713998Y-66880000D01*
X93845000Y-68430000D02*
X93845000Y-67748998D01*
X117757999Y-83765999D02*
X116462998Y-83765999D01*
X118320000Y-84328000D02*
X117757999Y-83765999D01*
D38*
X89660000Y-64330000D02*
X88840000Y-65000000D01*
X88840000Y-65000000D02*
X88650000Y-65000000D01*
D41*
X89660000Y-64330000D02*
X89387462Y-64340000D01*
X89100000Y-64052538D02*
X89100000Y-63748500D01*
X89387462Y-64340000D02*
X89100000Y-64052538D01*
D40*
X86075000Y-71580000D02*
X86415000Y-71240000D01*
X86415000Y-71240000D02*
X87000000Y-71240000D01*
X116474000Y-92964000D02*
X118320000Y-92964000D01*
X116460000Y-92960000D02*
X116474000Y-92964000D01*
X116484328Y-89654328D02*
X116484328Y-90017208D01*
X114660000Y-87830000D02*
X116484328Y-89654328D01*
X114130000Y-87300000D02*
X114660000Y-87830000D01*
X116484328Y-90017208D02*
X117120000Y-90660000D01*
D42*
X125520000Y-96774000D02*
X125520000Y-96770000D01*
D38*
X125520000Y-79502000D02*
X125191398Y-79502000D01*
X114240000Y-73920000D02*
X113550000Y-73920000D01*
X106970000Y-67640000D02*
X106970000Y-68332061D01*
X106970000Y-68332061D02*
X106970936Y-68332997D01*
X125520000Y-89600000D02*
X125530000Y-89610000D01*
X125520000Y-88138000D02*
X125520000Y-89600000D01*
X125530000Y-98240000D02*
X126140000Y-98240000D01*
X115010000Y-85420000D02*
X115699959Y-85420000D01*
X115699959Y-85420000D02*
X115705696Y-85414263D01*
X111930000Y-83830000D02*
X111930000Y-84770000D01*
X111930000Y-84770000D02*
X111930000Y-85720000D01*
X111930000Y-85720000D02*
X111930000Y-86670000D01*
X111930000Y-86670000D02*
X111320000Y-86670000D01*
X111930000Y-82880000D02*
X111930000Y-83830000D01*
D39*
X106320000Y-84840000D02*
X106220000Y-84940000D01*
X106320000Y-84130000D02*
X106320000Y-84840000D01*
X106320000Y-83540000D02*
X106320000Y-84130000D01*
X106330000Y-84140000D02*
X106320000Y-84130000D01*
X106820000Y-84140000D02*
X106330000Y-84140000D01*
D38*
X102832999Y-92002999D02*
X103410000Y-92580000D01*
X100917001Y-92002999D02*
X102832999Y-92002999D01*
X100340000Y-92580000D02*
X100917001Y-92002999D01*
X90127001Y-92002999D02*
X89550000Y-92580000D01*
X92052999Y-92002999D02*
X90127001Y-92002999D01*
X92630000Y-92580000D02*
X92052999Y-92002999D01*
X113642999Y-92002999D02*
X114220000Y-92580000D01*
X111717001Y-92002999D02*
X113642999Y-92002999D01*
X111140000Y-92580000D02*
X111717001Y-92002999D01*
X125520000Y-80290000D02*
X125520000Y-79502000D01*
X125520000Y-80970000D02*
X125520000Y-80290000D01*
X126350000Y-80970000D02*
X126680000Y-80640000D01*
X125520000Y-80970000D02*
X126350000Y-80970000D01*
X125530000Y-89610000D02*
X126140000Y-89610000D01*
D43*
X93780000Y-62111500D02*
X93780000Y-61280000D01*
X93780000Y-61280000D02*
X93680000Y-61180000D01*
D38*
X88600000Y-61180000D02*
X87990000Y-61180000D01*
D41*
X109020000Y-61280000D02*
X108920000Y-61180000D01*
X109020000Y-62111500D02*
X109020000Y-61280000D01*
D43*
X88700000Y-53340000D02*
X88800000Y-53240000D01*
X88700000Y-54171500D02*
X88700000Y-53340000D01*
D38*
X93680000Y-61180000D02*
X93070000Y-61180000D01*
X88800000Y-53240000D02*
X88800000Y-52570000D01*
X108920000Y-61180000D02*
X108920000Y-60520000D01*
X110970000Y-70780000D02*
X111920000Y-70780000D01*
X111920000Y-70780000D02*
X111920000Y-69820000D01*
X111920000Y-69820000D02*
X110970000Y-69820000D01*
X111920000Y-69820000D02*
X111920000Y-69160000D01*
X98760000Y-61180000D02*
X98150000Y-61180000D01*
X92229426Y-75420000D02*
X92229176Y-75419750D01*
X92920000Y-75420000D02*
X92229426Y-75420000D01*
X101440000Y-90410000D02*
X102050000Y-90410000D01*
X125520000Y-98230000D02*
X125530000Y-98240000D01*
X125520000Y-96774000D02*
X125520000Y-98230000D01*
D41*
X88700000Y-61280000D02*
X88600000Y-61180000D01*
X88700000Y-62111500D02*
X88700000Y-61280000D01*
X98860000Y-61280000D02*
X98860000Y-62111500D01*
X98760000Y-61180000D02*
X98860000Y-61280000D01*
X103940000Y-61280000D02*
X103840000Y-61180000D01*
X103940000Y-62111500D02*
X103940000Y-61280000D01*
D38*
X103840000Y-61180000D02*
X103230000Y-61180000D01*
D41*
X114100000Y-61280000D02*
X114000000Y-61180000D01*
X114100000Y-62111500D02*
X114100000Y-61280000D01*
D38*
X113910000Y-61090000D02*
X114000000Y-61180000D01*
X113400000Y-61090000D02*
X113910000Y-61090000D01*
D42*
X101470000Y-67145000D02*
X101245000Y-66920000D01*
X101470000Y-68100000D02*
X101470000Y-67145000D01*
D40*
X101470000Y-68100000D02*
X101470000Y-68760000D01*
X92195000Y-80645000D02*
X91810000Y-81030000D01*
X92650000Y-80645000D02*
X92195000Y-80645000D01*
D38*
X98440000Y-90410000D02*
X97716000Y-89686000D01*
X98490000Y-90410000D02*
X98440000Y-90410000D01*
D40*
X114220000Y-92580000D02*
X114830000Y-92580000D01*
X103410000Y-92580000D02*
X104030000Y-92580000D01*
X92630000Y-92580000D02*
X93240000Y-92580000D01*
X103220000Y-89210000D02*
X103460000Y-88970000D01*
X103220000Y-89680000D02*
X103220000Y-89210000D01*
X103460000Y-87945000D02*
X103835000Y-87570000D01*
X103460000Y-88970000D02*
X103460000Y-87945000D01*
X96430000Y-67250000D02*
X96430000Y-66350000D01*
X96430000Y-68130990D02*
X96130000Y-68430990D01*
X96430000Y-67250000D02*
X96430000Y-68130990D01*
X95295990Y-68430990D02*
X95295000Y-68430000D01*
X96130000Y-68430990D02*
X95295990Y-68430990D01*
X84130000Y-71385000D02*
X84325000Y-71580000D01*
X84130000Y-70520000D02*
X84130000Y-71385000D01*
D39*
X106197001Y-89974397D02*
X106491398Y-89680000D01*
X106197001Y-90891601D02*
X106197001Y-89974397D01*
X106151601Y-90937001D02*
X106197001Y-90891601D01*
X103694037Y-90937001D02*
X106151601Y-90937001D01*
X89642999Y-83387001D02*
X89642999Y-88178977D01*
X92947011Y-91482989D02*
X103148049Y-91482989D01*
X106491398Y-89680000D02*
X107210000Y-89680000D01*
X90120000Y-82910000D02*
X89642999Y-83387001D01*
X89642999Y-88178977D02*
X92947011Y-91482989D01*
X103148049Y-91482989D02*
X103694037Y-90937001D01*
D40*
X113310000Y-89680000D02*
X110960000Y-89680000D01*
X110960000Y-89075000D02*
X111195000Y-88840000D01*
X110960000Y-89680000D02*
X110960000Y-89075000D01*
D44*
X129360000Y-62060000D02*
X129385000Y-62035000D01*
X127890000Y-62060000D02*
X129360000Y-62060000D01*
X129425000Y-61995000D02*
X129385000Y-62035000D01*
X129425000Y-60610000D02*
X129425000Y-61995000D01*
D45*
X129450000Y-58335000D02*
X129425000Y-58360000D01*
X129450000Y-56960000D02*
X129450000Y-58335000D01*
X129450000Y-56960000D02*
X130800000Y-55610000D01*
X130800000Y-55610000D02*
X130800000Y-55610000D01*
D39*
X108054301Y-87064301D02*
X108054301Y-86605699D01*
X107758602Y-87360000D02*
X108054301Y-87064301D01*
X106950000Y-87360000D02*
X107758602Y-87360000D01*
X108720000Y-85940000D02*
X108770000Y-85940000D01*
X108054301Y-86605699D02*
X108720000Y-85940000D01*
X98516000Y-82692000D02*
X98516000Y-82746000D01*
X98516000Y-82746000D02*
X98760000Y-82990000D01*
X98760000Y-84593000D02*
X98721000Y-84632000D01*
X98760000Y-82990000D02*
X98760000Y-84593000D01*
X98720000Y-84633000D02*
X98721000Y-84632000D01*
X98720000Y-85940000D02*
X98720000Y-84633000D01*
X106216000Y-87354000D02*
X106210000Y-87360000D01*
X106210000Y-86450000D02*
X106220000Y-86440000D01*
X106210000Y-87360000D02*
X106210000Y-86450000D01*
X124160000Y-87500000D02*
X124155000Y-87505000D01*
X126500000Y-87500000D02*
X124160000Y-87500000D01*
D43*
X105409011Y-54570989D02*
X105402411Y-54570989D01*
X105409011Y-54310989D02*
X105409011Y-54570989D01*
X105770000Y-63130000D02*
X105358500Y-63130000D01*
X105833501Y-63193501D02*
X105770000Y-63130000D01*
X106803501Y-63150801D02*
X106760801Y-63193501D01*
X104807151Y-59312849D02*
X106803501Y-61309199D01*
X105409011Y-54310989D02*
X105409011Y-54564389D01*
X106803501Y-61309199D02*
X106803501Y-63150801D01*
X106760801Y-63193501D02*
X105833501Y-63193501D01*
X104611499Y-57100481D02*
X104611499Y-55361901D01*
X104611499Y-55361901D02*
X105409011Y-54564389D01*
X104807151Y-57296133D02*
X104611499Y-57100481D01*
X104807151Y-59312849D02*
X104807151Y-57296133D01*
X105409011Y-53453269D02*
X105409011Y-54310989D01*
X105856281Y-53005999D02*
X105409011Y-53453269D01*
X113163165Y-49864001D02*
X111472599Y-49864001D01*
X114132166Y-48895000D02*
X113163165Y-49864001D01*
X110490989Y-50845611D02*
X110490989Y-50969011D01*
X110489011Y-50970989D02*
X110489010Y-52024390D01*
X111472599Y-49864001D02*
X110490989Y-50845611D01*
X110490989Y-50969011D02*
X110489011Y-50970989D01*
X109809389Y-52704011D02*
X108632589Y-52704011D01*
X110489010Y-52024390D02*
X109809389Y-52704011D01*
X114300000Y-48895000D02*
X114132166Y-48895000D01*
X108632589Y-52704011D02*
X108330601Y-53005999D01*
X108330601Y-53005999D02*
X105856281Y-53005999D01*
X110189001Y-50465999D02*
X111760000Y-48895000D01*
X108508321Y-52404001D02*
X109685121Y-52404001D01*
X110189001Y-51900121D02*
X110189001Y-50465999D01*
X109685121Y-52404001D02*
X110189001Y-51900121D01*
X108508321Y-52404001D02*
X108252332Y-52659990D01*
X104172999Y-55376123D02*
X104172999Y-56890000D01*
X108206333Y-52705989D02*
X105732013Y-52705989D01*
X108508321Y-52404001D02*
X108206333Y-52705989D01*
X105732013Y-52705989D02*
X105109001Y-53329001D01*
X105109001Y-54440121D02*
X104172999Y-55376123D01*
X105109001Y-53329001D02*
X105109001Y-54440121D01*
D41*
X103940000Y-63373398D02*
X103940000Y-63748500D01*
X104721330Y-63148670D02*
X104164728Y-63148670D01*
X104164728Y-63148670D02*
X103940000Y-63373398D01*
X104740000Y-63130000D02*
X104721330Y-63148670D01*
D43*
X102476499Y-61284519D02*
X102476499Y-62613301D01*
X102593198Y-62730000D02*
X102921500Y-62730000D01*
X103358501Y-59129519D02*
X103358501Y-60402517D01*
X102476499Y-62613301D02*
X102593198Y-62730000D01*
X101361499Y-56071901D02*
X101361499Y-57132517D01*
X102869011Y-54564389D02*
X101361499Y-56071901D01*
X102869011Y-53300989D02*
X102869011Y-54564389D01*
X110189001Y-49360121D02*
X109385111Y-50164011D01*
X101361499Y-57132517D02*
X103358501Y-59129519D01*
X106214879Y-50465999D02*
X105409011Y-51271867D01*
X108632589Y-50164011D02*
X108330601Y-50465999D01*
X110189001Y-47925999D02*
X110189001Y-49360121D01*
X109385111Y-50164011D02*
X108632589Y-50164011D01*
X103465989Y-52704011D02*
X102869011Y-53300989D01*
X103358501Y-60402517D02*
X102476499Y-61284519D01*
X111760000Y-46355000D02*
X110189001Y-47925999D01*
X104729389Y-52704011D02*
X103465989Y-52704011D01*
X105409011Y-51271867D02*
X105409010Y-52024390D01*
X105409010Y-52024390D02*
X104729389Y-52704011D01*
X108330601Y-50465999D02*
X106214879Y-50465999D01*
D39*
X123480000Y-74718962D02*
X126450000Y-71748962D01*
X138685000Y-52960000D02*
X139700000Y-53975000D01*
X129100898Y-52960000D02*
X138685000Y-52960000D01*
X128557499Y-53503399D02*
X129100898Y-52960000D01*
X128557499Y-54042501D02*
X128557499Y-53503399D01*
X126450000Y-56150000D02*
X128557499Y-54042501D01*
X126450000Y-71748962D02*
X126450000Y-56150000D01*
X123480000Y-76270000D02*
X123480000Y-74718962D01*
D43*
X102920000Y-59340000D02*
X102200000Y-58620000D01*
X102920000Y-59910000D02*
X102920000Y-59340000D01*
X101210000Y-62730000D02*
X101210000Y-62590000D01*
X101210000Y-62590000D02*
X100590000Y-61970000D01*
X100590000Y-61970000D02*
X100485498Y-61865498D01*
X100485498Y-61865498D02*
X100280000Y-61865498D01*
D41*
X100278500Y-62730000D02*
X101210000Y-62730000D01*
X97841500Y-63130000D02*
X98460000Y-63130000D01*
D43*
X112636499Y-63246699D02*
X112636499Y-64116499D01*
X112636499Y-64116499D02*
X113200000Y-64680000D01*
X112753198Y-63130000D02*
X112636499Y-63246699D01*
X113081500Y-63130000D02*
X112753198Y-63130000D01*
X112720000Y-65160000D02*
X113200000Y-64680000D01*
X112720000Y-66160000D02*
X112720000Y-65160000D01*
X116614156Y-54200844D02*
X116840000Y-53975000D01*
X118410999Y-47925999D02*
X119380000Y-48895000D01*
X116374879Y-47925999D02*
X118410999Y-47925999D01*
X115869020Y-48431858D02*
X116374879Y-47925999D01*
X113029010Y-51271868D02*
X113834879Y-50465999D01*
X110789020Y-53511858D02*
X111596867Y-52704011D01*
X110789019Y-54730981D02*
X110789020Y-53511858D01*
X109337011Y-56890000D02*
X109337011Y-56182989D01*
X113834879Y-50465999D02*
X115011679Y-50465999D01*
X112349389Y-52704011D02*
X113029010Y-52024390D01*
X111596867Y-52704011D02*
X112349389Y-52704011D01*
X109337011Y-56182989D02*
X110789019Y-54730981D01*
X113029010Y-52024390D02*
X113029010Y-51271868D01*
X115011679Y-50465999D02*
X115869020Y-49608658D01*
X115869020Y-49608658D02*
X115869020Y-48431858D01*
D41*
X109244728Y-63148670D02*
X109801330Y-63148670D01*
X109020000Y-63373398D02*
X109244728Y-63148670D01*
X109801330Y-63148670D02*
X109820000Y-63130000D01*
X109020000Y-63748500D02*
X109020000Y-63373398D01*
D43*
X111883501Y-63150801D02*
X111883501Y-62896499D01*
X111840801Y-63193501D02*
X111883501Y-63150801D01*
X111883501Y-63050801D02*
X111883501Y-62896499D01*
X110438500Y-63130000D02*
X110762998Y-63130000D01*
X110762998Y-63130000D02*
X110826499Y-63193501D01*
X110826499Y-63193501D02*
X111840801Y-63193501D01*
X116169029Y-49565971D02*
X116840000Y-48895000D01*
X115269001Y-50632955D02*
X116169029Y-49732927D01*
X111883501Y-62896499D02*
X111883501Y-60856499D01*
X111883501Y-60856499D02*
X112198501Y-60541499D01*
X113588321Y-52404001D02*
X114765121Y-52404001D01*
X112198501Y-59928501D02*
X111328501Y-59058501D01*
X110681499Y-56689519D02*
X112730980Y-54640038D01*
X111328501Y-59058501D02*
X110949519Y-59058501D01*
X112730981Y-53261341D02*
X113588321Y-52404001D01*
X110949519Y-59058501D02*
X110681499Y-58790481D01*
X112730980Y-54640038D02*
X112730981Y-53261341D01*
X110681499Y-58790481D02*
X110681499Y-56689519D01*
X115269001Y-51900121D02*
X115269001Y-50632955D01*
X116169029Y-49732927D02*
X116169029Y-49565971D01*
X112198501Y-60541499D02*
X112198501Y-59928501D01*
X114765121Y-52404001D02*
X115269001Y-51900121D01*
X107673198Y-62730000D02*
X108001500Y-62730000D01*
X107556499Y-61162483D02*
X107556499Y-62613301D01*
X108598501Y-55708501D02*
X108598501Y-60120481D01*
X108250999Y-53509879D02*
X108250999Y-55360999D01*
X108754879Y-53005999D02*
X108250999Y-53509879D01*
X107556499Y-62613301D02*
X107673198Y-62730000D01*
X110789019Y-52148659D02*
X109931679Y-53005999D01*
X109931679Y-53005999D02*
X108754879Y-53005999D01*
X113587443Y-49864001D02*
X113287433Y-50164011D01*
X108598501Y-60120481D02*
X107556499Y-61162483D01*
X115269001Y-49360121D02*
X114765121Y-49864001D01*
X114765121Y-49864001D02*
X113587443Y-49864001D01*
X110789020Y-51120980D02*
X110789019Y-52148659D01*
X108250999Y-55360999D02*
X108598501Y-55708501D01*
X115269001Y-48139001D02*
X115269001Y-49360121D01*
X116840000Y-46355000D02*
X116840000Y-46568002D01*
X116840000Y-46568002D02*
X115269001Y-48139001D01*
X110790999Y-51119001D02*
X110789020Y-51120980D01*
X113287433Y-50164011D02*
X111596867Y-50164011D01*
X111596867Y-50164011D02*
X110790999Y-50969879D01*
X110790999Y-50969879D02*
X110790999Y-51119001D01*
X106400000Y-54255000D02*
X106680000Y-53975000D01*
X107649001Y-49360121D02*
X107649001Y-47925999D01*
X107145121Y-49864001D02*
X107649001Y-49360121D01*
X105895999Y-49864001D02*
X107145121Y-49864001D01*
X105294001Y-50465999D02*
X105895999Y-49864001D01*
X103674879Y-50465999D02*
X105294001Y-50465999D01*
X103170999Y-50969879D02*
X103674879Y-50465999D01*
X99260000Y-62111500D02*
X99260000Y-60774546D01*
X98828717Y-60343263D02*
X98828717Y-59922301D01*
X100630999Y-53509879D02*
X101134879Y-53005999D01*
X98828717Y-59922301D02*
X99601499Y-59149519D01*
X99260000Y-60774546D02*
X98828717Y-60343263D01*
X99601499Y-59149519D02*
X99601499Y-56679519D01*
X107649001Y-47925999D02*
X109220000Y-46355000D01*
X99601499Y-56679519D02*
X100630999Y-55650019D01*
X100630999Y-55650019D02*
X100630999Y-53509879D01*
X103170999Y-52146679D02*
X103170999Y-50969879D01*
X101134879Y-53005999D02*
X102311679Y-53005999D01*
X102311679Y-53005999D02*
X103170999Y-52146679D01*
X97396499Y-62689499D02*
X97437000Y-62730000D01*
X98711490Y-59615250D02*
X97396499Y-60930241D01*
X102065121Y-52404001D02*
X100888321Y-52404001D01*
X97396499Y-60930241D02*
X97396499Y-62689499D01*
X105109001Y-47925999D02*
X105109001Y-49360121D01*
X100888321Y-52404001D02*
X100029002Y-53263320D01*
X106680000Y-46355000D02*
X105109001Y-47925999D01*
X105109001Y-49360121D02*
X104605121Y-49864001D01*
X103428320Y-49864002D02*
X102569001Y-50723321D01*
X104605121Y-49864001D02*
X103428320Y-49864002D01*
X102569001Y-50723321D02*
X102569001Y-51900121D01*
X102569001Y-51900121D02*
X102065121Y-52404001D01*
X97437000Y-62730000D02*
X97841500Y-62730000D01*
X98711490Y-56464232D02*
X98711490Y-59615250D01*
X100029002Y-53263320D02*
X100029002Y-55146720D01*
X100029002Y-55146720D02*
X98711490Y-56464232D01*
X105998400Y-48895000D02*
X104729388Y-50164010D01*
X106680000Y-48895000D02*
X105998400Y-48895000D01*
X104729388Y-50164010D02*
X103552590Y-50164010D01*
X102869011Y-50847589D02*
X102869011Y-52024389D01*
X103552590Y-50164010D02*
X102869011Y-50847589D01*
X102869011Y-52024389D02*
X102189389Y-52704011D01*
X102189389Y-52704011D02*
X101012589Y-52704011D01*
X100329012Y-53387588D02*
X100329011Y-54564389D01*
X101012589Y-52704011D02*
X100329012Y-53387588D01*
X100330989Y-54566367D02*
X100329011Y-54564389D01*
X100330989Y-55269011D02*
X100330989Y-54566367D01*
X99160000Y-56890000D02*
X99160000Y-56440000D01*
X99160000Y-56440000D02*
X100330989Y-55269011D01*
D41*
X99641330Y-63148670D02*
X99660000Y-63130000D01*
X99084728Y-63148670D02*
X99641330Y-63148670D01*
X98860000Y-63373398D02*
X99084728Y-63148670D01*
X98860000Y-63748500D02*
X98860000Y-63373398D01*
D43*
X102402045Y-50465999D02*
X103973044Y-48895000D01*
X101134879Y-50465999D02*
X102402045Y-50465999D01*
X100630999Y-51298123D02*
X100630999Y-50969879D01*
X103973044Y-48895000D02*
X104140000Y-48895000D01*
X99525121Y-52404001D02*
X100630999Y-51298123D01*
X98985999Y-52404001D02*
X99525121Y-52404001D01*
X100630999Y-50969879D02*
X101134879Y-50465999D01*
X97489001Y-53900999D02*
X98985999Y-52404001D01*
X97489001Y-54440121D02*
X97489001Y-53900999D01*
X96355999Y-54944001D02*
X96985121Y-54944001D01*
X95441499Y-59198430D02*
X95441499Y-55858501D01*
X95441499Y-55858501D02*
X96355999Y-54944001D01*
X96758501Y-60515432D02*
X95441499Y-59198430D01*
X96985121Y-54944001D02*
X97489001Y-54440121D01*
X96758501Y-63035801D02*
X96758501Y-60515432D01*
X96600801Y-63193501D02*
X96758501Y-63035801D01*
X95198500Y-63130000D02*
X95632998Y-63130000D01*
X95632998Y-63130000D02*
X95696499Y-63193501D01*
X95696499Y-63193501D02*
X96600801Y-63193501D01*
X111759155Y-58174169D02*
X111714169Y-58174169D01*
X111759155Y-58174169D02*
X111759155Y-57539155D01*
X111759155Y-57539155D02*
X111120000Y-56900000D01*
X113597139Y-59917139D02*
X114500000Y-60820000D01*
X113597139Y-54767139D02*
X113597139Y-59917139D01*
X113330999Y-54500999D02*
X113597139Y-54767139D01*
X113330999Y-53519001D02*
X113330999Y-54500999D01*
X113844001Y-53005999D02*
X113330999Y-53519001D01*
X115869019Y-52148659D02*
X115011679Y-53005999D01*
X115869019Y-50971859D02*
X115869019Y-52148659D01*
X124460000Y-46355000D02*
X122889001Y-47925999D01*
X122889001Y-47925999D02*
X121454879Y-47925999D01*
X121454879Y-47925999D02*
X120649011Y-48731867D01*
X119969389Y-50164011D02*
X118792589Y-50164011D01*
X114500000Y-60820000D02*
X114500000Y-62111500D01*
X118255979Y-50464021D02*
X118254001Y-50465999D01*
X120649010Y-49484390D02*
X119969389Y-50164011D01*
X115011679Y-53005999D02*
X113844001Y-53005999D01*
X120649011Y-48731867D02*
X120649010Y-49484390D01*
X118792589Y-50164011D02*
X118492580Y-50464020D01*
X116374879Y-50465999D02*
X115869019Y-50971859D01*
X118492580Y-50464020D02*
X118255979Y-50464021D01*
X118254001Y-50465999D02*
X116374879Y-50465999D01*
X115880000Y-63130000D02*
X115518500Y-63130000D01*
X115943501Y-63193501D02*
X115880000Y-63130000D01*
X116920801Y-63193501D02*
X115943501Y-63193501D01*
X116963501Y-63150801D02*
X116920801Y-63193501D01*
X116963501Y-60842483D02*
X116963501Y-63150801D01*
X114591700Y-55541700D02*
X114591700Y-58470682D01*
X124460000Y-48895000D02*
X122889001Y-50465999D01*
X117729399Y-52404001D02*
X117429389Y-52704011D01*
X122889001Y-50465999D02*
X121454879Y-50465999D01*
X119845121Y-52404001D02*
X117729399Y-52404001D01*
X114591700Y-58470682D02*
X116963501Y-60842483D01*
X121454879Y-50465999D02*
X120349001Y-51571877D01*
X120349001Y-51571877D02*
X120349001Y-51900121D01*
X120349001Y-51900121D02*
X119845121Y-52404001D01*
X116165989Y-52704011D02*
X115569011Y-53300989D01*
X117429389Y-52704011D02*
X116165989Y-52704011D01*
X115569011Y-53300989D02*
X115569011Y-54564389D01*
X115569011Y-54564389D02*
X114591700Y-55541700D01*
X120360000Y-48430000D02*
X120360000Y-47915000D01*
X120349001Y-48440999D02*
X120360000Y-48430000D01*
X120349001Y-49360121D02*
X120349001Y-48440999D01*
X118368311Y-50164011D02*
X118668321Y-49864001D01*
X115569010Y-50757224D02*
X116162223Y-50164011D01*
X113081500Y-62730000D02*
X112753198Y-62730000D01*
X118668321Y-49864001D02*
X119845121Y-49864001D01*
X116162223Y-50164011D02*
X118368311Y-50164011D01*
X112885009Y-60739269D02*
X112885009Y-60019249D01*
X112636499Y-62613301D02*
X112636499Y-60987779D01*
X120360000Y-47915000D02*
X121920000Y-46355000D01*
X113297129Y-54891407D02*
X113030990Y-54625268D01*
X115569010Y-52024390D02*
X115569010Y-50757224D01*
X119845121Y-49864001D02*
X120349001Y-49360121D01*
X112753198Y-62730000D02*
X112636499Y-62613301D01*
X112636499Y-60987779D02*
X112885009Y-60739269D01*
X112885009Y-60019249D02*
X113297129Y-59607129D01*
X113030990Y-54625268D02*
X113030990Y-53385610D01*
X113030990Y-53385610D02*
X113712589Y-52704011D01*
X113712589Y-52704011D02*
X114889389Y-52704011D01*
X113297129Y-59607129D02*
X113297129Y-54891407D01*
X114889389Y-52704011D02*
X115569010Y-52024390D01*
X120349001Y-50465999D02*
X121920000Y-48895000D01*
X118914879Y-50465999D02*
X120349001Y-50465999D01*
X114040000Y-55669122D02*
X115269001Y-54440121D01*
X115269001Y-54440121D02*
X115269001Y-53172955D01*
X114040000Y-56900000D02*
X114040000Y-55669122D01*
X116037955Y-52404001D02*
X117305121Y-52404001D01*
X115269001Y-53172955D02*
X116037955Y-52404001D01*
X117305121Y-52404001D02*
X117809001Y-51900121D01*
X117809001Y-51900121D02*
X117809001Y-51571877D01*
X117809001Y-51571877D02*
X118914879Y-50465999D01*
D41*
X114243330Y-63148670D02*
X114881330Y-63148670D01*
X114100000Y-63292000D02*
X114243330Y-63148670D01*
X114881330Y-63148670D02*
X114900000Y-63130000D01*
X114100000Y-63748500D02*
X114100000Y-63292000D01*
D39*
X98940000Y-95238000D02*
X99515000Y-95238000D01*
X98502001Y-94800001D02*
X98940000Y-95238000D01*
X98502001Y-93643039D02*
X98502001Y-94800001D01*
X98248962Y-93390000D02*
X98502001Y-93643039D01*
X97728578Y-93390000D02*
X98248962Y-93390000D01*
X96850000Y-92511422D02*
X97728578Y-93390000D01*
X96850000Y-91934990D02*
X96850000Y-92511422D01*
X97890000Y-81020000D02*
X97800000Y-81110000D01*
X98540000Y-81020000D02*
X97890000Y-81020000D01*
X107770000Y-73420000D02*
X107180000Y-73420000D01*
X107180000Y-73420000D02*
X107030000Y-73570000D01*
X121131398Y-70570000D02*
X121190000Y-70570000D01*
X118622001Y-73079395D02*
X121131398Y-70570000D01*
X118622001Y-73757999D02*
X118622001Y-73079395D01*
X118170000Y-74210000D02*
X118622001Y-73757999D01*
X120470000Y-91301000D02*
X120470000Y-92007540D01*
X120362460Y-92007540D02*
X120328031Y-92041969D01*
X120470000Y-92007540D02*
X120362460Y-92007540D01*
X120362460Y-92007540D02*
X120740000Y-92385080D01*
X120740000Y-92385080D02*
X120740000Y-97762000D01*
X95745030Y-91929990D02*
X96845000Y-91929990D01*
X95340000Y-92335020D02*
X95745030Y-91929990D01*
X96845000Y-91929990D02*
X96850000Y-91934990D01*
X95340000Y-92828991D02*
X95340000Y-92335020D01*
X118601199Y-74641199D02*
X118170000Y-74210000D01*
D46*
X120097079Y-82665000D02*
X120470000Y-82665000D01*
X119555989Y-80706090D02*
X119555989Y-82123910D01*
X120395078Y-79867001D02*
X119555989Y-80706090D01*
X120877001Y-79634561D02*
X120644561Y-79867001D01*
X119555989Y-82123910D02*
X120097079Y-82665000D01*
X120644561Y-79867001D02*
X120395078Y-79867001D01*
X119833801Y-76563801D02*
X120877001Y-77607001D01*
X120877001Y-77607001D02*
X120877001Y-79634561D01*
X119833801Y-75706199D02*
X119833801Y-76563801D01*
X118826199Y-74866199D02*
X118601199Y-74641199D01*
X118993801Y-74866199D02*
X118826199Y-74866199D01*
X118993801Y-74866199D02*
X119833801Y-75706199D01*
X118170000Y-74210000D02*
X118826199Y-74866199D01*
D39*
X105240000Y-75360000D02*
X107030000Y-73570000D01*
X104950000Y-75360000D02*
X105240000Y-75360000D01*
X86977999Y-78313039D02*
X87070000Y-78221038D01*
X86977999Y-78772001D02*
X86977999Y-78313039D01*
X87040000Y-78834002D02*
X86977999Y-78772001D01*
X87070000Y-78221038D02*
X87070000Y-77530000D01*
X87040000Y-79780000D02*
X87040000Y-78834002D01*
D38*
X99490000Y-90410000D02*
X99490000Y-89780000D01*
X99490000Y-89780000D02*
X99590000Y-89680000D01*
D39*
X97590000Y-92788962D02*
X97590000Y-91934990D01*
X97833039Y-93032001D02*
X97590000Y-92788962D01*
X98940000Y-94738000D02*
X98912999Y-94710999D01*
X98912999Y-94710999D02*
X98912999Y-93406399D01*
X99515000Y-94738000D02*
X98940000Y-94738000D01*
X98912999Y-93406399D02*
X98538601Y-93032001D01*
X98538601Y-93032001D02*
X97833039Y-93032001D01*
X98540000Y-80520000D02*
X97950000Y-80520000D01*
X97950000Y-80520000D02*
X97800000Y-80370000D01*
X119867999Y-90969399D02*
X119867999Y-91867999D01*
X120470000Y-90801000D02*
X120036398Y-90801000D01*
X120036398Y-90801000D02*
X119867999Y-90969399D01*
X120001021Y-97448979D02*
X120000000Y-97450000D01*
X119867999Y-91867999D02*
X120001021Y-92001021D01*
X120001021Y-92001021D02*
X120001021Y-97448979D01*
X107120000Y-72920000D02*
X107030000Y-72830000D01*
X107770000Y-72920000D02*
X107120000Y-72920000D01*
D46*
X119236496Y-74653504D02*
X119236496Y-74466496D01*
X120150811Y-75567819D02*
X119236496Y-74653504D01*
X120150811Y-76432492D02*
X120150811Y-75567819D01*
X121194011Y-77475692D02*
X120150811Y-76432492D01*
X121194011Y-79765869D02*
X121194011Y-77475692D01*
X120526389Y-80184009D02*
X120775871Y-80184009D01*
X119872999Y-80837399D02*
X120526389Y-80184009D01*
X120775871Y-80184009D02*
X121194011Y-79765869D01*
X119872999Y-81992601D02*
X119872999Y-80837399D01*
X119236496Y-74466496D02*
X118980000Y-74210000D01*
X120045398Y-82165000D02*
X119872999Y-81992601D01*
X120470000Y-82165000D02*
X120045398Y-82165000D01*
D39*
X118170000Y-73068937D02*
X118170000Y-73470000D01*
X120730000Y-70508936D02*
X118170000Y-73068937D01*
X120907999Y-69967999D02*
X120730000Y-70145998D01*
X121521601Y-69967999D02*
X120907999Y-69967999D01*
X121690000Y-70136398D02*
X121521601Y-69967999D01*
X120730000Y-70145998D02*
X120730000Y-70508936D01*
X121690000Y-70570000D02*
X121690000Y-70136398D01*
X97200000Y-87780000D02*
X97200000Y-80970000D01*
X97200000Y-80970000D02*
X97800000Y-80370000D01*
X100340000Y-89680000D02*
X99102999Y-88442999D01*
X97862999Y-88442999D02*
X97200000Y-87780000D01*
X99102999Y-88442999D02*
X97862999Y-88442999D01*
X106300000Y-73560000D02*
X107030000Y-72830000D01*
X104950000Y-73560000D02*
X106300000Y-73560000D01*
X86570000Y-79200000D02*
X86570000Y-77530000D01*
D38*
X100440000Y-89780000D02*
X100340000Y-89680000D01*
X100440000Y-90410000D02*
X100440000Y-89780000D01*
D39*
X90270000Y-85610000D02*
X90710000Y-85170000D01*
X90120000Y-85610000D02*
X90270000Y-85610000D01*
X90332001Y-81700935D02*
X90924011Y-82292948D01*
X90924011Y-83905989D02*
X90120000Y-84710000D01*
X90924011Y-82292948D02*
X90924011Y-83905989D01*
X90332001Y-81700936D02*
X89910000Y-81278934D01*
X89910000Y-81278934D02*
X89910000Y-79854388D01*
X89545612Y-79490000D02*
X88860000Y-79490000D01*
X89910000Y-79854388D02*
X89545612Y-79490000D01*
X90597001Y-82428399D02*
X90597001Y-83332999D01*
X89880000Y-81711396D02*
X90597001Y-82428399D01*
X90597001Y-83332999D02*
X90120000Y-83810000D01*
X89410000Y-81241395D02*
X89880001Y-81711396D01*
X89410000Y-80740000D02*
X89410000Y-81241395D01*
X93860000Y-85340000D02*
X92200000Y-83680000D01*
X93860000Y-85920000D02*
X93860000Y-85340000D01*
D43*
X107949011Y-50165989D02*
X109220000Y-48895000D01*
X106090611Y-50165989D02*
X107949011Y-50165989D01*
X105109001Y-51900121D02*
X105109001Y-51147599D01*
X104605121Y-52404001D02*
X105109001Y-51900121D01*
X100278500Y-63130000D02*
X100650000Y-63130000D01*
X100650000Y-63130000D02*
X100713501Y-63193501D01*
X101723501Y-61052483D02*
X100484498Y-59813480D01*
X101680801Y-63193501D02*
X101723501Y-63150801D01*
X105109001Y-51147599D02*
X106090611Y-50165989D01*
X101723501Y-63150801D02*
X101723501Y-61052483D01*
X100484498Y-59813480D02*
X100484498Y-56524624D01*
X102569001Y-54440121D02*
X102569001Y-53172955D01*
X100713501Y-63193501D02*
X101680801Y-63193501D01*
X100484498Y-56524624D02*
X102569001Y-54440121D01*
X102569001Y-53172955D02*
X103337955Y-52404001D01*
X103337955Y-52404001D02*
X104605121Y-52404001D01*
X112584999Y-60615001D02*
X112584999Y-58844999D01*
X112584999Y-58844999D02*
X112360000Y-58620000D01*
X112229991Y-60970009D02*
X112584999Y-60615001D01*
X112229990Y-63228590D02*
X112229991Y-60970009D01*
X111696580Y-63762000D02*
X112229990Y-63228590D01*
X111370000Y-63762000D02*
X111696580Y-63762000D01*
D38*
X111188000Y-63762000D02*
X110610000Y-64340000D01*
X111370000Y-63762000D02*
X111188000Y-63762000D01*
D43*
X116450000Y-62730000D02*
X116450000Y-62590000D01*
X116450000Y-62590000D02*
X115725498Y-61865498D01*
X115725498Y-61865498D02*
X115520000Y-61865498D01*
D41*
X115518500Y-62730000D02*
X116450000Y-62730000D01*
D39*
X126668000Y-85598000D02*
X126670000Y-85600000D01*
D38*
X126676000Y-94234000D02*
X126680000Y-94230000D01*
X125520000Y-94234000D02*
X126676000Y-94234000D01*
X126678000Y-85598000D02*
X126680000Y-85600000D01*
X125520000Y-85598000D02*
X126678000Y-85598000D01*
X126678000Y-76962000D02*
X126680000Y-76960000D01*
X125520000Y-76962000D02*
X126678000Y-76962000D01*
D39*
X127800000Y-77150000D02*
X127780000Y-77150000D01*
X126870000Y-77150000D02*
X126680000Y-76960000D01*
X127800000Y-77150000D02*
X126870000Y-77150000D01*
X116420000Y-85760000D02*
X116410000Y-85750000D01*
X116410000Y-86770000D02*
X116160000Y-87020000D01*
X116410000Y-85750000D02*
X116410000Y-86770000D01*
D38*
X87215000Y-83920000D02*
X86065000Y-83920000D01*
D39*
X87500000Y-83920000D02*
X88510000Y-82910000D01*
X87215000Y-83920000D02*
X87500000Y-83920000D01*
X88510000Y-82910000D02*
X89120000Y-82910000D01*
X88520000Y-83810000D02*
X88510000Y-83800000D01*
X87890000Y-84420000D02*
X88510000Y-83800000D01*
X87215000Y-84420000D02*
X87890000Y-84420000D01*
D38*
X86065000Y-84420000D02*
X87215000Y-84420000D01*
D39*
X89110000Y-83800000D02*
X89120000Y-83810000D01*
X88510000Y-83800000D02*
X89110000Y-83800000D01*
X86065000Y-84920000D02*
X87215000Y-84920000D01*
X88300000Y-84920000D02*
X88510000Y-84710000D01*
X87215000Y-84920000D02*
X88300000Y-84920000D01*
X89120000Y-84710000D02*
X88510000Y-84710000D01*
X88330000Y-85420000D02*
X88510000Y-85600000D01*
X87215000Y-85420000D02*
X88330000Y-85420000D01*
D38*
X86065000Y-85420000D02*
X87215000Y-85420000D01*
D39*
X88520000Y-85610000D02*
X88510000Y-85600000D01*
X89120000Y-85610000D02*
X88520000Y-85610000D01*
D38*
X87740000Y-85920000D02*
X87880000Y-86060000D01*
X87215000Y-85920000D02*
X87740000Y-85920000D01*
X86065000Y-86420000D02*
X87215000Y-86420000D01*
D39*
X88507999Y-86512001D02*
X88510000Y-86510000D01*
X87663039Y-86512001D02*
X88507999Y-86512001D01*
X87571038Y-86420000D02*
X87663039Y-86512001D01*
X87215000Y-86420000D02*
X87571038Y-86420000D01*
X89120000Y-86510000D02*
X88510000Y-86510000D01*
X88020000Y-86920000D02*
X88510000Y-87410000D01*
X87215000Y-86920000D02*
X88020000Y-86920000D01*
D38*
X87215000Y-86920000D02*
X86065000Y-86920000D01*
D39*
X88520000Y-87420000D02*
X88510000Y-87410000D01*
X89120000Y-87420000D02*
X88520000Y-87420000D01*
D43*
X95880000Y-57533324D02*
X96520845Y-58174169D01*
X95880000Y-56890000D02*
X95880000Y-57533324D01*
X97275000Y-65715000D02*
X97720000Y-66160000D01*
X97150000Y-65590000D02*
X97275000Y-65715000D01*
X97104094Y-65544094D02*
X97720000Y-66160000D01*
X97104094Y-65505906D02*
X97104094Y-65544094D01*
X102023510Y-64955472D02*
X102023510Y-59643510D01*
X102023510Y-59643510D02*
X101000000Y-58620000D01*
X100930481Y-66048501D02*
X102023510Y-64955472D01*
X99980000Y-65610000D02*
X100418501Y-66048501D01*
X100418501Y-66048501D02*
X100930481Y-66048501D01*
X104710000Y-66248184D02*
X104710000Y-68910000D01*
X104710000Y-66248184D02*
X104710000Y-65180000D01*
X104710000Y-65180000D02*
X105210000Y-64680000D01*
X105210000Y-68360000D02*
X105210000Y-66172462D01*
X105210000Y-66172462D02*
X105210000Y-65420000D01*
X107256489Y-59796489D02*
X107103511Y-59643511D01*
X107256489Y-64253511D02*
X107256489Y-59796489D01*
X105710000Y-68910000D02*
X105710000Y-65800000D01*
X107103511Y-59643511D02*
X106080000Y-58620000D01*
X105710000Y-65800000D02*
X107256489Y-64253511D01*
X106210000Y-68360000D02*
X106210000Y-66380000D01*
X106210000Y-66380000D02*
X106210000Y-65930000D01*
X106210000Y-65930000D02*
X106720000Y-65420000D01*
X107420000Y-56890000D02*
X107420000Y-57880000D01*
X107420000Y-57880000D02*
X107900000Y-58360000D01*
X107900000Y-60170000D02*
X107900000Y-58360000D01*
X90297304Y-57030000D02*
X90220000Y-57030000D01*
X90938982Y-57030000D02*
X90220000Y-57030000D01*
X92050000Y-58141018D02*
X90938982Y-57030000D01*
X92050000Y-58610000D02*
X92050000Y-58141018D01*
D47*
X92561501Y-71278499D02*
X92020000Y-71820000D01*
X93000001Y-65289761D02*
X92561501Y-65728261D01*
X93000001Y-64820001D02*
X93000001Y-65289761D01*
X91830000Y-63650000D02*
X93000001Y-64820001D01*
X92561501Y-65728261D02*
X92561501Y-71278499D01*
X91830000Y-63230000D02*
X91830000Y-63650000D01*
D41*
X91930000Y-63130000D02*
X91830000Y-63230000D01*
X92761500Y-63130000D02*
X91930000Y-63130000D01*
D43*
X102569001Y-47925999D02*
X104140000Y-46355000D01*
X102569001Y-49360121D02*
X102569001Y-47925999D01*
X102065121Y-49864001D02*
X102569001Y-49360121D01*
X98594879Y-50465999D02*
X100710601Y-50465999D01*
X94180000Y-62111500D02*
X94216499Y-62075001D01*
X94216499Y-62075001D02*
X94216499Y-60835481D01*
X96054879Y-53005999D02*
X97395999Y-53005999D01*
X101312599Y-49864001D02*
X102065121Y-49864001D01*
X94216499Y-60835481D02*
X93761499Y-60380481D01*
X97395999Y-53005999D02*
X98090999Y-52310999D01*
X93761499Y-60380481D02*
X93761499Y-59959519D01*
X93761499Y-59959519D02*
X94564498Y-59156520D01*
X94564498Y-59156520D02*
X94564498Y-54496380D01*
X100710601Y-50465999D02*
X101312599Y-49864001D01*
X94564498Y-54496380D02*
X96054879Y-53005999D01*
X98090999Y-52310999D02*
X98090999Y-50969879D01*
X98090999Y-50969879D02*
X98594879Y-50465999D01*
X100329011Y-50165989D02*
X101600000Y-48895000D01*
X98464011Y-50165989D02*
X100329011Y-50165989D01*
X97789011Y-50840989D02*
X98464011Y-50165989D01*
X94125998Y-56890000D02*
X94125998Y-54510602D01*
X94125998Y-54510602D02*
X95930610Y-52705990D01*
X97789011Y-52030989D02*
X97789011Y-50840989D01*
X95930610Y-52705990D02*
X97114011Y-52705989D01*
X97114011Y-52705989D02*
X97789011Y-52030989D01*
D41*
X94560772Y-63149228D02*
X94580000Y-63130000D01*
X93922772Y-63149228D02*
X94560772Y-63149228D01*
X93780000Y-63292000D02*
X93922772Y-63149228D01*
X93780000Y-63748500D02*
X93780000Y-63292000D01*
D43*
X96130000Y-62730000D02*
X96130000Y-62600000D01*
X95390000Y-61860000D02*
X95200000Y-61860000D01*
X96130000Y-62600000D02*
X95390000Y-61860000D01*
D41*
X95198500Y-62730000D02*
X96130000Y-62730000D01*
D43*
X91395698Y-62730000D02*
X92761500Y-62730000D01*
X92419519Y-61181499D02*
X91619519Y-61181499D01*
X91619519Y-61181499D02*
X91316499Y-61484519D01*
X93224739Y-60741499D02*
X92859519Y-60741499D01*
X93461489Y-59835251D02*
X93461489Y-60504749D01*
X100630999Y-47324001D02*
X100630999Y-48758123D01*
X101600000Y-46355000D02*
X100630999Y-47324001D01*
X93631490Y-54580832D02*
X93631489Y-59665251D01*
X100630999Y-48758123D02*
X99523142Y-49865980D01*
X99523142Y-49865980D02*
X98339743Y-49865979D01*
X92859519Y-60741499D02*
X92419519Y-61181499D01*
X97489001Y-50716721D02*
X97489001Y-51900121D01*
X98339743Y-49865979D02*
X97489001Y-50716721D01*
X93461489Y-60504749D02*
X93224739Y-60741499D01*
X97489001Y-51900121D02*
X96985121Y-52404001D01*
X91316499Y-62650801D02*
X91395698Y-62730000D01*
X96985121Y-52404001D02*
X95808321Y-52404001D01*
X91316499Y-61484519D02*
X91316499Y-62650801D01*
X95808321Y-52404001D02*
X93631490Y-54580832D01*
X93631489Y-59665251D02*
X93461489Y-59835251D01*
X117440000Y-58620000D02*
X117440000Y-57350000D01*
X117440000Y-57350000D02*
X117440000Y-56900000D01*
D41*
X90410033Y-63130000D02*
X90118500Y-63130000D01*
X90589500Y-63309467D02*
X90410033Y-63130000D01*
X90589501Y-63834101D02*
X90589500Y-63309467D01*
X90580000Y-63920000D02*
X90580000Y-63843602D01*
X90580000Y-63843602D02*
X90589501Y-63834101D01*
X88700000Y-63748500D02*
X88700000Y-64340000D01*
X89100000Y-62484667D02*
X88900962Y-62683705D01*
X89100000Y-62111500D02*
X89100000Y-62484667D01*
X88300000Y-62892000D02*
X88300000Y-63120000D01*
X88138000Y-62730000D02*
X88300000Y-62892000D01*
X87681500Y-62730000D02*
X88138000Y-62730000D01*
D43*
X88589519Y-52131499D02*
X91500327Y-52131499D01*
X88175011Y-52546007D02*
X88589519Y-52131499D01*
X88175011Y-53119631D02*
X88175011Y-52546007D01*
X86359155Y-58174169D02*
X86998501Y-57534823D01*
X86359487Y-54935155D02*
X88175011Y-53119631D01*
X86998501Y-56563763D02*
X86359487Y-55924749D01*
X91500327Y-52131499D02*
X92575913Y-51055913D01*
X86998501Y-57534823D02*
X86998501Y-56563763D01*
X86359487Y-55924749D02*
X86359487Y-54935155D01*
D41*
X89488943Y-55211057D02*
X89500000Y-55200000D01*
X88922341Y-55211057D02*
X89488943Y-55211057D01*
X88700000Y-55433398D02*
X88922341Y-55211057D01*
X88700000Y-55808500D02*
X88700000Y-55433398D01*
D43*
X89760000Y-52680000D02*
X91040000Y-52680000D01*
X89425698Y-52680000D02*
X89760000Y-52680000D01*
X89300000Y-52805698D02*
X89425698Y-52680000D01*
X89300000Y-53674302D02*
X89300000Y-52805698D01*
X89100000Y-53874302D02*
X89300000Y-53674302D01*
X89100000Y-54171500D02*
X89100000Y-53874302D01*
X87681500Y-54790000D02*
X87353198Y-54790000D01*
X87097998Y-55045200D02*
X87097998Y-55590000D01*
X87353198Y-54790000D02*
X87097998Y-55045200D01*
D41*
X87681500Y-54790000D02*
X87389966Y-54790000D01*
X87097998Y-55081968D02*
X87199983Y-54979983D01*
X87097998Y-55590000D02*
X87097998Y-55081968D01*
X87389966Y-54790000D02*
X87199983Y-54979983D01*
X87199983Y-54979983D02*
X87116382Y-55063584D01*
D43*
X91484302Y-55190000D02*
X91563501Y-55110801D01*
X90118500Y-55190000D02*
X91090000Y-55190000D01*
X91300000Y-55190000D02*
X91484302Y-55190000D01*
X91300000Y-55190000D02*
X91090000Y-55190000D01*
X93835471Y-52838831D02*
X93137151Y-53537151D01*
X93835471Y-51065471D02*
X93835471Y-52838831D01*
X91484302Y-55190000D02*
X93137151Y-53537151D01*
X86535831Y-51824169D02*
X86360845Y-51824169D01*
X87700000Y-50660000D02*
X86535831Y-51824169D01*
D39*
X99216000Y-87356000D02*
X99220000Y-87360000D01*
X99216000Y-86572000D02*
X99216000Y-87356000D01*
X115518500Y-63530000D02*
X115519981Y-63530000D01*
X115519981Y-63530000D02*
X116749981Y-64760000D01*
D41*
X114702433Y-62684169D02*
X114300845Y-62684169D01*
X114900000Y-62486602D02*
X114702433Y-62684169D01*
X114900000Y-62111500D02*
X114900000Y-62486602D01*
D43*
X115300000Y-58754704D02*
X115300000Y-57660000D01*
X113530000Y-71430000D02*
X115220000Y-71430000D01*
X115300000Y-57660000D02*
X115300000Y-56900000D01*
X117263511Y-69850931D02*
X117263511Y-60718215D01*
X117263511Y-60718215D02*
X115300000Y-58754704D01*
X115220000Y-71430000D02*
X115490000Y-71160000D01*
X115490000Y-71160000D02*
X115954442Y-71160000D01*
X115954442Y-71160000D02*
X117263511Y-69850931D01*
X87236499Y-63796499D02*
X87236499Y-63246699D01*
X87236499Y-63246699D02*
X87353198Y-63130000D01*
X87650000Y-64210000D02*
X87236499Y-63796499D01*
X87353198Y-63130000D02*
X87681500Y-63130000D01*
D38*
X87650000Y-65000000D02*
X87650000Y-64210000D01*
D41*
X89500000Y-62892000D02*
X89500000Y-63130000D01*
X89662000Y-62730000D02*
X89500000Y-62892000D01*
X90118500Y-62730000D02*
X89662000Y-62730000D01*
D38*
X91050000Y-54690000D02*
X91050000Y-54080000D01*
D41*
X88290000Y-55190000D02*
X88300000Y-55180000D01*
X87681500Y-55190000D02*
X88290000Y-55190000D01*
X90950000Y-54790000D02*
X91050000Y-54690000D01*
X90118500Y-54790000D02*
X90950000Y-54790000D01*
D43*
X101600845Y-58174169D02*
X101534169Y-58174169D01*
X100922999Y-57496323D02*
X101600845Y-58174169D01*
X100922999Y-56890000D02*
X100922999Y-57496323D01*
X105790000Y-57283324D02*
X106680845Y-58174169D01*
X105790000Y-56890000D02*
X105790000Y-57283324D01*
X118410999Y-47324001D02*
X119380000Y-46355000D01*
X116508279Y-47324001D02*
X118410999Y-47324001D01*
X115569011Y-48263269D02*
X116508279Y-47324001D01*
X114889389Y-50164011D02*
X115569011Y-49484389D01*
X110189001Y-54440121D02*
X110189001Y-53172955D01*
X109420000Y-62111500D02*
X109420000Y-60371018D01*
X109420000Y-60371018D02*
X108898511Y-59849529D01*
X108898511Y-59849529D02*
X108898511Y-55730611D01*
X110957955Y-52404001D02*
X112225121Y-52404001D01*
X108898511Y-55730611D02*
X110189001Y-54440121D01*
X115569011Y-49484389D02*
X115569011Y-48263269D01*
X110189001Y-53172955D02*
X110957955Y-52404001D01*
X112729001Y-51900121D02*
X112729002Y-51146720D01*
X112225121Y-52404001D02*
X112729001Y-51900121D01*
X112729002Y-51146720D02*
X113711711Y-50164011D01*
X113711711Y-50164011D02*
X114889389Y-50164011D01*
X104340000Y-60742978D02*
X104340000Y-62111500D01*
X103658510Y-60061488D02*
X104340000Y-60742978D01*
X103658510Y-59171490D02*
X103658510Y-60061488D01*
X103734498Y-59095502D02*
X103658510Y-59171490D01*
X103734498Y-55414498D02*
X103734498Y-59095502D01*
X103170999Y-54280999D02*
X103170999Y-54850999D01*
X103169020Y-54279020D02*
X103170999Y-54280999D01*
X103169020Y-53511858D02*
X103169020Y-54279020D01*
X103674879Y-53005999D02*
X103169020Y-53511858D01*
X105007725Y-53005999D02*
X103674879Y-53005999D01*
X114300000Y-46355000D02*
X112729001Y-47925999D01*
X110489011Y-49484389D02*
X109507401Y-50465999D01*
X112729001Y-47925999D02*
X111294879Y-47925999D01*
X105609723Y-52404001D02*
X105007725Y-53005999D01*
X103170999Y-54850999D02*
X103734498Y-55414498D01*
X110489011Y-48731867D02*
X110489011Y-49484389D01*
X111294879Y-47925999D02*
X110489011Y-48731867D01*
X109507401Y-50465999D02*
X108754879Y-50465999D01*
X108250999Y-50969879D02*
X108250999Y-51298123D01*
X108250999Y-51298123D02*
X107145121Y-52404001D01*
X108754879Y-50465999D02*
X108250999Y-50969879D01*
X107145121Y-52404001D02*
X105609723Y-52404001D01*
X89608522Y-76518522D02*
X89608523Y-76664617D01*
X89608522Y-76518522D02*
X89608522Y-78260984D01*
X94490000Y-81150698D02*
X94490000Y-81410000D01*
X93295801Y-79956499D02*
X94490000Y-81150698D01*
X91304037Y-79956499D02*
X93295801Y-79956499D01*
X89608522Y-78260984D02*
X91304037Y-79956499D01*
X89608522Y-71691478D02*
X89608522Y-76518522D01*
X89608522Y-70071356D02*
X89608522Y-71691478D01*
X87154311Y-68408559D02*
X87945725Y-68408559D01*
X84836425Y-66090673D02*
X87154311Y-68408559D01*
X84836425Y-58470315D02*
X84836425Y-66090673D01*
X86960000Y-52270000D02*
X86321499Y-52908501D01*
X86321499Y-54124587D02*
X85759467Y-54686619D01*
X86321499Y-52908501D02*
X86321499Y-54124587D01*
X87945725Y-68408559D02*
X89608522Y-70071356D01*
X85759467Y-54686619D02*
X85759467Y-57547273D01*
X85759467Y-57547273D02*
X84836425Y-58470315D01*
X108722742Y-68360000D02*
X110580000Y-68360000D01*
X108304241Y-68778501D02*
X108722742Y-68360000D01*
X106771499Y-68778501D02*
X108304241Y-68778501D01*
X106201499Y-69348501D02*
X106771499Y-68778501D01*
X101409519Y-69348501D02*
X106201499Y-69348501D01*
X100756251Y-68695233D02*
X101409519Y-69348501D01*
X100278500Y-64508240D02*
X99541499Y-65245241D01*
X99541499Y-65245241D02*
X99541499Y-67140481D01*
X99541499Y-67140481D02*
X100756251Y-68355233D01*
X100278500Y-63530000D02*
X100278500Y-64508240D01*
X100756251Y-68355233D02*
X100756251Y-68695233D01*
D41*
X99660000Y-62486602D02*
X99660000Y-62111500D01*
X99462433Y-62684169D02*
X99660000Y-62486602D01*
X99060845Y-62684169D02*
X99462433Y-62684169D01*
D43*
X110662999Y-69237001D02*
X110750000Y-69150000D01*
X108694297Y-69237001D02*
X110662999Y-69237001D01*
X108552777Y-69378521D02*
X108694297Y-69237001D01*
X98110000Y-64340000D02*
X98941479Y-65171479D01*
X106455759Y-69948519D02*
X107025757Y-69378521D01*
X100156231Y-68603769D02*
X100156231Y-68943769D01*
X101160981Y-69948519D02*
X106455759Y-69948519D01*
X98941479Y-65171479D02*
X98941479Y-67389017D01*
X107025757Y-69378521D02*
X108552777Y-69378521D01*
X98941479Y-67389017D02*
X100156231Y-68603769D01*
X100156231Y-68943769D02*
X101160981Y-69948519D01*
D41*
X97841500Y-61861500D02*
X97840000Y-61860000D01*
X97841500Y-62330000D02*
X97841500Y-61861500D01*
D43*
X108708520Y-68798500D02*
X109960000Y-68798500D01*
X108428509Y-69078511D02*
X108708520Y-68798500D01*
X106901489Y-69078511D02*
X108428509Y-69078511D01*
X106331490Y-69648510D02*
X106901489Y-69078511D01*
X98850000Y-64340000D02*
X99241489Y-64731489D01*
X99241489Y-64731489D02*
X99241489Y-67264749D01*
X101285250Y-69648510D02*
X106331490Y-69648510D01*
X99241489Y-67264749D02*
X100456241Y-68479501D01*
X100456241Y-68479501D02*
X100456242Y-68819502D01*
X100456242Y-68819502D02*
X101285250Y-69648510D01*
X97558501Y-56918501D02*
X97558501Y-59178501D01*
X97558501Y-58831499D02*
X97558501Y-59178501D01*
X97558501Y-59178501D02*
X97558501Y-60343961D01*
X97558501Y-56918501D02*
X97530000Y-56890000D01*
X97558501Y-60343961D02*
X97558501Y-56918501D01*
X98158501Y-66390461D02*
X97264011Y-67284951D01*
X98158501Y-65911331D02*
X98158501Y-66390461D01*
X96931499Y-64684329D02*
X98158501Y-65911331D01*
X96931499Y-64129519D02*
X96931499Y-64684329D01*
X97096489Y-63964529D02*
X96931499Y-64129519D01*
X97096489Y-60805973D02*
X97096489Y-63964529D01*
X97558501Y-60343961D02*
X97096489Y-60805973D01*
D39*
X97264011Y-68718450D02*
X97264011Y-67284951D01*
X96614020Y-75250902D02*
X96614020Y-69368442D01*
X96614020Y-69368442D02*
X97264011Y-68718450D01*
X96010000Y-75854922D02*
X96614020Y-75250902D01*
X96010000Y-76670000D02*
X96010000Y-75854922D01*
X95532999Y-75869461D02*
X95532999Y-77175199D01*
X95532999Y-77175199D02*
X95378198Y-77330000D01*
X96287010Y-75115451D02*
X95532999Y-75869461D01*
X96580000Y-65621038D02*
X96937001Y-65978039D01*
X96580000Y-64980000D02*
X96580000Y-65621038D01*
X96287010Y-69232990D02*
X96287010Y-75115451D01*
X96937001Y-65978039D02*
X96937001Y-68582999D01*
X96937001Y-68582999D02*
X96287010Y-69232990D01*
X95378198Y-77330000D02*
X95060000Y-77330000D01*
X95960000Y-63660000D02*
X95946164Y-63646164D01*
X95060000Y-71003602D02*
X95060000Y-75880000D01*
X93142999Y-69086601D02*
X95060000Y-71003602D01*
X93142999Y-67205963D02*
X93142999Y-69086601D01*
X95946164Y-64402798D02*
X93142999Y-67205963D01*
X95946164Y-63646164D02*
X95946164Y-64402798D01*
D43*
X110171499Y-63797001D02*
X110171499Y-65431499D01*
X110438500Y-63530000D02*
X110171499Y-63797001D01*
X110900000Y-66160000D02*
X110520000Y-65780000D01*
X110171499Y-65431499D02*
X110520000Y-65780000D01*
X110520000Y-65780000D02*
X110438500Y-65698500D01*
X111370000Y-62630000D02*
X111270000Y-62730000D01*
X111370000Y-62730000D02*
X111370000Y-62600000D01*
X111370000Y-62600000D02*
X110635498Y-61865498D01*
X110635498Y-61865498D02*
X110440000Y-61865498D01*
D41*
X108001500Y-63130000D02*
X108620000Y-63130000D01*
X110438500Y-62730000D02*
X111370000Y-62730000D01*
D43*
X108620000Y-63748500D02*
X108620000Y-64153000D01*
X108620000Y-64625500D02*
X108620000Y-63748500D01*
X110154500Y-66160000D02*
X108620000Y-64625500D01*
D41*
X109622433Y-62684169D02*
X109220845Y-62684169D01*
X109820000Y-62486602D02*
X109622433Y-62684169D01*
X109820000Y-62111500D02*
X109820000Y-62486602D01*
X108001500Y-61861500D02*
X108000000Y-61860000D01*
X108001500Y-62330000D02*
X108001500Y-61861500D01*
D43*
X103710000Y-65931018D02*
X103710000Y-68910000D01*
X103540000Y-63748500D02*
X103540000Y-65761018D01*
X103540000Y-65761018D02*
X103710000Y-65931018D01*
X106290000Y-62730000D02*
X106290000Y-62600000D01*
X106290000Y-62600000D02*
X105550000Y-61860000D01*
X105550000Y-61860000D02*
X105360000Y-61860000D01*
D41*
X102921500Y-63130000D02*
X103540000Y-63130000D01*
X105358500Y-62730000D02*
X106290000Y-62730000D01*
D43*
X104210000Y-65031018D02*
X104210000Y-68360000D01*
X105358500Y-63530000D02*
X105358500Y-63882518D01*
X105358500Y-63882518D02*
X104210000Y-65031018D01*
D41*
X104542433Y-62684169D02*
X104740000Y-62486602D01*
X104740000Y-62486602D02*
X104740000Y-62111500D01*
X104139155Y-62684169D02*
X104542433Y-62684169D01*
X102921500Y-61861500D02*
X102920000Y-61860000D01*
X102921500Y-62330000D02*
X102921500Y-61861500D01*
D39*
X113370000Y-82880000D02*
X113540000Y-83050000D01*
X112930000Y-82880000D02*
X113370000Y-82880000D01*
X114260000Y-83050000D02*
X113540000Y-83050000D01*
X118320000Y-79502000D02*
X117808000Y-79502000D01*
X117808000Y-79502000D02*
X114260000Y-83050000D01*
X112930000Y-85720000D02*
X112980000Y-85720000D01*
X113538998Y-85720000D02*
X112930000Y-85720000D01*
X113538998Y-85997600D02*
X113538998Y-85720000D01*
X115679398Y-88138000D02*
X113538998Y-85997600D01*
X118320000Y-88138000D02*
X115679398Y-88138000D01*
X112930000Y-86670000D02*
X113540000Y-86670000D01*
X117814000Y-96774000D02*
X118320000Y-96774000D01*
X116340000Y-95300000D02*
X117814000Y-96774000D01*
X115936021Y-94886021D02*
X116340000Y-95290000D01*
X116340000Y-95290000D02*
X116340000Y-95300000D01*
X113540000Y-87550000D02*
X113540000Y-86670000D01*
X115950000Y-89960000D02*
X113540000Y-87550000D01*
X115950000Y-89960000D02*
X115950000Y-92132042D01*
X115936021Y-91973979D02*
X115936021Y-92146021D01*
X115950000Y-92132042D02*
X115936021Y-92146021D01*
X115936021Y-92146021D02*
X115936021Y-94886021D01*
D38*
X87250000Y-92580000D02*
X88550000Y-92580000D01*
D39*
X107492001Y-92297999D02*
X105860000Y-93930000D01*
X107492001Y-91703039D02*
X107492001Y-92297999D01*
X106720000Y-90931038D02*
X107492001Y-91703039D01*
X106720000Y-90410000D02*
X106720000Y-90931038D01*
X110150000Y-97360000D02*
X110350000Y-97360000D01*
X112440000Y-97360000D02*
X114680000Y-95120000D01*
X110150000Y-97360000D02*
X112440000Y-97360000D01*
X98050000Y-92580000D02*
X99340000Y-92580000D01*
X106750000Y-91920000D02*
X104660000Y-91920000D01*
X106750000Y-91920000D02*
X107040000Y-91920000D01*
D38*
X110140000Y-92580000D02*
X108840000Y-92580000D01*
X95010000Y-76670000D02*
X94400000Y-76670000D01*
D39*
X105720000Y-89680000D02*
X105716000Y-89676000D01*
X105720000Y-90410000D02*
X105720000Y-89680000D01*
X91251021Y-85828979D02*
X90570000Y-86510000D01*
X91251021Y-82157496D02*
X91251021Y-85828979D01*
X90570000Y-86510000D02*
X90120000Y-86510000D01*
X90790000Y-81696475D02*
X91251021Y-82157496D01*
X90790000Y-81696475D02*
X90431490Y-81337965D01*
X90431490Y-81337965D02*
X90431490Y-80555576D01*
X90543000Y-87420000D02*
X90120000Y-87420000D01*
X92282001Y-85680999D02*
X90543000Y-87420000D01*
X92282001Y-84812001D02*
X92282001Y-85680999D01*
X91747999Y-84277999D02*
X92282001Y-84812001D01*
X91750000Y-83461038D02*
X91747999Y-83463039D01*
X91747999Y-83463039D02*
X91747999Y-84277999D01*
X91750000Y-82670000D02*
X91750000Y-83461038D01*
X116409002Y-77590998D02*
X116410000Y-77590000D01*
X115600040Y-77590998D02*
X116409002Y-77590998D01*
X115475049Y-77715989D02*
X115600040Y-77590998D01*
X94490000Y-82150000D02*
X98924011Y-77715989D01*
X108150000Y-76960000D02*
X108150000Y-77671978D01*
X98924011Y-77715989D02*
X108105989Y-77715989D01*
X108105989Y-77715989D02*
X115475049Y-77715989D01*
X94942001Y-82437999D02*
X94490000Y-82890000D01*
X94942001Y-82160459D02*
X94942001Y-82437999D01*
X99059461Y-78042999D02*
X94942001Y-82160459D01*
X113062999Y-78042999D02*
X115817001Y-78042999D01*
X115817001Y-78042999D02*
X115817001Y-78042999D01*
X108150000Y-78760000D02*
X108150000Y-78125998D01*
X113062999Y-78042999D02*
X108067001Y-78042999D01*
X108067001Y-78042999D02*
X99059461Y-78042999D01*
X118320000Y-86868000D02*
X118819978Y-86868000D01*
X118820000Y-78232000D02*
X118320000Y-78232000D01*
X112930000Y-84770000D02*
X113538998Y-84770000D01*
X116678000Y-78232000D02*
X115750000Y-79160000D01*
X118320000Y-78232000D02*
X116678000Y-78232000D01*
X119347001Y-78757001D02*
X118822000Y-78232000D01*
X118822000Y-78232000D02*
X118320000Y-78232000D01*
X118906969Y-82392741D02*
X118906969Y-80423633D01*
X119196602Y-84960000D02*
X119347001Y-84809601D01*
X119347001Y-84809601D02*
X119347001Y-82832772D01*
X119347001Y-79983601D02*
X119347001Y-78757001D01*
X118906969Y-80423633D02*
X119347001Y-79983601D01*
X119347001Y-82832772D02*
X118906969Y-82392741D01*
X117710000Y-84960000D02*
X119196602Y-84960000D01*
X117818000Y-86868000D02*
X118320000Y-86868000D01*
X117070000Y-86120000D02*
X117818000Y-86868000D01*
X117710000Y-84960000D02*
X117449398Y-84960000D01*
X117070000Y-85339398D02*
X117070000Y-86120000D01*
X117449398Y-84960000D02*
X117070000Y-85339398D01*
X117520000Y-84960000D02*
X117710000Y-84960000D01*
X116777999Y-84217999D02*
X117520000Y-84960000D01*
X114090999Y-84217999D02*
X116777999Y-84217999D01*
X113538998Y-84770000D02*
X114090999Y-84217999D01*
X119347001Y-87397001D02*
X118818000Y-86868000D01*
X118320000Y-95504000D02*
X117844000Y-95504000D01*
X117844000Y-95504000D02*
X117292999Y-94952999D01*
X117292999Y-94952999D02*
X117292999Y-93752399D01*
X118818000Y-86868000D02*
X118320000Y-86868000D01*
X117455398Y-93590000D02*
X119202602Y-93590000D01*
X117292999Y-93752399D02*
X117455398Y-93590000D01*
X119347001Y-88619601D02*
X119347001Y-87397001D01*
X119347001Y-93445601D02*
X119347001Y-92482399D01*
X118906969Y-89059633D02*
X119347001Y-88619601D01*
X119202602Y-93590000D02*
X119347001Y-93445601D01*
X119347001Y-92482399D02*
X118906969Y-92042367D01*
X118906969Y-92042367D02*
X118906969Y-89059633D01*
X127132001Y-94891999D02*
X126520000Y-95504000D01*
X126520000Y-95504000D02*
X125520000Y-95504000D01*
X127132001Y-87480001D02*
X127132001Y-94891999D01*
X126520000Y-86868000D02*
X127132001Y-87480001D01*
X126520000Y-86868000D02*
X127122001Y-86265999D01*
X126520000Y-86868000D02*
X125520000Y-86868000D01*
X127132001Y-86255999D02*
X126520000Y-86868000D01*
X127132001Y-78844001D02*
X127132001Y-86255999D01*
X126520000Y-78232000D02*
X127132001Y-78844001D01*
X125520000Y-78232000D02*
X126520000Y-78232000D01*
X125520000Y-95504000D02*
X124147038Y-95504000D01*
X124147038Y-95504000D02*
X121437037Y-98214001D01*
X121437037Y-98214001D02*
X119974001Y-98214001D01*
X108787791Y-91625989D02*
X107710000Y-90548198D01*
X119974001Y-98214001D02*
X119388011Y-97628011D01*
X119388011Y-97628011D02*
X117202949Y-97628011D01*
X117202949Y-97628011D02*
X115972468Y-96397532D01*
X115972468Y-96397532D02*
X115282001Y-95707062D01*
X115282001Y-95707062D02*
X115282001Y-92363039D01*
X114544952Y-91625990D02*
X108787791Y-91625989D01*
X107710000Y-90548198D02*
X107710000Y-90230000D01*
X115282001Y-92363039D02*
X114544952Y-91625990D01*
X127565999Y-78844001D02*
X127800000Y-78610000D01*
X127132001Y-78844001D02*
X127565999Y-78844001D01*
X113503377Y-83830000D02*
X113537841Y-83795536D01*
X112930000Y-83830000D02*
X113503377Y-83830000D01*
D38*
X126676000Y-92964000D02*
X126680000Y-92960000D01*
X125520000Y-92964000D02*
X126676000Y-92964000D01*
X126678000Y-75692000D02*
X126680000Y-75690000D01*
X125520000Y-75692000D02*
X126678000Y-75692000D01*
D39*
X127780000Y-75690000D02*
X126680000Y-75690000D01*
X127800000Y-75690000D02*
X126680000Y-75690000D01*
D38*
X125520000Y-84328000D02*
X126171999Y-84328000D01*
X125522000Y-84330000D02*
X125520000Y-84328000D01*
X126680001Y-84330000D02*
X125522000Y-84330000D01*
D39*
X118320000Y-85598000D02*
X119320000Y-85598000D01*
X118320000Y-94234000D02*
X119320000Y-94234000D01*
X118978999Y-97301001D02*
X119318999Y-97301001D01*
X119320000Y-94234000D02*
X119320000Y-94240000D01*
X119320000Y-94240000D02*
X119670000Y-94590000D01*
X119670000Y-96780000D02*
X119670000Y-94590000D01*
X119670000Y-96932602D02*
X119670000Y-96780000D01*
X119301601Y-97301001D02*
X119670000Y-96932602D01*
X118978999Y-97301001D02*
X119301601Y-97301001D01*
X118822000Y-76962000D02*
X118320000Y-76962000D01*
X119674011Y-80132678D02*
X119674011Y-77814011D01*
X119320000Y-85598000D02*
X119674011Y-85243989D01*
X119674011Y-85243989D02*
X119674011Y-82697322D01*
X119674011Y-82697322D02*
X119233979Y-82257290D01*
X119233979Y-80572710D02*
X119674011Y-80132678D01*
X119674011Y-77814011D02*
X118822000Y-76962000D01*
X119233979Y-82257290D02*
X119233979Y-80572710D01*
X119674011Y-85952011D02*
X119320000Y-85598000D01*
X119674011Y-93879989D02*
X119674011Y-92344011D01*
X119320000Y-94234000D02*
X119674011Y-93879989D01*
X119233979Y-89208711D02*
X119674011Y-88768679D01*
X119233979Y-91906916D02*
X119233979Y-89208711D01*
X119674011Y-88768679D02*
X119674011Y-85952011D01*
X119674011Y-92344011D02*
X119671074Y-92344011D01*
X119671074Y-92344011D02*
X119233979Y-91906916D01*
X115609011Y-95571613D02*
X115609011Y-92227591D01*
X117338399Y-97301001D02*
X115609011Y-95571613D01*
X118978999Y-97301001D02*
X117338399Y-97301001D01*
D43*
X108220000Y-90378982D02*
X109001018Y-91160000D01*
X108220000Y-89680000D02*
X108220000Y-90378982D01*
D39*
X108220000Y-90398962D02*
X108220000Y-89680000D01*
X114680400Y-91298979D02*
X109120017Y-91298979D01*
X115609011Y-92227591D02*
X114680400Y-91298979D01*
X109120017Y-91298979D02*
X108220000Y-90398962D01*
X116152000Y-76962000D02*
X115750000Y-76560000D01*
X118320000Y-76962000D02*
X116152000Y-76962000D01*
X88782001Y-95382001D02*
X87250000Y-93850000D01*
X90879037Y-95382001D02*
X88782001Y-95382001D01*
X91593039Y-94667999D02*
X90879037Y-95382001D01*
X97242001Y-94667999D02*
X91593039Y-94667999D01*
X98050000Y-93860000D02*
X97242001Y-94667999D01*
X109150000Y-94160000D02*
X108840000Y-93850000D01*
X110150000Y-94160000D02*
X109150000Y-94160000D01*
X97460989Y-95709011D02*
X87839011Y-95709011D01*
X87839011Y-95709011D02*
X87250000Y-95120000D01*
X98050000Y-95120000D02*
X97460989Y-95709011D01*
X108837000Y-95123000D02*
X108518801Y-95122999D01*
X108518801Y-95122999D02*
X106360000Y-95122999D01*
X106122999Y-95360000D02*
X106360000Y-95122999D01*
X105150000Y-95360000D02*
X106122999Y-95360000D01*
X104840000Y-97360000D02*
X103870000Y-96390000D01*
X105150000Y-97360000D02*
X104840000Y-97360000D01*
X104392001Y-94382001D02*
X103870000Y-93860000D01*
X109774963Y-95392001D02*
X108764963Y-94382001D01*
X113137999Y-95392001D02*
X109774963Y-95392001D01*
X114680000Y-93850000D02*
X113137999Y-95392001D01*
X105150000Y-93360000D02*
X105150000Y-94360000D01*
X108764963Y-94382001D02*
X105127999Y-94382001D01*
X105150000Y-94360000D02*
X105127999Y-94382001D01*
X105127999Y-94382001D02*
X104392001Y-94382001D01*
D43*
X117563521Y-59943521D02*
X116240000Y-58620000D01*
X117563521Y-69983219D02*
X117563521Y-59943521D01*
X115871489Y-71670000D02*
X115871489Y-71667231D01*
X117356740Y-70190000D02*
X117563521Y-69983219D01*
X115720000Y-71670000D02*
X115871489Y-71670000D01*
X115871489Y-71667231D02*
X117348720Y-70190000D01*
X117348720Y-70190000D02*
X117356740Y-70190000D01*
D39*
X116610000Y-72010000D02*
X116834999Y-72234999D01*
X116834999Y-72234999D02*
X116834999Y-73144999D01*
X116834999Y-73144999D02*
X117350000Y-73660000D01*
X117350000Y-72670000D02*
X117350000Y-72010000D01*
D43*
X116171499Y-71988501D02*
X115990000Y-72170000D01*
X115868982Y-72170000D02*
X113530000Y-72170000D01*
X115990000Y-72170000D02*
X115868982Y-72170000D01*
X118560067Y-59279933D02*
X117863531Y-59976469D01*
X118560067Y-56900067D02*
X118560067Y-59279933D01*
X117863530Y-70107488D02*
X116171499Y-71799519D01*
X117863531Y-59976469D02*
X117863530Y-70107488D01*
X116171499Y-71799519D02*
X116171499Y-71988501D01*
X113700000Y-68105698D02*
X112456499Y-69349199D01*
X112456499Y-70316499D02*
X112920000Y-70780000D01*
X112456499Y-69349199D02*
X112456499Y-70316499D01*
X113700000Y-63748500D02*
X113700000Y-68105698D01*
D38*
X113030000Y-70670000D02*
X112920000Y-70780000D01*
X113530000Y-70670000D02*
X113030000Y-70670000D01*
X113030000Y-69930000D02*
X112920000Y-69820000D01*
X113530000Y-69930000D02*
X113030000Y-69930000D01*
D41*
X113081500Y-61868499D02*
X113099999Y-61850000D01*
X113081500Y-62330000D02*
X113081500Y-61868499D01*
D43*
X97808501Y-63901499D02*
X97370000Y-64340000D01*
X98128501Y-63901499D02*
X97808501Y-63901499D01*
X98281500Y-63748500D02*
X98128501Y-63901499D01*
X98460000Y-63748500D02*
X98281500Y-63748500D01*
X95920000Y-58620000D02*
X95920000Y-59027949D01*
X95920000Y-59027949D02*
X96723566Y-59831515D01*
D38*
X116350000Y-73660000D02*
X115720000Y-73660000D01*
X116350000Y-72670000D02*
X115720000Y-72670000D01*
D39*
X115800000Y-84750000D02*
X115720000Y-84670000D01*
X116410000Y-84750000D02*
X115800000Y-84750000D01*
D38*
X111580000Y-68360000D02*
X112210000Y-68360000D01*
D39*
X107420000Y-84940000D02*
X108770000Y-84940000D01*
D38*
X109970000Y-69820000D02*
X109360000Y-69820000D01*
X109970000Y-70780000D02*
X109360000Y-70780000D01*
D43*
X91016489Y-62777507D02*
X91316499Y-63077517D01*
X91016489Y-61360251D02*
X91016489Y-62777507D01*
X91495251Y-60881489D02*
X91016489Y-61360251D01*
X92430000Y-57010000D02*
X92654999Y-57234999D01*
X92654999Y-57234999D02*
X92654999Y-60521741D01*
X92654999Y-60521741D02*
X92295251Y-60881489D01*
X92295251Y-60881489D02*
X91495251Y-60881489D01*
X91316499Y-63077517D02*
X91316499Y-63256499D01*
X92124500Y-64955500D02*
X92124500Y-66170000D01*
D47*
X91316499Y-64063737D02*
X91316499Y-63986499D01*
X92124500Y-64871738D02*
X91316499Y-64063737D01*
X92124500Y-64955500D02*
X92124500Y-64871738D01*
X91316499Y-63256499D02*
X91316499Y-63986499D01*
D43*
X91440000Y-58180000D02*
X91440000Y-59631018D01*
X90441499Y-61041499D02*
X90716479Y-61316479D01*
X90441499Y-60629519D02*
X90441499Y-61041499D01*
X91440000Y-59631018D02*
X90441499Y-60629519D01*
X90716479Y-61316479D02*
X90716479Y-62975399D01*
X90716479Y-62975399D02*
X91016489Y-63275409D01*
D47*
X91017001Y-63477001D02*
X91016489Y-63476489D01*
X91017001Y-64411001D02*
X91017001Y-63477001D01*
X91686000Y-65080000D02*
X91017001Y-64411001D01*
D43*
X91016489Y-63275409D02*
X91016489Y-63476489D01*
D41*
X95198500Y-64268500D02*
X95200000Y-64270000D01*
X95198500Y-63530000D02*
X95198500Y-64268500D01*
X94580000Y-62486602D02*
X94580000Y-62111500D01*
X94381875Y-62684727D02*
X94580000Y-62486602D01*
X93976928Y-62684727D02*
X94381875Y-62684727D01*
X92761500Y-61891500D02*
X92720000Y-61850000D01*
X92761500Y-62330000D02*
X92761500Y-61891500D01*
D43*
X93380000Y-64280000D02*
X93380000Y-63748500D01*
X94250000Y-65150000D02*
X93380000Y-64280000D01*
X94250000Y-65430000D02*
X94250000Y-65150000D01*
D47*
X90371999Y-65294499D02*
X91247500Y-66170000D01*
X90118500Y-64642999D02*
X90371999Y-64896498D01*
X90371999Y-64896498D02*
X90371999Y-65294499D01*
X90118500Y-63530000D02*
X90118500Y-64642999D01*
D41*
X89761500Y-61850000D02*
X90120000Y-61850000D01*
X89500000Y-62111500D02*
X89761500Y-61850000D01*
X87681500Y-61861500D02*
X87680000Y-61860000D01*
X87681500Y-62330000D02*
X87681500Y-61861500D01*
D43*
X88300000Y-64153000D02*
X88300000Y-63748500D01*
X88150000Y-64303000D02*
X88300000Y-64153000D01*
X88150000Y-65434302D02*
X88150000Y-64303000D01*
X88229199Y-65513501D02*
X88150000Y-65434302D01*
X89498499Y-65513501D02*
X88229199Y-65513501D01*
X89932000Y-65080000D02*
X89498499Y-65513501D01*
X90118500Y-56482518D02*
X90118500Y-55590000D01*
X89781499Y-56819519D02*
X90118500Y-56482518D01*
X89781499Y-58739519D02*
X89781499Y-56819519D01*
X86936489Y-61584529D02*
X89781499Y-58739519D01*
X86936489Y-65220791D02*
X86936489Y-61584529D01*
X87885698Y-66170000D02*
X88730000Y-66170000D01*
X86936489Y-65220791D02*
X87885698Y-66170000D01*
D41*
X89300046Y-54746556D02*
X88910853Y-54746556D01*
X89500000Y-54546602D02*
X89300046Y-54746556D01*
X89500000Y-54171500D02*
X89500000Y-54546602D01*
D43*
X91270000Y-70979792D02*
X91270000Y-71610000D01*
X91809990Y-70439802D02*
X91270000Y-70979792D01*
X87775653Y-66908511D02*
X90039569Y-66908511D01*
X86336471Y-65469329D02*
X87775653Y-66908511D01*
X86659497Y-55059423D02*
X86659497Y-55800481D01*
X87646001Y-54463999D02*
X87254921Y-54463999D01*
X87681500Y-54428500D02*
X87646001Y-54463999D01*
X87681500Y-54390000D02*
X87681500Y-54428500D01*
X86914508Y-56055492D02*
X87682232Y-56055492D01*
X86659497Y-55800481D02*
X86914508Y-56055492D01*
X90039569Y-66908511D02*
X91809990Y-68678932D01*
X87682232Y-56055492D02*
X89181479Y-57554739D01*
X87254921Y-54463999D02*
X86659497Y-55059423D01*
X89181479Y-58490983D02*
X86336470Y-61335992D01*
X91809990Y-68678932D02*
X91809990Y-70439802D01*
X89181479Y-57554739D02*
X89181479Y-58490983D01*
X86336470Y-61335992D02*
X86336471Y-65469329D01*
X89481489Y-57430471D02*
X88300000Y-56248982D01*
X86636480Y-61460260D02*
X89481489Y-58615251D01*
X88300000Y-56248982D02*
X88300000Y-55808500D01*
X86636480Y-65345060D02*
X86636480Y-61460260D01*
X92110000Y-70788774D02*
X92110000Y-68554664D01*
X89481489Y-58615251D02*
X89481489Y-57430471D01*
X92110000Y-68554664D02*
X90163837Y-66608501D01*
X90163837Y-66608501D02*
X87899921Y-66608501D01*
X87899921Y-66608501D02*
X86636480Y-65345060D01*
X91804387Y-71094387D02*
X92110000Y-70788774D01*
X94557751Y-78901011D02*
X96220000Y-78901011D01*
X93305251Y-77648511D02*
X94557751Y-78901011D01*
X91865251Y-77648511D02*
X93305251Y-77648511D01*
X90508551Y-69698551D02*
X90508551Y-76291811D01*
X90508551Y-76291811D02*
X91865251Y-77648511D01*
X88318529Y-67508529D02*
X90508551Y-69698551D01*
X87570000Y-57330000D02*
X87570000Y-59253906D01*
X87570000Y-59253906D02*
X85736452Y-61087454D01*
X87527117Y-67508529D02*
X88318529Y-67508529D01*
X85736452Y-61087454D02*
X85736453Y-65717867D01*
X85736453Y-65717867D02*
X87527117Y-67508529D01*
X94776462Y-79544000D02*
X95716000Y-79544000D01*
X87202157Y-67607846D02*
X87402849Y-67808539D01*
X85436444Y-65842136D02*
X87202154Y-67607846D01*
X87202154Y-67607846D02*
X87202157Y-67607846D01*
X85436443Y-58943557D02*
X85436444Y-65842136D01*
X93180983Y-77948521D02*
X94776462Y-79544000D01*
X85760000Y-58620000D02*
X85436443Y-58943557D01*
X87402849Y-67808539D02*
X88194261Y-67808539D01*
X88194261Y-67808539D02*
X90208541Y-69822819D01*
X90208541Y-69822819D02*
X90208541Y-76416079D01*
X90208541Y-76416079D02*
X91740983Y-77948521D01*
X91740983Y-77948521D02*
X93180983Y-77948521D01*
X88200000Y-52096740D02*
X88200000Y-51210000D01*
X87875001Y-52995363D02*
X87875001Y-52421739D01*
X89908532Y-76540348D02*
X89908531Y-69947087D01*
X87278579Y-68108549D02*
X85136435Y-65966405D01*
X87875001Y-52421739D02*
X88200000Y-52096740D01*
X93056715Y-78248531D02*
X91616715Y-78248531D01*
X86059477Y-57671541D02*
X86059477Y-54810887D01*
X91616715Y-78248531D02*
X89908532Y-76540348D01*
X94908184Y-80100000D02*
X93056715Y-78248531D01*
X95220000Y-80100000D02*
X94908184Y-80100000D01*
X86059477Y-54810887D02*
X87875001Y-52995363D01*
X89908531Y-69947087D02*
X88069993Y-68108549D01*
X88069993Y-68108549D02*
X87278579Y-68108549D01*
X85136435Y-58594583D02*
X86059477Y-57671541D01*
X85136435Y-65966405D02*
X85136435Y-58594583D01*
X88008501Y-57028501D02*
X87570000Y-56590000D01*
X88008501Y-59239683D02*
X88008501Y-57028501D01*
X86036461Y-61211723D02*
X88008501Y-59239683D01*
X86036462Y-65593598D02*
X86036461Y-61211723D01*
X93429519Y-77348501D02*
X91989519Y-77348501D01*
X90808561Y-76167543D02*
X90808561Y-71016953D01*
X91989519Y-77348501D02*
X90808561Y-76167543D01*
X96271500Y-78108501D02*
X94189519Y-78108501D01*
X91421557Y-70403957D02*
X91421557Y-68714777D01*
X91421557Y-68714777D02*
X89915301Y-67208521D01*
X96710000Y-77670001D02*
X96271500Y-78108501D01*
X94189519Y-78108501D02*
X93429519Y-77348501D01*
X90808561Y-71016953D02*
X91421557Y-70403957D01*
X89915301Y-67208521D02*
X87651384Y-67208520D01*
X87651384Y-67208520D02*
X86036462Y-65593598D01*
X94670000Y-85706630D02*
X94670000Y-85810000D01*
X92638501Y-82931761D02*
X92638501Y-83675131D01*
X90869990Y-80371008D02*
X90869990Y-81163250D01*
X89008502Y-78509520D02*
X90869990Y-80371008D01*
X92638501Y-83675131D02*
X94670000Y-85706630D01*
X86905775Y-69008579D02*
X87697189Y-69008579D01*
X84236407Y-66339211D02*
X86905775Y-69008579D01*
X84236407Y-57170333D02*
X84236407Y-66339211D01*
X85020957Y-56385783D02*
X84236407Y-57170333D01*
X85020957Y-54550000D02*
X85020957Y-56385783D01*
X90869990Y-81163250D02*
X92638501Y-82931761D01*
X89008501Y-70319891D02*
X89008501Y-76531499D01*
X87697189Y-69008579D02*
X89008501Y-70319891D01*
X89008501Y-76531499D02*
X89008504Y-76531502D01*
X89008504Y-77988504D02*
X89008502Y-77988506D01*
X89008502Y-77988506D02*
X89008502Y-78509520D01*
X89008504Y-76531502D02*
X89008504Y-77988504D01*
X85459457Y-52570543D02*
X85760000Y-52270000D01*
X85459457Y-56371561D02*
X85459457Y-52570543D01*
X84536417Y-57294601D02*
X85459457Y-56371561D01*
X91170000Y-81038982D02*
X91170000Y-80246740D01*
X87821457Y-68708569D02*
X87030043Y-68708569D01*
X92938511Y-82807493D02*
X91170000Y-81038982D01*
X91170000Y-80246740D02*
X89308511Y-78385251D01*
X94670000Y-85040000D02*
X92938511Y-83308511D01*
X89308511Y-78385251D02*
X89308511Y-70195623D01*
X87030043Y-68708569D02*
X84536416Y-66214942D01*
X92938511Y-83308511D02*
X92938511Y-82807493D01*
X84536416Y-66214942D02*
X84536417Y-57294601D01*
X89308511Y-70195623D02*
X87821457Y-68708569D01*
D45*
X132300000Y-60635000D02*
X132275000Y-60610000D01*
X133350000Y-60610000D02*
X132175000Y-60610000D01*
D44*
X133350000Y-60610000D02*
X133375000Y-60585000D01*
X133375000Y-60585000D02*
X133900000Y-60060000D01*
X132600000Y-61360000D02*
X133375000Y-60585000D01*
X132600000Y-61910000D02*
X132600000Y-61360000D01*
X131900000Y-58360000D02*
X130800000Y-59460000D01*
X132175000Y-58360000D02*
X131900000Y-58360000D01*
X130800000Y-59460000D02*
X130800000Y-59460000D01*
X130800000Y-61360000D02*
X130800000Y-59460000D01*
D38*
X123370000Y-81665000D02*
X123370000Y-82165000D01*
X102590000Y-96230000D02*
X102590000Y-95750000D01*
X102590000Y-95750000D02*
X102415000Y-95575000D01*
X102415000Y-95238000D02*
X102415000Y-95575000D01*
X123370000Y-90801000D02*
X123370000Y-91301000D01*
X123370000Y-82165000D02*
X123370000Y-82665000D01*
X121190000Y-73470000D02*
X120190000Y-73470000D01*
X84570000Y-74630000D02*
X85570000Y-74630000D01*
X85570000Y-74630000D02*
X86070000Y-74630000D01*
X86070000Y-74630000D02*
X86570000Y-74630000D01*
X86570000Y-74630000D02*
X87070000Y-74630000D01*
X122200000Y-73480000D02*
X122190000Y-73470000D01*
X121190000Y-73993602D02*
X121318399Y-74122001D01*
X121190000Y-73470000D02*
X121190000Y-73993602D01*
X122132001Y-74122001D02*
X122190000Y-74180000D01*
X121318399Y-74122001D02*
X122132001Y-74122001D01*
X122190000Y-73470000D02*
X122190000Y-74180000D01*
X122190000Y-74180000D02*
X122190000Y-75140000D01*
X122190000Y-75140000D02*
X122190000Y-75140000D01*
X101963602Y-81020000D02*
X101440000Y-81020000D01*
X102092001Y-79648399D02*
X102092001Y-80891601D01*
X101963602Y-79520000D02*
X102092001Y-79648399D01*
X101440000Y-79520000D02*
X101963602Y-79520000D01*
X101440000Y-78570000D02*
X101440000Y-79520000D01*
X110670000Y-71920000D02*
X110670000Y-72420000D01*
X111322001Y-73291601D02*
X111193602Y-73420000D01*
X111322001Y-72548399D02*
X111322001Y-73291601D01*
X111193602Y-72420000D02*
X111322001Y-72548399D01*
X111193602Y-73420000D02*
X110670000Y-73420000D01*
X110670000Y-72420000D02*
X111193602Y-72420000D01*
X110670000Y-74370000D02*
X110670000Y-73420000D01*
X87550000Y-74630000D02*
X88020000Y-74160000D01*
X87070000Y-74630000D02*
X87550000Y-74630000D01*
X125020000Y-81970000D02*
X125120000Y-81870000D01*
X123995000Y-81665000D02*
X124157962Y-81665000D01*
X123370000Y-81665000D02*
X123995000Y-81665000D01*
X123370000Y-81665000D02*
X124155000Y-81665000D01*
X124360000Y-81870000D02*
X124155000Y-81665000D01*
X125120000Y-81870000D02*
X124360000Y-81870000D01*
X125120000Y-90510000D02*
X124162000Y-90510000D01*
X124162000Y-90510000D02*
X123871000Y-90801000D01*
X123370000Y-90801000D02*
X123871000Y-90801000D01*
X110670000Y-74370000D02*
X111280000Y-74370000D01*
X126680001Y-82450000D02*
X125700000Y-82450000D01*
X125700000Y-82450000D02*
X125120000Y-81870000D01*
X125120000Y-90510000D02*
X126560000Y-91950000D01*
X126560000Y-91950000D02*
X126680000Y-91950000D01*
X102590000Y-96230000D02*
X102590000Y-97308000D01*
X102590000Y-97308000D02*
X102590000Y-97310000D01*
D39*
X101466000Y-82744000D02*
X101466000Y-82692000D01*
X101466000Y-82744000D02*
X101210000Y-83000000D01*
X101210000Y-84571000D02*
X101271000Y-84632000D01*
X101210000Y-83000000D02*
X101210000Y-84571000D01*
X101271000Y-84632000D02*
X101271000Y-85029000D01*
X100216000Y-86084000D02*
X100216000Y-86572000D01*
X101271000Y-85029000D02*
X100216000Y-86084000D01*
D38*
X102710000Y-81020000D02*
X102860000Y-81170000D01*
X101440000Y-81020000D02*
X102710000Y-81020000D01*
M02*
