M48
; DRILL file {KiCad (5.1.6)-1} date 08/06/20 12:50:49
; FORMAT={-:-/ absolute / metric / decimal}
; #@! TF.CreationDate,2020-08-06T12:50:49+02:00
; #@! TF.GenerationSoftware,Kicad,Pcbnew,(5.1.6)-1
FMAT,2
METRIC
T1C0.200
T2C0.500
T3C0.800
T4C0.850
T5C1.250
T6C3.200
%
G90
G05
T1
X83.51Y-73.13
X83.55Y-59.12
X84.01Y-53.82
X84.13Y-69.78
X84.13Y-70.52
X84.56Y-55.13
X84.598Y-73.148
X84.868Y-69.01
X84.87Y-68.02
X85.021Y-54.55
X85.13Y-50.99
X85.14Y-57.34
X85.463Y-85.92
X85.76Y-52.27
X85.76Y-58.62
X85.99Y-90.99
X86.27Y-97.1
X86.357Y-59.847
X86.359Y-58.174
X86.361Y-51.824
X86.56Y-57.01
X86.57Y-79.2
X86.72Y-88.32
X86.76Y-53.48
X86.96Y-50.66
X86.96Y-52.27
X86.96Y-58.62
X87.0Y-71.24
X87.0Y-71.98
X87.04Y-79.78
X87.098Y-55.59
X87.25Y-92.58
X87.25Y-93.85
X87.25Y-95.12
X87.46Y-78.53
X87.57Y-56.59
X87.57Y-57.33
X87.65Y-64.21
X87.68Y-61.86
X87.7Y-50.66
X87.88Y-82.52
X87.88Y-86.06
X87.9Y-75.13
X87.99Y-61.18
X88.02Y-74.16
X88.035Y-73.142
X88.2Y-51.21
X88.3Y-55.18
X88.3Y-63.12
X88.51Y-82.91
X88.51Y-83.8
X88.51Y-84.71
X88.51Y-85.6
X88.51Y-86.51
X88.51Y-87.41
X88.57Y-71.02
X88.57Y-72.02
X88.7Y-64.34
X88.73Y-66.17
X88.8Y-52.57
X88.86Y-79.49
X88.901Y-62.684
X88.911Y-54.747
X89.063Y-60.17
X89.1Y-56.4
X89.408Y-79.992
X89.41Y-80.74
X89.47Y-66.17
X89.5Y-55.2
X89.5Y-63.13
X89.66Y-64.33
X89.73Y-94.043
X89.932Y-65.08
X90.12Y-61.85
X90.22Y-57.03
X90.234Y-68.796
X90.3Y-94.93
X90.37Y-66.17
X90.41Y-53.24
X90.431Y-80.556
X90.58Y-63.92
X90.71Y-85.17
X90.809Y-65.08
X90.84Y-58.62
X90.873Y-94.043
X90.88Y-60.84
X90.983Y-68.925
X91.02Y-92.58
X91.04Y-52.68
X91.05Y-54.08
X91.247Y-73.323
X91.248Y-66.17
X91.27Y-71.61
X91.44Y-58.18
X91.64Y-57.01
X91.686Y-65.08
X91.75Y-82.67
X91.804Y-71.094
X91.81Y-78.94
X91.81Y-81.03
X91.81Y-87.53
X91.83Y-61.62
X91.83Y-85.3
X92.02Y-71.82
X92.05Y-58.61
X92.124Y-66.17
X92.2Y-76.17
X92.2Y-76.91
X92.2Y-83.68
X92.228Y-74.421
X92.229Y-75.42
X92.43Y-57.01
X92.563Y-65.08
X92.576Y-51.056
X92.72Y-61.85
X93.001Y-66.17
X93.07Y-61.18
X93.08Y-93.85
X93.08Y-95.12
X93.08Y-96.39
X93.19Y-57.02
X93.19Y-59.43
X93.24Y-92.58
X93.44Y-65.08
X93.835Y-51.065
X93.86Y-87.53
X93.977Y-62.685
X94.126Y-56.89
X94.18Y-64.34
X94.2Y-60.17
X94.25Y-65.43
X94.4Y-76.67
X94.4Y-77.67
X94.49Y-81.41
X94.49Y-82.15
X94.49Y-82.89
X94.49Y-83.63
X94.58Y-63.13
X94.67Y-85.04
X94.67Y-85.81
X94.714Y-66.88
X94.73Y-80.7
X95.003Y-56.89
X95.06Y-75.88
X95.06Y-77.33
X95.2Y-61.86
X95.2Y-64.27
X95.22Y-80.1
X95.34Y-92.829
X95.716Y-79.544
X95.73Y-77.66
X95.88Y-56.89
X95.92Y-58.62
X95.946Y-63.646
X95.962Y-92.382
X96.13Y-68.431
X96.22Y-78.901
X96.32Y-60.72
X96.521Y-58.174
X96.58Y-64.98
X96.71Y-77.67
X96.72Y-89.69
X96.724Y-59.832
X96.79Y-56.89
X96.85Y-91.935
X97.07Y-97.11
X97.104Y-65.506
X97.12Y-58.62
X97.22Y-76.78
X97.37Y-64.34
X97.53Y-56.89
X97.59Y-91.935
X97.716Y-89.686
X97.72Y-66.16
X97.8Y-80.37
X97.8Y-81.11
X97.84Y-61.86
X97.86Y-82.03
X97.86Y-82.79
X97.86Y-83.56
X97.86Y-84.33
X97.86Y-85.1
X97.86Y-85.88
X97.86Y-86.66
X98.05Y-92.58
X98.05Y-93.86
X98.05Y-95.12
X98.11Y-64.34
X98.15Y-61.18
X98.22Y-68.35
X98.22Y-69.21
X98.264Y-87.36
X98.273Y-56.89
X98.46Y-63.13
X98.49Y-65.61
X98.71Y-82.03
X98.72Y-85.94
X98.83Y-68.77
X98.85Y-64.34
X99.061Y-62.684
X99.15Y-76.8
X99.16Y-56.89
X99.22Y-87.36
X99.267Y-60.133
X99.413Y-79.823
X99.56Y-82.03
X99.59Y-89.68
X99.66Y-63.13
X99.66Y-64.34
X99.7Y-68.77
X99.8Y-76.13
X99.89Y-76.87
X99.96Y-87.36
X99.98Y-65.61
X99.99Y-80.71
X100.04Y-56.89
X100.28Y-61.865
X100.34Y-89.68
X100.393Y-94.043
X100.43Y-82.03
X100.48Y-75.47
X100.54Y-76.21
X100.556Y-79.823
X100.72Y-65.61
X100.82Y-86.44
X100.82Y-87.36
X100.923Y-56.89
X100.94Y-64.77
X100.97Y-94.93
X101.0Y-58.62
X101.13Y-74.84
X101.23Y-75.58
X101.28Y-82.03
X101.37Y-85.89
X101.47Y-68.76
X101.49Y-60.17
X101.51Y-63.74
X101.536Y-94.043
X101.601Y-58.174
X101.77Y-74.17
X101.8Y-92.58
X101.81Y-56.89
X101.87Y-74.91
X102.05Y-90.41
X102.13Y-82.03
X102.13Y-82.79
X102.13Y-83.56
X102.13Y-84.33
X102.13Y-85.1
X102.13Y-85.88
X102.2Y-58.62
X102.41Y-73.52
X102.46Y-89.68
X102.47Y-66.08
X102.47Y-68.76
X102.471Y-60.67
X102.51Y-74.26
X102.55Y-56.89
X102.59Y-97.308
X102.86Y-81.17
X102.86Y-82.22
X102.92Y-59.91
X102.92Y-61.86
X103.06Y-72.87
X103.15Y-73.61
X103.2Y-68.36
X103.21Y-66.08
X103.22Y-89.68
X103.23Y-61.18
X103.296Y-56.89
X103.392Y-81.698
X103.437Y-83.56
X103.54Y-63.13
X103.694Y-72.234
X103.71Y-68.91
X103.8Y-72.97
X103.82Y-91.48
X103.87Y-93.86
X103.87Y-95.12
X103.87Y-96.39
X103.978Y-64.332
X104.03Y-92.58
X104.097Y-59.64
X104.139Y-62.684
X104.173Y-56.89
X104.21Y-68.36
X104.364Y-71.564
X104.45Y-72.3
X104.66Y-91.92
X104.71Y-68.91
X104.74Y-63.13
X105.05Y-56.89
X105.21Y-64.68
X105.21Y-65.42
X105.21Y-68.36
X105.36Y-61.86
X105.46Y-82.88
X105.46Y-83.62
X105.46Y-84.36
X105.46Y-85.12
X105.46Y-85.88
X105.46Y-86.62
X105.46Y-87.36
X105.71Y-68.91
X105.716Y-89.676
X105.79Y-56.89
X105.86Y-93.93
X106.02Y-96.845
X106.08Y-58.62
X106.09Y-64.03
X106.12Y-71.76
X106.21Y-68.36
X106.21Y-87.36
X106.28Y-82.88
X106.36Y-95.123
X106.58Y-60.17
X106.6Y-97.31
X106.678Y-56.89
X106.681Y-58.174
X106.72Y-63.64
X106.72Y-65.42
X106.82Y-84.14
X106.86Y-71.76
X106.95Y-87.36
X106.971Y-68.333
X107.03Y-72.83
X107.03Y-73.57
X107.04Y-91.92
X107.11Y-82.88
X107.21Y-89.68
X107.28Y-58.62
X107.42Y-56.89
X107.46Y-65.42
X107.71Y-90.23
X107.86Y-95.81
X107.88Y-91.468
X107.9Y-60.17
X107.93Y-82.88
X107.93Y-83.62
X107.97Y-68.34
X108.0Y-61.86
X108.08Y-85.73
X108.16Y-56.89
X108.2Y-65.42
X108.21Y-66.16
X108.22Y-89.68
X108.49Y-87.36
X108.62Y-63.13
X108.64Y-84.33
X108.643Y-72.224
X108.67Y-82.88
X108.69Y-86.62
X108.72Y-90.23
X108.837Y-95.123
X108.84Y-92.58
X108.84Y-93.85
X108.92Y-60.52
X109.22Y-73.11
X109.22Y-87.49
X109.221Y-62.684
X109.337Y-56.89
X109.337Y-59.53
X109.36Y-69.82
X109.36Y-70.78
X109.43Y-84.33
X109.43Y-85.12
X109.43Y-85.88
X109.43Y-86.62
X109.733Y-64.35
X109.786Y-72.224
X109.82Y-63.13
X109.96Y-68.798
X109.96Y-89.68
X110.154Y-66.16
X110.24Y-56.9
X110.44Y-61.865
X110.61Y-64.34
X110.75Y-69.15
X110.9Y-66.16
X110.96Y-89.68
X111.04Y-60.83
X111.12Y-56.9
X111.16Y-58.62
X111.28Y-74.37
X111.32Y-86.67
X111.32Y-94.053
X111.65Y-73.72
X111.759Y-58.174
X111.76Y-60.17
X111.89Y-94.94
X111.92Y-69.16
X112.02Y-74.37
X112.03Y-64.76
X112.11Y-56.9
X112.21Y-68.36
X112.36Y-58.62
X112.463Y-94.053
X112.61Y-92.58
X112.72Y-66.16
X112.859Y-56.898
X113.1Y-61.85
X113.31Y-89.68
X113.31Y-90.63
X113.4Y-60.35
X113.4Y-61.09
X113.53Y-69.93
X113.53Y-70.67
X113.53Y-71.43
X113.53Y-72.17
X113.538Y-83.796
X113.539Y-84.77
X113.539Y-85.72
X113.54Y-83.05
X113.54Y-86.67
X113.55Y-73.92
X113.55Y-74.67
X114.04Y-56.9
X114.13Y-87.3
X114.301Y-62.684
X114.395Y-60.095
X114.66Y-87.83
X114.67Y-96.39
X114.68Y-93.85
X114.68Y-95.12
X114.81Y-64.68
X114.83Y-92.58
X114.9Y-63.13
X115.3Y-56.9
X115.52Y-61.865
X115.705Y-86.429
X115.706Y-85.414
X115.72Y-71.67
X115.72Y-72.67
X115.72Y-73.66
X115.72Y-84.67
X115.817Y-78.043
X115.82Y-70.63
X116.12Y-68.31
X116.13Y-60.83
X116.16Y-87.02
X116.24Y-58.62
X116.4Y-94.48
X116.41Y-77.59
X116.46Y-92.96
X116.463Y-83.766
X116.484Y-90.017
X116.61Y-72.01
X116.75Y-64.76
X116.765Y-79.645
X116.77Y-78.9
X116.83Y-76.37
X116.84Y-58.18
X117.12Y-81.03
X117.12Y-90.66
X117.35Y-72.01
X117.44Y-56.9
X117.44Y-58.62
X117.86Y-81.03
X117.86Y-89.6
X117.86Y-90.66
X118.17Y-73.47
X118.17Y-74.21
X118.302Y-65.57
X118.302Y-66.31
X118.32Y-75.02
X118.56Y-56.9
X118.618Y-98.541
X118.98Y-74.21
X118.99Y-60.23
X119.01Y-68.57
X120.0Y-97.45
X120.126Y-77.877
X120.43Y-79.42
X120.47Y-83.31
X120.733Y-88.748
X120.74Y-97.762
X121.68Y-77.02
X122.19Y-75.14
X122.53Y-69.072
X122.98Y-84.31
X122.98Y-85.05
X122.98Y-93.95
X122.98Y-94.69
X123.05Y-74.48
X123.24Y-93.01
X123.36Y-83.38
X123.48Y-76.27
X123.48Y-77.03
X123.52Y-71.07
X123.72Y-84.31
X123.72Y-85.05
X123.72Y-93.95
X123.72Y-94.69
X123.768Y-79.73
X123.807Y-89.138
X123.92Y-86.76
X123.92Y-96.4
X123.92Y-98.24
X123.98Y-92.27
X123.98Y-93.01
X124.1Y-82.64
X124.1Y-83.38
X124.155Y-87.505
X124.18Y-75.14
X124.24Y-78.23
X124.368Y-84.68
X124.368Y-94.32
X124.72Y-92.27
X124.84Y-82.64
X124.84Y-83.38
X124.86Y-68.57
X125.46Y-92.27
X125.81Y-69.36
X125.83Y-74.2
X126.14Y-88.84
X126.14Y-89.61
X126.14Y-98.24
X126.5Y-87.5
X126.68Y-75.69
X126.68Y-76.96
X126.68Y-80.64
X126.68Y-81.38
X126.68Y-85.6
X126.68Y-91.95
X126.68Y-92.96
X126.68Y-94.23
X126.68Y-82.45
X126.68Y-84.33
X126.68Y-91.205
X127.89Y-62.06
X128.64Y-62.06
X129.385Y-62.035
X129.45Y-56.96
X130.125Y-56.285
X130.15Y-93.59
X130.15Y-94.33
X130.15Y-95.07
X130.15Y-99.06
X130.15Y-99.8
X130.15Y-100.54
X130.8Y-55.61
X130.8Y-59.46
X130.8Y-60.41
X130.8Y-61.36
X132.6Y-61.91
X133.375Y-60.585
X133.9Y-60.06
X121.42Y-90.05
X121.42Y-91.05
X121.42Y-92.05
X122.42Y-90.05
X122.42Y-91.05
X122.42Y-92.05
X121.42Y-80.41
X121.42Y-81.41
X121.42Y-82.41
X122.42Y-80.41
X122.42Y-81.41
X122.42Y-82.41
X121.42Y-94.38
X121.42Y-95.48
X85.47Y-69.45
X86.57Y-69.45
X121.04Y-72.02
X121.94Y-71.52
X121.94Y-72.52
X122.84Y-72.02
X121.42Y-84.74
X121.42Y-85.84
X85.42Y-76.08
X86.32Y-75.58
X86.32Y-76.58
X87.22Y-76.08
T2
X85.23Y-132.08
X85.933Y-130.383
X85.933Y-133.777
X87.63Y-129.68
X87.63Y-134.48
X89.327Y-130.383
X89.327Y-133.777
X90.03Y-132.08
X165.24Y-132.08
X165.943Y-130.383
X165.943Y-133.777
X167.64Y-129.68
X167.64Y-134.48
X169.337Y-130.383
X169.337Y-133.777
X170.04Y-132.08
X162.7Y-46.355
X163.403Y-44.658
X163.403Y-48.052
X165.1Y-43.955
X165.1Y-48.755
X166.797Y-44.658
X166.797Y-48.052
X167.5Y-46.355
X89.04Y-46.355
X89.743Y-44.658
X89.743Y-48.052
X91.44Y-43.955
X91.44Y-48.755
X93.137Y-44.658
X93.137Y-48.052
X93.84Y-46.355
T3
X96.52Y-51.435
X96.52Y-53.975
X99.06Y-51.435
X99.06Y-53.975
X101.6Y-51.435
X101.6Y-53.975
X104.14Y-51.435
X104.14Y-53.975
X106.68Y-51.435
X106.68Y-53.975
X109.22Y-51.435
X109.22Y-53.975
X111.76Y-51.435
X111.76Y-53.975
X114.3Y-51.435
X114.3Y-53.975
X116.84Y-51.435
X116.84Y-53.975
X119.38Y-51.435
X119.38Y-53.975
X121.92Y-51.435
X121.92Y-53.975
X124.46Y-51.435
X124.46Y-53.975
X127.0Y-51.435
X127.0Y-53.975
X129.54Y-51.435
X129.54Y-53.975
X132.08Y-51.435
X132.08Y-53.975
X134.62Y-51.435
X134.62Y-53.975
X137.16Y-51.435
X137.16Y-53.975
X139.7Y-51.435
X139.7Y-53.975
X142.24Y-51.435
X142.24Y-53.975
X144.78Y-51.435
X144.78Y-53.975
X147.32Y-51.435
X147.32Y-53.975
X149.86Y-51.435
X149.86Y-53.975
X152.4Y-51.435
X152.4Y-53.975
X154.94Y-51.435
X154.94Y-53.975
X157.48Y-51.435
X157.48Y-53.975
X160.02Y-51.435
X160.02Y-53.975
X96.52Y-46.355
X96.52Y-48.895
X99.06Y-46.355
X99.06Y-48.895
X101.6Y-46.355
X101.6Y-48.895
X104.14Y-46.355
X104.14Y-48.895
X106.68Y-46.355
X106.68Y-48.895
X109.22Y-46.355
X109.22Y-48.895
X111.76Y-46.355
X111.76Y-48.895
X114.3Y-46.355
X114.3Y-48.895
X116.84Y-46.355
X116.84Y-48.895
X119.38Y-46.355
X119.38Y-48.895
X121.92Y-46.355
X121.92Y-48.895
X124.46Y-46.355
X124.46Y-48.895
X127.0Y-46.355
X127.0Y-48.895
X129.54Y-46.355
X129.54Y-48.895
X132.08Y-46.355
X132.08Y-48.895
X134.62Y-46.355
X134.62Y-48.895
X137.16Y-46.355
X137.16Y-48.895
X139.7Y-46.355
X139.7Y-48.895
X142.24Y-46.355
X142.24Y-48.895
X144.78Y-46.355
X144.78Y-48.895
X147.32Y-46.355
X147.32Y-48.895
X149.86Y-46.355
X149.86Y-48.895
X152.4Y-46.355
X152.4Y-48.895
X154.94Y-46.355
X154.94Y-48.895
X157.48Y-46.355
X157.48Y-48.895
X160.02Y-46.355
X160.02Y-48.895
T4
X86.995Y-105.41
X86.995Y-107.95
X86.995Y-110.49
X86.995Y-113.03
X86.995Y-115.57
X86.995Y-118.11
X86.995Y-120.65
X86.995Y-123.19
X86.995Y-125.73
X89.535Y-105.41
X89.535Y-107.95
X89.535Y-110.49
X89.535Y-113.03
X89.535Y-115.57
X89.535Y-118.11
X89.535Y-120.65
X89.535Y-123.19
X89.535Y-125.73
X90.805Y-105.41
X90.805Y-107.95
X90.805Y-110.49
X90.805Y-113.03
X90.805Y-115.57
X90.805Y-118.11
X90.805Y-120.65
X90.805Y-123.19
X90.805Y-125.73
X92.075Y-102.87
X92.075Y-105.41
X92.075Y-107.95
X92.075Y-110.49
X92.075Y-113.03
X92.075Y-115.57
X92.075Y-118.11
X92.075Y-120.65
X92.075Y-123.19
X92.075Y-125.73
X94.615Y-102.87
X94.615Y-105.41
X94.615Y-107.95
X94.615Y-110.49
X94.615Y-113.03
X94.615Y-115.57
X94.615Y-118.11
X94.615Y-120.65
X94.615Y-123.19
X94.615Y-125.73
X94.615Y-128.27
X94.615Y-130.81
X97.155Y-102.87
X97.155Y-105.41
X97.155Y-107.95
X97.155Y-110.49
X97.155Y-113.03
X97.155Y-115.57
X97.155Y-118.11
X97.155Y-120.65
X97.155Y-123.19
X97.155Y-125.73
X97.155Y-128.27
X97.155Y-130.81
X99.695Y-102.87
X99.695Y-105.41
X99.695Y-107.95
X99.695Y-110.49
X99.695Y-113.03
X99.695Y-115.57
X99.695Y-118.11
X99.695Y-120.65
X99.695Y-123.19
X99.695Y-125.73
X99.695Y-128.27
X99.695Y-130.81
X102.235Y-102.87
X102.235Y-105.41
X102.235Y-107.95
X102.235Y-110.49
X102.235Y-113.03
X102.235Y-115.57
X102.235Y-118.11
X102.235Y-120.65
X102.235Y-123.19
X102.235Y-125.73
X102.235Y-128.27
X102.235Y-130.81
X104.775Y-102.87
X104.775Y-105.41
X104.775Y-107.95
X104.775Y-110.49
X104.775Y-113.03
X104.775Y-115.57
X104.775Y-118.11
X104.775Y-120.65
X104.775Y-123.19
X104.775Y-125.73
X104.775Y-128.27
X104.775Y-130.81
X107.315Y-102.87
X107.315Y-105.41
X107.315Y-107.95
X107.315Y-110.49
X107.315Y-113.03
X107.315Y-115.57
X107.315Y-118.11
X107.315Y-120.65
X107.315Y-123.19
X107.315Y-125.73
X107.315Y-128.27
X107.315Y-130.81
X109.855Y-102.87
X109.855Y-105.41
X109.855Y-107.95
X109.855Y-110.49
X109.855Y-113.03
X109.855Y-115.57
X109.855Y-118.11
X109.855Y-120.65
X109.855Y-123.19
X109.855Y-125.73
X109.855Y-128.27
X109.855Y-130.81
X112.395Y-102.87
X112.395Y-105.41
X112.395Y-107.95
X112.395Y-110.49
X112.395Y-113.03
X112.395Y-115.57
X112.395Y-118.11
X112.395Y-120.65
X112.395Y-123.19
X112.395Y-125.73
X112.395Y-128.27
X112.395Y-130.81
X114.935Y-102.87
X114.935Y-105.41
X114.935Y-107.95
X114.935Y-110.49
X114.935Y-113.03
X114.935Y-115.57
X114.935Y-118.11
X114.935Y-120.65
X114.935Y-123.19
X114.935Y-125.73
X114.935Y-128.27
X114.935Y-130.81
X117.475Y-102.87
X117.475Y-105.41
X117.475Y-107.95
X117.475Y-110.49
X117.475Y-113.03
X117.475Y-115.57
X117.475Y-118.11
X117.475Y-120.65
X117.475Y-123.19
X117.475Y-125.73
X117.475Y-128.27
X117.475Y-130.81
X120.015Y-102.87
X120.015Y-105.41
X120.015Y-107.95
X120.015Y-110.49
X120.015Y-113.03
X120.015Y-115.57
X120.015Y-118.11
X120.015Y-120.65
X120.015Y-123.19
X120.015Y-125.73
X120.015Y-128.27
X120.015Y-130.81
X121.285Y-105.41
X121.285Y-107.95
X121.285Y-110.49
X121.285Y-113.03
X121.285Y-115.57
X121.285Y-118.11
X121.285Y-120.65
X121.285Y-123.19
X121.285Y-125.73
X121.285Y-128.27
X122.555Y-102.87
X122.555Y-105.41
X122.555Y-107.95
X122.555Y-110.49
X122.555Y-113.03
X122.555Y-115.57
X122.555Y-118.11
X122.555Y-120.65
X122.555Y-123.19
X122.555Y-125.73
X122.555Y-128.27
X122.555Y-130.81
X125.095Y-102.87
X125.095Y-105.41
X125.095Y-107.95
X125.095Y-110.49
X125.095Y-113.03
X125.095Y-115.57
X125.095Y-118.11
X125.095Y-120.65
X125.095Y-123.19
X125.095Y-125.73
X125.095Y-128.27
X125.095Y-130.81
X127.635Y-102.87
X127.635Y-105.41
X127.635Y-107.95
X127.635Y-110.49
X127.635Y-113.03
X127.635Y-115.57
X127.635Y-118.11
X127.635Y-120.65
X127.635Y-123.19
X127.635Y-125.73
X127.635Y-128.27
X127.635Y-130.81
X130.175Y-102.87
X130.175Y-105.41
X130.175Y-107.95
X130.175Y-125.73
X130.175Y-128.27
X130.175Y-130.81
X132.715Y-102.87
X132.715Y-105.41
X132.715Y-107.95
X132.715Y-125.73
X132.715Y-128.27
X132.715Y-130.81
X135.255Y-62.23
X135.255Y-64.77
X135.255Y-67.31
X135.255Y-69.85
X135.255Y-72.39
X135.255Y-74.93
X135.255Y-77.47
X135.255Y-80.01
X135.255Y-82.55
X135.255Y-85.09
X135.255Y-87.63
X135.255Y-90.17
X135.255Y-92.71
X135.255Y-95.25
X135.255Y-97.79
X135.255Y-102.87
X135.255Y-105.41
X135.255Y-107.95
X135.255Y-125.73
X135.255Y-128.27
X135.255Y-130.81
X137.795Y-62.23
X137.795Y-64.77
X137.795Y-67.31
X137.795Y-69.85
X137.795Y-72.39
X137.795Y-74.93
X137.795Y-77.47
X137.795Y-80.01
X137.795Y-82.55
X137.795Y-85.09
X137.795Y-87.63
X137.795Y-90.17
X137.795Y-92.71
X137.795Y-95.25
X137.795Y-97.79
X137.795Y-100.33
X137.795Y-102.87
X137.795Y-105.41
X137.795Y-107.95
X137.795Y-125.73
X137.795Y-128.27
X137.795Y-130.81
X139.065Y-62.23
X139.065Y-64.77
X139.065Y-67.31
X139.065Y-69.85
X139.065Y-72.39
X139.065Y-74.93
X139.065Y-77.47
X139.065Y-80.01
X139.065Y-82.55
X139.065Y-85.09
X139.065Y-87.63
X139.065Y-90.17
X139.065Y-92.71
X139.065Y-95.25
X139.065Y-97.79
X139.065Y-100.33
X140.335Y-59.69
X140.335Y-62.23
X140.335Y-64.77
X140.335Y-67.31
X140.335Y-69.85
X140.335Y-72.39
X140.335Y-74.93
X140.335Y-77.47
X140.335Y-80.01
X140.335Y-82.55
X140.335Y-85.09
X140.335Y-87.63
X140.335Y-90.17
X140.335Y-92.71
X140.335Y-95.25
X140.335Y-97.79
X140.335Y-100.33
X140.335Y-102.87
X140.335Y-105.41
X140.335Y-107.95
X140.335Y-110.49
X140.335Y-113.03
X140.335Y-115.57
X140.335Y-118.11
X140.335Y-120.65
X140.335Y-123.19
X140.335Y-125.73
X140.335Y-128.27
X140.335Y-130.81
X142.875Y-59.69
X142.875Y-62.23
X142.875Y-64.77
X142.875Y-67.31
X142.875Y-69.85
X142.875Y-72.39
X142.875Y-74.93
X142.875Y-77.47
X142.875Y-80.01
X142.875Y-82.55
X142.875Y-85.09
X142.875Y-87.63
X142.875Y-90.17
X142.875Y-92.71
X142.875Y-95.25
X142.875Y-97.79
X142.875Y-100.33
X142.875Y-102.87
X142.875Y-105.41
X142.875Y-107.95
X142.875Y-110.49
X142.875Y-113.03
X142.875Y-115.57
X142.875Y-118.11
X142.875Y-120.65
X142.875Y-123.19
X142.875Y-125.73
X142.875Y-128.27
X142.875Y-130.81
X145.415Y-59.69
X145.415Y-62.23
X145.415Y-64.77
X145.415Y-67.31
X145.415Y-69.85
X145.415Y-72.39
X145.415Y-74.93
X145.415Y-77.47
X145.415Y-80.01
X145.415Y-82.55
X145.415Y-85.09
X145.415Y-87.63
X145.415Y-90.17
X145.415Y-92.71
X145.415Y-95.25
X145.415Y-97.79
X145.415Y-100.33
X145.415Y-102.87
X145.415Y-105.41
X145.415Y-107.95
X145.415Y-110.49
X145.415Y-113.03
X145.415Y-115.57
X145.415Y-118.11
X145.415Y-120.65
X145.415Y-123.19
X145.415Y-125.73
X145.415Y-128.27
X145.415Y-130.81
X147.955Y-59.69
X147.955Y-62.23
X147.955Y-64.77
X147.955Y-67.31
X147.955Y-69.85
X147.955Y-72.39
X147.955Y-74.93
X147.955Y-77.47
X147.955Y-80.01
X147.955Y-82.55
X147.955Y-85.09
X147.955Y-87.63
X147.955Y-90.17
X147.955Y-92.71
X147.955Y-95.25
X147.955Y-97.79
X147.955Y-100.33
X147.955Y-102.87
X147.955Y-105.41
X147.955Y-107.95
X147.955Y-125.73
X147.955Y-128.27
X147.955Y-130.81
X150.495Y-59.69
X150.495Y-62.23
X150.495Y-64.77
X150.495Y-67.31
X150.495Y-69.85
X150.495Y-72.39
X150.495Y-74.93
X150.495Y-77.47
X150.495Y-80.01
X150.495Y-82.55
X150.495Y-85.09
X150.495Y-87.63
X150.495Y-90.17
X150.495Y-92.71
X150.495Y-95.25
X150.495Y-97.79
X150.495Y-100.33
X150.495Y-102.87
X150.495Y-105.41
X150.495Y-107.95
X150.495Y-125.73
X150.495Y-128.27
X150.495Y-130.81
X153.035Y-59.69
X153.035Y-62.23
X153.035Y-64.77
X153.035Y-67.31
X153.035Y-69.85
X153.035Y-72.39
X153.035Y-74.93
X153.035Y-77.47
X153.035Y-80.01
X153.035Y-82.55
X153.035Y-85.09
X153.035Y-87.63
X153.035Y-90.17
X153.035Y-92.71
X153.035Y-95.25
X153.035Y-97.79
X153.035Y-100.33
X153.035Y-102.87
X153.035Y-105.41
X153.035Y-107.95
X153.035Y-125.73
X153.035Y-128.27
X153.035Y-130.81
X155.575Y-59.69
X155.575Y-62.23
X155.575Y-64.77
X155.575Y-67.31
X155.575Y-69.85
X155.575Y-72.39
X155.575Y-74.93
X155.575Y-77.47
X155.575Y-80.01
X155.575Y-82.55
X155.575Y-85.09
X155.575Y-87.63
X155.575Y-90.17
X155.575Y-92.71
X155.575Y-95.25
X155.575Y-97.79
X155.575Y-100.33
X155.575Y-102.87
X155.575Y-105.41
X155.575Y-107.95
X155.575Y-125.73
X155.575Y-128.27
X155.575Y-130.81
X158.115Y-59.69
X158.115Y-62.23
X158.115Y-64.77
X158.115Y-67.31
X158.115Y-69.85
X158.115Y-72.39
X158.115Y-74.93
X158.115Y-77.47
X158.115Y-80.01
X158.115Y-82.55
X158.115Y-85.09
X158.115Y-87.63
X158.115Y-90.17
X158.115Y-92.71
X158.115Y-95.25
X158.115Y-97.79
X158.115Y-100.33
X158.115Y-102.87
X158.115Y-105.41
X158.115Y-107.95
X158.115Y-110.49
X158.115Y-113.03
X158.115Y-115.57
X158.115Y-118.11
X158.115Y-120.65
X158.115Y-123.19
X158.115Y-125.73
X158.115Y-128.27
X158.115Y-130.81
X160.655Y-59.69
X160.655Y-62.23
X160.655Y-64.77
X160.655Y-67.31
X160.655Y-69.85
X160.655Y-72.39
X160.655Y-74.93
X160.655Y-77.47
X160.655Y-80.01
X160.655Y-82.55
X160.655Y-85.09
X160.655Y-87.63
X160.655Y-90.17
X160.655Y-92.71
X160.655Y-95.25
X160.655Y-97.79
X160.655Y-100.33
X160.655Y-102.87
X160.655Y-105.41
X160.655Y-107.95
X160.655Y-110.49
X160.655Y-113.03
X160.655Y-115.57
X160.655Y-118.11
X160.655Y-120.65
X160.655Y-123.19
X160.655Y-125.73
X160.655Y-128.27
X160.655Y-130.81
X163.195Y-59.69
X163.195Y-62.23
X163.195Y-64.77
X163.195Y-67.31
X163.195Y-69.85
X163.195Y-72.39
X163.195Y-74.93
X163.195Y-77.47
X163.195Y-80.01
X163.195Y-82.55
X163.195Y-85.09
X163.195Y-87.63
X163.195Y-90.17
X163.195Y-92.71
X163.195Y-95.25
X163.195Y-97.79
X163.195Y-100.33
X163.195Y-102.87
X163.195Y-105.41
X163.195Y-107.95
X163.195Y-110.49
X163.195Y-113.03
X163.195Y-115.57
X163.195Y-118.11
X163.195Y-120.65
X163.195Y-123.19
X163.195Y-125.73
X164.465Y-62.23
X164.465Y-64.77
X164.465Y-67.31
X164.465Y-69.85
X164.465Y-72.39
X164.465Y-74.93
X164.465Y-77.47
X164.465Y-80.01
X164.465Y-82.55
X164.465Y-85.09
X164.465Y-87.63
X164.465Y-90.17
X164.465Y-92.71
X164.465Y-95.25
X164.465Y-97.79
X164.465Y-100.33
X164.465Y-105.41
X164.465Y-107.95
X164.465Y-110.49
X164.465Y-113.03
X164.465Y-115.57
X164.465Y-118.11
X164.465Y-120.65
X164.465Y-123.19
X164.465Y-125.73
X165.735Y-62.23
X165.735Y-64.77
X165.735Y-67.31
X165.735Y-69.85
X165.735Y-72.39
X165.735Y-74.93
X165.735Y-77.47
X165.735Y-80.01
X165.735Y-82.55
X165.735Y-85.09
X165.735Y-87.63
X165.735Y-90.17
X165.735Y-92.71
X165.735Y-95.25
X165.735Y-97.79
X165.735Y-100.33
X165.735Y-105.41
X165.735Y-107.95
X165.735Y-110.49
X165.735Y-113.03
X165.735Y-115.57
X165.735Y-118.11
X165.735Y-120.65
X165.735Y-123.19
X165.735Y-125.73
X168.275Y-62.23
X168.275Y-64.77
X168.275Y-67.31
X168.275Y-69.85
X168.275Y-72.39
X168.275Y-74.93
X168.275Y-77.47
X168.275Y-80.01
X168.275Y-82.55
X168.275Y-85.09
X168.275Y-87.63
X168.275Y-90.17
X168.275Y-92.71
X168.275Y-95.25
X168.275Y-97.79
X168.275Y-100.33
X168.275Y-102.87
X168.275Y-105.41
X168.275Y-107.95
X168.275Y-110.49
X168.275Y-113.03
X168.275Y-115.57
X168.275Y-118.11
X168.275Y-120.65
X168.275Y-123.19
X168.275Y-125.73
T5
X85.0Y-47.22
X85.0Y-43.72
T6
X167.64Y-132.08
X165.1Y-46.355
X91.44Y-46.355
X87.63Y-132.08
T0
M30
