G04 #@! TF.GenerationSoftware,KiCad,Pcbnew,(5.1.6)-1*
G04 #@! TF.CreationDate,2020-08-06T12:50:43+02:00*
G04 #@! TF.ProjectId,board_sierra,626f6172-645f-4736-9965-7272612e6b69,rev?*
G04 #@! TF.SameCoordinates,Original*
G04 #@! TF.FileFunction,Legend,Bot*
G04 #@! TF.FilePolarity,Positive*
%FSLAX46Y46*%
G04 Gerber Fmt 4.6, Leading zero omitted, Abs format (unit mm)*
G04 Created by KiCad (PCBNEW (5.1.6)-1) date 2020-08-06 12:50:43*
%MOMM*%
%LPD*%
G01*
G04 APERTURE LIST*
%ADD10C,0.400000*%
G04 #@! TA.AperFunction,Profile*
%ADD11C,0.100000*%
G04 #@! TD*
%ADD12C,0.010000*%
%ADD13C,0.200000*%
%ADD14C,0.160000*%
%ADD15C,0.250000*%
G04 APERTURE END LIST*
D10*
X162669761Y-133524761D02*
X162003095Y-135524761D01*
X161336428Y-133524761D01*
X160765000Y-135429523D02*
X160479285Y-135524761D01*
X160003095Y-135524761D01*
X159812619Y-135429523D01*
X159717380Y-135334285D01*
X159622142Y-135143809D01*
X159622142Y-134953333D01*
X159717380Y-134762857D01*
X159812619Y-134667619D01*
X160003095Y-134572380D01*
X160384047Y-134477142D01*
X160574523Y-134381904D01*
X160669761Y-134286666D01*
X160765000Y-134096190D01*
X160765000Y-133905714D01*
X160669761Y-133715238D01*
X160574523Y-133620000D01*
X160384047Y-133524761D01*
X159907857Y-133524761D01*
X159622142Y-133620000D01*
X159050714Y-133524761D02*
X157907857Y-133524761D01*
X158479285Y-135524761D02*
X158479285Y-133524761D01*
X156193571Y-135524761D02*
X157336428Y-135524761D01*
X156765000Y-135524761D02*
X156765000Y-133524761D01*
X156955476Y-133810476D01*
X157145952Y-134000952D01*
X157336428Y-134096190D01*
X154955476Y-133524761D02*
X154765000Y-133524761D01*
X154574523Y-133620000D01*
X154479285Y-133715238D01*
X154384047Y-133905714D01*
X154288809Y-134286666D01*
X154288809Y-134762857D01*
X154384047Y-135143809D01*
X154479285Y-135334285D01*
X154574523Y-135429523D01*
X154765000Y-135524761D01*
X154955476Y-135524761D01*
X155145952Y-135429523D01*
X155241190Y-135334285D01*
X155336428Y-135143809D01*
X155431666Y-134762857D01*
X155431666Y-134286666D01*
X155336428Y-133905714D01*
X155241190Y-133715238D01*
X155145952Y-133620000D01*
X154955476Y-133524761D01*
X152574523Y-134191428D02*
X152574523Y-135524761D01*
X153050714Y-133429523D02*
X153526904Y-134858095D01*
X152288809Y-134858095D01*
X151526904Y-134762857D02*
X150003095Y-134762857D01*
X149145952Y-135429523D02*
X148860238Y-135524761D01*
X148384047Y-135524761D01*
X148193571Y-135429523D01*
X148098333Y-135334285D01*
X148003095Y-135143809D01*
X148003095Y-134953333D01*
X148098333Y-134762857D01*
X148193571Y-134667619D01*
X148384047Y-134572380D01*
X148765000Y-134477142D01*
X148955476Y-134381904D01*
X149050714Y-134286666D01*
X149145952Y-134096190D01*
X149145952Y-133905714D01*
X149050714Y-133715238D01*
X148955476Y-133620000D01*
X148765000Y-133524761D01*
X148288809Y-133524761D01*
X148003095Y-133620000D01*
X147145952Y-135524761D02*
X147145952Y-134191428D01*
X147145952Y-133524761D02*
X147241190Y-133620000D01*
X147145952Y-133715238D01*
X147050714Y-133620000D01*
X147145952Y-133524761D01*
X147145952Y-133715238D01*
X145431666Y-135429523D02*
X145622142Y-135524761D01*
X146003095Y-135524761D01*
X146193571Y-135429523D01*
X146288809Y-135239047D01*
X146288809Y-134477142D01*
X146193571Y-134286666D01*
X146003095Y-134191428D01*
X145622142Y-134191428D01*
X145431666Y-134286666D01*
X145336428Y-134477142D01*
X145336428Y-134667619D01*
X146288809Y-134858095D01*
X144479285Y-135524761D02*
X144479285Y-134191428D01*
X144479285Y-134572380D02*
X144384047Y-134381904D01*
X144288809Y-134286666D01*
X144098333Y-134191428D01*
X143907857Y-134191428D01*
X143241190Y-135524761D02*
X143241190Y-134191428D01*
X143241190Y-134572380D02*
X143145952Y-134381904D01*
X143050714Y-134286666D01*
X142860238Y-134191428D01*
X142669761Y-134191428D01*
X141145952Y-135524761D02*
X141145952Y-134477142D01*
X141241190Y-134286666D01*
X141431666Y-134191428D01*
X141812619Y-134191428D01*
X142003095Y-134286666D01*
X141145952Y-135429523D02*
X141336428Y-135524761D01*
X141812619Y-135524761D01*
X142003095Y-135429523D01*
X142098333Y-135239047D01*
X142098333Y-135048571D01*
X142003095Y-134858095D01*
X141812619Y-134762857D01*
X141336428Y-134762857D01*
X141145952Y-134667619D01*
X108267142Y-134191428D02*
X107790952Y-135524761D01*
X107314761Y-134191428D01*
X105505238Y-135524761D02*
X106648095Y-135524761D01*
X106076666Y-135524761D02*
X106076666Y-133524761D01*
X106267142Y-133810476D01*
X106457619Y-134000952D01*
X106648095Y-134096190D01*
X104648095Y-135334285D02*
X104552857Y-135429523D01*
X104648095Y-135524761D01*
X104743333Y-135429523D01*
X104648095Y-135334285D01*
X104648095Y-135524761D01*
X103314761Y-133524761D02*
X103124285Y-133524761D01*
X102933809Y-133620000D01*
X102838571Y-133715238D01*
X102743333Y-133905714D01*
X102648095Y-134286666D01*
X102648095Y-134762857D01*
X102743333Y-135143809D01*
X102838571Y-135334285D01*
X102933809Y-135429523D01*
X103124285Y-135524761D01*
X103314761Y-135524761D01*
X103505238Y-135429523D01*
X103600476Y-135334285D01*
X103695714Y-135143809D01*
X103790952Y-134762857D01*
X103790952Y-134286666D01*
X103695714Y-133905714D01*
X103600476Y-133715238D01*
X103505238Y-133620000D01*
X103314761Y-133524761D01*
X126950000Y-80115000D02*
X126950000Y-55300000D01*
X126940000Y-88770000D02*
X126940000Y-83170000D01*
X126940000Y-99060000D02*
X126940000Y-91760000D01*
X119550000Y-99060000D02*
X123350000Y-99060000D01*
X84550000Y-99060000D02*
X117150000Y-99060000D01*
D11*
X137985500Y-43180000D02*
G75*
G03*
X138938000Y-42227500I0J952500D01*
G01*
X119570500Y-43180000D02*
X137985500Y-43180000D01*
X139890500Y-41275000D02*
X171767500Y-41275000D01*
X118618000Y-42227500D02*
G75*
G03*
X117665500Y-41275000I-952500J0D01*
G01*
X118618000Y-42227500D02*
G75*
G03*
X119570500Y-43180000I952500J0D01*
G01*
X83502500Y-41275000D02*
X117665500Y-41275000D01*
X139890500Y-41275000D02*
G75*
G03*
X138938000Y-42227500I0J-952500D01*
G01*
X139890500Y-137160000D02*
X171767500Y-137160000D01*
X119570500Y-135255000D02*
X137985500Y-135255000D01*
X83502500Y-137160000D02*
X117665500Y-137160000D01*
X139890500Y-137160000D02*
G75*
G02*
X138938000Y-136207500I0J952500D01*
G01*
X137985500Y-135255000D02*
G75*
G02*
X138938000Y-136207500I0J-952500D01*
G01*
X118618000Y-136207500D02*
G75*
G02*
X119570500Y-135255000I952500J0D01*
G01*
X118618000Y-136207500D02*
G75*
G02*
X117665500Y-137160000I-952500J0D01*
G01*
X171767500Y-79070200D02*
G75*
G03*
X170815000Y-80022700I0J-952500D01*
G01*
X172720000Y-42227500D02*
X172720000Y-78117700D01*
X170815000Y-80022700D02*
X170815000Y-98412300D01*
X172720000Y-100317300D02*
X172720000Y-136207500D01*
X170815000Y-98412300D02*
G75*
G03*
X171767500Y-99364800I952500J0D01*
G01*
X172720000Y-100317300D02*
G75*
G03*
X171767500Y-99364800I-952500J0D01*
G01*
X171767500Y-79070200D02*
G75*
G03*
X172720000Y-78117700I0J952500D01*
G01*
X172720000Y-136207500D02*
G75*
G02*
X171767500Y-137160000I-952500J0D01*
G01*
X171767500Y-41275000D02*
G75*
G02*
X172720000Y-42227500I0J-952500D01*
G01*
X82550000Y-100317300D02*
X82550000Y-136207500D01*
X82550000Y-42227500D02*
X82550000Y-78117700D01*
X82550000Y-42227500D02*
G75*
G02*
X83502500Y-41275000I952500J0D01*
G01*
X84455000Y-80022700D02*
X84455000Y-98412300D01*
X83502500Y-79070200D02*
G75*
G02*
X82550000Y-78117700I0J952500D01*
G01*
X83502500Y-79070200D02*
G75*
G02*
X84455000Y-80022700I0J-952500D01*
G01*
X84455000Y-98412300D02*
G75*
G02*
X83502500Y-99364800I-952500J0D01*
G01*
X82550000Y-100317300D02*
G75*
G02*
X83502500Y-99364800I952500J0D01*
G01*
X83502500Y-137160000D02*
G75*
G02*
X82550000Y-136207500I0J952500D01*
G01*
D12*
G36*
X166634630Y-50772790D02*
G01*
X166522277Y-50773469D01*
X166432192Y-50774676D01*
X166362415Y-50776471D01*
X166310989Y-50778917D01*
X166275957Y-50782075D01*
X166255359Y-50786006D01*
X166248864Y-50788943D01*
X166241632Y-50800548D01*
X166232610Y-50826768D01*
X166221415Y-50869328D01*
X166207668Y-50929955D01*
X166190987Y-51010375D01*
X166170991Y-51112314D01*
X166147298Y-51237499D01*
X166133941Y-51309382D01*
X166107039Y-51453004D01*
X166083996Y-51571924D01*
X166064557Y-51667300D01*
X166048470Y-51740290D01*
X166035482Y-51792053D01*
X166025339Y-51823747D01*
X166018945Y-51835596D01*
X166001981Y-51845650D01*
X165964507Y-51863711D01*
X165910373Y-51888179D01*
X165843429Y-51917455D01*
X165767522Y-51949936D01*
X165686504Y-51984024D01*
X165604223Y-52018117D01*
X165524529Y-52050615D01*
X165451272Y-52079918D01*
X165388300Y-52104426D01*
X165339463Y-52122537D01*
X165308611Y-52132652D01*
X165300656Y-52134227D01*
X165286056Y-52127040D01*
X165252342Y-52106537D01*
X165201927Y-52074304D01*
X165137229Y-52031928D01*
X165060663Y-51980996D01*
X164974644Y-51923093D01*
X164881589Y-51859808D01*
X164852121Y-51839639D01*
X164757699Y-51775107D01*
X164669890Y-51715459D01*
X164591061Y-51662274D01*
X164523578Y-51617133D01*
X164469808Y-51581618D01*
X164432117Y-51557307D01*
X164412872Y-51545782D01*
X164411009Y-51545052D01*
X164397789Y-51554058D01*
X164369073Y-51579465D01*
X164327231Y-51618860D01*
X164274636Y-51669827D01*
X164213657Y-51729951D01*
X164146666Y-51796817D01*
X164076033Y-51868012D01*
X164004131Y-51941119D01*
X163933328Y-52013725D01*
X163865998Y-52083414D01*
X163804510Y-52147771D01*
X163751235Y-52204382D01*
X163708545Y-52250832D01*
X163678811Y-52284707D01*
X163664403Y-52303590D01*
X163663466Y-52306415D01*
X163672270Y-52320859D01*
X163694269Y-52354393D01*
X163727793Y-52404547D01*
X163771177Y-52468850D01*
X163822752Y-52544831D01*
X163880850Y-52630022D01*
X163943806Y-52721951D01*
X163953403Y-52735934D01*
X164016774Y-52828856D01*
X164075192Y-52915724D01*
X164127031Y-52994025D01*
X164170662Y-53061246D01*
X164204458Y-53114875D01*
X164226790Y-53152398D01*
X164236029Y-53171305D01*
X164236186Y-53172352D01*
X164231066Y-53191858D01*
X164216790Y-53231435D01*
X164194983Y-53287293D01*
X164167269Y-53355639D01*
X164135272Y-53432682D01*
X164100617Y-53514630D01*
X164064929Y-53597691D01*
X164029832Y-53678073D01*
X163996951Y-53751986D01*
X163967911Y-53815636D01*
X163944335Y-53865233D01*
X163927849Y-53896985D01*
X163921770Y-53906190D01*
X163909792Y-53913811D01*
X163885882Y-53922658D01*
X163847990Y-53933191D01*
X163794068Y-53945871D01*
X163722067Y-53961158D01*
X163629938Y-53979512D01*
X163515633Y-54001393D01*
X163409813Y-54021196D01*
X163274246Y-54046659D01*
X163162787Y-54068241D01*
X163073705Y-54086327D01*
X163005273Y-54101301D01*
X162955760Y-54113550D01*
X162923439Y-54123457D01*
X162906580Y-54131408D01*
X162903995Y-54133824D01*
X162899539Y-54146236D01*
X162895896Y-54171835D01*
X162893003Y-54212578D01*
X162890800Y-54270424D01*
X162889225Y-54347329D01*
X162888217Y-54445252D01*
X162887714Y-54566151D01*
X162887629Y-54656155D01*
X162887736Y-54785668D01*
X162888123Y-54891469D01*
X162888888Y-54976032D01*
X162890127Y-55041829D01*
X162891939Y-55091335D01*
X162894421Y-55127021D01*
X162897671Y-55151362D01*
X162901787Y-55166831D01*
X162906866Y-55175900D01*
X162908203Y-55177364D01*
X162927621Y-55193753D01*
X162936402Y-55197938D01*
X162950589Y-55200245D01*
X162987592Y-55206808D01*
X163044486Y-55217095D01*
X163118343Y-55230570D01*
X163206237Y-55246701D01*
X163305241Y-55264953D01*
X163410080Y-55284357D01*
X163548206Y-55310347D01*
X163661618Y-55332539D01*
X163751471Y-55351188D01*
X163818920Y-55366550D01*
X163865121Y-55378883D01*
X163891228Y-55388441D01*
X163897220Y-55392373D01*
X163907302Y-55409801D01*
X163925199Y-55447976D01*
X163949416Y-55503171D01*
X163978456Y-55571659D01*
X164010824Y-55649713D01*
X164045024Y-55733607D01*
X164079558Y-55819614D01*
X164112932Y-55904006D01*
X164143648Y-55983057D01*
X164170211Y-56053039D01*
X164191125Y-56110227D01*
X164204893Y-56150892D01*
X164210020Y-56171309D01*
X164210025Y-56171578D01*
X164202822Y-56187662D01*
X164182333Y-56222669D01*
X164150222Y-56274021D01*
X164108154Y-56339144D01*
X164057792Y-56415459D01*
X164000801Y-56500392D01*
X163939584Y-56590287D01*
X163877555Y-56681067D01*
X163820264Y-56765558D01*
X163769405Y-56841213D01*
X163726671Y-56905484D01*
X163693756Y-56955825D01*
X163672353Y-56989689D01*
X163664168Y-57004482D01*
X163672065Y-57018870D01*
X163697830Y-57050235D01*
X163740411Y-57097453D01*
X163798753Y-57159399D01*
X163871805Y-57234949D01*
X163958512Y-57322979D01*
X164024839Y-57389499D01*
X164118863Y-57483144D01*
X164196314Y-57559659D01*
X164258938Y-57620626D01*
X164308482Y-57667624D01*
X164346693Y-57702235D01*
X164375316Y-57726039D01*
X164396099Y-57740617D01*
X164410789Y-57747550D01*
X164421130Y-57748418D01*
X164421364Y-57748373D01*
X164439222Y-57739648D01*
X164475811Y-57717733D01*
X164528386Y-57684414D01*
X164594199Y-57641475D01*
X164670503Y-57590705D01*
X164754551Y-57533890D01*
X164818303Y-57490253D01*
X164905989Y-57430028D01*
X164987556Y-57374209D01*
X165060306Y-57324623D01*
X165121544Y-57283102D01*
X165168573Y-57251474D01*
X165198697Y-57231570D01*
X165208423Y-57225515D01*
X165218553Y-57222195D01*
X165232507Y-57222849D01*
X165253065Y-57228713D01*
X165283006Y-57241026D01*
X165325108Y-57261026D01*
X165382151Y-57289950D01*
X165456915Y-57329036D01*
X165541684Y-57373943D01*
X165585273Y-57396175D01*
X165612402Y-57406582D01*
X165629187Y-57406603D01*
X165641745Y-57397677D01*
X165641890Y-57397526D01*
X165650334Y-57381947D01*
X165667584Y-57344534D01*
X165692640Y-57287710D01*
X165724502Y-57213894D01*
X165762171Y-57125506D01*
X165804646Y-57024969D01*
X165850929Y-56914702D01*
X165900019Y-56797127D01*
X165950916Y-56674663D01*
X166002620Y-56549731D01*
X166054133Y-56424753D01*
X166104453Y-56302148D01*
X166152581Y-56184338D01*
X166197518Y-56073744D01*
X166238263Y-55972785D01*
X166273817Y-55883882D01*
X166303179Y-55809457D01*
X166325351Y-55751930D01*
X166339332Y-55713721D01*
X166344124Y-55697318D01*
X166332729Y-55673674D01*
X166297857Y-55644008D01*
X166268840Y-55625100D01*
X166118030Y-55519510D01*
X165989067Y-55401057D01*
X165882503Y-55270610D01*
X165798892Y-55129033D01*
X165738787Y-54977193D01*
X165702741Y-54815958D01*
X165693386Y-54723822D01*
X165695786Y-54555513D01*
X165722788Y-54393831D01*
X165773220Y-54240774D01*
X165845910Y-54098339D01*
X165939688Y-53968527D01*
X166053380Y-53853333D01*
X166185816Y-53754756D01*
X166298299Y-53692173D01*
X166421517Y-53639393D01*
X166538640Y-53605194D01*
X166659496Y-53587372D01*
X166782732Y-53583550D01*
X166949742Y-53598205D01*
X167108925Y-53637084D01*
X167258248Y-53698875D01*
X167395679Y-53782267D01*
X167519187Y-53885947D01*
X167626740Y-54008604D01*
X167716306Y-54148925D01*
X167744135Y-54204321D01*
X167784561Y-54297899D01*
X167812654Y-54382973D01*
X167830222Y-54468190D01*
X167839076Y-54562199D01*
X167841061Y-54667681D01*
X167839814Y-54745881D01*
X167836345Y-54806277D01*
X167829614Y-54857224D01*
X167818580Y-54907076D01*
X167805532Y-54953201D01*
X167752778Y-55097465D01*
X167684551Y-55227006D01*
X167598395Y-55345008D01*
X167491856Y-55454657D01*
X167362480Y-55559138D01*
X167310131Y-55595902D01*
X167262427Y-55629367D01*
X167223341Y-55658783D01*
X167197751Y-55680359D01*
X167190419Y-55688920D01*
X167193807Y-55704400D01*
X167206211Y-55741083D01*
X167226507Y-55796028D01*
X167253568Y-55866298D01*
X167286268Y-55948953D01*
X167323480Y-56041053D01*
X167351480Y-56109255D01*
X167399993Y-56226715D01*
X167455489Y-56361158D01*
X167514985Y-56505353D01*
X167575498Y-56652066D01*
X167634044Y-56794068D01*
X167687640Y-56924126D01*
X167700570Y-56955514D01*
X167755289Y-57087070D01*
X167801970Y-57196571D01*
X167840394Y-57283528D01*
X167870339Y-57347454D01*
X167891583Y-57387863D01*
X167903905Y-57404265D01*
X167904480Y-57404520D01*
X167924218Y-57401103D01*
X167963164Y-57385889D01*
X168017962Y-57360373D01*
X168085260Y-57326052D01*
X168109726Y-57313001D01*
X168172793Y-57279385D01*
X168227958Y-57250679D01*
X168271043Y-57229001D01*
X168297871Y-57216472D01*
X168304461Y-57214227D01*
X168317526Y-57221389D01*
X168349652Y-57241771D01*
X168398352Y-57273714D01*
X168461137Y-57315560D01*
X168535519Y-57365653D01*
X168619011Y-57422332D01*
X168707212Y-57482629D01*
X168797899Y-57544334D01*
X168882640Y-57601039D01*
X168958826Y-57651072D01*
X169023849Y-57692759D01*
X169075101Y-57724428D01*
X169109975Y-57744405D01*
X169125612Y-57751031D01*
X169143332Y-57741429D01*
X169178773Y-57712658D01*
X169231874Y-57664776D01*
X169302576Y-57597838D01*
X169390818Y-57511898D01*
X169496542Y-57407014D01*
X169509393Y-57394165D01*
X169613949Y-57288843D01*
X169700811Y-57199807D01*
X169769699Y-57127360D01*
X169820332Y-57071803D01*
X169852429Y-57033439D01*
X169865709Y-57012570D01*
X169866082Y-57010543D01*
X169858878Y-56993889D01*
X169838381Y-56958353D01*
X169806264Y-56906541D01*
X169764198Y-56841058D01*
X169713859Y-56764510D01*
X169656917Y-56679501D01*
X169597680Y-56592479D01*
X169529271Y-56491916D01*
X169468790Y-56401354D01*
X169417530Y-56322820D01*
X169376780Y-56258340D01*
X169347831Y-56209941D01*
X169331973Y-56179649D01*
X169329278Y-56170997D01*
X169334131Y-56150058D01*
X169347687Y-56108862D01*
X169368445Y-56051158D01*
X169394902Y-55980700D01*
X169425556Y-55901239D01*
X169458904Y-55816528D01*
X169493443Y-55730319D01*
X169527673Y-55646363D01*
X169560090Y-55568412D01*
X169589192Y-55500219D01*
X169613476Y-55445535D01*
X169631440Y-55408112D01*
X169641168Y-55392080D01*
X169657145Y-55383925D01*
X169691852Y-55373284D01*
X169746554Y-55359881D01*
X169822518Y-55343435D01*
X169921010Y-55323668D01*
X170043296Y-55300300D01*
X170134484Y-55283353D01*
X170260493Y-55259968D01*
X170363127Y-55240474D01*
X170444819Y-55224312D01*
X170507999Y-55210922D01*
X170555098Y-55199746D01*
X170588547Y-55190223D01*
X170610776Y-55181794D01*
X170624217Y-55173899D01*
X170628737Y-55169591D01*
X170634656Y-55160859D01*
X170639465Y-55148246D01*
X170643279Y-55129174D01*
X170646212Y-55101062D01*
X170648375Y-55061333D01*
X170649884Y-55007407D01*
X170650852Y-54936704D01*
X170651392Y-54846647D01*
X170651618Y-54734657D01*
X170651649Y-54649093D01*
X170651433Y-54513532D01*
X170650742Y-54402184D01*
X170649514Y-54313079D01*
X170647687Y-54244249D01*
X170645197Y-54193725D01*
X170641983Y-54159537D01*
X170637981Y-54139717D01*
X170635283Y-54134040D01*
X170623013Y-54126559D01*
X170595230Y-54117197D01*
X170550246Y-54105579D01*
X170486369Y-54091330D01*
X170401909Y-54074076D01*
X170295176Y-54053442D01*
X170164480Y-54029054D01*
X170147577Y-54025944D01*
X170038445Y-54005702D01*
X169936328Y-53986405D01*
X169844370Y-53968672D01*
X169765712Y-53953125D01*
X169703496Y-53940384D01*
X169660862Y-53931069D01*
X169641197Y-53925899D01*
X169629829Y-53919340D01*
X169617656Y-53906679D01*
X169603361Y-53885326D01*
X169585627Y-53852691D01*
X169563135Y-53806184D01*
X169534569Y-53743214D01*
X169498611Y-53661191D01*
X169454625Y-53559118D01*
X169415960Y-53467900D01*
X169380935Y-53383243D01*
X169350859Y-53308471D01*
X169327039Y-53246908D01*
X169310783Y-53201878D01*
X169303399Y-53176706D01*
X169303093Y-53173964D01*
X169310681Y-53154091D01*
X169332950Y-53114222D01*
X169369156Y-53055520D01*
X169418557Y-52979150D01*
X169480408Y-52886275D01*
X169553968Y-52778060D01*
X169580354Y-52739663D01*
X169643418Y-52647447D01*
X169701717Y-52560918D01*
X169753559Y-52482684D01*
X169797254Y-52415353D01*
X169831110Y-52361532D01*
X169853436Y-52323828D01*
X169862541Y-52304850D01*
X169862620Y-52304433D01*
X169861700Y-52293860D01*
X169855060Y-52279344D01*
X169841097Y-52259120D01*
X169818205Y-52231424D01*
X169784783Y-52194488D01*
X169739225Y-52146549D01*
X169679929Y-52085840D01*
X169605290Y-52010597D01*
X169513705Y-51919054D01*
X169501217Y-51906607D01*
X169394575Y-51800978D01*
X169305547Y-51714176D01*
X169233837Y-51645925D01*
X169179147Y-51595950D01*
X169141180Y-51563976D01*
X169119640Y-51549729D01*
X169115219Y-51549030D01*
X169100378Y-51557913D01*
X169066446Y-51580023D01*
X169015878Y-51613705D01*
X168951131Y-51657304D01*
X168874659Y-51709165D01*
X168788918Y-51767634D01*
X168696363Y-51831055D01*
X168675506Y-51845387D01*
X168581869Y-51909425D01*
X168494487Y-51968534D01*
X168415812Y-52021106D01*
X168348292Y-52065532D01*
X168294377Y-52100204D01*
X168256517Y-52123514D01*
X168237161Y-52133853D01*
X168235608Y-52134227D01*
X168218351Y-52129434D01*
X168180516Y-52115976D01*
X168125710Y-52095234D01*
X168057537Y-52068589D01*
X167979602Y-52037422D01*
X167924798Y-52015140D01*
X167814027Y-51969791D01*
X167725039Y-51933228D01*
X167655382Y-51904330D01*
X167602601Y-51881974D01*
X167564242Y-51865036D01*
X167537852Y-51852395D01*
X167520976Y-51842927D01*
X167511161Y-51835510D01*
X167505953Y-51829020D01*
X167502897Y-51822337D01*
X167502790Y-51822064D01*
X167498980Y-51805846D01*
X167491049Y-51767359D01*
X167479657Y-51710079D01*
X167465465Y-51637482D01*
X167449132Y-51553045D01*
X167431318Y-51460244D01*
X167412683Y-51362555D01*
X167393885Y-51263455D01*
X167375586Y-51166420D01*
X167358445Y-51074926D01*
X167343122Y-50992450D01*
X167330276Y-50922467D01*
X167320568Y-50868455D01*
X167314656Y-50833890D01*
X167313104Y-50822611D01*
X167304784Y-50807287D01*
X167292415Y-50793152D01*
X167284486Y-50787834D01*
X167270735Y-50783502D01*
X167248691Y-50780058D01*
X167215880Y-50777405D01*
X167169828Y-50775445D01*
X167108062Y-50774080D01*
X167028110Y-50773213D01*
X166927498Y-50772747D01*
X166803752Y-50772583D01*
X166771206Y-50772578D01*
X166634630Y-50772790D01*
G37*
X166634630Y-50772790D02*
X166522277Y-50773469D01*
X166432192Y-50774676D01*
X166362415Y-50776471D01*
X166310989Y-50778917D01*
X166275957Y-50782075D01*
X166255359Y-50786006D01*
X166248864Y-50788943D01*
X166241632Y-50800548D01*
X166232610Y-50826768D01*
X166221415Y-50869328D01*
X166207668Y-50929955D01*
X166190987Y-51010375D01*
X166170991Y-51112314D01*
X166147298Y-51237499D01*
X166133941Y-51309382D01*
X166107039Y-51453004D01*
X166083996Y-51571924D01*
X166064557Y-51667300D01*
X166048470Y-51740290D01*
X166035482Y-51792053D01*
X166025339Y-51823747D01*
X166018945Y-51835596D01*
X166001981Y-51845650D01*
X165964507Y-51863711D01*
X165910373Y-51888179D01*
X165843429Y-51917455D01*
X165767522Y-51949936D01*
X165686504Y-51984024D01*
X165604223Y-52018117D01*
X165524529Y-52050615D01*
X165451272Y-52079918D01*
X165388300Y-52104426D01*
X165339463Y-52122537D01*
X165308611Y-52132652D01*
X165300656Y-52134227D01*
X165286056Y-52127040D01*
X165252342Y-52106537D01*
X165201927Y-52074304D01*
X165137229Y-52031928D01*
X165060663Y-51980996D01*
X164974644Y-51923093D01*
X164881589Y-51859808D01*
X164852121Y-51839639D01*
X164757699Y-51775107D01*
X164669890Y-51715459D01*
X164591061Y-51662274D01*
X164523578Y-51617133D01*
X164469808Y-51581618D01*
X164432117Y-51557307D01*
X164412872Y-51545782D01*
X164411009Y-51545052D01*
X164397789Y-51554058D01*
X164369073Y-51579465D01*
X164327231Y-51618860D01*
X164274636Y-51669827D01*
X164213657Y-51729951D01*
X164146666Y-51796817D01*
X164076033Y-51868012D01*
X164004131Y-51941119D01*
X163933328Y-52013725D01*
X163865998Y-52083414D01*
X163804510Y-52147771D01*
X163751235Y-52204382D01*
X163708545Y-52250832D01*
X163678811Y-52284707D01*
X163664403Y-52303590D01*
X163663466Y-52306415D01*
X163672270Y-52320859D01*
X163694269Y-52354393D01*
X163727793Y-52404547D01*
X163771177Y-52468850D01*
X163822752Y-52544831D01*
X163880850Y-52630022D01*
X163943806Y-52721951D01*
X163953403Y-52735934D01*
X164016774Y-52828856D01*
X164075192Y-52915724D01*
X164127031Y-52994025D01*
X164170662Y-53061246D01*
X164204458Y-53114875D01*
X164226790Y-53152398D01*
X164236029Y-53171305D01*
X164236186Y-53172352D01*
X164231066Y-53191858D01*
X164216790Y-53231435D01*
X164194983Y-53287293D01*
X164167269Y-53355639D01*
X164135272Y-53432682D01*
X164100617Y-53514630D01*
X164064929Y-53597691D01*
X164029832Y-53678073D01*
X163996951Y-53751986D01*
X163967911Y-53815636D01*
X163944335Y-53865233D01*
X163927849Y-53896985D01*
X163921770Y-53906190D01*
X163909792Y-53913811D01*
X163885882Y-53922658D01*
X163847990Y-53933191D01*
X163794068Y-53945871D01*
X163722067Y-53961158D01*
X163629938Y-53979512D01*
X163515633Y-54001393D01*
X163409813Y-54021196D01*
X163274246Y-54046659D01*
X163162787Y-54068241D01*
X163073705Y-54086327D01*
X163005273Y-54101301D01*
X162955760Y-54113550D01*
X162923439Y-54123457D01*
X162906580Y-54131408D01*
X162903995Y-54133824D01*
X162899539Y-54146236D01*
X162895896Y-54171835D01*
X162893003Y-54212578D01*
X162890800Y-54270424D01*
X162889225Y-54347329D01*
X162888217Y-54445252D01*
X162887714Y-54566151D01*
X162887629Y-54656155D01*
X162887736Y-54785668D01*
X162888123Y-54891469D01*
X162888888Y-54976032D01*
X162890127Y-55041829D01*
X162891939Y-55091335D01*
X162894421Y-55127021D01*
X162897671Y-55151362D01*
X162901787Y-55166831D01*
X162906866Y-55175900D01*
X162908203Y-55177364D01*
X162927621Y-55193753D01*
X162936402Y-55197938D01*
X162950589Y-55200245D01*
X162987592Y-55206808D01*
X163044486Y-55217095D01*
X163118343Y-55230570D01*
X163206237Y-55246701D01*
X163305241Y-55264953D01*
X163410080Y-55284357D01*
X163548206Y-55310347D01*
X163661618Y-55332539D01*
X163751471Y-55351188D01*
X163818920Y-55366550D01*
X163865121Y-55378883D01*
X163891228Y-55388441D01*
X163897220Y-55392373D01*
X163907302Y-55409801D01*
X163925199Y-55447976D01*
X163949416Y-55503171D01*
X163978456Y-55571659D01*
X164010824Y-55649713D01*
X164045024Y-55733607D01*
X164079558Y-55819614D01*
X164112932Y-55904006D01*
X164143648Y-55983057D01*
X164170211Y-56053039D01*
X164191125Y-56110227D01*
X164204893Y-56150892D01*
X164210020Y-56171309D01*
X164210025Y-56171578D01*
X164202822Y-56187662D01*
X164182333Y-56222669D01*
X164150222Y-56274021D01*
X164108154Y-56339144D01*
X164057792Y-56415459D01*
X164000801Y-56500392D01*
X163939584Y-56590287D01*
X163877555Y-56681067D01*
X163820264Y-56765558D01*
X163769405Y-56841213D01*
X163726671Y-56905484D01*
X163693756Y-56955825D01*
X163672353Y-56989689D01*
X163664168Y-57004482D01*
X163672065Y-57018870D01*
X163697830Y-57050235D01*
X163740411Y-57097453D01*
X163798753Y-57159399D01*
X163871805Y-57234949D01*
X163958512Y-57322979D01*
X164024839Y-57389499D01*
X164118863Y-57483144D01*
X164196314Y-57559659D01*
X164258938Y-57620626D01*
X164308482Y-57667624D01*
X164346693Y-57702235D01*
X164375316Y-57726039D01*
X164396099Y-57740617D01*
X164410789Y-57747550D01*
X164421130Y-57748418D01*
X164421364Y-57748373D01*
X164439222Y-57739648D01*
X164475811Y-57717733D01*
X164528386Y-57684414D01*
X164594199Y-57641475D01*
X164670503Y-57590705D01*
X164754551Y-57533890D01*
X164818303Y-57490253D01*
X164905989Y-57430028D01*
X164987556Y-57374209D01*
X165060306Y-57324623D01*
X165121544Y-57283102D01*
X165168573Y-57251474D01*
X165198697Y-57231570D01*
X165208423Y-57225515D01*
X165218553Y-57222195D01*
X165232507Y-57222849D01*
X165253065Y-57228713D01*
X165283006Y-57241026D01*
X165325108Y-57261026D01*
X165382151Y-57289950D01*
X165456915Y-57329036D01*
X165541684Y-57373943D01*
X165585273Y-57396175D01*
X165612402Y-57406582D01*
X165629187Y-57406603D01*
X165641745Y-57397677D01*
X165641890Y-57397526D01*
X165650334Y-57381947D01*
X165667584Y-57344534D01*
X165692640Y-57287710D01*
X165724502Y-57213894D01*
X165762171Y-57125506D01*
X165804646Y-57024969D01*
X165850929Y-56914702D01*
X165900019Y-56797127D01*
X165950916Y-56674663D01*
X166002620Y-56549731D01*
X166054133Y-56424753D01*
X166104453Y-56302148D01*
X166152581Y-56184338D01*
X166197518Y-56073744D01*
X166238263Y-55972785D01*
X166273817Y-55883882D01*
X166303179Y-55809457D01*
X166325351Y-55751930D01*
X166339332Y-55713721D01*
X166344124Y-55697318D01*
X166332729Y-55673674D01*
X166297857Y-55644008D01*
X166268840Y-55625100D01*
X166118030Y-55519510D01*
X165989067Y-55401057D01*
X165882503Y-55270610D01*
X165798892Y-55129033D01*
X165738787Y-54977193D01*
X165702741Y-54815958D01*
X165693386Y-54723822D01*
X165695786Y-54555513D01*
X165722788Y-54393831D01*
X165773220Y-54240774D01*
X165845910Y-54098339D01*
X165939688Y-53968527D01*
X166053380Y-53853333D01*
X166185816Y-53754756D01*
X166298299Y-53692173D01*
X166421517Y-53639393D01*
X166538640Y-53605194D01*
X166659496Y-53587372D01*
X166782732Y-53583550D01*
X166949742Y-53598205D01*
X167108925Y-53637084D01*
X167258248Y-53698875D01*
X167395679Y-53782267D01*
X167519187Y-53885947D01*
X167626740Y-54008604D01*
X167716306Y-54148925D01*
X167744135Y-54204321D01*
X167784561Y-54297899D01*
X167812654Y-54382973D01*
X167830222Y-54468190D01*
X167839076Y-54562199D01*
X167841061Y-54667681D01*
X167839814Y-54745881D01*
X167836345Y-54806277D01*
X167829614Y-54857224D01*
X167818580Y-54907076D01*
X167805532Y-54953201D01*
X167752778Y-55097465D01*
X167684551Y-55227006D01*
X167598395Y-55345008D01*
X167491856Y-55454657D01*
X167362480Y-55559138D01*
X167310131Y-55595902D01*
X167262427Y-55629367D01*
X167223341Y-55658783D01*
X167197751Y-55680359D01*
X167190419Y-55688920D01*
X167193807Y-55704400D01*
X167206211Y-55741083D01*
X167226507Y-55796028D01*
X167253568Y-55866298D01*
X167286268Y-55948953D01*
X167323480Y-56041053D01*
X167351480Y-56109255D01*
X167399993Y-56226715D01*
X167455489Y-56361158D01*
X167514985Y-56505353D01*
X167575498Y-56652066D01*
X167634044Y-56794068D01*
X167687640Y-56924126D01*
X167700570Y-56955514D01*
X167755289Y-57087070D01*
X167801970Y-57196571D01*
X167840394Y-57283528D01*
X167870339Y-57347454D01*
X167891583Y-57387863D01*
X167903905Y-57404265D01*
X167904480Y-57404520D01*
X167924218Y-57401103D01*
X167963164Y-57385889D01*
X168017962Y-57360373D01*
X168085260Y-57326052D01*
X168109726Y-57313001D01*
X168172793Y-57279385D01*
X168227958Y-57250679D01*
X168271043Y-57229001D01*
X168297871Y-57216472D01*
X168304461Y-57214227D01*
X168317526Y-57221389D01*
X168349652Y-57241771D01*
X168398352Y-57273714D01*
X168461137Y-57315560D01*
X168535519Y-57365653D01*
X168619011Y-57422332D01*
X168707212Y-57482629D01*
X168797899Y-57544334D01*
X168882640Y-57601039D01*
X168958826Y-57651072D01*
X169023849Y-57692759D01*
X169075101Y-57724428D01*
X169109975Y-57744405D01*
X169125612Y-57751031D01*
X169143332Y-57741429D01*
X169178773Y-57712658D01*
X169231874Y-57664776D01*
X169302576Y-57597838D01*
X169390818Y-57511898D01*
X169496542Y-57407014D01*
X169509393Y-57394165D01*
X169613949Y-57288843D01*
X169700811Y-57199807D01*
X169769699Y-57127360D01*
X169820332Y-57071803D01*
X169852429Y-57033439D01*
X169865709Y-57012570D01*
X169866082Y-57010543D01*
X169858878Y-56993889D01*
X169838381Y-56958353D01*
X169806264Y-56906541D01*
X169764198Y-56841058D01*
X169713859Y-56764510D01*
X169656917Y-56679501D01*
X169597680Y-56592479D01*
X169529271Y-56491916D01*
X169468790Y-56401354D01*
X169417530Y-56322820D01*
X169376780Y-56258340D01*
X169347831Y-56209941D01*
X169331973Y-56179649D01*
X169329278Y-56170997D01*
X169334131Y-56150058D01*
X169347687Y-56108862D01*
X169368445Y-56051158D01*
X169394902Y-55980700D01*
X169425556Y-55901239D01*
X169458904Y-55816528D01*
X169493443Y-55730319D01*
X169527673Y-55646363D01*
X169560090Y-55568412D01*
X169589192Y-55500219D01*
X169613476Y-55445535D01*
X169631440Y-55408112D01*
X169641168Y-55392080D01*
X169657145Y-55383925D01*
X169691852Y-55373284D01*
X169746554Y-55359881D01*
X169822518Y-55343435D01*
X169921010Y-55323668D01*
X170043296Y-55300300D01*
X170134484Y-55283353D01*
X170260493Y-55259968D01*
X170363127Y-55240474D01*
X170444819Y-55224312D01*
X170507999Y-55210922D01*
X170555098Y-55199746D01*
X170588547Y-55190223D01*
X170610776Y-55181794D01*
X170624217Y-55173899D01*
X170628737Y-55169591D01*
X170634656Y-55160859D01*
X170639465Y-55148246D01*
X170643279Y-55129174D01*
X170646212Y-55101062D01*
X170648375Y-55061333D01*
X170649884Y-55007407D01*
X170650852Y-54936704D01*
X170651392Y-54846647D01*
X170651618Y-54734657D01*
X170651649Y-54649093D01*
X170651433Y-54513532D01*
X170650742Y-54402184D01*
X170649514Y-54313079D01*
X170647687Y-54244249D01*
X170645197Y-54193725D01*
X170641983Y-54159537D01*
X170637981Y-54139717D01*
X170635283Y-54134040D01*
X170623013Y-54126559D01*
X170595230Y-54117197D01*
X170550246Y-54105579D01*
X170486369Y-54091330D01*
X170401909Y-54074076D01*
X170295176Y-54053442D01*
X170164480Y-54029054D01*
X170147577Y-54025944D01*
X170038445Y-54005702D01*
X169936328Y-53986405D01*
X169844370Y-53968672D01*
X169765712Y-53953125D01*
X169703496Y-53940384D01*
X169660862Y-53931069D01*
X169641197Y-53925899D01*
X169629829Y-53919340D01*
X169617656Y-53906679D01*
X169603361Y-53885326D01*
X169585627Y-53852691D01*
X169563135Y-53806184D01*
X169534569Y-53743214D01*
X169498611Y-53661191D01*
X169454625Y-53559118D01*
X169415960Y-53467900D01*
X169380935Y-53383243D01*
X169350859Y-53308471D01*
X169327039Y-53246908D01*
X169310783Y-53201878D01*
X169303399Y-53176706D01*
X169303093Y-53173964D01*
X169310681Y-53154091D01*
X169332950Y-53114222D01*
X169369156Y-53055520D01*
X169418557Y-52979150D01*
X169480408Y-52886275D01*
X169553968Y-52778060D01*
X169580354Y-52739663D01*
X169643418Y-52647447D01*
X169701717Y-52560918D01*
X169753559Y-52482684D01*
X169797254Y-52415353D01*
X169831110Y-52361532D01*
X169853436Y-52323828D01*
X169862541Y-52304850D01*
X169862620Y-52304433D01*
X169861700Y-52293860D01*
X169855060Y-52279344D01*
X169841097Y-52259120D01*
X169818205Y-52231424D01*
X169784783Y-52194488D01*
X169739225Y-52146549D01*
X169679929Y-52085840D01*
X169605290Y-52010597D01*
X169513705Y-51919054D01*
X169501217Y-51906607D01*
X169394575Y-51800978D01*
X169305547Y-51714176D01*
X169233837Y-51645925D01*
X169179147Y-51595950D01*
X169141180Y-51563976D01*
X169119640Y-51549729D01*
X169115219Y-51549030D01*
X169100378Y-51557913D01*
X169066446Y-51580023D01*
X169015878Y-51613705D01*
X168951131Y-51657304D01*
X168874659Y-51709165D01*
X168788918Y-51767634D01*
X168696363Y-51831055D01*
X168675506Y-51845387D01*
X168581869Y-51909425D01*
X168494487Y-51968534D01*
X168415812Y-52021106D01*
X168348292Y-52065532D01*
X168294377Y-52100204D01*
X168256517Y-52123514D01*
X168237161Y-52133853D01*
X168235608Y-52134227D01*
X168218351Y-52129434D01*
X168180516Y-52115976D01*
X168125710Y-52095234D01*
X168057537Y-52068589D01*
X167979602Y-52037422D01*
X167924798Y-52015140D01*
X167814027Y-51969791D01*
X167725039Y-51933228D01*
X167655382Y-51904330D01*
X167602601Y-51881974D01*
X167564242Y-51865036D01*
X167537852Y-51852395D01*
X167520976Y-51842927D01*
X167511161Y-51835510D01*
X167505953Y-51829020D01*
X167502897Y-51822337D01*
X167502790Y-51822064D01*
X167498980Y-51805846D01*
X167491049Y-51767359D01*
X167479657Y-51710079D01*
X167465465Y-51637482D01*
X167449132Y-51553045D01*
X167431318Y-51460244D01*
X167412683Y-51362555D01*
X167393885Y-51263455D01*
X167375586Y-51166420D01*
X167358445Y-51074926D01*
X167343122Y-50992450D01*
X167330276Y-50922467D01*
X167320568Y-50868455D01*
X167314656Y-50833890D01*
X167313104Y-50822611D01*
X167304784Y-50807287D01*
X167292415Y-50793152D01*
X167284486Y-50787834D01*
X167270735Y-50783502D01*
X167248691Y-50780058D01*
X167215880Y-50777405D01*
X167169828Y-50775445D01*
X167108062Y-50774080D01*
X167028110Y-50773213D01*
X166927498Y-50772747D01*
X166803752Y-50772583D01*
X166771206Y-50772578D01*
X166634630Y-50772790D01*
D13*
X155575000Y-109220000D02*
X153035000Y-109220000D01*
X137795000Y-109220000D02*
X135255000Y-109220000D01*
X153670000Y-91440000D02*
X154940000Y-91440000D01*
X107950000Y-116840000D02*
X109220000Y-116840000D01*
X100330000Y-116840000D02*
X101600000Y-116840000D01*
X102870000Y-116840000D02*
X104140000Y-116840000D01*
X113030000Y-116840000D02*
X114300000Y-116840000D01*
X97790000Y-116840000D02*
X99060000Y-116840000D01*
X106045000Y-109855000D02*
X106045000Y-108585000D01*
X115570000Y-116840000D02*
X116840000Y-116840000D01*
X106045000Y-122555000D02*
X106045000Y-121285000D01*
X106045000Y-114935000D02*
X106045000Y-113665000D01*
X106045000Y-127635000D02*
X106045000Y-126365000D01*
X106045000Y-120015000D02*
X106045000Y-118745000D01*
X95250000Y-116840000D02*
X96520000Y-116840000D01*
X110490000Y-116840000D02*
X111760000Y-116840000D01*
X105410000Y-116840000D02*
X106680000Y-116840000D01*
X106045000Y-125095000D02*
X106045000Y-123825000D01*
X106045000Y-112395000D02*
X106045000Y-111125000D01*
X92710000Y-116840000D02*
X93980000Y-116840000D01*
X88265000Y-104140000D02*
X167005000Y-104140000D01*
X88265000Y-127000000D02*
X88265000Y-104140000D01*
X167005000Y-104140000D02*
X167005000Y-127000000D01*
X161925000Y-129540000D02*
X93345000Y-129540000D01*
X118110000Y-116840000D02*
X119380000Y-116840000D01*
X106045000Y-117475000D02*
X106045000Y-116205000D01*
X106045000Y-107315000D02*
X106045000Y-106045000D01*
X151765000Y-88265000D02*
X151765000Y-89535000D01*
X143510000Y-71120000D02*
X144780000Y-71120000D01*
X140970000Y-71120000D02*
X142240000Y-71120000D01*
X151765000Y-95885000D02*
X151765000Y-97155000D01*
X143510000Y-81280000D02*
X144780000Y-81280000D01*
X140970000Y-81280000D02*
X142240000Y-81280000D01*
X146050000Y-81280000D02*
X147320000Y-81280000D01*
X151765000Y-85725000D02*
X151765000Y-86995000D01*
X151765000Y-62865000D02*
X151765000Y-64135000D01*
X156210000Y-81280000D02*
X157480000Y-81280000D01*
X161290000Y-81280000D02*
X162560000Y-81280000D01*
X151765000Y-80645000D02*
X151765000Y-81915000D01*
X136525000Y-101600000D02*
X136525000Y-60960000D01*
X151765000Y-75565000D02*
X151765000Y-76835000D01*
X158750000Y-71120000D02*
X160020000Y-71120000D01*
X153670000Y-71120000D02*
X154940000Y-71120000D01*
X151765000Y-78105000D02*
X151765000Y-79375000D01*
X153670000Y-81280000D02*
X154940000Y-81280000D01*
X151765000Y-98425000D02*
X151765000Y-99695000D01*
X151765000Y-93345000D02*
X151765000Y-94615000D01*
X151765000Y-67945000D02*
X151765000Y-69215000D01*
X151765000Y-73025000D02*
X151765000Y-74295000D01*
X158750000Y-81280000D02*
X160020000Y-81280000D01*
X156210000Y-91440000D02*
X157480000Y-91440000D01*
X148590000Y-91440000D02*
X149860000Y-91440000D01*
X151765000Y-90805000D02*
X151765000Y-92075000D01*
X151130000Y-71120000D02*
X152400000Y-71120000D01*
X151130000Y-91440000D02*
X152400000Y-91440000D01*
X158750000Y-91440000D02*
X160020000Y-91440000D01*
X161290000Y-91440000D02*
X162560000Y-91440000D01*
X161290000Y-71120000D02*
X162560000Y-71120000D01*
X143510000Y-91440000D02*
X144780000Y-91440000D01*
X140970000Y-91440000D02*
X142240000Y-91440000D01*
X146050000Y-91440000D02*
X147320000Y-91440000D01*
X151765000Y-70485000D02*
X151765000Y-71755000D01*
X151765000Y-83185000D02*
X151765000Y-84455000D01*
X148590000Y-71120000D02*
X149860000Y-71120000D01*
X151130000Y-81280000D02*
X152400000Y-81280000D01*
X148590000Y-81280000D02*
X149860000Y-81280000D01*
X151765000Y-65405000D02*
X151765000Y-66675000D01*
X167005000Y-60960000D02*
X167005000Y-101600000D01*
X136525000Y-60960000D02*
X167005000Y-60960000D01*
X167005000Y-101600000D02*
X136525000Y-101600000D01*
X146050000Y-71120000D02*
X147320000Y-71120000D01*
X156210000Y-71120000D02*
X157480000Y-71120000D01*
D14*
X117510000Y-74772000D02*
X126320000Y-74772000D01*
X126330000Y-80422000D02*
X119290000Y-80422000D01*
X117510000Y-92044000D02*
X126320000Y-92044000D01*
X126330000Y-97694000D02*
X119290000Y-97694000D01*
X117510000Y-83408000D02*
X126320000Y-83408000D01*
X126330000Y-89058000D02*
X119290000Y-89058000D01*
X85120000Y-74260000D02*
X85120000Y-77900000D01*
X87520000Y-77160000D02*
X87520000Y-74260000D01*
X123740000Y-80715000D02*
X120100000Y-80715000D01*
X120840000Y-83115000D02*
X123740000Y-83115000D01*
X123140000Y-73840000D02*
X123140000Y-70200000D01*
X120740000Y-70940000D02*
X120740000Y-73840000D01*
X111040000Y-71470000D02*
X107400000Y-71470000D01*
X108140000Y-73870000D02*
X111040000Y-73870000D01*
X123740000Y-89351000D02*
X120100000Y-89351000D01*
X120840000Y-91751000D02*
X123740000Y-91751000D01*
X101810000Y-79070000D02*
X98170000Y-79070000D01*
X98910000Y-81470000D02*
X101810000Y-81470000D01*
X102785000Y-93288000D02*
X99145000Y-93288000D01*
X99885000Y-95688000D02*
X102785000Y-95688000D01*
X85200000Y-70880000D02*
X85200000Y-72280000D01*
X94570000Y-68900000D02*
X94570000Y-67960000D01*
X110470000Y-89310000D02*
X110470000Y-88370000D01*
X102960000Y-86870000D02*
X102960000Y-88270000D01*
X101970000Y-66450000D02*
X101970000Y-67390000D01*
X92180000Y-79920000D02*
X93120000Y-79920000D01*
X130800000Y-59710000D02*
X130800000Y-61510000D01*
X130800000Y-57460000D02*
X130800000Y-59260000D01*
X108880000Y-78760000D02*
G75*
G03*
X108880000Y-78760000I-730000J0D01*
G01*
X108880000Y-76960000D02*
G75*
G03*
X108880000Y-76960000I-730000J0D01*
G01*
X128530000Y-78610000D02*
G75*
G03*
X128530000Y-78610000I-730000J0D01*
G01*
X116480000Y-76560000D02*
G75*
G03*
X116480000Y-76560000I-730000J0D01*
G01*
X116480000Y-79160000D02*
G75*
G03*
X116480000Y-79160000I-730000J0D01*
G01*
X128530000Y-75690000D02*
G75*
G03*
X128530000Y-75690000I-730000J0D01*
G01*
X128530000Y-77150000D02*
G75*
G03*
X128530000Y-77150000I-730000J0D01*
G01*
X105880000Y-93360000D02*
G75*
G03*
X105880000Y-93360000I-730000J0D01*
G01*
X105880000Y-95360000D02*
G75*
G03*
X105880000Y-95360000I-730000J0D01*
G01*
X110880000Y-94160000D02*
G75*
G03*
X110880000Y-94160000I-730000J0D01*
G01*
X105880000Y-97360000D02*
G75*
G03*
X105880000Y-97360000I-730000J0D01*
G01*
X110880000Y-97360000D02*
G75*
G03*
X110880000Y-97360000I-730000J0D01*
G01*
X105680000Y-75360000D02*
G75*
G03*
X105680000Y-75360000I-730000J0D01*
G01*
X105680000Y-73560000D02*
G75*
G03*
X105680000Y-73560000I-730000J0D01*
G01*
X116850000Y-72970000D02*
X116850000Y-72370000D01*
X116850000Y-73960000D02*
X116850000Y-73360000D01*
X102960000Y-89270000D02*
X102960000Y-88670000D01*
X89620000Y-84110000D02*
X89620000Y-83510000D01*
X101970000Y-67800000D02*
X101970000Y-68400000D01*
X111080000Y-68660000D02*
X111080000Y-68060000D01*
X116710000Y-85250000D02*
X116110000Y-85250000D01*
X106220000Y-90710000D02*
X106220000Y-90110000D01*
X95510000Y-76970000D02*
X95510000Y-76370000D01*
X93560000Y-86420000D02*
X94160000Y-86420000D01*
X95930000Y-66650000D02*
X95930000Y-66050000D01*
X95930000Y-67550000D02*
X95930000Y-66950000D01*
X92620000Y-74920000D02*
X93220000Y-74920000D01*
X111670000Y-64262000D02*
X111070000Y-64262000D01*
X113700000Y-64980000D02*
X113700000Y-64380000D01*
X92130000Y-62730000D02*
X91530000Y-62730000D01*
X90750000Y-55190000D02*
X91350000Y-55190000D01*
X101510000Y-62230000D02*
X100910000Y-62230000D01*
X99260000Y-60880000D02*
X99260000Y-61480000D01*
X97470000Y-64120000D02*
X97470000Y-63870000D01*
X97470000Y-64120000D02*
X98110000Y-64120000D01*
X100650000Y-61740000D02*
X100010000Y-61740000D01*
X100650000Y-61740000D02*
X100650000Y-61990000D01*
X97470000Y-61740000D02*
X98110000Y-61740000D01*
X97470000Y-61740000D02*
X97470000Y-61990000D01*
X106820000Y-83240000D02*
X106820000Y-83840000D01*
X100966000Y-82992000D02*
X100966000Y-82392000D01*
X112420000Y-71080000D02*
X112420000Y-70480000D01*
X112420000Y-70120000D02*
X112420000Y-69520000D01*
X110470000Y-69520000D02*
X110470000Y-70120000D01*
X110470000Y-70480000D02*
X110470000Y-71080000D01*
X89620000Y-87720000D02*
X89620000Y-87120000D01*
X89620000Y-86810000D02*
X89620000Y-86210000D01*
X89620000Y-85910000D02*
X89620000Y-85310000D01*
X89620000Y-85010000D02*
X89620000Y-84410000D01*
X89620000Y-83210000D02*
X89620000Y-82610000D01*
X85820000Y-87470000D02*
X87460000Y-87470000D01*
X86960000Y-83370000D02*
X85820000Y-83370000D01*
X112430000Y-85070000D02*
X112430000Y-84470000D01*
X112430000Y-84130000D02*
X112430000Y-83530000D01*
X106780000Y-84250000D02*
X105580000Y-84250000D01*
X105580000Y-87130000D02*
X105580000Y-84250000D01*
X105580000Y-87130000D02*
X108060000Y-87130000D01*
X108060000Y-85630000D02*
X108060000Y-87130000D01*
X101776000Y-85772000D02*
X98216000Y-85772000D01*
X98216000Y-83492000D02*
X101776000Y-83492000D01*
X96430000Y-62230000D02*
X95830000Y-62230000D01*
X98990000Y-90710000D02*
X98990000Y-90110000D01*
X100940000Y-90110000D02*
X100940000Y-90710000D01*
X106590000Y-62230000D02*
X105990000Y-62230000D01*
X110640000Y-92280000D02*
X110640000Y-92880000D01*
X99840000Y-92280000D02*
X99840000Y-92880000D01*
X89050000Y-92280000D02*
X89050000Y-92880000D01*
X111670000Y-62230000D02*
X111070000Y-62230000D01*
X112430000Y-86970000D02*
X112430000Y-86370000D01*
X112430000Y-86020000D02*
X112430000Y-85420000D01*
X112430000Y-83180000D02*
X112430000Y-82580000D01*
X109070000Y-85440000D02*
X108470000Y-85440000D01*
X99716000Y-86272000D02*
X99716000Y-86872000D01*
X116750000Y-62230000D02*
X116150000Y-62230000D01*
X88150000Y-65300000D02*
X88150000Y-64700000D01*
X94180000Y-60880000D02*
X94180000Y-61480000D01*
X84270000Y-75130000D02*
X84870000Y-75130000D01*
X125620000Y-82170000D02*
X125620000Y-81570000D01*
X120490000Y-72970000D02*
X119890000Y-72970000D01*
X110170000Y-74670000D02*
X110170000Y-74070000D01*
X125620000Y-90810000D02*
X125620000Y-90210000D01*
X100940000Y-78270000D02*
X100940000Y-78870000D01*
X102090000Y-95930000D02*
X102090000Y-96530000D01*
X104340000Y-60880000D02*
X104340000Y-61480000D01*
X113720000Y-92280000D02*
X113720000Y-92880000D01*
X102910000Y-92280000D02*
X102910000Y-92880000D01*
X92130000Y-92280000D02*
X92130000Y-92880000D01*
X109420000Y-60880000D02*
X109420000Y-61480000D01*
X125030000Y-97940000D02*
X125030000Y-98540000D01*
X125030000Y-89310000D02*
X125030000Y-89910000D01*
X125020000Y-80670000D02*
X125020000Y-81270000D01*
X99016000Y-82992000D02*
X99016000Y-82392000D01*
X114500000Y-60880000D02*
X114500000Y-61480000D01*
X115310000Y-85920000D02*
X114710000Y-85920000D01*
X114540000Y-74420000D02*
X113940000Y-74420000D01*
X107470000Y-67340000D02*
X107470000Y-67940000D01*
X89300000Y-52940000D02*
X89300000Y-53540000D01*
X89100000Y-60880000D02*
X89100000Y-61480000D01*
X92390000Y-64120000D02*
X92390000Y-63870000D01*
X92390000Y-64120000D02*
X93030000Y-64120000D01*
X95570000Y-61740000D02*
X94930000Y-61740000D01*
X95570000Y-61740000D02*
X95570000Y-61990000D01*
X92390000Y-61740000D02*
X93030000Y-61740000D01*
X92390000Y-61740000D02*
X92390000Y-61990000D01*
X102550000Y-64120000D02*
X102550000Y-63870000D01*
X102550000Y-64120000D02*
X103190000Y-64120000D01*
X105730000Y-61740000D02*
X105090000Y-61740000D01*
X105730000Y-61740000D02*
X105730000Y-61990000D01*
X102550000Y-61740000D02*
X103190000Y-61740000D01*
X102550000Y-61740000D02*
X102550000Y-61990000D01*
X107630000Y-64120000D02*
X107630000Y-63870000D01*
X107630000Y-64120000D02*
X108270000Y-64120000D01*
X110810000Y-61740000D02*
X110170000Y-61740000D01*
X110810000Y-61740000D02*
X110810000Y-61990000D01*
X107630000Y-61740000D02*
X108270000Y-61740000D01*
X107630000Y-61740000D02*
X107630000Y-61990000D01*
X112710000Y-64120000D02*
X112710000Y-63870000D01*
X112710000Y-64120000D02*
X113350000Y-64120000D01*
X115890000Y-61740000D02*
X115250000Y-61740000D01*
X115890000Y-61740000D02*
X115890000Y-61990000D01*
X112710000Y-61740000D02*
X113350000Y-61740000D01*
X112710000Y-61740000D02*
X112710000Y-61990000D01*
X87310000Y-56180000D02*
X87310000Y-55930000D01*
X87310000Y-56180000D02*
X87950000Y-56180000D01*
X90490000Y-53800000D02*
X89850000Y-53800000D01*
X90490000Y-53800000D02*
X90490000Y-54050000D01*
X87310000Y-53800000D02*
X87950000Y-53800000D01*
X87310000Y-53800000D02*
X87310000Y-54050000D01*
X87310000Y-64120000D02*
X87310000Y-63870000D01*
X87310000Y-64120000D02*
X87950000Y-64120000D01*
X90490000Y-61740000D02*
X89850000Y-61740000D01*
X90490000Y-61740000D02*
X90490000Y-61990000D01*
X87310000Y-61740000D02*
X87950000Y-61740000D01*
X87310000Y-61740000D02*
X87310000Y-61990000D01*
D15*
X170190000Y-115887619D02*
X170130476Y-115768571D01*
X170130476Y-115590000D01*
X170190000Y-115411428D01*
X170309047Y-115292380D01*
X170428095Y-115232857D01*
X170666190Y-115173333D01*
X170844761Y-115173333D01*
X171082857Y-115232857D01*
X171201904Y-115292380D01*
X171320952Y-115411428D01*
X171380476Y-115590000D01*
X171380476Y-115709047D01*
X171320952Y-115887619D01*
X171261428Y-115947142D01*
X170844761Y-115947142D01*
X170844761Y-115709047D01*
X171380476Y-116482857D02*
X170130476Y-116482857D01*
X171380476Y-117197142D01*
X170130476Y-117197142D01*
X171380476Y-117792380D02*
X170130476Y-117792380D01*
X170130476Y-118090000D01*
X170190000Y-118268571D01*
X170309047Y-118387619D01*
X170428095Y-118447142D01*
X170666190Y-118506666D01*
X170844761Y-118506666D01*
X171082857Y-118447142D01*
X171201904Y-118387619D01*
X171320952Y-118268571D01*
X171380476Y-118090000D01*
X171380476Y-117792380D01*
X170190000Y-70167619D02*
X170130476Y-70048571D01*
X170130476Y-69870000D01*
X170190000Y-69691428D01*
X170309047Y-69572380D01*
X170428095Y-69512857D01*
X170666190Y-69453333D01*
X170844761Y-69453333D01*
X171082857Y-69512857D01*
X171201904Y-69572380D01*
X171320952Y-69691428D01*
X171380476Y-69870000D01*
X171380476Y-69989047D01*
X171320952Y-70167619D01*
X171261428Y-70227142D01*
X170844761Y-70227142D01*
X170844761Y-69989047D01*
X171380476Y-70762857D02*
X170130476Y-70762857D01*
X171380476Y-71477142D01*
X170130476Y-71477142D01*
X171380476Y-72072380D02*
X170130476Y-72072380D01*
X170130476Y-72370000D01*
X170190000Y-72548571D01*
X170309047Y-72667619D01*
X170428095Y-72727142D01*
X170666190Y-72786666D01*
X170844761Y-72786666D01*
X171082857Y-72727142D01*
X171201904Y-72667619D01*
X171320952Y-72548571D01*
X171380476Y-72370000D01*
X171380476Y-72072380D01*
X152003095Y-56465476D02*
X152598333Y-56465476D01*
X152657857Y-57060714D01*
X152598333Y-57001190D01*
X152479285Y-56941666D01*
X152181666Y-56941666D01*
X152062619Y-57001190D01*
X152003095Y-57060714D01*
X151943571Y-57179761D01*
X151943571Y-57477380D01*
X152003095Y-57596428D01*
X152062619Y-57655952D01*
X152181666Y-57715476D01*
X152479285Y-57715476D01*
X152598333Y-57655952D01*
X152657857Y-57596428D01*
X151586428Y-56465476D02*
X151169761Y-57715476D01*
X150753095Y-56465476D01*
X132090000Y-70167619D02*
X132030476Y-70048571D01*
X132030476Y-69870000D01*
X132090000Y-69691428D01*
X132209047Y-69572380D01*
X132328095Y-69512857D01*
X132566190Y-69453333D01*
X132744761Y-69453333D01*
X132982857Y-69512857D01*
X133101904Y-69572380D01*
X133220952Y-69691428D01*
X133280476Y-69870000D01*
X133280476Y-69989047D01*
X133220952Y-70167619D01*
X133161428Y-70227142D01*
X132744761Y-70227142D01*
X132744761Y-69989047D01*
X133280476Y-70762857D02*
X132030476Y-70762857D01*
X133280476Y-71477142D01*
X132030476Y-71477142D01*
X133280476Y-72072380D02*
X132030476Y-72072380D01*
X132030476Y-72370000D01*
X132090000Y-72548571D01*
X132209047Y-72667619D01*
X132328095Y-72727142D01*
X132566190Y-72786666D01*
X132744761Y-72786666D01*
X132982857Y-72727142D01*
X133101904Y-72667619D01*
X133220952Y-72548571D01*
X133280476Y-72370000D01*
X133280476Y-72072380D01*
D14*
X118997619Y-81721904D02*
X118997619Y-80921904D01*
X118730952Y-81493333D01*
X118464285Y-80921904D01*
X118464285Y-81721904D01*
X117740476Y-81188571D02*
X117740476Y-81721904D01*
X117930952Y-80883809D02*
X118121428Y-81455238D01*
X117626190Y-81455238D01*
X118997619Y-98921904D02*
X118997619Y-98121904D01*
X118730952Y-98693333D01*
X118464285Y-98121904D01*
X118464285Y-98921904D01*
X117740476Y-98121904D02*
X117892857Y-98121904D01*
X117969047Y-98160000D01*
X118007142Y-98198095D01*
X118083333Y-98312380D01*
X118121428Y-98464761D01*
X118121428Y-98769523D01*
X118083333Y-98845714D01*
X118045238Y-98883809D01*
X117969047Y-98921904D01*
X117816666Y-98921904D01*
X117740476Y-98883809D01*
X117702380Y-98845714D01*
X117664285Y-98769523D01*
X117664285Y-98579047D01*
X117702380Y-98502857D01*
X117740476Y-98464761D01*
X117816666Y-98426666D01*
X117969047Y-98426666D01*
X118045238Y-98464761D01*
X118083333Y-98502857D01*
X118121428Y-98579047D01*
X118997619Y-90321904D02*
X118997619Y-89521904D01*
X118730952Y-90093333D01*
X118464285Y-89521904D01*
X118464285Y-90321904D01*
X117702380Y-89521904D02*
X118083333Y-89521904D01*
X118121428Y-89902857D01*
X118083333Y-89864761D01*
X118007142Y-89826666D01*
X117816666Y-89826666D01*
X117740476Y-89864761D01*
X117702380Y-89902857D01*
X117664285Y-89979047D01*
X117664285Y-90169523D01*
X117702380Y-90245714D01*
X117740476Y-90283809D01*
X117816666Y-90321904D01*
X118007142Y-90321904D01*
X118083333Y-90283809D01*
X118121428Y-90245714D01*
X87911904Y-74969523D02*
X87911904Y-75426666D01*
X88711904Y-75198095D02*
X87911904Y-75198095D01*
X88673809Y-75655238D02*
X88711904Y-75769523D01*
X88711904Y-75960000D01*
X88673809Y-76036190D01*
X88635714Y-76074285D01*
X88559523Y-76112380D01*
X88483333Y-76112380D01*
X88407142Y-76074285D01*
X88369047Y-76036190D01*
X88330952Y-75960000D01*
X88292857Y-75807619D01*
X88254761Y-75731428D01*
X88216666Y-75693333D01*
X88140476Y-75655238D01*
X88064285Y-75655238D01*
X87988095Y-75693333D01*
X87950000Y-75731428D01*
X87911904Y-75807619D01*
X87911904Y-75998095D01*
X87950000Y-76112380D01*
X87911904Y-76379047D02*
X87911904Y-76874285D01*
X88216666Y-76607619D01*
X88216666Y-76721904D01*
X88254761Y-76798095D01*
X88292857Y-76836190D01*
X88369047Y-76874285D01*
X88559523Y-76874285D01*
X88635714Y-76836190D01*
X88673809Y-76798095D01*
X88711904Y-76721904D01*
X88711904Y-76493333D01*
X88673809Y-76417142D01*
X88635714Y-76379047D01*
X119540476Y-82121904D02*
X119083333Y-82121904D01*
X119311904Y-82921904D02*
X119311904Y-82121904D01*
X118854761Y-82883809D02*
X118740476Y-82921904D01*
X118550000Y-82921904D01*
X118473809Y-82883809D01*
X118435714Y-82845714D01*
X118397619Y-82769523D01*
X118397619Y-82693333D01*
X118435714Y-82617142D01*
X118473809Y-82579047D01*
X118550000Y-82540952D01*
X118702380Y-82502857D01*
X118778571Y-82464761D01*
X118816666Y-82426666D01*
X118854761Y-82350476D01*
X118854761Y-82274285D01*
X118816666Y-82198095D01*
X118778571Y-82160000D01*
X118702380Y-82121904D01*
X118511904Y-82121904D01*
X118397619Y-82160000D01*
X117673809Y-82121904D02*
X118054761Y-82121904D01*
X118092857Y-82502857D01*
X118054761Y-82464761D01*
X117978571Y-82426666D01*
X117788095Y-82426666D01*
X117711904Y-82464761D01*
X117673809Y-82502857D01*
X117635714Y-82579047D01*
X117635714Y-82769523D01*
X117673809Y-82845714D01*
X117711904Y-82883809D01*
X117788095Y-82921904D01*
X117978571Y-82921904D01*
X118054761Y-82883809D01*
X118092857Y-82845714D01*
X123511904Y-70969523D02*
X123511904Y-71426666D01*
X124311904Y-71198095D02*
X123511904Y-71198095D01*
X124273809Y-71655238D02*
X124311904Y-71769523D01*
X124311904Y-71960000D01*
X124273809Y-72036190D01*
X124235714Y-72074285D01*
X124159523Y-72112380D01*
X124083333Y-72112380D01*
X124007142Y-72074285D01*
X123969047Y-72036190D01*
X123930952Y-71960000D01*
X123892857Y-71807619D01*
X123854761Y-71731428D01*
X123816666Y-71693333D01*
X123740476Y-71655238D01*
X123664285Y-71655238D01*
X123588095Y-71693333D01*
X123550000Y-71731428D01*
X123511904Y-71807619D01*
X123511904Y-71998095D01*
X123550000Y-72112380D01*
X124311904Y-72874285D02*
X124311904Y-72417142D01*
X124311904Y-72645714D02*
X123511904Y-72645714D01*
X123626190Y-72569523D01*
X123702380Y-72493333D01*
X123740476Y-72417142D01*
X108740476Y-74321904D02*
X108283333Y-74321904D01*
X108511904Y-75121904D02*
X108511904Y-74321904D01*
X108054761Y-75083809D02*
X107940476Y-75121904D01*
X107750000Y-75121904D01*
X107673809Y-75083809D01*
X107635714Y-75045714D01*
X107597619Y-74969523D01*
X107597619Y-74893333D01*
X107635714Y-74817142D01*
X107673809Y-74779047D01*
X107750000Y-74740952D01*
X107902380Y-74702857D01*
X107978571Y-74664761D01*
X108016666Y-74626666D01*
X108054761Y-74550476D01*
X108054761Y-74474285D01*
X108016666Y-74398095D01*
X107978571Y-74360000D01*
X107902380Y-74321904D01*
X107711904Y-74321904D01*
X107597619Y-74360000D01*
X107292857Y-74398095D02*
X107254761Y-74360000D01*
X107178571Y-74321904D01*
X106988095Y-74321904D01*
X106911904Y-74360000D01*
X106873809Y-74398095D01*
X106835714Y-74474285D01*
X106835714Y-74550476D01*
X106873809Y-74664761D01*
X107330952Y-75121904D01*
X106835714Y-75121904D01*
X119340476Y-90721904D02*
X118883333Y-90721904D01*
X119111904Y-91521904D02*
X119111904Y-90721904D01*
X118654761Y-91483809D02*
X118540476Y-91521904D01*
X118350000Y-91521904D01*
X118273809Y-91483809D01*
X118235714Y-91445714D01*
X118197619Y-91369523D01*
X118197619Y-91293333D01*
X118235714Y-91217142D01*
X118273809Y-91179047D01*
X118350000Y-91140952D01*
X118502380Y-91102857D01*
X118578571Y-91064761D01*
X118616666Y-91026666D01*
X118654761Y-90950476D01*
X118654761Y-90874285D01*
X118616666Y-90798095D01*
X118578571Y-90760000D01*
X118502380Y-90721904D01*
X118311904Y-90721904D01*
X118197619Y-90760000D01*
X117511904Y-90721904D02*
X117664285Y-90721904D01*
X117740476Y-90760000D01*
X117778571Y-90798095D01*
X117854761Y-90912380D01*
X117892857Y-91064761D01*
X117892857Y-91369523D01*
X117854761Y-91445714D01*
X117816666Y-91483809D01*
X117740476Y-91521904D01*
X117588095Y-91521904D01*
X117511904Y-91483809D01*
X117473809Y-91445714D01*
X117435714Y-91369523D01*
X117435714Y-91179047D01*
X117473809Y-91102857D01*
X117511904Y-91064761D01*
X117588095Y-91026666D01*
X117740476Y-91026666D01*
X117816666Y-91064761D01*
X117854761Y-91102857D01*
X117892857Y-91179047D01*
X99340476Y-77721904D02*
X98883333Y-77721904D01*
X99111904Y-78521904D02*
X99111904Y-77721904D01*
X98654761Y-78483809D02*
X98540476Y-78521904D01*
X98350000Y-78521904D01*
X98273809Y-78483809D01*
X98235714Y-78445714D01*
X98197619Y-78369523D01*
X98197619Y-78293333D01*
X98235714Y-78217142D01*
X98273809Y-78179047D01*
X98350000Y-78140952D01*
X98502380Y-78102857D01*
X98578571Y-78064761D01*
X98616666Y-78026666D01*
X98654761Y-77950476D01*
X98654761Y-77874285D01*
X98616666Y-77798095D01*
X98578571Y-77760000D01*
X98502380Y-77721904D01*
X98311904Y-77721904D01*
X98197619Y-77760000D01*
X97511904Y-77988571D02*
X97511904Y-78521904D01*
X97702380Y-77683809D02*
X97892857Y-78255238D01*
X97397619Y-78255238D01*
X97711904Y-93569523D02*
X97711904Y-94026666D01*
X98511904Y-93798095D02*
X97711904Y-93798095D01*
X98473809Y-94255238D02*
X98511904Y-94369523D01*
X98511904Y-94560000D01*
X98473809Y-94636190D01*
X98435714Y-94674285D01*
X98359523Y-94712380D01*
X98283333Y-94712380D01*
X98207142Y-94674285D01*
X98169047Y-94636190D01*
X98130952Y-94560000D01*
X98092857Y-94407619D01*
X98054761Y-94331428D01*
X98016666Y-94293333D01*
X97940476Y-94255238D01*
X97864285Y-94255238D01*
X97788095Y-94293333D01*
X97750000Y-94331428D01*
X97711904Y-94407619D01*
X97711904Y-94598095D01*
X97750000Y-94712380D01*
X97711904Y-94979047D02*
X97711904Y-95512380D01*
X98511904Y-95169523D01*
X85714285Y-70295714D02*
X85752380Y-70333809D01*
X85866666Y-70371904D01*
X85942857Y-70371904D01*
X86057142Y-70333809D01*
X86133333Y-70257619D01*
X86171428Y-70181428D01*
X86209523Y-70029047D01*
X86209523Y-69914761D01*
X86171428Y-69762380D01*
X86133333Y-69686190D01*
X86057142Y-69610000D01*
X85942857Y-69571904D01*
X85866666Y-69571904D01*
X85752380Y-69610000D01*
X85714285Y-69648095D01*
X84990476Y-69571904D02*
X85371428Y-69571904D01*
X85409523Y-69952857D01*
X85371428Y-69914761D01*
X85295238Y-69876666D01*
X85104761Y-69876666D01*
X85028571Y-69914761D01*
X84990476Y-69952857D01*
X84952380Y-70029047D01*
X84952380Y-70219523D01*
X84990476Y-70295714D01*
X85028571Y-70333809D01*
X85104761Y-70371904D01*
X85295238Y-70371904D01*
X85371428Y-70333809D01*
X85409523Y-70295714D01*
X84457142Y-69571904D02*
X84380952Y-69571904D01*
X84304761Y-69610000D01*
X84266666Y-69648095D01*
X84228571Y-69724285D01*
X84190476Y-69876666D01*
X84190476Y-70067142D01*
X84228571Y-70219523D01*
X84266666Y-70295714D01*
X84304761Y-70333809D01*
X84380952Y-70371904D01*
X84457142Y-70371904D01*
X84533333Y-70333809D01*
X84571428Y-70295714D01*
X84609523Y-70219523D01*
X84647619Y-70067142D01*
X84647619Y-69876666D01*
X84609523Y-69724285D01*
X84571428Y-69648095D01*
X84533333Y-69610000D01*
X84457142Y-69571904D01*
X95084285Y-70045714D02*
X95122380Y-70083809D01*
X95236666Y-70121904D01*
X95312857Y-70121904D01*
X95427142Y-70083809D01*
X95503333Y-70007619D01*
X95541428Y-69931428D01*
X95579523Y-69779047D01*
X95579523Y-69664761D01*
X95541428Y-69512380D01*
X95503333Y-69436190D01*
X95427142Y-69360000D01*
X95312857Y-69321904D01*
X95236666Y-69321904D01*
X95122380Y-69360000D01*
X95084285Y-69398095D01*
X94398571Y-69588571D02*
X94398571Y-70121904D01*
X94589047Y-69283809D02*
X94779523Y-69855238D01*
X94284285Y-69855238D01*
X93941428Y-70121904D02*
X93789047Y-70121904D01*
X93712857Y-70083809D01*
X93674761Y-70045714D01*
X93598571Y-69931428D01*
X93560476Y-69779047D01*
X93560476Y-69474285D01*
X93598571Y-69398095D01*
X93636666Y-69360000D01*
X93712857Y-69321904D01*
X93865238Y-69321904D01*
X93941428Y-69360000D01*
X93979523Y-69398095D01*
X94017619Y-69474285D01*
X94017619Y-69664761D01*
X93979523Y-69740952D01*
X93941428Y-69779047D01*
X93865238Y-69817142D01*
X93712857Y-69817142D01*
X93636666Y-69779047D01*
X93598571Y-69740952D01*
X93560476Y-69664761D01*
X110984285Y-90445714D02*
X111022380Y-90483809D01*
X111136666Y-90521904D01*
X111212857Y-90521904D01*
X111327142Y-90483809D01*
X111403333Y-90407619D01*
X111441428Y-90331428D01*
X111479523Y-90179047D01*
X111479523Y-90064761D01*
X111441428Y-89912380D01*
X111403333Y-89836190D01*
X111327142Y-89760000D01*
X111212857Y-89721904D01*
X111136666Y-89721904D01*
X111022380Y-89760000D01*
X110984285Y-89798095D01*
X110298571Y-89721904D02*
X110450952Y-89721904D01*
X110527142Y-89760000D01*
X110565238Y-89798095D01*
X110641428Y-89912380D01*
X110679523Y-90064761D01*
X110679523Y-90369523D01*
X110641428Y-90445714D01*
X110603333Y-90483809D01*
X110527142Y-90521904D01*
X110374761Y-90521904D01*
X110298571Y-90483809D01*
X110260476Y-90445714D01*
X110222380Y-90369523D01*
X110222380Y-90179047D01*
X110260476Y-90102857D01*
X110298571Y-90064761D01*
X110374761Y-90026666D01*
X110527142Y-90026666D01*
X110603333Y-90064761D01*
X110641428Y-90102857D01*
X110679523Y-90179047D01*
X109498571Y-89721904D02*
X109879523Y-89721904D01*
X109917619Y-90102857D01*
X109879523Y-90064761D01*
X109803333Y-90026666D01*
X109612857Y-90026666D01*
X109536666Y-90064761D01*
X109498571Y-90102857D01*
X109460476Y-90179047D01*
X109460476Y-90369523D01*
X109498571Y-90445714D01*
X109536666Y-90483809D01*
X109612857Y-90521904D01*
X109803333Y-90521904D01*
X109879523Y-90483809D01*
X109917619Y-90445714D01*
X100664285Y-88045714D02*
X100702380Y-88083809D01*
X100816666Y-88121904D01*
X100892857Y-88121904D01*
X101007142Y-88083809D01*
X101083333Y-88007619D01*
X101121428Y-87931428D01*
X101159523Y-87779047D01*
X101159523Y-87664761D01*
X101121428Y-87512380D01*
X101083333Y-87436190D01*
X101007142Y-87360000D01*
X100892857Y-87321904D01*
X100816666Y-87321904D01*
X100702380Y-87360000D01*
X100664285Y-87398095D01*
X99978571Y-87321904D02*
X100130952Y-87321904D01*
X100207142Y-87360000D01*
X100245238Y-87398095D01*
X100321428Y-87512380D01*
X100359523Y-87664761D01*
X100359523Y-87969523D01*
X100321428Y-88045714D01*
X100283333Y-88083809D01*
X100207142Y-88121904D01*
X100054761Y-88121904D01*
X99978571Y-88083809D01*
X99940476Y-88045714D01*
X99902380Y-87969523D01*
X99902380Y-87779047D01*
X99940476Y-87702857D01*
X99978571Y-87664761D01*
X100054761Y-87626666D01*
X100207142Y-87626666D01*
X100283333Y-87664761D01*
X100321428Y-87702857D01*
X100359523Y-87779047D01*
X99216666Y-87588571D02*
X99216666Y-88121904D01*
X99407142Y-87283809D02*
X99597619Y-87855238D01*
X99102380Y-87855238D01*
X105264285Y-67245714D02*
X105302380Y-67283809D01*
X105416666Y-67321904D01*
X105492857Y-67321904D01*
X105607142Y-67283809D01*
X105683333Y-67207619D01*
X105721428Y-67131428D01*
X105759523Y-66979047D01*
X105759523Y-66864761D01*
X105721428Y-66712380D01*
X105683333Y-66636190D01*
X105607142Y-66560000D01*
X105492857Y-66521904D01*
X105416666Y-66521904D01*
X105302380Y-66560000D01*
X105264285Y-66598095D01*
X104578571Y-66788571D02*
X104578571Y-67321904D01*
X104769047Y-66483809D02*
X104959523Y-67055238D01*
X104464285Y-67055238D01*
X103778571Y-66521904D02*
X104159523Y-66521904D01*
X104197619Y-66902857D01*
X104159523Y-66864761D01*
X104083333Y-66826666D01*
X103892857Y-66826666D01*
X103816666Y-66864761D01*
X103778571Y-66902857D01*
X103740476Y-66979047D01*
X103740476Y-67169523D01*
X103778571Y-67245714D01*
X103816666Y-67283809D01*
X103892857Y-67321904D01*
X104083333Y-67321904D01*
X104159523Y-67283809D01*
X104197619Y-67245714D01*
X94235714Y-79405714D02*
X94273809Y-79367619D01*
X94311904Y-79253333D01*
X94311904Y-79177142D01*
X94273809Y-79062857D01*
X94197619Y-78986666D01*
X94121428Y-78948571D01*
X93969047Y-78910476D01*
X93854761Y-78910476D01*
X93702380Y-78948571D01*
X93626190Y-78986666D01*
X93550000Y-79062857D01*
X93511904Y-79177142D01*
X93511904Y-79253333D01*
X93550000Y-79367619D01*
X93588095Y-79405714D01*
X93511904Y-80129523D02*
X93511904Y-79748571D01*
X93892857Y-79710476D01*
X93854761Y-79748571D01*
X93816666Y-79824761D01*
X93816666Y-80015238D01*
X93854761Y-80091428D01*
X93892857Y-80129523D01*
X93969047Y-80167619D01*
X94159523Y-80167619D01*
X94235714Y-80129523D01*
X94273809Y-80091428D01*
X94311904Y-80015238D01*
X94311904Y-79824761D01*
X94273809Y-79748571D01*
X94235714Y-79710476D01*
X93511904Y-80434285D02*
X93511904Y-80967619D01*
X94311904Y-80624761D01*
X131314285Y-63121904D02*
X131580952Y-62740952D01*
X131771428Y-63121904D02*
X131771428Y-62321904D01*
X131466666Y-62321904D01*
X131390476Y-62360000D01*
X131352380Y-62398095D01*
X131314285Y-62474285D01*
X131314285Y-62588571D01*
X131352380Y-62664761D01*
X131390476Y-62702857D01*
X131466666Y-62740952D01*
X131771428Y-62740952D01*
X130628571Y-62588571D02*
X130628571Y-63121904D01*
X130819047Y-62283809D02*
X131009523Y-62855238D01*
X130514285Y-62855238D01*
X130171428Y-63121904D02*
X130019047Y-63121904D01*
X129942857Y-63083809D01*
X129904761Y-63045714D01*
X129828571Y-62931428D01*
X129790476Y-62779047D01*
X129790476Y-62474285D01*
X129828571Y-62398095D01*
X129866666Y-62360000D01*
X129942857Y-62321904D01*
X130095238Y-62321904D01*
X130171428Y-62360000D01*
X130209523Y-62398095D01*
X130247619Y-62474285D01*
X130247619Y-62664761D01*
X130209523Y-62740952D01*
X130171428Y-62779047D01*
X130095238Y-62817142D01*
X129942857Y-62817142D01*
X129866666Y-62779047D01*
X129828571Y-62740952D01*
X129790476Y-62664761D01*
X131314285Y-56721904D02*
X131580952Y-56340952D01*
X131771428Y-56721904D02*
X131771428Y-55921904D01*
X131466666Y-55921904D01*
X131390476Y-55960000D01*
X131352380Y-55998095D01*
X131314285Y-56074285D01*
X131314285Y-56188571D01*
X131352380Y-56264761D01*
X131390476Y-56302857D01*
X131466666Y-56340952D01*
X131771428Y-56340952D01*
X130628571Y-56188571D02*
X130628571Y-56721904D01*
X130819047Y-55883809D02*
X131009523Y-56455238D01*
X130514285Y-56455238D01*
X130095238Y-56264761D02*
X130171428Y-56226666D01*
X130209523Y-56188571D01*
X130247619Y-56112380D01*
X130247619Y-56074285D01*
X130209523Y-55998095D01*
X130171428Y-55960000D01*
X130095238Y-55921904D01*
X129942857Y-55921904D01*
X129866666Y-55960000D01*
X129828571Y-55998095D01*
X129790476Y-56074285D01*
X129790476Y-56112380D01*
X129828571Y-56188571D01*
X129866666Y-56226666D01*
X129942857Y-56264761D01*
X130095238Y-56264761D01*
X130171428Y-56302857D01*
X130209523Y-56340952D01*
X130247619Y-56417142D01*
X130247619Y-56569523D01*
X130209523Y-56645714D01*
X130171428Y-56683809D01*
X130095238Y-56721904D01*
X129942857Y-56721904D01*
X129866666Y-56683809D01*
X129828571Y-56645714D01*
X129790476Y-56569523D01*
X129790476Y-56417142D01*
X129828571Y-56340952D01*
X129866666Y-56302857D01*
X129942857Y-56264761D01*
X107140476Y-78321904D02*
X106683333Y-78321904D01*
X106911904Y-79121904D02*
X106911904Y-78321904D01*
X106416666Y-79121904D02*
X106416666Y-78321904D01*
X106111904Y-78321904D01*
X106035714Y-78360000D01*
X105997619Y-78398095D01*
X105959523Y-78474285D01*
X105959523Y-78588571D01*
X105997619Y-78664761D01*
X106035714Y-78702857D01*
X106111904Y-78740952D01*
X106416666Y-78740952D01*
X105197619Y-79121904D02*
X105654761Y-79121904D01*
X105426190Y-79121904D02*
X105426190Y-78321904D01*
X105502380Y-78436190D01*
X105578571Y-78512380D01*
X105654761Y-78550476D01*
X104892857Y-78398095D02*
X104854761Y-78360000D01*
X104778571Y-78321904D01*
X104588095Y-78321904D01*
X104511904Y-78360000D01*
X104473809Y-78398095D01*
X104435714Y-78474285D01*
X104435714Y-78550476D01*
X104473809Y-78664761D01*
X104930952Y-79121904D01*
X104435714Y-79121904D01*
X107140476Y-76521904D02*
X106683333Y-76521904D01*
X106911904Y-77321904D02*
X106911904Y-76521904D01*
X106416666Y-77321904D02*
X106416666Y-76521904D01*
X106111904Y-76521904D01*
X106035714Y-76560000D01*
X105997619Y-76598095D01*
X105959523Y-76674285D01*
X105959523Y-76788571D01*
X105997619Y-76864761D01*
X106035714Y-76902857D01*
X106111904Y-76940952D01*
X106416666Y-76940952D01*
X105197619Y-77321904D02*
X105654761Y-77321904D01*
X105426190Y-77321904D02*
X105426190Y-76521904D01*
X105502380Y-76636190D01*
X105578571Y-76712380D01*
X105654761Y-76750476D01*
X104702380Y-76521904D02*
X104626190Y-76521904D01*
X104550000Y-76560000D01*
X104511904Y-76598095D01*
X104473809Y-76674285D01*
X104435714Y-76826666D01*
X104435714Y-77017142D01*
X104473809Y-77169523D01*
X104511904Y-77245714D01*
X104550000Y-77283809D01*
X104626190Y-77321904D01*
X104702380Y-77321904D01*
X104778571Y-77283809D01*
X104816666Y-77245714D01*
X104854761Y-77169523D01*
X104892857Y-77017142D01*
X104892857Y-76826666D01*
X104854761Y-76674285D01*
X104816666Y-76598095D01*
X104778571Y-76560000D01*
X104702380Y-76521904D01*
X131540476Y-78121904D02*
X131083333Y-78121904D01*
X131311904Y-78921904D02*
X131311904Y-78121904D01*
X130816666Y-78921904D02*
X130816666Y-78121904D01*
X130511904Y-78121904D01*
X130435714Y-78160000D01*
X130397619Y-78198095D01*
X130359523Y-78274285D01*
X130359523Y-78388571D01*
X130397619Y-78464761D01*
X130435714Y-78502857D01*
X130511904Y-78540952D01*
X130816666Y-78540952D01*
X129597619Y-78921904D02*
X130054761Y-78921904D01*
X129826190Y-78921904D02*
X129826190Y-78121904D01*
X129902380Y-78236190D01*
X129978571Y-78312380D01*
X130054761Y-78350476D01*
X128835714Y-78921904D02*
X129292857Y-78921904D01*
X129064285Y-78921904D02*
X129064285Y-78121904D01*
X129140476Y-78236190D01*
X129216666Y-78312380D01*
X129292857Y-78350476D01*
X114759523Y-76121904D02*
X114302380Y-76121904D01*
X114530952Y-76921904D02*
X114530952Y-76121904D01*
X114035714Y-76921904D02*
X114035714Y-76121904D01*
X113730952Y-76121904D01*
X113654761Y-76160000D01*
X113616666Y-76198095D01*
X113578571Y-76274285D01*
X113578571Y-76388571D01*
X113616666Y-76464761D01*
X113654761Y-76502857D01*
X113730952Y-76540952D01*
X114035714Y-76540952D01*
X113121428Y-76464761D02*
X113197619Y-76426666D01*
X113235714Y-76388571D01*
X113273809Y-76312380D01*
X113273809Y-76274285D01*
X113235714Y-76198095D01*
X113197619Y-76160000D01*
X113121428Y-76121904D01*
X112969047Y-76121904D01*
X112892857Y-76160000D01*
X112854761Y-76198095D01*
X112816666Y-76274285D01*
X112816666Y-76312380D01*
X112854761Y-76388571D01*
X112892857Y-76426666D01*
X112969047Y-76464761D01*
X113121428Y-76464761D01*
X113197619Y-76502857D01*
X113235714Y-76540952D01*
X113273809Y-76617142D01*
X113273809Y-76769523D01*
X113235714Y-76845714D01*
X113197619Y-76883809D01*
X113121428Y-76921904D01*
X112969047Y-76921904D01*
X112892857Y-76883809D01*
X112854761Y-76845714D01*
X112816666Y-76769523D01*
X112816666Y-76617142D01*
X112854761Y-76540952D01*
X112892857Y-76502857D01*
X112969047Y-76464761D01*
X114740476Y-78721904D02*
X114283333Y-78721904D01*
X114511904Y-79521904D02*
X114511904Y-78721904D01*
X114016666Y-79521904D02*
X114016666Y-78721904D01*
X113711904Y-78721904D01*
X113635714Y-78760000D01*
X113597619Y-78798095D01*
X113559523Y-78874285D01*
X113559523Y-78988571D01*
X113597619Y-79064761D01*
X113635714Y-79102857D01*
X113711904Y-79140952D01*
X114016666Y-79140952D01*
X112797619Y-79521904D02*
X113254761Y-79521904D01*
X113026190Y-79521904D02*
X113026190Y-78721904D01*
X113102380Y-78836190D01*
X113178571Y-78912380D01*
X113254761Y-78950476D01*
X112530952Y-78721904D02*
X112035714Y-78721904D01*
X112302380Y-79026666D01*
X112188095Y-79026666D01*
X112111904Y-79064761D01*
X112073809Y-79102857D01*
X112035714Y-79179047D01*
X112035714Y-79369523D01*
X112073809Y-79445714D01*
X112111904Y-79483809D01*
X112188095Y-79521904D01*
X112416666Y-79521904D01*
X112492857Y-79483809D01*
X112530952Y-79445714D01*
X130959523Y-75321904D02*
X130502380Y-75321904D01*
X130730952Y-76121904D02*
X130730952Y-75321904D01*
X130235714Y-76121904D02*
X130235714Y-75321904D01*
X129930952Y-75321904D01*
X129854761Y-75360000D01*
X129816666Y-75398095D01*
X129778571Y-75474285D01*
X129778571Y-75588571D01*
X129816666Y-75664761D01*
X129854761Y-75702857D01*
X129930952Y-75740952D01*
X130235714Y-75740952D01*
X129511904Y-75321904D02*
X128978571Y-75321904D01*
X129321428Y-76121904D01*
X130959523Y-76721904D02*
X130502380Y-76721904D01*
X130730952Y-77521904D02*
X130730952Y-76721904D01*
X130235714Y-77521904D02*
X130235714Y-76721904D01*
X129930952Y-76721904D01*
X129854761Y-76760000D01*
X129816666Y-76798095D01*
X129778571Y-76874285D01*
X129778571Y-76988571D01*
X129816666Y-77064761D01*
X129854761Y-77102857D01*
X129930952Y-77140952D01*
X130235714Y-77140952D01*
X129397619Y-77521904D02*
X129245238Y-77521904D01*
X129169047Y-77483809D01*
X129130952Y-77445714D01*
X129054761Y-77331428D01*
X129016666Y-77179047D01*
X129016666Y-76874285D01*
X129054761Y-76798095D01*
X129092857Y-76760000D01*
X129169047Y-76721904D01*
X129321428Y-76721904D01*
X129397619Y-76760000D01*
X129435714Y-76798095D01*
X129473809Y-76874285D01*
X129473809Y-77064761D01*
X129435714Y-77140952D01*
X129397619Y-77179047D01*
X129321428Y-77217142D01*
X129169047Y-77217142D01*
X129092857Y-77179047D01*
X129054761Y-77140952D01*
X129016666Y-77064761D01*
X108940476Y-92921904D02*
X108483333Y-92921904D01*
X108711904Y-93721904D02*
X108711904Y-92921904D01*
X108216666Y-93721904D02*
X108216666Y-92921904D01*
X107911904Y-92921904D01*
X107835714Y-92960000D01*
X107797619Y-92998095D01*
X107759523Y-93074285D01*
X107759523Y-93188571D01*
X107797619Y-93264761D01*
X107835714Y-93302857D01*
X107911904Y-93340952D01*
X108216666Y-93340952D01*
X106997619Y-93721904D02*
X107454761Y-93721904D01*
X107226190Y-93721904D02*
X107226190Y-92921904D01*
X107302380Y-93036190D01*
X107378571Y-93112380D01*
X107454761Y-93150476D01*
X106311904Y-93188571D02*
X106311904Y-93721904D01*
X106502380Y-92883809D02*
X106692857Y-93455238D01*
X106197619Y-93455238D01*
X108940476Y-94921904D02*
X108483333Y-94921904D01*
X108711904Y-95721904D02*
X108711904Y-94921904D01*
X108216666Y-95721904D02*
X108216666Y-94921904D01*
X107911904Y-94921904D01*
X107835714Y-94960000D01*
X107797619Y-94998095D01*
X107759523Y-95074285D01*
X107759523Y-95188571D01*
X107797619Y-95264761D01*
X107835714Y-95302857D01*
X107911904Y-95340952D01*
X108216666Y-95340952D01*
X106997619Y-95721904D02*
X107454761Y-95721904D01*
X107226190Y-95721904D02*
X107226190Y-94921904D01*
X107302380Y-95036190D01*
X107378571Y-95112380D01*
X107454761Y-95150476D01*
X106311904Y-94921904D02*
X106464285Y-94921904D01*
X106540476Y-94960000D01*
X106578571Y-94998095D01*
X106654761Y-95112380D01*
X106692857Y-95264761D01*
X106692857Y-95569523D01*
X106654761Y-95645714D01*
X106616666Y-95683809D01*
X106540476Y-95721904D01*
X106388095Y-95721904D01*
X106311904Y-95683809D01*
X106273809Y-95645714D01*
X106235714Y-95569523D01*
X106235714Y-95379047D01*
X106273809Y-95302857D01*
X106311904Y-95264761D01*
X106388095Y-95226666D01*
X106540476Y-95226666D01*
X106616666Y-95264761D01*
X106654761Y-95302857D01*
X106692857Y-95379047D01*
X113940476Y-93721904D02*
X113483333Y-93721904D01*
X113711904Y-94521904D02*
X113711904Y-93721904D01*
X113216666Y-94521904D02*
X113216666Y-93721904D01*
X112911904Y-93721904D01*
X112835714Y-93760000D01*
X112797619Y-93798095D01*
X112759523Y-93874285D01*
X112759523Y-93988571D01*
X112797619Y-94064761D01*
X112835714Y-94102857D01*
X112911904Y-94140952D01*
X113216666Y-94140952D01*
X111997619Y-94521904D02*
X112454761Y-94521904D01*
X112226190Y-94521904D02*
X112226190Y-93721904D01*
X112302380Y-93836190D01*
X112378571Y-93912380D01*
X112454761Y-93950476D01*
X111273809Y-93721904D02*
X111654761Y-93721904D01*
X111692857Y-94102857D01*
X111654761Y-94064761D01*
X111578571Y-94026666D01*
X111388095Y-94026666D01*
X111311904Y-94064761D01*
X111273809Y-94102857D01*
X111235714Y-94179047D01*
X111235714Y-94369523D01*
X111273809Y-94445714D01*
X111311904Y-94483809D01*
X111388095Y-94521904D01*
X111578571Y-94521904D01*
X111654761Y-94483809D01*
X111692857Y-94445714D01*
X108940476Y-96921904D02*
X108483333Y-96921904D01*
X108711904Y-97721904D02*
X108711904Y-96921904D01*
X108216666Y-97721904D02*
X108216666Y-96921904D01*
X107911904Y-96921904D01*
X107835714Y-96960000D01*
X107797619Y-96998095D01*
X107759523Y-97074285D01*
X107759523Y-97188571D01*
X107797619Y-97264761D01*
X107835714Y-97302857D01*
X107911904Y-97340952D01*
X108216666Y-97340952D01*
X106997619Y-97721904D02*
X107454761Y-97721904D01*
X107226190Y-97721904D02*
X107226190Y-96921904D01*
X107302380Y-97036190D01*
X107378571Y-97112380D01*
X107454761Y-97150476D01*
X106540476Y-97264761D02*
X106616666Y-97226666D01*
X106654761Y-97188571D01*
X106692857Y-97112380D01*
X106692857Y-97074285D01*
X106654761Y-96998095D01*
X106616666Y-96960000D01*
X106540476Y-96921904D01*
X106388095Y-96921904D01*
X106311904Y-96960000D01*
X106273809Y-96998095D01*
X106235714Y-97074285D01*
X106235714Y-97112380D01*
X106273809Y-97188571D01*
X106311904Y-97226666D01*
X106388095Y-97264761D01*
X106540476Y-97264761D01*
X106616666Y-97302857D01*
X106654761Y-97340952D01*
X106692857Y-97417142D01*
X106692857Y-97569523D01*
X106654761Y-97645714D01*
X106616666Y-97683809D01*
X106540476Y-97721904D01*
X106388095Y-97721904D01*
X106311904Y-97683809D01*
X106273809Y-97645714D01*
X106235714Y-97569523D01*
X106235714Y-97417142D01*
X106273809Y-97340952D01*
X106311904Y-97302857D01*
X106388095Y-97264761D01*
X113940476Y-96921904D02*
X113483333Y-96921904D01*
X113711904Y-97721904D02*
X113711904Y-96921904D01*
X113216666Y-97721904D02*
X113216666Y-96921904D01*
X112911904Y-96921904D01*
X112835714Y-96960000D01*
X112797619Y-96998095D01*
X112759523Y-97074285D01*
X112759523Y-97188571D01*
X112797619Y-97264761D01*
X112835714Y-97302857D01*
X112911904Y-97340952D01*
X113216666Y-97340952D01*
X111997619Y-97721904D02*
X112454761Y-97721904D01*
X112226190Y-97721904D02*
X112226190Y-96921904D01*
X112302380Y-97036190D01*
X112378571Y-97112380D01*
X112454761Y-97150476D01*
X111730952Y-96921904D02*
X111197619Y-96921904D01*
X111540476Y-97721904D01*
X103759523Y-74921904D02*
X103302380Y-74921904D01*
X103530952Y-75721904D02*
X103530952Y-74921904D01*
X103035714Y-75721904D02*
X103035714Y-74921904D01*
X102730952Y-74921904D01*
X102654761Y-74960000D01*
X102616666Y-74998095D01*
X102578571Y-75074285D01*
X102578571Y-75188571D01*
X102616666Y-75264761D01*
X102654761Y-75302857D01*
X102730952Y-75340952D01*
X103035714Y-75340952D01*
X101892857Y-74921904D02*
X102045238Y-74921904D01*
X102121428Y-74960000D01*
X102159523Y-74998095D01*
X102235714Y-75112380D01*
X102273809Y-75264761D01*
X102273809Y-75569523D01*
X102235714Y-75645714D01*
X102197619Y-75683809D01*
X102121428Y-75721904D01*
X101969047Y-75721904D01*
X101892857Y-75683809D01*
X101854761Y-75645714D01*
X101816666Y-75569523D01*
X101816666Y-75379047D01*
X101854761Y-75302857D01*
X101892857Y-75264761D01*
X101969047Y-75226666D01*
X102121428Y-75226666D01*
X102197619Y-75264761D01*
X102235714Y-75302857D01*
X102273809Y-75379047D01*
X103759523Y-73121904D02*
X103302380Y-73121904D01*
X103530952Y-73921904D02*
X103530952Y-73121904D01*
X103035714Y-73921904D02*
X103035714Y-73121904D01*
X102730952Y-73121904D01*
X102654761Y-73160000D01*
X102616666Y-73198095D01*
X102578571Y-73274285D01*
X102578571Y-73388571D01*
X102616666Y-73464761D01*
X102654761Y-73502857D01*
X102730952Y-73540952D01*
X103035714Y-73540952D01*
X101854761Y-73121904D02*
X102235714Y-73121904D01*
X102273809Y-73502857D01*
X102235714Y-73464761D01*
X102159523Y-73426666D01*
X101969047Y-73426666D01*
X101892857Y-73464761D01*
X101854761Y-73502857D01*
X101816666Y-73579047D01*
X101816666Y-73769523D01*
X101854761Y-73845714D01*
X101892857Y-73883809D01*
X101969047Y-73921904D01*
X102159523Y-73921904D01*
X102235714Y-73883809D01*
X102273809Y-73845714D01*
X117364285Y-71921904D02*
X117630952Y-71540952D01*
X117821428Y-71921904D02*
X117821428Y-71121904D01*
X117516666Y-71121904D01*
X117440476Y-71160000D01*
X117402380Y-71198095D01*
X117364285Y-71274285D01*
X117364285Y-71388571D01*
X117402380Y-71464761D01*
X117440476Y-71502857D01*
X117516666Y-71540952D01*
X117821428Y-71540952D01*
X116678571Y-71121904D02*
X116830952Y-71121904D01*
X116907142Y-71160000D01*
X116945238Y-71198095D01*
X117021428Y-71312380D01*
X117059523Y-71464761D01*
X117059523Y-71769523D01*
X117021428Y-71845714D01*
X116983333Y-71883809D01*
X116907142Y-71921904D01*
X116754761Y-71921904D01*
X116678571Y-71883809D01*
X116640476Y-71845714D01*
X116602380Y-71769523D01*
X116602380Y-71579047D01*
X116640476Y-71502857D01*
X116678571Y-71464761D01*
X116754761Y-71426666D01*
X116907142Y-71426666D01*
X116983333Y-71464761D01*
X117021428Y-71502857D01*
X117059523Y-71579047D01*
X115916666Y-71388571D02*
X115916666Y-71921904D01*
X116107142Y-71083809D02*
X116297619Y-71655238D01*
X115802380Y-71655238D01*
X116464285Y-75121904D02*
X116730952Y-74740952D01*
X116921428Y-75121904D02*
X116921428Y-74321904D01*
X116616666Y-74321904D01*
X116540476Y-74360000D01*
X116502380Y-74398095D01*
X116464285Y-74474285D01*
X116464285Y-74588571D01*
X116502380Y-74664761D01*
X116540476Y-74702857D01*
X116616666Y-74740952D01*
X116921428Y-74740952D01*
X115778571Y-74321904D02*
X115930952Y-74321904D01*
X116007142Y-74360000D01*
X116045238Y-74398095D01*
X116121428Y-74512380D01*
X116159523Y-74664761D01*
X116159523Y-74969523D01*
X116121428Y-75045714D01*
X116083333Y-75083809D01*
X116007142Y-75121904D01*
X115854761Y-75121904D01*
X115778571Y-75083809D01*
X115740476Y-75045714D01*
X115702380Y-74969523D01*
X115702380Y-74779047D01*
X115740476Y-74702857D01*
X115778571Y-74664761D01*
X115854761Y-74626666D01*
X116007142Y-74626666D01*
X116083333Y-74664761D01*
X116121428Y-74702857D01*
X116159523Y-74779047D01*
X114978571Y-74321904D02*
X115359523Y-74321904D01*
X115397619Y-74702857D01*
X115359523Y-74664761D01*
X115283333Y-74626666D01*
X115092857Y-74626666D01*
X115016666Y-74664761D01*
X114978571Y-74702857D01*
X114940476Y-74779047D01*
X114940476Y-74969523D01*
X114978571Y-75045714D01*
X115016666Y-75083809D01*
X115092857Y-75121904D01*
X115283333Y-75121904D01*
X115359523Y-75083809D01*
X115397619Y-75045714D01*
X101064285Y-89245714D02*
X101102380Y-89283809D01*
X101216666Y-89321904D01*
X101292857Y-89321904D01*
X101407142Y-89283809D01*
X101483333Y-89207619D01*
X101521428Y-89131428D01*
X101559523Y-88979047D01*
X101559523Y-88864761D01*
X101521428Y-88712380D01*
X101483333Y-88636190D01*
X101407142Y-88560000D01*
X101292857Y-88521904D01*
X101216666Y-88521904D01*
X101102380Y-88560000D01*
X101064285Y-88598095D01*
X100378571Y-88521904D02*
X100530952Y-88521904D01*
X100607142Y-88560000D01*
X100645238Y-88598095D01*
X100721428Y-88712380D01*
X100759523Y-88864761D01*
X100759523Y-89169523D01*
X100721428Y-89245714D01*
X100683333Y-89283809D01*
X100607142Y-89321904D01*
X100454761Y-89321904D01*
X100378571Y-89283809D01*
X100340476Y-89245714D01*
X100302380Y-89169523D01*
X100302380Y-88979047D01*
X100340476Y-88902857D01*
X100378571Y-88864761D01*
X100454761Y-88826666D01*
X100607142Y-88826666D01*
X100683333Y-88864761D01*
X100721428Y-88902857D01*
X100759523Y-88979047D01*
X100035714Y-88521904D02*
X99502380Y-88521904D01*
X99845238Y-89321904D01*
X92364285Y-83721904D02*
X92630952Y-83340952D01*
X92821428Y-83721904D02*
X92821428Y-82921904D01*
X92516666Y-82921904D01*
X92440476Y-82960000D01*
X92402380Y-82998095D01*
X92364285Y-83074285D01*
X92364285Y-83188571D01*
X92402380Y-83264761D01*
X92440476Y-83302857D01*
X92516666Y-83340952D01*
X92821428Y-83340952D01*
X92097619Y-82921904D02*
X91564285Y-82921904D01*
X91907142Y-83721904D01*
X91107142Y-82921904D02*
X91030952Y-82921904D01*
X90954761Y-82960000D01*
X90916666Y-82998095D01*
X90878571Y-83074285D01*
X90840476Y-83226666D01*
X90840476Y-83417142D01*
X90878571Y-83569523D01*
X90916666Y-83645714D01*
X90954761Y-83683809D01*
X91030952Y-83721904D01*
X91107142Y-83721904D01*
X91183333Y-83683809D01*
X91221428Y-83645714D01*
X91259523Y-83569523D01*
X91297619Y-83417142D01*
X91297619Y-83226666D01*
X91259523Y-83074285D01*
X91221428Y-82998095D01*
X91183333Y-82960000D01*
X91107142Y-82921904D01*
X104864285Y-68445714D02*
X104902380Y-68483809D01*
X105016666Y-68521904D01*
X105092857Y-68521904D01*
X105207142Y-68483809D01*
X105283333Y-68407619D01*
X105321428Y-68331428D01*
X105359523Y-68179047D01*
X105359523Y-68064761D01*
X105321428Y-67912380D01*
X105283333Y-67836190D01*
X105207142Y-67760000D01*
X105092857Y-67721904D01*
X105016666Y-67721904D01*
X104902380Y-67760000D01*
X104864285Y-67798095D01*
X104178571Y-67988571D02*
X104178571Y-68521904D01*
X104369047Y-67683809D02*
X104559523Y-68255238D01*
X104064285Y-68255238D01*
X103645238Y-68064761D02*
X103721428Y-68026666D01*
X103759523Y-67988571D01*
X103797619Y-67912380D01*
X103797619Y-67874285D01*
X103759523Y-67798095D01*
X103721428Y-67760000D01*
X103645238Y-67721904D01*
X103492857Y-67721904D01*
X103416666Y-67760000D01*
X103378571Y-67798095D01*
X103340476Y-67874285D01*
X103340476Y-67912380D01*
X103378571Y-67988571D01*
X103416666Y-68026666D01*
X103492857Y-68064761D01*
X103645238Y-68064761D01*
X103721428Y-68102857D01*
X103759523Y-68140952D01*
X103797619Y-68217142D01*
X103797619Y-68369523D01*
X103759523Y-68445714D01*
X103721428Y-68483809D01*
X103645238Y-68521904D01*
X103492857Y-68521904D01*
X103416666Y-68483809D01*
X103378571Y-68445714D01*
X103340476Y-68369523D01*
X103340476Y-68217142D01*
X103378571Y-68140952D01*
X103416666Y-68102857D01*
X103492857Y-68064761D01*
X111594285Y-67721904D02*
X111860952Y-67340952D01*
X112051428Y-67721904D02*
X112051428Y-66921904D01*
X111746666Y-66921904D01*
X111670476Y-66960000D01*
X111632380Y-66998095D01*
X111594285Y-67074285D01*
X111594285Y-67188571D01*
X111632380Y-67264761D01*
X111670476Y-67302857D01*
X111746666Y-67340952D01*
X112051428Y-67340952D01*
X110870476Y-66921904D02*
X111251428Y-66921904D01*
X111289523Y-67302857D01*
X111251428Y-67264761D01*
X111175238Y-67226666D01*
X110984761Y-67226666D01*
X110908571Y-67264761D01*
X110870476Y-67302857D01*
X110832380Y-67379047D01*
X110832380Y-67569523D01*
X110870476Y-67645714D01*
X110908571Y-67683809D01*
X110984761Y-67721904D01*
X111175238Y-67721904D01*
X111251428Y-67683809D01*
X111289523Y-67645714D01*
X110451428Y-67721904D02*
X110299047Y-67721904D01*
X110222857Y-67683809D01*
X110184761Y-67645714D01*
X110108571Y-67531428D01*
X110070476Y-67379047D01*
X110070476Y-67074285D01*
X110108571Y-66998095D01*
X110146666Y-66960000D01*
X110222857Y-66921904D01*
X110375238Y-66921904D01*
X110451428Y-66960000D01*
X110489523Y-66998095D01*
X110527619Y-67074285D01*
X110527619Y-67264761D01*
X110489523Y-67340952D01*
X110451428Y-67379047D01*
X110375238Y-67417142D01*
X110222857Y-67417142D01*
X110146666Y-67379047D01*
X110108571Y-67340952D01*
X110070476Y-67264761D01*
X116711904Y-87045714D02*
X116330952Y-86779047D01*
X116711904Y-86588571D02*
X115911904Y-86588571D01*
X115911904Y-86893333D01*
X115950000Y-86969523D01*
X115988095Y-87007619D01*
X116064285Y-87045714D01*
X116178571Y-87045714D01*
X116254761Y-87007619D01*
X116292857Y-86969523D01*
X116330952Y-86893333D01*
X116330952Y-86588571D01*
X115911904Y-87312380D02*
X115911904Y-87845714D01*
X116711904Y-87502857D01*
X115911904Y-88074285D02*
X115911904Y-88569523D01*
X116216666Y-88302857D01*
X116216666Y-88417142D01*
X116254761Y-88493333D01*
X116292857Y-88531428D01*
X116369047Y-88569523D01*
X116559523Y-88569523D01*
X116635714Y-88531428D01*
X116673809Y-88493333D01*
X116711904Y-88417142D01*
X116711904Y-88188571D01*
X116673809Y-88112380D01*
X116635714Y-88074285D01*
X106734285Y-89721904D02*
X107000952Y-89340952D01*
X107191428Y-89721904D02*
X107191428Y-88921904D01*
X106886666Y-88921904D01*
X106810476Y-88960000D01*
X106772380Y-88998095D01*
X106734285Y-89074285D01*
X106734285Y-89188571D01*
X106772380Y-89264761D01*
X106810476Y-89302857D01*
X106886666Y-89340952D01*
X107191428Y-89340952D01*
X106277142Y-89264761D02*
X106353333Y-89226666D01*
X106391428Y-89188571D01*
X106429523Y-89112380D01*
X106429523Y-89074285D01*
X106391428Y-88998095D01*
X106353333Y-88960000D01*
X106277142Y-88921904D01*
X106124761Y-88921904D01*
X106048571Y-88960000D01*
X106010476Y-88998095D01*
X105972380Y-89074285D01*
X105972380Y-89112380D01*
X106010476Y-89188571D01*
X106048571Y-89226666D01*
X106124761Y-89264761D01*
X106277142Y-89264761D01*
X106353333Y-89302857D01*
X106391428Y-89340952D01*
X106429523Y-89417142D01*
X106429523Y-89569523D01*
X106391428Y-89645714D01*
X106353333Y-89683809D01*
X106277142Y-89721904D01*
X106124761Y-89721904D01*
X106048571Y-89683809D01*
X106010476Y-89645714D01*
X105972380Y-89569523D01*
X105972380Y-89417142D01*
X106010476Y-89340952D01*
X106048571Y-89302857D01*
X106124761Y-89264761D01*
X105667619Y-88998095D02*
X105629523Y-88960000D01*
X105553333Y-88921904D01*
X105362857Y-88921904D01*
X105286666Y-88960000D01*
X105248571Y-88998095D01*
X105210476Y-89074285D01*
X105210476Y-89150476D01*
X105248571Y-89264761D01*
X105705714Y-89721904D01*
X105210476Y-89721904D01*
X96024285Y-75921904D02*
X96290952Y-75540952D01*
X96481428Y-75921904D02*
X96481428Y-75121904D01*
X96176666Y-75121904D01*
X96100476Y-75160000D01*
X96062380Y-75198095D01*
X96024285Y-75274285D01*
X96024285Y-75388571D01*
X96062380Y-75464761D01*
X96100476Y-75502857D01*
X96176666Y-75540952D01*
X96481428Y-75540952D01*
X95338571Y-75121904D02*
X95490952Y-75121904D01*
X95567142Y-75160000D01*
X95605238Y-75198095D01*
X95681428Y-75312380D01*
X95719523Y-75464761D01*
X95719523Y-75769523D01*
X95681428Y-75845714D01*
X95643333Y-75883809D01*
X95567142Y-75921904D01*
X95414761Y-75921904D01*
X95338571Y-75883809D01*
X95300476Y-75845714D01*
X95262380Y-75769523D01*
X95262380Y-75579047D01*
X95300476Y-75502857D01*
X95338571Y-75464761D01*
X95414761Y-75426666D01*
X95567142Y-75426666D01*
X95643333Y-75464761D01*
X95681428Y-75502857D01*
X95719523Y-75579047D01*
X94576666Y-75121904D02*
X94729047Y-75121904D01*
X94805238Y-75160000D01*
X94843333Y-75198095D01*
X94919523Y-75312380D01*
X94957619Y-75464761D01*
X94957619Y-75769523D01*
X94919523Y-75845714D01*
X94881428Y-75883809D01*
X94805238Y-75921904D01*
X94652857Y-75921904D01*
X94576666Y-75883809D01*
X94538571Y-75845714D01*
X94500476Y-75769523D01*
X94500476Y-75579047D01*
X94538571Y-75502857D01*
X94576666Y-75464761D01*
X94652857Y-75426666D01*
X94805238Y-75426666D01*
X94881428Y-75464761D01*
X94919523Y-75502857D01*
X94957619Y-75579047D01*
X95311904Y-85905714D02*
X94930952Y-85639047D01*
X95311904Y-85448571D02*
X94511904Y-85448571D01*
X94511904Y-85753333D01*
X94550000Y-85829523D01*
X94588095Y-85867619D01*
X94664285Y-85905714D01*
X94778571Y-85905714D01*
X94854761Y-85867619D01*
X94892857Y-85829523D01*
X94930952Y-85753333D01*
X94930952Y-85448571D01*
X94511904Y-86172380D02*
X94511904Y-86705714D01*
X95311904Y-86362857D01*
X94854761Y-87124761D02*
X94816666Y-87048571D01*
X94778571Y-87010476D01*
X94702380Y-86972380D01*
X94664285Y-86972380D01*
X94588095Y-87010476D01*
X94550000Y-87048571D01*
X94511904Y-87124761D01*
X94511904Y-87277142D01*
X94550000Y-87353333D01*
X94588095Y-87391428D01*
X94664285Y-87429523D01*
X94702380Y-87429523D01*
X94778571Y-87391428D01*
X94816666Y-87353333D01*
X94854761Y-87277142D01*
X94854761Y-87124761D01*
X94892857Y-87048571D01*
X94930952Y-87010476D01*
X95007142Y-86972380D01*
X95159523Y-86972380D01*
X95235714Y-87010476D01*
X95273809Y-87048571D01*
X95311904Y-87124761D01*
X95311904Y-87277142D01*
X95273809Y-87353333D01*
X95235714Y-87391428D01*
X95159523Y-87429523D01*
X95007142Y-87429523D01*
X94930952Y-87391428D01*
X94892857Y-87353333D01*
X94854761Y-87277142D01*
X98634285Y-66645714D02*
X98672380Y-66683809D01*
X98786666Y-66721904D01*
X98862857Y-66721904D01*
X98977142Y-66683809D01*
X99053333Y-66607619D01*
X99091428Y-66531428D01*
X99129523Y-66379047D01*
X99129523Y-66264761D01*
X99091428Y-66112380D01*
X99053333Y-66036190D01*
X98977142Y-65960000D01*
X98862857Y-65921904D01*
X98786666Y-65921904D01*
X98672380Y-65960000D01*
X98634285Y-65998095D01*
X97948571Y-66188571D02*
X97948571Y-66721904D01*
X98139047Y-65883809D02*
X98329523Y-66455238D01*
X97834285Y-66455238D01*
X97186666Y-66188571D02*
X97186666Y-66721904D01*
X97377142Y-65883809D02*
X97567619Y-66455238D01*
X97072380Y-66455238D01*
X98664285Y-67845714D02*
X98702380Y-67883809D01*
X98816666Y-67921904D01*
X98892857Y-67921904D01*
X99007142Y-67883809D01*
X99083333Y-67807619D01*
X99121428Y-67731428D01*
X99159523Y-67579047D01*
X99159523Y-67464761D01*
X99121428Y-67312380D01*
X99083333Y-67236190D01*
X99007142Y-67160000D01*
X98892857Y-67121904D01*
X98816666Y-67121904D01*
X98702380Y-67160000D01*
X98664285Y-67198095D01*
X97978571Y-67388571D02*
X97978571Y-67921904D01*
X98169047Y-67083809D02*
X98359523Y-67655238D01*
X97864285Y-67655238D01*
X97635714Y-67121904D02*
X97102380Y-67121904D01*
X97445238Y-67921904D01*
X92035714Y-74405714D02*
X92073809Y-74367619D01*
X92111904Y-74253333D01*
X92111904Y-74177142D01*
X92073809Y-74062857D01*
X91997619Y-73986666D01*
X91921428Y-73948571D01*
X91769047Y-73910476D01*
X91654761Y-73910476D01*
X91502380Y-73948571D01*
X91426190Y-73986666D01*
X91350000Y-74062857D01*
X91311904Y-74177142D01*
X91311904Y-74253333D01*
X91350000Y-74367619D01*
X91388095Y-74405714D01*
X91311904Y-75129523D02*
X91311904Y-74748571D01*
X91692857Y-74710476D01*
X91654761Y-74748571D01*
X91616666Y-74824761D01*
X91616666Y-75015238D01*
X91654761Y-75091428D01*
X91692857Y-75129523D01*
X91769047Y-75167619D01*
X91959523Y-75167619D01*
X92035714Y-75129523D01*
X92073809Y-75091428D01*
X92111904Y-75015238D01*
X92111904Y-74824761D01*
X92073809Y-74748571D01*
X92035714Y-74710476D01*
X91578571Y-75853333D02*
X92111904Y-75853333D01*
X91273809Y-75662857D02*
X91845238Y-75472380D01*
X91845238Y-75967619D01*
X110064285Y-65321904D02*
X110330952Y-64940952D01*
X110521428Y-65321904D02*
X110521428Y-64521904D01*
X110216666Y-64521904D01*
X110140476Y-64560000D01*
X110102380Y-64598095D01*
X110064285Y-64674285D01*
X110064285Y-64788571D01*
X110102380Y-64864761D01*
X110140476Y-64902857D01*
X110216666Y-64940952D01*
X110521428Y-64940952D01*
X109340476Y-64521904D02*
X109721428Y-64521904D01*
X109759523Y-64902857D01*
X109721428Y-64864761D01*
X109645238Y-64826666D01*
X109454761Y-64826666D01*
X109378571Y-64864761D01*
X109340476Y-64902857D01*
X109302380Y-64979047D01*
X109302380Y-65169523D01*
X109340476Y-65245714D01*
X109378571Y-65283809D01*
X109454761Y-65321904D01*
X109645238Y-65321904D01*
X109721428Y-65283809D01*
X109759523Y-65245714D01*
X109035714Y-64521904D02*
X108502380Y-64521904D01*
X108845238Y-65321904D01*
X116464285Y-65321904D02*
X116730952Y-64940952D01*
X116921428Y-65321904D02*
X116921428Y-64521904D01*
X116616666Y-64521904D01*
X116540476Y-64560000D01*
X116502380Y-64598095D01*
X116464285Y-64674285D01*
X116464285Y-64788571D01*
X116502380Y-64864761D01*
X116540476Y-64902857D01*
X116616666Y-64940952D01*
X116921428Y-64940952D01*
X115740476Y-64521904D02*
X116121428Y-64521904D01*
X116159523Y-64902857D01*
X116121428Y-64864761D01*
X116045238Y-64826666D01*
X115854761Y-64826666D01*
X115778571Y-64864761D01*
X115740476Y-64902857D01*
X115702380Y-64979047D01*
X115702380Y-65169523D01*
X115740476Y-65245714D01*
X115778571Y-65283809D01*
X115854761Y-65321904D01*
X116045238Y-65321904D01*
X116121428Y-65283809D01*
X116159523Y-65245714D01*
X115016666Y-64521904D02*
X115169047Y-64521904D01*
X115245238Y-64560000D01*
X115283333Y-64598095D01*
X115359523Y-64712380D01*
X115397619Y-64864761D01*
X115397619Y-65169523D01*
X115359523Y-65245714D01*
X115321428Y-65283809D01*
X115245238Y-65321904D01*
X115092857Y-65321904D01*
X115016666Y-65283809D01*
X114978571Y-65245714D01*
X114940476Y-65169523D01*
X114940476Y-64979047D01*
X114978571Y-64902857D01*
X115016666Y-64864761D01*
X115092857Y-64826666D01*
X115245238Y-64826666D01*
X115321428Y-64864761D01*
X115359523Y-64902857D01*
X115397619Y-64979047D01*
X91891904Y-64445714D02*
X91510952Y-64179047D01*
X91891904Y-63988571D02*
X91091904Y-63988571D01*
X91091904Y-64293333D01*
X91130000Y-64369523D01*
X91168095Y-64407619D01*
X91244285Y-64445714D01*
X91358571Y-64445714D01*
X91434761Y-64407619D01*
X91472857Y-64369523D01*
X91510952Y-64293333D01*
X91510952Y-63988571D01*
X91091904Y-65169523D02*
X91091904Y-64788571D01*
X91472857Y-64750476D01*
X91434761Y-64788571D01*
X91396666Y-64864761D01*
X91396666Y-65055238D01*
X91434761Y-65131428D01*
X91472857Y-65169523D01*
X91549047Y-65207619D01*
X91739523Y-65207619D01*
X91815714Y-65169523D01*
X91853809Y-65131428D01*
X91891904Y-65055238D01*
X91891904Y-64864761D01*
X91853809Y-64788571D01*
X91815714Y-64750476D01*
X91091904Y-65931428D02*
X91091904Y-65550476D01*
X91472857Y-65512380D01*
X91434761Y-65550476D01*
X91396666Y-65626666D01*
X91396666Y-65817142D01*
X91434761Y-65893333D01*
X91472857Y-65931428D01*
X91549047Y-65969523D01*
X91739523Y-65969523D01*
X91815714Y-65931428D01*
X91853809Y-65893333D01*
X91891904Y-65817142D01*
X91891904Y-65626666D01*
X91853809Y-65550476D01*
X91815714Y-65512380D01*
X92511904Y-54675714D02*
X92130952Y-54409047D01*
X92511904Y-54218571D02*
X91711904Y-54218571D01*
X91711904Y-54523333D01*
X91750000Y-54599523D01*
X91788095Y-54637619D01*
X91864285Y-54675714D01*
X91978571Y-54675714D01*
X92054761Y-54637619D01*
X92092857Y-54599523D01*
X92130952Y-54523333D01*
X92130952Y-54218571D01*
X91978571Y-55361428D02*
X92511904Y-55361428D01*
X91673809Y-55170952D02*
X92245238Y-54980476D01*
X92245238Y-55475714D01*
X91711904Y-55704285D02*
X91711904Y-56237619D01*
X92511904Y-55894761D01*
X101871904Y-64045714D02*
X101490952Y-63779047D01*
X101871904Y-63588571D02*
X101071904Y-63588571D01*
X101071904Y-63893333D01*
X101110000Y-63969523D01*
X101148095Y-64007619D01*
X101224285Y-64045714D01*
X101338571Y-64045714D01*
X101414761Y-64007619D01*
X101452857Y-63969523D01*
X101490952Y-63893333D01*
X101490952Y-63588571D01*
X101071904Y-64769523D02*
X101071904Y-64388571D01*
X101452857Y-64350476D01*
X101414761Y-64388571D01*
X101376666Y-64464761D01*
X101376666Y-64655238D01*
X101414761Y-64731428D01*
X101452857Y-64769523D01*
X101529047Y-64807619D01*
X101719523Y-64807619D01*
X101795714Y-64769523D01*
X101833809Y-64731428D01*
X101871904Y-64655238D01*
X101871904Y-64464761D01*
X101833809Y-64388571D01*
X101795714Y-64350476D01*
X101071904Y-65074285D02*
X101071904Y-65569523D01*
X101376666Y-65302857D01*
X101376666Y-65417142D01*
X101414761Y-65493333D01*
X101452857Y-65531428D01*
X101529047Y-65569523D01*
X101719523Y-65569523D01*
X101795714Y-65531428D01*
X101833809Y-65493333D01*
X101871904Y-65417142D01*
X101871904Y-65188571D01*
X101833809Y-65112380D01*
X101795714Y-65074285D01*
X99814285Y-60366714D02*
X99852380Y-60404809D01*
X99966666Y-60442904D01*
X100042857Y-60442904D01*
X100157142Y-60404809D01*
X100233333Y-60328619D01*
X100271428Y-60252428D01*
X100309523Y-60100047D01*
X100309523Y-59985761D01*
X100271428Y-59833380D01*
X100233333Y-59757190D01*
X100157142Y-59681000D01*
X100042857Y-59642904D01*
X99966666Y-59642904D01*
X99852380Y-59681000D01*
X99814285Y-59719095D01*
X99128571Y-59909571D02*
X99128571Y-60442904D01*
X99319047Y-59604809D02*
X99509523Y-60176238D01*
X99014285Y-60176238D01*
X98290476Y-60442904D02*
X98747619Y-60442904D01*
X98519047Y-60442904D02*
X98519047Y-59642904D01*
X98595238Y-59757190D01*
X98671428Y-59833380D01*
X98747619Y-59871476D01*
X100483333Y-58553333D02*
X100102380Y-58553333D01*
X100559523Y-58781904D02*
X100292857Y-57981904D01*
X100026190Y-58781904D01*
X99797619Y-58743809D02*
X99683333Y-58781904D01*
X99492857Y-58781904D01*
X99416666Y-58743809D01*
X99378571Y-58705714D01*
X99340476Y-58629523D01*
X99340476Y-58553333D01*
X99378571Y-58477142D01*
X99416666Y-58439047D01*
X99492857Y-58400952D01*
X99645238Y-58362857D01*
X99721428Y-58324761D01*
X99759523Y-58286666D01*
X99797619Y-58210476D01*
X99797619Y-58134285D01*
X99759523Y-58058095D01*
X99721428Y-58020000D01*
X99645238Y-57981904D01*
X99454761Y-57981904D01*
X99340476Y-58020000D01*
X98578571Y-58781904D02*
X99035714Y-58781904D01*
X98807142Y-58781904D02*
X98807142Y-57981904D01*
X98883333Y-58096190D01*
X98959523Y-58172380D01*
X99035714Y-58210476D01*
X98311904Y-57981904D02*
X97816666Y-57981904D01*
X98083333Y-58286666D01*
X97969047Y-58286666D01*
X97892857Y-58324761D01*
X97854761Y-58362857D01*
X97816666Y-58439047D01*
X97816666Y-58629523D01*
X97854761Y-58705714D01*
X97892857Y-58743809D01*
X97969047Y-58781904D01*
X98197619Y-58781904D01*
X98273809Y-58743809D01*
X98311904Y-58705714D01*
X107334285Y-82645714D02*
X107372380Y-82683809D01*
X107486666Y-82721904D01*
X107562857Y-82721904D01*
X107677142Y-82683809D01*
X107753333Y-82607619D01*
X107791428Y-82531428D01*
X107829523Y-82379047D01*
X107829523Y-82264761D01*
X107791428Y-82112380D01*
X107753333Y-82036190D01*
X107677142Y-81960000D01*
X107562857Y-81921904D01*
X107486666Y-81921904D01*
X107372380Y-81960000D01*
X107334285Y-81998095D01*
X106648571Y-81921904D02*
X106800952Y-81921904D01*
X106877142Y-81960000D01*
X106915238Y-81998095D01*
X106991428Y-82112380D01*
X107029523Y-82264761D01*
X107029523Y-82569523D01*
X106991428Y-82645714D01*
X106953333Y-82683809D01*
X106877142Y-82721904D01*
X106724761Y-82721904D01*
X106648571Y-82683809D01*
X106610476Y-82645714D01*
X106572380Y-82569523D01*
X106572380Y-82379047D01*
X106610476Y-82302857D01*
X106648571Y-82264761D01*
X106724761Y-82226666D01*
X106877142Y-82226666D01*
X106953333Y-82264761D01*
X106991428Y-82302857D01*
X107029523Y-82379047D01*
X106267619Y-81998095D02*
X106229523Y-81960000D01*
X106153333Y-81921904D01*
X105962857Y-81921904D01*
X105886666Y-81960000D01*
X105848571Y-81998095D01*
X105810476Y-82074285D01*
X105810476Y-82150476D01*
X105848571Y-82264761D01*
X106305714Y-82721904D01*
X105810476Y-82721904D01*
X103864285Y-83045714D02*
X103902380Y-83083809D01*
X104016666Y-83121904D01*
X104092857Y-83121904D01*
X104207142Y-83083809D01*
X104283333Y-83007619D01*
X104321428Y-82931428D01*
X104359523Y-82779047D01*
X104359523Y-82664761D01*
X104321428Y-82512380D01*
X104283333Y-82436190D01*
X104207142Y-82360000D01*
X104092857Y-82321904D01*
X104016666Y-82321904D01*
X103902380Y-82360000D01*
X103864285Y-82398095D01*
X103178571Y-82321904D02*
X103330952Y-82321904D01*
X103407142Y-82360000D01*
X103445238Y-82398095D01*
X103521428Y-82512380D01*
X103559523Y-82664761D01*
X103559523Y-82969523D01*
X103521428Y-83045714D01*
X103483333Y-83083809D01*
X103407142Y-83121904D01*
X103254761Y-83121904D01*
X103178571Y-83083809D01*
X103140476Y-83045714D01*
X103102380Y-82969523D01*
X103102380Y-82779047D01*
X103140476Y-82702857D01*
X103178571Y-82664761D01*
X103254761Y-82626666D01*
X103407142Y-82626666D01*
X103483333Y-82664761D01*
X103521428Y-82702857D01*
X103559523Y-82779047D01*
X102607142Y-82321904D02*
X102530952Y-82321904D01*
X102454761Y-82360000D01*
X102416666Y-82398095D01*
X102378571Y-82474285D01*
X102340476Y-82626666D01*
X102340476Y-82817142D01*
X102378571Y-82969523D01*
X102416666Y-83045714D01*
X102454761Y-83083809D01*
X102530952Y-83121904D01*
X102607142Y-83121904D01*
X102683333Y-83083809D01*
X102721428Y-83045714D01*
X102759523Y-82969523D01*
X102797619Y-82817142D01*
X102797619Y-82626666D01*
X102759523Y-82474285D01*
X102721428Y-82398095D01*
X102683333Y-82360000D01*
X102607142Y-82321904D01*
X115264285Y-70921904D02*
X115530952Y-70540952D01*
X115721428Y-70921904D02*
X115721428Y-70121904D01*
X115416666Y-70121904D01*
X115340476Y-70160000D01*
X115302380Y-70198095D01*
X115264285Y-70274285D01*
X115264285Y-70388571D01*
X115302380Y-70464761D01*
X115340476Y-70502857D01*
X115416666Y-70540952D01*
X115721428Y-70540952D01*
X114578571Y-70121904D02*
X114730952Y-70121904D01*
X114807142Y-70160000D01*
X114845238Y-70198095D01*
X114921428Y-70312380D01*
X114959523Y-70464761D01*
X114959523Y-70769523D01*
X114921428Y-70845714D01*
X114883333Y-70883809D01*
X114807142Y-70921904D01*
X114654761Y-70921904D01*
X114578571Y-70883809D01*
X114540476Y-70845714D01*
X114502380Y-70769523D01*
X114502380Y-70579047D01*
X114540476Y-70502857D01*
X114578571Y-70464761D01*
X114654761Y-70426666D01*
X114807142Y-70426666D01*
X114883333Y-70464761D01*
X114921428Y-70502857D01*
X114959523Y-70579047D01*
X114197619Y-70198095D02*
X114159523Y-70160000D01*
X114083333Y-70121904D01*
X113892857Y-70121904D01*
X113816666Y-70160000D01*
X113778571Y-70198095D01*
X113740476Y-70274285D01*
X113740476Y-70350476D01*
X113778571Y-70464761D01*
X114235714Y-70921904D01*
X113740476Y-70921904D01*
X115164285Y-69721904D02*
X115430952Y-69340952D01*
X115621428Y-69721904D02*
X115621428Y-68921904D01*
X115316666Y-68921904D01*
X115240476Y-68960000D01*
X115202380Y-68998095D01*
X115164285Y-69074285D01*
X115164285Y-69188571D01*
X115202380Y-69264761D01*
X115240476Y-69302857D01*
X115316666Y-69340952D01*
X115621428Y-69340952D01*
X114478571Y-68921904D02*
X114630952Y-68921904D01*
X114707142Y-68960000D01*
X114745238Y-68998095D01*
X114821428Y-69112380D01*
X114859523Y-69264761D01*
X114859523Y-69569523D01*
X114821428Y-69645714D01*
X114783333Y-69683809D01*
X114707142Y-69721904D01*
X114554761Y-69721904D01*
X114478571Y-69683809D01*
X114440476Y-69645714D01*
X114402380Y-69569523D01*
X114402380Y-69379047D01*
X114440476Y-69302857D01*
X114478571Y-69264761D01*
X114554761Y-69226666D01*
X114707142Y-69226666D01*
X114783333Y-69264761D01*
X114821428Y-69302857D01*
X114859523Y-69379047D01*
X113907142Y-68921904D02*
X113830952Y-68921904D01*
X113754761Y-68960000D01*
X113716666Y-68998095D01*
X113678571Y-69074285D01*
X113640476Y-69226666D01*
X113640476Y-69417142D01*
X113678571Y-69569523D01*
X113716666Y-69645714D01*
X113754761Y-69683809D01*
X113830952Y-69721904D01*
X113907142Y-69721904D01*
X113983333Y-69683809D01*
X114021428Y-69645714D01*
X114059523Y-69569523D01*
X114097619Y-69417142D01*
X114097619Y-69226666D01*
X114059523Y-69074285D01*
X114021428Y-68998095D01*
X113983333Y-68960000D01*
X113907142Y-68921904D01*
X108664285Y-69721904D02*
X108930952Y-69340952D01*
X109121428Y-69721904D02*
X109121428Y-68921904D01*
X108816666Y-68921904D01*
X108740476Y-68960000D01*
X108702380Y-68998095D01*
X108664285Y-69074285D01*
X108664285Y-69188571D01*
X108702380Y-69264761D01*
X108740476Y-69302857D01*
X108816666Y-69340952D01*
X109121428Y-69340952D01*
X107978571Y-68921904D02*
X108130952Y-68921904D01*
X108207142Y-68960000D01*
X108245238Y-68998095D01*
X108321428Y-69112380D01*
X108359523Y-69264761D01*
X108359523Y-69569523D01*
X108321428Y-69645714D01*
X108283333Y-69683809D01*
X108207142Y-69721904D01*
X108054761Y-69721904D01*
X107978571Y-69683809D01*
X107940476Y-69645714D01*
X107902380Y-69569523D01*
X107902380Y-69379047D01*
X107940476Y-69302857D01*
X107978571Y-69264761D01*
X108054761Y-69226666D01*
X108207142Y-69226666D01*
X108283333Y-69264761D01*
X108321428Y-69302857D01*
X108359523Y-69379047D01*
X107140476Y-69721904D02*
X107597619Y-69721904D01*
X107369047Y-69721904D02*
X107369047Y-68921904D01*
X107445238Y-69036190D01*
X107521428Y-69112380D01*
X107597619Y-69150476D01*
X108664285Y-70921904D02*
X108930952Y-70540952D01*
X109121428Y-70921904D02*
X109121428Y-70121904D01*
X108816666Y-70121904D01*
X108740476Y-70160000D01*
X108702380Y-70198095D01*
X108664285Y-70274285D01*
X108664285Y-70388571D01*
X108702380Y-70464761D01*
X108740476Y-70502857D01*
X108816666Y-70540952D01*
X109121428Y-70540952D01*
X107978571Y-70121904D02*
X108130952Y-70121904D01*
X108207142Y-70160000D01*
X108245238Y-70198095D01*
X108321428Y-70312380D01*
X108359523Y-70464761D01*
X108359523Y-70769523D01*
X108321428Y-70845714D01*
X108283333Y-70883809D01*
X108207142Y-70921904D01*
X108054761Y-70921904D01*
X107978571Y-70883809D01*
X107940476Y-70845714D01*
X107902380Y-70769523D01*
X107902380Y-70579047D01*
X107940476Y-70502857D01*
X107978571Y-70464761D01*
X108054761Y-70426666D01*
X108207142Y-70426666D01*
X108283333Y-70464761D01*
X108321428Y-70502857D01*
X108359523Y-70579047D01*
X107635714Y-70121904D02*
X107140476Y-70121904D01*
X107407142Y-70426666D01*
X107292857Y-70426666D01*
X107216666Y-70464761D01*
X107178571Y-70502857D01*
X107140476Y-70579047D01*
X107140476Y-70769523D01*
X107178571Y-70845714D01*
X107216666Y-70883809D01*
X107292857Y-70921904D01*
X107521428Y-70921904D01*
X107597619Y-70883809D01*
X107635714Y-70845714D01*
X92364285Y-88531904D02*
X92630952Y-88150952D01*
X92821428Y-88531904D02*
X92821428Y-87731904D01*
X92516666Y-87731904D01*
X92440476Y-87770000D01*
X92402380Y-87808095D01*
X92364285Y-87884285D01*
X92364285Y-87998571D01*
X92402380Y-88074761D01*
X92440476Y-88112857D01*
X92516666Y-88150952D01*
X92821428Y-88150952D01*
X91907142Y-88074761D02*
X91983333Y-88036666D01*
X92021428Y-87998571D01*
X92059523Y-87922380D01*
X92059523Y-87884285D01*
X92021428Y-87808095D01*
X91983333Y-87770000D01*
X91907142Y-87731904D01*
X91754761Y-87731904D01*
X91678571Y-87770000D01*
X91640476Y-87808095D01*
X91602380Y-87884285D01*
X91602380Y-87922380D01*
X91640476Y-87998571D01*
X91678571Y-88036666D01*
X91754761Y-88074761D01*
X91907142Y-88074761D01*
X91983333Y-88112857D01*
X92021428Y-88150952D01*
X92059523Y-88227142D01*
X92059523Y-88379523D01*
X92021428Y-88455714D01*
X91983333Y-88493809D01*
X91907142Y-88531904D01*
X91754761Y-88531904D01*
X91678571Y-88493809D01*
X91640476Y-88455714D01*
X91602380Y-88379523D01*
X91602380Y-88227142D01*
X91640476Y-88150952D01*
X91678571Y-88112857D01*
X91754761Y-88074761D01*
X90840476Y-88531904D02*
X91297619Y-88531904D01*
X91069047Y-88531904D02*
X91069047Y-87731904D01*
X91145238Y-87846190D01*
X91221428Y-87922380D01*
X91297619Y-87960476D01*
X92364285Y-87321904D02*
X92630952Y-86940952D01*
X92821428Y-87321904D02*
X92821428Y-86521904D01*
X92516666Y-86521904D01*
X92440476Y-86560000D01*
X92402380Y-86598095D01*
X92364285Y-86674285D01*
X92364285Y-86788571D01*
X92402380Y-86864761D01*
X92440476Y-86902857D01*
X92516666Y-86940952D01*
X92821428Y-86940952D01*
X92097619Y-86521904D02*
X91564285Y-86521904D01*
X91907142Y-87321904D01*
X91221428Y-87321904D02*
X91069047Y-87321904D01*
X90992857Y-87283809D01*
X90954761Y-87245714D01*
X90878571Y-87131428D01*
X90840476Y-86979047D01*
X90840476Y-86674285D01*
X90878571Y-86598095D01*
X90916666Y-86560000D01*
X90992857Y-86521904D01*
X91145238Y-86521904D01*
X91221428Y-86560000D01*
X91259523Y-86598095D01*
X91297619Y-86674285D01*
X91297619Y-86864761D01*
X91259523Y-86940952D01*
X91221428Y-86979047D01*
X91145238Y-87017142D01*
X90992857Y-87017142D01*
X90916666Y-86979047D01*
X90878571Y-86940952D01*
X90840476Y-86864761D01*
X92364285Y-86121904D02*
X92630952Y-85740952D01*
X92821428Y-86121904D02*
X92821428Y-85321904D01*
X92516666Y-85321904D01*
X92440476Y-85360000D01*
X92402380Y-85398095D01*
X92364285Y-85474285D01*
X92364285Y-85588571D01*
X92402380Y-85664761D01*
X92440476Y-85702857D01*
X92516666Y-85740952D01*
X92821428Y-85740952D01*
X92097619Y-85321904D02*
X91564285Y-85321904D01*
X91907142Y-86121904D01*
X90916666Y-85321904D02*
X91069047Y-85321904D01*
X91145238Y-85360000D01*
X91183333Y-85398095D01*
X91259523Y-85512380D01*
X91297619Y-85664761D01*
X91297619Y-85969523D01*
X91259523Y-86045714D01*
X91221428Y-86083809D01*
X91145238Y-86121904D01*
X90992857Y-86121904D01*
X90916666Y-86083809D01*
X90878571Y-86045714D01*
X90840476Y-85969523D01*
X90840476Y-85779047D01*
X90878571Y-85702857D01*
X90916666Y-85664761D01*
X90992857Y-85626666D01*
X91145238Y-85626666D01*
X91221428Y-85664761D01*
X91259523Y-85702857D01*
X91297619Y-85779047D01*
X92364285Y-84921904D02*
X92630952Y-84540952D01*
X92821428Y-84921904D02*
X92821428Y-84121904D01*
X92516666Y-84121904D01*
X92440476Y-84160000D01*
X92402380Y-84198095D01*
X92364285Y-84274285D01*
X92364285Y-84388571D01*
X92402380Y-84464761D01*
X92440476Y-84502857D01*
X92516666Y-84540952D01*
X92821428Y-84540952D01*
X92097619Y-84121904D02*
X91564285Y-84121904D01*
X91907142Y-84921904D01*
X91297619Y-84198095D02*
X91259523Y-84160000D01*
X91183333Y-84121904D01*
X90992857Y-84121904D01*
X90916666Y-84160000D01*
X90878571Y-84198095D01*
X90840476Y-84274285D01*
X90840476Y-84350476D01*
X90878571Y-84464761D01*
X91335714Y-84921904D01*
X90840476Y-84921904D01*
X92364285Y-82521904D02*
X92630952Y-82140952D01*
X92821428Y-82521904D02*
X92821428Y-81721904D01*
X92516666Y-81721904D01*
X92440476Y-81760000D01*
X92402380Y-81798095D01*
X92364285Y-81874285D01*
X92364285Y-81988571D01*
X92402380Y-82064761D01*
X92440476Y-82102857D01*
X92516666Y-82140952D01*
X92821428Y-82140952D01*
X91678571Y-81721904D02*
X91830952Y-81721904D01*
X91907142Y-81760000D01*
X91945238Y-81798095D01*
X92021428Y-81912380D01*
X92059523Y-82064761D01*
X92059523Y-82369523D01*
X92021428Y-82445714D01*
X91983333Y-82483809D01*
X91907142Y-82521904D01*
X91754761Y-82521904D01*
X91678571Y-82483809D01*
X91640476Y-82445714D01*
X91602380Y-82369523D01*
X91602380Y-82179047D01*
X91640476Y-82102857D01*
X91678571Y-82064761D01*
X91754761Y-82026666D01*
X91907142Y-82026666D01*
X91983333Y-82064761D01*
X92021428Y-82102857D01*
X92059523Y-82179047D01*
X91145238Y-82064761D02*
X91221428Y-82026666D01*
X91259523Y-81988571D01*
X91297619Y-81912380D01*
X91297619Y-81874285D01*
X91259523Y-81798095D01*
X91221428Y-81760000D01*
X91145238Y-81721904D01*
X90992857Y-81721904D01*
X90916666Y-81760000D01*
X90878571Y-81798095D01*
X90840476Y-81874285D01*
X90840476Y-81912380D01*
X90878571Y-81988571D01*
X90916666Y-82026666D01*
X90992857Y-82064761D01*
X91145238Y-82064761D01*
X91221428Y-82102857D01*
X91259523Y-82140952D01*
X91297619Y-82217142D01*
X91297619Y-82369523D01*
X91259523Y-82445714D01*
X91221428Y-82483809D01*
X91145238Y-82521904D01*
X90992857Y-82521904D01*
X90916666Y-82483809D01*
X90878571Y-82445714D01*
X90840476Y-82369523D01*
X90840476Y-82217142D01*
X90878571Y-82140952D01*
X90916666Y-82102857D01*
X90992857Y-82064761D01*
X87783333Y-82502857D02*
X87516666Y-82502857D01*
X87402380Y-82921904D02*
X87783333Y-82921904D01*
X87783333Y-82121904D01*
X87402380Y-82121904D01*
X87097619Y-82883809D02*
X86983333Y-82921904D01*
X86792857Y-82921904D01*
X86716666Y-82883809D01*
X86678571Y-82845714D01*
X86640476Y-82769523D01*
X86640476Y-82693333D01*
X86678571Y-82617142D01*
X86716666Y-82579047D01*
X86792857Y-82540952D01*
X86945238Y-82502857D01*
X87021428Y-82464761D01*
X87059523Y-82426666D01*
X87097619Y-82350476D01*
X87097619Y-82274285D01*
X87059523Y-82198095D01*
X87021428Y-82160000D01*
X86945238Y-82121904D01*
X86754761Y-82121904D01*
X86640476Y-82160000D01*
X86297619Y-82921904D02*
X86297619Y-82121904D01*
X86107142Y-82121904D01*
X85992857Y-82160000D01*
X85916666Y-82236190D01*
X85878571Y-82312380D01*
X85840476Y-82464761D01*
X85840476Y-82579047D01*
X85878571Y-82731428D01*
X85916666Y-82807619D01*
X85992857Y-82883809D01*
X86107142Y-82921904D01*
X86297619Y-82921904D01*
X85078571Y-82921904D02*
X85535714Y-82921904D01*
X85307142Y-82921904D02*
X85307142Y-82121904D01*
X85383333Y-82236190D01*
X85459523Y-82312380D01*
X85535714Y-82350476D01*
X115264285Y-84721904D02*
X115530952Y-84340952D01*
X115721428Y-84721904D02*
X115721428Y-83921904D01*
X115416666Y-83921904D01*
X115340476Y-83960000D01*
X115302380Y-83998095D01*
X115264285Y-84074285D01*
X115264285Y-84188571D01*
X115302380Y-84264761D01*
X115340476Y-84302857D01*
X115416666Y-84340952D01*
X115721428Y-84340952D01*
X114997619Y-83921904D02*
X114464285Y-83921904D01*
X114807142Y-84721904D01*
X113740476Y-84721904D02*
X114197619Y-84721904D01*
X113969047Y-84721904D02*
X113969047Y-83921904D01*
X114045238Y-84036190D01*
X114121428Y-84112380D01*
X114197619Y-84150476D01*
X115264285Y-83521904D02*
X115530952Y-83140952D01*
X115721428Y-83521904D02*
X115721428Y-82721904D01*
X115416666Y-82721904D01*
X115340476Y-82760000D01*
X115302380Y-82798095D01*
X115264285Y-82874285D01*
X115264285Y-82988571D01*
X115302380Y-83064761D01*
X115340476Y-83102857D01*
X115416666Y-83140952D01*
X115721428Y-83140952D01*
X114578571Y-82721904D02*
X114730952Y-82721904D01*
X114807142Y-82760000D01*
X114845238Y-82798095D01*
X114921428Y-82912380D01*
X114959523Y-83064761D01*
X114959523Y-83369523D01*
X114921428Y-83445714D01*
X114883333Y-83483809D01*
X114807142Y-83521904D01*
X114654761Y-83521904D01*
X114578571Y-83483809D01*
X114540476Y-83445714D01*
X114502380Y-83369523D01*
X114502380Y-83179047D01*
X114540476Y-83102857D01*
X114578571Y-83064761D01*
X114654761Y-83026666D01*
X114807142Y-83026666D01*
X114883333Y-83064761D01*
X114921428Y-83102857D01*
X114959523Y-83179047D01*
X114121428Y-83521904D02*
X113969047Y-83521904D01*
X113892857Y-83483809D01*
X113854761Y-83445714D01*
X113778571Y-83331428D01*
X113740476Y-83179047D01*
X113740476Y-82874285D01*
X113778571Y-82798095D01*
X113816666Y-82760000D01*
X113892857Y-82721904D01*
X114045238Y-82721904D01*
X114121428Y-82760000D01*
X114159523Y-82798095D01*
X114197619Y-82874285D01*
X114197619Y-83064761D01*
X114159523Y-83140952D01*
X114121428Y-83179047D01*
X114045238Y-83217142D01*
X113892857Y-83217142D01*
X113816666Y-83179047D01*
X113778571Y-83140952D01*
X113740476Y-83064761D01*
X104730952Y-85740952D02*
X104730952Y-86121904D01*
X104997619Y-85321904D02*
X104730952Y-85740952D01*
X104464285Y-85321904D01*
X104235714Y-85398095D02*
X104197619Y-85360000D01*
X104121428Y-85321904D01*
X103930952Y-85321904D01*
X103854761Y-85360000D01*
X103816666Y-85398095D01*
X103778571Y-85474285D01*
X103778571Y-85550476D01*
X103816666Y-85664761D01*
X104273809Y-86121904D01*
X103778571Y-86121904D01*
X97330952Y-84540952D02*
X97330952Y-84921904D01*
X97597619Y-84121904D02*
X97330952Y-84540952D01*
X97064285Y-84121904D01*
X96378571Y-84921904D02*
X96835714Y-84921904D01*
X96607142Y-84921904D02*
X96607142Y-84121904D01*
X96683333Y-84236190D01*
X96759523Y-84312380D01*
X96835714Y-84350476D01*
X96791904Y-64045714D02*
X96410952Y-63779047D01*
X96791904Y-63588571D02*
X95991904Y-63588571D01*
X95991904Y-63893333D01*
X96030000Y-63969523D01*
X96068095Y-64007619D01*
X96144285Y-64045714D01*
X96258571Y-64045714D01*
X96334761Y-64007619D01*
X96372857Y-63969523D01*
X96410952Y-63893333D01*
X96410952Y-63588571D01*
X95991904Y-64769523D02*
X95991904Y-64388571D01*
X96372857Y-64350476D01*
X96334761Y-64388571D01*
X96296666Y-64464761D01*
X96296666Y-64655238D01*
X96334761Y-64731428D01*
X96372857Y-64769523D01*
X96449047Y-64807619D01*
X96639523Y-64807619D01*
X96715714Y-64769523D01*
X96753809Y-64731428D01*
X96791904Y-64655238D01*
X96791904Y-64464761D01*
X96753809Y-64388571D01*
X96715714Y-64350476D01*
X96258571Y-65493333D02*
X96791904Y-65493333D01*
X95953809Y-65302857D02*
X96525238Y-65112380D01*
X96525238Y-65607619D01*
X97264285Y-90721904D02*
X97530952Y-90340952D01*
X97721428Y-90721904D02*
X97721428Y-89921904D01*
X97416666Y-89921904D01*
X97340476Y-89960000D01*
X97302380Y-89998095D01*
X97264285Y-90074285D01*
X97264285Y-90188571D01*
X97302380Y-90264761D01*
X97340476Y-90302857D01*
X97416666Y-90340952D01*
X97721428Y-90340952D01*
X96807142Y-90264761D02*
X96883333Y-90226666D01*
X96921428Y-90188571D01*
X96959523Y-90112380D01*
X96959523Y-90074285D01*
X96921428Y-89998095D01*
X96883333Y-89960000D01*
X96807142Y-89921904D01*
X96654761Y-89921904D01*
X96578571Y-89960000D01*
X96540476Y-89998095D01*
X96502380Y-90074285D01*
X96502380Y-90112380D01*
X96540476Y-90188571D01*
X96578571Y-90226666D01*
X96654761Y-90264761D01*
X96807142Y-90264761D01*
X96883333Y-90302857D01*
X96921428Y-90340952D01*
X96959523Y-90417142D01*
X96959523Y-90569523D01*
X96921428Y-90645714D01*
X96883333Y-90683809D01*
X96807142Y-90721904D01*
X96654761Y-90721904D01*
X96578571Y-90683809D01*
X96540476Y-90645714D01*
X96502380Y-90569523D01*
X96502380Y-90417142D01*
X96540476Y-90340952D01*
X96578571Y-90302857D01*
X96654761Y-90264761D01*
X95816666Y-90188571D02*
X95816666Y-90721904D01*
X96007142Y-89883809D02*
X96197619Y-90455238D01*
X95702380Y-90455238D01*
X103664285Y-90721904D02*
X103930952Y-90340952D01*
X104121428Y-90721904D02*
X104121428Y-89921904D01*
X103816666Y-89921904D01*
X103740476Y-89960000D01*
X103702380Y-89998095D01*
X103664285Y-90074285D01*
X103664285Y-90188571D01*
X103702380Y-90264761D01*
X103740476Y-90302857D01*
X103816666Y-90340952D01*
X104121428Y-90340952D01*
X103207142Y-90264761D02*
X103283333Y-90226666D01*
X103321428Y-90188571D01*
X103359523Y-90112380D01*
X103359523Y-90074285D01*
X103321428Y-89998095D01*
X103283333Y-89960000D01*
X103207142Y-89921904D01*
X103054761Y-89921904D01*
X102978571Y-89960000D01*
X102940476Y-89998095D01*
X102902380Y-90074285D01*
X102902380Y-90112380D01*
X102940476Y-90188571D01*
X102978571Y-90226666D01*
X103054761Y-90264761D01*
X103207142Y-90264761D01*
X103283333Y-90302857D01*
X103321428Y-90340952D01*
X103359523Y-90417142D01*
X103359523Y-90569523D01*
X103321428Y-90645714D01*
X103283333Y-90683809D01*
X103207142Y-90721904D01*
X103054761Y-90721904D01*
X102978571Y-90683809D01*
X102940476Y-90645714D01*
X102902380Y-90569523D01*
X102902380Y-90417142D01*
X102940476Y-90340952D01*
X102978571Y-90302857D01*
X103054761Y-90264761D01*
X102635714Y-89921904D02*
X102140476Y-89921904D01*
X102407142Y-90226666D01*
X102292857Y-90226666D01*
X102216666Y-90264761D01*
X102178571Y-90302857D01*
X102140476Y-90379047D01*
X102140476Y-90569523D01*
X102178571Y-90645714D01*
X102216666Y-90683809D01*
X102292857Y-90721904D01*
X102521428Y-90721904D01*
X102597619Y-90683809D01*
X102635714Y-90645714D01*
X106951904Y-64045714D02*
X106570952Y-63779047D01*
X106951904Y-63588571D02*
X106151904Y-63588571D01*
X106151904Y-63893333D01*
X106190000Y-63969523D01*
X106228095Y-64007619D01*
X106304285Y-64045714D01*
X106418571Y-64045714D01*
X106494761Y-64007619D01*
X106532857Y-63969523D01*
X106570952Y-63893333D01*
X106570952Y-63588571D01*
X106151904Y-64769523D02*
X106151904Y-64388571D01*
X106532857Y-64350476D01*
X106494761Y-64388571D01*
X106456666Y-64464761D01*
X106456666Y-64655238D01*
X106494761Y-64731428D01*
X106532857Y-64769523D01*
X106609047Y-64807619D01*
X106799523Y-64807619D01*
X106875714Y-64769523D01*
X106913809Y-64731428D01*
X106951904Y-64655238D01*
X106951904Y-64464761D01*
X106913809Y-64388571D01*
X106875714Y-64350476D01*
X106228095Y-65112380D02*
X106190000Y-65150476D01*
X106151904Y-65226666D01*
X106151904Y-65417142D01*
X106190000Y-65493333D01*
X106228095Y-65531428D01*
X106304285Y-65569523D01*
X106380476Y-65569523D01*
X106494761Y-65531428D01*
X106951904Y-65074285D01*
X106951904Y-65569523D01*
X111154285Y-91921904D02*
X111420952Y-91540952D01*
X111611428Y-91921904D02*
X111611428Y-91121904D01*
X111306666Y-91121904D01*
X111230476Y-91160000D01*
X111192380Y-91198095D01*
X111154285Y-91274285D01*
X111154285Y-91388571D01*
X111192380Y-91464761D01*
X111230476Y-91502857D01*
X111306666Y-91540952D01*
X111611428Y-91540952D01*
X110697142Y-91464761D02*
X110773333Y-91426666D01*
X110811428Y-91388571D01*
X110849523Y-91312380D01*
X110849523Y-91274285D01*
X110811428Y-91198095D01*
X110773333Y-91160000D01*
X110697142Y-91121904D01*
X110544761Y-91121904D01*
X110468571Y-91160000D01*
X110430476Y-91198095D01*
X110392380Y-91274285D01*
X110392380Y-91312380D01*
X110430476Y-91388571D01*
X110468571Y-91426666D01*
X110544761Y-91464761D01*
X110697142Y-91464761D01*
X110773333Y-91502857D01*
X110811428Y-91540952D01*
X110849523Y-91617142D01*
X110849523Y-91769523D01*
X110811428Y-91845714D01*
X110773333Y-91883809D01*
X110697142Y-91921904D01*
X110544761Y-91921904D01*
X110468571Y-91883809D01*
X110430476Y-91845714D01*
X110392380Y-91769523D01*
X110392380Y-91617142D01*
X110430476Y-91540952D01*
X110468571Y-91502857D01*
X110544761Y-91464761D01*
X109668571Y-91121904D02*
X110049523Y-91121904D01*
X110087619Y-91502857D01*
X110049523Y-91464761D01*
X109973333Y-91426666D01*
X109782857Y-91426666D01*
X109706666Y-91464761D01*
X109668571Y-91502857D01*
X109630476Y-91579047D01*
X109630476Y-91769523D01*
X109668571Y-91845714D01*
X109706666Y-91883809D01*
X109782857Y-91921904D01*
X109973333Y-91921904D01*
X110049523Y-91883809D01*
X110087619Y-91845714D01*
X100354285Y-91921904D02*
X100620952Y-91540952D01*
X100811428Y-91921904D02*
X100811428Y-91121904D01*
X100506666Y-91121904D01*
X100430476Y-91160000D01*
X100392380Y-91198095D01*
X100354285Y-91274285D01*
X100354285Y-91388571D01*
X100392380Y-91464761D01*
X100430476Y-91502857D01*
X100506666Y-91540952D01*
X100811428Y-91540952D01*
X99897142Y-91464761D02*
X99973333Y-91426666D01*
X100011428Y-91388571D01*
X100049523Y-91312380D01*
X100049523Y-91274285D01*
X100011428Y-91198095D01*
X99973333Y-91160000D01*
X99897142Y-91121904D01*
X99744761Y-91121904D01*
X99668571Y-91160000D01*
X99630476Y-91198095D01*
X99592380Y-91274285D01*
X99592380Y-91312380D01*
X99630476Y-91388571D01*
X99668571Y-91426666D01*
X99744761Y-91464761D01*
X99897142Y-91464761D01*
X99973333Y-91502857D01*
X100011428Y-91540952D01*
X100049523Y-91617142D01*
X100049523Y-91769523D01*
X100011428Y-91845714D01*
X99973333Y-91883809D01*
X99897142Y-91921904D01*
X99744761Y-91921904D01*
X99668571Y-91883809D01*
X99630476Y-91845714D01*
X99592380Y-91769523D01*
X99592380Y-91617142D01*
X99630476Y-91540952D01*
X99668571Y-91502857D01*
X99744761Y-91464761D01*
X98906666Y-91121904D02*
X99059047Y-91121904D01*
X99135238Y-91160000D01*
X99173333Y-91198095D01*
X99249523Y-91312380D01*
X99287619Y-91464761D01*
X99287619Y-91769523D01*
X99249523Y-91845714D01*
X99211428Y-91883809D01*
X99135238Y-91921904D01*
X98982857Y-91921904D01*
X98906666Y-91883809D01*
X98868571Y-91845714D01*
X98830476Y-91769523D01*
X98830476Y-91579047D01*
X98868571Y-91502857D01*
X98906666Y-91464761D01*
X98982857Y-91426666D01*
X99135238Y-91426666D01*
X99211428Y-91464761D01*
X99249523Y-91502857D01*
X99287619Y-91579047D01*
X89264285Y-91721904D02*
X89530952Y-91340952D01*
X89721428Y-91721904D02*
X89721428Y-90921904D01*
X89416666Y-90921904D01*
X89340476Y-90960000D01*
X89302380Y-90998095D01*
X89264285Y-91074285D01*
X89264285Y-91188571D01*
X89302380Y-91264761D01*
X89340476Y-91302857D01*
X89416666Y-91340952D01*
X89721428Y-91340952D01*
X88807142Y-91264761D02*
X88883333Y-91226666D01*
X88921428Y-91188571D01*
X88959523Y-91112380D01*
X88959523Y-91074285D01*
X88921428Y-90998095D01*
X88883333Y-90960000D01*
X88807142Y-90921904D01*
X88654761Y-90921904D01*
X88578571Y-90960000D01*
X88540476Y-90998095D01*
X88502380Y-91074285D01*
X88502380Y-91112380D01*
X88540476Y-91188571D01*
X88578571Y-91226666D01*
X88654761Y-91264761D01*
X88807142Y-91264761D01*
X88883333Y-91302857D01*
X88921428Y-91340952D01*
X88959523Y-91417142D01*
X88959523Y-91569523D01*
X88921428Y-91645714D01*
X88883333Y-91683809D01*
X88807142Y-91721904D01*
X88654761Y-91721904D01*
X88578571Y-91683809D01*
X88540476Y-91645714D01*
X88502380Y-91569523D01*
X88502380Y-91417142D01*
X88540476Y-91340952D01*
X88578571Y-91302857D01*
X88654761Y-91264761D01*
X88235714Y-90921904D02*
X87702380Y-90921904D01*
X88045238Y-91721904D01*
X111711904Y-59445714D02*
X111330952Y-59179047D01*
X111711904Y-58988571D02*
X110911904Y-58988571D01*
X110911904Y-59293333D01*
X110950000Y-59369523D01*
X110988095Y-59407619D01*
X111064285Y-59445714D01*
X111178571Y-59445714D01*
X111254761Y-59407619D01*
X111292857Y-59369523D01*
X111330952Y-59293333D01*
X111330952Y-58988571D01*
X110911904Y-60169523D02*
X110911904Y-59788571D01*
X111292857Y-59750476D01*
X111254761Y-59788571D01*
X111216666Y-59864761D01*
X111216666Y-60055238D01*
X111254761Y-60131428D01*
X111292857Y-60169523D01*
X111369047Y-60207619D01*
X111559523Y-60207619D01*
X111635714Y-60169523D01*
X111673809Y-60131428D01*
X111711904Y-60055238D01*
X111711904Y-59864761D01*
X111673809Y-59788571D01*
X111635714Y-59750476D01*
X111711904Y-60969523D02*
X111711904Y-60512380D01*
X111711904Y-60740952D02*
X110911904Y-60740952D01*
X111026190Y-60664761D01*
X111102380Y-60588571D01*
X111140476Y-60512380D01*
X110864285Y-87121904D02*
X111130952Y-86740952D01*
X111321428Y-87121904D02*
X111321428Y-86321904D01*
X111016666Y-86321904D01*
X110940476Y-86360000D01*
X110902380Y-86398095D01*
X110864285Y-86474285D01*
X110864285Y-86588571D01*
X110902380Y-86664761D01*
X110940476Y-86702857D01*
X111016666Y-86740952D01*
X111321428Y-86740952D01*
X110407142Y-86664761D02*
X110483333Y-86626666D01*
X110521428Y-86588571D01*
X110559523Y-86512380D01*
X110559523Y-86474285D01*
X110521428Y-86398095D01*
X110483333Y-86360000D01*
X110407142Y-86321904D01*
X110254761Y-86321904D01*
X110178571Y-86360000D01*
X110140476Y-86398095D01*
X110102380Y-86474285D01*
X110102380Y-86512380D01*
X110140476Y-86588571D01*
X110178571Y-86626666D01*
X110254761Y-86664761D01*
X110407142Y-86664761D01*
X110483333Y-86702857D01*
X110521428Y-86740952D01*
X110559523Y-86817142D01*
X110559523Y-86969523D01*
X110521428Y-87045714D01*
X110483333Y-87083809D01*
X110407142Y-87121904D01*
X110254761Y-87121904D01*
X110178571Y-87083809D01*
X110140476Y-87045714D01*
X110102380Y-86969523D01*
X110102380Y-86817142D01*
X110140476Y-86740952D01*
X110178571Y-86702857D01*
X110254761Y-86664761D01*
X109607142Y-86321904D02*
X109530952Y-86321904D01*
X109454761Y-86360000D01*
X109416666Y-86398095D01*
X109378571Y-86474285D01*
X109340476Y-86626666D01*
X109340476Y-86817142D01*
X109378571Y-86969523D01*
X109416666Y-87045714D01*
X109454761Y-87083809D01*
X109530952Y-87121904D01*
X109607142Y-87121904D01*
X109683333Y-87083809D01*
X109721428Y-87045714D01*
X109759523Y-86969523D01*
X109797619Y-86817142D01*
X109797619Y-86626666D01*
X109759523Y-86474285D01*
X109721428Y-86398095D01*
X109683333Y-86360000D01*
X109607142Y-86321904D01*
X110864285Y-85921904D02*
X111130952Y-85540952D01*
X111321428Y-85921904D02*
X111321428Y-85121904D01*
X111016666Y-85121904D01*
X110940476Y-85160000D01*
X110902380Y-85198095D01*
X110864285Y-85274285D01*
X110864285Y-85388571D01*
X110902380Y-85464761D01*
X110940476Y-85502857D01*
X111016666Y-85540952D01*
X111321428Y-85540952D01*
X110597619Y-85121904D02*
X110064285Y-85121904D01*
X110407142Y-85921904D01*
X109416666Y-85388571D02*
X109416666Y-85921904D01*
X109607142Y-85083809D02*
X109797619Y-85655238D01*
X109302380Y-85655238D01*
X112864285Y-82121904D02*
X113130952Y-81740952D01*
X113321428Y-82121904D02*
X113321428Y-81321904D01*
X113016666Y-81321904D01*
X112940476Y-81360000D01*
X112902380Y-81398095D01*
X112864285Y-81474285D01*
X112864285Y-81588571D01*
X112902380Y-81664761D01*
X112940476Y-81702857D01*
X113016666Y-81740952D01*
X113321428Y-81740952D01*
X112178571Y-81321904D02*
X112330952Y-81321904D01*
X112407142Y-81360000D01*
X112445238Y-81398095D01*
X112521428Y-81512380D01*
X112559523Y-81664761D01*
X112559523Y-81969523D01*
X112521428Y-82045714D01*
X112483333Y-82083809D01*
X112407142Y-82121904D01*
X112254761Y-82121904D01*
X112178571Y-82083809D01*
X112140476Y-82045714D01*
X112102380Y-81969523D01*
X112102380Y-81779047D01*
X112140476Y-81702857D01*
X112178571Y-81664761D01*
X112254761Y-81626666D01*
X112407142Y-81626666D01*
X112483333Y-81664761D01*
X112521428Y-81702857D01*
X112559523Y-81779047D01*
X111835714Y-81321904D02*
X111302380Y-81321904D01*
X111645238Y-82121904D01*
X109311904Y-82645714D02*
X108930952Y-82379047D01*
X109311904Y-82188571D02*
X108511904Y-82188571D01*
X108511904Y-82493333D01*
X108550000Y-82569523D01*
X108588095Y-82607619D01*
X108664285Y-82645714D01*
X108778571Y-82645714D01*
X108854761Y-82607619D01*
X108892857Y-82569523D01*
X108930952Y-82493333D01*
X108930952Y-82188571D01*
X108511904Y-82912380D02*
X108511904Y-83445714D01*
X109311904Y-83102857D01*
X108511904Y-84131428D02*
X108511904Y-83750476D01*
X108892857Y-83712380D01*
X108854761Y-83750476D01*
X108816666Y-83826666D01*
X108816666Y-84017142D01*
X108854761Y-84093333D01*
X108892857Y-84131428D01*
X108969047Y-84169523D01*
X109159523Y-84169523D01*
X109235714Y-84131428D01*
X109273809Y-84093333D01*
X109311904Y-84017142D01*
X109311904Y-83826666D01*
X109273809Y-83750476D01*
X109235714Y-83712380D01*
X97864285Y-86921904D02*
X98130952Y-86540952D01*
X98321428Y-86921904D02*
X98321428Y-86121904D01*
X98016666Y-86121904D01*
X97940476Y-86160000D01*
X97902380Y-86198095D01*
X97864285Y-86274285D01*
X97864285Y-86388571D01*
X97902380Y-86464761D01*
X97940476Y-86502857D01*
X98016666Y-86540952D01*
X98321428Y-86540952D01*
X97597619Y-86121904D02*
X97064285Y-86121904D01*
X97407142Y-86921904D01*
X96835714Y-86121904D02*
X96302380Y-86121904D01*
X96645238Y-86921904D01*
X117911904Y-61715714D02*
X117530952Y-61449047D01*
X117911904Y-61258571D02*
X117111904Y-61258571D01*
X117111904Y-61563333D01*
X117150000Y-61639523D01*
X117188095Y-61677619D01*
X117264285Y-61715714D01*
X117378571Y-61715714D01*
X117454761Y-61677619D01*
X117492857Y-61639523D01*
X117530952Y-61563333D01*
X117530952Y-61258571D01*
X117111904Y-62439523D02*
X117111904Y-62058571D01*
X117492857Y-62020476D01*
X117454761Y-62058571D01*
X117416666Y-62134761D01*
X117416666Y-62325238D01*
X117454761Y-62401428D01*
X117492857Y-62439523D01*
X117569047Y-62477619D01*
X117759523Y-62477619D01*
X117835714Y-62439523D01*
X117873809Y-62401428D01*
X117911904Y-62325238D01*
X117911904Y-62134761D01*
X117873809Y-62058571D01*
X117835714Y-62020476D01*
X117111904Y-62972857D02*
X117111904Y-63049047D01*
X117150000Y-63125238D01*
X117188095Y-63163333D01*
X117264285Y-63201428D01*
X117416666Y-63239523D01*
X117607142Y-63239523D01*
X117759523Y-63201428D01*
X117835714Y-63163333D01*
X117873809Y-63125238D01*
X117911904Y-63049047D01*
X117911904Y-62972857D01*
X117873809Y-62896666D01*
X117835714Y-62858571D01*
X117759523Y-62820476D01*
X117607142Y-62782380D01*
X117416666Y-62782380D01*
X117264285Y-62820476D01*
X117188095Y-62858571D01*
X117150000Y-62896666D01*
X117111904Y-62972857D01*
X88664285Y-66521904D02*
X88930952Y-66140952D01*
X89121428Y-66521904D02*
X89121428Y-65721904D01*
X88816666Y-65721904D01*
X88740476Y-65760000D01*
X88702380Y-65798095D01*
X88664285Y-65874285D01*
X88664285Y-65988571D01*
X88702380Y-66064761D01*
X88740476Y-66102857D01*
X88816666Y-66140952D01*
X89121428Y-66140952D01*
X87940476Y-65721904D02*
X88321428Y-65721904D01*
X88359523Y-66102857D01*
X88321428Y-66064761D01*
X88245238Y-66026666D01*
X88054761Y-66026666D01*
X87978571Y-66064761D01*
X87940476Y-66102857D01*
X87902380Y-66179047D01*
X87902380Y-66369523D01*
X87940476Y-66445714D01*
X87978571Y-66483809D01*
X88054761Y-66521904D01*
X88245238Y-66521904D01*
X88321428Y-66483809D01*
X88359523Y-66445714D01*
X87445238Y-66064761D02*
X87521428Y-66026666D01*
X87559523Y-65988571D01*
X87597619Y-65912380D01*
X87597619Y-65874285D01*
X87559523Y-65798095D01*
X87521428Y-65760000D01*
X87445238Y-65721904D01*
X87292857Y-65721904D01*
X87216666Y-65760000D01*
X87178571Y-65798095D01*
X87140476Y-65874285D01*
X87140476Y-65912380D01*
X87178571Y-65988571D01*
X87216666Y-66026666D01*
X87292857Y-66064761D01*
X87445238Y-66064761D01*
X87521428Y-66102857D01*
X87559523Y-66140952D01*
X87597619Y-66217142D01*
X87597619Y-66369523D01*
X87559523Y-66445714D01*
X87521428Y-66483809D01*
X87445238Y-66521904D01*
X87292857Y-66521904D01*
X87216666Y-66483809D01*
X87178571Y-66445714D01*
X87140476Y-66369523D01*
X87140476Y-66217142D01*
X87178571Y-66140952D01*
X87216666Y-66102857D01*
X87292857Y-66064761D01*
X94694285Y-60356714D02*
X94732380Y-60394809D01*
X94846666Y-60432904D01*
X94922857Y-60432904D01*
X95037142Y-60394809D01*
X95113333Y-60318619D01*
X95151428Y-60242428D01*
X95189523Y-60090047D01*
X95189523Y-59975761D01*
X95151428Y-59823380D01*
X95113333Y-59747190D01*
X95037142Y-59671000D01*
X94922857Y-59632904D01*
X94846666Y-59632904D01*
X94732380Y-59671000D01*
X94694285Y-59709095D01*
X94008571Y-59899571D02*
X94008571Y-60432904D01*
X94199047Y-59594809D02*
X94389523Y-60166238D01*
X93894285Y-60166238D01*
X93627619Y-59709095D02*
X93589523Y-59671000D01*
X93513333Y-59632904D01*
X93322857Y-59632904D01*
X93246666Y-59671000D01*
X93208571Y-59709095D01*
X93170476Y-59785285D01*
X93170476Y-59861476D01*
X93208571Y-59975761D01*
X93665714Y-60432904D01*
X93170476Y-60432904D01*
X85064285Y-73645714D02*
X85102380Y-73683809D01*
X85216666Y-73721904D01*
X85292857Y-73721904D01*
X85407142Y-73683809D01*
X85483333Y-73607619D01*
X85521428Y-73531428D01*
X85559523Y-73379047D01*
X85559523Y-73264761D01*
X85521428Y-73112380D01*
X85483333Y-73036190D01*
X85407142Y-72960000D01*
X85292857Y-72921904D01*
X85216666Y-72921904D01*
X85102380Y-72960000D01*
X85064285Y-72998095D01*
X84340476Y-72921904D02*
X84721428Y-72921904D01*
X84759523Y-73302857D01*
X84721428Y-73264761D01*
X84645238Y-73226666D01*
X84454761Y-73226666D01*
X84378571Y-73264761D01*
X84340476Y-73302857D01*
X84302380Y-73379047D01*
X84302380Y-73569523D01*
X84340476Y-73645714D01*
X84378571Y-73683809D01*
X84454761Y-73721904D01*
X84645238Y-73721904D01*
X84721428Y-73683809D01*
X84759523Y-73645714D01*
X83578571Y-72921904D02*
X83959523Y-72921904D01*
X83997619Y-73302857D01*
X83959523Y-73264761D01*
X83883333Y-73226666D01*
X83692857Y-73226666D01*
X83616666Y-73264761D01*
X83578571Y-73302857D01*
X83540476Y-73379047D01*
X83540476Y-73569523D01*
X83578571Y-73645714D01*
X83616666Y-73683809D01*
X83692857Y-73721904D01*
X83883333Y-73721904D01*
X83959523Y-73683809D01*
X83997619Y-73645714D01*
X128864285Y-82645714D02*
X128902380Y-82683809D01*
X129016666Y-82721904D01*
X129092857Y-82721904D01*
X129207142Y-82683809D01*
X129283333Y-82607619D01*
X129321428Y-82531428D01*
X129359523Y-82379047D01*
X129359523Y-82264761D01*
X129321428Y-82112380D01*
X129283333Y-82036190D01*
X129207142Y-81960000D01*
X129092857Y-81921904D01*
X129016666Y-81921904D01*
X128902380Y-81960000D01*
X128864285Y-81998095D01*
X128140476Y-81921904D02*
X128521428Y-81921904D01*
X128559523Y-82302857D01*
X128521428Y-82264761D01*
X128445238Y-82226666D01*
X128254761Y-82226666D01*
X128178571Y-82264761D01*
X128140476Y-82302857D01*
X128102380Y-82379047D01*
X128102380Y-82569523D01*
X128140476Y-82645714D01*
X128178571Y-82683809D01*
X128254761Y-82721904D01*
X128445238Y-82721904D01*
X128521428Y-82683809D01*
X128559523Y-82645714D01*
X127721428Y-82721904D02*
X127569047Y-82721904D01*
X127492857Y-82683809D01*
X127454761Y-82645714D01*
X127378571Y-82531428D01*
X127340476Y-82379047D01*
X127340476Y-82074285D01*
X127378571Y-81998095D01*
X127416666Y-81960000D01*
X127492857Y-81921904D01*
X127645238Y-81921904D01*
X127721428Y-81960000D01*
X127759523Y-81998095D01*
X127797619Y-82074285D01*
X127797619Y-82264761D01*
X127759523Y-82340952D01*
X127721428Y-82379047D01*
X127645238Y-82417142D01*
X127492857Y-82417142D01*
X127416666Y-82379047D01*
X127378571Y-82340952D01*
X127340476Y-82264761D01*
X120235714Y-70245714D02*
X120273809Y-70207619D01*
X120311904Y-70093333D01*
X120311904Y-70017142D01*
X120273809Y-69902857D01*
X120197619Y-69826666D01*
X120121428Y-69788571D01*
X119969047Y-69750476D01*
X119854761Y-69750476D01*
X119702380Y-69788571D01*
X119626190Y-69826666D01*
X119550000Y-69902857D01*
X119511904Y-70017142D01*
X119511904Y-70093333D01*
X119550000Y-70207619D01*
X119588095Y-70245714D01*
X119511904Y-70969523D02*
X119511904Y-70588571D01*
X119892857Y-70550476D01*
X119854761Y-70588571D01*
X119816666Y-70664761D01*
X119816666Y-70855238D01*
X119854761Y-70931428D01*
X119892857Y-70969523D01*
X119969047Y-71007619D01*
X120159523Y-71007619D01*
X120235714Y-70969523D01*
X120273809Y-70931428D01*
X120311904Y-70855238D01*
X120311904Y-70664761D01*
X120273809Y-70588571D01*
X120235714Y-70550476D01*
X120311904Y-71769523D02*
X120311904Y-71312380D01*
X120311904Y-71540952D02*
X119511904Y-71540952D01*
X119626190Y-71464761D01*
X119702380Y-71388571D01*
X119740476Y-71312380D01*
X110684285Y-75845714D02*
X110722380Y-75883809D01*
X110836666Y-75921904D01*
X110912857Y-75921904D01*
X111027142Y-75883809D01*
X111103333Y-75807619D01*
X111141428Y-75731428D01*
X111179523Y-75579047D01*
X111179523Y-75464761D01*
X111141428Y-75312380D01*
X111103333Y-75236190D01*
X111027142Y-75160000D01*
X110912857Y-75121904D01*
X110836666Y-75121904D01*
X110722380Y-75160000D01*
X110684285Y-75198095D01*
X109960476Y-75121904D02*
X110341428Y-75121904D01*
X110379523Y-75502857D01*
X110341428Y-75464761D01*
X110265238Y-75426666D01*
X110074761Y-75426666D01*
X109998571Y-75464761D01*
X109960476Y-75502857D01*
X109922380Y-75579047D01*
X109922380Y-75769523D01*
X109960476Y-75845714D01*
X109998571Y-75883809D01*
X110074761Y-75921904D01*
X110265238Y-75921904D01*
X110341428Y-75883809D01*
X110379523Y-75845714D01*
X109655714Y-75121904D02*
X109160476Y-75121904D01*
X109427142Y-75426666D01*
X109312857Y-75426666D01*
X109236666Y-75464761D01*
X109198571Y-75502857D01*
X109160476Y-75579047D01*
X109160476Y-75769523D01*
X109198571Y-75845714D01*
X109236666Y-75883809D01*
X109312857Y-75921904D01*
X109541428Y-75921904D01*
X109617619Y-75883809D01*
X109655714Y-75845714D01*
X128864285Y-91245714D02*
X128902380Y-91283809D01*
X129016666Y-91321904D01*
X129092857Y-91321904D01*
X129207142Y-91283809D01*
X129283333Y-91207619D01*
X129321428Y-91131428D01*
X129359523Y-90979047D01*
X129359523Y-90864761D01*
X129321428Y-90712380D01*
X129283333Y-90636190D01*
X129207142Y-90560000D01*
X129092857Y-90521904D01*
X129016666Y-90521904D01*
X128902380Y-90560000D01*
X128864285Y-90598095D01*
X128178571Y-90521904D02*
X128330952Y-90521904D01*
X128407142Y-90560000D01*
X128445238Y-90598095D01*
X128521428Y-90712380D01*
X128559523Y-90864761D01*
X128559523Y-91169523D01*
X128521428Y-91245714D01*
X128483333Y-91283809D01*
X128407142Y-91321904D01*
X128254761Y-91321904D01*
X128178571Y-91283809D01*
X128140476Y-91245714D01*
X128102380Y-91169523D01*
X128102380Y-90979047D01*
X128140476Y-90902857D01*
X128178571Y-90864761D01*
X128254761Y-90826666D01*
X128407142Y-90826666D01*
X128483333Y-90864761D01*
X128521428Y-90902857D01*
X128559523Y-90979047D01*
X127645238Y-90864761D02*
X127721428Y-90826666D01*
X127759523Y-90788571D01*
X127797619Y-90712380D01*
X127797619Y-90674285D01*
X127759523Y-90598095D01*
X127721428Y-90560000D01*
X127645238Y-90521904D01*
X127492857Y-90521904D01*
X127416666Y-90560000D01*
X127378571Y-90598095D01*
X127340476Y-90674285D01*
X127340476Y-90712380D01*
X127378571Y-90788571D01*
X127416666Y-90826666D01*
X127492857Y-90864761D01*
X127645238Y-90864761D01*
X127721428Y-90902857D01*
X127759523Y-90940952D01*
X127797619Y-91017142D01*
X127797619Y-91169523D01*
X127759523Y-91245714D01*
X127721428Y-91283809D01*
X127645238Y-91321904D01*
X127492857Y-91321904D01*
X127416666Y-91283809D01*
X127378571Y-91245714D01*
X127340476Y-91169523D01*
X127340476Y-91017142D01*
X127378571Y-90940952D01*
X127416666Y-90902857D01*
X127492857Y-90864761D01*
X101454285Y-77645714D02*
X101492380Y-77683809D01*
X101606666Y-77721904D01*
X101682857Y-77721904D01*
X101797142Y-77683809D01*
X101873333Y-77607619D01*
X101911428Y-77531428D01*
X101949523Y-77379047D01*
X101949523Y-77264761D01*
X101911428Y-77112380D01*
X101873333Y-77036190D01*
X101797142Y-76960000D01*
X101682857Y-76921904D01*
X101606666Y-76921904D01*
X101492380Y-76960000D01*
X101454285Y-76998095D01*
X100730476Y-76921904D02*
X101111428Y-76921904D01*
X101149523Y-77302857D01*
X101111428Y-77264761D01*
X101035238Y-77226666D01*
X100844761Y-77226666D01*
X100768571Y-77264761D01*
X100730476Y-77302857D01*
X100692380Y-77379047D01*
X100692380Y-77569523D01*
X100730476Y-77645714D01*
X100768571Y-77683809D01*
X100844761Y-77721904D01*
X101035238Y-77721904D01*
X101111428Y-77683809D01*
X101149523Y-77645714D01*
X100006666Y-76921904D02*
X100159047Y-76921904D01*
X100235238Y-76960000D01*
X100273333Y-76998095D01*
X100349523Y-77112380D01*
X100387619Y-77264761D01*
X100387619Y-77569523D01*
X100349523Y-77645714D01*
X100311428Y-77683809D01*
X100235238Y-77721904D01*
X100082857Y-77721904D01*
X100006666Y-77683809D01*
X99968571Y-77645714D01*
X99930476Y-77569523D01*
X99930476Y-77379047D01*
X99968571Y-77302857D01*
X100006666Y-77264761D01*
X100082857Y-77226666D01*
X100235238Y-77226666D01*
X100311428Y-77264761D01*
X100349523Y-77302857D01*
X100387619Y-77379047D01*
X102604285Y-97645714D02*
X102642380Y-97683809D01*
X102756666Y-97721904D01*
X102832857Y-97721904D01*
X102947142Y-97683809D01*
X103023333Y-97607619D01*
X103061428Y-97531428D01*
X103099523Y-97379047D01*
X103099523Y-97264761D01*
X103061428Y-97112380D01*
X103023333Y-97036190D01*
X102947142Y-96960000D01*
X102832857Y-96921904D01*
X102756666Y-96921904D01*
X102642380Y-96960000D01*
X102604285Y-96998095D01*
X102337619Y-96921904D02*
X101804285Y-96921904D01*
X102147142Y-97721904D01*
X101537619Y-96998095D02*
X101499523Y-96960000D01*
X101423333Y-96921904D01*
X101232857Y-96921904D01*
X101156666Y-96960000D01*
X101118571Y-96998095D01*
X101080476Y-97074285D01*
X101080476Y-97150476D01*
X101118571Y-97264761D01*
X101575714Y-97721904D01*
X101080476Y-97721904D01*
X104854285Y-60356714D02*
X104892380Y-60394809D01*
X105006666Y-60432904D01*
X105082857Y-60432904D01*
X105197142Y-60394809D01*
X105273333Y-60318619D01*
X105311428Y-60242428D01*
X105349523Y-60090047D01*
X105349523Y-59975761D01*
X105311428Y-59823380D01*
X105273333Y-59747190D01*
X105197142Y-59671000D01*
X105082857Y-59632904D01*
X105006666Y-59632904D01*
X104892380Y-59671000D01*
X104854285Y-59709095D01*
X104168571Y-59899571D02*
X104168571Y-60432904D01*
X104359047Y-59594809D02*
X104549523Y-60166238D01*
X104054285Y-60166238D01*
X103597142Y-59632904D02*
X103520952Y-59632904D01*
X103444761Y-59671000D01*
X103406666Y-59709095D01*
X103368571Y-59785285D01*
X103330476Y-59937666D01*
X103330476Y-60128142D01*
X103368571Y-60280523D01*
X103406666Y-60356714D01*
X103444761Y-60394809D01*
X103520952Y-60432904D01*
X103597142Y-60432904D01*
X103673333Y-60394809D01*
X103711428Y-60356714D01*
X103749523Y-60280523D01*
X103787619Y-60128142D01*
X103787619Y-59937666D01*
X103749523Y-59785285D01*
X103711428Y-59709095D01*
X103673333Y-59671000D01*
X103597142Y-59632904D01*
X114234285Y-91845714D02*
X114272380Y-91883809D01*
X114386666Y-91921904D01*
X114462857Y-91921904D01*
X114577142Y-91883809D01*
X114653333Y-91807619D01*
X114691428Y-91731428D01*
X114729523Y-91579047D01*
X114729523Y-91464761D01*
X114691428Y-91312380D01*
X114653333Y-91236190D01*
X114577142Y-91160000D01*
X114462857Y-91121904D01*
X114386666Y-91121904D01*
X114272380Y-91160000D01*
X114234285Y-91198095D01*
X113548571Y-91121904D02*
X113700952Y-91121904D01*
X113777142Y-91160000D01*
X113815238Y-91198095D01*
X113891428Y-91312380D01*
X113929523Y-91464761D01*
X113929523Y-91769523D01*
X113891428Y-91845714D01*
X113853333Y-91883809D01*
X113777142Y-91921904D01*
X113624761Y-91921904D01*
X113548571Y-91883809D01*
X113510476Y-91845714D01*
X113472380Y-91769523D01*
X113472380Y-91579047D01*
X113510476Y-91502857D01*
X113548571Y-91464761D01*
X113624761Y-91426666D01*
X113777142Y-91426666D01*
X113853333Y-91464761D01*
X113891428Y-91502857D01*
X113929523Y-91579047D01*
X113091428Y-91921904D02*
X112939047Y-91921904D01*
X112862857Y-91883809D01*
X112824761Y-91845714D01*
X112748571Y-91731428D01*
X112710476Y-91579047D01*
X112710476Y-91274285D01*
X112748571Y-91198095D01*
X112786666Y-91160000D01*
X112862857Y-91121904D01*
X113015238Y-91121904D01*
X113091428Y-91160000D01*
X113129523Y-91198095D01*
X113167619Y-91274285D01*
X113167619Y-91464761D01*
X113129523Y-91540952D01*
X113091428Y-91579047D01*
X113015238Y-91617142D01*
X112862857Y-91617142D01*
X112786666Y-91579047D01*
X112748571Y-91540952D01*
X112710476Y-91464761D01*
X103424285Y-91845714D02*
X103462380Y-91883809D01*
X103576666Y-91921904D01*
X103652857Y-91921904D01*
X103767142Y-91883809D01*
X103843333Y-91807619D01*
X103881428Y-91731428D01*
X103919523Y-91579047D01*
X103919523Y-91464761D01*
X103881428Y-91312380D01*
X103843333Y-91236190D01*
X103767142Y-91160000D01*
X103652857Y-91121904D01*
X103576666Y-91121904D01*
X103462380Y-91160000D01*
X103424285Y-91198095D01*
X103157619Y-91121904D02*
X102624285Y-91121904D01*
X102967142Y-91921904D01*
X102167142Y-91121904D02*
X102090952Y-91121904D01*
X102014761Y-91160000D01*
X101976666Y-91198095D01*
X101938571Y-91274285D01*
X101900476Y-91426666D01*
X101900476Y-91617142D01*
X101938571Y-91769523D01*
X101976666Y-91845714D01*
X102014761Y-91883809D01*
X102090952Y-91921904D01*
X102167142Y-91921904D01*
X102243333Y-91883809D01*
X102281428Y-91845714D01*
X102319523Y-91769523D01*
X102357619Y-91617142D01*
X102357619Y-91426666D01*
X102319523Y-91274285D01*
X102281428Y-91198095D01*
X102243333Y-91160000D01*
X102167142Y-91121904D01*
X92894285Y-91645714D02*
X92932380Y-91683809D01*
X93046666Y-91721904D01*
X93122857Y-91721904D01*
X93237142Y-91683809D01*
X93313333Y-91607619D01*
X93351428Y-91531428D01*
X93389523Y-91379047D01*
X93389523Y-91264761D01*
X93351428Y-91112380D01*
X93313333Y-91036190D01*
X93237142Y-90960000D01*
X93122857Y-90921904D01*
X93046666Y-90921904D01*
X92932380Y-90960000D01*
X92894285Y-90998095D01*
X92627619Y-90921904D02*
X92094285Y-90921904D01*
X92437142Y-91721904D01*
X91370476Y-91721904D02*
X91827619Y-91721904D01*
X91599047Y-91721904D02*
X91599047Y-90921904D01*
X91675238Y-91036190D01*
X91751428Y-91112380D01*
X91827619Y-91150476D01*
X109934285Y-60356714D02*
X109972380Y-60394809D01*
X110086666Y-60432904D01*
X110162857Y-60432904D01*
X110277142Y-60394809D01*
X110353333Y-60318619D01*
X110391428Y-60242428D01*
X110429523Y-60090047D01*
X110429523Y-59975761D01*
X110391428Y-59823380D01*
X110353333Y-59747190D01*
X110277142Y-59671000D01*
X110162857Y-59632904D01*
X110086666Y-59632904D01*
X109972380Y-59671000D01*
X109934285Y-59709095D01*
X109667619Y-59632904D02*
X109172380Y-59632904D01*
X109439047Y-59937666D01*
X109324761Y-59937666D01*
X109248571Y-59975761D01*
X109210476Y-60013857D01*
X109172380Y-60090047D01*
X109172380Y-60280523D01*
X109210476Y-60356714D01*
X109248571Y-60394809D01*
X109324761Y-60432904D01*
X109553333Y-60432904D01*
X109629523Y-60394809D01*
X109667619Y-60356714D01*
X108791428Y-60432904D02*
X108639047Y-60432904D01*
X108562857Y-60394809D01*
X108524761Y-60356714D01*
X108448571Y-60242428D01*
X108410476Y-60090047D01*
X108410476Y-59785285D01*
X108448571Y-59709095D01*
X108486666Y-59671000D01*
X108562857Y-59632904D01*
X108715238Y-59632904D01*
X108791428Y-59671000D01*
X108829523Y-59709095D01*
X108867619Y-59785285D01*
X108867619Y-59975761D01*
X108829523Y-60051952D01*
X108791428Y-60090047D01*
X108715238Y-60128142D01*
X108562857Y-60128142D01*
X108486666Y-60090047D01*
X108448571Y-60051952D01*
X108410476Y-59975761D01*
X125544285Y-99645714D02*
X125582380Y-99683809D01*
X125696666Y-99721904D01*
X125772857Y-99721904D01*
X125887142Y-99683809D01*
X125963333Y-99607619D01*
X126001428Y-99531428D01*
X126039523Y-99379047D01*
X126039523Y-99264761D01*
X126001428Y-99112380D01*
X125963333Y-99036190D01*
X125887142Y-98960000D01*
X125772857Y-98921904D01*
X125696666Y-98921904D01*
X125582380Y-98960000D01*
X125544285Y-98998095D01*
X125277619Y-98921904D02*
X124744285Y-98921904D01*
X125087142Y-99721904D01*
X124515714Y-98921904D02*
X124020476Y-98921904D01*
X124287142Y-99226666D01*
X124172857Y-99226666D01*
X124096666Y-99264761D01*
X124058571Y-99302857D01*
X124020476Y-99379047D01*
X124020476Y-99569523D01*
X124058571Y-99645714D01*
X124096666Y-99683809D01*
X124172857Y-99721904D01*
X124401428Y-99721904D01*
X124477619Y-99683809D01*
X124515714Y-99645714D01*
X128264285Y-90045714D02*
X128302380Y-90083809D01*
X128416666Y-90121904D01*
X128492857Y-90121904D01*
X128607142Y-90083809D01*
X128683333Y-90007619D01*
X128721428Y-89931428D01*
X128759523Y-89779047D01*
X128759523Y-89664761D01*
X128721428Y-89512380D01*
X128683333Y-89436190D01*
X128607142Y-89360000D01*
X128492857Y-89321904D01*
X128416666Y-89321904D01*
X128302380Y-89360000D01*
X128264285Y-89398095D01*
X127578571Y-89321904D02*
X127730952Y-89321904D01*
X127807142Y-89360000D01*
X127845238Y-89398095D01*
X127921428Y-89512380D01*
X127959523Y-89664761D01*
X127959523Y-89969523D01*
X127921428Y-90045714D01*
X127883333Y-90083809D01*
X127807142Y-90121904D01*
X127654761Y-90121904D01*
X127578571Y-90083809D01*
X127540476Y-90045714D01*
X127502380Y-89969523D01*
X127502380Y-89779047D01*
X127540476Y-89702857D01*
X127578571Y-89664761D01*
X127654761Y-89626666D01*
X127807142Y-89626666D01*
X127883333Y-89664761D01*
X127921428Y-89702857D01*
X127959523Y-89779047D01*
X126816666Y-89321904D02*
X126969047Y-89321904D01*
X127045238Y-89360000D01*
X127083333Y-89398095D01*
X127159523Y-89512380D01*
X127197619Y-89664761D01*
X127197619Y-89969523D01*
X127159523Y-90045714D01*
X127121428Y-90083809D01*
X127045238Y-90121904D01*
X126892857Y-90121904D01*
X126816666Y-90083809D01*
X126778571Y-90045714D01*
X126740476Y-89969523D01*
X126740476Y-89779047D01*
X126778571Y-89702857D01*
X126816666Y-89664761D01*
X126892857Y-89626666D01*
X127045238Y-89626666D01*
X127121428Y-89664761D01*
X127159523Y-89702857D01*
X127197619Y-89779047D01*
X128264285Y-81445714D02*
X128302380Y-81483809D01*
X128416666Y-81521904D01*
X128492857Y-81521904D01*
X128607142Y-81483809D01*
X128683333Y-81407619D01*
X128721428Y-81331428D01*
X128759523Y-81179047D01*
X128759523Y-81064761D01*
X128721428Y-80912380D01*
X128683333Y-80836190D01*
X128607142Y-80760000D01*
X128492857Y-80721904D01*
X128416666Y-80721904D01*
X128302380Y-80760000D01*
X128264285Y-80798095D01*
X127540476Y-80721904D02*
X127921428Y-80721904D01*
X127959523Y-81102857D01*
X127921428Y-81064761D01*
X127845238Y-81026666D01*
X127654761Y-81026666D01*
X127578571Y-81064761D01*
X127540476Y-81102857D01*
X127502380Y-81179047D01*
X127502380Y-81369523D01*
X127540476Y-81445714D01*
X127578571Y-81483809D01*
X127654761Y-81521904D01*
X127845238Y-81521904D01*
X127921428Y-81483809D01*
X127959523Y-81445714D01*
X127045238Y-81064761D02*
X127121428Y-81026666D01*
X127159523Y-80988571D01*
X127197619Y-80912380D01*
X127197619Y-80874285D01*
X127159523Y-80798095D01*
X127121428Y-80760000D01*
X127045238Y-80721904D01*
X126892857Y-80721904D01*
X126816666Y-80760000D01*
X126778571Y-80798095D01*
X126740476Y-80874285D01*
X126740476Y-80912380D01*
X126778571Y-80988571D01*
X126816666Y-81026666D01*
X126892857Y-81064761D01*
X127045238Y-81064761D01*
X127121428Y-81102857D01*
X127159523Y-81140952D01*
X127197619Y-81217142D01*
X127197619Y-81369523D01*
X127159523Y-81445714D01*
X127121428Y-81483809D01*
X127045238Y-81521904D01*
X126892857Y-81521904D01*
X126816666Y-81483809D01*
X126778571Y-81445714D01*
X126740476Y-81369523D01*
X126740476Y-81217142D01*
X126778571Y-81140952D01*
X126816666Y-81102857D01*
X126892857Y-81064761D01*
X97064285Y-83045714D02*
X97102380Y-83083809D01*
X97216666Y-83121904D01*
X97292857Y-83121904D01*
X97407142Y-83083809D01*
X97483333Y-83007619D01*
X97521428Y-82931428D01*
X97559523Y-82779047D01*
X97559523Y-82664761D01*
X97521428Y-82512380D01*
X97483333Y-82436190D01*
X97407142Y-82360000D01*
X97292857Y-82321904D01*
X97216666Y-82321904D01*
X97102380Y-82360000D01*
X97064285Y-82398095D01*
X96378571Y-82321904D02*
X96530952Y-82321904D01*
X96607142Y-82360000D01*
X96645238Y-82398095D01*
X96721428Y-82512380D01*
X96759523Y-82664761D01*
X96759523Y-82969523D01*
X96721428Y-83045714D01*
X96683333Y-83083809D01*
X96607142Y-83121904D01*
X96454761Y-83121904D01*
X96378571Y-83083809D01*
X96340476Y-83045714D01*
X96302380Y-82969523D01*
X96302380Y-82779047D01*
X96340476Y-82702857D01*
X96378571Y-82664761D01*
X96454761Y-82626666D01*
X96607142Y-82626666D01*
X96683333Y-82664761D01*
X96721428Y-82702857D01*
X96759523Y-82779047D01*
X95540476Y-83121904D02*
X95997619Y-83121904D01*
X95769047Y-83121904D02*
X95769047Y-82321904D01*
X95845238Y-82436190D01*
X95921428Y-82512380D01*
X95997619Y-82550476D01*
X115014285Y-60356714D02*
X115052380Y-60394809D01*
X115166666Y-60432904D01*
X115242857Y-60432904D01*
X115357142Y-60394809D01*
X115433333Y-60318619D01*
X115471428Y-60242428D01*
X115509523Y-60090047D01*
X115509523Y-59975761D01*
X115471428Y-59823380D01*
X115433333Y-59747190D01*
X115357142Y-59671000D01*
X115242857Y-59632904D01*
X115166666Y-59632904D01*
X115052380Y-59671000D01*
X115014285Y-59709095D01*
X114747619Y-59632904D02*
X114252380Y-59632904D01*
X114519047Y-59937666D01*
X114404761Y-59937666D01*
X114328571Y-59975761D01*
X114290476Y-60013857D01*
X114252380Y-60090047D01*
X114252380Y-60280523D01*
X114290476Y-60356714D01*
X114328571Y-60394809D01*
X114404761Y-60432904D01*
X114633333Y-60432904D01*
X114709523Y-60394809D01*
X114747619Y-60356714D01*
X113795238Y-59975761D02*
X113871428Y-59937666D01*
X113909523Y-59899571D01*
X113947619Y-59823380D01*
X113947619Y-59785285D01*
X113909523Y-59709095D01*
X113871428Y-59671000D01*
X113795238Y-59632904D01*
X113642857Y-59632904D01*
X113566666Y-59671000D01*
X113528571Y-59709095D01*
X113490476Y-59785285D01*
X113490476Y-59823380D01*
X113528571Y-59899571D01*
X113566666Y-59937666D01*
X113642857Y-59975761D01*
X113795238Y-59975761D01*
X113871428Y-60013857D01*
X113909523Y-60051952D01*
X113947619Y-60128142D01*
X113947619Y-60280523D01*
X113909523Y-60356714D01*
X113871428Y-60394809D01*
X113795238Y-60432904D01*
X113642857Y-60432904D01*
X113566666Y-60394809D01*
X113528571Y-60356714D01*
X113490476Y-60280523D01*
X113490476Y-60128142D01*
X113528571Y-60051952D01*
X113566666Y-60013857D01*
X113642857Y-59975761D01*
X114235714Y-85645714D02*
X114273809Y-85607619D01*
X114311904Y-85493333D01*
X114311904Y-85417142D01*
X114273809Y-85302857D01*
X114197619Y-85226666D01*
X114121428Y-85188571D01*
X113969047Y-85150476D01*
X113854761Y-85150476D01*
X113702380Y-85188571D01*
X113626190Y-85226666D01*
X113550000Y-85302857D01*
X113511904Y-85417142D01*
X113511904Y-85493333D01*
X113550000Y-85607619D01*
X113588095Y-85645714D01*
X113511904Y-86331428D02*
X113511904Y-86179047D01*
X113550000Y-86102857D01*
X113588095Y-86064761D01*
X113702380Y-85988571D01*
X113854761Y-85950476D01*
X114159523Y-85950476D01*
X114235714Y-85988571D01*
X114273809Y-86026666D01*
X114311904Y-86102857D01*
X114311904Y-86255238D01*
X114273809Y-86331428D01*
X114235714Y-86369523D01*
X114159523Y-86407619D01*
X113969047Y-86407619D01*
X113892857Y-86369523D01*
X113854761Y-86331428D01*
X113816666Y-86255238D01*
X113816666Y-86102857D01*
X113854761Y-86026666D01*
X113892857Y-85988571D01*
X113969047Y-85950476D01*
X113511904Y-86674285D02*
X113511904Y-87169523D01*
X113816666Y-86902857D01*
X113816666Y-87017142D01*
X113854761Y-87093333D01*
X113892857Y-87131428D01*
X113969047Y-87169523D01*
X114159523Y-87169523D01*
X114235714Y-87131428D01*
X114273809Y-87093333D01*
X114311904Y-87017142D01*
X114311904Y-86788571D01*
X114273809Y-86712380D01*
X114235714Y-86674285D01*
X113435714Y-73905714D02*
X113473809Y-73867619D01*
X113511904Y-73753333D01*
X113511904Y-73677142D01*
X113473809Y-73562857D01*
X113397619Y-73486666D01*
X113321428Y-73448571D01*
X113169047Y-73410476D01*
X113054761Y-73410476D01*
X112902380Y-73448571D01*
X112826190Y-73486666D01*
X112750000Y-73562857D01*
X112711904Y-73677142D01*
X112711904Y-73753333D01*
X112750000Y-73867619D01*
X112788095Y-73905714D01*
X112711904Y-74629523D02*
X112711904Y-74248571D01*
X113092857Y-74210476D01*
X113054761Y-74248571D01*
X113016666Y-74324761D01*
X113016666Y-74515238D01*
X113054761Y-74591428D01*
X113092857Y-74629523D01*
X113169047Y-74667619D01*
X113359523Y-74667619D01*
X113435714Y-74629523D01*
X113473809Y-74591428D01*
X113511904Y-74515238D01*
X113511904Y-74324761D01*
X113473809Y-74248571D01*
X113435714Y-74210476D01*
X112788095Y-74972380D02*
X112750000Y-75010476D01*
X112711904Y-75086666D01*
X112711904Y-75277142D01*
X112750000Y-75353333D01*
X112788095Y-75391428D01*
X112864285Y-75429523D01*
X112940476Y-75429523D01*
X113054761Y-75391428D01*
X113511904Y-74934285D01*
X113511904Y-75429523D01*
X107984285Y-66845714D02*
X108022380Y-66883809D01*
X108136666Y-66921904D01*
X108212857Y-66921904D01*
X108327142Y-66883809D01*
X108403333Y-66807619D01*
X108441428Y-66731428D01*
X108479523Y-66579047D01*
X108479523Y-66464761D01*
X108441428Y-66312380D01*
X108403333Y-66236190D01*
X108327142Y-66160000D01*
X108212857Y-66121904D01*
X108136666Y-66121904D01*
X108022380Y-66160000D01*
X107984285Y-66198095D01*
X107298571Y-66388571D02*
X107298571Y-66921904D01*
X107489047Y-66083809D02*
X107679523Y-66655238D01*
X107184285Y-66655238D01*
X106536666Y-66121904D02*
X106689047Y-66121904D01*
X106765238Y-66160000D01*
X106803333Y-66198095D01*
X106879523Y-66312380D01*
X106917619Y-66464761D01*
X106917619Y-66769523D01*
X106879523Y-66845714D01*
X106841428Y-66883809D01*
X106765238Y-66921904D01*
X106612857Y-66921904D01*
X106536666Y-66883809D01*
X106498571Y-66845714D01*
X106460476Y-66769523D01*
X106460476Y-66579047D01*
X106498571Y-66502857D01*
X106536666Y-66464761D01*
X106612857Y-66426666D01*
X106765238Y-66426666D01*
X106841428Y-66464761D01*
X106879523Y-66502857D01*
X106917619Y-66579047D01*
X89795285Y-52482714D02*
X89833380Y-52520809D01*
X89947666Y-52558904D01*
X90023857Y-52558904D01*
X90138142Y-52520809D01*
X90214333Y-52444619D01*
X90252428Y-52368428D01*
X90290523Y-52216047D01*
X90290523Y-52101761D01*
X90252428Y-51949380D01*
X90214333Y-51873190D01*
X90138142Y-51797000D01*
X90023857Y-51758904D01*
X89947666Y-51758904D01*
X89833380Y-51797000D01*
X89795285Y-51835095D01*
X89528619Y-51758904D02*
X89033380Y-51758904D01*
X89300047Y-52063666D01*
X89185761Y-52063666D01*
X89109571Y-52101761D01*
X89071476Y-52139857D01*
X89033380Y-52216047D01*
X89033380Y-52406523D01*
X89071476Y-52482714D01*
X89109571Y-52520809D01*
X89185761Y-52558904D01*
X89414333Y-52558904D01*
X89490523Y-52520809D01*
X89528619Y-52482714D01*
X88766714Y-51758904D02*
X88233380Y-51758904D01*
X88576238Y-52558904D01*
X89584285Y-60465714D02*
X89622380Y-60503809D01*
X89736666Y-60541904D01*
X89812857Y-60541904D01*
X89927142Y-60503809D01*
X90003333Y-60427619D01*
X90041428Y-60351428D01*
X90079523Y-60199047D01*
X90079523Y-60084761D01*
X90041428Y-59932380D01*
X90003333Y-59856190D01*
X89927142Y-59780000D01*
X89812857Y-59741904D01*
X89736666Y-59741904D01*
X89622380Y-59780000D01*
X89584285Y-59818095D01*
X88898571Y-60008571D02*
X88898571Y-60541904D01*
X89089047Y-59703809D02*
X89279523Y-60275238D01*
X88784285Y-60275238D01*
X88555714Y-59741904D02*
X88060476Y-59741904D01*
X88327142Y-60046666D01*
X88212857Y-60046666D01*
X88136666Y-60084761D01*
X88098571Y-60122857D01*
X88060476Y-60199047D01*
X88060476Y-60389523D01*
X88098571Y-60465714D01*
X88136666Y-60503809D01*
X88212857Y-60541904D01*
X88441428Y-60541904D01*
X88517619Y-60503809D01*
X88555714Y-60465714D01*
X95313333Y-58553333D02*
X94932380Y-58553333D01*
X95389523Y-58781904D02*
X95122857Y-57981904D01*
X94856190Y-58781904D01*
X94627619Y-58743809D02*
X94513333Y-58781904D01*
X94322857Y-58781904D01*
X94246666Y-58743809D01*
X94208571Y-58705714D01*
X94170476Y-58629523D01*
X94170476Y-58553333D01*
X94208571Y-58477142D01*
X94246666Y-58439047D01*
X94322857Y-58400952D01*
X94475238Y-58362857D01*
X94551428Y-58324761D01*
X94589523Y-58286666D01*
X94627619Y-58210476D01*
X94627619Y-58134285D01*
X94589523Y-58058095D01*
X94551428Y-58020000D01*
X94475238Y-57981904D01*
X94284761Y-57981904D01*
X94170476Y-58020000D01*
X93408571Y-58781904D02*
X93865714Y-58781904D01*
X93637142Y-58781904D02*
X93637142Y-57981904D01*
X93713333Y-58096190D01*
X93789523Y-58172380D01*
X93865714Y-58210476D01*
X92722857Y-58248571D02*
X92722857Y-58781904D01*
X92913333Y-57943809D02*
X93103809Y-58515238D01*
X92608571Y-58515238D01*
X105483333Y-58553333D02*
X105102380Y-58553333D01*
X105559523Y-58781904D02*
X105292857Y-57981904D01*
X105026190Y-58781904D01*
X104797619Y-58743809D02*
X104683333Y-58781904D01*
X104492857Y-58781904D01*
X104416666Y-58743809D01*
X104378571Y-58705714D01*
X104340476Y-58629523D01*
X104340476Y-58553333D01*
X104378571Y-58477142D01*
X104416666Y-58439047D01*
X104492857Y-58400952D01*
X104645238Y-58362857D01*
X104721428Y-58324761D01*
X104759523Y-58286666D01*
X104797619Y-58210476D01*
X104797619Y-58134285D01*
X104759523Y-58058095D01*
X104721428Y-58020000D01*
X104645238Y-57981904D01*
X104454761Y-57981904D01*
X104340476Y-58020000D01*
X103578571Y-58781904D02*
X104035714Y-58781904D01*
X103807142Y-58781904D02*
X103807142Y-57981904D01*
X103883333Y-58096190D01*
X103959523Y-58172380D01*
X104035714Y-58210476D01*
X103273809Y-58058095D02*
X103235714Y-58020000D01*
X103159523Y-57981904D01*
X102969047Y-57981904D01*
X102892857Y-58020000D01*
X102854761Y-58058095D01*
X102816666Y-58134285D01*
X102816666Y-58210476D01*
X102854761Y-58324761D01*
X103311904Y-58781904D01*
X102816666Y-58781904D01*
X110553333Y-58553333D02*
X110172380Y-58553333D01*
X110629523Y-58781904D02*
X110362857Y-57981904D01*
X110096190Y-58781904D01*
X109867619Y-58743809D02*
X109753333Y-58781904D01*
X109562857Y-58781904D01*
X109486666Y-58743809D01*
X109448571Y-58705714D01*
X109410476Y-58629523D01*
X109410476Y-58553333D01*
X109448571Y-58477142D01*
X109486666Y-58439047D01*
X109562857Y-58400952D01*
X109715238Y-58362857D01*
X109791428Y-58324761D01*
X109829523Y-58286666D01*
X109867619Y-58210476D01*
X109867619Y-58134285D01*
X109829523Y-58058095D01*
X109791428Y-58020000D01*
X109715238Y-57981904D01*
X109524761Y-57981904D01*
X109410476Y-58020000D01*
X108648571Y-58781904D02*
X109105714Y-58781904D01*
X108877142Y-58781904D02*
X108877142Y-57981904D01*
X108953333Y-58096190D01*
X109029523Y-58172380D01*
X109105714Y-58210476D01*
X107886666Y-58781904D02*
X108343809Y-58781904D01*
X108115238Y-58781904D02*
X108115238Y-57981904D01*
X108191428Y-58096190D01*
X108267619Y-58172380D01*
X108343809Y-58210476D01*
X115633333Y-58553333D02*
X115252380Y-58553333D01*
X115709523Y-58781904D02*
X115442857Y-57981904D01*
X115176190Y-58781904D01*
X114947619Y-58743809D02*
X114833333Y-58781904D01*
X114642857Y-58781904D01*
X114566666Y-58743809D01*
X114528571Y-58705714D01*
X114490476Y-58629523D01*
X114490476Y-58553333D01*
X114528571Y-58477142D01*
X114566666Y-58439047D01*
X114642857Y-58400952D01*
X114795238Y-58362857D01*
X114871428Y-58324761D01*
X114909523Y-58286666D01*
X114947619Y-58210476D01*
X114947619Y-58134285D01*
X114909523Y-58058095D01*
X114871428Y-58020000D01*
X114795238Y-57981904D01*
X114604761Y-57981904D01*
X114490476Y-58020000D01*
X113728571Y-58781904D02*
X114185714Y-58781904D01*
X113957142Y-58781904D02*
X113957142Y-57981904D01*
X114033333Y-58096190D01*
X114109523Y-58172380D01*
X114185714Y-58210476D01*
X113233333Y-57981904D02*
X113157142Y-57981904D01*
X113080952Y-58020000D01*
X113042857Y-58058095D01*
X113004761Y-58134285D01*
X112966666Y-58286666D01*
X112966666Y-58477142D01*
X113004761Y-58629523D01*
X113042857Y-58705714D01*
X113080952Y-58743809D01*
X113157142Y-58781904D01*
X113233333Y-58781904D01*
X113309523Y-58743809D01*
X113347619Y-58705714D01*
X113385714Y-58629523D01*
X113423809Y-58477142D01*
X113423809Y-58286666D01*
X113385714Y-58134285D01*
X113347619Y-58058095D01*
X113309523Y-58020000D01*
X113233333Y-57981904D01*
X89852380Y-50893333D02*
X89471428Y-50893333D01*
X89928571Y-51121904D02*
X89661904Y-50321904D01*
X89395238Y-51121904D01*
X89166666Y-51083809D02*
X89052380Y-51121904D01*
X88861904Y-51121904D01*
X88785714Y-51083809D01*
X88747619Y-51045714D01*
X88709523Y-50969523D01*
X88709523Y-50893333D01*
X88747619Y-50817142D01*
X88785714Y-50779047D01*
X88861904Y-50740952D01*
X89014285Y-50702857D01*
X89090476Y-50664761D01*
X89128571Y-50626666D01*
X89166666Y-50550476D01*
X89166666Y-50474285D01*
X89128571Y-50398095D01*
X89090476Y-50360000D01*
X89014285Y-50321904D01*
X88823809Y-50321904D01*
X88709523Y-50360000D01*
X88328571Y-51121904D02*
X88176190Y-51121904D01*
X88100000Y-51083809D01*
X88061904Y-51045714D01*
X87985714Y-50931428D01*
X87947619Y-50779047D01*
X87947619Y-50474285D01*
X87985714Y-50398095D01*
X88023809Y-50360000D01*
X88100000Y-50321904D01*
X88252380Y-50321904D01*
X88328571Y-50360000D01*
X88366666Y-50398095D01*
X88404761Y-50474285D01*
X88404761Y-50664761D01*
X88366666Y-50740952D01*
X88328571Y-50779047D01*
X88252380Y-50817142D01*
X88100000Y-50817142D01*
X88023809Y-50779047D01*
X87985714Y-50740952D01*
X87947619Y-50664761D01*
X90233333Y-58553333D02*
X89852380Y-58553333D01*
X90309523Y-58781904D02*
X90042857Y-57981904D01*
X89776190Y-58781904D01*
X89547619Y-58743809D02*
X89433333Y-58781904D01*
X89242857Y-58781904D01*
X89166666Y-58743809D01*
X89128571Y-58705714D01*
X89090476Y-58629523D01*
X89090476Y-58553333D01*
X89128571Y-58477142D01*
X89166666Y-58439047D01*
X89242857Y-58400952D01*
X89395238Y-58362857D01*
X89471428Y-58324761D01*
X89509523Y-58286666D01*
X89547619Y-58210476D01*
X89547619Y-58134285D01*
X89509523Y-58058095D01*
X89471428Y-58020000D01*
X89395238Y-57981904D01*
X89204761Y-57981904D01*
X89090476Y-58020000D01*
X88328571Y-58781904D02*
X88785714Y-58781904D01*
X88557142Y-58781904D02*
X88557142Y-57981904D01*
X88633333Y-58096190D01*
X88709523Y-58172380D01*
X88785714Y-58210476D01*
X87604761Y-57981904D02*
X87985714Y-57981904D01*
X88023809Y-58362857D01*
X87985714Y-58324761D01*
X87909523Y-58286666D01*
X87719047Y-58286666D01*
X87642857Y-58324761D01*
X87604761Y-58362857D01*
X87566666Y-58439047D01*
X87566666Y-58629523D01*
X87604761Y-58705714D01*
X87642857Y-58743809D01*
X87719047Y-58781904D01*
X87909523Y-58781904D01*
X87985714Y-58743809D01*
X88023809Y-58705714D01*
M02*
